<?xml version="1.0" encoding="iso-8859-1"?>
<!-- Generator: Adobe Illustrator 14.0.0, SVG Export Plug-In . SVG Version: 6.00 Build 43363)  -->
<!DOCTYPE svg PUBLIC "-//W3C//DTD SVG 1.1//EN" "http://www.w3.org/Graphics/SVG/1.1/DTD/svg11.dtd">
<svg version="1.1" id="Layer_1" xmlns="http://www.w3.org/2000/svg" xmlns:xlink="http://www.w3.org/1999/xlink" x="0px" y="0px"
	 width="30px" height="30px" viewBox="0 0 30 30" style="enable-background:new 0 0 30 30;" xml:space="preserve">
<path d="M21.24,16.477C22.939,14.84,24,12.546,24,10c0-4.971-4.029-9-9-9s-9,4.029-9,9c0,2.546,1.061,4.84,2.76,6.477
	C4.162,18.771,1,23.513,1,29h28C29,23.513,25.838,18.771,21.24,16.477z M8,10c0-3.866,3.134-7,7-7c3.867,0,7,3.134,7,7s-3.133,7-7,7
	C11.134,17,8,13.866,8,10z M10.603,17.849C11.904,18.579,13.402,19,15,19c1.598,0,3.096-0.421,4.396-1.151
	c3.848,1.521,6.732,4.967,7.438,9.151H3.167C3.872,22.815,6.755,19.37,10.603,17.849z"/>
</svg>
