<svg xmlns="http://www.w3.org/2000/svg" xmlns:xlink="http://www.w3.org/1999/xlink" id="Layer_1" data-name="Layer 1" viewBox="0 0 110 36"><defs><style>.cls-1,.cls-2{fill:none;}.cls-1{clip-rule:evenodd;}.cls-3{clip-path:url(#clip-path);}.cls-4{clip-path:url(#clip-path-2);}.cls-5{fill:#3d5a98;}.cls-6{clip-path:url(#clip-path-3);}.cls-7{fill:#fff;}.cls-8{clip-path:url(#clip-path-5);}.cls-9{fill:#ee4242;}.cls-10{clip-path:url(#clip-path-7);}</style><clipPath id="clip-path" transform="translate(5 5)"><path class="cls-1" d="M1.41,0H24.12a1.42,1.42,0,0,1,1.41,1.43v23a1.42,1.42,0,0,1-1.41,1.43H1.41A1.42,1.42,0,0,1,0,24.48v-23A1.42,1.42,0,0,1,1.41,0"/></clipPath><clipPath id="clip-path-2" transform="translate(5 5)"><rect class="cls-2" x="-286" y="-597" width="1440" height="5045"/></clipPath><clipPath id="clip-path-3" transform="translate(5 5)"><path class="cls-1" d="M17.61,25.91v-10h3.32L21.42,12H17.61V9.47c0-1.13.31-1.9,1.91-1.9h2V4.07a26.89,26.89,0,0,0-3-.15c-2.94,0-5,1.82-5,5.17V12H10.31v3.91h3.33v10Z"/></clipPath><clipPath id="clip-path-5" transform="translate(5 5)"><path class="cls-1" d="M29.61,0H72.45a1.42,1.42,0,0,1,1.41,1.43v23a1.42,1.42,0,0,1-1.41,1.43H29.61a1.42,1.42,0,0,1-1.41-1.43v-23A1.42,1.42,0,0,1,29.61,0"/></clipPath><clipPath id="clip-path-7" transform="translate(5 5)"><path class="cls-1" d="M66.72,16.75H61.66V13.67h4.79v-1.6H61.66V9.16h5.06V7.47h-7v11h7V16.75Zm-12.6,1.69,3.74-11H55.79l-2.7,8.68H53L50.25,7.46H48.13l3.78,11h2.22Zm-9.8,0h1.93v-11H44.32Zm-2.08-1.72h-5V7.47H35.34v11h6.89V16.73Z"/></clipPath></defs><title>logo-fblive</title><g class="cls-8"><g class="cls-4"><rect class="cls-9" x="28.2" width="55.66" height="35.91"/></g></g><g class="cls-10"><g class="cls-4"><rect class="cls-7" x="35.34" y="7.46" width="41.38" height="20.98"/></g></g></svg>