<?xml version="1.0" encoding="UTF-8" standalone="no"?>
<!DOCTYPE svg PUBLIC "-//W3C//DTD SVG 1.1//EN" "http://www.w3.org/Graphics/SVG/1.1/DTD/svg11.dtd">
<svg width="100%"
     height="100%"
     viewBox="0 0 12 12"
     version="1.1"
     xmlns="http://www.w3.org/2000/svg"
     xmlns:xlink="http://www.w3.org/1999/xlink"
     xml:space="preserve"
     style="fill-rule:evenodd;clip-rule:evenodd;stroke-linejoin:round;stroke-miterlimit:1.41421;">
  <path d="M6,12c-3.314,0 -6,-2.686 -6,-6.001c0,-3.313 2.686,-5.999 6,-5.999c3.314,0 6,2.686 6,6c0,3.314 -2.686,6 -6.001,6l0.001,0Zm0.015,-10.858c-2.682,0 -4.858,2.175 -4.858,4.857c0,2.684 2.176,4.859 4.858,4.859c2.684,0 4.86,-2.175 4.86,-4.859c0,-2.682 -2.176,-4.857 -4.86,-4.857Z"/>
  <path d="M5.246,7.821l0.972,0l-1.417,-1.877l1.417,-1.877l-0.973,0l-1.416,1.877l1.416,1.877l0.001,0Z"/>
  <path d="M7.364,7.821l0.972,0l-1.417,-1.877l1.417,-1.877l-0.972,0l-1.418,1.877l1.418,1.877Z"
  />
</svg>
