<?xml version="1.0" encoding="UTF-8" standalone="no"?>
<!DOCTYPE svg PUBLIC "-//W3C//DTD SVG 1.1//EN" "http://www.w3.org/Graphics/SVG/1.1/DTD/svg11.dtd">
<svg width="100%" height="100%" viewBox="0 0 16 16" version="1.1" xmlns="http://www.w3.org/2000/svg" xmlns:xlink="http://www.w3.org/1999/xlink"
  xml:space="preserve" style="fill-rule:evenodd;clip-rule:evenodd;stroke-linejoin:round;stroke-miterlimit:1.41421;">
  <path d="M7.902,15.803c-4.364,0 -7.902,-3.537 -7.902,-7.902c0,-4.364 3.538,-7.901 7.902,-7.901c4.364,0 7.902,3.537 7.902,7.901c0,4.365 -3.538,7.902 -7.902,7.902Zm0.02,-14.3c-3.534,0 -6.398,2.865 -6.398,6.398c0,3.534 2.864,6.399 6.398,6.399c3.534,0 6.398,-2.865 6.398,-6.399c0,-3.533 -2.864,-6.398 -6.398,-6.398l0,0Z"/>
  <path d="M7.565,6.002c0,-0.198 -0.161,-0.359 -0.358,-0.359l-0.718,0c-0.198,0 -0.359,0.161 -0.359,0.359l0,4.652c0,0.198 0.161,0.359 0.359,0.359l0.718,0c0.197,0 0.358,-0.161 0.358,-0.359l0,-4.652Z"/>
  <path d="M10.37,6.002c0,-0.198 -0.161,-0.359 -0.359,-0.359l-0.718,0c-0.197,0 -0.358,0.161 -0.358,0.359l0,4.652c0,0.198 0.161,0.359 0.358,0.359l0.718,0c0.198,0 0.359,-0.161 0.359,-0.359l0,-4.652Z"/>
</svg>
