<?xml version="1.0" encoding="UTF-8" standalone="no"?>
<!DOCTYPE svg PUBLIC "-//W3C//DTD SVG 1.1//EN" "http://www.w3.org/Graphics/SVG/1.1/DTD/svg11.dtd">
<svg width="100%"
     height="100%"
     viewBox="0 0 16 16"
     version="1.1"
     xmlns="http://www.w3.org/2000/svg"
     xmlns:xlink="http://www.w3.org/1999/xlink"
     xml:space="preserve"
     style="fill-rule:evenodd;clip-rule:evenodd;stroke-linejoin:round;stroke-miterlimit:1.41421;">
  <path d="M7.902,15.803c-4.364,0 -7.902,-3.537 -7.902,-7.902c0,-4.364 3.538,-7.901 7.902,-7.901c4.364,0 7.902,3.537 7.902,7.901c0,4.365 -3.538,7.902 -7.902,7.902Zm0.02,-14.3c-3.534,0 -6.398,2.865 -6.398,6.398c0,3.534 2.864,6.399 6.398,6.399c3.534,0 6.398,-2.865 6.398,-6.399c0,-3.533 -2.864,-6.398 -6.398,-6.398Z"/>
  <path d="M10.161,8.819l-3.116,2.097c-0.097,0.066 -0.209,0.098 -0.323,0.098c-0.093,0 -0.186,-0.022 -0.272,-0.067c-0.188,-0.101 -0.306,-0.297 -0.306,-0.511l0,-4.193c0,-0.213 0.118,-0.41 0.306,-0.51c0.189,-0.1 0.418,-0.089 0.595,0.03l3.116,2.097c0.16,0.107 0.255,0.287 0.255,0.479c0,0.193 -0.095,0.373 -0.255,0.48Z"/>
</svg>
