<?xml version="1.0" encoding="UTF-8" standalone="no"?>
<!DOCTYPE svg PUBLIC "-//W3C//DTD SVG 1.1//EN" "http://www.w3.org/Graphics/SVG/1.1/DTD/svg11.dtd">
<svg width="100%"
     height="100%"
     viewBox="0 0 14 12"
     version="1.1"
     xmlns="http://www.w3.org/2000/svg"
     xmlns:xlink="http://www.w3.org/1999/xlink"
     xml:space="preserve"
     style="fill-rule:evenodd;clip-rule:evenodd;stroke-linejoin:round;stroke-miterlimit:1.41421;">
  <path d="M13.757,7.335l-3.159,1.824l-1.825,-3.159l1.997,0.535c0.019,-0.176 0.03,-0.354 0.03,-0.535c0,-2.651 -2.149,-4.8 -4.8,-4.8c-2.651,0 -4.8,2.149 -4.8,4.8c0,2.651 2.149,4.8 4.8,4.8c0.831,0 1.612,-0.211 2.293,-0.583l0.6,1.04c-0.858,0.473 -1.844,0.743 -2.893,0.743c-3.314,0 -6,-2.687 -6,-6c0,-3.314 2.686,-6 6,-6c3.314,0 6.001,2.686 6.001,6c0,0.288 -0.028,0.57 -0.067,0.847l1.823,0.488Z"/>
  <text x="3.852px"
        y="7.412px"
        style="font-family:'Roboto-Regular', 'Roboto';font-size:4.767px;">2x</text>
</svg>
