<svg id="Layer_1" data-name="Layer 1" xmlns="http://www.w3.org/2000/svg" viewBox="0 0 198.26 41"><defs><style>.cls-1{fill:#01afed;}.cls-2{fill:#fff;}</style></defs><title>Lineups-logo-white-blue</title><rect class="cls-1" width="198.26" height="41"/><polygon class="cls-2" points="9.61 3.46 2.66 3.46 2.66 39.07 25.76 39.07 25.76 32.87 9.61 32.87 9.61 3.46"/><rect class="cls-2" x="32.08" y="3.47" width="6.95" height="35.6"/><polygon class="cls-2" points="65.66 25.27 51.56 3.46 45.36 3.46 45.36 39.07 52.31 39.07 52.31 17.21 66.41 39.07 72.61 39.07 72.61 3.46 65.66 3.46 65.66 25.27"/><polygon class="cls-2" points="79.41 39.07 102.86 39.07 102.86 32.87 86.36 32.87 86.36 24.22 100.41 24.22 100.41 18.02 86.36 18.02 86.36 9.67 102.86 9.67 102.86 3.46 79.41 3.46 79.41 39.07"/><path class="cls-2" d="M155.47,2.13h-13.8v35.6h7V24.33h6.85c7.35,0,11.75-5.05,11.75-11.1S162.83,2.13,155.47,2.13Zm-.35,16h-6.5V8.33h6.5c3.15,0,5.15,2,5.15,4.9S158.28,18.08,155.12,18.08Z" transform="translate(0 1.33)"/><path class="cls-2" d="M193.38,19.68c-1.5-1.4-3.55-2.3-6.8-2.75l-4.2-.6a6.12,6.12,0,0,1-3.3-1.4,3.44,3.44,0,0,1-1-2.55c0-2.45,1.8-4.5,5.5-4.5,2.35,0,5.05.3,7.3,2.45L195.23,6c-3.05-3-6.6-4.15-11.5-4.15-7.7,0-12.4,4.45-12.4,10.8a9.41,9.41,0,0,0,2.55,7,12.08,12.08,0,0,0,6.9,3l4.3.6a5.31,5.31,0,0,1,3.15,1.25,4,4,0,0,1,1.1,3c0,2.85-2.2,4.4-6.3,4.4-3.3,0-6.35-.75-8.6-3l-4.5,4.5c3.5,3.55,7.6,4.7,13,4.7,7.45,0,13.2-3.9,13.2-10.8C196.13,24.08,195.28,21.48,193.38,19.68Z" transform="translate(0 1.33)"/><path class="cls-2" d="M131.92,2.13l-5.72,7.49h2.2V25.28c0,4.1-2.45,6.55-6.2,6.55s-6.15-2.45-6.15-6.55V2.13h-7v23.4c0,7.55,5.8,12.5,13.1,12.5s13.1-5,13.1-12.5V9.62h2.33Z" transform="translate(0 1.33)"/></svg>