<svg height="36pt" viewBox="0 0 69 36" width="69pt" xmlns="http://www.w3.org/2000/svg"><path d="m17.621094 7.382812-.324219.03125-.203125.261719-9.785156 12.5-1.679688 2.148438 2.554688-.933594 10.429687-3.796875 9.117188-1.335938-27.488281 19.558594v.003906l48.652343-5.339843.328125-.035157.199219-.257812 9.757813-12.464844 1.667968-2.132812-2.539062.914062-10.511719 3.78125-9.019531 1.320313 29.910156-21.296875zm0 0" fill="#a89968"/><path d="m65.796875 1.410156-48.09375 6.75-9.78125 12.5 10.5-3.824218 12.410156-1.816407-27.703125 19.703125 45.683594-5.011718 9.757812-12.46875-10.582031 3.808593-12.304687 1.800781zm0 0" fill="#041e42"/><path d="m246.646194 628.624642-28.4647-3.644968 41.327031 11.792545-120.640962-17.446196-16.598748-21.12502 14.923021 5.405387 56.567082 8.271709-70.65224-49.867233 32.042602 9.129348-38.25864-16.532133 107.020026 11.690983 16.598747 21.136304-15.24005-5.473095-56.250052-8.215285 77.638206 54.86637zm0 0" fill="#fff" stroke="#fff" stroke-width=".9416" transform="matrix(.345 0 0 -.346154 -29.319421 224.135793)"/></svg>