<svg height="70pt" viewBox="0 0 70 70" width="70pt" xmlns="http://www.w3.org/2000/svg"><path d="m34.972656.308594c-19.144531 0-34.71875 15.574218-34.71875 34.71875 0 19.144531 15.574219 34.71875 34.71875 34.71875 19.144532 0 34.71875-15.574219 34.71875-34.71875 0-19.144532-15.574218-34.71875-34.71875-34.71875"/><path d="m34.972656 1.722656c-18.363281 0-33.304687 14.9375-33.304687 33.300782 0 18.363281 14.941406 33.304687 33.304687 33.304687 18.363282 0 33.300782-14.941406 33.300782-33.304687 0-18.367188-14.9375-33.304688-33.300782-33.304688zm0 0" fill="#fff"/><path d="m34.972656 3.136719c-17.609375 0-31.886718 14.277343-31.886718 31.890625 0 17.609375 14.277343 31.886718 31.886718 31.886718s31.886719-14.277343 31.886719-31.886718c0-17.613282-14.277344-31.890625-31.886719-31.890625zm0 0" fill="#a60c31"/><path d="m34.972656 14.199219c-11.503906 0-20.828125 9.324219-20.828125 20.828125 0 11.5 9.324219 20.824218 20.828125 20.824218 11.5 0 20.828125-9.324218 20.828125-20.824218 0-11.503906-9.328125-20.828125-20.828125-20.828125zm0 0" fill="#fff"/><path d="m35.242188 5.222656-4.382813.230469.058594 1.324219h.507812l.183594 3.984375-.492187.042969.0625 1.386718 4.519531-.226562c.554687-.027344.792969-.660156.789062-1.207032l-.085937-1.417968c-.152344-.457032-.554688-.753906-1.050782-.847656.542969-.097657.890626-.503907.980469-1.042969.027344-.804688-.132812-2.28125-1.089843-2.226563zm8.523437 1.296875-2.773437 4.71875-.472657-.175781-.488281 1.324219 2.132812.789062.792969-1.480469 1.105469.40625-.398438 1.628907 2.082032.765625.496094-1.339844-.445313-.164062.871094-5.402344zm-9.382813.175781.058594 1.269532-1.074218.050781-.058594-1.273437zm-10.902343.8125-2.792969 1.332032 1.449219 5.277344-.457031.21875.609374 1.273437 2.050782-.980469-.507813-1.601562 1.0625-.507813.886719 1.421875 2.007812-.960937-.617187-1.289063-.429687.203125zm21.328125.652344.050781.019532-.527344 2.730468-.851562-.3125zm-22.167969 1.050782 1.59375 2.285156-.816406.390625-.828125-2.652344zm11.878906.042968.066407 1.421875-1.09375.050781-.066407-1.417968zm19.058594 2.148438-1.019531.992187.328125.339844-2.863281 2.777344-.328126-.308594-.996093.96875 1.582031 1.628906 2.570312-2.492187c-.230468 1.015625-.472656 2.070312-.703124 3.085937l3.039062-.796875-2.625 2.550782 1.578125 1.625 1.023437-1-.335937-.347657 2.832031-2.75.316406.296875 1.019532-.988281-1.527344-1.570313-3.242188.859376.910157-3.261719zm-40.539063 3.441406-1.953124 2.167969 1.042968.933593.328125-.367187 2.96875 2.667969-.320312.355468 1.066406.957032 3.421875-3.804688-1.941406-1.742187-1.226563 1.359375.878907.789062-.574219.632813-2.945313-2.652344.308594-.347656zm-5.683593 8.914062-1.027344 2.921876 4.761719 2.699218-.164063.472656 1.328125.472657.753906-2.144531-1.492187-.773438.390625-1.109375 1.632812.371094.734376-2.09375-1.347657-.476563-.15625.449219zm55.394531.394532-5.421875.769531-.160156-.480469-1.335938.441406.710938 2.160157 1.652343-.300781.367188 1.117187-1.519531.703125.695312 2.105469 1.359375-.445313-.148437-.449218 4.769531-2.683594zm-54.777344 1.40625 2.742188.488281-.300782.851563-2.460937-1.289063zm54.140625.433594.015625.050781-2.464844 1.289062-.285156-.859375zm-4.523437 13.863281-1.234375 4.03125 1.359375.414062.117187-.378906 3.875 1.1875-.117187.382813 1.367187.417968 1.265625-4.117187-2.238281-.6875-.417969 1.351562.871094.265625-.265625.871094-1.402344-.429688.363281-1.183593-1.21875-.371094-.382812 1.171875-1.234375-.378906.265625-.867188.714844.21875.390625-1.265625zm-45.921875.019531c-.144531-.007812-.292969.011719-.441407.054688l-4.085937 1.191406c-.707031.207031-1.355469.734375-1.1875 1.3125l.820313 2.886718 2.441406-.714843-.402344-1.390625-1.050781.308594-.246094-.847657 3.890625-1.136719.246094.847657-.777344.226562.382812 1.320313 2.144532-.625-.816406-2.804688c-.105469-.367187-.484376-.605468-.917969-.628906zm2.246093 4.785156-1.238281.738282.183594.351562-3.464844 2.0625-.222656-.332031-1.210937.722656 1.023437 1.71875 2.40625-1.429687.464844.777343-1.84375 1.097657c-.257813.15625-.488281.457031-.34375.699218l.789062 1.328125 1.230469-.734375-.183594-.351562.84375-.542969c.441406-.285156.578125-.703125.480469-1.15625.347656.199219.789063.378906 1.246094.128906l1.003906-.554687c.621094-.339844.886719-1.082032.59375-1.574219zm42.03125.964844c-.265624.003906-.503906.09375-.632812.300781l-1.921875 3.082031 1.226563.757813.21875-.355469 3.449218 2.128906-.1875.347657 1.199219.742187 1.894531-3.113281c.226563-.367187.035156-.898437-.402344-1.164063l-4.058593-2.503906c-.230469-.144531-.519531-.226562-.785157-.222656zm-42.300781 1.503906.464844.78125-1.148437.683594-.464844-.777344zm42.519531.191406 3.441407 2.117188-.46875.761719-3.441407-2.121094zm-38.746093 2.675782-1.042969.992187.285156.304688-2.941406 2.789062-.246094-.261719-1.023437.972657 1.613281 1.699219 1.039062-.984376-.273437-.289062 2.925781-2.777344.261719.277344 1.046875-.996094zm34.96875.148437-1.648438 1.71875 1.039063 1 .285156-.296875 2.921875 2.808594-.25.257812 1.019531.980469 1.625-1.691406-1.035156-.992187-.273438.285156-2.90625-2.792969.261719-.273437zm-32.386719 2.679688-.761719 1.226562.339844.207031-2.140625 3.441407-.335938-.179688-.746093 1.199219 1.621093 1.003906 1.917969-3.085937c-.0625 1.003906-.128906 2.046875-.191406 3.050781l2.566406-1.675781-1.960937 3.160156 1.609375 1 .765625-1.234375-.34375-.210938 2.121094-3.410156.316406.175782.761718-1.226563-1.558593-.96875-2.738281 1.800781.355468-3.285156zm29.699219.085937-4.207031 2.773438 1.390624 2.101562.972657-.636718-.605469-.917969.460938-.308594 2.234374 3.382813-.289062.1875.789062 1.199218 1.953126-1.289062-.789063-1.195313-.316406.210938-2.230469-3.382813.464844-.308594.617187.9375.957031-.628906zm-6.6875 3.871094-1.851563.449219.816406 3.347656-2.300781-3.003906-1.855469.453125.34375 1.402344.402344-.101563.960938 3.9375-.402344.101563.339844 1.390624 1.867187-.457031-.835937-3.425781 2.3125 3.042969 1.472656-.335938-1.296875-5.308593.363281-.109376zm-15.179688.210938c-.066406-.007813-.132812-.003907-.203125.003906-.402344.046875-.78125.320312-.910156.789062l-.421875 1.582032c-.175781.664062.039063 1.386718.59375 1.535156l1.492187.398437-.363281 1.363281-.84375-.226562.171875-.652344-1.476562-.390625-.546875 2.054688 2.964843.792969c.476563.128906 1.019532-.269532 1.179688-.859376l.472656-1.765624c.164063-.609376-.039062-1.257813-.539062-1.394532l-1.558594-.417968.339844-1.269532.875.234375-.15625.589844 1.347656.359375.523438-1.960938-2.742188-.734374c-.066406-.019532-.132812-.027344-.199219-.03125zm5.578125 1.035156c-.457031-.007813-1.015625.367187-1.03125.984375l-.113281 4.929687c-.011719.554688.390625.980469.851563.992188l2.308593.054687c.511719.011719.847657-.625.859375-1.234375l.109375-4.613281c.011719-.578125-.371093-1.046875-.859375-1.058594l-2.125-.050781zm.539063 1.472656.863281.019531-.09375 4.039063-.863281-.019532zm0 0" fill="#c8c8c8"/><path d="m44.664062 21.480469c-1.300781.996093-2.613281 2.007812-3.707031 2.171875-1 .238281-7.109375.71875-6.679687-2.074219-.679688.054687-1.066406.855469-1.0625 1.546875.222656 3.019531 4.144531 2.417969 6.535156 2.714844-2.46875 3.085937-4.632812 6.28125-6.589844 9.589844-1.550781.296874-1.753906-1.628907-1.492187-2.15625 0 0-1.023438.285156-1.417969 1.40625-.480469 1.179687.0625 3.171874 1.734375 3.28125-1.652344 2.90625-3.636719 7.667968-7.6875 6.71875-1.359375-.28125-2.945313-2.578126-2.125-3.945313.503906-.699219-.242187-1.191406-1.097656-.152344-2.101563 2.320313-.074219 6.957031 4.335937 6.679688 4.738282.105469 7.933594-5.789063 9.660156-9.285157l4.496094-.707031-.289062 3.667969c-.566406 9.117188 6 5.597656 6 5.597656.910156-.414062 1.867187-1.410156 1.84375-2.574218-.046875-.394532-.265625-.242188-.484375-.128907-2.316407 1.195313-4.054688.945313-4.238281-.5-.210938-1.613281-.097657-3.886719-.019532-4.753906.027344-.3125.125-1.339844.183594-1.648437.792969-.167969 1.847656-.550782 1.847656.820312.402344-.203125 1.132813-.804688 1.257813-1.441406.699219-3.300782-2.757813-2.433594-2.757813-2.433594.84375-3.898438 1.75-8.046875 3.679688-11.46875zm-2.765624 5.507812c-.75 2.398438-1.363282 5.125-1.949219 7.550781l-3.402344.414063c1.695313-2.710937 2.621094-5.21875 5.351563-7.96875zm0 0" fill="#a60c31"/></svg>