<svg height="79pt" viewBox="0 0 70 79" width="70pt" xmlns="http://www.w3.org/2000/svg"><path d="m35.976562 37.589844h-1.8125l.90625-2.324219zm28.160157 21.449218c-1.039063-2.652343-2.765625-7.050781-4.738281-12.078124-4.449219-11.34375-8.253907-21.042969-10.527344-26.835938h2.644531v-19.640625h-32.796875v19.640625h2.632812c-2.117187 5.402344-5.5625 14.175781-9.570312 24.398438-2.363281 6.03125-4.488281 11.449218-5.691406 14.515624h-5.519532v19.554688h29.949219v-19.554688h-2.835937c.09375-.316406.195312-.648437.300781-1 .058594-.203124.121094-.40625.183594-.609374h13.890625c.0625.203124.121094.410156.183594.613281.105468.347656.207031.679687.300781.996093h-2.878907v19.554688h29.984376v-19.554688zm0 0" fill="#fff"/><path d="m37.433594 38.585938h-4.722656l2.359374-6.0625zm26.023437 21.449218c-1-2.550781-2.851562-7.269531-4.996093-12.734375-4.683594-11.945312-8.828126-22.507812-11.046876-28.167969h3.105469v-17.652343h-30.804687v17.652343h3.097656c-2.035156 5.1875-5.707031 14.542969-10.042969 25.601563-2.542969 6.488281-4.84375 12.347656-6 15.300781h-5.199219v17.566406h27.953126v-17.566406h-3.179688c.199219-.65625.425781-1.40625.6875-2.277344.128906-.4375.265625-.890624.394531-1.320312h15.375c.128907.429688.265625.882812.398438 1.320312.257812.871094.488281 1.621094.683593 2.277344h-3.222656v17.566406h27.996094v-17.566406zm0 0" fill="#fc0"/><path d="m35.074219 26.488281 5.5625 14.28125h-11.128907zm26.886719 35.730469c-.730469-1.855469-2.984376-7.601562-5.523438-14.082031-4.75-12.109375-10.480469-26.714844-12.234375-31.1875h4.125v-13.28125h-26.417969v13.28125h4.113282c-1.628907 4.148437-6.675782 17.015625-11.21875 28.597656-3.039063 7.75-5.730469 14.613281-6.539063 16.671875h-4.507813v13.199219h23.574219v-13.199219h-3.941406c.320313-1.042969.820313-2.699219 1.539063-5.089844.324218-1.089844.660156-2.207031.863281-2.878906h18.636719c.207031.683594.539062 1.792969.867187 2.878906.71875 2.390625 1.21875 4.046875 1.535156 5.089844h-3.980469v13.199219h23.609376v-13.199219zm0 0" fill="#fff"/><path d="m65.46875 74.421875h-21.613281v-11.210937h4.34375c-.199219-.492188-2.9375-9.726563-3.03125-9.957032h-20.101563c-.09375.230469-2.832031 9.464844-3.03125 9.957032h4.304688v11.210937h-21.578125v-11.210937h4.1875c.097656-.242188 18.328125-46.734376 18.542969-47.261719h-4.582032v-11.292969h24.425782v11.292969h-4.589844c.210937.53125 18.441406 47.019531 18.539062 47.261719h4.183594zm-37.414062-32.660156h14.042968l-7.019531-18.019531-7.019531 18.019531zm0 0" fill="#222"/><path d="m51.222656 48.847656s-.390625.78125-.632812 1.074219c0 0 .242187.585937.609375.363281.367187-.21875.292969-.925781.023437-1.4375m-4.777344-.328125c.152344-.1875.609376-.761719.722657-1.242187.140625-.578125.101562-1.054688-.074219-1.167969s-.582031.238281-.644531 1.632813c-.011719.277343-.011719.535156-.003907.777343m-2.179687 0c.152344-.1875.609375-.761719.722656-1.242187.140625-.578125.101563-1.054688-.074219-1.167969-.175781-.113281-.578124.238281-.640624 1.632813-.015626.277343-.015626.535156-.007813.777343m-6.382813-1.761719c-.378906-.167968-.535156.144532-.703124 1.222657-.164063 1.078125.066406 1.578125.257812 1.53125.1875-.042969.355469-.363281.34375-.765625-.007812-.398438.101562-1.988282.101562-1.988282m-11.261718.65625c-.183594-.089843-.453125 0-.453125.527344v1.183594c0 .285156.484375 1.109375.546875.132812.074218-1.242187.054687-1.765624-.09375-1.84375m25.484375-.15625c0 .390626-.023438 1.734376-.023438 2.371094 0 .636719-.148437 1.316406-.664062 1.316406-.511719 0-.976563-.414062-.976563-.414062s-.808594.242188-1.199218-.074219c-.390626-.316406-.488282-.78125-.367188-1.609375l.121094-.832031-.242188-.074219s-.34375 2.125-1.390625 2.710938c-.257812.144531-1.113281.300781-1.53125-.839844-.148437.210938-.355469.484375-.527343.621094-.210938.164062-1.027344.402344-1.511719-.425782-.644531.675782-1.273438.375-1.464844-.121093-.210937-.550781-.144531-1.320313-.128906-1.804688.015625-.492187-.503907-.179687-.523438.078125-.015625.261719-.0625.929688-.160156 1.792969-.070313.582031-.199219.765625-.441406.617187-.152344-.089843-.261719-.238281-.328125-.523437-.179688.175781-.46875.382813-.800782.355469-.277343-.019532-.445312-.207032-.554687-.460938-.699219.375-1.285156.058594-1.285156.058594s-.746094.792969-1.183594.316406c-.105469-.121094-.214844-.328125-.296875-.628906-.101562.199219-.328125.59375-.660156.769531-.457032.246094-.800782.015625-1.078125-.667969-.050781-.125-.085938-.296874-.109375-.488281-.699219.9375-1.445313.863281-1.652344.328125-.210938-.554687-.148438-1.320312-.128906-1.808594.015625-.488281-.507813-.179687-.523438.082032-.015625.257812-.066406.929687-.164062 1.789062-.066406.582032-.195313.765625-.441406.621094-.15625-.09375-.261719-.246094-.328126-.539062-.207031.214843-.597656.554687-1.023437.585937-.289063.019531-.492187-.214844-.613281-.53125-.214844.230469-.53125.511719-.773438.503906-.546875-.019531-.753906-.660156-.753906-1.054687v-1.09375c-.085938.113281-.230469.265625-.375.324218-.167969.058594-.34375.109376-.570312.074219v.636719c0 .980469-.394532 1.375-1.074219 1.054688-.371094-.171876-.570313-.503907-.675781-.820313-.078126.308594-.304688.972656-.796876.972656-.640624 0-.921874-.808593-.921874-1.789062v-2.390625c0-.320313-.171876-.621094-.453126-.1875-.285156.433594-.34375.65625-.34375.980468v2.425782c0 .433594-.261718.734375-.695312.734375s-.527344-.242188-.527344-.980469v-2.59375c0-.339844-.210937-.90625-.472656-.304688-.265625.605469-.398438 1.113282-.398438 1.546876v1.675781c0 .28125-.035156.695312-.472656.695312-.433594 0-.660156-.207031-.660156-1.074219v-2.464843c0-.886719.113281-1.335938-.035156-1.414063-.152344-.074218-.417969.097656-1.472656 1.113282l-.378907-.414063s1.511719-1.28125 2.058594-1.714844c.546875-.433593 1.375-.375 1.488281.394531 0 0 .4375-.589843.851563-.636718.640625-.074219.714843 1.203125.714843 1.203125s.449219-.578125.8125-1.054688c.492188-.640625 1.074219-.46875 1.074219.394531 0 .867188-.128906 3.21875-.167969 3.972657-.035156.683593.351563 1.148437.707032.5625-.019532-.125-.027344-.238281-.027344-.316407v-1.828124c0-1.488282.976562-1.570313 1.324219-1.390626.46875.242188.542969.773438.542969 1.371094 0 .832032.292968.96875.511718.8125.183594-.136718.332032-.296875.433594-.417968v-1.183594c0-.507813.394531-.507813.566406-.339844.1875.191406.132813.378906.132813.714844v2.261718c0 .769532.246093.867188.433593.769532.109376-.054688.210938-.230469.277344-.375-.023437-.660156.03125-2.4375.136719-2.882813.117187-.46875.382813-.546875.566406-.414062.207031.148437.152344.472656.132813.753906-.019532.285156-.113282.8125-.1875 1.734375-.078125.921875.042968 1.320312.394531 1.261719.210937-.039063.515625-.472657.648437-.679688.003907-.746093.117188-1.789062.179688-2.4375.082031-.832031.417969-.816406.636719-.703125.210937.117188.195312.652344.195312.652344s.425781-.519531.800781-.765625c.375-.242187.488282.035156.472657.441406s-.046875 1.53125-.046875 2.277344c0 .75.175781.832031.472656.621094.253906-.183594.496094-.6875.554688-.816407.011718-.621093.058593-1.277343.074218-1.75-.265625.003907-.527344.011719-.679687.023438-.359375.035156-.246094-.277344.015625-.292969.222656-.011719.425781-.09375.675781-.121093.027344-.816407.109375-1.550782.109375-2.074219 0-.570313.332031-.453125.539062-.355469.277344.128906.242188.273438.175782.78125-.027344.222656-.085938.878906-.144532 1.632812.21875-.007812.285157 0 .539063.074219.390625.113281 0 .324219-.3125.324219-.0625 0-.152344 0-.253906 0-.054688.820312-.105469 1.695312-.105469 2.265625 0 1.203125.441406 1.1875.6875.925781.246094-.261718.34375-.667968.34375-.667968l.132812.28125c-.066406-.488282-.070312-1.121094.0625-1.917969.277344-1.652344.96875-1.632813 1.179688-1.554688.214844.078125.414062.320313.523438.488281.113281.167969.382812.289063.382812.289063.132812.058594.066406.179687.007812.5-.054687.324219-.121093 1.046875-.175781 1.613281-.058593.570313.132813.855469.332031.832032.125-.011719.285157-.105469.386719-.175782-.058593-.511718-.039062-1.421875-.039062-2.179687 0-.855469.234375-1.078125.578125-1.019531.214844.03125.28125.363281.222656.734374-.054688.363282-.097656 1-.125 1.953126-.019531.957031.328125 1.011718.492188.890624.121093-.085937.25-.246093.316406-.332031v-.011719c-.019532-.75.109375-1.90625.175781-2.601562.082031-.832031.421875-.816406.636719-.703125.214844.117187.199218.652344.199218.652344s.421876-.519531.796876-.765625.492187.03125.472656.4375c-.011719.410156-.046875 1.535156-.046875 2.28125s.152343 1.082031.445312.871094c.066407-.050782.128907-.117188.191407-.195313-.074219-.316406-.121094-.703125-.121094-1.1875 0-1.734375.773437-2.90625 1.605468-2.515625.820313.386719.945313 2.425781-.722656 3.507812.074219.542969.226563.890626.484375.929688.367188.050781.644531-.324219.902344-.765625-.0625-.316406-.101563-.695313-.101563-1.15625 0-1.734375.785157-2.90625 1.617188-2.515625.820312.386719.855469 2.390625-.726562 3.507812.078124.542969.230468.929688.488281.929688.304687 0 .867187-.441406 1.210937-1.6875.339844-1.246094.390625-1.953125.390625-2.148438 0-.195312.144531-.21875.367188-.046874.21875.167968.464843.289062.632812.289062.175781 0 .296875.148438.199219.613281-.097656.464844-.320312 1.6875-.34375 2.171875-.023438.488282.34375 1.003906.878906.171875.539063-.832031.761719-2.441406.933594-2.980469.167969-.535156.316406-.535156.464844-.414062.144531.121094 0 .269531.144531.363281.148437.101563.246094.445313.246094.832031m-12.84375-2.636718c0-.289063.222656-.523438.492187-.523438.273438 0 .492188.234375.492188.523438 0 .285156-.21875.523437-.492188.523437-.269531 0-.492187-.238281-.492187-.523437" fill="#fff"/></svg>