<svg height="65pt" viewBox="0 0 70 65" width="70pt" xmlns="http://www.w3.org/2000/svg"><path d="m56.289062.335938v20.90625l-2.109374-.007813 8.402343 22.542969 7.207031.007812v20.925782h-69.445312v-20.894532l7.152344.007813 8.480468-22.609375-2.15625.003906.007813-20.890625zm0 0" fill="#fff"/><path d="m35.066406 8.085938h13.410156v5.386718h-5.570312l14.648438 37.921875h4.332031v5.578125h-18.15625v-5.429687h-5.097657v10.644531h28.660157v-15.871094l-6.4375.011719-10.316407-27.617187h3.242188v-15.859376h-37.433594v15.859376h3.242188l-10.316406 27.582031-6.433594.023437v15.871094h28.65625v-10.644531h-5.097656v5.429687h-18.15625v-5.578125h4.332031l14.648437-37.921875h-5.570312v-5.386718zm0 0" fill="#002147"/><path d="m35.050781 8.136719 14.875 38.734375s1.90625 4.714844 5 4.714844h-10.828125s.542969.078124 1.085938-.828126c.308594-.519531.046875-1.296874.046875-1.296874l-3.347657-8.648438h-13.632812l-3.355469 8.648438s-.253906.777343.054688 1.296874c.539062.90625 1.082031.828126 1.082031.828126h-10.828125c3.09375 0 5-4.714844 5-4.714844l14.851563-38.734375m-.011719 28.570312h5.238281l-5.136719-13.585937-5.320312 13.585937zm0 0" fill="#ab0520"/></svg>