<svg height="75pt" viewBox="0 0 70 75" width="70pt" xmlns="http://www.w3.org/2000/svg"><path d="m35.152344 74.410156c-.59375-.0625-2.417969-3.804687-2.417969-3.804687-1.125.460937-1.636719 2.191406-1.636719 2.191406s-2.402344-.914063-2.304687-3.871094c-.433594.109375-.898438.894531-1.027344 1.726563-1.265625-.382813-1.585937-3.007813-1.023437-3.886719-1.125-2.382813-1.890626-4.898437-3.238282-7.199219-2.050781-1.695312-4.902344-.433594-6.808594.65625-.578124.429688-1.347656.910156-1.585937 1.644532-.257813-.125-.480469-.300782-.578125-.988282.03125-3.96875-2.820312-3.921875-5.285156-7.824218-.226563-.367188-.304688-.6875-.609375-1.234376-.511719.320313-1.121094 1.859376-1.121094 1.859376-2.917969-1.984376-3.300781-5.296876-2.355469-7.007813-.816406.382813-1.234375 1.390625-1.90625 2.015625-.882812-.929688-.914062-1.457031-1.027344-2.304688.128907-4.527343 5.976563-8.320312 9.390626-9.824218 5.382812-2.398438 7.113281-2.125 7.851562-1.933594 1.90625.527344 2.785156 2.6875 4.515625 3.582031 1.28125.945313 3.285156.878907 4.613281.046875.210938-.125.464844-.222656.65625-.414062-4.082031.097656-7.160156-2.367188-10.140625-4.816406-8.9375.015624-17.335937 7.855468-17.335937 7.855468-.191406-1.726562.019531-5.710937 2.308594-8.304687-.480469-.253907-2.355469.816406-3.539063 2.160156 1.136719-3.757813 2.113281-7.164063 7.222656-10.605469.882813-1.039062.609375-2.816406.242188-3.390625-1.507813-3.25-2.066407-7.121093-1.058594-10.6875.625-3.214843 3.527344-9.390625 3.703125-9.472656.382812.207031 3.1875 3.777344 6.808594 4.976563 2.433594.800781 4.917968 1.886718 6.519531 4.285156 1.746094-.253906 2.46875-1.933594 3.542969-2.957032 1.601562.894532 2.832031 2.144532 4.804687 1.375 1.632813-.6875 1.875-1.953124 2.820313-2.925781.929687.972657 1.183594 2.207031 2.820312 2.910157 1.96875.769531 3.203125-.480469 4.804688-1.375 1.074218 1.023437 1.796875 2.6875 3.542968 2.941406 1.601563-2.382813 4.085938-3.46875 6.519532-4.285156 3.621094-1.199219 6.425781-4.753907 6.808594-4.960938.175781.082031 3.078124 6.238281 3.699218 9.472656 1.011719 3.550782.449219 7.421875-1.054687 10.683594-.367188.578125-.640625 2.355469.238281 3.394531 5.113281 3.421875 6.089844 6.832031 7.226562 10.589844-1.183593-1.328125-3.058593-2.398437-3.539062-2.144531 2.289062 2.578125 2.496094 6.5625 2.304688 8.289062 0 0-8.363282-7.871094-17.335938-7.839844-2.976562 2.449219-6.054688 4.894532-10.140625 4.816407.191406.191406.449219.269531.65625.398437 1.332031.832032 3.332031.898438 4.617187-.03125 1.730469-.894531 2.609376-3.054687 4.515626-3.582031.738281-.195313 2.484374-.449219 7.882812 1.949219 3.398438 1.503906 9.230469 5.28125 9.355469 9.792968-.109375.863282-.140625 1.375-1.023438 2.304688-.671875-.609375-1.089843-1.617188-1.90625-2 .945313 1.710938.558594 5.023438-2.355469 6.988281 0 0-.609374-1.535156-1.121093-1.855469-.304688.5625-.386719.878907-.609375 1.234376-2.46875 3.917968-5.320313 3.871093-5.285156 7.839843-.097657.6875-.324219.84375-.578126.972657-.242187-.71875-1.011718-1.214844-1.585937-1.628907-1.90625-1.089843-4.757813-2.355469-6.808594-.675781-1.347656 2.304688-2.117187 4.832031-3.238281 7.21875.5625.878906.242188 3.484375-1.023438 3.886719-.128906-.832031-.59375-1.632813-1.027343-1.726563.097656 2.941406-2.304688 3.871094-2.304688 3.871094s-.515625-1.746094-1.636719-2.191406c0 0-1.808593 3.757812-2.417968 3.820312"/><path d="m10.847656 4.824219c-1.332031 2.785156-2.082031 5.824219-2.097656 9.152343.0625 3.167969 2.097656 5.710938 1.488281 8.957032.976563-.414063 1.84375-.558594 2.820313-.511719 1.34375-2.972656-1.25-6.078125-2.898438-8.253906-.082031-.144531 1.375.878906 2.03125.640625-2.707031-2.59375-1.984375-5.503906-1.246094-6.878906.0625.589843.207032.925781.589844 1.292968 1.90625 2.015625 4.535156 3.058594 5.417969 5.617188.140625-4.238282-4.359375-6.65625-6.105469-10.015625zm48.289063.449219c-1.75 3.375-6.25 5.773437-6.109375 10.03125.886718-2.5625 3.511718-3.617188 5.417968-5.632813.386719-.351563.53125-.703125.59375-1.277344.738282 1.359375 1.460938 4.269531-1.246093 6.859375.652343.257813 2.113281-.78125 2.03125-.621094-1.648438 2.175782-4.246094 5.277344-2.902344 8.238282.980469-.046875 1.84375.09375 2.820313.511718-.605469-3.25 1.425781-5.777343 1.492187-8.960937-.015625-3.328125-.769531-6.347656-2.097656-9.148437zm-6.28125 2.8125c-2.050781 1.363281-7.144531 2.660156-5.125 11.410156.09375.351562-1.523438-.464844-2.375.144531 1.84375 1.339844 3.445312 3.199219 4.519531 5.085937 1.277344-.863281 2.898438-1.566406 4.308594-1.855468-3.332032-3.664063-4.46875-8.75-2.707032-12.449219.382813-.796875.851563-1.597656 1.378907-2.335937zm-35.855469.066406c.527344.734375.992188 1.535156 1.378906 2.335937 1.761719 3.695313.640625 8.78125-2.710937 12.445313 1.410156.289062 3.03125.992187 4.3125 1.855468 1.070312-1.886718 2.675781-3.742187 4.515625-5.085937-.847656-.609375-2.449219.207031-2.371094-.144531 2.019531-8.75-3.074219-10.046875-5.125-11.40625zm18.136719 3.261718s-2.164063 4.019532-7.097657 1.152344c-.671874.851563-1.554687 1.746094-2.675781 2.066406.238281 1.292969.238281 1.328126.109375 2.925782.773438-.414063 1.234375-1.054688 1.875-1.726563.769532.160157.835938 1.566407 1.796875 1.421875 1.074219-.816406 2.050781-1.855468 3.332031-2.160156.449219.640625-.835937.960938-.511718 1.761719.703125.527343 1.457031.929687 2.113281 1.566406.175781.160156.113281.449219-.097656.578125-7.800781-1.359375-12.589844 7.472656-13.25 8.71875-2.65625-1.566406-5.496094-3.183594-8.953125-2.320312-2.628906.703124-4.886719 2.542968-6.730469 4.800781.640625-.210938 1.585937.046875 2.628906.878906-1.667969 1.582031-2.386719 3.085937-2.917969 4.910156 1.828126-1.070312 5.417969-4.253906 14.035157-4.253906-.429688-.898437-.878907-1.632813-.863281-2.398437.238281-.226563.128906-.128907.605468-.417969 1.253906 2.113281 3.269532 4.128906 5.449219 5.230469 1.601563.5625 3.078125 1.410156 4.902344 1.425781 2.164062-.207031 3.652343 1.566406 5.03125 3.070312-.046875.367188.351562.753907-.160157.878907-.785156-.253907-1.632812-.335938-2.453124-.507813-1.714844 1.550781-3.699219 2.75-6.101563 2.300781-2.4375-.574218-4.742187-1.679687-6.457031-3.792968-.320313.320312-.59375.65625-.882813.976562-1.152343 1.488281-2.449219 3.007812-2.707031 4.800781 1.332031-.242187 4.085938-.222656 5.496094 1.390625-.511719.160156-2.613282 1.695313-3.078125 3.792969.929687-.449219 1.925781-.992187 4.96875-2 .128906.0625.320312.222656.257812.351563-.546875 1.3125-1.78125 2.640624-.929687 4.207031.894531 1.679687 4.582031 2.238281 5.03125 2.671875.765625 1.777344 1.28125 3.3125 1.984375 5.042968.128906.414063.6875.796876 1.027343.988282 1.726563.433594 3.476563.609375 5.1875.609375 1.730469 0 3.542969-.191407 5.257813-.625.335937-.191407.898437-.574219 1.023437-.972657.707032-1.730468 1.21875-3.28125 1.988282-5.058593.449218-.433594 4.148437-.992188 5.046875-2.671875.832031-1.566406-.382813-2.894532-.945313-4.207032-.0625-.128906.128906-.289062.257813-.351562 3.042969 1.007812 4.035156 1.550781 4.980469 2-.480469-2.082031-2.5625-3.632812-3.074219-3.792969 1.390625-1.597656 4.164062-1.632812 5.476562-1.390625-.253906-1.792968-1.550781-3.3125-2.707031-4.800781-.269531-.320313-.558594-.65625-.878906-.976563-1.699219 2.113282-4.007813 3.21875-6.441406 3.792969-2.417969.449219-4.40625-.75-6.121094-2.304687-.800782.175781-1.667969.257812-2.453125.511718-.511719-.125-.109375-.511718-.140625-.878906 1.359375-1.503906 2.851562-3.277344 5.011718-3.070312 1.84375-.015625 3.316407-.867188 4.921876-1.425782 2.175781-1.105468 4.179687-3.121093 5.449218-5.230468.464844.289062.367188.191406.589844.414062.03125.769532-.433594 1.519532-.847656 2.417969 8.664062 0 12.191406 3.167969 14.03125 4.238281-.542969-1.824218-1.246094-3.328125-2.933594-4.910156 1.042969-.832031 1.988281-1.089844 2.632812-.878906-1.84375-2.257813-4.105468-4.097656-6.730468-4.800782-3.464844-.863281-6.292969.75-8.941406 2.320313-.65625-1.25-5.464844-10.078125-13.25-8.71875-.222657-.128906-.289063-.417969-.113282-.578125.660156-.640625 1.410156-1.039062 2.117188-1.566406.320312-.800782-.960938-1.121094-.511719-1.761719 1.28125.304687 2.257813 1.34375 3.332031 2.160156.960938.144531 1.023438-1.261719 1.792969-1.421875.640625.671875 1.105469 1.3125 1.875 1.726563-.097656-1.664063-.128906-1.695313.113281-2.925781-1.105468-.320313-2.003906-1.21875-2.660156-2.066407-4.933594 2.867188-7.113281-1.136719-7.113281-1.136719zm-10.542969 44.234376c1.089844 3.074218 2.5 6.035156 3.636719 9.109374.527343 1.339844 1.378906 1.484376 2.289062 2.523438.355469.433594.722657.929688.738281 1.425781.496094-.464843 3.09375-.433593 3.894532 1.152344.800781-1.585937 3.378906-1.617187 3.875-1.152344.019531-.496093.402344-.992187.738281-1.425781.929687-1.039062 1.761719-1.183594 2.289063-2.523438 1.140624-3.074218 2.550781-6.035156 3.640624-9.109374-.464843 0-.980468.113281-1.171874.628906-.5625 1.421875-3.476563 8.238281-4.46875 9.679687 0 0-.851563 1.820313-4.902344 1.820313-4.054688 0-4.902344-1.820313-4.902344-1.820313-1.011719-1.441406-3.925781-8.257812-4.472656-9.679687-.191406-.515625-.703125-.628906-1.183594-.628906zm0 0" fill="#cc092f"/><g stroke-width=".2" transform="matrix(.51093 0 0 .510186 -.000255 -.011393)"><path d="m57.730669 120.88829c.909799 1.791627 1.819597 3.613881 2.759978 5.275348l1.941923-3.575599c.382268.444079 1.5673 1.378175 2.576489 2.159141.244652-.367513 1.192677-1.27864 1.750789-1.906475.72631.627835 1.697271 1.186761 2.041313 1.538962.344041-.352201 1.315003-.911127 2.033668-1.538962.565757.627835 1.506137 1.538962 1.758434 1.906475.970962-.780966 2.194221-1.715062 2.538262-2.159141l1.98015 3.575599c.909799-1.661467 1.850179-3.483721 2.729396-5.275348-4.266115 1.133166-6.529143 1.10254-11.03991 1.071914-4.518412.030626-6.804377.061252-11.070492-1.071914zm12.47724 7.120571c-.313461.382827-.749246.57424-1.406748 1.508336-.695728-.934096-1.100933-1.064257-1.414393-1.47771-.909799 1.010662-.84099 1.041288-1.597882 1.761002-.909798-.719714-1.123869-.849875-2.003086-1.538962l-1.315003 1.347549c2.255383 1.85288 4.663674 1.439427 6.330364 1.791627 1.659045-.3522 4.074981 0 6.299783-1.822253l-1.315004-1.378176c-.879217.689088-1.093287.819249-1.972504 1.569589-.787473-.75034-.72631-.880501-1.605527-1.761002zm0 0" fill="#fefefe" stroke="#fff"/><path d="m60.047215 55.195275c1.070352 2.105546.948026 4.325939.948026 4.325939-4.709546-4.762361-19.510978-1.998354-19.510978-1.998354 3.860911 1.661467 14.273901.122504 20.69601 12.036063 3.516869-2.319928 3.325735-11.852306-2.133058-14.363648zm17.316757.099535c-5.458792 2.473059-5.649926 12.036063-2.133057 14.325365 6.429754-11.913558 16.835099-10.374596 20.696009-12.036063 0 0-14.801431-2.764007-19.503332 2.006011 0 0-.129971-2.22805.94038-4.295313zm-12.928316 26.284863c-4.17437.030626-6.919057 4.065616-9.090342 7.357923-.252297.405796-.091744 1.003006.504595.911127 2.599425-1.753345 4.984779-4.142182 8.11938-4.60923 1.911342-.37517 3.578032.222039 4.831872 1.470054 1.25384-1.248015 2.882303-1.845224 4.824227-1.470054 3.142246.467048 5.519955 2.855885 8.096444 4.60923.596338.091879.749246-.505331.496949-.911127-2.446518-3.759355-5.703444-8.498746-10.971102-7.120571-.756892.130161-1.506138.666118-2.446518 1.286297-.978607-.620179-1.727853-1.156136-2.477099-1.286297-.657502-.168444-1.284422-.245009-1.888406-.237352zm.443432 9.203147c-3.761521.015313-6.23862 3.629194-8.180544 6.592271-.221715.37517-.061163.911127.435786.849874 2.354774-1.600214 4.487831-3.736385 7.308972-4.142181 1.720207-.344544 3.226345.191413 4.357859 1.316922 1.123869-1.125509 2.599425-1.661466 4.327278-1.316922 2.82114.405796 4.954198 2.541967 7.308971 4.142181.52753.061253.657502-.474704.435786-.849874-2.224802-3.384186-5.145332-7.618246-9.877815-6.362575-.688083.091878-1.35323.558926-2.19422 1.156135-.879217-.597209-1.536719-1.064257-2.224802-1.156135-.596339-.160787-1.162096-.229696-1.697271-.229696zm3.922073 10.198496c-.787473 0-1.697272.245009-2.477099.719713-1.850179 1.10254-3.547451.038283-5.519955.405796-1.223259.543614-2.538262 1.546619-3.226345 2.794633-1.292067 3.72873 1.25384 6.370232 2.82114 9.126582 1.498492 1.661467 3.883847 1.309267 5.894578.780966.779828-.811592 1.597882-1.10254 2.507681-1.12551.871572.02297 1.720208.313918 2.50768 1.12551 2.003087.528301 4.388441.880501 5.894579-.780966 1.536719-2.75635 4.105562-5.397852 2.790559-9.126582-.657502-1.248014-2.003086-2.251019-3.195764-2.794633-1.98015-.367513-3.669776.696744-5.519955-.405796-.787473-.474704-1.727853-.719713-2.477099-.719713zm0 0" stroke="#000"/></g></svg>