<svg height="35pt" viewBox="0 0 70 35" width="70pt" xmlns="http://www.w3.org/2000/svg"><path d="m46.867188.496094-.28125 2.824218c-.929688-.753906-1.769532-1.554687-2.527344-2.390624l.1875 2.59375c-.816406-.734376-1.71875-1.46875-2.832032-2.082032l.105469.789063c-.679687-.527344-1.398437-.925781-2.15625-1.210938l.1875.851563c-.777343-.386719-1.449219-.597656-2.085937-.78125l.230468.714844c-.757812-.277344-1.480468-.464844-2.179687-.601563l.320313.839844c-.769532-.222657-1.535157-.316407-2.296876-.285157l.355469.683594c-.777343-.128906-1.542969-.097656-2.300781-.003906l.410156.625c-.730468-.070312-1.464844-.015625-2.199218.167969l.363281.523437c-.703125 0-1.417969.097656-2.152344.246094l.507813.574219c-.742188.019531-1.476563.160156-2.207032.371093l.367188.429688c-.710938.09375-1.382813.234375-2.007813.421875l.339844.367187c-.640625.046876-1.339844.183594-2.113281.421876l.339844.335937c-.695313.050781-1.375.171875-2.03125.371094l.40625.425781c-4.015626.273438-7.179688 2.167969-9.320313 5.675781-1.945313-2.320312-4.695313-1.230469-5.140625 1.941407-1.289062-1.054688-3.011719-1.128907-4.074219.351562-.6875-.222656-1.582031.71875-2.554687 2.085938.847656-.050782 1.765625-.113282 2.222656.246093 1.097656.863281 1.8125 1.03125 2.515625 1.074219.933594.054688 2.15625-.804688 3.058594-1.0625.589843.75 2.070312.921875 2.570312 1.464844.015625 1.042968.355469 1.710937.953125 2.566406.128906 1.398438.828125 2.214844 1.273438 2.800781.625.816407 1.113281 2.089844.765625 4.261719-.335938 2.09375.160156 4.644531 2.050781 4.75 2.207031.125 6.300781-3.242188 9.664062-4.621094l1.925782 1.34375c.777344.367188 1.054687.917969 1.835937 1.523438.445313.382812 1.253907.191406 1.882813.289062 1.859375 1.726563 2.9375 2.195313 3.75 2.21875 1.097656.035156 1.816406-.429687 2.550781-1.476562 2.003906.347656 3.195313.265625 3.8125-.234375.628906-.527344.914063-1.128907 1.277344-1.921875.175781-.378906 1.710937-.90625 2.429687-1.742188 1.066406-1.242187 1.15625-2.460937 1.417969-2.792968 1.273437.113281 1.25.109374 3.035156-.492188 1.128907-.378906 1.839844.097656 2.515625.019531 1.46875-.167969 3.433594-1.113281 4.972656-1.039062 1.484376.074219 2.125.738281 3.902344 1.625 1.554688.777343 3.082032-.613281 2.980469-2.484375.675781.246094 1.546875-.777344 2.726563-2.136719.730468-.847656 2.167968-1.363281 2.539062-1.871094.441406-.617187.433594-1.726562-.105469-2.242187-.5625-.539063-1.265625-.589844-2.089843-.253906-.253907-.257813-.644532-.5-1.628907-.492188-3.746093-3.117188-5.230469-2.765625-7.238281-5.535156-1.800781-2.480469-3.449219-4.6875-7.25-7.332032l-.015625.390626-1.195313-.980469-.023437.335937c-.980469-.972656-1.949219-2.140625-2.742187-3.476562zm0 0"/><path d="m47.167969 1.707031.003906 1.4375c.28125.164063.839844.5.972656.589844l.003907-.480469s.128906.066406.246093.140625c-.382812-.53125-.769531-1.078125-1.226562-1.6875zm-2.550781.3125c.035156 1.476563.171874 2.570313.429687 3.195313 0 0 .964844 4.820312 3.476563 4.4375 0 0-.558594.75-1.488282.03125-.925781-.714844-2.316406-2.949219-5.519531-4.285156l.183594.75s-.925781-.574219-2.078125-.988282l.195312.621094s-.925781-.558594-2.21875-.941406l.308594.589844s-1.152344-.335938-2.039062-.398438l.394531.574219s-1.65625-.257813-2.191407-.175781l.507813.574218s-2.867187.03125-4.089844.460938l.71875.765625s-1.847656-.019531-5.273437 1.40625c0 0 2.234375-1.371094 4.117187-1.800781l-.785156-.78125s2.441406-.605469 4.140625-.683594l-.558594-.71875s1.386719.0625 2.132813.0625l-.394531-.621094s1.742187.222656 2.066406.289062l-.367188-.65625s1.519532.414063 1.984375.589844l-.210937-.683594s1.726562.765626 1.910156.875c0 0-.046875-.425781-.152344-.734374 0 0 1.171875.585937 1.875 1.042968 0 0-.113281-.957031-.222656-1.0625 0 0 .953125.464844 1.832031 1.308594 0 0-.058593-.613281-.203125-.867188 0 0 1.390625 1.203126 1.535156 1.394532 0 0-.082031-.53125-.164062-.890625l-.640625-.574219c-.503906-.453125-1.011719-.875-1.542969-1.253906l.132813.988281-1.28125-.996094c-.257813-.203125-.523438-.382812-.796875-.546875l.1875.878906-1.25-.621093c-.242188-.121094-.480469-.226563-.722656-.320313l.242187.757813-1.308594-.476563c-.277343-.101562-.554687-.191406-.832031-.273437l.351562.910156-1.335937-.386719c-.296875-.089844-.601563-.15625-.910156-.199218l.441406.84375-1.398437-.230469c-.300782-.050781-.605469-.074219-.910157-.078125l.554688.847656-1.492188-.144531c-.296875-.027344-.589843-.035157-.882812-.015625l.488281.707031h-1.382812c-.238282.003906-.476563.015625-.714844.035156l.660156.75-1.582031.039063c-.292969.003906-.585938.035156-.878907.078125l.457032.539062-1.355469.175781c-.230469.03125-.457031.066407-.6875.109376l.53125.570312-1.539063.113281c-.238281.019531-.472656.046875-.703124.085938l.554687.554687-1.628906.117188c-.214844.015625-.429688.039062-.640625.066406l.59375.621094-1.578125.109375c-3.644531.25-6.699219 1.898437-8.808594 5.347656l-.472656.773437-.007813-.011718c-.375.480468-.722656 1.96875-1.710937 1.730468-1.03125-.246093-1.101563-.867187-1.074219-1.027343.027344-.160157.179688-.378907.433594-.378907.25 0 .355468.117188.40625.335938.050781.214844-.085938.414062-.085938.414062.8125.945313 1.628906-1.175781 1.648438-1.34375.019531-.15625-.328125-.5625-.371094-.613281-1.558594-1.605469-3.457031-.636719-3.792969 1.75l-.050781.3125c.089844.140625.152344.296875.175781.464844.019531.167969.171875.511719.273438.640625l.316406.304688.011719-.003907.042968.054688.371094.355469-.050781.03125c.214844.195312.578125.351562.800781.445312.527344.21875 1.234375.4375 1.640625.882812l.203125.222657.003906.316406c.011719.886719.339844 1.425781.808594 2.105469l.125.171875.019532.222656c.09375 1.039063.535156 1.625 1.109374 2.375 1.0625 1.390625 1.199219 3.152344.917969 4.902344-.203125 1.28125-.121093 3.761719 1.421875 3.847656.75.042969 1.820313-.457031 2.496094-.800781 1.171875-.59375 2.316406-1.308594 3.457031-1.980469 1.117188-.652344 2.265625-1.308594 3.449219-1.796875l.304688-.125s1.742187-.457031 2.878906.226562c0 0-.363282-.523437.140625-1.226562.507812-.699219 1.203125-1.546875 1.214843-1.929688.015626-.382812.007813-.699218.007813-.699218s.609375-.191406.632813-.28125c0 0-.246094-1.035156-.253907-1.136719 0 0 .160157-.136719.652344-.367187 0 0 0-.273438-.089844-.527344 0 0 .324219-.207032.765625-.34375 0 0-1.046875-1.367188-4.460937.351562-3.414063 1.722656-3.960938 2.742188-7.078125 2.566406 0 0-.726563-.511718-.859375-.679687-.136719-.167969-.105469-.480469-.105469-.480469s.320312.175782.703125.175782c0 0-1.632813-1.265626-.84375-3.082032 0 0 0 2.691406 2.878906 3.363282 0 0 1.222657-.320313 2.078125-1.195313l-.433594-.128906s.8125-.78125.882813-1.066407l-.503906-.019531s.855469-.828125.742187-1.65625c-.109375-.828125-.363281-1.832031-1.542968-2.804687 0 0 3.734374 1.210937 1.5 5.5 0 0 .9375-.367188 1.238281-.695313 0 0 .914062-2.316406-1.136719-4.46875-2.050781-2.152343-2.613281-2.472656-2.253906-3.414062 0 0-.027344.574219 1.6875 1.851562 1.710937 1.273438 2.332031 2.867188 2.695312 3.25.367188.382813 1.292969.253907 1.292969.253907 0-2.292969.953125-3.15625.953125-3.15625-.8125 3.125.226562 4.367187.226562 4.367187 3.625-.222656 2.976563 1.5625 2.976563 1.5625.367187.480469 2.699219 1.371094 5.085937 1.882813 2.386719.511718 2.527344 1.210937 2.527344 1.210937-4.523437 3.859375-9.03125 3.859375-9.03125 3.859375.4375.652344 1.011719.78125 1.011719.78125 1.164063.378906 1.683594 1.671875 2.570313 1.894531.886718.222657.96875.320313 2.121093-1.179687 1.152344-1.496094 1.683594-1.417969 1.683594-1.417969s-.886719.925781-1.476563 2.023437c-.589843 1.101563-1.121093 1.722657-1.769531 1.644532-.644531-.082032-1.542969-.734375-2.625-1.613282-1.082031-.875-.984375-.621093-2.390625-.621093 0 0-.882812-1.148438-2.117187-1.785157 0 0-.730469-.199218-1.238281-.132812l1.226562.855469c.8125.402343 1.207031 1.03125 1.90625 1.574219l.023438.023437c.128906.109375.648437.097656.808593.097656.253907 0 .507813 0 .757813.039063l.1875.027344.148437.140624c.804688.742188 2.238281 2.011719 3.339844 2.046876.925781.027343 1.441406-.386719 2.007813-1.191407l.242187-.347656s.675781-1.449219 1.699219-2.488281c1.027344-1.035156 2.558594-1.511719 3.300781-2.183594.746094-.667969 1.152344-.84375 2.023437-2.597656 0 0-1.402343-1.671875-1.25-4.71875 0 0 .511719 4.640625 3.164063 5.332031l.332031.027344c.328125.03125.699219.074219 1.027344.046875.207031-.019532.40625-.070313.605469-.128906.386719-.113282.777343-.25 1.160156-.378907.582031-.195312 1.117187-.222656 1.714844-.128906.265625.039063.664062.148437.925781.117187.785156-.089843 1.625-.378906 2.394531-.597656.855469-.242187 1.789063-.484375 2.675781-.441406.535157.023438 1.035157.125 1.542969.324219.414063.164062.808594.382812 1.199219.601562.46875.265625.929688.523438 1.40625.761719.863281.433594 1.683594-.105469 1.945312-.984375-.007812.027344-.214843.523437.007813-.042969.019531-.117187.128906-.902344-.167969-1.136718 0 0-.085937.699218-.71875.652343-.628906-.046875-2.132812-.667969-4.269531-2.484375 0 0-1.433594.09375-1.964844-.144531-.535156-.238281-1.363281-1.449219-1.953125-1.5-.589844-.046875-1.785156-.207031-1.8125-1.097656-.027344-.894531 1.910156-1.339844 3.265625-.886719 0 0-.0625-1.503906-.820312-2.542969 0 0-.300781-.515625.175781-.738281s1.851562 1.527344 2.164062 2.613281c0 0 1.054688-1.628906 2.273438-2.230469 0 0-.335938 1.59375-.335938 2.515626 0 .925781-.308593 1.628906-.308593 1.628906s.902343.363281 2.695312 1.941406l1.792969 1.582031.941406.34375c.125.023438.515625-.304687.605469-.386719.503906-.453124.984375-1.039062 1.433594-1.558593.207031-.238281.445312-.445313.695312-.628907-.273437.050782-.683593.179688-1.171875.515626-.144531.703124-1.824218 1.953124-1.910156 1.113281-.050781-.527344 1.691406-1.6875 3.578125-1.96875.277344-.175781.558594-.335938.832031-.507813.109375-.066406.398438-.242187.476563-.34375.203125-.28125.242187-.921875-.015625-1.171875-.421875-.40625-.945313-.316406-1.433594-.117187l-.378906.152344s-.878906.355468-2.269532 1.757812c0 0 .265626-1.140625 1.519532-2.296875-.179688-.042969-.371094-.054687-.539063-.058594-.550781.136719-1.414062.527344-2.402343 1.625 0 0 .148437-1.203125 1.25-2.238281-.769532-.601562-1.554688-1.144531-2.382813-1.648438-.738281-.445312-1.503906-.851562-2.210937-1.351562-.863282-.605469-1.550782-1.3125-2.195313-2.203125-.253906-.351563-.507813-.699219-.769531-1.046875-.796875-1.066406-1.613282-2.0625-2.535156-2.988281-.882813-.890625-1.824219-1.6875-2.804688-2.425781l-.019531.488281-1.347657-1.195313-.042968.660156s-.59375-.632812-1.265625-1v.390626s1.746093.957031 1.902343 2.4375c0 0-.851562-1.664063-3.523437-3.140626-1.269531-.59375-1.46875-1.082031-2.554687-2.207031zm18.523437 22.832031c0 .007813-.003906.035157-.003906.035157.007812-.027344.015625-.054688.023437-.085938-.023437.054688-.003906.007813-.019531.050781zm-58.191406-9.523437c-.785157.03125-1.253907.597656-1.253907.597656 1.621094.335938 1.59375.652344 1.59375.652344-.394531.265625-1.265624-.125-2.078124-.199219-.816407-.070312-1.265626.644532-1.265626.644532.914063.074218 1.503907.519531 1.910157.871093.652343.558594 1.703125.554688 2.429687.214844-2.140625-.351563-2.101562-.75-2.605468-.988281-.507813-.242188-.890626-.28125-.890626-.28125 1.023438-.214844 1.039063.25 2.519532.726562 1.484375.480469 2.464844-.117187 2.464844-.117187-.132813-.128907-.433594-.671875-.488282-1.101563-.058594-.429687-1.289062-.972656-2.171875-1.019531-.054687-.003906-.109375-.003906-.164062 0zm40.519531 10.65625s-.601562 1.933594-1.609375 2.554687c-1.011719.621094-2.179687 1.210938-2.390625 2.007813-.210938.800781-.761719 1.898437-3.167969 1.238281l-.378906.65625c.855469.136719 2.453125.332032 3.03125-.136718.53125-.449219.78125-1.007813 1.082031-1.660157.171875-.367187.546875-.589843.859375-.773437.328125-.191406.660157-.371094.980469-.578125.238281-.15625.511719-.347657.707031-.574219.382813-.445312.65625-.933594.871094-1.503906.117187-.3125.226563-.742188.390625-1.054688zm0 0" fill="#9d2235"/><path d="m46.472656 4.566406c.234375.71875.671875 1.175782.671875 1.175782.0625.71875.144531.820312.265625.976562.117188.160156.089844.316406.089844.316406-.234375 1.449219.910156 1.992188.910156 1.992188-.058594-.632813.058594-.460938.058594-.460938.351562.015625.785156.476563.785156.476563-.085937-.683594.015625-.605469.015625-.605469.222657-.03125.855469.429688.855469.429688-1.167969-2.675782-3.652344-4.300782-3.652344-4.300782zm6.785156 3.664063c.484376.675781 1.566407 1.9375 1.566407 1.9375-.351563-.160157-1.03125-.3125-1.03125-.3125 1.460937 1.53125 2.945312 1.914062 2.949219 1.914062-1.769532-2.871093-3.484376-3.539062-3.484376-3.539062zm-16.023437 1.183593c.289063.367188.332031.636719.332031.636719-1.398437-.140625-3.210937.613281-3.210937.613281 2.792969-.324218 3.882812.257813 3.882812.257813-.089843-.222656-.128906-.402344-.128906-.402344 1.828125.636719 2.867187 1.992188 2.867187 1.992188.082032-.351563.082032-.71875.082032-.71875.394531.605469.996094 2.035156.996094 2.035156l.257812-.714844.238281.933594c-.574219 1.878906.128907 3.265625.128907 3.265625-.171876-2.566406.96875-3.648438.96875-3.648438-.378907-1.40625-1.582032-3.078124-1.582032-3.078124v.789062c-.53125-.941406-1.539062-1.746094-1.539062-1.746094.148437.519532.125 1.101563.125 1.101563-1.738282-1.269531-3.417969-1.316407-3.417969-1.316407zm13.441406.132813c-.1875.003906-.296875.023437-.296875.023437 1.988282.5 2.394532 1.699219 2.394532 1.699219h-.347657c-.539062-.527343-1.460937-.75-1.460937-.75.460937.207031 1.039062 1.019531 1.039062 1.019531.207032 3.890626 2.289063 3.058594 2.289063 3.058594-.183594-.046875-.351563-.238281-.351563-.238281.96875-.078125 1.433594-.476563 1.433594-.476563.574219.382813 1.828125.183594 1.828125.183594-1.597656-.257812-2.527344-1.785156-3.789063-3.285156-.949218-1.125-2.183593-1.242188-2.738281-1.234375zm-31.734375.066406c-3.980468 1.21875-5.757812 4.511719-6.347656 5.800781-.589844 1.292969-.96875 1.421876-1.839844 1.546876-.871094.128906-1.613281-.636719-1.980468-1.117188-.363282-.476562-.152344-1.433594-.152344-1.433594-.761719 1.816406.308594 2.679688 1.683594 3.238282 1.375.554687 1.585937.777343 1.8125 1.976562.222656 1.195312.976562 1.917969.976562 1.917969-.167969 1.433593.925781 2.234375 1.628906 3.445312.703125 1.210938.421875 4.046875.308594 4.746094-.113281.703125-.253906 2.425781.871094 2.710937 1.125.289063 4.382812-1.910156 7.554687-3.730468 3.175781-1.816406 4.382813-.953125 4.382813-.953125-.300782-1.015625-1.761719-1.300781-1.761719-1.300781l.4375.542968c-1.097656-.207031-2.066406.125-2.066406.125.28125.128906.449219.351563.449219.351563-1.195313-.03125-2.023438.414062-2.023438.414062.351562.097657.507812.273438.507812.273438-1.328124.078125-2.011718.667969-2.011718.667969.339844.09375.324218.207031.324218.207031-.953124.015625-1.753906.71875-1.753906.71875.308594 0 .265625.125.265625.125-.097656.050781-3.425781 2.023437-4.128906 1.929687s-.449219-1.992187-.449219-1.992187c.082032 0 .265625.304687.265625.304687.28125-1.054687-.082031-2.265625-.082031-2.265625l.417969.496094c.113281-1.085937-.546875-2.441406-.546875-2.441406l.605468.289062c-.394531-1.277343-1.617187-2.519531-1.910156-3.15625-.296875-.640625-.097656-1.210937-.097656-1.210937-.984375-.832032-.902344-2.089844-.902344-2.089844-.53125-.925781-.140625-1.914062-.140625-1.914062-.238281-.507813-.195312-1.769532-.195312-1.769532l.605469.957032c-.101563-.621094-.070313-2.390626-.070313-2.390626l.363281.398438c.042969-.941406.351563-1.671875.351563-1.671875l.253906.476563c.167969-.683594.914063-1.878907.914063-1.878907l.109374.382813c.816407-1.53125 3.371094-2.726563 3.371094-2.726563zm-8.882812 3.980469c-.0625-.003906-.125-.003906-.179688 0-.269531.011719-.460937.074219-.460937.074219 1.433593-.078125 1.855469 1.179687 1.855469 1.179687l.140624-.429687c-.355468-.644531-.917968-.808594-1.355468-.824219zm-4.914063 2.179688c-.121093-.003907-.25.003906-.382812.019531 0 0 .773437.285156 1.039062.605469 0 0 .328125.015624.800781-.152344 0 0-.59375-.449219-1.457031-.472656zm1.386719.976562c-.808594.019531-1.8125.347656-1.8125.347656 1.390625.496094 2.351562.167969 2.351562.167969-.125-.160156-.207031-.5-.207031-.5-.105469-.011719-.21875-.015625-.332031-.015625zm38.078125.019531c-1.113281 1.871094.035156 3.574219.035156 3.574219-.007812 1.871094 1.660157 2.902344 1.660157 2.902344-.617188.496094-1.585938-.160156-1.585938-.160156.8125 2.296874 3.375 1.808593 3.375 1.808593s1.964844-.96875 3.117188-.679687c1.148437.285156 2.738281-.289063 4.566406-.78125 1.820312-.496094 3.902344.507812 3.902344.507812-2.476563-2.023437-5.660157-.585937-7.007813-.363281-1.351563.222656-2.417969-.941406-2.417969-.941406-.027344.351562.308594.890625.308594.890625-1.628906.207031-2.050781-.75-2.050781-.75-.980469.222656-1.488281-.792969-1.488281-.792969-.800782-.257813-.96875-1.195313-.96875-1.195313-.882813-.335937-.855469-1.5-.855469-1.5-1.054688-.972656-.589844-2.519531-.589844-2.519531zm8.890625.476563c-.941406.015625-1.832031.363281-1.640625 1.691406-.007813-.046875-.21875-1.769531 3.570313-1.386719-.003907 0-.992188-.320312-1.929688-.304687zm-52.972656.527344v.003906s0 0 0-.003906zm29.519531 4.515624c-1.226563.03125-2.976563 1.039063-5.492187 2.367188-2.683594 1.417969-4.496094 1.117188-4.496094 1.117188 1.90625.660156 3.871094-.058594 5.585937-.964844 1.710938-.910156 3.449219-1.617188 3.449219-1.617188-.015625.445313.070312.347656.125.652344.054688.300781-.152344.445312-.167969.683594-.015625.242187.292969.542968.292969.542968-.210938-.765624.492188-.90625.492188-.90625-.476563-1.515624.464843-1.515624.464843-1.515624l-.015625-.351563c-.074218-.007813-.15625-.007813-.238281-.007813zm0 0"/><path d="m53.34375 12.308594c-.335938-.023438-.34375.074218-.34375.074218.300781 2.675782 1.96875 1.320313 1.96875 1.320313l-.238281-.269531c-.105469.421875-.992188.550781-1.167969-.074219-.175781-.621094.273438-.730469.257812-.875-.011718-.144531-.136718-.152344-.476562-.175781zm1.71875 3.164062c.949219 1.058594.953125 3.601563.925781 4.175782-.027343.574218-.253906 1.546874.644531 1.53125.898438-.015626.449219-1.738282.449219-1.738282-.585937-3.109375-2.019531-3.96875-2.019531-3.96875zm3.664062.890625s-1.546874 1.132813-1.503906 2.425781c.042969 1.289063 1.097656.96875 1.195313.285157.097656-.6875 0-1.308594.308593-2.710938zm-4.5625 2.078125c-.238281.492188-.714843.796875-.714843.949219 0 .148437 0 .078125.203125.277344s.609375.480469.765625-.191407c.15625-.667968-.203125-1.019531-.253907-1.035156zm1 .253906c-.5.496094-.753906.804688-.746093 1.019532.011719.210937.316406.359375.503906.390625.191406.03125.402344-.140625.464844-.558594.0625-.414063-.222657-.851563-.222657-.851563zm3.777344 1.621094c-.261718.292969-.71875.546875-.859375.628906-.140625.078126-.089843.214844-.089843.214844.214843.804688.746093.507813.746093.507813.207031.972656.707031.472656.707031.472656.230469.820313.519532.757813.871094.429687.351563-.328124.183594-1.074218.183594-1.074218-.148438.214844-.816406.414062-.816406.414062.273437-.390625.113281-.925781.113281-.925781-.375.335937-.90625.421875-.90625.421875.230469-.558594.050781-1.089844.050781-1.089844zm-27.050781 2.765625.070313.464844-.632813.347656c.773437.894531 5.128906 1.070313 5.128906 1.070313-3.371093-.828125-4.566406-1.882813-4.566406-1.882813zm0 0" fill="#fff"/></svg>