<svg height="86pt" viewBox="0 0 75 86" width="75pt" xmlns="http://www.w3.org/2000/svg"><path d="m3.585938.703125c-.789063 0-1.53125.308594-2.085938.863281-.839844.835938-1.066406 2.046875-.691406 3.089844l-.179688.175781v2.984375l2.066406 2.0625.003907-.007812v26.414062c0 6.261719 1.054687 12.324219 3.003906 17.960938l-3.085937 3.078125 1.070312.847656c.714844.570313 1.457031 1.109375 2.222656 1.609375.003906 0 .007813.003906.007813.003906.296875.195313.59375.382813.898437.566406.007813.003907.011719.011719.019532.015626.300781.179687.601562.355468.90625.519531.011718.011719.023437.015625.03125.023437.304687.164063.609374.328125.914062.480469l.039062.023437c.019532.011719.042969.019532.058594.03125 6.015625 11.597657 16.09375 20.539063 28.425782 24.238282l1.03125.3125.078124-.019532.128907.03125 1.066406-.320312c9.339844-2.804688 17.386719-8.613281 23.355469-16.300781h6.527344v-6.578125l-1.425782-1.421875c3.875-7.492188 6.058594-16.09375 6.054688-25.101563v-33.515625h-64.214844l-2.070312-2.066406h-2.980469l-.175781.175781c-.324219-.113281-.660157-.171875-1.007813-.171875zm0 0"/><path d="m3.585938 1.957031c-.4375 0-.867188.167969-1.203126.5-.660156.660157-.660156 1.738281 0 2.398438l-.492187.496093v1.941407l.804687.804687 1.070313-1.066406 7.6875 7.683594c-1.398437 1.582031-2.644531 3.285156-3.726563 5.070312l1.378907 1.378906c1.6875-2.886718 3.820312-5.527343 6.347656-7.828124 1.917969-1.746094 4.007813-3.246094 6.226563-4.488282l-1.378907-1.378906c-1.996093 1.148438-3.882812 2.503906-5.644531 4.046875l-7.691406-7.683594 1.070312-1.0625-.8125-.8125h-1.9375l-.496094.5h-.003906c-.328125-.332031-.765625-.5-1.199218-.5zm5.351562 2.070313 1.972656 1.972656h59.890625v30.285156c0 8.117188-1.878906 15.875-5.230469 22.703125l1.472657 1.46875c3.667969-7.234375 5.734375-15.507812 5.734375-24.171875v-32.257812zm-4.976562 4.976562v27.28125c0 5.90625.957031 11.632813 2.730468 16.96875l1.570313-1.566406c-1.515625-4.867188-2.328125-10.058594-2.328125-15.402344v-25.308594zm34.898437 1.121094c-5.867187-.101562-11.355469 1.597656-15.933594 4.585938l7.402344 7.390624c2.09375-1.03125 4.382813-1.652343 6.75-1.820312.539063-.039062 1.074219-.050781 1.605469-.042969 4.257812.074219 8.371094 1.652344 11.578125 4.433594.40625.351563.800781.726563 1.175781 1.113281 3.378906 3.492188 5.1875 8.082032 5.105469 12.925782-.050781 2.707031-.691407 5.332031-1.871094 7.710937l7.410156 7.394531c2.808594-4.304687 4.488281-9.425781 4.585938-14.929687.265625-15.585938-12.203125-28.488281-27.808594-28.761719zm-15.785156.117188c-2.269531 1.214843-4.40625 2.71875-6.351563 4.488281-2.511718 2.28125-4.605468 4.921875-6.234375 7.8125l.925781.921875c1.371094-2.492188 3.101563-4.804688 5.152344-6.851563v.003907l10.292969 10.277343 2.398437-2.398437-8.503906-8.492188-1.652344-1.652344c1.539063-1.222656 3.183594-2.285156 4.902344-3.183593zm-6.511719 9.894531v1.28125l7.890625 7.875.640625-.636719zm21.800781 2.546875c-2.527343 0-4.921875.597656-7.039062 1.664062-.097657.046875-.1875.09375-.28125.140625l-2.09375 2.09375-16.722657 16.703125h3.558594l6.152344-6.148437h10.363281l-.007812.027343c-.128907.425782-.308594.828126-.527344 1.210938-1.117187 1.902344-3.320313 3.15625-5.769531 3.15625h-5.789063l-13.0625 13.050781c3.582031 2.746094 7.964844 4.542969 12.789063 4.964844.71875.058594 1.445312.09375 2.164062.09375 6.09375 0 11.953125-2.269531 16.496094-6.390625 2.1875 2.972656 5.714844 4.90625 9.683594 4.90625 1.011718 0 1.992187-.125 2.933594-.359375l-5.511719-5.511719c4.992187-2.628906 8.390625-7.859375 8.390625-13.894531 0-8.671875-7.035156-15.707031-15.726563-15.707031zm15.03125 25.921875c-.554687.816406-1.179687 1.589843-1.871093 2.3125-.101563.105469-.199219.207031-.304688.3125l16.015625 15.996093h-3.523437l-13.394532-13.375v1.273438l13.019532 13.003906h4.804687v-4.800781l-14.6875-14.664063zm-47.992187 7.71875-.894532.894531c4.195313 3.328125 9.375 5.511719 15.105469 6.019531 6.867188.59375 13.382813-1.324219 18.636719-4.984375 2.71875 2.257813 6.214844 3.609375 10.027344 3.609375 2.078125 0 4.058594-.40625 5.871094-1.132812l-.976563-.976563c-1.527344.546875-3.175781.855469-4.894531.855469-3.847656 0-7.347656-1.507813-9.941406-3.964844-4.679688 3.523438-10.359376 5.441407-16.238282 5.441407-.785156 0-1.585937-.03125-2.375-.101563-5.417968-.472656-10.335937-2.527344-14.320312-5.660156zm32.964844 4.417969-1.996094 6.144531h-6.464844l5.226562 3.796875h.003907l-2 6.140625 5.230469-3.796875 5.238281 3.796875-2.003907-6.140625 5.230469-3.796875h-6.464843v-.003907zm-27.679688 1.574218c5.929688 10.597656 15.40625 18.71875 26.886719 22.167969l.710937.210937.054688-.011718.078125.023437.742187-.222656c9.121094-2.742187 16.972656-8.429687 22.796875-15.957031l-1.410156-1.410156c-5.585937 7.3125-13.15625 12.835937-21.957031 15.480468l-.210938.066406-.019531-.011718h-.007813l-.207031-.0625c-10.253906-3.078125-18.835937-10.058594-24.558593-19.230469-.132813-.042969-.265626-.085937-.398438-.128906-.019531-.003907-.042969-.003907-.058594-.011719-.152344-.050781-.308594-.101562-.457031-.152344-.007813 0-.015625-.007812-.023437-.007812-.164063-.058594-.328126-.117188-.488282-.171875-.011718-.003907-.019531-.007813-.035156-.007813-.152344-.0625-.304688-.109375-.460938-.167968-.007812-.007813-.019531-.007813-.027343-.015626-.164063-.066406-.324219-.121093-.488281-.183593-.003907 0-.003907-.011719-.007813-.011719-.148437-.054688-.304687-.117188-.453125-.183594zm0 0" fill="#d4bf91"/><path d="m38.355469 14.371094c-.527344 0-1.058594.019531-1.585938.054687l.445313 4.585938c.378906-.019531.761718-.03125 1.144531-.03125.113281 0 .230469 0 .347656.003906.28125.003906.570313.015625.851563.03125l.449218-4.585937c-.402343-.027344-.8125-.042969-1.21875-.050782-.144531-.007812-.285156-.007812-.433593-.007812zm-3.035157.191406c-1.078124.140625-2.140624.347656-3.179687.625l1.320313 4.414062c.757812-.195312 1.523437-.34375 2.304687-.449218zm6.140626.011719-.453126 4.589843c.773438.105469 1.542969.257813 2.296876.457032l1.332031-4.417969c-1.039063-.277344-2.101563-.488281-3.175781-.628906zm-10.714844 1.03125c-1.242188.414062-2.449219.929687-3.601563 1.535156l3.449219 3.453125c.484375-.214844.976562-.398438 1.476562-.570312zm15.285156.023437-1.332031 4.414063c.738281.253906 1.460937.550781 2.164062.894531l2.160157-4.074219c-.972657-.476562-1.96875-.894531-2.992188-1.234375zm4.273438 1.917969-2.160157 4.074219c.675781.390625 1.324219.820312 1.949219 1.296875l2.902344-3.582031c-.855469-.65625-1.753906-1.253907-2.691406-1.789063zm3.820312 2.710937-2.910156 3.582032c.386718.339844.765625.699218 1.128906 1.074218.179688.1875.351562.375.527344.566407l3.546875-2.945313c-.246094-.28125-.5-.554687-.757813-.824218-.492187-.503907-1.007812-.992188-1.535156-1.453126zm3.21875 3.394532-3.542969 2.953125c.476563.617187.914063 1.261719 1.304688 1.929687l4.054687-2.214844c-.542968-.921874-1.144531-1.816406-1.816406-2.667968zm2.511719 3.945312-4.050781 2.210938c.347656.699218.644531 1.414062.902343 2.148437l4.40625-1.390625c-.351562-1.015625-.773437-2.007812-1.257812-2.96875zm1.6875 4.359375-4.40625 1.386719c.203125.75.359375 1.511719.464843 2.277344l4.585938-.511719c-.140625-1.066406-.355469-2.117187-.644531-3.152344zm.800781 4.601563-4.585938.511718c.035157.546876.050782 1.105469.042969 1.664063-.007812.21875-.015625.433594-.027343.65625l4.597656.382813c.019531-.316407.03125-.640626.039062-.960938.015625-.757812-.007812-1.511719-.066406-2.253906zm-4.699219 4.277344c-.09375.769531-.238281 1.53125-.425781 2.277343l4.4375 1.265625c.269531-1.03125.460938-2.085937.585938-3.15625zm-.828125 3.675781c-.1875.558593-.394531 1.101562-.632812 1.636719l3.453125 3.453124c.652343-1.226562 1.191406-2.507812 1.617187-3.824218zm0 0"/></svg>