<svg height="62pt" viewBox="0 0 70 62" width="70pt" xmlns="http://www.w3.org/2000/svg"><path d="m53.203125 18.136719v3.035156l-1.507813-3.035156zm-36.175781 0h1.507812l-1.507812 3.035156zm18.03125 32.335937c-8.9375 0-11.855469-1.238281-15.003906-2.996094-.265626-.144531-.5-.292968-.714844-.4375h9.347656v-9.84375h-5.6875l2.523438-4.496093h19.761718l2.554688 4.628906h-6.394532v9.710937h9.328126c-.214844.144532-.449219.292969-.714844.4375-3.148438 1.753907-6.066406 2.996094-15 2.996094m.3125-35.28125 4.273437 7.53125h-8.605469zm34.40625 2.941406v-9.847656h-21.511719v4.140625l-6.867187-12.199219h-12.660157l-6.890625 12.238282v-4.179688h-21.511718v9.847656h4.332031s0 12.015626-.003907 19.195313h-4.121093v9.710937h4.316406c.425781 2.699219 1.636719 5.632813 4.941406 8.074219 5.230469 3.863281 11.527344 6.4375 25.257813 6.4375 13.726562 0 20.023437-2.574219 25.253906-6.4375 2.765625-2.039062 4.042969-5.359375 4.632812-8.074219h4.644532v-9.710937h-4.140625v-19.195313zm0 0" fill="#f26522"/><path d="m29.882812 2.1875-20.878906 37.101562h-6.503906v5.789063h24.230469v-5.917969h-7.082031l4.730468-8.421875h22.058594l4.726562 8.550781h-7.757812v5.789063h24.226562v-5.789063h-6.5l-20.878906-37.101562h-10.375zm20.339844 8.0625v5.65625h4.859375v8.632812l7.191407 12.789063h1.214843v-21.160156h4.328125v-5.917969zm-47.925781 0v5.917969h4.332031v21.160156h1.226563l7.175781-12.75v-8.667969h4.859375v-5.660156zm33.089844.992188 7.625 13.441406h-15.363281zm-28.53125 35.796874c.410156 2.230469 1.46875 4.550782 4.105469 6.492188 4.992187 3.6875 10.835937 6.054688 24.097656 6.054688 13.261718 0 19.105468-2.367188 24.097656-6.054688 2.632812-1.941406 3.691406-4.261719 4.105469-6.492188h-9.550781c-.605469.746094-1.46875 1.464844-2.699219 2.152344-3.546875 1.972656-6.890625 3.242188-15.953125 3.242188s-12.410156-1.269532-15.953125-3.242188c-1.234375-.6875-2.097657-1.40625-2.703125-2.152344zm0 0" fill="#03244d"/></svg>