<svg height="98pt" viewBox="0 0 70 98" width="70pt" xmlns="http://www.w3.org/2000/svg"><path d="m12.570312 10.320312v-4.070312l6.382813 6.183594v-11.644532l43.351563 48.328126s5.980468 6.976562 5.980468 14.054687c0 5.121094-.949218 7.914063-3.847656 10.457031 1.628906 3.015625 6.476562 13.207032 4.226562 24.105469l-2.488281-2.003906s-9.625 3.414062-26.628906-2.855469c0 0-1.589844 1.160156-4.398437 1.160156h-17.804688s-4.484375-.132812-6.371094-2.910156l-8.921875-14.738281s-1.507812-2.160157-1.507812-7.808594v-31.316406h6.707031s-.210938-.871094-.210938-2.363281v-6.8125l.039063-6.753907v-8.160156l5.492187 5.40625zm0 0" fill="#fff"/><path d="m59.585938 47.347656c5.097656 5.648438 9.109374 13.636719 6.15625 21.34375-.597657 1.5-1.832032 2.859375-3.132813 3.941406 3.449219 6.625 5.875 14.125 4.75 22.25l-18.996094-14.964843c-1.164062-.519531-2.390625-1.078125-3.730469-.835938l4.394532 3.660157 14.25 11.476562v.175781c-8.652344 1.324219-16.816406-.976562-24.378906-3.523437-1.019532.664062-2.074219 1.117187-3.308594 1.257812-5.308594.136719-12.839844.066406-18.644532.066406-2.601562-.347656-5.484374-1.253906-6.578124-4.011718l-7.984376-13.476563c-.953124-2.023437-1.304687-4.65625-1.230468-7.066406l.066406-30.160156h6.792969l-.351563-3.144531v-19.457032l5.507813 5.421875.007812-12.34375 6.320313 6.277344.007812-11.480469zm0 0"/><path d="m20.324219 4.730469v10.925781l-6.214844-5.511719-.011719 12.402344-5.613281-5.59375-.003906 15.640625s-.164063 4.046875.703125 5.582031h-7.15625v31.210938c0 2.355469.988281 4.742187.988281 4.742187l7.175781 11.964844c.84375 1.148438 1.445313 2.652344 2.851563 3.347656 1.582031.839844 3.691406.628906 5.238281-.070312l12.070312-11.542969c1.898438-1.359375 4.503907-1.953125 6.753907-1.429687-1.796875-1.816407-4.398438-2.894532-5.558594-5.195313.035156-1.117187-.050781-2.6875-.050781-2.6875.085937-.695313.613281-.871094 1.246094-.835937l8.601562-.027344c.789062.035156 1.230469-.609375 1.320312-1.308594 0-.695312-.089843-2.089844-.089843-2.089844l-4.871094-3.578125-.054687 2.445313c.171874.574218.929687 1.011718 1.230468 1.046875h2.550782v2.265625s-4.398438.171875-6.4375-.417969c-4.011719-1.78125-3.445313-6.3125-3.445313-10.21875l-7.179687-5.492187v-2.972657s20.230468 15.789063 20.933593 16.347657c.703125.558593 1.617188.488281 1.617188.488281h17.03125s1.105469 0 1.667969-1.746094-2.128907-9.03125-4.945313-12.550781l-40.347656-45.132813zm27.609375 68.523437c-1.015625.03125-2.0625.199219-3.160156.582032-1.230469.433593-2.992188 1.042968-2.992188 1.042968l.074219 1.761719c2.425781.140625 5.207031-.101563 7.246093 1.1875l13.929688 11.023437 2.53125 1.847657c-.101562-6.453125-1.722656-12.066407-5.136719-17.125-4.285156 1.914062-8.085937-.457031-12.492187-.320313zm-2.703125 9.597656c-.84375 2.472657-3.585938 4.742188-5.90625 5.578126 5.804687 2.164062 11.921875 4.046874 18.398437 4.1875l-12.492187-9.761719zm0 0" fill="#fff"/><path d="m21.613281 8.996094-.023437 25.285156c0 3.605469 2.074218 5.171875 2.074218 5.171875l2.640626.011719c-.878907-1.535156-1.511719-2.453125-1.511719-5.089844l12.066406 9.695312-11.964844-12.171874-.03125-5.71875 12.660157 10.109374-12.730469-12.96875-.011719-6.53125 37.089844 40.605469 2.109375 2.089844c-.347657-2.582031-1.476563-4.847656-3.0625-6.9375zm-5.757812 5.53125.011719 18.183594c0 5.929687 1.765624 6.742187 1.765624 6.742187l3.460938.015625s-2.0625-1.179688-2.0625-4.664062l.027344-16.996094zm-6.097657 5.957031-.027343 13.148437c.242187 2.765626.953125 5.113282 1.796875 5.820313h-2.109375v19.785156c.175781 2.335938.804687 4.5 2.355469 6.277344 2.429687 1.886719 5.734374 5.179687 8.902343 2.566406 0 0-8.332031-4.1875-7.953125-9.4375 2.359375 1.222657 4.644532 2.582031 6.933594 4.011719l.492188.105469c-2.429688-2.09375-7.433594-6.101563-7.433594-6.101563l.007812-3.105468c2.464844 1.359374 4.996094 2.582031 7.425782 4.082031-2.289063-2.09375-4.996094-3.976563-7.425782-6.101563v-3.769531l7.246094 4.097656-7.347656-6.121093.003906-5.039063 7.699219 6.277344-.042969-2.605469s-7.625-5.082031-7.554688-9.09375l.070313-11.71875-3.035156-3.078125zm-6.570312 18.96875-.011719 29.847656c.523438 1.671875.789063 3.710938 2.265625 5.003907 3.449219 2.230468 6.195313 6.171874 10.660156 5.929687.316407-.207031 1.019532-.664063 1.019532-.664063l-8.125-6.203124c-1.652344-1.292969-2.957032-3.175782-2.847656-5.269532 3.550781 2.058594 11.21875 6.277344 11.21875 6.277344l-11.339844-8.652344v-2.964844l3.636718 2.09375s-1.34375-1.351562-1.320312-2.476562l-2.316406-1.664062v-3.445313l2.21875 1.359375v-1.863281l-2.21875-1.589844v-3.007813l2.246094 1.351563.003906-1.757813-2.25-1.386718v-3.351563l2.21875 1.265625-.011719-1.789062-2.210937-1.347656v-3.378907l2.226562 1.332031-.015625-1.679687-2.4375-1.957031-2.609375-.015625zm0 0"/><path d="m24.78125 16.789062.011719 6.53125 12.730469 12.96875-12.660157-10.109374.03125 5.722656 11.964844 12.167968-12.066406-9.695312c0 2.636719.632812 3.554688 1.511719 5.089844h-3.78125c-1.058594-.523438-2.148438-2.945313-2.148438-4.777344v-15.570312l-1.320312-1.308594-.023438 16.996094c0 3.484374 2.0625 4.660156 2.0625 4.660156l-4.816406-.066406c-.96875-.609376-2.023438-2.660157-2.023438-4.582032v-9.804687l-1.460937-1.449219-.070313 11.71875c-.066406 4.011719 7.558594 9.09375 7.558594 9.09375l.042969 4.175781-7.699219-6.324219-.007812 3.515626 7.351562 6.121093-7.246094-4.09375v3.765625c2.429688 2.125 5.136719 4.007813 7.425782 6.101563-2.429688-1.5-4.964844-2.722657-7.425782-4.082031l-.007812 3.101562s5.003906 4.011719 7.429687 6.105469l-.492187-.101563c-2.285156-1.429687-4.570313-2.792968-6.929688-4.011718-.382812 5.246093 7.953125 9.433593 7.953125 9.433593s-2.640625 1.828125-4.75 1.304688c-2.109375-.523438-5.628906-3.660157-6.261719-4.53125l-3.640624-2.09375v2.964843l11.34375 8.648438s-7.667969-4.214844-11.222657-6.277344c-.105469 2.09375 1.195313 3.976563 2.851563 5.269532l8.125 6.203124c-1.265625 1.292969-3.835938 1.503907-4.890625.976563-1.054688-.519531-5.101563-2.789063-5.101563-2.789063s3.695313 6.277344 4.925782 8.023438c1.230468 1.746094 4.222656 2.09375 6.507812-1.046875 2.289062-3.140625 5.101562-5.40625 6.332031-6.628906 1.234375-1.21875 5.632813-2.089844 5.632813-2.089844s-3.347656-2.617187-3.699219-3.488281v-3.3125c.351563-1.222656 4.753906-3.488282 4.753906-3.488282s-2.464843-2.09375-2.464843-4.707031v-5.40625l-4.75-3.835937v-4.453125l19.324218 15.113281s15.167969-.023438 17.042969-.023438c1.878906 0 3.445313-.753906 3.246094-2.929687l-2.109375-2.085937-37.089844-40.601563zm-18.984375 22.679688 2.476563 2.007812v-2.007812zm.226563 2.304688v3.378906l2.25 1.414062v-3.40625zm0 5.25v3.351562l2.25 1.386719v-3.410157zm0 5.144531v3.007812l2.25 1.625v-3.28125zm0 5.101562v3.445313l2.25 1.613281v-3.660156zm0 0" fill="#ba0c2f"/></svg>