<svg height="79pt" viewBox="0 0 70 79" width="70pt" xmlns="http://www.w3.org/2000/svg"><path d="m.285156.394531v12.6875h3.902344v28.6875h-3.902344v12.683594h20.300782v15.632813l8.726562 8.71875h28.71875l8.726562-8.71875v-27.921876h2.917969v-11.519531h-18.542969v11.519531h2.933594v22.726563l-1.277344 1.285156h-18.207031l-1.273437-1.285156v-10.375h7.253906l9.429688-9.410156v-18.097657l-3.285157-3.277343 2.488281-2.925781v-10.941407l-8.066406-9.464843h-40.84375zm16.628906 12.6875h18.328126l1.246093 1.457031v1.605469l-1.246093 1.460938h-18.328126zm0 17.207031h18.4375l.828126.84375h-18.4375v10.726563h-.769532zm19.3125.933594 1.058594 1.058594v7.570312l-1.058594 1.054688zm0 0" fill="#1c3c34"/><path d="m1.285156 1.390625v10.726563h3.886719v30.648437h-3.886719v10.722656h20.296875v16.246094l8.160157 8.136719h27.890624l8.140626-8.136719v-28.566406h2.917968v-9.542969h-16.5625v9.542969h2.90625v24.132812l-1.859375 1.855469h-18.992187l-1.859375-1.855469v-11.78125h7.835937l8.867188-8.839843v-17.253907l-3.65625-3.632812 2.855468-3.339844v-10.222656l-7.558593-8.839844zm14.628906 10.699219h19.714844l1.839844 2.097656v2.34375l-1.839844 2.070312h-19.714844zm0 17.203125h19.714844l2.578125 2.558593v8.382813l-2.578125 2.574219h-3.382812v-1.164063h2.917968v-9.53125h-16.4375v9.546875h2.917969v1.164063h-5.730469zm0 0" fill="#ffb819"/><path d="m2.992188 3.09375v7.292969h3.902343v34.140625h-3.902343v7.277344h36.449218l7.847656-7.832032v-15.84375l-4.269531-4.242187 3.457031-4.0625v-8.964844l-6.609374-7.769531h-36.875zm11.203124 7.292969h22.292969l2.691407 3.15625v3.601562l-2.691407 3.171875h-22.292969zm0 17.207031h22.214844l3.582032 3.570312v9.808594l-3.582032 3.554688h-22.214844zm39.65625 5.746094v6.113281h2.90625v26.554687l-2.875 2.863282h-20.421874l-2.855469-2.863282v-12.488281h-7.316407v15.503907l7.164063 7.128906h26.457031l7.160156-7.128906v-29.570313h2.90625v-6.113281zm-33.464843.492187v6.113281h2.90625v2.863282h7.3125v-2.863282h2.902343v-6.113281zm0 0" fill="#1c3c34"/></svg>