<svg height="54pt" viewBox="0 0 69 54" width="69pt" xmlns="http://www.w3.org/2000/svg"><path d="m57.050781.460938c-.105469 0-52.25.003906-52.25.003906l12.046875 10.964844-16.277344 41.886718s37.917969.011719 41.246094.011719c5.878906 0 9.355469-.757813 11.996094-2.621094 2.691406-1.894531 4.550781-4.929687 6.425781-10.480469l.019531-.066406.015626-.0625c.898437-3.824218.984374-6.550781.285156-8.847656-.5-1.636719-1.410156-3.011719-2.75-4.15625 2.25-.800781 4.085937-2.117188 5.550781-3.976562 1.863281-2.355469 2.925781-5.3125 3.953125-8.171876l.21875-.605468.007812-.027344.011719-.027344c1.34375-4.257812 1.148438-7.636718-.578125-10.042968l-.003906.003906c-1.808594-2.511719-5.144531-3.785156-9.917969-3.785156zm-24.351562 13.09375 17.671875.011718-2.335938 6.082032c-.183594.480468-.847656.945312-1.34375.945312l-15.527344-.003906 2.34375-6.210938zm-5.910157 18.632812 16.785157.003906-2.648438 6.90625c-.183593.476563-.851562.949219-1.351562.949219h-15.839844zm0 0" fill="#fa4616"/><path d="m76.062729 2.455019c-.135418 0-.265627 0-.401044 0-2.671889 0-64.458679.005136-64.458679.005136l13.437572 12.059382-21.177197 53.748479s47.854424.015408 52.286739.015408c13.885491 0 18.36989-2.984029 22.817831-15.983303 2.026052-8.494982 1.177089-14.108655-6.296909-17.467614 10.812558-1.294277 13.203196-8.880183 16.036544-16.604762 3.578144-11.160577-1.942719-15.777862-12.244857-15.777862m-16.218837 40.451316-3.562519 9.167801c-.520836 1.340502-2.093761 2.424203-3.520852 2.424203l-23.823045.005136 5.526072-14.021343 23.744918.005136c1.421883 0 2.156262 1.083701 1.635426 2.419067m9.067757-24.478285-3.151059 8.0841c-.520836 1.340502-2.083344 2.419067-3.510435 2.419067l-23.380334-.010272 3.65627-9.553003-3.354185-3.384639 28.099109.020544c1.421883 0 2.156262 1.083701 1.640634 2.424203" fill="#0033a0" stroke="#0033a0" stroke-width="1.25" transform="matrix(.749996 0 0 .760559 .000134 0)"/></svg>