<svg height="64pt" viewBox="0 0 70 64" width="70pt" xmlns="http://www.w3.org/2000/svg"><path d="m41.089844 53.476562h-11.515625c.503906-1.023437 1.324219-2.695312 2.273437-4.625 2.605469.300782 4.0625-.40625 4.0625-.40625.328125-.324218 1.09375-1.445312 1.492188-2.03125 1.269531.730469 2.476562.824219 2.582031.835938.570313.371094.695313.53125.722656.585938-.441406.214843-.671875.59375-.671875 1.082031 0 .222656.050782.472656.148438.738281l.050781.136719.042969-.140625c.074218-.277344.3125-.5625.621094-.734375.351562-.199219.757812-.242188 1.136718-.121094.390625.113281.65625.355469.75.695313.125.453124-.078125 1.019531-.554687 1.554687l-.136719.148437.183594-.078124c.722656-.285157 1.183594-.667969 1.371094-1.132813.070312-.164063.09375-.320313.09375-.460937 0-.132813-.023438-.238282-.039063-.300782.152344.046875.496094.195313.6875.535156.019531.035157.035156.070313.050781.113282l-1.007812 2.0625c-.765625 1.542968-1.957032 1.542968-2.34375 1.542968m-23.292969-24.410156c.410156-.835937.824219-1.679687 1.210937-2.464844.78125.984376 1.617188 1.824219 2.320313 2.464844zm9.066406-18.460937s.1875-.378907.382813-.777344h13.394531c-.257813.53125-1.355469 2.765625-1.355469 2.765625-.320312.652344-1.199218 1.03125-2.398437 1.03125h-11.507813c.738282-1.511719 1.484375-3.019531 1.484375-3.019531m7.003907 13.019531-.464844.945312c-.628906-.496093-1.257813-1.003906-1.894532-1.519531h2.628907c-.070313.15625-.160157.34375-.269531.574219m15.964843 15.308594h12.417969l7.03125-14.277344h-11.328125c1.203125-.710938 2.660156-1.976562 3.441406-4.117188-1.480469 1.609376-2.878906 1.917969-2.878906 1.917969s1.941406-1.910156 2.371094-5.171875c-1.996094 2.660156-2.851563 2.929688-2.851563 2.929688s4.003906-5.0625 1.863282-9.796875c-.222657 8.441406-9.457032 11.609375-12.804688 13.722656-.597656.382813-1.148438.777344-1.65625 1.179687l.316406-.640624c.285156-.574219.949219-1.933594.949219-3.441407 0-.6875-.140625-1.417969-.523437-2.105469-.074219-.136718-.179688-.253906-.269532-.378906 2.390625-1.023437 4.054688-2.605468 5.164063-4.867187l1.753906-3.558594c.761719-1.550781 1.414063-3.148437 1.414063-4.628906 0-.753907-.171876-1.476563-.585938-2.140625-1.574219-2.554688-5.660156-2.964844-14.8125-2.964844h-19.449219l-18.589843 37.726562h17.753906c2.296875 0 4.304687-.023437 6.074218-.0625l-12.117187 24.632813h23.359375c12.132812 0 15.304688-1.464844 18.859375-8.710937l4.199219-8.511719h-12.417969l-.746094 1.511719c-.226562-.097657-.445312-.203126-.632812-.335938-.417969-1.34375-1.554688-3.238281-2.265625-4.351562 1.25.410156 2.390625.921874 3.394531 1.511718.472656.785156 1.144531 1.246094 1.148437 1.246094l.03125.019531.019532-.035156c.019531-.03125.472656-.808594.578125-1.332031.148437.199218.203125.480468.203125.746094 0 .445312-.117188.851562-.117188.867187l-.015625.0625.195313-.085937c.960937-.398438 1.546875-.910157 1.730468-1.507813l.035157-.148437c.15625-.785157-.394531-1.519532-.738281-1.875.0625-.1875.148437-.953126-.929688-2.085938-.527344-.554688-1.085938-1.019531-1.65625-1.410156 1.800781-.890625 2.902344-2.585938 3.941406-4.472656h1.578125c-.550781 1.097656-2.4375 4.941406-2.4375 4.941406" fill="#231f20"/><path d="m42.578125 37.308594c.539063.671875.925781 1.464844.925781 1.464844s-1.109375-.207032-2.710937.355468c0 0 1.117187.222656 2.425781 1.101563 0 0-1.050781.511719-1.703125 1.058593 2.683594.628907 4.457031 1.917969 4.457031 1.917969s-.457031-.960937-.578125-1.4375c.699219-.011719 1.566407.285157 1.566407.285157.167968-.046876.34375-.089844.523437-.121094-.140625-.042969-.265625-.144532-.371094-.285156-.171875.15625-.4375.160156-.628906.019531-.222656-.171875-.261719-.492188-.097656-.710938.09375-.113281.21875-.179687.351562-.191406-.121093-.464844-.816406-.917969-.816406-.917969 1.28125.605469 1.027344 1.03125 1.421875 1.585938.339844.476562.71875.058594.640625-.152344.191406.253906.078125.480469-.082031.59375.296875-.023438.589844 0 .839844.089844.292968-1.671875-3.324219-4.046875-6.164063-4.65625zm6.136719 5.378906c.816406.628906.464844 1.339844.464844 1.339844.488281-.496094.03125-1.074219-.109376-1.242188-.132812-.054687-.355468-.097656-.355468-.097656zm-17.820313 1.734375c-1.898437 1.273437-3.753906 1.425781-3.753906 1.425781s3.480469 3.324219 8.359375 1.855469c0 0-3.585938-.574219-4.605469-3.28125zm0 0" fill="#fff"/><path d="m20.289062 2.03125-17.164062 34.839844h17.5c2.214844 0 4.164062-.03125 5.882812-.074219-.253906-.269531-.484374-.546875-.714843-.847656-1.527344.042969-3.238281.058593-5.167969.058593h-16.125c.585938-1.191406 16.085938-32.65625 16.320312-33.113281h18.023438c7.589844 0 11.890625.289063 12.867188 1.871094.160156.257813.242187.570313.242187.953125 0 .8125-.382813 1.949219-1.183594 3.582031l-1.753906 3.554688c-1.46875 3.003906-4.558594 4.484375-9.667969 5.28125 2.601563.339843 6.433594 1.386719 4.351563 5.511719-.617188 1.21875-2.71875 5.519531-2.71875 5.519531-.339844.695312-.652344 1.320312-.972657 1.875.171876.269531.34375.546875.496094.824219.105469-.179688.214844-.359376.320313-.542969.269531-.660157.621093-1.351563 1.066406-2.066407l2.574219-5.230468c.535156-1.089844.800781-2.007813.800781-2.804688 0-.523437-.117187-.976562-.339844-1.390625-.398437-.707031-1.132812-1.238281-2.230469-1.597656 3.589844-.75 5.773438-2.308594 7.085938-4.992187l1.753906-3.566407c.761719-1.546875 1.273438-2.871093 1.273438-3.960937 0-.515625-.113282-.984375-.371094-1.398438-1.203125-1.941406-5.34375-2.285156-13.59375-2.285156zm5.527344 5.480469-1.109375 2.28125-.988281 1.996093c.0625.453126.148438.917969.269531 1.398438.6875-1.414062 1.488281-3.019531 1.488281-3.019531s.609376-1.257813.875-1.792969h14.261719c1.191407 0 1.585938.238281 1.714844.449219.054687.078125.074219.1875.074219.300781 0 .300781-.152344.691406-.304688 1l-1.523437 3.109375c-.574219 1.160156-1.914063 1.824219-3.6875 1.824219h-12.277344c.121094.289062.253906.578125.40625.863281h11.871094c2.101562 0 3.726562-.84375 4.457031-2.3125 0 0 1.511719-3.09375 1.519531-3.105469.261719-.53125.390625-.992187.390625-1.386718 0-.28125-.0625-.53125-.195312-.746094-.363282-.585938-1.136719-.859375-2.445313-.859375zm3.070313 13.222656c.308593.296875.621093.582031.933593.859375h4.652344c.472656 0 1.082032.0625 1.273438.371094.054687.089844.078125.199218.078125.34375 0 .519531-.363281 1.335937-.664063 1.957031l-.605468 1.226563c.230468.183593.457031.371093.679687.554687l.6875-1.40625c.660156-1.339844 1.007813-2.386719.546875-3.136719-.316406-.515625-.972656-.769531-1.996094-.769531zm-11.359375 3.664063-3.421875 6.96875h9.183593c-.09375-.289063-.183593-.578126-.261718-.863282h-7.542969c.285156-.582031 1.492187-3.035156 2.566406-5.234375-.179687-.285156-.359375-.574219-.523437-.871093zm40.34375 1.707031c-.433594.3125-.847656.585937-1.246094.851562h8.957031c-.527343 1.082031-4.550781 9.238281-4.761719 9.660157h-7.289062c.46875-.945313 2.433594-4.949219 2.433594-4.949219l-4.03125.011719c-.15625.28125-.3125.5625-.46875.851562h3.125c-.46875.953125-2.4375 4.949219-2.4375 4.949219h9.199218l5.613282-11.375zm-30.640625 12.0625c-.3125.023437-.636719.027343-.976563.042969l-11.421875 23.230468h21.042969c12.078125 0 14.464844-1.585937 17.570312-7.910156l3.167969-6.425781h-9.207031l-.269531.539062c.285156.105469.550781.214844.789062.347657.003907-.007813.011719-.019532.011719-.03125h7.292969c-.480469.996093-2.550781 5.191406-2.550781 5.191406-2.910157 5.925781-4.9375 7.421875-16.804688 7.421875h-19.664062c.429687-.859375 7.386718-15.015625 11.019531-22.402344zm19.554687 2.777343c-.09375 0-.191406.039063-.25.121094-.113281.144532-.085937.34375.058594.453125.039062.035157.089844.050781.140625.058594-.101563-.082031-.117187-.21875-.039063-.324219.039063-.050781.097657-.082031.15625-.089844-.023437-.074218-.046874-.148437-.066406-.21875zm-.796875 1.179688c.183594.488281.558594 1.570312 1.378907 2.472656-.648438-1.238281-.90625-2.078125-.90625-2.078125s1.316406.324219 1.890624.976563c.464844.523437.410157.976562.386719 1.105468.125-.0625.667969-.328124.816407-.8125.042968-.160156.054687-.34375-.019532-.542968-.207031-.625-.652344-.925782-.65625-.933594-.582031-.3125-1.800781.089844-1.808594.089844-.003906 0-.554687-.179688-1.082031-.277344zm2.550781.25c.121094.003906.1875.023438.1875.023438.113282.054687.253907.234374.253907.234374s-.464844-.207031-.9375-.195312c.203125-.058594.375-.070312.496093-.0625zm-1.101562.824219c.128906.453125.003906 1.179687.003906 1.179687.269532-.558594.28125-.972656.28125-.972656-.097656-.105469-.285156-.207031-.285156-.207031zm-6.214844 3.859375s-.242187.027344-.609375.035156c.285157.152344.851563.53125.953125.65625-.261718.109375-.710937.539062-.710937.539062s.785156-.347656 1.382812-.105468c.824219.332031 1.042969 1.308594 1.042969 1.308594s.121094-.625-.160156-1.046876c.617187.070313 1.449218.726563 1.449218.726563s-.335937-.792969-2.183593-1.570313c-.996094-.417968-1.164063-.542968-1.164063-.542968zm3.515625.179687s-.140625.132813-.417969.210938c0 0 1.003907.386719 1.121094.484375-.273437.152344-.515625.613281-.515625.613281s.550781-.351563 1.285157-.1875c.660156.136719 1.125.796875 1.125.796875s-.042969-.453125-.308594-.742188c.570312.070313 1.167968.402344 1.167968.402344s-.175781-.613281-2.039062-1.066406c-1.054688-.257812-1.417969-.511719-1.417969-.511719zm-15.199219 1.097657c-2.011718 4.09375-3.65625 7.4375-3.65625 7.4375h15.207032c2.613281 0 3.875-1.769532 4.398437-2.820313 0 0 .765625-1.558594 1.457031-2.972656.058594-.226563.039063-.433594-.054687-.625-.089844-.152344-.226563-.28125-.40625-.363281l-1.765625 3.578124c-.429688.871094-1.476562 2.347657-3.628906 2.347657h-13.832032c.203126-.410157 1.503907-3.058594 3.117188-6.335938-.296875-.074219-.570312-.160156-.835938-.246093zm0 0" fill="#dbcca4"/><path d="m20.820312 2.898438c-.234374.453124-15.734374 31.917968-16.320312 33.109374h16.125c1.929688 0 3.640625-.015624 5.167969-.058593-1.078125-1.363281-1.945313-2.929688-2.503907-4.582031h-9.183593l3.421875-6.96875c-.496094-.925782-.886719-1.902344-1.074219-2.925782 1.046875 1.152344 2.367187 1.679688 3.238281 1.910156l.195313-.335937c-3.847657-3.03125-2.929688-8.179687-2.929688-8.179687s.890625 3.988281 3.882813 5.488281c-3.820313-4.875-1.289063-11.488281-1.289063-11.488281s-.355469 5.726562 3.5 10.011718c-3.601562-7.890625 1.050781-12.617187 1.050781-12.617187s-.800781 2.398437-.386718 5.527343l.992187-2 1.109375-2.277343h14.796875c1.304688 0 2.082031.269531 2.445313.855469.132812.214843.195312.46875.195312.75 0 .394531-.128906.855468-.390625 1.386718-.007812.011719-1.519531 3.105469-1.519531 3.105469-.730469 1.46875-2.355469 2.3125-4.457031 2.3125h-11.871094c.347656.671875.777344 1.347656 1.308594 2.015625.800781 1.011719 1.667969 1.941406 2.5625 2.796875h5.585937c1.023438 0 1.679688.253906 1.996094.769531.460938.746094.113281 1.796875-.546875 3.136719l-.6875 1.40625c1.863281 1.535156 3.550781 3.113281 4.773437 4.996094.320313-.554688.632813-1.179688.972657-1.875 0 0 2.101562-4.300781 2.71875-5.515625 2.082031-4.128906-1.75-5.179688-4.351563-5.515625 5.113282-.800781 8.195313-2.277344 9.667969-5.277344l1.753906-3.554687c.800781-1.636719 1.183594-2.773438 1.183594-3.585938 0-.382812-.082031-.691406-.242187-.953125-.980469-1.582031-5.28125-1.867187-12.867188-1.867187h-18.027344zm2.375 12.273437c2.027344 9.207031 8.820313 10.488281 13.4375 15.640625 1.421876 1.597656 3.945313 6.9375-.738281 10.0625-.238281.160156-.523437.300781-.792969.445312.148438.234376.402344.511719.597657.722657 1.199219 1.332031 3.105469 2.296875 3.105469 2.296875s-2.222657-.289063-3.707032-.785156c1.5 1.539062 4.515625 2.21875 4.515625 2.21875s-.988281.074218-1.847656-.023438c1.507813.910156 3.246094.511719 3.246094.511719-.261719-1.570313-1.191407-3.195313-1.191407-3.195313s-.992187-.023437-2.402343-.542968c.707031.058593 1.554687-.066407 2.433593-.25.691407-.140626 1.316407-.160157 1.828126-.140626-.621094-.167968-1.269532-.324218-1.941407-.445312l-.0625-.011719.046875-.046875c.011719-.003906 1.082032-.949218 2.296875-1.359375-1.4375-.710937-3.046875-1-3.0625-1l-.09375-.023437.085938-.039063c.019531-.019531 2.058593-1.046875 3.199219-1.101562-.632813-1.085938-1.09375-1.695313-1.097657-1.699219l-.042969-.058594.070313.015625c.023437 0 1.609375.117188 3.519531.917969-.167968-1.652344-.382812-7.511719 4.089844-11.34375 3.730469-3.214844 7.894531-4.105469 9.324219-7.507812-3.671875 4.878906-14.101563 5.121093-16.742188 16.011718 1.183594.453125 2.125 1.519532 2.125 1.519532-.574219-.234376-1.175781-.386719-1.671875-.5-.25-.050782-.742187-.132813-.78125-.136719-.175781-.027344-.308594-.050781-.308594-.050781-.265624-1.125-.832031-2.664063-2.007812-4.230469-3.78125-5.039063-11.652344-7.925781-15.429688-15.871094zm-1.40625 4.230469s1.890626 6.289062 7.867188 11.417968c-3.046875-1.375-7.632812-4.863281-7.632812-4.863281s3.570312 5.414063 7.523437 7.789063c-1.765625-.425782-3.648437-1.402344-3.648437-1.402344 1.34375 3.074219 7.03125 7.945312 10.011718 4.441406 2.058594-2.421875-.480468-5.796875-4.75-8.476562-6.304687-3.957032-9.371094-8.910156-9.371094-8.910156zm35.695313 2.667968c-2.933594 2.558594-7.375 3.800782-9.445313 6.886719-.613281.921875-1.023437 2.003907-1.289062 3.054688.546875-.414063 1.363281-.929688 2.125-1.042969 0 0-.453125 2.996094-2.125 5.183594 4.179688-1.789063 2.351562-6.714844 9.425781-9.945313-1.863281.03125-4.730469 1.144531-4.730469 1.144531 4-2.28125 6.039063-5.28125 6.039063-5.28125zm-.855469 4.886719c-1.75 1.167969-3.222656 2.070313-4.621094 4.574219-.023437.050781-.046874.101562-.074218.148438l4.03125-.011719s-1.964844 4.003906-2.433594 4.949219h7.289062c.210938-.425782 4.234376-8.582032 4.761719-9.660157zm-28.75 11.1875c-.207031.015625-.429687.019531-.648437.027344-3.632813 7.386719-10.589844 21.539063-11.019531 22.402344h19.664062c11.867188 0 13.894531-1.496094 16.804688-7.421875 0 0 2.070312-4.195313 2.550781-5.191406h-7.292969c0 .011718-.007812.023437-.011719.03125.460938.277343.796875.667968.824219 1.296874.011719.257813-.023438.550782-.121094.886719l-.054687.1875-.039063-.1875c-.128906-.683593-.59375-.976562-.78125-1.0625.011719.042969.023438.101563.023438.167969.019531.335938-.097656.90625-.980469 1.230469l-.125.046875.070313-.117188c.101562-.15625.167968-.3125.203124-.464844-.691406 1.417969-1.457031 2.976563-1.457031 2.976563-.523437 1.050781-1.785156 2.820313-4.398437 2.820313h-15.207032s1.644532-3.34375 3.652344-7.4375c-2.910156-1-3.878906-3.019532-3.878906-3.019532s5.398438-1.289062 8.046875-4.21875c-2.046875-.375-4.070313-1.441406-5.824219-2.949218zm19.027344 3.144531c-.042969-.007812-.089844.003907-.113281.042969-.035157.046875-.027344.117188.019531.15625.050781.046875.125.03125.160156-.023437.003906 0 .007813-.011719.011719-.019532-.027344-.046874-.054687-.101562-.078125-.15625zm-5.75 3.117188c.828125.867188 2.109375 1.34375 2.109375 1.34375s-.914063.042969-1.308594.015625c.925781.726563 2.253907.851563 2.4375.75-.285156-.957031-1.058593-1.980469-1.058593-1.980469s-.863282.140625-2.179688-.128906zm0 0" fill="#8c2232"/></svg>