<svg height="65pt" viewBox="0 0 69 65" width="69pt" xmlns="http://www.w3.org/2000/svg"><path d="m43.367188 1.925781c7.804687-3.074219 14.949218-.796875 15.050781-.761719l.433593.144532 3.058594 5.804687c4.71875 1.5 6.152344 4.550781 6.5625 7.71875.230469 1.785157-.074218 3.296875-.433594 4.359375-.183593.539063-.382812.964844-.535156 1.253906-.160156.308594-1.128906 1.726563-1.128906 1.726563l-.484375-.558594c-.023437-.027343-.523437-.601562-.578125-.648437-.082031-.074219-.230469-.195313-.449219-.324219-.4375-.261719-1.171875-.585937-2.289062-.707031-1.09375-.117188-2.042969-.128906-2.84375-.027344l-5.53125 19.949219c.273437.097656 1.757812.714843 2 .792969.804687.25 2.714843.648437 2.714843.648437s-5.003906 4.765625-13.707031 2.113281l-.015625 21.164063h-21.527344c-5.671874 0-9.242187-4.171875-9.242187-9.578125v-8.726563h-4.339844v-2.851562h-9.679687s.746094-2.660157 1.179687-3.847657c.425781-1.15625 1.054688-2.671874 1.8125-3.78125 1.027344-1.5 2.328125-2.871093 3.449219-3.703124-.003906-3.292969.050781-16.46875.058594-19.984376-.332032-.226562-.679688-.488281-1-.78125-1.035156-.941406-2.355469-2.964843-2.757813-3.660156-.253906-.4375-.808593-1.726562-1.257812-2.773437-.46875-1.101563-1.652344-3.96875-1.652344-3.96875h27.703125c4 0 7.707031 2.136719 8.929688 5.976562 2.039062-2.910156 3.636718-3.84375 6.5-4.96875" fill="#fe5000"/><path d="m51.761719 1.488281c-2.269531.042969-5 .414063-7.917969 1.492188-4.191406 1.546875-5.984375 4.0625-7.886719 7.492187v-.742187c0-4.695313-3.675781-7.46875-8.019531-7.46875h-25.707031s1.660156 4.03125 2.066406 4.730469c.390625.679687 1.625 2.546874 2.496094 3.339843.453125.410157.984375.765625 1.441406 1.042969 0 1.761719-.078125 20.777344-.058594 21.429688-1.023437.59375-2.527343 2.054687-3.683593 3.75-1.320313 1.925781-2.332032 5.527343-2.332032 5.527343h13.59375v12.917969c0 4.746094 3.050782 8.238281 7.910156 8.238281h20.199219l.015625-21.566406c.351563.175781.675782.316406.96875.417969 7.140625 2.445312 11.496094-.359375 11.496094-.359375s-1.191406-.261719-1.929688-.503907c-.652343-.214843-1.640624-.648437-1.640624-.648437l6.050781-21.679687c1.089843-.246094 2.394531-.261719 3.875-.101563 2.566406.277344 3.570312 1.507813 3.570312 1.507813s1.480469-2.179688 1.070313-5.320313c-.378906-2.910156-1.640625-5.609375-6.210938-6.902344l-3.074218-5.824219s-2.511719-.839843-6.292969-.769531zm-38.992188 41.921875-.257812 1.535156h.390625l.128906-.882812h.003906l.347656.882812h.15625l.367188-.882812h.003906l.109375.882812h.394531l-.230468-1.535156h-.390625l-.328125.820313-.308594-.820313zm-1.359375.003906v.335938h.324219v1.195312h.394531v-1.195312h.328125v-.335938zm0 0" fill="#4f2c1d"/><path d="m59.453125 9.878906s.09375 1.003906-1.207031 2.269532c-1.507813 1.46875-4.472656 3.125-4.472656 3.125s4.355468-.792969 7.925781-.144532c2.640625.476563 3.5 2.019532 3.5 2.019532s.730469-2.238282-.929688-4.25c-1.554687-1.886719-4.816406-3.019532-4.816406-3.019532" fill="#cda077" fill-rule="evenodd"/><path d="m6.738281 5.164062s.949219 2.066407 1.988281 3.011719c.804688.734375 2.390626 1.445313 2.390626 1.445313v25.101562s-1.660157.765625-2.246094 1.355469c-1.417969 1.417969-1.945313 3.101563-1.945313 3.101563h11.714844v15.820312c0 3.300781 1.910156 5.335938 5.023437 5.335938h17.316407v-18.226563h-15.613281s2.941406 2.597656 5.210937 3.515625c2.023437.820312 5.484375 1.105469 5.484375 1.105469v9.152343h-11.03125c-1.148438 0-1.476562-.496093-1.476562-2.09375v-14.609374h4.109374c2.023438 0 2.953126-.332032 3.988282-1.265626 1.039062-1.046874 1.421875-2.144531 1.421875-4.183593v-2.953125h2.714843s.492188 2.300781 1.148438 3.628906c1.027344 2.066406 3.808594 4.515625 3.808594 4.515625l.035156-12.597656h-7.707031v-.4375c0-2.203125-.546875-3.359375-2.019531-4.347657 1.417968-.9375 2.019531-2.035156 2.019531-3.851562v-7.957031c0-2.75-2.019531-4.566407-5.136719-4.566407zm9.292969 4.457032h9.996094c1.636718 0 2.128906.441406 2.128906 1.871094v5.867187c0 1.59375-.378906 1.980469-1.910156 1.980469h-10.214844zm38.597656.953125c-.570312-.003907-1.28125.003906-1.835937.054687-.992188.089844-2.519531.402344-2.519531.402344l3.429687 1.4375 1.933594-1.878906s-.433594-.015625-1.007813-.015625zm-38.597656 13.222656h9.832031c1.914063 0 2.292969.328125 2.292969 2.089844v.4375h-4.601562c-2.894532 0-4.917969 2.089843-4.917969 5.003906v3.394531h-2.605469v-10.929687zm9.542969 6.980469h2.582031v2.074218c0 1.429688-.492188 1.871094-2.238281 1.871094h-2.363281v-2.074218c0-1.484376.4375-1.871094 2.019531-1.871094zm0 0" fill="#fff"/><path d="m52.042969 3.953125c-2.617188-.011719-5.46875.519531-8.554688 1.945313-1.96875.90625-2.375 1.660156-2.375 1.660156s3.085938-.585938 7.953125-.257813c6.425782.4375 9.347656 2.078125 10.273438 2.578125l-2.847656-5.394531c-1.398438-.320313-2.882813-.523437-4.449219-.53125zm-1.964844 7.136719c-3.449219.398437-10.285156 2.503906-14.121094 6.320312v.277344c0 1.421875-.277343 2.726562-.960937 3.882812.328125.585938.558594 1.199219.710937 1.847657h4.367188c.386719-1.035157.835937-2.105469 1.300781-2.960938 2.386719-4.386719 5.992188-7.585937 8.703125-9.367187zm6.265625 8.210937s-4.953125.511719-10.738281 3.242188c-.613281.292969-1.183594.585937-1.714844.875v.007812l-.007813 13.121094c3.671876 2.566406 6.605469 3.386719 6.605469 3.386719zm0 0" fill="#fe5000" fill-rule="evenodd"/></svg>