<svg height="36pt" viewBox="0 0 69 36" width="69pt" xmlns="http://www.w3.org/2000/svg"><path d="m63.125 23.121094v-.070313c2.757812-.515625 5.3125-2.378906 5.3125-5.449219 0-4.378906-3.878906-6.480468-8.511719-6.515624l-10.75-.097657v-6.277343c0-.972657.378907-1.535157 1.339844-1.535157h3.855469v-3.191406h-17.460938v3.191406h4.367188c.960937 0 1.335937.5625 1.335937 1.535157v6.277343h-22.261719v3.417969h4.425782c.96875 0 1.351562 1.429688 1.351562 2.414062v5.132813c-8.296875 0-9.363281-4.195313-9.363281-7.765625v-9.476562c0-.972657 1.019531-1.535157 1.984375-1.535157h3.480469v-3.191406h-22.230469v3.191406h4.25c.960938 0 1.339844.5625 1.339844 1.535157v9.324218c0 7.683594 7.855468 10.691406 20.539062 10.691406v6.417969c0 1.011719-.585937 1.550781-1.527344 1.550781h-3.824218v3.199219l38.910156.089844c.238281 0 9.363281.480469 9.363281-6.757813 0-3.554687-2.660156-5.65625-5.925781-6.105468zm-13.949219-7.203125v-1.332031h5.925781c2.949219 0 4.972657.769531 4.972657 3.503906 0 2.429687-2.582031 3.746094-4.972657 3.460937h-8.792968c1.996094-1.511719 2.867187-3.773437 2.867187-5.632812zm-12.035156-1.332031h5.476563v1.773437c0 2.175781-1.339844 5.171875-5.476563 5.171875zm18.199219 17.929687h-18.199219v-7.558594l18.199219.003907c2.378906 0 5.035156.699218 5.035156 4.363281 0 2.941406-3.601562 3.191406-5.035156 3.191406zm0 0" fill="#005bbb"/></svg>