<svg height="45pt" viewBox="0 0 69 45" width="69pt" xmlns="http://www.w3.org/2000/svg"><path d="m34.507812.265625c-18.921874 0-34.265624 9.976563-34.265624 22.28125s15.34375 22.28125 34.265624 22.28125c18.929688 0 34.269532-9.976563 34.269532-22.28125s-15.339844-22.28125-34.269532-22.28125zm0 0" fill="#025"/><path d="m42.472656 9.914062c.824219.109376 3.652344.664063 4.601563 1.039063l-9.5 11.535156-10.773438-12.597656c.855469-.222656 3.308594-.472656 4.417969-.535156-.089844-.910157-.582031-5.507813-.582031-5.507813-5.925781.203125-15.734375 2.765625-21.6875 8.027344.421875.507812 2.582031 3.308594 3.316406 4.179688.914063-.886719 2.976563-2.289063 3.660156-2.605469l13.296875 15.144531s-.023437 6.484375-.011718 6.804688c-1.023438-.089844-3.878907-.511719-4.578126-.730469-.136718.820312-.90625 4.574219-1.039062 5.226562 8.101562 1.949219 16.917969 1.347657 22.585938-.175781-.574219-2.527344-1.105469-4.101562-1.296876-5.117188-1.109374.25-4.203124.738282-4.808593.78125l.007812-6.785156 12.621094-15.445312s2.644531 1.421875 4.039063 2.828125c.65625-.824219 2.070312-2.855469 3.09375-4.175781-4.71875-3.816407-10.578126-6.257813-16.71875-7.289063-.089844 1.351563-.535157 4.464844-.640626 5.398437zm0 0" fill="#fff"/></svg>