<svg height="56pt" viewBox="0 0 69 56" width="69pt" xmlns="http://www.w3.org/2000/svg"><path d="m33.898438 36.878906c-.269532.65625-1.402344 2.511719-2.695313 2.511719-1.5625 0-1.617187-.875-1.617187-1.964844 0-3.109375 3.609374-10.476562 6.84375-10.476562.96875 0 1.292968.492187 1.292968.929687 0 .164063-1.996094 4.308594-3.824218 9m30.496093-26.183594c.105469 0 .164063.21875.164063.378907 0 1.527343-4.960938 11.019531-9.917969 17.839843 1.671875-10.199218 8.890625-18.21875 9.753906-18.21875m-2.855469 32.675782c-3.234374-.980469-6.84375-2.671875-7.167968-9.273438 5.875-7.035156 13.527344-20.074218 13.527344-25.3125 0-1.363281-.269532-2.890625-2.210938-2.890625-4.578125 0-18.265625 12.765625-18.265625 27.328125 0 1.3125.160156 2.566406.429687 3.492188-2.800781 2.621094-4.902343 3.820312-7.003906 3.820312-.699218 0-.859375-.273437-.859375-1.527344 0-1.800781 5.332031-12.984374 5.332031-13.695312 0-1.035156-.429687-1.308594-1.238281-1.308594h-4.257812c-.324219 0-.644531.273438-.914063.929688-.164062-.21875-1.027344-.929688-2.425781-.929688-4.636719 0-10.453125 3.601563-13.792969 10.640625-.753906 1.632813-2.15625 5.507813-5.984375 5.507813-3.285156 0-4.363281-3.546875-4.363281-7.636719 0-11.292969 13.203125-28.316406 20.421875-28.316406 1.183594 0 1.726563.601562 1.726563 1.75 0 2.125-1.886719 3.433593-3.289063 3.597656-2.046875.21875-3.71875 1.148437-3.71875 2.949219 0 1.527344 1.1875 2.179687 2.75 2.179687 2.261719 0 7.488281-5.019531 7.488281-9.601562 0-2.726563-1.5625-4.199219-4.308594-4.199219-11.371093 0-30.929687 16.367188-30.929687 31.96875 0 7.691406 4.148437 11.453125 11.636719 11.453125 3.609375 0 7.113281-2.78125 8.136718-3.761719.214844 1.144532 1.5625 3.761719 6.035157 3.761719 2.964843 0 4.957031-1.960937 5.605469-2.890625.214843.984375.859374 2.890625 4.148437 2.890625 3.878906 0 7.382813-1.414063 10.9375-4.632813 1.617187 2.941407 4.417969 4.691407 7.273437 5.289063.917969.164063 2.101563.382813 2.101563.65625 0 .433594-1.777344 1.363281-5.441406 1.363281-7.921875 0-20.746094-1.199218-31.738281-1.199218-15.300782 0-20.3125 7.035156-20.3125 8.347656 0 .542968.378906.652344.808593.652344.859375 0 3.878907-2.34375 15.625-2.34375 12.933594 0 21.769531.980468 28.773438.980468 13.957031 0 18.160156-7.203125 18.160156-8.074218 0-1.363282-1.1875-1.527344-2.695313-1.964844" fill="#041e42"/></svg>