<svg height="50pt" viewBox="0 0 70 50" width="70pt" xmlns="http://www.w3.org/2000/svg"><path d="m37.46875 2.640625-12.382812 4.679687-1.429688 3.246094h-13.175781l-1.085938 2.335938h13.230469l-3.988281 9.039062h-13.605469l-1.492188 3.339844h13.628907l-1.890625 4.285156h-9.679688l-1.011718 2.402344h9.632812l-2.273438 5.15625 6.371094 4.84375h26.621094l12.386719-5.589844 5.308593-11.855468-19.191406.042968-3.734375 8.660156h-6.15625l9.765625-21.847656h6.054688l-4.167969 8.238282 18.929687.035156 5.484376-11.824219-7.398438-5.1875zm-33.707031 41.082031-2.6875 5.992188h56.5l2.753906-5.992188zm0 0" fill="#ffc82e"/><path d="m18.429688 40.476562h26.269531l11.648437-5.191406 5.382813-12.085937-18.671875-.015625-3.589844 8.554687h-6.875l9.765625-21.851562h6.777344l-4.15625 8.199219 18.675781-.011719 5.4375-11.738281-7.109375-5.191407h-24.753906l-11.648438 5.191407-13.757812 29.125zm0 0" fill="#fff"/><path d="m36.488281.425781-11.648437 5.1875-12.890625 28.84375 7.058593 5.296875h24.949219l11.648438-5.191406 5.441406-12.085938-18.59375.042969-3.726563 8.496094h-6.875l9.769532-21.851563h6.777344l-3.609376 8.234376 18.054688.003906 5.507812-11.789063-7.109374-5.1875zm0 0" fill="#6a0032"/><path d="m9.5 9.34375-1.175781 2.335938h19.101562l1.070313-2.335938zm-5.574219 11.257812-2.117187 3.339844h28.015625l1.4375-3.339844zm.816407 7.671876-1.378907 2.40625h18.191407l1.136718-2.40625zm-1.660157 15.066406-2.714843 5.097656h56.492187l2.300781-4.996094-56.082031-.101562zm0 0" fill="#fff"/><path d="m10.3125 8.359375-1.046875 2.335937h18.78125l1.589844-2.335937zm-5.980469 11.234375-1.539062 3.429688h27.941406l1.964844-3.429688zm.742188 7.671875-1.085938 2.40625h18.589844l1.378906-2.40625zm-2.894531 16.457031-1.796876 4.03125h55.875l1.835938-4.03125zm0 0" fill="#6a0032"/></svg>