<svg height="92pt" viewBox="0 0 75 92" width="75pt" xmlns="http://www.w3.org/2000/svg"><path d="m73.851562 43.316406c-2.117187-3.539062-4.734374-6.644531-6.152343-8.226562l1.148437-.605469-.433594-.972656c-1.03125-2.320313-2.703124-4.726563-3.246093-5.476563-3.050781-20.621094-12.53125-26.675781-12.9375-26.925781l-.75-.460937-.648438.597656c-4.789062 4.355468-6.808593 10.3125-7.453125 12.675781-2.46875-.214844-5.867187-.367187-6.03125-.371094l-.042968-.003906-.054688.003906c-.164062.003907-3.5625.15625-6.03125.371094-.644531-2.363281-2.660156-8.320313-7.453125-12.675781l-.644531-.597656-.757813.460937c-.398437.25-9.886719 6.304687-12.929687 26.925781-.539063.75-2.21875 3.15625-3.25 5.476563l-.433594.972656 1.144531.605469c-1.414062 1.582031-4.03125 4.6875-6.144531 8.226562l-.242188.40625.121094.46875c.160156.59375 3.964844 14.757813 9.636719 24.53125l1.308594 2.242188.957031-2.90625c2.117188 3.375 6.648438 9.710937 12.875 13.488281.761719 1.765625 4.277344 8.894531 11.730469 9.921875l.167969.023438.152343-.023438c7.457031-1.027344 10.96875-8.15625 11.730469-9.921875 6.226562-3.777344 10.757812-10.113281 12.875-13.488281l.960938 2.90625 1.300781-2.242188c5.671875-9.773437 9.484375-23.9375 9.640625-24.53125l.121094-.46875-.242188-.40625zm0 0" fill="#a2aaad"/><path d="m22.976562 2.074219s-9.480468 5.839843-12.441406 26.398437c0 0-2.109375 2.835938-3.292968 5.496094l1.519531.792969s-4.050781 4.164062-7.015625 9.128906c0 0 3.867187 14.507813 9.527344 24.25l.953124-2.894531s5.488282 10.460937 14.105469 15.511718c0 0 3.214844 8.507813 10.96875 9.566407 7.742188-1.058594 10.960938-9.566407 10.960938-9.566407 8.613281-5.050781 14.097656-15.511718 14.097656-15.511718l.960937 2.894531c5.660157-9.742187 9.523438-24.25 9.523438-24.25-2.964844-4.964844-7.015625-9.128906-7.015625-9.128906l1.515625-.792969c-1.179688-2.660156-3.289062-5.496094-3.289062-5.496094-2.960938-20.558594-12.445313-26.398437-12.445313-26.398437-5.757813 5.253906-7.34375 13.082031-7.34375 13.082031-2.410156-.265625-6.964844-.464844-6.964844-.464844s-4.566406.199219-6.976562.464844c0 0-1.585938-7.828125-7.347657-13.082031zm0 0" fill="#000e2f"/><path d="m22.71875 6.277344s-7.292969 4.980468-9.253906 20.273437c0 0 1.410156-3.539062 3.617187-8.449219 2.207031-4.917968 5.445313-9.101562 5.445313-9.101562 1.640625 2.527344 1.835937 6.050781 1.835937 6.050781-2.34375 3.261719-3.296875 6.3125-3.296875 6.3125l1.523438-.195312c-1.074219 1.992187-1.582032 5.382812-1.582032 5.382812 4.429688-4.523437 9.25-6.917969 9.25-6.917969s-1.964843-.257812-2.851562-.257812l1.519531-.9375s-1.398437-7.90625-6.207031-12.160156zm29.269531 0c-4.8125 4.253906-6.207031 12.160156-6.207031 12.160156l1.519531.9375c-.886719 0-2.851562.257812-2.851562.257812s4.820312 2.394532 9.25 6.917969c0 0-.507813-3.390625-1.582031-5.382812l1.515624.195312s-.945312-3.054687-3.292968-6.3125c0 0 .191406-3.523437 1.839844-6.050781 0 0 3.234374 4.179688 5.441406 9.101562 2.207031 4.910157 3.613281 8.449219 3.613281 8.449219-1.957031-15.296875-9.246094-20.277343-9.246094-20.277343zm-14.679687 19.753906c-1.898438 8.703125-2.425782 19.980469-2.425782 19.980469-3.867187 2.722656-6.210937 6.417969-6.210937 6.417969-.636719-2.855469-.507813-6.019532-.507813-6.019532-5.320312-1.53125-5.507812-5.714844-5.507812-5.714844s2.019531-.265624 4.109375.0625l-.503906-1.59375s2.664062 1.195313 4.949219 6.378907c0 0 2.148437-1.527344 1.582031-9.769531 0 0-1.90625-2.59375-4.691407-3.65625-1.269531 1.527343-2.34375 3.390624-2.34375 3.390624l.949219.460938c-2.59375 3.398438-6.207031 4.058594-6.207031 4.058594-.191406 4.125.921875 9.296875.921875 9.296875-2.597656-2.859375-3.457031-7.503907-3.457031-7.503907-3.230469-1.132812-5.511719-1.390624-5.511719-1.390624l-3.105469 2.589843 3.105469 1.992188-5.132813.660156c1.707032 7.179687 4.945313 14.691406 4.945313 14.691406l.945313-2.324219c4.121093 7.972657 7.984374 10.433594 7.984374 10.433594-1.140624-3.988281-2.976562-8.375-2.976562-8.375 5.765625 4.121094 9.21875 12.992188 10.707031 17.679688 2.285157 7.179687 8.425781 6.996094 8.425781 6.996094s6.148438.183593 8.429688-6.996094c1.484375-4.6875 4.941406-13.558594 10.707031-17.679688 0 0-1.839843 4.386719-2.980469 8.375 0 0 3.867188-2.460937 7.980469-10.433594l.953125 2.324219s3.230469-7.511719 4.945313-14.6875l-5.136719-.660156 3.109375-1.996094-3.109375-2.589843s-2.277344.257812-5.507812 1.390624c0 0-.867188 4.644532-3.460938 7.503907 0 0 1.117188-5.171875.925781-9.296875 0 0-3.613281-.660156-6.207031-4.054688l.949219-.464844s-1.078125-1.863281-2.347657-3.386718c-2.785156 1.058594-4.6875 3.65625-4.6875 3.65625-.570312 8.238281 1.585938 9.769531 1.585938 9.769531 2.28125-5.1875 4.945312-6.382813 4.945312-6.382813l-.507812 1.597657c2.085938-.332031 4.109375-.066407 4.109375-.066407s-.1875 4.183594-5.503906 5.714844c0 0 .125 3.164063-.503907 6.023438 0 0-2.351562-3.695313-6.214843-6.421875 0 0-.613281-11.277344-2.515625-19.980469zm0 0" fill="#fff"/><path d="m37.355469 58.238281c3.097656 0 4.933593 2.125 4.933593 2.125-.0625 6.121094-4.179687 7.042969-4.179687 7.042969s-.378906 1.738281 2.980469 1.601562c3.359375-.132812 4.4375-1.929687 7.097656-6.984374 1.035156-1.972657 1.875-2.578126 2.507812-2.578126-2.207031 3.800782-3.699218 8.484376-4.164062 10.066407-.527344 1.496093-1.003906 3.101562-1.386719 4.746093-1.710937 7.246094-7.789062 7.773438-7.789062 7.773438s-6.085938-.527344-7.792969-7.773438c-.367188-1.539062-.800781-3.035156-1.285156-4.445312-.335938-1.179688-1.875-6.289062-4.257813-10.367188.636719.007813 1.460938.621094 2.496094 2.578126 2.660156 5.054687 3.742187 6.847656 7.097656 6.984374 3.355469.136719 2.980469-1.601562 2.980469-1.601562s-4.117188-.921875-4.179688-7.042969c0 0 1.832032-2.125 4.941407-2.125zm0 0" fill="#000e2f"/><path d="m25.355469 42.234375s-.433594 1.804687 1.230469 2.300781c1.667968.492188 2.097656-1.070312 2.097656-1.070312-.574219-.425782-1.15625-.703125-1.660156-.882813.105468.316407.261718.6875.492187 1.023438-.167969.066406-.382813.089843-.648437.011719-.871094-.257813-.742188-1.125-.714844-1.28125-.484375-.097657-.796875-.101563-.796875-.101563zm23.992187 0s-.3125.003906-.800781.101563c.03125.15625.160156 1.023437-.710937 1.28125-.269532.082031-.480469.054687-.644532-.011719.222656-.335938.382813-.707031.492188-1.023438-.511719.179688-1.089844.457031-1.671875.882813 0 0 .429687 1.5625 2.101562 1.070312 1.667969-.496094 1.234375-2.300781 1.234375-2.300781zm0 0" fill="#a4c8e1"/><path d="m41.05518 83.58499c1.697901-.056599 3.59783-1.758908 3.662308-4.388564-3.249654 0-2.682254 2.455506-3.662308 2.455506-.984353 0-.399759-2.455506-3.670905-2.455506.05588 2.629656 1.960108 4.331965 3.670905 4.388564" fill="#e4002b" stroke="#e4002b" stroke-width=".1" transform="matrix(.908751 0 0 .897218 -.008142 .252103)"/><path d="m37.296875 59.667969c-1.339844 0-2.742187.589843-3.234375 1.429687.726562-.597656 2.050781-.972656 3.234375-.972656 1.1875 0 2.503906.375 3.230469.972656-.492188-.839844-1.890625-1.429687-3.230469-1.429687zm-5.035156 11.996093c-1.625 1.234376-1.359375 5.222657.984375 6.140626 2.40625.703124 2.113281 1.082031 4.050781 1.175781 1.929687-.09375 1.632813-.472657 4.039063-1.175781 2.34375-.917969 2.613281-4.90625.992187-6.140626.703125 2.648438-1.792969 5.117188-1.8125 5.050782-.082031-.523438-.601563-.707032-.601563-.710938-.003906-.03125-.445312 1.511719-2.617187 1.5625-2.1875-.050781-2.625-1.59375-2.625-1.5625 0 .003906-.523437.1875-.605469.710938-.019531.066406-2.515625-2.402344-1.804687-5.050782zm0 0" fill="#fff"/></svg>