<svg height="75pt" viewBox="0 0 70 75" width="70pt" xmlns="http://www.w3.org/2000/svg"><path d="m52.480469 46.648438c.589843-.492188 1.148437-1.011719 1.679687-1.554688.296875.054688.515625.09375.636719.121094 0 0 .21875.042968.21875.042968 2.035156.402344 7.445313 1.46875 10.277344-3.957031.5-.960937.75-1.996093.75-3.027343 0-.871094-.179688-1.742188-.542969-2.558594-.667969-1.492188-1.851562-2.554688-3.246094-2.914063-.222656-.058593-.816406-.207031-1.699218-.433593 1.386718-5.644532 1.324218-11.089844-.210938-16.003907-2.054688-6.574219-6.546875-11.714843-12.992188-14.875l-2.4375-1.195312.742188 2.605469c.035156.117187 2.625 9.515624.5 21.355468-.589844-.355468-1.292969-.683594-2.148438-.960937l-.078124-.027344-11.027344-1.957031-.070313-.007813c-3.769531-.5625-6.804687.804688-8.789062 1.828125-1.953125-.492187-5.039063-1.273437-5.046875-1.273437-1.125-.410157-3.554688-.660157-5.863282.328125-1.992187.855468-3.488281 2.472656-4.324218 4.6875-1.203125 3.175781-1.226563 5.789062-.070313 7.765625.113281.195312.238281.371093.363281.539062-3.699218 3.210938-7.84375 8.679688-8.730468 17.421875-.058594.589844-.089844 1.183594-.089844 1.773438 0 4.453125 1.703125 8.75 4.894531 12.261718 4.546875 5.007813 11.699219 7.988282 19.128907 7.976563 9.207031-.019531 16.671874-4.078125 21.210937-7.363281h12.089844c5.023437 0 6.691406-4.5625 8.03125-8.230469l.109375-.289063c.386718-1.0625 3.230468-10.128906 3.351562-10.511718l.492188-1.566406zm0 0" fill="#9a8648"/><path d="m48.847656 47.753906c1.730469-1.027344 3.410156-2.320312 4.902344-3.960937.667969.125 1.109375.207031 1.273438.238281 1.875.363281 6.6875 1.523438 9.195312-3.289062 1.511719-2.898438.015625-6.183594-2.269531-6.773438-.308594-.078125-1.335938-.339844-2.875-.730469 3.820312-13.640625-1.269531-25.28125-12.257813-30.667969 0 0 3.050782 10.664063.144532 23.84375-.675782-.695312-1.675782-1.441406-3.324219-1.972656l-10.917969-1.9375-.035156-.003906c-3.6875-.550781-6.628906.933594-8.492188 1.910156-3.324218-.839844-5.472656-1.382812-5.503906-1.390625-1.1875-.5-6.710938-1.121093-8.75 4.277344-1.726562 4.566406-.476562 6.875.945312 8-3.722656 2.921875-8.390624 8.328125-9.3125 17.421875-1.171874 11.589844 9.894532 20.710938 22.730469 20.6875 9.136719-.019531 16.574219-4.238281 20.929688-7.464844h12.242187c4.1875 0 5.433594-2.539062 7.953125-9.898437.363281-1.050781 2.695313-8.289063 2.695313-8.289063zm0 0" fill="#006940"/><path d="m50.414062 7.589844s5.101563 11.570312-.167968 25.792968c-.003906.003907.511718.128907.550781.136719.476563.113281.933594.574219 1.09375 1.214844l-5.339844-1.238281c.140625-.300782.253907-.621094.328125-.964844.007813 0 .003906.011719.007813 0 .011719-.066406.027343-.136719.035156-.203125.003906-.03125.007813-.089844.007813-.089844.234374-2.796875-3.417969-3.488281-3.417969-3.488281s.460937-1.832031-2.425781-2.449219c-3.359376-.714843-9.824219-1.402343-9.824219-1.402343-3.027344.167968-4.453125.984374-5.066407 1.5.132813.175781.25.355468.359376.535156.023437.035156.285156.507812.371093.714844v.003906c.046875.101562.125.332031.128907.335937.035156.105469.097656.328125.097656.332031.054687.226563.097656.457032.117187.699219h-.003906c.027344.320313-.019531 1.015625-.019531 1.015625-.011719.113282-.054688.382813-.058594.398438-.019531.105468-.085938.402344-.09375.433594-.023438.082031-.203125.699218-.214844.726562-.046875.140625-.097656.28125-.152344.425781-.050781.125-.226562.519531-.246093.558594-.039063.082031-.183594.371094-.21875.433594-.042969.070312-.203125.339843-.238281.398437-.210938.332032-.453126.652344-.726563.960938-.03125.039062-.238281.257812-.3125.328125-.046875.050781-.289063.273437-.363281.335937-.0625.050782-.886719.65625-1.296875.863282v.003906c-.132813.0625-.269531.128906-.410157.1875-.007812.003906-.015624.007812-.023437.011718-.863281.363282-1.878906.582032-3.078125.589844-2.832031 2.199219-12.316406 6.816406-12.371094 17.414063-.003906.714843.054688 1.433593.167969 2.152343l3.804687-2.648437c.390626-4.890625 3.398438-8.820313 8.082032-11.703125 4.882812-4.933594 12.203125-5.757812 12.203125-5.757812s-2.066407-1.960938-2.292969-3.484376c3.363281.355469 4.394531-2.015624 4.398438-1.929687 0 0 .492187 1.601563 3.402343.914063 0 0 .957031 2.132812 3.558594 2.097656.050781 0-.769531 1.988281 2.539063 3.203125l3.082031.570312 1.851562.339844 2.222657.410156c-.542969.636719-1.453126 1.410157-2.664063 1.375l-.570313-.105469c-3.050781 4.691407-7.253906 8.433594-7.253906 8.433594.003906 0 7.320313-2.941406 11.316406-9.570312.035157-.054688.066407-.113282.097657-.167969.132812-.21875.257812-.445313.378906-.675781.042969-.074219.082031-.148438.121094-.226563.152343-.285156.292969-.578125.429687-.882812.164063-.363281.320313-.726563.46875-1.082031.019532-.054688.042969-.109376.0625-.164063.144532-.34375.28125-.6875.410156-1.027344v-.003906c6.527344-17.089844-2.84375-26.582031-2.84375-26.582031zm-34.941406 17.082031c-1.292968.054687-2.582031 1.414063-3.375 3.394531-.921875 2.324219-.578125 4.644532.769532 5.179688.199218.078125.410156.109375.628906.105468l.054687.003907c.851563-.042969 1.796875-.703125 2.554688-1.738281l1.417969.277343 5.949218 1.15625c.042969-.042969.222656-.226562.289063-.304687.027343-.03125.457031-.488282.890625-1.375.171875-.355469.390625-1.109375.398437-1.160156.011719-.0625.039063-.226563.039063-.246094l-7.320313-1.742188-.316406-.074218c.179687-1.648438-.300781-3.0625-1.308594-3.390626-.015625-.003906-.117187-.03125-.117187-.03125v.003907c-.183594-.050781-.371094-.066407-.554688-.058594zm41.8125 12.742187c0 .007813-.003906.003907-.023437.035157-.4375.773437-.9375 1.574219-1.488281 2.3125-.027344.039062-.039063.054687-.039063.050781l.054687.015625 4.183594.9375c.71875-.46875 1.121094-1.097656 1.53125-2.089844.042969-.113281.078125-.222656.101563-.332031l-4.285157-.921875zm-31.5 7.84375-2.992187 3.609376-2.121094 6.515624 1.886719-1.070312zm12.707032 1.175782-1.75 1.113281s1.664062 1.570313-.179688 3.96875c-3.824219 3.277344-7.550781 2.253906-8.160156 1.324219l-1.699219 1.046875c1.664063 2 6.410156.40625 7.558594-.023438-2.222657 2.03125-4.875 4.085938-4.875 4.085938l-3.457031 1.058593h4.09375s4.089843-3.28125 5.34375-4.378906c1.253906-1.097656 5.730468-5.148437 3.125-8.195312zm-10.089844 6.40625 1.867187-1.214844s-.910156-1.492188 1.171875-3.121094c2.367188-1.65625 3.777344-.054687 3.777344-.054687l1.523438-.902344s-2.304688-2.015625-5.800782-.195313c-2.394531 1.25-3.589844 3.164063-2.539062 5.488282zm-6.230469-3.824219-8.5 5.78125 2.574219-.484375 4.59375-3.378906zm24.472656.863281-1.1875 1.003906h-3.40625l-1.207031 3.265626 1.320312-.71875.546876-1.527344h3.183593zm7.714844.332032-1.179687.867187s1.21875.53125.675781 1.710937c-.585938 1.269532-1.601563 1.859376-3.378907 2.035157l1.472657 3.429687-1.574219.800782h3.335938l-1.839844-3.761719s1.640625-.125 2.761718-1.714844c1.816407-2.660156-.273437-3.367187-.273437-3.367187zm-1.179687.867187s-.289063-.175781-1.304688-.175781h-2.078125l-1.421875 3.832031 1.328125-.746094.851563-2.285156s.121093 0 .492187.003906c.835937.039063 1.03125.242188 1.03125.242188zm10.992187-.496094-1.785156.433594c-1.3125-.554687-4.578125-.085937-4.34375 2.730469l1.355469-.90625c-.109376-.601563 1.515624-1.710938 3.019531-.40625zm-19.015625 2.847657-1.445312 1.003906h-2.9375l-1.257813 3.351562 1.28125-.753906.632813-1.574219h2.988281l.742187-2.027343zm12.882812.320312-1.425781.957031s.449219.546875 1.636719.8125c1.609375.363281 1.347656.984375 1.347656.984375l1.40625-.96875s-.257812-.597656-1.8125-1.082031c-.90625-.285156-1.152344-.703125-1.152344-.703125zm-31.925781.5625-2.675781 1.097656h-2.765625l-.941406 2.613282-1.917969 1.050781h2.964844l.988281-2.601563h2.210937zm36.355469.253906-1.464844.972656c.382813 2.578126-3.046875 3.667969-4.984375 2.601563l-1.964843.304687c1.136718.925782 2.847656 1.386719 5.039062.796876 2.746094-.597657 4.191406-3.667969 3.375-4.675782zm-14.152344.246094-1.203125 3.296875-1.976562.945313 2.726562.003906 1.300781-3.527344 1.261719-.71875zm-35.6875.597656-3.085937 1.066406h9.257812l1.605469-1.066406zm31.355469 1.625-1.34375.90625h-3.246094l-2.027343 1.113282h5.867187zm-35.957031 1.019532c1.8125 5.996093 7.820312 11.363281 17.546875 11.496093 2.105469-.039062 4.035156-.21875 5.785156-.488281 3.488281-.617188 7.335937-1.832031 11.527344-3.792969-11.765625 3.78125-20.59375 3.175781-25.871094-.140625l-3.203125-.007812.746094-1.984375c-1.363282-1.4375-2.300782-3.152344-2.789063-5.082031zm53.246094 2.828124-4.113282 1.472657h-38.453125l-2.613281 1.335937h40.964844c2.800781 0 3.902344-2.316406 4.214844-2.808594zm0 0" fill="#9a8648"/><path d="m50.414062 7.589844s1.953126 14.175781-1.972656 25.335937c.78125.199219 1.394532.355469 1.804688.457031 5.269531-14.222656.167968-25.792968.167968-25.792968zm-16.613281 23.144531c-.003906-.085937-1.03125 2.285156-4.394531 1.929687.226562 1.523438 2.296875 3.484376 2.296875 3.484376s-7.324219.820312-12.207031 5.757812c1.078125-.664062 2.246094-1.277344 3.496094-1.828125 7.078124-3.136719 12.363281-.3125 12.363281-.3125-.09375-1.570313 2.179687-2.40625 2.179687-2.40625-2.203125-.316406-4.914062-3.019531-2.726562-4.921875 2.898437.835938 6.308594 3.027344 6.417968 5.121094.011719.203125-.007812.40625-.0625.609375-.023437.082031-.054687.160156-.078124.242187l4.382812.804688c-3.238281 5.910156-5.496094 8.753906-5.496094 8.753906s4.203125-3.738281 7.253906-8.429688l.570313.105469c1.210937.035157 2.121094-.734375 2.664063-1.375l-2.222657-.410156-1.851562-.339844-3.082031-.570312c-3.308594-1.21875-2.484376-3.207031-2.539063-3.203125-2.597656.035156-3.554687-2.097656-3.554687-2.097656-2.910157.6875-3.410157-.914063-3.410157-.914063zm-17.695312.882813c-.757813 1.039062-1.703125 1.695312-2.554688 1.738281l6.515625 1.191406c1.222656-.085937 2.425782-.515625 3.410156-1.492187zm-1.765625 4.234374c-2.328125 1.675782-8.8125 5.886719-10.347656 15.367188-2.132813 13.164062 11.441406 19.949219 19.59375 19.949219 11.777343 0 19.300781-5.898438 19.300781-5.898438-19.984375 9.351563-32.144531 1.78125-34.863281-7.214843h-2.992188l2.582031-1.796876c-.117187-.71875-.175781-1.4375-.171875-2.152343.058594-10.597657 9.542969-15.214844 12.371094-17.414063-.6875.003906-1.433594-.058594-2.242188-.207031-1.289062-.238281-2.351562-.449219-3.230468-.632813zm41.394531 3.960938c-.289063.390625-.59375.757812-.914063 1.097656l3.230469.609375c.832031-.128906 1.453125-.414062 1.921875-.753906zm0 0" fill="#231f20"/><path d="m50.414062 7.589844s10.210938 10.335937 1.902344 28.859375c-3.59375 8.003906-12.335937 11.523437-12.34375 11.519531 2.972656-.613281 10.097656-3.070312 14.316406-10.210938 11.167969-18.90625-3.875-30.167968-3.875-30.167968zm-34.269531 17.167968c1.007813.328126 1.488281 1.746094 1.308594 3.390626l7.636719 1.816406c.15625-1.460938-.679688-2.605469-1.40625-3.308594-.035156-.011719-7.597656-1.917969-7.539063-1.898438zm15.621094 1.613282c-.589844-.015625-1.117187.210937-1.117187.210937.507812 1.328125.054687 3.042969.054687 3.042969.1875.507812.730469.492188 1.042969.425781 1.152344-.242187 1.570312-2.789062 1.058594-3.28125-.300782-.289062-.683594-.386719-1.039063-.398437zm3.484375.421875c-.121094 2.136719-.683594 2.910156-.683594 2.910156s.570313.882813 1.726563.535156c1.148437-.347656 1.378906-2.601562.898437-3.082031-.253906-.253906-1.613281-.347656-1.941406-.363281zm4.289062.75c.152344 1.582031-.832031 3.128906-.976562 3.375.140625.5 1.222656.835937 1.5.785156 1.089844-.195313 1.953125-2.664063 1.460938-3.496094-.34375-.574219-1.691407-.652343-1.984376-.664062zm3.917969 2.667969c-.128906 1.125-1.058593 2.328124-1.40625 2.746093-.21875.621094 1.457031 1.914063 2.738281-.488281.535157-1.042969.789063-1.9375-1.332031-2.257812zm-8.648437 2.226562c-2.1875 1.902344.523437 4.605469 2.726562 4.921875 0 0-2.277344.835937-2.179687 2.40625 0 0-5.285157-2.824219-12.363281.3125-6.652344 2.945313-11.097657 7.511719-11.578126 13.535156l4.492188-3.132812c.222656-.542969.488281-1.042969.785156-1.484375 4.257813-6.28125 13.75-6.28125 16.488282-6.042969 4.71875.398437 7.242187-2.136719 7.984374-4.785156.632813-2.261719-3.171874-4.8125-6.355468-5.730469zm12.074218.097656c-.078124.339844-.191406.660156-.332031.964844l5.339844 1.238281c-.160156-.644531-.621094-1.105469-1.09375-1.21875-.117187-.027343-1.605469-.402343-3.914063-.984375zm11.398438 2.9375c-.273438.582032-.609375 1.25-1 1.941406l4.332031.929688c.375-1.066406-.296875-2.113281-.992187-2.296875-.492188-.128906-1.6875-.417969-2.339844-.574219zm-23.691406 9.738282c-3.09375 0-7.011719 1.570312-8.292969 5.023437-.484375 1.292969-.417969 2.523437.179687 3.378906.066407.097657.148438.1875.230469.273438l1.695313-1.046875c-1.050782-2.324219.144531-4.238282 2.539062-5.488282 3.496094-1.820312 5.800782.195313 5.800782.195313l1.746093-1.109375c-.03125-.03125-.058593-.066406-.089843-.097656-.726563-.714844-2.113282-1.128906-3.804688-1.128906zm2.152344 2.335937-1.523438.902344s-.015625-.019531-.046875-.046875c.027344.03125.054687.058594.078125.09375.308594.441406.351562 1.019531.128906 1.628906-.480468 1.289062-1.996094 2.296875-3.449218 2.296875-.714844 0-1.28125-.25-1.597657-.707031-.039062-.054688-.0625-.09375-.0625-.09375l-1.871093 1.21875c.613281.929687 4.339843 1.953125 8.164062-1.324219 1.84375-2.398437.179688-3.96875.179688-3.96875zm-10.035157 6.339844h-.003906c.015625.019531.035156.035156.050781.054687-.019531-.015625-.03125-.039062-.046875-.054687zm-.921875-8.628907-16.242187 11.21875 3.085937-1.066406h7.773438l-1.601563 1.0625c-.21875.578125-.988281 2.601563-.988281 2.601563l1.917969-1.050781.941406-2.613282h2.765625l2.675781-1.097656h-3.554687l-1.886719 1.070312 2.117187-6.515624zm-3.613281 3.757813-1.328125 1.910156c-.417969 1.132813-1.140625 3.109375-1.242188 3.386719h-3.355468l-2.578125.484375zm39.054687.8125c-2.0625 0-4.007812 1.214844-4.703124 3.082031-.328126.882813-.253907 1.421875.089843 1.796875l1.425781-.957031s.242188.417969 1.152344.703125c1.550782.484375 1.8125 1.078125 1.8125 1.078125l-1.40625.972656c-.003906.015625-.003906.027344-.011718.042969-.238282.648437-1.011719.929687-1.640626.929687-.917968 0-1.550781-.429687-2.027343-.953124l-1.863281 1.921874 1.960937-.304687c1.941406 1.066406 5.371094-.023437 4.988281-2.601563l1.460938-.96875c-.296875-.441406-.863282-.71875-1.554688-.921874l-.617187-.179688c-.328125-.109375-.804688-.261719-.882813-.589844-.007812-.023437-.015625-.050781-.011718-.039062l-.058594.042968-1.296875.863282c-.234375-2.816406 3.03125-3.285156 4.34375-2.730469l1.785156-.433594c-.746094-.460937-1.90625-.753906-2.945313-.753906zm-20.445312.050781-3.410156 9.175782 2.023437-1.113282h3.246094l1.34375-.90625h-3.1875l.007813-.019531-.007813.015625-1.28125.753906 1.257813-3.351562h2.9375l1.445312-1.003906h.003906-3l-1.320312.71875 1.210937-3.269532h3.402344l1.191406-.996094v-.007812h-5.863281zm7.773438 0-3.414063 9.171875 1.972656-.941406 1.207031-3.292969h2.105469l-1.261719.714844-.003906.003906 1.214844 3.519532 1.574219-.800782-1.472657-3.429687c1.78125-.175781 2.792969-.765625 3.378907-2.035157.542969-1.179687-.675781-1.710937-.675781-1.710937l-1.101563.871094c.238281.167969.335937.445312.167969.894531-.371094 1-1.40625 1.144531-2.285156 1.144531h-.257813l-.046875.027344-1.28125.71875 1.421875-3.832031h2.074219c1.019531 0 1.308594.175781 1.308594.175781l1.175781-.867187c-.46875-.222657-1.082031-.335938-1.800781-.335938h-4.003907zm-14.292969 3.984375c-.445313.164063-1.433594.507813-2.566407.746094-.027343.035156-5.265624 4.011719-5.773437 4.398437.003906-.003906.003906 0 .003906 0l3.457031-1.058593s2.65625-2.054688 4.878907-4.085938zm28.421875 1.320313v.019531c0-.007813 0-.011719 0-.019531zm.003906.222656v.003906zm-50.921875 2.648438c.488281 1.929687 1.429687 3.644531 2.792969 5.082031l1.429687-3.800781c-.179687-.421876-.332031-.847657-.457031-1.28125zm42.601563.625c.003906 0 .003906 0 .007812.003906-.003906-.003906-.003906-.003906-.007812-.003906zm-37.191407 2.203124-1.113281 2.808594h.027344l2.617187-1.335937h38.449219l4.113281-1.472657zm41.429688 2.535157c-.015625.007812-.03125.011719-.046875.015625.015625-.003906.03125-.007813.046875-.015625zm-.261719.089843c-.042969.011719-.085938.023438-.128906.035157.042968-.011719.085937-.023438.128906-.035157zm-1.160156.175782c-.011719.003906-.019532.003906-.027344.003906.007812 0 .015625 0 .027344-.003906zm-40.171875 1.449218c5.277343 3.3125 14.109375 3.914063 25.871093.136719-6.808593 1.441407-12.292968 1.441407-17.25.722657-1.238281-.179688-2.339843-.472657-3.335937-.847657zm0 0" fill="#fff"/></svg>