<svg height="109pt" viewBox="0 0 70 109" width="70pt" xmlns="http://www.w3.org/2000/svg"><path d="m34.8125 108.410156h-34.019531l4.054687-13.824218h34.019532zm0 0" fill="#e00122"/><path d="m57.625.773438c-7.335938-.179688-18.652344 7.742187-20.179688 15.90625-.425781 2.304687.167969 4.039062 1.386719 5.003906.417969.449218.949219.769531 1.605469.90625 2.050781.429687 4.394531-.257813 6.394531-1.804688 1.367188-1.058594 2.570313-2.511718 3.398438-4.277344.550781-1.175781.910156-2.253906 1.085937-3.238281.25-1.378906.167969-2.554687-.160156-3.507812-.195312-.558594-.472656-1.039063-.8125-1.433594-.335938-.390625-.738281-.699219-1.1875-.921875-.597656-.292969-1.238281-.449219-1.917969-.480469.878907-.433593 1.816407-.660156 2.734375-.628906.738282.023437 1.410156.214844 1.992188.539063.007812.007812.023437.011718.035156.019531.210938-.476563.441406-.9375.699219-1.378907 1.234375-2.082031 3.015625-3.730468 4.941406-4.632812zm-20.011719 4.644531c-6.039062 1.113281-13.890625 9.296875-13.726562 16.042969.046875 1.914062.84375 3.191406 2 3.757812.425781.289062.914062.453125 1.472656.453125 1.753906.003906 3.554687-.941406 4.925781-2.511719.9375-1.070312 1.671875-2.429687 2.046875-3.976562.25-1.027344.347657-1.949219.324219-2.761719-.035156-1.140625-.300781-2.0625-.738281-2.769531-.253907-.410156-.566407-.746094-.914063-1.007813-.347656-.253906-.730468-.433593-1.132812-.53125-.542969-.136719-1.097656-.152343-1.652344-.0625.644531-.492187 1.367188-.828125 2.128906-.960937.609375-.101563 1.191406-.066406 1.726563.097656.011719 0 .019531.003906.027343.007812.089844-.414062.203126-.816406.339844-1.214843.640625-1.847657 1.796875-3.441407 3.199219-4.484375zm28.230469 5.960937c-5.027344.132813-11.542969 3.121094-13.761719 7.519532-.785156 1.539062-.734375 2.882812-.117187 3.808593.1875.40625.480468.738281.894531.964844 1.296875.722656 3.039063.710937 4.714844.03125 1.148437-.46875 2.273437-1.25 3.207031-2.324219.625-.71875 1.085938-1.40625 1.410156-2.066406.46875-.917969.652344-1.765625.632813-2.5-.011719-.433594-.101563-.832031-.25-1.179688-.144531-.34375-.351563-.644531-.609375-.890624-.34375-.328126-.75-.566407-1.199219-.726563.695313-.125 1.367187-.097656 1.984375.109375.496094.164062.90625.441406 1.230469.785156.011719.007813.019531.015625.019531.019532.246094-.292969.5-.566407.769531-.824219 1.25-1.195313 2.769531-1.984375 4.234375-2.246094l.007813-.097656c-.929688-.289063-2.007813-.410157-3.167969-.382813zm-43.925781 3.722656c-4.570313 1.5-9.769531 8.582032-8.894531 13.707032.25 1.457031 1.007812 2.347656 1.972656 2.652344.359375.179687.761718.25 1.195312.191406 1.367188-.1875 2.660156-1.097656 3.550782-2.441406.613281-.917969 1.03125-2.035157 1.152343-3.253907.078125-.8125.054688-1.523437-.050781-2.144531-.15625-.863281-.46875-1.539062-.882812-2.03125-.246094-.289062-.523438-.511719-.820313-.671875-.300781-.15625-.617187-.253906-.945313-.285156-.433593-.046875-.867187.003906-1.289062.128906.449219-.445313.972656-.78125 1.550781-.960937.460938-.144532.917969-.175782 1.347657-.113282.011718.003906.019531.003906.027343.007813.023438-.324219.0625-.648438.128907-.964844.292968-1.480469 1.019531-2.820313 1.996093-3.769531zm18.820312 12.355469c-17.691406 0-32.605469 15.792969-36.066406 32.265625-3.992187 19 7.644531 30.585938 20.785156 30.335938 14.066407-.265625 20.753907-15.304688 21.910157-18.398438l-.132813-.019531c-4.824219 7.941406-12.011719 10.765625-15.15625 10.765625-13.34375 0-13.460937-13.195312-10.605469-23.746094 3.945313-14.589844 10.144532-23.652344 19.1875-23.652344 3.277344 0 7.996094 2.308594 9.046875 12.75l.183594.023438c.867187-2.425781 5.191406-16.382812 5.191406-16.382812-4.292969-2.363282-8.664062-3.941407-14.34375-3.941407zm0 0"/></svg>