<svg height="67pt" viewBox="0 0 70 67" width="70pt" xmlns="http://www.w3.org/2000/svg"><path d="m37.289062.199219c-.015624.039062-.195312.097656-.210937.140625-.070313.195312.050781.347656.070313.488281-.074219.015625-.109376.128906-.140626.140625-.25.085938-.574218-.066406-.835937 0-.140625.03125-.339844.320312-.488281.347656-.324219.066406-.496094-.148437-.769532.070313-.128906.101562-.414062.992187-.484374 1.1875-.078126-.039063-.132813.03125-.210938 0-.078125-.027344-.183594-.238281-.28125-.277344-.636719-.261719-.613281.265625-.90625.488281-.105469.078125-.292969.078125-.421875.140625 0 0-.050781-.207031-.070313-.28125.085938-.074219.316407-.160156.351563-.277343.019531-.078126-.035156-.207032 0-.28125-.0625-.046876-.121094-.039063-.140625-.140626-.128906 0-.292969.03125-.417969 0-.066406.097657-.253906.238282-.277343.351563-.015626.046875.03125.160156 0 .210937-.054688.074219-.324219.128907-.351563.207032-.101563.316406.070313.558594.140625.769531h-.140625c-.101563.03125-.308594.398437-.28125.558594.011719.058593.1875.167969.210937.210937.027344.046875.035157.246094.070313.277344.058594.050781.164063.007812.210937.070312-.125.265626-.113281.382813-.210937.699219-.035156-.023437-.171875 0-.210937 0-.179688-.386719-.226563-.242187-.136719-.835937-.070313-.035156-.21875-.195313-.277344-.210938-.210937-.058594-.496094.058594-.703125 0-.066406-.023437-.109375-.253906-.207031-.28125-.078125-.019531-.335938.054688-.277344.070313-.085937.148437-.1875.292969-.28125.488281-.011719.023438-.132813.050781-.140625.070312-.042969.113282.015625.339844-.070312.421876-.128907.117187-.351563.03125-.484376.136718-.101562.078125-.292968 1.09375-.140624 1.191406.214843.140626.339843.003907.488281-.070312.109375-.058594.046875-.136719.066406-.28125.046875.015625.210937.070312.210937.070312-.039062.210938-.054687.253907-.070312.488282-.074219.015625-.109375.128906-.140625.140625-.207031.074219-.546875-.054688-.765625 0l-.070312.140625c-.113282.070312-.210938.003906-.347657.070312.074219-.375.113281-.589844.207031-.910156-.128906-.054688-.03125-.003906-.070312-.140625-.335938-.023437-.628906-.132813-.835938.140625-.273437.355469-.171874.71875 0 1.050781-.140624.167969-.382812.363281-.417968.628907-.015625.082031.039062.273437 0 .347656-.015625.023437-.316406.0625-.347656.070312-.023438.136719-.019532.308594-.070313.488282.011719.003906.25.046874.277344.070312.078125.0625.066406.292969.140625.351562-.152344-.003906-.933594.066407-1.117188.207032-.175781.132812.089844.84375 0 1.121094-.050781.144531-.273437.292968-.351562.417968-.316406.507813-.546875.890625-.90625 1.328125-.0625.070313-.242188.140625-.277344.28125-.21875.855469.207031.546875.417969.628907.046875.015624.273437.222656.347656.277343-.128906.273438-.445313.707031-.207031 1.121094.039062.074219.234375.113281.277344.207031.046874.101563-.097657.050782-.070313.210938.070313.410156.527344.417968.910156.417968-.042969.015626-.265625.207032-.28125.210938-.671875.199219-.574219-.097656-.835937.558594-.3125-.414063-.546875-.511719-1.1875-.628906-.054688.109374-.128906.136718-.210938.210937.128906.316406.132813.46875.28125.769531-.113281.074219-.335937.171875-.421875.277344-.078125.097656-.050781.269531-.136719.351562-.074218.0625-.195312.015626-.28125.070313-.089843.054687-.210937.261719-.277343.347656.027343.046875 0 .21875 0 .28125.351562.089844.394531.128907.835937.066407-.039062.078124.03125.128906 0 .210937l-.140625.070313c-.148437.230468-.078125.367187-.136719.699218.042969.023438.253907.101563.277344.140625.195313.269531.300782.5.488282.769531-.136719.089844-.507813.25-.558594.417969-.035156.121094.035156.226563 0 .347657.183594.050781.507812.113281.699218.210937.042969.019531.148438.191406.210938.210937.121094.03125.222656-.035156.347656 0-.039062.160157-.078125.3125-.140625.558594-.171875.007813-.195312-.136718-.417969-.070312-.042968.011718-.144531.175781-.207031.210937.265625.496094-.035156.359375.695313.417969.066406.1875.144531.398438.210937.558594h.070313c.054687.296875-.09375.398437-.070313.699218.015625.25.238281.757813.277344.980469.03125.160157-.054687.332031 0 .488281.011719.027344.125.0625.140625.140626.578125-.207032.175781.117187.558594-.351563.078125.039063.125-.03125.210937 0 .019531.007813.164063.199219.207031.210937.300782.066407.347657-.128906.628907 0 .308593.140626-.03125.347657-.070313.488282-.019531.078125.027344.203125 0 .28125.515625.367187.707032.582031 1.464844.558594.039062-.097657.070312-.257813.140625-.351563.054687-.074219.226563-.078125.28125-.136719v.765625c.015625.085938.40625.5625.488281.699219.1875-.011719.363282 0 .558594 0 .023438-.042969.097656-.269531.140625-.277344.625-.140625.792969.542969 1.117187.628906.199219.050782.308594-.039062.484376-.070312.070312.082031.105468.3125.210937.347656.078125.027344.207031-.039062.28125 0 .011719-.074218.128906-.109375.140625-.136718.039062-.121094-.039062-.230469 0-.351563-.066406-.011719-.375-.019531-.492188-.070313-.121093-.054687-.171874-.382812-.277343-.417968h-.140625c-.039063-.078125.039062-.207032 0-.28125.050781-.074219.167968-.191406.207031-.277344.09375.082031.289063.09375.351563.207031.035156.066407-.023438.207031 0 .28125.027343.105469.21875.191407.28125.28125.128906-.027343.28125.03125.417968 0 .238282-.058593.296875-.335937.628906-.351562.378907-.015625.734376.347656 1.257813.210937.355469-.097656.265625-.554687.484375-.699218.246094-.164063.589844-.042969.910156-.140626.078125-.027343.199219-.171874.277344-.210937 0-.058594-.027344-.226563 0-.277344.039062-.078125.164062-.046875.210938-.140625.328124.105469.742187.335938 1.117187.140625.089844-.046875.132813-.296875.210937-.351562.070313-.054688.199219-.027344.28125-.066407.066407-.039062.207032-.246093.273438-.28125.167969-.085937.332031-.078124.492188-.140624 0 0 .089843-.328126.070312-.417969-.027344-.109375-.261719-.203125-.28125-.28125-.050781-.203125.089844-.175781.070312-.347657.097657-.074218.140626-.179687.210938-.28125.269531.039063.582031.121094.835938 0 .152343-.074218.105468-.230468.210937-.347656.136719-.164062.457031-.300781.625-.421875-.027344-.226562-.097656-.453125-.066406-.628906.027343-.15625.277343-.304687.347656-.417969.089844-.152344.066406-.261718.140625-.417968-.023438-.019532-.203125-.117188-.210938-.140626-.03125-.082031.039063-.136718 0-.210937.558594-.394531.660157-.605469 0-.976563.414063-.21875.773438-.4375 1.1875-.628906-.03125-.09375 0-.253906 0-.351562-.082031-.039063-.203124-.183594-.28125-.210938-.277343-.085937-.449218.011719-.625-.136718-.074218-.066407-.042968-.234376-.070312-.351563-.15625.054687-.105469-.195313-.140625-.277344.011719 0 .390625.023438.28125.066407.449219-.050782 1.230469-.105469.835937-.695313-.035156-.054687-.261718-.085937-.28125-.140625-.039062-.140625.125-.335938.070313-.558594-.042969-.179687-.304687-.214844-.347656-.28125-.144531-.21875-.207031-.28125.070312-.417968-.035156-.480469-.058593-.460938.207031-.699219.015626-.015625.191407 0 .210938 0 .011719-.078125.007812-.402344.070312-.492188l.417969-.207031c-.09375-.292969-.207031-.574219-.140625-.769531.019532-.058594.199219-.226563.210938-.28125.027344-.160157-.09375-.101563-.070313-.207031-.078125.015624-.273437.070312-.28125.070312-.171875.585938-.105469.789062-.484375.277344-.1875.023437-.164062.089844-.28125.140625 0 0-.007812-.441407 0-.558594.558594-.128906.347656-.035156.628906-.421875.0625.046875.136719-.027344.210938 0 .070312.03125.085938.242188.136719.28125.324219.230469.757812.070312 1.050781 0-.035156-.136719.035156-.289062 0-.417969-.027344-.082031-.257812-.246093-.28125-.351562-.019531-.078125-.039062-.382813.070312-.347657v-.140624c-.015624-.042969-.203124-.1875-.210937-.210938-.015625-.039062.019531-.171875 0-.207031.519531-.230469.585937-.269531.839844-.769531l.136719-.140626c.023437-.152343-.121094-.269531-.066407-.488281.023438-.125.257813-.273437.277344-.421875.019531-.15625-.117187-.324218-.070313-.558594.03125-.140624.316407-.375.347657-.488281.042969-.152343-.023438-.335937 0-.488281-.457031-.269531-.433594-.15625-.488281-.839844.113281-.074218.042968-.0625.070312-.210937h.140625c.007813.140625-.011719.351562 0 .558593.011719 0 .386719-.011718.277344-.066406.027343-.085937.140625-.359375.210937-.421875.007813-.011719.003906-.195312 0-.210937-.027344-.113282-.207031-.25-.277344-.347656.054688-.09375.15625-.195313.207032-.28125.050781-.082032.195312-.292969.210937-.347657.074219-.332031-.136719-.609375-.140625-.769531-.011718-.28125.171875-.421875.140625-.769531l-.140625-.207031c-.160156-.773438-.035156-.65625-.765625-.839844-.035156.140625-.109375.398437-.140625.558594-.136718.035156-.085937-.0625-.140625.070312-.242187-.011719-.554687-.058594-.699219-.070312.03125-.535157-.003906-.726563-.136718-1.1875-.203125-.046876-.550782-.238282-.839844-.140626-.050781.015626-.132812.171876-.210938.210938 0 .160156.027344.324219 0 .488281h-.136718c-.070313-.148437 0-.222656-.070313-.351562-.097656-.171875-.449219-.320313-.488281-.558594-.070312-.394531.191406-.40625.140625-.769531-.015625-.097656-.613281-.890625-.699219-.90625-.386718-.085938-.445312.179687-.628906.277344-.226562.121093-.488281.183593-.699219.28125.113281.457031.382813 1.3125-.488281 1.117187-.308594-.070313-.21875-.28125-.347656-.558594-.019532-.046875-.199219-.09375-.207032-.140625-.066406-.320312.167969-.601562 0-.90625-.101562-.179687-.355468-.125-.5625-.210937zm-20.804687 8.878906c-.039063.0625-.160156.019531-.207031.066406-.101563.101563-.003906.355469-.070313.492188-.066406.121093-.4375.300781-.699219.207031 0 0-.132812-.371094-.347656-.417969-.203125-.042969-.464844.066407-.558594.070313l-.070312.558594-.351562.417968.210937.070313c.136719.207031.152344.292969.277344.5625-.074219-.035157-.199219.023437-.277344 0-.238281-.085938-.5-.792969-.769531-.910157-.339844-.152343-.925782-.136718-1.324219-.210937-.074219.097656-.179687.140625-.28125.210937.003906 0 0 .199219 0 .210938.089844.019531.113281.171875 0 .136719-.015625-.003907-.058594-.117188-.070313-.136719-.191406 0-.433593.003906-.625 0-.085937.457031-.28125.667969-.492187.976562-.082031-.066406-.195313-.007812-.277344-.070312-.027343-.019531-.132812-.257812-.140625-.277344.46875-.132812-.785156.023438-.277344.070313-.113281.03125-.195312 0-.28125.066406l-.417968.492187c-.109375.191407-.050782.566407-.28125.699219-.101563.058594-.402344.054688-.488282.066407-.339843.902343-.292968.304687-.835937.5625-.089844.039062-.132813.28125-.210937.347656-.070313.054687-.203126.027344-.277344.070312l-.070313.140625c-.304687.195313-.59375.128907-.910156.140625-.039063.097656-.066406.300782-.136719.417969-.121094.1875-.371094.15625-.558594.28125-.242187.152344-.808593 1.058594-.976562 1.117187-.023438.007813-.296875-.078124-.421875-.070312-.257813.015625-.695313.152344-.90625.210938 0 .367187.03125.617187.070313.90625-.160157-.039063.023437.078124-.140626.070312l-.140624-.140625c-.234376-.0625-.503907.164063-.558594.28125-.113282.242187-.015625.457031 0 .699219.121094 0 .304687-.039063.421875 0-.066407.800781.019531.808594-.699219.769531-.019531.042969-.171875.175781-.210938.207031.082032.277344.0625.402344.140626.699219-.03125-.003906-.300782.054687-.417969.070313 0 0 .03125-.363282-.699219.140624.101562.773438-.253906 1.039063-.140625 1.886719-.203125.117188-.4375.296875-.625.417969.023437.125-.027344.226562 0 .351562.035156.175782.25.40625.277344.628907.027343.242187-.003907.449219-.070313.628906 0 .003906-.140625.070313-.140625.070313-.078125.433593.097657.949218.140625 1.328124.085938.027344.179688-.003906.210938.070313s-.039063.203125 0 .277344c-.050782.0625-.238282.140625-.28125.210937-.226563.367188-.007813.699219-.070313 1.117188 0 0-.121093.0625-.136719.070312v.140625c-.019531.109375-.089843.34375 0 .558594.015626.042969.167969.101563.207032.140625v.140625c.722656.050781.730468.054687 1.117187-.421875.054688.019531.203125.078125.210938.070312-.03125.101563-.132813.234376-.140625.28125-.023438.101563.070312.417969.070312.417969.03125.023438.195313.101563.210938.140625.050781.164063-.015625.386719 0 .558594-.640625-.296875-1.058594-.234375-.769532.558594.035157.097656-.007812.160156.070313.210937.125.082031.320313-.003906.488281.070313.042969.019531.164063.269531.210938.28125.449218.082031.628906-.375.765625-.632813.078125.039063.191406.136719.28125.140625-.242188.484375-.148438.414063 0 .839844-.015625.007812 0 .191406 0 .210938-.039063-.101563-.078125.179687-.070313.207031.089844.417969.664063.378906 1.046875.351562-.023437.035157.011719.167969 0 .207031-.074219.1875-.53125.390626-.699219.492188.042969.117188-.042968.230469 0 .351562.023438.066407.410157.394532.488282.414063.289062.070313.800781-.109375.976562-.207031.066406-.039063.183594-.265625.28125-.277344.222656-.039062.300782.085938.488282.136719-.003907 0 0 .199219 0 .210937-.871094.097656-1.097657.3125-.628907.976563.375-.09375.464844-.042969.839844-.136719.027344.226562.089844.679688.277344.769531.128906.054688.34375-.023437.488281 0 .742188.097657.761719.417969 1.257812-.28125.359376.039063.578126.101563.835938 0l.140625-.140625c.234375-.03125.472656.125.628906.140625.199219.011719.269531-.070312.417969-.070312.046875-.175781.078125-.332031.140625-.558594-.109375-.089844-.222656-.132813-.347656-.210937v-.140626c.230469-.109374.492187-.277343.695312-.347656.242188-.082031.613281-.113281.839844 0l.140625.136719c.359375.054687.539062-.167969.765625-.207031.15625-.03125.414063.058594.558594 0 .214843-.09375.203125-.527344.351562-.699219.152344-.183594.503907-.269531.695313-.421875-.0625-.167969.210937 0 .210937 0 .097657.636719-.007812.53125.628907.632812.105468-.199218.277343-.625.558593-.632812.121094 0 .039063.097656.207031.070312.035157.097657-.035156.25 0 .351563.015626.035156.175782.136719.210938.210937.078125-.03125.199219.019532.277344 0 .21875-.0625.335937-.570312.421875-.769531.78125-.03125.617187.039063.90625-.488281.3125.039062.472656.019531.769531 0 .015625-.078125.128906-.113281.140625-.140625.050781-.152344-.054687-.335937 0-.488281.039063-.128906.335937-.246094.417969-.351563.089844-.121093.101562-.324219.207031-.421875.207031-.183594.527344-.191406.628906-.484375.054688-.15625-.03125-.328125 0-.492187.015625-.082032.203125-.335938.210938-.417969.050781-.535156-.257813-.582031-.558594-.769531-.09375.121094-.1875.230468-.28125.347656.175781.035156-.207031.140625-.207031.140625.0625-.375-.054688-.367187.347656-.628906.160156-.105469.265625-.09375.417969-.210938.046875-.035156.085937-.183593.140625-.207031.238281-.117188.527344-.007812.769531-.140625.109375-.0625.050781-.28125.136719-.347656-.109375-.203125-.023438-.234375-.207032-.351563-.105468-.066406-.214843-.082031-.351562-.140625.074219-.050781.125-.246093.210938-.277343.199218-.082032.402343.019531.558593-.070313.136719-.082031.046875-.21875.140625-.351563.058594-.085937.292969-.128906.347656-.207031.0625-.101562.320313-.855469.28125-1.050781-.027343-.109375-.242187-.199219-.28125-.277344-.074218-.164062-.015624-.277344-.070312-.492187.09375-.003907.101562-.128907.140625-.136719.148437-.039062.199219.117188.277344.136719.425781.097656.515625-.152344.699219-.277344-.035157-.300781-.078126-.667969-.070313-.910156-.332031-.167969-.46875-.0625-.488281-.558594-.019532-.480469.238281-.449219.28125-.628906.03125-.144531-.070313-.390625-.070313-.417969-.054687-.617188.167969-.679688 0-1.257812.09375-.035157.25 0 .347657 0 .210937-.449219.183593-.265626.070312-.769532-.09375-.03125-.21875-.019531-.277344-.070312-.15625-.144532-.296875-.402344-.421875-.558594.304688-.242188.515625-.480469.839844-.699219-.039063-.121093.035156-.230469 0-.351562-.015625-.039063-.195313-.207031-.210937-.277344-.066407-.304687-.03125-.5-.070313-.769531.078125 0 .382813.050781.558594.070312 0 0 .085937-.324218.070312-.421875-.003906-.035156-.332031-.890625-.347656-.90625-.070313-.066406-.277344-.09375-.351563-.140625.105469-.324218.34375-.902344-.066406-1.046875-.121094-.046875-.234375.039063-.351562 0-.050782.128907-.085938.25-.140625.347657-.347657.609374-.058594.039062-.347657.140624 0-.128906.03125-.300781 0-.421874.023438-.011719.136719-.054688.140626-.066407.03125-.105469.070312-.089843.140624-.140625-.058593-.152344-.121093-.3125-.140624-.421875-.125.0625-.5625.242188-.699219.210938-.015625-.003907-.175781-.199219-.210938-.210938-.078125-.019531-.199219.03125-.277343 0-.054688.054688-.21875.328125-.277344.351563-.078125.023437-.210938-.039063-.28125 0 .246094 0-.136719-.90625-.140625-.910156.359375-.132813.375-.171876.628906-.347657-.03125-.121093 0-.296875 0-.421875-.304687-.058594-.367187-.097656-.765625-.066406-.089844-.183594-.070312-.164062-.210938-.28125-.214843.132812-.242187.21875-.558593.347656-.082031.710938-.039063.703125.558593.699219-.144531.292969-.117187.402344-.210937.769531-.171875-.230468-.425781-.492187-.695313-.628906h-.070312c-.121094-.242188-.035156-.582031-.070312-.839844.148437-.027344.128906 0 .210937-.066406.101563-.097656.339844-.171875.417969-.28125.03125-.046875.054687-.292969 0-.210938-.023438-.011718-.101563-.257812-.140625-.277343-.332031-.171875-.835938.066406-1.117188 0-.199219-.050781-.300781-.496094-.488281-.558594zm43.214844.90625-.140625.070313c-.078125.121093-.03125.1875-.070313.351562-.316406-.085938-.449219-.058594-.765625-.140625-.425781.914063-.273437.65625-1.328125.699219l-.347656.140625c-.054687.007812-.125-.0625-.070313-.070313-.097656-.046875-.253906.039063-.347656 0-.089844-.039062-.105468-.484375-.492187-.351562-.007813.003906-.167969.265625 0 .210937 0 0 .058593.34375.070312.417969-.316406.226562-.265625.148438-.484375.488281-.207031-.058593-.285156-.046875-.421875-.136719-.261719-.179687-.121093-.332031-.070312-.28125.027343-.15625.207031-.148437.140625-.417968-.015625-.066406-.242188-.152344-.28125-.210938-.058594-.085937-.035156-.167968-.070313-.28125-.019531.007813-.246093-.050781-.34375-.066406-.03125.34375-.0625.703125 0 1.117188-.171875.015624-.609375-.007813-.839843.070312-.101563.03125-.316407.335938-.417969.417969-.089844-.039063-.261719 0-.351563 0-.03125-.113281-.042968-.238281-.070312-.417969-.195313-.050781-.476563-.238281-.835938-.140625-.046875.011719-.1875.199219-.210937.210937h-.140625c-.503906.492188.277344.605469.5625.765626.085937.050781.1875.226562.277344.28125-.117188.078124-.191407.128906-.277344.210937-.308594-.21875-.648438-.472656-1.1875-.28125-.117188.039063-.234375.246094-.351563.28125-.132812.035156-.285156-.027344-.417969 0-.070312-.277344-.226562-.828125-.558593-.839844-.109375-.003906-.203125.109375-.351563.140625-.015625.074219-.128906.109375-.140625.140625-.0625.183594-.054687.488281-.066406.628907-.511719.128906-.859375.277343-1.464844.347656-.105469.277344-.171875.460937-.28125.699218h-.140625v-.140624c-.117187-.335938-.457031-.1875-.695312-.136719-.089844.53125-.226563.640625-.417969 1.046875-.597656-.199219-.464844-.1875-.910156 0 0 .125.03125.292968 0 .417968l.210937.070313c-.003906 0 0 .199219 0 .210937-.355468-.054687-.550781-.011718-.839844 0-.023437.15625-.191406.136719-.136718.417969 0 .015625.21875.273438.207031.28125-.199219.082031-.296875.558594-.347656.769531-.578125.144532-.851563.128907-1.257813.417969.023438.15625-.054687.339844 0 .488281.046875.132813.398438.234376.488282.351563.109374.136719.136718.464844.28125.558594.160156.101562.3125-.023438.417968 0 .015625 0 .074219.128906.140625.140625-.003906.003906-.125.414062-.070312.417968-.464844-.050781-.601563-.046874-1.046875.070313.027344-.328125.109375-.800781-.210938-.910156-.078125-.027344-.207031.035156-.277344 0-.019531.074219-.132812.109375-.140624.140625-.113282.324218.148437.453125.070312.769531-.046875.167969-.996094.953125-1.1875 1.1875.082031.078125.035156.132813.070312.28125.167969.042969.449219.171875.628907.207031-.804688.199219-1.199219.484375-.839844 1.257813-.242187.175781-.84375.824219-.765625 1.257812.011719.097657.253906.210938.277344.28125.027344.078125-.035156.207031 0 .28125-.152344.085938-.941406.671875-.976563.769531-.050781.121094.027344.285157 0 .417969.027344.007813.226563.039063.277344.070313.054687.03125.027344.183594.070313.207031-.109376.191406-.4375.4375-.488282.628906-.078125.292969.128906.820313-.140625.910157-.15625.050781.210938.417968.210938.417968v.070313c.050781.027343.179687.242187.207031.28125.074219.101562.121094.132812.210938.210937-.148438.214844-.507813.578125-.347657 1.046875.015625.050781.171875.136719.207031.210938.199219-.035157.347657-.066407.492188-.070313v.699219c.011719-.152344.003906.730469.070312.835937.039063.074219.335938.082032.417969.140626.046875.035156.074219.238281.136719.28125.160156.097656.480469.160156.628906.210937 0 .179687-.0625.527344 0 .695313.074219.207031.410156.1875.628906.28125.070313-.101563.199219-.175782.28125-.28125.0625-.082032.089844-.195313.140626-.277344.054687.167968.203124.660156.347656.769531.242187.1875.5.113281.835937.070313-.03125.046874.011719.15625 0 .207031-.019531.074219-.289062.292969-.347656.351562.0625.089844.101563.257813.140625.347657.226562 0 .425781-.027344.695312 0 .109376.011718.28125.199218.558594.140624.0625-.015624.21875-.257812.28125-.277343.078125-.03125.203125.027343.277344 0 .402344.566406.140625.59375.980469.765625.230469-.332032.441406-1.042969 1.117187-.90625.039063.003906.203125.261718.277344.277344.257812.054687.402344-.148438.699219-.066407.066406.015625.144531.238281.207031.277344.109375.066406.226562 0 .347656.066406.070313.042969.082032.238281.140625.28125.121094.089844.984375.425781 1.257813.351563.121094-.035156.195312-.3125.351562-.351563.371094-.089843.542969.160157.90625.070313.246094-.0625.402344-.546875.488282-.765625.957031.128906.640624.019531 1.1875-.351563.109374-.078125.246093-.0625.347656-.140625.0625-.046875.136718-.257812.210937-.277343.28125-.09375.617188.070312.90625 0 .125-.035157.25-.21875.351563-.28125-.023438-.117188-.078125-.3125-.070313-.351563-.167969-.074219-.34375-.207031-.492187-.277344.238281.019531.558594.089844.699218.070313.25-.039063.867188-.515625.910157-.769532.03125-.226562-.324219-.503906 0-.628906.171875-.066406.441406.027344.625 0 .167969-.027344.480469-.222656.628906-.28125-.03125-.089844 0-.25 0-.347656-.472656-.226562-.566406-.242188-1.046875.070312l-.070312.140626c-.246094.039062-.195313-.128907-.347657-.140626.015625-.109374.074219-.328124.070313-.347656.550781.050782.820312.050782 1.117187-.28125.527344-.59375.230469-.765625-.421875-.980468.039063-.078126-.03125-.128907 0-.207032s.253906-.203125.28125-.28125-.03125-.203125 0-.28125h.140625c.011719.007813 0 .253906 0 .28125.089844.046875.164063.046875.207031.140625.375-.125 1.003907-.375 1.046876-.769531.0625-.597656-.664063-.582031-1.046876-.558594.164063-.398437.214844-.617187.140626-1.117187.167968-.0625.242187-.035157.417968-.070313.015625-.078125.128906-.113281.140625-.140625.125-.371093-.015625-.355469.210938-.628906.085937-.109375.238281-.1875.347656-.28125-.015625.0625-.136719.242187-.140625.28125-.035156.230469.132812.289063.070312.488281-.023437.070313-.292968.226563-.347656.28125.03125.089844 0 .246094 0 .347656.339844.066407.308594.316407.699219-.070312.121094-.125.066406-.230469.136719-.417969.066406.042969.207031-.03125.28125 0 .054687.023438.117187.292969.140625.347657.273437-.132813.636719-.164063.765625-.417969.03125-.0625.214844-.992188.210937-1.046875-.011719-.117188-.191406-.226563-.140625-.492188 0 0 .316406-.550781.351563-.628906-.246094-.066406-.300781-.152344-.5625-.207031.039062-.027344-.039063-.1875 0-.210938.101562-.0625.246093-.046875.351562-.070312-.003906-.078125-.046875-.421875 0-.558594.015625-.058594.226563-.167969.277344-.210937-.164063-.347657-.203125-.546876-.347656-.90625.148437-.074219.28125-.050782.417969-.140626.054687-.039062.144531-.257812.210937-.28125.21875-.089843.429687-.003906.625-.070312.128906-.042969.21875-.210938.421875-.207031.429688.003906.519531.445312.628906.765625.0625-.035156.234375-.140625.277344-.136719-.027344-.375.019531-.527344.070312-.839844.015626-.082031-.066406-.179687-.070312-.140625v-.207031c.242188-.191406.457031-.375.699219-.5625-.027344-.132813.035156-.289063 0-.417969l-.140625-.140625s-.0625-.125-.070313-.140625c-.226562.035156-.484375.140625-.699219.070313-.03125-.007813-.148437-.183594-.207031-.207031.164063-.265626.207031-.363282.417969-.5625-.09375-.367188-.335938-1.402344-.277344-1.746094.042969-.273438.472656-.480469.558594-.699219.199219-.550781-.175781-1.820313-.492188-1.957031-.328124-.144532-.714843.082031-1.042968-.070313-.105469-.050781-.074219-.253906-.140625-.347656-.144531-.199219-.4375-.132813-.628907-.28125-.222656-.167969-.460937-1.027344-.699218-1.117187-.074219-.027344-.148438.042968-.207032 0-.128906.695312-.105468.667968-.769531.839843-.050781-.09375-.066406-.25-.140625-.351562-.054687-.074219-.328125-.136719-.347656-.210938-.082031-.261719.148438-.398437.070312-.695312-.03125-.105469-.273437-.214844-.351562-.28125 0 0 .0625-.132813.070312-.140625.171876.011718.398438-.054688.558594 0 .140625.046875.242188.375.421875.421875.882813.222656.699219-.429688.347657-.699219-.238282-.183594-.441407-.257812-.699219-.421875zm-25.816407 18.515625c-.054687.007812-.105468.039062-.15625.007812-.03125.058594-.214843.109376-.277343.140626.003906.039062 0 .910156 0 .910156-.035157.050781-.175781.082031-.210938.140625-.027343.042969-.03125.316406-.066406.347656-.109375.085937-.175781.035156-.351563.070313.085938.042968-.164062.082031-.210937.070312-.03125-.011719-.066406-.121094-.140625-.140625.050781-.367187.140625-.777344-.207031-.910156-.140625-.054688-.160157.097656-.347657.070312-.058593-.011719-.222656-.199219-.28125-.210937-.550781-.121094-.789062.25-1.046874.421875-.070313-.046875-.132813.027343-.210938 0-.105469-.042969-.179688-.304688-.277344-.351563-.246094-.117187-.863281-.066406-1.117187.070313-.332031.179687-.15625.929687-.347657 1.257812-.03125.050781-.484374.417969-.558593.488281-.082031-.074218-.34375-.394531-.417969-.417968-.730469-.210938-1.175781 1.042968-1.539062-.277344-.039063-.007812-.265626-.109375-.417969-.070312l-.070313.136718c-.230468.152344-.421875.453125-.070312.628906.058594.027344-.097656.078126-.070313.140626-.152343.039062-.335937.167968-.488281.140624-.175781-.035156-.15625-.34375-.558594-.28125-.097656.019532-.582031.480469-.625.492188-.15625.03125-.480468-.046875-.699218-.070312l-.070313.210937c-.550781.140625.046875-.285156.140625-.351563-.019531-.105468-.074219-.324218-.070312-.351562-.28125-.039062-.363282-.027344-.628907-.066406-.019531.089844-.082031.09375-.140625.136718.074219.285157.070313.40625.140625.632813-.175781.082031-.414062.039063-.488281.210937-.070312.136719-.058594.523438-.070312.625-.140626-.042968-.140626.113282-.28125.070313-.089844-.027344-.140626-.308594-.277344-.347656-.363282-.109375-.695313-.023438-1.046875-.070313-.058594.703125-.382813 1.15625-.699219 1.609375-.03125-.027343-.175781 0-.207031 0-.148438-.3125-.128907-.25-.210938-.703125-.117187-.03125-.109375.054688-.140625-.066406-.070312.035156-.203125-.027344-.277344 0-.035156.007812-.070312.113281-.140624.136719 0 .003906.007812.328125.070312.210937-.019531.066406-.070312.28125-.070312.28125-.160157.023438-.339844-.054687-.488282 0-.101562.03125-.183594.304688-.28125.347656-.507812.222657-.953125-.070312-1.324218-.207031-.148438.199219-.253907.238281-.351563.554688.003906-.050781.027344-.46875 0-.554688-.011719-.042969-.128906-.054687-.136719-.140625-.101562.035156-.253906-.039062-.351562 0-.054688.015625-.183594.152344-.277344.207032-.066406-.042969-.140625-.242188-.210938-.277344-.101562-.054688-.824218-.1875-.976562-.140625-.011719.003906-.058594.125-.070312.140625-.40625.359375-.195313.273437-.140626.695312l.070313.28125c.003906-.003906.328125-.007812.210937-.070312.078126 0 .195313.007812.277344 0 0 .023437-.007812.277344 0 .28125-.164062-.035156-.113281.101562-.277344.070312-.058593-.011718-.222656-.269531-.28125-.28125-.214843-.042968-.960937.191406-1.117187.28125-.066406.039063-.019531.160156-.070313.210938-.082031.078125-.238281.070312-.347656.140625-.046875.023437-.09375.1875-.140625.207031-.039062.015625-.171875-.019531-.207031 0-.050781-.128906-.105469 0-.140625-.070312-.027344-.058594 0-.21875 0-.277344-.121094-.03125-.039063-.027344-.070313-.140625-.121093 0-.304687.03125-.417968 0-.15625.214843-.328125.507812-.558594.628906-.339844.171875-1.132812.210937-1.328125.488281-.074219.101563.003906.175782-.066406.28125-.125-.046875-.054688.074219-.070313.136719-.179687-.054687 0 .210937 0 .210937.183594.054688.226563-.074218.417969-.070312 0 .007812-.003906.207031 0 .210938-.171875.050781-.15625.023437-.347656.070312.101562.070312-.199219.0625-.210938.070312l-.070312-.351562c-.046875-.027344-.328125.039062-.347657 0-.058593-.113281 0-.425781 0-.558594-.75-.167968-.511718-.121094-.839843.488282-.011719.023437-.207031.203124-.207031.210937-.058594.25.101562.46875.066406.628906-.015625.074219-.183594.140625-.207032.207031-.085937-.035156-.257812 0-.351562 0 .011719-.195312.03125-.277343.070312-.484374-.058593-.050782-.121093-.042969-.136718-.140626-.132813.003907-.488282.070313-.488282.070313-.007812.003906-.199218.054687-.210937.070313-.097656.089843-.042969.386718-.140625.484374-.140625.140626-.414062.085938-.558594.210938-.046875.039062 0 .179688-.070312.210938-.097656.035156-.253906-.039063-.347656 0 .070312-.035157-.140626-.140626-.140626-.140626.011719-.023437.140626-.210937.140626-.210937.246093-.074219.492187-.035156.628906-.207031.011718-.019532.136718-.210938.136718-.210938.027344-.105468-.066406-.417968-.066406-.417968-.664062 0-1.042968.078124-1.398437.558593-.058594.078125-.058594.242188-.140625.277344-.210938.097656-.457032-.027344-.625.070313-.089844.050781-.355469.882812-.28125 1.121093.015625.046875.175781.132813.210937.210938.125 0 .292969-.03125.417969 0-.007812.011719-.085938.132812-.070312.136719-.535157.09375-.550782.210937-.769532.628906-.695312 0-.804687.058594-.976562.5625v.140625c-.140625.109375-.410156.03125-.558594.136719-.339844.238281-.070312 1.214843-.070312 1.816406.304687.082031.738281.226562.839843.488281.027344.078125-.046875.140625 0 .210937-.164062.117188-1.085937.933594-1.117187 1.050782-.066406.21875.050781.367187.070312.558594.089844-.003907.230469.105468.417969.070312.148437-.03125.183594-.21875.277344-.28125.003906 0 .3125.109375.210937.140625.042969.03125.1875.089844.210938.140625.078125.15625.015625.273438.070312.488281-.097656.015625-.105468.132813-.140625.210938-.078125-.039063-.160156-.195313-.210937-.210938-.148438-.050781-.335938.023438-.488282 0-.074218.226563-.3125.644531-.277343.90625.003906.046875.195312.179688.207031.210938.105469.238281-.019531.242187 0 .488281-.089844-.042969-.054688.109375-.207031.070312-.019531-.003906-.082031-.121093-.140625-.136718.277344-.105469-.390625-.105469-.210938-.070313l-.070312.277344c.28125.171875.789062.292969.980468.5625.101563.148437.070313.375.207032.484375.21875.183594.488281.078125.558594.421875.078124.402344-.199219.515625-.140626.839844.03125.175781.351563.277343.421876.417969.050781.109374.132812.503906.136718.558593.03125.316407-.078125 1.097657.070313 1.46875h.070312c.210938.105469.363281.492188.558594.558594h.140625c.035156.03125.023438.183594.070312.210937.15625.078126.328126-.019531.488282.070313.128906.070313.691406.867187.417968 1.117187.347657.273438 1.050782.453126.976563 1.117188 0 0-.183594.289062-.207031.351562.085937-.046874.054687.105469.207031.070313.078125-.019531.097656-.203125.140625-.28125.054688 0 .230469.03125.28125 0 .144531.140625.710938.566406.207031.699219-.050781-.0625-.140625-.253906-.207031-.277344-.082031-.03125-.207031.03125-.28125 0-.035156.066406-.15625.160156-.210938.207031 0 0 0 .253907.070313.140625.050781.160156.03125.113282.070313.28125.140624-.066406.070312.488282.070312.488282.421875-.140626.574219-.175782 1.046875-.140626.011719-.023437.058594-.136718.070313-.136718.0625-.019532.34375.046875.28125.066406.101562.179688.226562.332031.347656.488281-.320313.097657-.695313.109375-.769532.421875-.007812.035156.019532.175782 0 .210938-.042968.070312-.25.128906-.277343.207031-.039063.097656.035156.25 0 .351563.125-.0625.234375-.007813.347656-.070313.128906-.078125.230469-.328125.351563-.421875.234374-.191406.464843-.292969.695312-.488281.164062.234375.355469.566406.558594.769531.085937.085938.375.171875.421875.28125.078125.199219-.085938.257812-.070313.417969l.136719.207031c.105469.515625.03125.386719.210937.773438.078126-.03125.199219.019531.277344 0 .195313-.054688.40625-.367188.5625-.492188.523438.476562.964844.859375 1.8125.421875-.046875.414063-.089844.824219.28125.976563.109375.046874.210938-.019532.277344.070312.046875.066406.175781.550781.210938.628906.789062-.117187 1-.023437 1.535156.28125.105468-.070312.390625-.382812.558594-.351562 0 0-.054688.339844-.070313.421875.050781.03125.390625.226562.417969.277343.058594.109376-.027344.296876 0 .417969.027344.121094.335937.34375.351562.421875.027344.160156-.105468.257813-.140625.417969.191407-.042969.484375-.175781.699219-.136719.195312.03125.34375.328125.488281.417969.109375.070313.222657-.003906.347657.070313.191406.109374.542968.84375.628906 1.117187.265625-.085937.75-.210937 1.046875-.210937.085937-.003907.238281.140624.417969.070312v-.070312c.113281-.058594.125-.222657.210937-.28125.113281-.078126.214844 0 .347656-.066407.210938.691407-.066406.441407.628907.628907.015624-.027344.113281-.203126.140624-.210938.078126-.03125.132813.039062.210938 0 .058594.046875.140625.246094.207031.28125.195313.101562.757813.113281.976563.140625.027344.15625-.054688.335937 0 .488281.109375.296875 1.402344.535156 1.816406.628906.03125.121094-.03125.222657 0 .347657.003906.011719.609375.621093.628906.632812.613282.277344.632813-.199219.90625-.28125.558594-.175781.765625.160157.976563.28125.113281.058594.222656.007813.351562.066407.039063-.101563.113281-.09375.207031-.136719-.054687-.394531-.035156-.605469-.066406-.839844.109375.027344.167969-.039063.277344-.070313.0625.105469.234375.511719.347656.558594.394532.148438.914063-.132812 1.1875-.140625.46875-.019531.53125.152344.769532.351563.652343-.289063.710937-.019532 1.464843-.140625.070313-.015625.378907-.207031.417969-.210938.242188-.039062.480469.09375.628906.070313.066406-.015625.207032-.175782.277344-.210938-.03125-.121094.03125-.226562 0-.347656-.003906-.027344-.695312-1.015625.210938-.769531.03125.007812.15625.199219.210937.210937.140625.023438.214844-.082031.28125-.070312-.078125-.058594.054687-.300782.066406-.347656-.078125-.042969-.027343-.125-.066406-.140626-.125-.0625-.234375-.042968-.351563-.070312.007813-.144531-.074218-.210938-.070312-.28125.019531-.25.441406-.378906.558594-.558594.089844-.140625.050781-.339844.140625-.488281.105469-.179687.925781-.539063 1.253906-.488281.035156.003906.199219.199218.210937.207031.074219.023437.214844-.039063.28125 0 .09375.054687.175782.308594.277344.351563.050782.019531.15625-.039063.210938 0 .058594-.792969.027344-.609376.628906-.628907-.007812.183594.042969.445313 0 .628907-.007812.003906-.199219.128906-.210938.136718.125.472656-.027343.335938.28125.628906-.078124.023438-.109374.128907-.140624.140626-.109376.035156-.238282-.03125-.351563 0 .113281.042968-.265625.066406-.277344.070312-.019531-.050781-.03125-.152344-.070312-.210938-.347657-.515624-.257813-.488281-1.117188-.488281-.046875.136719-.050781.367188-.136719.488281-.082031.101563-.324218.125-.421874.210938-.105469.09375-.0625.066406-.140626.210938.003907 0 0 .199218 0 .210937.046876 0 .238282-.03125.28125 0-.003906.019531.050782.238281.070313.347656-.34375 0 .023437.546875.070313.628907-.230469.179687-.421876.363281-.628907.558593.035157.125.085938.152344.070313.28125.726562.425781.867187.347657 1.253906-.351562.046875.054687.234375.074219.28125.140625.0625.082031.011719.191406.070312.28125.277344.457031.621094.234375.976563.070312-.058594-.53125-.011719-.625.070313-.980468.066406.039062.203124-.03125.28125 0 .101562.042968.195312.378906.34375.417968.527343.132813.605468-.265625.839843-.417968.121094-.082032.222657-.007813.347657-.070313s.242187-.269531.351562-.347656c.054688.023437.152344-.015625.210938 0 .109374.023437.195312.238281.277343.277343.238281.109376.367188.015626.628907 0 .011718-.046874.132812-.195312.140624-.210937.09375-.375-.214843-.5625.070313-.765625.070313.03125.199219-.027344.277344 0 .109375.035156.128906.289062.207031.347656.375.273438.683594 0 .980469-.136718-.011719-.207032 0-.425782 0-.632813-.160157-.0625-.574219-.191406-.628907-.347656-.027343-.082031.035157-.207031 0-.28125.183594.050781.152344-.113281.351563 0 .226563.136719.089844.457031.554687.417969.277344-.019532.53125-.324219.628907-.554688 0 0 .171875-.09375.070312-.140625-.117187-.054687-.25-.277344-.207031-.488281 0-.035156.1875-.117188.207031-.140625.164063-.21875.128907-.390625.210938-.703125-.0625-.046875-.125-.039063-.140625-.136719-.023438 0-.191406.011719-.210938 0v-.207031c.957032.441406 1.0625.046875 1.957032-.210938.019531-.128906.003906-.398437.070312-.5625.027344-.082031.25-.175781.277344-.277344.039062-.140624-.027344-.277343 0-.421874-.0625-.046876-.117188-.042969-.140625-.136719-.09375 0-.265625.035156-.347657 0-.046874-.023438-.113281-.265625-.140624-.28125.066406 0 .164062-.105469.210937-.140625.386719.261718.234375.226562.765625.210937-.015625-.167969.085938-.113281.070312-.277343-.007812-.074219-.203124-.253907-.207031-.28125-.050781-.246094.109375-.3125.136719-.421876.03125-.132812-.035156-.289062 0-.417968.039062-.148438.261719-.289063.351562-.417969-.03125-.050781.007813-.160156 0-.210937-.039062-.160157-.359374-.269532-.488281-.347657.167969-.585937.382813-.773437.488281-1.46875-.058593-.015625-.1875-.136719-.210937-.140625-.417969-.09375-.625.332032-.835937.492188-.039063.023437-.117188.167968-.140626.207031-.03125-.140625-.078124-.476563-.140624-.699219-.015626-.054687-.199219-.222656-.207032-.28125-.070312-.414062.339844-.46875.417969-.765625v-.070312c-.015625.050781-.085937-.207031-.070313-.28125.023438-.113281.570313-1.074219.28125-1.257813-.417968-.261718-.671874.148438-.910156.207032-.042968.011718-.175781-.015626-.207031 0-.019531-.074219-.132813-.109376-.140625-.136719-.078125-.21875 0-.605469 0-.839844.035156.128906.070312-.070313.070312-.070313-.242187-.523437-.191406-.390624-.769531-.347656-.0625.242188-.207031 1.136719-.417969 1.257813-.167968.089843-.398437 0-.558593.070312-.03125.011719-.199219.207031-.210938.207031-.152343.035157-.203125-.085937-.277343-.070312.082031 0-.070313-.207031-.070313-.207031-.019531-.253907.257813-.6875.28125-.839844.03125-.277344-.109375-.511719-.140625-.699219l.070312-.210937c.128907.03125.285157-.039063.417969 0 .324219.109375.214844.734375.765625.492187.550782-.246094.222656-.84375.070313-1.1875-.367188.027344-.523438.023438-.835938.070313.136719-.476563.089844-.425781 0-.84375-.066406-.007813-.230469-.085938-.347656-.136719 0 0-.464844.453125-.351563.488281.300782.09375.136719.890625 0 1.117188-.101562.167969-.441406.273437-.628906.351562.050782-.894531-.027344-.703125.558594-1.257812-.082031-.257813-.0625-.324219-.140625-.5625.039063-.027344.191406-.097657.210937-.136719.0625-.136719-.058593-.207031.070313-.28125 0 0-.128906-.363281-.140625-.417969.070312.042969.207031.023438.28125.070313.042969.027344.09375.195312.140625.210937.074219.023438.335937-.054687.277344-.070312.011719-.042969.195312-.101563.207031-.140625.074219-.210938-.070312-.558594 0-.769532.054688-.152343.433594-.089843.351562-.558593-.027343-.160157-.3125-.316407-.421874-.417969.210937-.457031.210937-.273438.070312-.699219-.101562-.316406-.191406-.652343-.484375-.769531-.765625-.300781-.867187.128906-.769531.769531-.050782.035157-.335938.15625-.351563.207031v.140626h-.136719c-.054687-.1875-.015624-.320313-.140624-.417969l-.070313-.070313c.035156-.035156-.019531-.164062 0-.210937h.070313c.269531-.132813.378906-.398438.558593-.625-.6875-.128907-.6875-.4375-.910156-1.191407.167969-.082031.523437-.34375.703125-.347656.367188-.019531.28125.191406.414062.277344.128907.078125.214844-.011719.351563.070312.085937-.0625.183594-.164062.28125-.210937-.054687-.203125.019531-.34375-.070313-.488281-.011718-.015625-.28125-.140625-.28125-.140625-.066406-.261719.191407-.253907.140626-.558594-.027344-.15625-.273438-.242187-.351563-.351563-.058594-.089843-.015625-.191406-.070313-.277343-.117187-.199219-.425781-.304688-.625-.417969.03125-.136719-.039062-.289062 0-.421875.023438-.074219.265626-.246094.277344-.347656.039063-.390625-.367187-.597657-.628906-.699219-.140625-.058594.195312-.15625.28125-.140625l.140625.140625c.617187.164062.503906-.4375.484375-.769531-.089844-.015625-.097656-.125-.136719-.140625-.339843-.117188-.78125.269531-.980469.351562l-.136718-.210937c.011718-.042969.195312-.101563.207031-.140625.039063-.117188 0-.292969 0-.417969.109375.046875.039063-.113281.210937-.070313.027344.007813.105469.1875.140626.207032.355468.222656.5.050781.765624-.136719-.285156-.710937-.289062-.988281-1.117187-.558594.011719-.007812 0-.199219 0-.210937.277344-.121094.414063-.101563.5625-.347656.015625-.035157.101563-.054688.140625-.070313-.035156-.074219.023438-.203125 0-.28125-.050781-.136719-.316406-.269531-.351562-.417969-.089844-.40625.0625-.707031 0-1.121094.066406.039063.136718-.117187.277343 0 .152344.125.023438.703126 0 .980469.132813-.019531.253907.089844.488281 0 .023438-.011719.050782-.136719.070313-.140625.007813-.0625.199219-.179687.140625-.417968-.003906-.015626-.148438-.160157-.140625-.210938.015625-.101562.3125-.171875.28125-.558594-.019531-.230468-.253906-.160156-.140625-.488281.007812-.019531.183594-.175781.210938-.210937 0 0-.015626-.179688-.070313-.070313-.046875-.023437-.074219-.253906-.140625-.277344-.140625-.054687-.40625 0-.558594 0v-.140625h.070313c.011719-.050781.03125-.320312.070312-.351562.296875-.265625.621094.03125.976563-.070313.042968-.011719.140625-.179687.210937-.210937 0-.058594-.03125-.21875 0-.277344-.234375-.285156-.433593-.441406-.769531-.628906 0-.085938.042969-.347656 0-.417969-.082031-.136719-.222656-.042969-.347656-.140625-.160156-.117188-.230469-.496094-.277344-.699219-.082031-.019531-.113281-.128906-.140625-.136719-.871094-.304687-.546875.707032-.421875 1.046876-.121094.039062-.128906.003906-.210938.070312-.265624.210938-.234374.183594-.625.066406.050782-.082031-.144531-.09375-.070312-.136718.390625-.238282.230469-.6875.210938-1.257813l.207031-.070313c.351562-.621093.066406-.582031-.558594-.5625.046875.703126.148437.503907-.417969.632813-.367187-.535156-.503906-.632813-1.1875-.632813-.027344.058594-.082031.269532-.136718.351563.023437.042969.195312.183594.207031.210937-.039063.023438 0 .296876 0 .347657-.195313.039062-.277344.003906-.417969.070312-.105469-.394531-.179688-1-.351562-1.328125.207031-.164062.339843-.269531.492187-.488281-.058594-.097656-.050781-.253906-.070313-.347656-.046874-.011719-.359374-.050781-.28125 0-.210937.109375-.222656.015625-.351562.207031-.027344.042969-.132812.375-.136719.417969-.078125-.019531-.277343-.070313-.277343-.070313-.042969-.054687-.085938-.171875-.140626-.207031-.078124.050781-.117187-.121094-.140624-.140625.519531-.292969.535156-.199219.417968-.769531-.085937-.011719-.097656-.125-.136718-.140625-.089844-.03125-.328126.058594-.28125.070312h-.140626c-.101562.039063-.09375.308594-.210937.351563-.074219.023437-.207031-.039063-.277344 0-.085937-.324219-.210937-.800781-.488281-.910157-.019531-.007812-.035156-.007812-.054688-.007812zm29.167969 3.363281c-.058593.089844-.242187.164063-.277343.277344-.003907.007813.046874.203125.066406.28125-.074219.015625-.109375.128906-.136719.140625-.183594.0625-.425781.046875-.5625.070312-.050781.652344-.238281.949219-.207031 1.464844-.277344-.519531-.476563-.476562-.90625-.140625-.066406-.078125-.121094-.296875-.210938-.34375-.226562-.128906-1.222656-.0625-1.605468-.140625-.019532.074219-.132813.109375-.140626.140625-.089843.253907 0 .703125 0 .976563-.011718.003906-.140624.070312-.140624.070312-.046876-.105468-.128907-.140625-.207032-.210937.179688-.597657.019532-1.398438-.699218-.90625-.089844.058593-.0625.277343-.140626.347656-.066406.0625-.273437.109375-.347656.136719.050782.199218-.019531.328125.070313.492187.132812.246094.738281.210938.835937.492188.042969.113281-.042968.226562 0 .347656-.023437 0-.191406-.015625-.207031 0-.21875-.199219-.296875-.328125-.417969-.628906-.234375-.035157-.625.011719-.910156-.070313-.023438-.007812-.164062-.203125-.207031-.210937-.265625-.042969-.355469.164062-.628907.070312-.03125-.011719-.070312-.125-.140624-.140625.367187-.210937.335937-.171875.277343-.699218l-.207031-.066407c-.058594.078125-.160156.066407-.210938.136719-.039062.058594-.019531.308594-.066406.347656-.167968.132813-.414062-.027344-.5625.210938-.0625.097656-.179687.664062-.207031.769531-1.351563-.394531-.851563.625-1.675781.628906 0 0-.175782-.0625-.210938-.070312v-.140625c.09375-.03125.25 0 .351563 0-.035157-.019532.058593-.117188.070312-.136719-.070312-.058594-.109375-.039063-.140625-.140625-.285156-.050781-.707031-.175781-.90625-.140625-.132812.023437-.3125.285156-.421875.351563-.261719.148437-.542969.136718-.835937.277343-.054688.023438-.144532.195313-.210938.210938-.234375.042969-.292968-.136719-.492187-.070313-.019531.007813-.117188.183594-.136719.210938-.25.316406-.191406.472656 0 .839844-.160156.039062-.316406.074218-.558594.136718.035156-.074218-.027344-.203125 0-.277344.007813-.027343.183594-.125.210938-.140624-.046875-.121094.042968-.234376 0-.351563-.019532-.039063-.179688-.140625-.210938-.207031-.144531.058594-.300781.046875-.421875.070312-.027343.277344-.105469.765625-.136719 1.046875-.21875 0-.199218-.03125-.417968 0 .035156.097657-.035156.25 0 .347657.035156.109374.378906.21875.488281.28125 0 .011718-.027344.390624-.070313.28125-.042968.070312.03125.128906 0 .207031-.015624.039062-.171874.144531-.207031.210937h-.140625c-.105468-.222656-.152344-.386718-.28125-.558594-.3125-.417968-.257812-.171874-.765625-.351562-.023437-.007812-.121093-.199219-.140625-.210938-.121094-.039062-.234375.042969-.351562 0-.035156.078126-.191406.160157-.207032.210938-.066406.203125.015626.40625-.070312.5625-.140625.242188-.472656.144531-.699219.277344-.269531.15625-.414062.769531-.488281 1.117187-.554688-.261719-.214844-.261719-.765625 0 .023437.121094-.035156.160157-.070313.28125.289063.207031.296876.226563.628907.28125-.027344.007813-.015625.253907-.070313.277344-.082031.035156-.257812 0-.351562 0-.039063.082031-.191406.207031-.207032.28125-.066406.28125.125.570313.140626.765625.007812.140625-.078126.207031-.070313.28125h-.140625c-.144531-.050781-.273438-.449219-.417969-.488281-.226562-.066407-.246093.074219-.417969.070312-.179687.601563-.226562.554688.207032.910157-.140625.125.03125.910156.070312 1.1875-.105468-.105469-.242187-.179688-.347656-.28125.140625 0-.382812-.058594-.210938 0-.082031.066406-.199218 0-.28125.070312v.140625c-.214843.628906.199219.703125.421876 1.257813-.023438.019531.011718.175781 0 .207031-.035157.085937-.371094.1875-.421876.28125-.03125.066406.011719.207031 0 .28125-.011718.0625-.203124.328125-.207031.347656-.035156.132813.03125.285156 0 .417969.125.109375.394531.285156.488281.421875.074219.113281.046876.257812.140626.347656.097656.097656.261718.09375.347656.210937.207031.28125.386718 1.007813.488281 1.398438.105469.023438.246094.003906.351563.070312-.03125.023438-.050782.179688-.070313.210938-.066406.089844-.300781.117188-.351563.207031-.125.214844.027344.761719 0 1.117188.128907.054687.035157.007812.070313.140625.28125.007812.433594.046875.769531 0-.03125.074218.019532.199218 0 .28125-.0625.222656-.46875.378906-.210937.765625.039062.058593.261719.078125.28125.140625.097656.335937-.238281.519531.070312.699218.082031.050782.382813.121094.484375.140626-.027344.25-.140625.578124 0 .839843.027344.042969.199219.09375.210938.136719.042968.167969-.0625.40625 0 .5625.015625.039062.105468.035156.140625.070312.1875.164063.367187.140626.558593.28125.066407.050782.019532.125.070313.207032.273437.441406.644531.195312.976563 0-.039063.488281-.058594.667968-.140626 1.117187.050782.015625.417969.105469.347657.070313.195312-.125.417969-.082032.492187-.351563.015625-.070312-.039062-.214843 0-.277343.035156-.066407.25-.027344.277344-.070313.027344.058594-.015625.152344 0 .210937.011719.042969.203125.1875.207031.210938.027344.109375-.089843.402344-.066406.417969-.042969.011719-.128906.117187-.140625.140625.011719.011718 0 .191406 0 .210937.347656.148438.4375.195313.980469.136719 0 .042969-.03125.332031 0 .347656-.058594.085938-.199219.140625-.28125.210938.023437.066406 0 .210937 0 .28125.101562.039062.09375.113281.140625.210937.378906-.074219.40625-.066406.625-.210937.070312-.042969.304687-.144532.351562-.210938.121094-.179687.027344-.382812.210938-.488281.085937-.050781.246094.027344.347656 0l.136719-.140625c.367187-.085938.234375.03125.492187.070312-.035156.113282 0 .300782 0 .417969-.195312.070313-.398437.144531-.558594.210938.011719.117187.066407.488281.066407.488281.109375.015625.222656.109375.421875.070312.09375-.019531.253906-.222656.351562-.277343.433594-.277344.679688-.109375 1.183594-.28125.03125-.011719.0625-.125.140625-.140625-.03125-.152344.0625-.347656 0-.488282h-.070313c-.128906 0-.257812-.15625-.347656-.207031 0-.128906.027344-.296875 0-.421875.0625-.054687.101563-.210937.210938-.210937h.066406c.128906.125.296875.4375.488281.492187.078125.019532.203125-.03125.28125 0-.085937.253906-.054687.351563-.140625.625.253906.109375.667969.347656 1.046875.140625.339844-.183593.101563-.457031.070313-.625-.035156-.183593.078125-.261719.070312-.351562.464844-.027344.859375-.101563 1.328125-.28125.019531-.011719.046875-.132813.066407-.136719h.140624c.101563-.171875-.007812-.402344.070313-.628906.050781-.152344.285156-.230469.347656-.351563.074219-.140625.007813-.214843.070313-.347656.300781.011719.941406.039063 1.257812-.140625.140625-.085938.214844-.324219.347656-.421875.0625-.046875.136719.027344.210938 0 .453125-.175781.144531-.628906 0-.835937.242188-.066407.691406-.136719.769531-.351563.035157-.113281-.058593-.320313 0-.417969h.070313c.277344-.144531.476562-.421875.695312-.628906.070313.03125.199219-.03125.277344 0 .171875.058594.210938.417969.628906.277344.050782-.015625.132813-.171875.210938-.207032-.066406-.109374-.003906-.257812-.070313-.351562-.03125-.042969-.386719-.195312-.417969-.277344-.03125-.078125.042969-.144531 0-.210937.65625-.175781.78125-.144531.695313-.910157.238281-.148437.464844-.1875.699219-.347656.074218-.050781.058594-.15625.140625-.210937-.050781-.324219-.132813-.761719.140625-.910157.511718-.269531.667968.164063.90625.210938.292968.058594.328125-.109375.488281-.140625-.015625-.167969.085937-.109375.070313-.277344-.003907-.066406-.152344-.222656-.140626-.347656.003907-.035156.203126-.199219.210938-.210937.03125-.085938-.039062-.136719 0-.210938-.113281-.050781-.300781-.144531-.421875-.210938.207031-.441406.179687-.589843 0-1.046874.230469.125.453125.246093.703125.347656-.019531.003906.347656.007812.414062 0 .054688-.117188.269532-.78125.351563-.835938.179687-.128906.441406-.027344.628906-.140625.148438-.09375.058594-.394531 0-.351562.027344-.109375-.039062-.238281 0-.347657.007813-.03125.125-.066406.136719-.140624.554688.042968.632812 0 .980469-.140626.054687-.5.058593-.710937-.277344-.976562-.039063-.027344-.199219-.101562-.210937-.140625-.054688-.152344.023437-.332031 0-.488281.113281-.03125.113281.058594.140624-.070313.113282.050781.230469-.050781.347657 0 .089843.039063.058593.296875.136719.347657.414062.28125.933593.089843 1.046874-.277344.085938-.269532-.035156-.265625-.066406-.488282h-.140625l.070313-.5625c-.246094.015626-.285156.011719-.417969 0-.046875-.121093.042969-.230468 0-.347656-.015625-.046875-.183594-.097656-.210937-.140625-.074219-.121093-.007813-.214843-.070313-.347656.078125-.042969.125-.191406.210937-.210937.042969-.011719.164063.03125.210938 0 .128906-.09375.199219-.4375.347656-.488282.15625-.058594.457032.003906.628906 0 .109376-.378906.234376-.683594.347657-.980468-.050781-.035157-.074219-.242188-.136719-.277344-.140625-.078125-.316406-.074219-.421875-.140625-.410156-.261719.460937-.464844.628906-.628907.066407-.066406 0-.214843.070313-.28125-.078125-.015624-.949219-.191406-.980469-.210937-.035156-.019531-.238281-.546875-.277344-.625.347657-.117187.394531-.1875.628907-.351563-.105469-.09375-.09375-.265624-.210938-.347656-.097656-.074218-.160156-.035156-.277344-.070312 0-.015625-.050781-.257813-.070312-.351563.21875-.101562.375-.171875.558594-.277343-.035157-.101563.035156-.25 0-.351563-.015626-.046875-.183594-.097656-.210938-.136719-.089844-.152344-.148438-.421875-.210938-.5625-.035156.117188-.066406-.210937-.066406-.210937.296875-.171875.078125-.582031-.277344-.554688l-.140624.136719c-.136719.066406-.234376.089844-.351563.140625-.003906.011719-.007813.457031 0 .417969.042969.085937.175781.144531.210937.210937.070313.148438.023438.289063.070313.421875-.15625-.136718-.277344-.210937-.421875-.351562-.117188.042968-.226562-.046875-.347656 0-.085938.027344-.195313.320312-.277344.351562-.121094.039063-.234375-.046875-.351562 0l-.070313-.140625c-.03125.105469-.070313-.265625-.070313-.28125.019532-.015625.207032-.125.210938-.140625.050781-.175781-.082031-.265625-.070312-.351562h-.140626c-.089843.03125-.179687.359375-.277343.421875-.046875.03125-.160157-.015625-.207031 0-.050782.011719-.230469.195312-.28125.210937-.421876.132813-.800782.140625-1.328126.140625-.121093.257813-.113281.25-.210937.628907-.007813 0-.207031-.003907-.207031 0-.015625-.171876-.070313-.5-.070313-.769532.160157-.054687.21875-.035156.417969-.070312-.019531-.3125-.019531-.691406-.140625-1.046875.332031.058593.367187.101562.703125 0l.070312-.140625c.117188-.050782.355469 0 .484376 0-.011719-.066406.097656-.136719.070312-.28125-.050781-.292969-.457031-.558594-.625-.769532-.078125.105469 0 .175782-.070312.28125-.058594.074219-.136719.011719-.210938.070313-.082031.058594-.144531.261719-.210938.347656-.011718-.019531-.191406-.050781-.210937-.070312-.058594-.058594-.039063-.1875-.066406-.277344-.074219-.015625-.109375-.132813-.140625-.140625-.257813-.089844-.402344.09375-.558594.140625l-.070312-.070313c.027343-.421874-.023438-.472656-.070313-.769531-.050781 0-.230469.03125-.277344 0zm0 0" fill="#f66733"/></svg>