<svg height="78pt" viewBox="0 0 70 78" width="70pt" xmlns="http://www.w3.org/2000/svg"><path d="m35.527344 69.558594s-.289063-2.425782-.050782-3.929688c.132813-.84375 1.035157-3.183594 1.921876-2.984375-.242188-1.273437.867187-2.101562.867187-2.101562s-2.269531.804687-4.679687-.566407c-2.347657-1.335937-2.246094-3.863281-2.246094-3.863281s.265625 3.398438-2.222656 5.984375c.144531-.59375-.773438-12.71875-14.726563-16.554687-7.203125-1.980469-14.101563 1.488281-14.101563 1.488281 2.558594-10.039062 11.292969-13.4375 11.292969-13.4375s-1.152343-.023438-2.355469.242188c-.714843.15625-1.796874.621093-1.796874.621093s4.652343-11.339843 17.28125-13.257812c.324218-.050781-.621094-1.113281-1.78125-1.179688-1.15625-.070312-2.328126.917969-2.328126.917969s-.996093-2.445312 2.277344-4.410156c1.722656-1.035156 3.671875-.269532 3.671875-.269532s-.410156-2.078124-2.238281-2.78125c-2.445312-.945312-3.613281-.152343-3.613281-.152343s1.410156-2.839844 5.226562-3.496094c4.078125-.699219 6.324219.644531 6.324219.644531s3.699219-10.457031 16.160156-10.191406c16.78125.355469 17.589844 16.25 12.304688 24.003906.542968-1.996094.03125-6.472656-4.382813-6.382812-3.816406.082031-4.222656 4.242187-4.222656 4.242187s2.183594.535157 4.523437 2.398438c2.039063 1.625 3.324219 3.183593 3.34375 4.414062.019532.960938-.183593 1.148438-.183593 1.148438.273437.304687 4.457031 4.128906 4.960937 7.949219.5 3.816406-.476562 6.777343-.476562 6.777343s4.691406 5.253907 5.257812 9.976563c1.179688 9.839844-3.238281 12.421875-3.238281 12.421875s.285156-1.296875-.003906-2.359375c-.289063-1.058594-.773438-1.617188-.773438-1.617188s-.21875 4.75-1.558593 6.871094c-1.34375 2.125-4.292969 4.460938-5.941407 4.507812l-1.644531.042969s-1.792969 2.414063-3.460938 2.792969c-1.671874.375-3.78125-.75-3.78125-.75s-1.851562.925781-3.25.898438c-1.394531-.03125-4.335937-3.273438-5.574218-3.597657-3.734375-.980469-4.828125-4.742187-4.828125-4.742187s.050781-.191406.046875.28125" fill="#111" fill-rule="evenodd"/><path d="m49.171875 3.253906c-.699219-.023437-1.4375-.003906-2.222656.066406-12.582031 1.097657-11.527344 11.578126-11.527344 11.578126s-1.828125-2.183594-4.566406-2.585938c-2.734375-.398438-5 .285156-5 .285156s2.832031.441406 3.742187 2.949219c.722656 1.992187-.273437 4.101563-.273437 4.101563s3.089843-1.128907 8.222656-.789063c5.128906.339844 7.160156 1.246094 7.160156 1.246094s.964844-4.867188 6.230469-6.335938c6.226562-1.734375 9.527344 1.632813 9.527344 1.632813.21875-1.890625-.796875-11.816406-11.289063-12.148438zm8.128906 28.21875s-3.382812 3.617188-5.867187 4.164063c-1.636719.363281-2.535156-.703125-4.726563-1.480469-2.191406-.777344-4.835937-.679688-5.695312 1.597656-.863281 2.277344.140625 5.132813 3.585937 6.109375 3.441406.980469 9.917969-1.347656 9.917969-1.347656l-1.898437-.445313s-5.859376 1.253907-8.15625.753907c-2.300782-.503907-3.0625-3.652344-2.269532-5.222657.792969-1.5625 3.066406-.792968 3.066406-.792968s12.726563 5.449218 14.035157 6.261718c1.308593.8125 2.941406 2.828126 2.941406 2.828126s.859375-3.335938-.109375-6.816407-4.824219-5.609375-4.824219-5.609375zm-12.320312 11.71875c-2.34375-.0625-5.941407.207032-8.46875 2.074219-3.859375 2.851563-5.121094 6.5625-3.5 9.773437 1.460937 2.894532 4.539062 3.203126 6 2.925782 1.460937-.273438 3.941406-1.96875 4.417969-4.96875.480468-3 1.082031-5.714844 1.789062-6.714844.703125-.996094 2.117188-2.894531 2.117188-2.894531s-.949219-.15625-2.355469-.195313zm5.632812.195313s-2.015625 1.308593-2.640625 2.101562-1.640625 3.289063-1.476562 5.160157c.238281 2.738281-.738282 4.007812-.738282 4.007812s1.214844.074219 2.40625-.800781c1.910157-1.402344.988282-5.117188 1.15625-7.105469.171876-1.984375 1.292969-3.363281 1.292969-3.363281zm0 0" fill="#a27752"/><path d="m39.929688 21.535156c-1.46875-.027344-3.074219.054688-4.828126.285156-13.546874 1.761719-21.101562 10.277344-21.101562 10.277344s2.195312-1.199218 4.488281-1.457031c3.195313-.363281 4.761719 1.007813 4.761719 1.007813s-2.941406-.183594-7.226562 2.277343c-7.070313 4.066407-7.492188 7.632813-7.492188 7.632813s2.710938-1.136719 7.929688.226562c3.542968.925782 6.867187 4.148438 6.867187 4.148438s-.265625-1.757813-.570313-2.582032c-.304687-.820312-.503906-1.339843-.503906-1.339843s2.195313.652343 5.015625 4.324219c1.582031 2.066406 2.277344 6.128906 2.277344 6.128906s.597656-5.132813 4.734375-8.265625c4.136719-3.132813 6.589844-2.5 6.589844-2.5s-2.875-2.753907-1.535156-6.027344c1.335937-3.277344 4.511718-3.246094 6.078124-3 1.570313.253906 3.039063 1.207031 3.71875 1.40625.679688.203125 1.605469.734375 3.003907 0 1.390625-.734375 2.851562-2.269531 2.851562-2.269531l.867188-1.21875s.789062-.023438 1.035156-.269532c.246094-.242187.695313-.570312.035156-2.113281-.863281-2.039062-3.4375-3.136719-3.4375-3.136719s.390625.664063.40625 1.328126c.011719.660156-.128906 1.101562-.128906 1.101562s-3.550781-5.75-13.835937-5.964844zm13.855468 21.3125s-1.117187.5625-1.453125 3.835938c-.339843 3.277344.257813 5.363281-.734375 7.054687-1.988281 3.394531-5.671875 2.859375-5.671875 2.859375s.960938.257813 1.222657.890625c.261718.632813 0 .941407 0 .941407s.640624-.644532.984374-.675782c.34375-.027344.871094.019532.871094.019532-.007812-.546876-.488281-.886719-.488281-.886719s1.308594.371093 2.234375 1.367187c1.335938 1.4375 1.046875 2.453125 1.046875 2.453125s.40625-.308593.691406-.351562c.640625-.101563 1.050781.0625 1.050781.0625l-.75-.628907s.539063-.105468.886719-.082031c.417969.027344 1.035157.261719 1.035157.261719s-.085938-.390625-.390626-.742188c-.191406-.214843-.65625-.582031-.65625-.582031s2.761719.75 4.066407 2.960938c1.871093 3.167969 1.429687 6.777343 1.429687 6.777343l-1.699218.800782s.957031-6.027344-2.949219-7.578125c-1.976563-.78125-4.195313 1.164062-4.195313 1.164062s.921875-2.875-.921875-3.339843c-1.839843-.460938-3.953125 1.550781-3.953125 1.550781l.566406-2.792969s-.902343-.792969-2.007812-.429688c-1.105469.359376-2.03125 1.046876-2.558594 2.375-.527344 1.328126-.792968 3.050782-.792968 3.050782s.214843-.550782.851562-1.09375c.636719-.546875.710938-.515625.710938-.515625s-.820313 1.46875-.859376 2.753906c-.039062 1.285156.757813 3.824219.757813 3.824219s-.089844-2.296875.265625-3.425782c.355469-1.125.730469-1.605468.730469-1.605468l.949219 1.261718s-1.089844 2.742188.5 6.109376c1.023437 2.175781 2.722656 2.660156 3.210937 2.617187s.375-.03125.375-.03125-.554687-1.316406-.707031-1.980469c-.859375-3.773437.011718-5.472656.011718-5.472656l1.644532 1.765625s-.179688 2.285156.042968 3.09375c.226563.8125.828126 2.910156 1.273438 3.210937.441406.300782 1.289062.910157 1.953125.660157.660156-.242188 1.382813-1.066407 1.703125-2.183594.316406-1.125.347656-1.203125.347656-1.203125l-.871094.410156-.242187-.542968s.960937-.761719.992187-1.707032c.03125-.949218.378907-3.015625.378907-3.015625l1.40625-.804687s-.925781 3.703125-.082031 5.519531c.128906.273437.808593 1.023437 1.335937 1.011719.53125-.007813 4.582031-.964844 5.5625-6.183594s.402344-7.417969.402344-7.417969.710937.199219 1.402343 1.222657c.648438.957031.945313 1.929687.945313 1.929687s.664063-3.597656-.035156-5.5-1.605469-3.082031-1.605469-3.082031 1.1875.214844 1.660156.480468c.753906.429688 1.65625 1.300782 1.65625 1.300782s-1.695312-7.058594-6.21875-8.542969c-1.605468-3.269531-7.3125-3.203125-7.3125-3.203125zm-14.9375 23.21875s-1.011718 1.230469-.652344 2.339844c.355469 1.109375 1.449219 2.652344 2.9375 3.171875 1.484376.519531 2.800782 2.011719 3.066407 2.445313.265625.429687 1.070312 1.011718 1.90625 1.203124.839843.183594 1.65625-.535156 1.65625-.535156s-3.152344-.875-4.292969-2.246094c-1.132812-1.367187-.9375-2.066406-.9375-2.066406s-1.230469.074219-1.9375-.84375c-.707031-.917968-1.746094-3.46875-1.746094-3.46875zm0 0" fill="#006f71"/><path d="m40.429688 22.640625c-.863282.070313-1.800782.453125-2.738282 1.457031-1.871094 2.007813-.667968 4.789063-.667968 4.789063s1.019531-3.058594 3.414062-3.628907c2.394531-.566406 4.5 1.511719 4.5 1.511719s1.765625 4.625 2.5625 5.5625c.792969.933594 1.53125 1.699219 3.3125 1.609375 1.777344-.089844 2.667969-2.050781 2.667969-2.050781s1.257812.1875 2.128906-.574219c1.128906-.984375.097656-3.34375.097656-3.34375s-.433593.625-.945312.703125c.421875 1.160157-.183594 1.242188-.785157 1.515625-.597656.269532-2.671874-1.097656-3.75-1.910156-1.078124-.8125-6.273437-4.707031-7.523437-5.207031-.625-.253907-1.410156-.5-2.273437-.433594zm-3.550782 6.902344c-1.367187.023437-2.890625.25-4.527344.8125-10.242187 3.507812-12.105468 10.003906-12.105468 10.003906s4.425781-4.050781 8.414062-5.226563c3.1875-.941406 5.277344-.886718 5.277344-.886718s-1.203125.777344-1.585938 2.917968c-.453124 2.539063.738282 4.117188.738282 4.117188s.320312-2.164062 2.164062-2.75c1.84375-.589844 2.386719 0 2.386719 0s-.914063-2 .945313-4.765625c1.660156-2.464844 5.058593-2.554687 5.058593-2.554687s-2.667969-1.742188-6.765625-1.667969zm20.539063 3.464843c-.398438-.039062-.902344.058594-1.238281.296876-.667969.472656-1.15625 1.875-1.15625 1.875s.246093-.050782.496093-.375c.246094-.328126.886719-.507813 1.214844-.566407.332031-.054687 1.15625.015625 1.308594-.660156.074219-.339844-.222657-.527344-.625-.570313zm.058593 12.398438s1.199219.761719 1.734376 1.574219c.824218 1.25.597656 1.660156.597656 1.660156s-.769532-1.046875-1.996094-1.464844c-1.792969-.613281-3.636719-.488281-3.636719-.488281s1.628907.570312 2.792969 1.5c1.148438.914062 1.070312 1.570312 1.070312 1.570312s-.398437-.34375-1.882812-.632812c-.988281-.1875-2.957031.171875-2.957031.171875s3.921875 1.015625 5.933593 4.875c2.492188 4.777344 1.75 10.125 1.75 10.125s1.449219-2.832031 1.558594-5.226563c.078125-1.609374-.472656-3.953124-.472656-3.953124s.71875.148437 1.371094.878906c.609375.6875 1.0625 1.917968 1.0625 1.917968s-.066406-2.359374-1.214844-4.738281c-.652344-1.355469-1.890625-2.738281-1.890625-2.738281s.78125.035156 1.382813.265625c1.105468.417969 1.796874 1.054687 1.796874 1.054687s-.65625-1.835937-2.820312-3.851562c-2.164062-2.011719-4.179688-2.5-4.179688-2.5zm-14.039062 2.660156s-.886719.570313-1.589844 1.074219c-.695312.503906-1.660156.785156-1.660156.785156s.285156 1.011719.1875 2.15625c-.097656 1.140625-1.113281 3.105469-3.019531 3.367188-1.90625.265625-3.511719-2.207031-3.511719-2.207031s-.078125 2.472656 1.925781 3.332031c2.007813.859375 3.328125.644531 5.167969-.945313s2.5-7.5625 2.5-7.5625zm0 0" fill="#111"/><path d="m46.859375 28.21875s.625 1.46875.9375 2.015625c.308594.546875.785156 2.09375 2.316406 2.449219 1.527344.359375 2.113281-.917969 2.113281-.917969s-1.453124-.765625-2.15625-1.140625c-.710937-.375-3.210937-2.40625-3.210937-2.40625zm-2.699219 7.351562c-.246094-.015624-.441406.015626-.554687.117188-.453125.417969-.488281.761719-.097657 1.078125.386719.3125 1.46875.96875 1.972657 1.144531.503906.175782.628906.289063.628906.289063l.089844.683593s-1.996094-.726562-2.503907-.929687c-.507812-.203125-1.035156-.515625-1.035156-.515625s.546875 1.644531 1.707032 2.175781c2.117187.964844 6.09375.1875 6.09375.1875s-1.015626-.296875-1.269532-.359375c-.257812-.0625-.6875-.214844-.6875-.214844l.46875-.390624s.402344-.023438 1.050782.046874c.640624.070313 2.101562.195313 2.101562.195313s-4.4375-2.207031-5.367188-2.652344c-.695312-.332031-1.867187-.8125-2.597656-.855469zm0 0" fill="#fff"/></svg>