<svg height="70pt" viewBox="0 0 70 70" width="70pt" xmlns="http://www.w3.org/2000/svg"><path d="m69.515625 34.960938c0 19.058593-15.449219 34.503906-34.507813 34.503906-19.054687 0-34.503906-15.445313-34.503906-34.503906 0-19.054688 15.449219-34.503907 34.503906-34.503907 19.058594 0 34.507813 15.449219 34.507813 34.503907" fill="#c8c372"/><path d="m68.085938 34.960938c0 18.269531-14.808594 33.074218-33.078126 33.074218-18.265624 0-33.074218-14.804687-33.074218-33.074218 0-18.265626 14.808594-33.074219 33.074218-33.074219 18.269532 0 33.078126 14.808593 33.078126 33.074219" fill="#1e4d2b"/><path d="m35.019531 3.683594c-17.238281 0-31.277343 14.042968-31.277343 31.277344 0 17.214843 14.042968 31.28125 31.277343 31.28125 17.214844 0 31.257813-14.0625 31.257813-31.28125 0-17.234376-14.042969-31.277344-31.257813-31.277344" fill="#fff"/><path d="m58.378906 53.507812c-1.039062 1.410157-2.230468 2.570313-3.746094 3.109376-.949218.378906-1.941406.535156-2.914062.089843-.761719-.335937-1.242188-1.097656-1.378906-1.949219-.175782-1.25.523437-2.726562 1.132812-3.710937.835938-1.40625 2.753906-3.863281 4.964844-5.496094 3.140625-2.328125 5.332031-2.976562 4.519531-3.511719-.566406-.378906-3.542969 1.253907-4.132812 1.566407-3.34375 1.722656-7.949219 6.707031-8.492188 10.398437-.375 2.542969 2.140625 4.449219 4.300781 4.363282-7.175781 5.761718-14.988281 5.949218-17.605468 6.011718h-.023438c-2.640625-.0625-10.46875-.257812-17.617187-6.011718 2.160156.089843 4.675781-1.820313 4.300781-4.363282-.542969-3.691406-5.171875-8.675781-8.488281-10.398437-.589844-.3125-3.570313-1.945313-4.136719-1.566407-.8125.535157 1.378906 1.183594 4.519531 3.511719 2.210938 1.632813 4.109375 4.089844 4.945313 5.496094.628906.984375 1.332031 2.460937 1.152344 3.710937-.136719.851563-.632813 1.613282-1.378907 1.949219-.972656.445313-1.964843.289063-2.9375-.089843-1.488281-.539063-2.683593-1.699219-3.722656-3.109376-1.964844-2.660156-3.882813-5.722656-4.859375-8.964843.835938 1.855469 6.121094 9.613281 8.46875 9.726562 2.414062.132813-2.347656-6.304687-5.621094-8.988281-.792968-.648438-1.695312-1.410156-1.871094-2.617188-.140624-.875.3125-1.453124 1.171876-1.496093 1.308593-.046875 4.71875 1.71875 4.761718 1.65625-5.914062-10.621094 3.140625-15.988281-.605468-18.3125-1.3125-.828125-4.085938 0-5.601563.222656 13.933594-8.226563 16.367187-.019531 20.570313 3.753906.65625.605469 3.613281 0 4.175781-.691406.746093-.894531 2.234375-4.113281.542969-6.238281-2.335938-2.957032-11.734376-11.441406-20.625-5.042969 2.164062-2.980469 5.425781-5.671875 9.324218-7.671875 4.390625-2.25 9.203125-3.421875 13.546875-3.300781h.023438c8.523437-.234375 18.058593 4.410156 22.824219 10.972656-8.910157-6.398437-18.285157 2.085937-20.644532 5.042969-1.671875 2.121094-.203125 5.34375.542969 6.238281.585937.691406 3.542969 1.296875 4.199219.691406 4.199218-3.777343 6.640625-11.980469 20.570312-3.753906-1.511718-.222656-4.3125-1.054687-5.597656-.222656-3.75 2.324219 5.28125 7.691406-.613281 18.308593.046875.066407 3.457031-1.699218 4.765625-1.652343.859375.042969 1.3125.621093 1.175781 1.496093-.179687 1.207032-1.105469 1.96875-1.875 2.617188-3.273437 2.683594-8.039063 9.121094-5.644531 8.988281 2.371094-.113281 7.65625-7.871093 8.488281-9.726562-.96875 3.242187-2.910156 6.304687-4.855469 8.964843zm0 0" fill="#1e4d2b"/><path d="m48.84375 28.304688c-1.792969-.023438-1.210938 2.1875-.707031 3.253906.359375.71875.804687 1.902344 1.921875 1.808594 1.367187-.109376 1.160156-1.226563 3.132812-1.382813 0 0 2.457032.179687 2.414063.960937-.089844 1.164063-1.367188 1.585938-2.191407 1.875-1.230468.40625-2.640624-.195312-3.644531.941407-.3125.378906-.558593.851562-.449219 1.273437.113282.425782.160157.246094 1.519532.359375-.757813.9375-1.207032 2.371094-1.226563 3.625-.042969 3.375-.894531 5.988281-.558593 7.152344 1.632812-1.96875 1.609374-4.941406 1.878906-7.3125.152344-1.230469.601562-2.59375 1.207031-3.484375.691406-1.054688 2.011719-1.097656 2.882813-1.746094.828124-.605468 2.121093-1.632812 2.011718-2.59375-.15625-1.296875-1.296875-1.699218-2.300781-2.015625-2.910156-.914062-4.136719.226563-4.988281.316407.917968-1.050782.691406-2.796876-.511719-2.996094-.140625-.023438-.269531-.035156-.390625-.035156zm-27.367188 0c-.117187 0-.25.011718-.390624.035156-1.1875.203125-1.410157 1.949218-.519532 2.996094-.824218-.089844-2.054687-1.230469-4.960937-.3125-1.003907.3125-2.144531.714843-2.300781 2.011718-.113282.960938 1.183593 1.988282 2.007812 2.59375.851562.648438 2.195312.695313 2.886719 1.746094.582031.890625 1.050781 2.253906 1.207031 3.484375.269531 2.375.222656 5.34375 1.878906 7.3125.3125-1.164063-.539062-3.777344-.558594-7.152344-.023437-1.253906-.492187-2.683593-1.230468-3.625 1.363281-.109375 1.386718.070313 1.496094-.355469.132812-.425781-.132813-.894531-.445313-1.273437-.984375-1.140625-2.390625-.539063-3.644531-.941406-.828125-.289063-2.101563-.714844-2.167969-1.875-.042969-.785157 2.414063-.964844 2.414063-.964844 1.96875.15625 1.742187 1.273437 3.105468 1.386719 1.121094.089844 1.589844-1.09375 1.949219-1.8125.503906-1.066406 1.082031-3.277344-.726563-3.253906zm23.0625 4.191406c-.292968-.003906-.589843.039062-.875.136718-1.136718.316407-1.496093 1.363282-2.171874 2.300782-.644532.984375-1.71875 1.679687-2.613282 2.039062-.558594 1.292969.40625 4.359375 1.320313 5.765625.511719 1.050781 2.636719 3.601563 2.191406 7.46875 1.675781-2.4375 3.015625-5.03125 3.574219-6.597656.984375-2.101563 1.433594-5.433594 1.34375-7.691406-.132813-1.09375-.402344-2.480469-1.410156-3.058594-.390626-.210937-.867188-.351563-1.355469-.363281zm-19.078124.003906c-.488282.007812-.96875.148438-1.359376.359375-1.003906.578125-1.25 1.964844-1.40625 3.058594-.066406 2.257812.355469 5.59375 1.339844 7.691406.582032 1.566406 1.921875 4.160156 3.597656 6.597656-.46875-3.867187 1.679688-6.417969 2.171876-7.46875.914062-1.40625 1.878906-4.472656 1.320312-5.765625-.894531-.359375-1.96875-1.054687-2.621094-2.039062-.648437-.9375-1.023437-1.984375-2.164062-2.300782-.285156-.097656-.582032-.140624-.878906-.132812zm9.574218 8.203125v.003906c-1.066406.023438-1.644531.925781-2.636718 1.964844-1.722657 1.878906-5.257813 6.550781-2.683594 8.765625 1.136718.980469 2.636718 1.652344 4.695312 1.027344.511719-.359375.222656-1.410156-.046875-1.878906-.960937-1.253907-2.457031-.757813-2.882812-1.386719-.402344-.601563-.132813-1.074219.109375-1.382813.359375-.449218.941406-.335937 1.433594-.203125.871093.195313 1.464843.5625 2.011718 1.097657v.039062c.007813-.003906.015625-.011719.019532-.015625.007812.003906.015624.011719.023437.015625v-.039062c.527344-.535157 1.140625-.902344 2.011719-1.097657.472656-.132812 1.074218-.246093 1.410156.203125.269531.308594.515625.78125.113281 1.382813-.425781.628906-1.902343.132812-2.863281 1.386719-.265625.46875-.582031 1.519531-.070312 1.878906 2.082031.625 3.558593-.046875 4.695312-1.027344 2.597656-2.214844-.9375-6.886719-2.679688-8.765625-.96875-1.039063-1.574218-1.941406-2.617187-1.964844v-.003906c-.007813 0-.015625.003906-.023437.003906zm-3.417968 12.386719c-.148438.011718-.25.113281-.25.113281-.660157 1.414063 3.144531 2.195313 3.691406 2.167969.546875.027344 4.375-.753906 3.710937-2.167969 0 0-.136719-.132813-.316406-.113281-1.132813.113281-2.378906.378906-3.382813.359375-1.003906.019531-2.253906-.246094-3.386718-.359375-.023438-.003906-.046875-.003906-.066406 0zm0 0" fill="#fff"/><path d="m44.832031 34.132812c-1.214843-.023437-3.238281 2.605469-2.710937 4.714844.269531.089844.40625-.066406 1.03125-1.09375.464844-.78125 1.609375-.625 2.121094-.9375.875-.5625.847656-1.769531.023437-2.503906-.132813-.121094-.289063-.179688-.464844-.179688zm-19.664062 0c-.175781 0-.332031.058594-.464844.179688-.804687.734375-.847656 1.941406.023437 2.503906.535157.3125 1.675782.15625 2.121094.941406.632813 1.027344.765625 1.179688 1.03125 1.089844.53125-2.109375-1.492187-4.738281-2.710937-4.714844zm0 0" fill="#1e4d2b"/></svg>