<svg height="67pt" viewBox="0 0 69 67" width="69pt" xmlns="http://www.w3.org/2000/svg"><path d="m40.515625.445312 8.699219 8.792969v8.40625h19.460937v14.71875h-4.785156v25.578125l-8.820313 8.789063h-26.300781l-8.796875-8.789063v-8.429687h-10.765625l-8.726562-8.785157v-31.492187l8.726562-8.789063z"/><path d="m10.207031 47.085938h12.171875v9.847656l7.382813 7.371094h24.320312l7.402344-7.371094v-26.996094h4.785156v-9.867188h-14.679687v34.382813h-19.425782v-7.367187h7.351563l7.292969-7.363282v-9.785156h-9.785156v7.308594h-4.859376v-17.175782h-14.640624v9.867188h4.855468v7.308594h-9.730468v-24.601563h24.375v7.425781h9.785156v-9.824218l-7.292969-7.371094h-29.308594l-7.320312 7.367188v29.480468z" fill="#fff"/><path d="m30.953125 45.871094h8.0625l6.585937-6.648438v-8.074218h-7.371093v7.308593h-7.277344v-17.171875h-12.226563v7.4375h4.855469v9.734375h-12.132812v-27.023437h26.78125v7.425781h7.375v-8.113281l-6.589844-6.660156h-28.308594l-6.617187 6.660156v28.476562l6.613281 6.648438h12.878906v10.550781l6.675781 6.671875h23.328126l6.695312-6.675781v-27.695313h4.78125v-7.4375h-12.269531v34.375h-21.835938v-9.789062" fill="#cfb87c"/></svg>