<svg height="74pt" viewBox="0 0 70 74" width="70pt" xmlns="http://www.w3.org/2000/svg"><path d="m490.132477 278.171133c1.384825 18.633914-6.808722 30.120429-6.808722 30.120429-4.67903 7.960324-19.450495 21.294394-19.450495 21.294394-1.961835 1.551947-7.322786 7.263532-7.322786 7.263532-5.654702 6.239458-11.309403 16.501308-11.309403 16.501308-2.077238 4.212426-11.309403 18.011024-11.309403 18.011024-7.826359 10.367425-17.048034 15.49835-17.048034 15.49835-16.533969 9.828994-31.693605 9.501712-31.693605 9.501712.346206-7.812519-1.919871-13.619121-1.919871-13.619121-2.538846-6.302803-7.427697-6.228901-7.427697-6.228901-3.808268-.496201-6.69332 2.53379-6.69332 2.53379-4.574119 4.655839-5.822559 13.006789-5.822559 13.006789-15.463878-3.515634-21.11858-14.368701-21.11858-14.368701-4.154474-6.841233-4.762958-17.145313-4.762958-17.145313-.514064-7.390221-.881252-21.72725-.881252-21.72725-.524555-6.925693-2.58081-9.765649-2.58081-9.765649-1.269423-2.734382-4.920325-6.429492-4.920325-6.429492-.262277-.348397-4.773449-5.225942-4.773449-5.225942-2.801123-3.008876-4.269877-5.004236-4.269877-5.004236-4.616083-7.157957-4.731485-14.08365-4.731485-14.08365-.115402-9.227219 3.273223-13.165151 3.273223-13.165151-2.329024.031673-4.574119-.739022-6.473008-2.079819-1.080583-.770694-1.972326-1.741981-2.68572-2.882186-.545538-.876269-.975673-1.836998-1.185494-2.861071-.083929-.422299-.125894-.855155-.157367-1.28801-.031473-.464529-.062947-1.097976.136384-1.530832.587502-1.256338 1.437281-2.459888 2.423444-3.441731.451117-.453971.944199-.855155 1.500227-1.171878-1.017637-.770695-1.940853-1.741981-2.612283-2.818842-.514064-.812924-.891744-1.752538-.849779-2.723824-.020983-.475086-.052456-.939614.010491-1.425257.083928-.802367.335715-1.678636 1.017636-2.174837.167858-.126689.367189-.211149.556028-.295608.398662-.190035.786833-.380069 1.164512-.580661.419644-.211149.839288-.432855 1.248441-.66512.073437-.042229.251786-.105574.283259-.190034.020983-.073902.052456-.147804.083929-.221706.346206-.802367.828797-1.551947 1.426789-2.174837.744868-.791809 1.72054-1.256337 2.685721-1.720866.95469-.464528 1.930362-.886826 2.916525-1.277452.650449-.253379 1.300897-.496201 1.961836-.717907.356697-.12669.67143-.116132 1.049109-.063345.409153.073902.891744.200592 1.216968.464528.230804.190034.472099.358954.702903.527873.4721.327281.95469.644005 1.447772.929056l.146875.137247c-.493081-1.625848-.776341-3.325599-.702903-5.035907.073437-1.889786.587501-3.747898 1.500227-5.394862.19933-.348396.38817-.770694.660939-1.055746.241295-.242821.48259-.485643.723885-.707349.923217-.865712 1.216968-1.192993 3.063401-2.259297-.209822.971287-.314733 1.963688-.367189 2.945531-.104911 1.794768-.041964 3.726783.671431 5.415977.587501 1.361912 1.689066 2.4071 2.916525 3.188352 2.937507 1.86867 6.546445 2.523233 9.966542 2.713267 2.465408.137247 4.972781.052787 7.427697-.190034 1.531701-.158362 3.084383-.369511 4.574119-.802367.514064-.147804 1.101565-.327281 1.636611-.591218l.723886-.4962c.09442-.739022-.18884-.907942-.262278-1.298568-.062946-.358953-.188839-.675677-.377679-.992401-.28326-.485643-.545537-.981843-.786832-1.478044-.388171-.770694-.744868-1.541389-1.080583-2.333198-.367189-.855155-.37768-1.731424-.062947-2.61825.304242-.897384.828797-1.763096 1.332369-2.565463.577011-.918498 1.216968-1.794768 1.930362-2.607692.167858-.200592.346207-.401183.535046-.591218l-.157366-.147804c-7.375242-2.301526-14.446241-4.455248-18.810538-5.415976 0 0-11.802485-3.494519-16.985087 1.414699 0 0-.681921 1.309125-2.29755.633448 0 0-3.168312-.812925-6.609392-6.007194 0 0-2.538845.031672-4.553136-1.256338 0 0-5.654701-4.022392-3.661393-11.813796 0 0 1.741522-3.019433 6.420552-3.610651 0 0-.37768-6.989038 2.528354-8.488197 0 0 1.584156-1.309125 5.308496-.285051 0 0 1.374333-.855154 2.224112-.865712 0 0 3.608938-.190034 5.612737.242822 0 0 3.084383.274494 4.731485 3.262255 0 0 2.906034 5.891062 3.220767 6.577296 0 0 1.961836 3.441732 5.518318 4.951448 0 0 11.194001 5.447649 37.851879 14.674868l.797324.232264c.199331-.168919.524555-.475086.681921-.612333.587501-.4962 1.206476-.886826 1.930362-1.140205.650448-.221707 1.34286-.348396 2.024782-.369511 1.479245-.04223 2.958489-.031672 4.427243-.052787.430135-.010558 2.035273-.073903 2.423443-.031673.556029.063345 1.112057.253379 1.615629.506758.199331.105575.419644.295609.639957.358954.514064.137247 1.007146.485643 1.468754.749579.692412.411741 1.374334.83404 2.045764 1.266895 1.447771.918499 2.86407 1.858113 4.322332 2.734382l.020982-.021115c33.414146-11.497072 48.384942-18.866178 48.384942-18.866178 3.5355-1.541389 5.465862-5.004236 5.465862-5.004236.304242-.686235 3.147329-6.608969 3.147329-6.608969 1.615629-3.008876 4.700012-3.315042 4.700012-3.315042 1.993308-.453971 5.612737-.306166 5.612737-.306166.849779 0 2.234604.844597 2.234604.844597 3.713848-1.055746 5.308495.232264 5.308495.232264 2.916525 1.467486 2.612283 8.467081 2.612283 8.467081 4.700012.538431 6.462516 3.536749 6.462516 3.536749 2.077238 7.77029-3.5355 11.845469-3.5355 11.845469-2.003799 1.309125-4.542645 1.309125-4.542645 1.309125-3.388624 5.236499-6.535954 6.081096-6.535954 6.081096-1.615629.696792-2.308041-.612333-2.308041-.612333-5.235058-4.845873-17.006069-1.235222-17.006069-1.235222-8.990871 2.090376-33.351199 10.367424-36.446073 11.433727l-.010491.010558c.618975.348396 1.248441.696792 1.877907 1.055746.398661.221706.797323.45397 1.206476.675677.272768.158362.545537.327281.797323.517315v.010558l13.491552 4.265213c19.964558 5.880505 23.657425 6.228901 23.657425 6.228901 6.577918 1.499159 12.80963-3.695111 12.80963-3.695111.923216-.58066 1.961835-.464528 1.961835-.464528 4.731485 1.615291 7.039526 3.125008 7.039526 3.125008 1.615629 1.150763 2.308042 3.11445 2.308042 3.11445.933707.570103 3.126347 1.615291 3.126347 1.615291 1.489736.918499 1.15402 3.684553 1.15402 3.684553.115402 2.892744-3.472553 5.542666-3.472553 5.542666 2.423444 1.383027 3.923671 4.61361 3.923671 4.61361.461608 1.277452.115402 1.731423.115402 1.731423-.062947.411741-.167858.812924-.293751 1.20355zm0 0" fill="#fff" stroke="#ffd615" stroke-miterlimit="10" stroke-width="3.2314" transform="matrix(.37234 0 0 -.369999 -113.480057 147.579313)"/><path d="m33.324219 4.6875s-.285157 3.246094-2.75 5.75c0 0-2.921875 2.5625-6.703125 1.082031 0 0-2.921875-1.027343-4.183594-4.382812 0 0-2.40625 1.023437-3.351562 3.753906 0 0-.859376 2.820313-.859376 5.382813l-.085937 4.953124s.257813 3.671876-1.976563 7.171876c0 0-3.695312 4.101562-4.039062 4.527343 0 0-2.234375 2.988281-1.804688 5.210938 0 0-.171874 3.070312 3.953126 5.804687 0 0 4.296874-2.21875 6.789062-1.792968 0 0 0-1.140626.230469-1.535157 0 0 .230469-.683593 1.546875-2.164062 0 0-.6875-1.597657-.113282-4.101563 0 0-.976562-.855468-1.203124-2.105468 0 0-.171876-.851563.054687-1.253907 0 0 .746094-1.765625 2.179687-2.675781 0 0 .457032-.367188 1.257813-.085938 0 0 1.433594-1.335937 1.777344-1.792968 0 0 1.261719-1.308594 2.578125-1.363282 0 0 5.5-.570312 6.648437-.683593 0 0 1.316407-.285157 3.148438.054687 0 0 8.136719 1.59375 9.738281 9.90625 0 0 .460938 2.5625.230469 4.214844 0 0 2.921875-.058594 4.179687 2.957031 0 0 .632813 1.597657.289063 3.417969 0 0-.515625 1.652344-2.007813 2.789062 0 0-.972656.570313-3.035156.515626 0 0-1.945312-.683594-2.808594-1.765626 0 0-.167968 3.558594 1.089844 5.605469 0 0 10.65625-3.839843 12.722656-5.4375 0 0 1.71875-1.59375 2.003906-2.449219 0 0 1.03125-1.476562 2.804688-.964843 0 0 2.066406-1.195313 3.839844-.398438 0 0 .117187-5.238281-3.894532-9.734375 0 0-2.292968-2.792968-5.671874-5.582031 0 0-4.296876-4.269531-7.792969-11.074219 0 0-3.78125-9.023437-14.78125-11.753906zm13.015625 36.382812.265625 1.835938c.09375.835938-.375 1.300781-.375 1.300781-.371094.832031-1.398438 1.390625-1.398438 1.390625.371094.277344 1.121094.648438 1.121094.648438 1.121094.371094 2.800781-1.113282 2.800781-1.113282.1875-.371093.09375-1.855468.09375-1.855468-.28125-1.671875-2.507812-2.207032-2.507812-2.207032zm0 0" fill="#582c83"/><path d="m30.347656 1.15625c0 4.867188-1.980468 6.574219-1.980468 6.574219-1.71875 1.539062-4.039063.257812-4.039063.257812-2.0625-1.027343-2.835937-5.125-2.835937-5.125-6.617188 1.878907-8.078126 6.660157-8.078126 6.660157-1.03125 2.820312-1.03125 8.96875-1.03125 8.96875-.085937 6.148437-.6875 6.320312-.6875 6.320312-.257812 1.621094-4.46875 5.890625-4.46875 5.890625-3.09375 3.414063-2.835937 6.148437-2.835937 6.148437-.515625 2.648438 1.203125 5.378907 1.203125 5.378907.429688.085937 1.546875.683593 1.546875.683593.429687-.171874 1.460937-.085937 1.460937-.085937-2.835937-3.925781-1.976562-5.890625-1.976562-5.890625.257812-3.074219 2.664062-5.464844 2.664062-5.464844 4.039063-3.417968 4.554688-6.234375 4.554688-6.234375.515625-2.050781.601562-6.832031.601562-6.832031-.171874-5.550781 1.03125-8.285156 1.03125-8.285156 1.890626-4.097656 4.640626-4.355469 4.640626-4.355469.601562 2.308594 3.265624 4.273437 3.265624 4.273437 3.265626 2.304688 6.359376-.429687 6.359376-.429687 2.0625-1.621094 2.921874-5.976563 2.921874-5.976563 8.421876.769532 14.355469 9.136719 14.355469 9.136719.855469 1.195313 4.464844 7.257813 4.464844 7.257813 2.921875 4.867187 6.535156 7.773437 6.535156 7.773437 5.066407 4.527344 6.273438 7.425781 6.273438 7.425781 1.804687 2.226563 2.230469 8.285157 2.230469 8.285157l.773437 1.371093 1.289063-.601562c.515624-5.550781-2.148438-10.332031-2.148438-10.332031-1.203125-2.390625-6.960938-7.601563-6.960938-7.601563-2.75-2.046875-6.015624-7-6.015624-7-.171876-.257812-4.46875-7.347656-4.46875-7.347656-7.21875-10.671875-18.644532-10.84375-18.644532-10.84375zm4.738282 23.589844c-.480469-.003906-.789063.039062-.789063.039062-.515625.054688-7.675781.652344-7.675781.652344-1.605469.113281-2.636719 1.453125-2.636719 1.453125-.398437.398437-1.085937 1.480469-1.085937 1.480469 1.203124.570312 1.488281.910156 1.488281.910156 4.699219-2.164062 10.941406-.96875 10.941406-.96875 1.949219-.625 3.265625-.113281 3.265625-.113281 2.175781.570312 3.78125 3.359375 3.78125 3.359375.230469.738281.515625.855468.515625.855468 1.71875 1.707032 2.695313 2.902344 2.695313 2.902344.113281-7.457031-7.222657-9.847656-7.222657-9.847656-1.179687-.605469-2.472656-.722656-3.277343-.722656zm11.09375 14.011718c-.417969.011719-.710938.0625-.710938.0625-1.117188.683594-.082031 1.960938-.082031 1.960938 2.40625-.253906 3.261719 1.539062 3.261719 1.539062.777343 1.109376.261718 2.902344.261718 2.902344-1.378906 1.28125-2.582031 1.195313-2.582031 1.195313-.941406-.082031-1.804687-.851563-1.804687-.851563l-.769532.339844-.171875.941406c.253907.597656 2.320313 1.277344 2.320313 1.277344.769531.085938 2.835937-.597656 2.835937-.597656 2.230469-1.277344 1.972657-3.585938 1.972657-3.585938.347656-2.902344-2.0625-4.523437-2.0625-4.523437-.695313-.589844-1.765626-.675781-2.46875-.660157zm-27.695313 3.644532s-3.09375-.082032-5.15625.855468c0 0-3.910156 1.835938-6.832031 1.921876 0 0-.34375.644531 2.40625 1.964843 0 0 2.324218.859375 3.394531.980469 0 0 1.765625-1.261719 2.070313-1.378906 0 0-2.484376-.300782-3.40625-.929688 0 0 3.242187.75 5.015624.472656 0 0 .167969.050782 1.59375-.113281 0 0-5.660156 1.78125-8.066406 5.070313 0 0-2.234375 2.945312-.34375 5.804687 0 0-.171875-2.222656 2.191406-3.457031 0 0 1.890626-1.582031 8.722657-.769531 0 0-.773438-3.972657.300781-7.132813 0 0 .300781-.425781-.300781-1.066406 0 0-1.203125-1.113281-1.589844-2.222656zm0 0" fill="#ffd615"/><path d="m41.992188 12.101562-.929688.105469-3.210938.363281-.691406.078126-4.164062.472656-.691406.078125.304687.316406c-.484375-.21875-.949219-.324219-1.5-.324219-.246094 0-.523437.019532-.898437.058594-1.132813.128906-2.246094.757812-3.128907 1.769531-.84375.96875-1.390625 2.210938-1.5 3.414063-.113281 1.242187.261719 2.4375 1.03125 3.273437.65625.710938 1.535157 1.105469 2.480469 1.105469.128906 0 .261719-.007812.390625-.023438 1.074219-.121093 1.839844-.316406 2.804687-.984374l.128907-.09375.015625-.15625.222656-2.472657.089844-.984375-.679688.71875-1.59375 1.675782-.003906.003906c-.320312.347656-.597656.507812-.964844.550781-.046875.003906-.09375.007813-.140625.007813-.261719 0-.382812-.097657-.449219-.171876-.417968-.457031-.300781-1.785156-.21875-2.664062.148438-1.625.371094-3.097656 1.496094-3.222656.050782-.007813.097656-.007813.140625-.007813.222657 0 .359375.070313.582031.300781l1.316407 1.359376.523437.539062.066406-.742188.226563-2.476562.574219.59375-.453125 4.960938c-.058594.671874.121093 1.257812.523437 1.695312.503906.550781 1.339844.851562 2.351563.851562.191406 0 .386719-.011718.585937-.035156 1.421875-.160156 3.050782-1.402344 3.207032-3.125l.457031-5.003906 1.058593-1.125zm-4.378907 1.015626.03125.03125.832031.863281-.449218 4.960937c-.054688.617188-.566406 1.171875-1.140625 1.238282-.039063.003906-.078125.007812-.117188.007812-.230469 0-.433593-.082031-.574219-.234375-.144531-.160156-.210937-.382813-.1875-.640625l.453126-5.003906 1.0625-1.125zm-10.179687.632812-.980469.113281-6.988281.789063-.691406.078125.484374.5.832032.863281-.546875 6.023438-1.058594 1.125-.640625.679687.929688-.105469 7.445312-.84375.765625-.085937-.578125-.507813c-.007812-.007812-.738281-.660156-1.066406-1.546875l-.195313-.515625-.378906.402344-.730469.773438-1.628906.1875.207031-2.269532.800781-.089844.808594.851563.527344.550781.066406-.753906.292969-3.234375.011719-.105469.175781.183594.207031-.464844c.53125-1.203125 1.222656-1.898437 1.230469-1.90625zm-3.09375 2.078125.394531.40625-.21875.234375-1.042969 1.105469-.703125.078125.152344-1.664063zm10.300781 8.257813c-.324219-.003907-.515625.007812-.515625.007812s-.171875 0-1.753906.167969c-1.582032.171875-5.550782.511719-5.550782.511719-1.925781.246093-3.128906 1.648437-3.128906 1.648437-.53125.589844-1.390625 1.328125-1.390625 1.328125-.171875.1875-.304687.1875-.304687.1875-.859375-.054688-1.222656.304688-1.222656.304688-1.945313 1.34375-2.171876 2.9375-2.171876 2.9375-.304687 1.6875 1.011719 3.125 1.011719 3.125.132813.152343.113281.265624.113281.265624-.417968 2.40625.058594 3.789063.058594 3.789063-.402344.457031-1.164062 1.441406-1.164062 1.441406-.324219.398438-.363282.777344-.363282.777344-.058593.527344-.0625.933594-.046874 1.246094-.273438-.019531-2.226563-.117188-4.828126.964843 0 0-.769531.332032-1.863281.714844-.726562-.3125-1.886719-1.582031-1.886719-1.582031s-.507812.449219-.804687.773437c-.339844-.042968-1.070313-.105468-1.488281.023438 0 0-2.449219-1.667969-4.898438.339844 0 0-1.144531.96875-1.203125 2.304687 0 0-.050781.351563.042969.640625 0 0 .558594 1.195313 1.460938 1.710938 0 0-1.332032.980468-1.289063 2.046875 0 0-.128906 1.027343.429687 1.367187 0 0 .816407.382813 1.160157.597656 0 0 .257812.726563.859375 1.152344 0 0 .859375.554688 2.621094 1.152344 0 0 .386718.042969.730468-.167969 0 0 .332032-.269531.863282-.574219-.410157 1.335938-.410157 2.8125.535156 4.207032 0 0 .507812.707031 1.425781 1.109375 0 0-.566406-2.511719.417969-3.617188 0 0 1.121094-1.707031 5.296875-1.714843 0 0 3.128906-.046876 4.34375.644531.046875.210937.085937.363281.085937.363281.09375.246094-.078125.585938-.078125.585938-.359375.589843-.761719 1.535156-.761719 1.535156-.246093.53125.078126 1.117187.078126 1.117187.445312.929688.972656 1.570313 1.363281 1.96875-2.777344.859375-5.453125 1.667969-7.09375 2.03125 0 0-4.394531 1.289063-6.324219-.523437 0 0-.253906-.488282-.855469-.238282 0 0-1.179687.300782-2.460937 2.226563 0 0-.945313-.011719-1.695313.464844 0 0-2.105469 1.484375-1.363281 4.367187 0 0 .648438 1.121094 2.390625 1.335938 0 0-.140625 2.589844.941406 3.140625 0 0 .589844.484375 1.976563.109375 0 0 .511718.316406.828125.320312 0 0 1.34375.070313 2.089843-.09375 0 0 1.148438-.101562 1.761719-1.203125 0 0 1.082031-2.179687 1.199219-2.4375 0 0 .730469-1.273437 2.054688-1.828125 0 0 4.257812-2.058594 14.367187-5.523437.125.101562.335937.28125.335937.28125.570313.511719 1.429688.511719 1.429688.511719.304688 0 1.867188.019531 2.363281.039062.496094.015625.992188-.324219.992188-.324219.289062-.058593 1.925781-1.136719 1.925781-1.136719.164062-.117187.546875-.347656 1.007812-.621093 12.445313 4.253906 18.027344 6.984375 18.027344 6.984375 1.316406.566406 2.03125 1.847656 2.03125 1.847656.117188.257812 1.175782 2.449219 1.175782 2.449219.601562 1.109375 1.75 1.222656 1.75 1.222656.742187.171875 2.089843.117187 2.089843.117187.3125 0 .828125-.316406.828125-.316406 1.386719.394532 1.976563-.082031 1.976563-.082031 1.089843-.542969.976562-3.132813.976562-3.132813 1.746094-.199218 2.40625-1.308593 2.40625-1.308593.773438-2.875-1.316406-4.386719-1.316406-4.386719-.746094-.480469-1.691406-.480469-1.691406-.480469-1.261719-1.9375-2.4375-2.25-2.4375-2.25-.601563-.257812-.859375.226563-.859375.226563-1.945313 1.792968-6.328125.457031-6.328125.457031-3.515625-.8125-13.226563-4.113281-13.578125-4.230469.328125-.183594 1.152344-.644531 1.152344-.644531.101562-.0625.195312-.125.28125-.191406l5.039062-1.582031c7.433594-2.175782 8.808594-2.304688 8.808594-2.304688 2.449218-.554688 4.769531 1.367188 4.769531 1.367188.34375.210937.730469.167968.730469.167968 1.761718-.597656 2.621094-1.152344 2.621094-1.152344.601562-.425781.859374-1.152343.859374-1.152343.34375-.214844 1.160157-.597657 1.160157-.597657.558593-.339843.429687-1.367187.429687-1.367187.042969-1.066406-1.289062-2.046875-1.289062-2.046875.902344-.515625 1.460937-1.710938 1.460937-1.710938.171875-.46875.042969-.640624.042969-.640624-.214844-1.238282-1.203125-2.304688-1.203125-2.304688-2.449219-2.007812-4.898437-.339844-4.898437-.339844-.558594-.171875-1.675782 0-1.675782 0-.859375.125-1.71875 1.707032-1.71875 1.707032-.429687.769531-1.53125 1.648437-1.53125 1.648437-3.992187 2.542969-11.21875 4.921875-12.675781 5.386719 0-.003906-.011719-.023438-.011719-.023438-.285156-.570312-.53125-1.496094-.53125-1.496094-.347656-1.421874-.390625-2.433593-.335937-3.121093.480469.433593 1.230469.996093 2.164062 1.320312 0 0 0 .074219.648438.074219 0 0 1.601562-.113281 2.441406-.339844 0 0 .382813-.113281.6875-.378906 0 0 1.527344-1.515625 1.679687-2.125 0 0 .152344-.339844.1875-.757812 0 0 .152344-1.550782.039063-2.234376 0 0-.039063-.304687-.152344-.757812 0 0-.851562-3.347656-4.324219-3.589844.050782-.839844.605469-4.972656-2.40625-9.257812-1.664062-2.371094-4.675781-3.792969-4.675781-3.792969-1.742187-1.007813-3.90625-1.164063-4.878906-1.179687zm.570313.914062c1.179687-.003906 2.175781.285156 2.175781.285156 8.292969 2.710938 8.105469 9.570313 8.105469 9.570313v.007812c-.03125-.042969-.0625-.082031-.136719-.160156-.835938-1.210937-2.285157-2.121094-2.628907-2.765625-.382812-1.136719-1.164062-1.953125-1.164062-1.953125-1.03125-1.191406-2.117188-1.667969-2.117188-1.667969-1.105468-.871094-3.910156-.414062-3.910156-.414062-.535156.113281-1.828125-.058594-1.828125-.058594-2.863281-.152344-4.636719.058594-4.636719.058594-3.191406.296875-4.703124 1.105468-4.703124 1.105468-.558594-.40625-1.113282-.652343-1.113282-.652343.488282-.6875.953125-1.328125.953125-1.328125 1.394531-1.570313 4.082031-1.515625 4.082031-1.515625 3.296876-.265625 6.40625-.492188 6.40625-.492188.175782-.011719.347657-.019531.515626-.019531zm2.195312 3.601562c.285156-.019531 1.316406.191407 1.316406.191407.402344.09375.707032.320312.707032.320312.914062.605469 1.714843 1.6875 1.714843 1.6875.210938.167969.304688.566407.304688.566407.191406.609374.269531.988281.269531.988281.003906.027343.03125.078125.078125.144531 0 0 .683594.59375 1.082031 1.027344.550782.597656 1.449219 1.441406 2.214844 2.9375.355469.699218.378906 1.367187.378906 1.367187 0 .15625-.019531.367188-.035156.527344-.101562.042969-.808594.355469-.878906.777344 0 0-.417969.609375.113281 1.402343 0 0 .609375.988282 1.296875 1.667969 0 0 .039062.910157-.113281 1.214844 0 0-.878907 1.140625-2.570313 1.90625-.40625-.023437-1.152344-.207031-2.4375-1.011719 0 0 .253906-1.765625-.613281-3.03125 0 0 0 1.316406-.050781 1.617188-.050782.304687 0 .355468-.203125.605468 0 0-.8125 1.0625-2.644531 1.71875 0 0-.40625.152344-.253907.558594 0 0 .609375 1.007813.609375 1.71875 0 0 0 .757813-.710937.65625 0 0-7.425781-1.316406-12.152344-.683594 0 0-.40625 0-.511719.277344 0 0-.023437.152344.128906.179688 0 0 1.375.023437 1.601563.023437 0 0-.140625 1.125-.304687 1.589844 0 0 0 .152344-.164063.167969 0 0-1.246094-.066406-1.753906-.039063 0 0-.179688.039063-.21875-.101562 0 0-.277344-.605469-.304688-1.921875 0 0-.328125.101562-.484375.203125 0 0-.050781.039062-.046875.125 0 0-.230469 1.871093-.054687 4.09375 0 0 .027344.355469.257812.355469 0 0 3.507813-.027344 8.21875.769531 0 0 2.859375.492187 3.660156.550781 0 0 .453126.082031.574219.054688 0 0 .324219.019531.820313-.164063 0 0 1.546875-.578125 1.980468-.679687 0 0 .941407-.328126.992188-.960938 0 0 .28125-1.84375.253906-4.371094 0 0-.050781-.152344.101563-.277344 0 0 1.003906-.863281 2.675781-.828124-.09375 1.605468.011719 3.097656.019531 3.171874.152344 1.25.304688 1.609376.304688 1.609376.382812.71875.726562 1.648437.726562 1.648437.171875.4375.113281.703125.113281.703125-.246093 1.039062-.722656 1.796875-.722656 1.796875-.269531.53125-1.394531 1.253906-1.394531 1.253906-1.011719.660157-4.0625 2.160157-4.0625 2.160157-.398437.148437-1.105469.566406-1.105469.566406.324219-1.210938.363282-2.046875.363282-2.046875-1.390626 2.617187-3.394532 3.828125-3.394532 3.828125-.34375.246094-.78125.152344-.78125.152344-2.078125-.226563-2.347656-.417969-2.347656-.417969-.324219-.09375-.457031-.1875-.457031-.1875-.417969-.210938-2.15625-1.496094-2.15625-1.496094-.359375-.246094-.722657-.417969-.722657-.417969-.238281-.246094-2.347656.113282-2.347656.113282-.265625.113281-1.964844.226562-1.964844.226562-.457031.019531-.722656-.339844-.722656-.339844-1.03125-1.042968-1.390625-1.972656-1.390625-1.972656-.210937-.414062.074219-.964844.074219-.964844.269531-.550781 1.203125-1.535156 1.203125-1.535156-.117187-.132812-.191406-.324219-.191406-.324219-1.449219-3.902343-.382813-7.824219-.382813-7.824219.117188-.53125.78125-1.421874.78125-1.421874.097656-.132813-.1875-.285157-.1875-.285157-1.242187-.796875-2.289062-1.835937-2.289062-1.835937-.191406-.304688-.152344-.53125-.152344-.53125-.078125-.4375-.039062-1.175782-.039062-1.175782-.019532-.152343.078124-.285156.078124-.285156.265626-.492187.953126-1.097656.953126-1.097656.304687-.226562.53125.054688.53125.054688 1.773437 1.082031 2.785156 1.347656 2.785156 1.347656.515625.207031.800781-.058594.800781-.058594 2.136719-1.421875 2.6875-2.859375 2.6875-2.859375.785156-.929687 1.183594-3.640625 1.183594-3.640625.230469-1.058594 1.164062-1.894531 1.164062-1.894531 4.480469-3.335938 7.171875-3.828125 7.171875-3.828125.324219-.132813 1.027344-.113282 1.027344-.113282zm-15.519531.03125c.445312.027344.855469.210938.855469.210938.609374.199219 2.058593 1.054688 2.058593 1.054688l.382813-.199219c1.660156-.792969 3.871094-.945313 3.871094-.945313.992187-.09375 1.886718-.113281 1.886718-.113281.726563 0 2.214844.167969 2.214844.167969-1.222656.457031-4.863281 2.921875-4.863281 2.921875-.535157.320312-.859375.925781-.859375.925781-.074219.167969-.324219.757812-.324219.757812-.398437.835938-1.46875.816407-1.46875.816407-.152344.035156-.246094-.039063-.246094-.039063-.535156-.328125-1.757812-1.761718-2.164062-2.269531-.964844-1.199219-1.347657-.914063-1.347657-.914063-.417968.113282-.914062.816407-.914062.816407-.4375.546875-.878906 1.570312-.878906 1.570312-.113282-.125-.484375-.5625-.753906-1.066406-.351563-.65625-.082032-1.054687-.082032-1.054687.800782-1.707032 1.867188-2.445313 1.867188-2.445313.214844-.171875.496094-.210937.765625-.195313zm15.691406 2.753907c-.398437 0-.855469.324219-.855469.324219-.707031.359374-2.441406 1.742187-2.441406 1.742187-.878906.757813-1.203125 1.003906-1.203125 1.003906-1.046875.304688-2.136719.058594-2.136719.058594-.09375-.039063-.09375-.058594-.09375-.058594l-.402344-.8125c-.378906.246094-.820312.757813-.820312.757813-.132812.148437-.152344.414062-.152344.414062-.074218.34375-.132812 1.023438-.113281 1.101563.023437.097656.820313.699219.820313.699219.457031.398437 1.144531 1.0625 1.144531 1.0625 1.066406 1.003906 2.039062 1.96875 2.039062 1.96875.152344-.132813.859375-.527344.859375-.527344.285156-.152344.761719-.097656.761719-.097656 1.089844.058593 2.9375.039062 2.9375.039062.78125-.058594 1.105469-.664062 1.105469-.664062.78125-1.535157.746094-3.125.746094-3.125.285156-.171876.957031-.078126.914062-.171876-1.601562-3.355468-3.109375-3.714843-3.109375-3.714843zm8.144531 7.636719c.074219-.007813.132813 0 .132813 0 3.929687-.074219 4.539062 3.300781 4.539062 3.300781.535157 2.007812-.230469 3.371093-.230469 3.371093-.53125 1.097657-1.828124 1.820313-1.828124 1.820313-2.023438.53125-2.898438.226563-2.898438.226563-1.296875-.570313-1.414062-.871094-1.414062-.871094-.152344-.265625-.035157-.570313-.035157-.570313-.039062-.152343.113281-.265625.113281-.265625.113282-.074218.378907-.074218.378907-.074218.878906.871093 2.214843.757812 2.214843.757812 1.601563-.304688 2.25-1.210938 2.25-1.210938.382813-.269531.382813-1.175781.382813-1.175781 0-1.972656-.800781-2.691406-.800781-2.691406-.878906-1.289063-2.710938-1.214844-2.710938-1.214844-.304687 0-.304687-.148437-.304687-.148437-.191407-.230469-.226563-.457032-.226563-.457032-.117187-.339843.1875-.683593.1875-.683593.078125-.074219.171875-.101563.25-.113281zm-18.296875.199218c-.074219-.011718-.183593.03125-.335937.257813 0 0-.34375.585937-.570313 1.117187 0 0-.25.664063-.992187 1.34375 0 0-.648438.664063-.746094 1.023438 0 0-.152344.417968.132812.816406 0 0 .382813.550781.804688.605469 0 0 .324219.039062.550781-.265625 0 0 .667969-.660156.898438-.605469 0 0 .171875 0 .378906.226563 0 0 .878906 1.15625 1.8125 1.0625 0 0 .398437.039062.742187-.304688 0 0 .460938-.414062.59375-.511719 0 0 .457032-.246093.152344-.585937 0 0-1.296875-1.441406-1.871094-3.902344 0 0-.054687-.210938-.167968-.132812 0 0-.25.09375-.515625.28125 0 0-.289063.210937-.476563.058593 0 0-.125-.023437-.171875-.171875-.097656-.285156-.117187-.226562-.117187-.226562s-.03125-.070313-.101563-.085938zm19.230469 2.378906c1.335938.417969 1.640625 1.136719 1.71875 1.25.105469.160157.152344.417969.152344.417969.074218.570313 0 1.363281 0 1.363281-.039063.570313-.535156.835938-.535156.835938-1.792969 1.058594-2.554688.1875-2.554688.1875 1.027344-.792969 1.332031-1.667969 1.332031-1.667969.382813-.910156-.113281-2.386719-.113281-2.386719zm-29.207031 1.007813c.3125-.003906.617187.015625.90625.066406v.007813c.285156.757812 1.71875 2.3125 1.71875 2.3125.246093.226562-.039063 1.15625-.039063 1.15625-.613281 2.289062-.398437 4.839844-.140625 6.460937-1.359375-.160156-5.214843-.542969-7.226562.171875 0 0-3.464844.976563-3.652344 3.640625 0 0-1.53125-2.46875 1.214844-5.855469 0 0 2.328125-3.085937 8.125-4.472656 0 0-.453125-.121094-1.375.039063 0 0-2.820313.378906-6.742188-.660157 0 0 1.125 1.011719 3.707031 1.332032 0 0-1.207031.753906-1.730468 1.085937 0 0-3.660156-.558593-5.492188-2.476562 0 0 1.675782-.152344 4.628906-1.113281 0 0 2.644532-1.058594 3.609376-1.3125 0 0 1.257812-.371094 2.488281-.382813zm-12.324219.175781c.339844-.003906.695312.0625 1.054688.230469 0 0 .589843.355469.734374.5 0 0 .6875-.316406 1.5-.117187 0 0 .648438.03125 1.210938.671874 0 0-3.121094.925782-4.375.640626 0 0 1.816406 2.242187 4.195312 3.402343.546876.273438 1.121094.488281 1.703126.589844 0 0-1.46875 1.171875-2.816407 3.546875-.058593.101562-.023437.039062-.128906.089844-.316406.140625-.839844.300781-1.421875.667968 0 0-.257812.214844-.558594.128907 0 0-1.546875-.34375-1.847656-.941407 0 0-.214844-.125-.214844-.425781 0 0-.128906-.769531.300782-2.050781 0 0-.6875.171875-1.160157 1.070312 0 0-.816406.167969-.988281-.640624 0 0-.214844-.726563.300781-1.238282 0 0 .988281-.597656 1.375-1.367187 0 0-1.589843-1.023438-1.761719-1.835938 0 0-.300781-.554687.300782-1.582031 0 0 1.136718-1.324219 2.597656-1.339844zm58.882812.238282c1.441407-.023438 2.519532 1.386718 2.519532 1.386718.601562 1.027344.300781 1.582032.300781 1.582032-.171875.808593-1.761719 1.835937-1.761719 1.835937.386719.765625 1.375 1.367187 1.375 1.367187.515625.511719.300782 1.238282.300782 1.238282-.171876.808594-.988282.636718-.988282.636718-.472656-.894531-1.160156-1.066406-1.160156-1.066406.429688 1.28125.300781 2.050782.300781 2.050782 0 .296874-.214843.425781-.214843.425781-.300782.597656-1.847657.941406-1.847657.941406-.300781.085937-.558593-.128906-.558593-.128906-3.09375-1.964844-4.511719-1.496094-4.511719-1.496094-1.890625-.085937-6.875 1.667969-6.875 1.667969-.574219.210937-5.148438 1.546875-6.742188 2.019531l.058594-.140625c.054687-.078125.148437-.457031.226563-.816406.09375-.386719.148437-.703125.148437-.703125.019531-.152344.019531-.308594.007813-.46875-.03125-.570313-.191407-.9375-.191407-.9375 8.074219-2.785157 11.992188-5.019531 11.992188-5.019531 2.363281-1.535157 2.492187-2.261719 2.492187-2.261719 1.203125-1.664063 1.761719-1.453125 1.761719-1.453125 1.117187-.382813 2.535156 1.113281 2.535156 1.113281-.171875-.855469-.386719-1.152344-.386719-1.152344-.128906-.214843.171876-.34375.171876-.34375.359374-.191406.714843-.273437 1.046874-.277343zm-.972656 3.621093c-.007812.007813-.011718.042969-.011718.121094 0 0-.417969 1.464844-.960938 1.925781 0 0-.308594.394532-1.074219.382813 0 0 .707031.527343 1.035157.316406 0 0 .234374-.109375.367187-.21875 0 0 .214844-.164063.300781-.234375 0 0 .089844-.074219.148438-.167969 0 0 .078125-.085937.148437-.296875 0 0 .21875-.300781.097657-1.628906 0 0-.03125-.222656-.050782-.199219zm-56.613281.445313s-.421875.773437-.164063 1.066406c0 0 .144532.214844.273438.328125 0 0 .191406.1875.277344.257813 0 0 .085937.078124.1875.125 0 0 .09375.0625.316406.101562 0 0 .335938.171875 1.636719-.144531 0 0 .382812-.113281.066406-.074219 0 0-1.519531-.191406-2.054687-.660156 0 0-.441407-.242188-.539063-1zm20.753906.851562c1.417969.019532 2.175781.15625 2.175781.15625 0 .757813-.253906 1.589844-.253906 1.589844-.050781.152344-.230468.125-.230468.125-.582032-.023438-2.109376-.101562-2.109376-.101562-.113281-.023438-.128906-.199219-.128906-.199219-.101562-.65625-.101562-1.566407-.101562-1.566407.230468-.003906.445312-.003906.648437-.003906zm2.621094.195313c1.828125.089843 2.882813.324219 2.882813.324219-.050782.757812-.355469 1.574218-.355469 1.574218-.0625.148438-.238281.109375-.238281.109375-.582032-.0625-2.175782-.226562-2.175782-.226562-.113281-.015625-.113281-.210938-.113281-.210938-.058594-.660156 0-1.570312 0-1.570312zm3.394531.363281c1.90625.253906 2.667969.617188 2.667969.617188-.125.671874-.433594 1.269531-.433594 1.269531-.058593.148437-.234375.113281-.234375.113281-.585937-.0625-1.949218-.230469-1.949218-.230469-.152344-.03125-.113282-.207031-.113282-.207031-.015625-.714844.0625-1.5625.0625-1.5625zm-8.730468 1.785156c.671874 0 1.519531.085938 1.519531.085938.078125.023437.066406.148437.066406.148437.0625.328125-.027344 1.226563-.027344 1.226563-.023437.128906-.101562.113281-.101562.113281-.53125-.101563-2.210938-.226563-2.210938-.226563-.128906.027344-.089843-.140624-.089843-.140624-.0625-.515626.101562-1.046876.101562-1.046876.027344-.152343.167969-.125.167969-.125.144531-.027343.347656-.035156.574219-.035156zm2.425781.109375s1.433593.011719 1.804687.101563c0 0 .125 0 .152344.175781 0 0 .164062.757813.242188 1.714844-.636719-.101563-1.5-.234375-2.632813-.425781 0 0 .152344-1.035157.253906-1.390626 0 0 .011719-.175781.179688-.175781zm3.074219.253907s1.601562.074218 1.90625.175781c0 0 .101562-.023438.152343.152343 0 0 .125.617188.199219 1.878907-.636719-.078125-1.351562-.175781-2.246094-.324219 0 0-.433594-.070312-.511718-.082031.015624-.078125.199218-1.089844.347656-1.625 0 0 .027344-.125.152344-.175781zm3.257812.402343s1.523438.203125 1.90625.328125c0 0 .125.027344.152344.179688 0 0 .191406.925781.242187 1.433594 0 0-.566406.175781-2.875-.082032.023438-.101562.226563-1.082031.394531-1.707031 0 0 .023438-.125.179688-.152344zm5.339844 2.953125c-.046875-.003906-.136719.015625-.28125.082032 0 0-1.324219.554687-1.703125.730468 0 0-.410157.328125-1.449219.152344 0 0-2.289062-.40625-3.511719-.53125 0 0-.378906.027344-.023437.175781 0 0 2.898437 1.011719 3.382812 1.214844 0 0 .886719.378906 1.523438.125 0 0 1.171875-.808594 2.007812-1.691406 0 0 .203125-.242188.054688-.257813zm3.242187 4.425782 11.691407 3.644531c2.835937.796875 4.554687.996093 4.554687.996093 2.519531.226563 4.007813-.9375 4.007813-.9375.257812-.257812.488281-.058593.488281-.058593 1.492187.824219 1.890625 2.25 1.890625 2.25.460937-.03125 1.261718.113281 1.261718.113281.945313.054688 1.402344 1.253906 1.402344 1.253906.546875 1.335938-.027344 2.246094-.027344 2.246094-.402343.796875-2.40625.855469-2.40625.855469-.171874.710937-.03125 1.109375-.03125 1.109375.085938 1.453125-.371093 1.792968-.371093 1.792968-.316407.425782-1.058594.144532-1.058594.144532.054687-.796875-.34375-1.480469-.34375-1.480469-.117187 1.136719-.832031 1.648437-.832031 1.648437-.230469.3125-.6875.230469-.6875.230469-1.144532-.058593-2.320313-.457031-2.320313-.457031-.230469-.140625-.917969-1.707031-.917969-1.707031-.429687-1.367188-1.203124-2.421875-1.203124-2.421875-.457032-.683594-2.75-1.648438-2.75-1.648438-1.808594-.859375-9.847657-3.726562-14.007813-5.195312-.066406-1.640625 1.203125-2.222656 1.660156-2.378906zm-20.238281 1.644531c.519531.226562 1.367188.136719 1.367188.136719s.53125-.015626 1.023437-.03125c.507813.085937 1.769531.398437 2.316406 1.484374-4.3125 1.484376-9.921875 3.449219-11.410156 4.136719 0 0-2.300781.941407-2.765625 1.621094 0 0-.785156 1.046875-1.230469 2.40625 0 0-.703125 1.558594-.933593 1.699219 0 0-1.179688.386718-2.324219.429687 0 0-.460938.082031-.683594-.234375 0 0-.710937-.519531-.816406-1.660156 0 0-.40625.679688-.359375 1.476562 0 0-.746094.277344-1.058594-.152343 0 0-.453125-.347657-.351562-1.796875 0 0 .148437-.398438-.015626-1.109375 0 0-2.003906-.078125-2.398437-.882813 0 0-.5625-.914062-.003906-2.246094 0 0 .46875-1.191406 1.414062-1.238281 0 0 .804688-.132812 1.265625-.101562 0 0 .414063-1.417969 1.914063-2.226563 0 0 .230469-.199218.484375.058594 0 0 1.476562 1.183594 4 .984375 0 0 1.722656-.183594 4.566406-.949219l6-1.800781zm-16.304688 5.703125c-.039062-.007813.117188.265625.117188.265625 1.015625 1.574219 1.53125 1.695312 1.53125 1.695312.054688.03125.265625.09375.265625.09375.347656.09375.414063.101563.414063.101563.515624.082031.746093.082031.746093.082031.175781.011719.433594-.058594.433594-.058594.542969-.050781.871094-1.246093.871094-1.246093-.835938.675781-1.523438.5-1.523438.5-1-.039063-2.734375-1.3125-2.734375-1.3125-.070312-.085938-.105468-.121094-.121094-.121094zm58.496094.300781c-.011718.003906-.050781.039063-.121094.125 0 0-1.746093 1.25-2.75 1.28125 0 0-.6875.167969-1.519531-.511719 0 0 .316407 1.195313.859375 1.25 0 0 .359375.082032.597656.078125 0 0 .382813.007813.539063 0 0 0 .164063-.003906.3125-.054687 0 0 .15625-.023438.421875-.195313 0 0 .507812-.140625 1.539062-1.707031 0 0 .160157-.273438.121094-.265625zm0 0"/><path d="m320.124242 284.252229s-5.172111 6.630084-3.525009 16.564652c0 0 .209822 6.197229 6.000908 13.439645 0 0 9.232166 9.860667 10.060963 11.095889 0 0 4.710502 4.919776 4.909833 14.959919 0 0 .409153 19.256805 1.23795 23.76484 0 0 .723886 13.840828 11.875922 21.5161 0 0 5.035727 3.779571 11.886414 5.532109 0 0 1.007145-6.091654 4.30135-10.652476 0 0 3.535499-5.996636 9.956051-4.750856 0 0 6.000908.62289 8.067654 9.047742 0 0 1.605138 5.035907 1.269423 10.684148 0 0 28.263016.865711 47.912842-25.802429 0 0 6.168765-8.921053 12.442442-20.270321 0 0 5.696666-10.462441 15.348475-19.19346 0 0 11.886414-10.67359 16.890667-17.02918 0 0 2.433935-2.924416 4.217421-5.933292l.125894-.211149c2.87456-4.803644 6.913633-14.178667 6.168765-28.20953l-4.091528-1.668078" fill="none" stroke="#000" stroke-miterlimit="10" stroke-width="1.8467" transform="matrix(.37234 0 0 -.369999 -113.480057 147.579313)"/><path d="m481.959912 281.866243c-.241295 11.613205-3.650902 17.979352-3.650902 17.979352-4.616083 11.212021-19.933085 23.775397-19.933085 23.775397-10.963197 9.892339-19.051833 24.313827-19.051833 24.313827-3.05291 5.679913-10.354713 16.902492-10.354713 16.902492-15.474369 21.009342-35.795625 22.878013-35.795625 22.878013-1.615629-10.525787-6.619883-15.308315-6.619883-15.308315-8.277475-7.242417-16.964104-3.315042-16.964104-3.315042-8.246003 3.483961-11.603154 12.415571-11.603154 12.415571-12.820121-5.173155-12.610299-23.384771-12.610299-23.384771s-.891743-9.089972-.629466-15.720056c.618975-15.530022-7.857832-23.184179-7.857832-23.184179-2.077237-2.269854-6.420552-6.830676-6.420552-6.830676-7.280821-8.509311-6.798231-13.861943-6.798231-13.861943-.797323-8.952725 6.011399-15.107723 6.011399-15.107723" fill="none" stroke="#000" stroke-miterlimit="10" stroke-width="4.6161" transform="matrix(.37234 0 0 -.369999 -113.480057 147.579313)"/><path d="m41.105469 12.546875-3.210938.363281.941407.976563-.464844 5.117187c-.070313.777344-.714844 1.464844-1.445313 1.546875-.050781.003907-.105469.007813-.15625.007813-.675781 0-1.167969-.511719-1.101562-1.246094l.464843-5.121094 1.140626-1.210937-4.242188.480469.945312.976562-.464843 5.117188c-.136719 1.507812 1.097656 2.175781 2.53125 2.175781.179687 0 .363281-.011719.550781-.03125 1.355469-.15625 2.769531-1.339844 2.902344-2.820313l.464844-5.121094zm-9.996094.984375c-.261719 0-.539063.023438-.859375.058594-2.195312.25-4.113281 2.53125-4.324219 4.875-.203125 2.210937 1.253907 4.003906 3.167969 4.003906.117188 0 .234375-.003906.355469-.019531.984375-.113281 1.714843-.28125 2.640625-.925781l.226562-2.472657-1.59375 1.675781c-.359375.394532-.714844.605469-1.179687.660157-.0625.007812-.121094.007812-.175781.007812-1.292969 0-1.140626-1.785156-1.011719-3.203125.132812-1.484375.332031-3.371094 1.800781-3.535156.0625-.007812.121094-.011719.175781-.011719.355469 0 .574219.144531.832031.410157l1.316407 1.359374.222656-2.472656c-.5625-.304687-1.035156-.410156-1.59375-.410156zm-4.617187.671875-6.988282.789063.941406.976562-.570312 6.296875-1.140625 1.210937 7.445313-.84375s-.796876-.699218-1.164063-1.679687l-.816406.867187-2.171875.246094.265625-2.964844 1.25-.140624.929687.976562.292969-3.234375-1.125 1.195313-1.25.140624.214844-2.359374 1.867187-.210938.714844.742188c.5625-1.277344 1.304688-2.007813 1.304688-2.007813zm0 0" fill="#ffd615"/></svg>