<svg height="65pt" viewBox="0 0 70 65" width="70pt" xmlns="http://www.w3.org/2000/svg"><path d="m67.6875 61.453125c-.023438-.023437-1.375-.960937-1.367188-2.917969v-29.148437l-9.992187-.003907 1.652344 1.757813c.375.402344 1.222656 1.644531 1.21875 2.683594-.007813 1.433593.011719 19.015625.015625 23.273437-1.164063.050782-3.230469.132813-5.09375.15625-2.882813.042969-4.664063-.03125-6.078125-.097656v-22.976562c-.023438-3.28125-4.292969-4.375-4.476563-4.421876-.007812 0-12.21875-2.78125-13.46875-3.066406 0-.007812-.585937-.152344-.585937-.152344v-5.300781h12.175781s1.65625.003907 2.648438.835938c0 0 3.355468-2.78125 7.046874-3.742188l-.480468.132813-22.054688.003906c-.816406 0-1.433594.234375-1.84375.691406-.40625.460938-.46875 1.015625-.46875 1.320313 0 .074219.003906.132812.007813.175781 0 0-.003907 5.929688-.003907 5.9375 0 .089844-.003906.183594-.003906.28125 0 .988281.160156 2.195312 2.160156 2.660156l12.25 2.820313c.039063.007812 4.011719.683593 4.027344 2.988281 0 .316406.003906.972656.003906 1.867188 0 5.578124-.03125 20.558593-.039062 22.601562.5.03125 1.648438.089844 1.648438.089844 1.464843.089844 5.117187.285156 7.355468.285156 2.859375 0 5.351563-.179688 6.941406-.320312 0 0 .765626-.066407 1.078126-.09375v-27.648438h1.222656l-.003906 28.835938-.214844.027343c-1.34375.167969-4.960938.488281-9.023438.488281-3.394531 0-8.445312-.382812-10.105468-.53125l-.226563-.023437v-15.375c-.207031.144531-.558594.324219-1.179687.414063l-2.320313.25c-.984375.085937-3.429687.238281-5.617187.238281-2.828126 0-6.996094-.464844-9.015626-.742188l-.210937-.03125v-1.574219l.316406.097657c.707031.214843 3.441407.9375 8.875.9375 6.480469 0 8.339844-.535157 8.753907-.980469.304687-.328125.457031-.785156.457031-1.390625v-7.027344c0-.054687-.035157-1.445312-2.851563-2.109375 0 0-13.1875-3.054687-13.195312-3.058594-.539063-.144531-2.300782-.804687-2.351563-3.023437v-6.820313c0-.132812.011719-1.289062.4375-1.929687.089844-.128906.175781-.230469.261719-.328125-1.226562 0-14.40625 0-14.859375 0v14.125h-1.378906v-14.117188h-7.3125v-1.308593h7.3125v-13.386719l.21875-.023438c1.28125-.140624 5.742187-.59375 9.324219-.59375 4.59375 0 8.433593.441407 9.5.578126l.21875.03125-.054688 1.921874-.324219-.128906c-.71875-.285156-1.585937-.484375-2.65625-.605468-1.328125-.144532-6.078125-.378907-6.613281-.402344-2.292969-.054688-5.289062.164062-7.09375.304687 0 0-.824219.058594-1.140625.085938v12.21875h39.84375l.386719.097656c-3.699219-.953125-6.902344-3.433594-6.933594-3.460937-.902344.757812-2.699219.589843-2.699219.589843-.003906 0-23.710937.003907-27.625.003907v-6.929688c1.738281-.101562 4.105469-.238281 7.175781-.109375 4.273438.1875 5.554688.539063 6.242188.730469 2.691406.742187 4.464844 2.171875 4.464844 2.171875l-.027344-8.8125-.4375-.0625c-.070312-.003907-7.335938-.917969-11.980469-.917969-5.855469 0-14.117187 1.246094-14.199219 1.261719l-1.289062.195312 2.023438 1.375c.949218.734375 1.089843 2.230469 1.089843 2.230469l.003907 8.890625h-1.972657c-1.71875 0-3.3125-.4375-3.476562-.484375l-1.007813-.300781 1.726563 3.53125v1.300781l-1.953125 3.644531 1.21875-.378906c.015625-.003906 1.695312-.496094 3.492187-.496094h1.96875v9.164063s.042969 2.140625-1.410156 3.199218c-1.449219 1.054688-2.394531 1.671876-2.394531 1.671876l.109375.019531h14.492187s-1.070312-.78125-2.480468-1.765625c-1.417969-.984375-1.371094-3.417969-1.371094-3.417969v-1.125l-.003906-7.746094h8.429687l-.003906 7.371094v.007813l.003906.011718c0 .035156.1875 3.796875 4.246094 4.753906 0 0 11.726562 2.703126 14.109375 3.253907l-.003906 5.394531c-1.574219.261719-5.660157.382812-7.242188.316406h-.023438c-8.089843 0-10.960937-3.195312-10.960937-3.195312.011719.011718.015625 9.191406.015625 9.191406s6.417969.972656 10.875.972656c3.359375 0 6.144531-.1875 7.316406-.28125l.023438 14.359375 1.15625.117188c-.003906 0 .035156.003906.035156.003906 1.097656.140625 6.835938.835937 12.074219.835937 4.667969 0 12.417969-1.078124 12.417969-1.078124l2.976562-.371094zm0 0" fill="#782f40"/><path d="m11.113281 17.171875v-12.21875c.316407-.023437 1.144531-.082031 1.144531-.082031 1.804688-.140625 4.800782-.363282 7.09375-.304688.535157.023438 5.285157.253906 6.613282.402344 1.070312.117188 1.9375.316406 2.65625.601562l.324218.132813.050782-1.925781-.21875-.027344c-1.066406-.136719-4.90625-.582031-9.5-.582031-3.578125 0-8.039063.457031-9.320313.59375l-.21875.027343v13.382813h-7.3125v1.3125h7.3125v14.117187h1.375v-14.128906c.457031 0 13.632813.003906 14.859375.003906-.082031.09375-.167968.195313-.257812.328126-.425782.636718-.4375 1.796874-.4375 1.925781v6.824219c.050781 2.21875 1.8125 2.875 2.351562 3.023437.007813 0 13.195313 3.054687 13.195313 3.054687 2.816406.667969 2.851562 2.054688 2.851562 2.113282v7.023437c0 .609375-.152343 1.0625-.457031 1.390625-.414062.449219-2.277344.980469-8.757812.980469-5.429688 0-8.164063-.71875-8.871094-.9375l-.316406-.097656v1.578125l.210937.027344c2.015625.277343 6.1875.746093 9.015625.746093 2.1875 0 4.628906-.15625 5.617188-.238281l2.320312-.25c.621094-.089844.972656-.273438 1.179688-.417969v15.378907l.222656.019531c1.660156.148437 6.714844.53125 10.105468.53125 4.0625 0 7.683594-.316407 9.027344-.488281l.214844-.027344v-28.832032h-1.222656v27.648438c-.308594.027344-1.078125.089844-1.078125.089844-1.585938.144531-4.078125.320312-6.941407.320312-2.234374 0-5.886718-.195312-7.351562-.285156 0 0-1.152344-.058594-1.648438-.085938.007813-2.042968.039063-17.027343.039063-22.605468 0-.890625-.003906-1.542969-.007813-1.867188-.011718-2.304687-3.988281-2.980468-4.023437-2.988281l-12.253906-2.816406c-2-.46875-2.15625-1.675781-2.15625-2.664063 0-.097656 0-.1875 0-.277344 0-.007812.007812-5.9375.007812-5.9375-.007812-.042968-.007812-.101562-.007812-.175781 0-.308593.0625-.859375.472656-1.320312.402344-.460938 1.023437-.691407 1.839844-.691407l22.050781-.007812.484375-.128906 2-.542969h-.003906l-2.425781-.625zm0 0" fill="#ceb888"/></svg>