<svg height="28pt" viewBox="0 0 70 28" width="70pt" xmlns="http://www.w3.org/2000/svg"><path d="m10.382812.304688c-.644531 0-1.300781.066406-1.957031.203124-4.34375.886719-7.324219 5.335938-7.921875 9.074219-1.328125 8.3125 2.539063 15.230469 6.886719 16.867188.730469.277343 1.566406.421875 2.414063.421875 1.265624 0 2.472656-.328125 3.398437-.917969 1.765625-1.136719 3.140625-2.570313 4.105469-4.277344.179687 1.457031.628906 2.625 1.347656 3.488281.914062 1.101563 2.222656 1.683594 3.792969 1.683594 1.253906 0 2.4375-.375 3.140625-.777344.703125.484376 1.632812.78125 2.496094.78125 1.40625 0 2.429687-1.175781 3.058593-2.078124.53125.808593 1.402344 1.808593 2.917969 2.054687.15625.027344.316406.042969.472656.042969 1.296875 0 2.449219-.828125 3.519532-2.535156.695312 1.546874 1.9375 2.410156 3.644531 2.511718.105469.007813.207031.011719.308593.011719 4.902344 0 6.3125-6.707031 6.667969-9.164063 1.6875-.703124 3.089844-2.09375 3.695313-2.957031h.027344c.179687 0 .359374.09375.460937.171875-.523437 1.082032-3.246094 7.109375-1.484375 10.183594.445312.78125 1.378906 1.710938 3.261719 1.710938.195312 0 .40625-.011719.625-.03125 1.117187-.109376 2.058593-.851563 2.742187-1.546876.445313.578126 1.199219 1.1875 1.878906 1.480469 1.34375.578125 2.699219.867188 4.042969.867188 1.59375 0 3.023438-.429688 3.738281-1.117188.785157-.765625 1.726563-3.308593 1.265626-4.464843-.164063-.414063-.480469-.707032-.875-.828126.511718-1.574218.675781-3.230468.488281-4.929687v-.027344l-.003907-.03125v-.007812c-.304687-1.726563-1.148437-2.835938-1.769531-3.644531-.3125-.414063-.636719-.839844-.628906-1.050782.019531-.523437-.175781-1.046875-.539063-1.429687-.367187-.386719-.875-.609375-1.398437-.609375-1.027344 0-1.5625.886718-1.773437 1.222656l-.035157.058594c-.148437.230468-.359375.585937-.359375.585937-.699218 1.164063-1.28125 2.28125-1.894531 3.464844l-.019531.035156c-.503906.980469-1.078125 2.089844-1.765625 3.289063l-.132813.226562c-1.046875 1.800782-1.4375 2.476563-2.496094 3.714844l-.019531.023438-.011719.011718-.011718.015625-.015625.023438c-.253907.351562-.476563.5625-.625.671875-.042969-.734375.640625-2.484375 2.039062-5.210938l.015625-.035156c.199219-.394531.375-.734375.5-1l.007813-.019531v-.003907l.015625-.03125c.074218-.1875.160156-.378906.242187-.566406l.023438-.050781c.53125-1.179687 1.253906-2.792969.171875-4.523437l-.015625-.023438-.003907-.007812c-.585937-.867188-1.710937-1.324219-3.257812-1.324219-.683594 0-1.234375.089843-1.5.144531-.128906.023438-.25.058594-.359375.09375-.363281-.640625-.929687-.792969-1.375-.800781h-.039063c-.433593 0-1.492187.148437-1.941406 1.53125l-.035156.101562c-.132812.417969-.40625 1.285157-.996094 2.003907-.746094-2.359376-2.988281-3.523438-5.046875-3.628907-.085937-.003906-.167969-.007812-.253906-.007812-1.804687 0-4.984375 1.011719-6.023437 7.792969-.347657 2.300781-1.492188 4.085937-2.246094 4.085937-.03125 0-.0625-.003906-.097656-.011719-.117188-.203125-.519532-1.183594-.308594-4.808594.121094-2.132812.386718-4.082031.507812-4.882812h.265625c.152344.003906.304688.007812.441407.007812.117187 0 .222656-.003906.320312-.007812h.1875c.949219 0 1.71875-.777344 1.71875-1.730469v-.257812c0-.953125-.769531-1.730469-1.71875-1.730469h-.894531c.03125-.28125.066406-.582031.09375-.8125.105469-.851562.199219-1.652344.152343-2.15625-.105468-1.105469-1.214843-2.332031-2.632812-2.332031-.628906 0-1.222656.25-1.714844.726562-.644531.617188-.796875 1.808594-.96875 3.699219-.027344.265625-.058594.597656-.089844.875h-1.097656c-.945312 0-1.714844.777344-1.714844 1.730469v.257812c0 .953125.769532 1.730469 1.714844 1.730469h.789063c-.015625 1.703125-.371094 5.574219-1.003907 8.1875.25-2.671875.523438-6.191406-.820312-8.265625l-.011719-.019531-.011719-.015625-.019531-.027344c-.445312-.585937-.925781-.707031-1.253906-.707031-.074219 0-.148437.003906-.21875.015625-.714844-.675781-1.597656-1.140625-2.457031-1.289063-.277344-.042968-.554688-.070312-.824219-.070312-1.8125 0-3.339844 1.082031-4.40625 3.082031-.023437-.253906-.050781-.480469-.070313-.675781l-.019531-.207032-.003906-.03125v-.003906c-.179687-1.292968-.972656-2.042968-2.242187-2.109375-.042969-.003906-.089844-.003906-.136719-.003906-1.789063 0-5.710938 1.871094-6.375 4.433594-.210938.816406-.246094 2.355469 1.785156 3.6875-.140625.722656-.386719 1.269531-.765625 1.707031-.34375.40625-.78125.636719-1.195312.636719-.132813 0-.265626-.023438-.402344-.078125l-.03125-.011719-.019532-.003906c-.421874-.132813-1.554687-1.148438-2.382812-2.984375-.664062-1.476563-1.550781-4.480469-.019531-8.003906.304687-.695313 1.847656-2.523438 3.53125-2.523438.105469 0 .207031.007812.304687.019531.53125.074219.625.679688.640625.808594.011719.09375.011719.21875.015625.363281.007813.414063.015625.929688.289063 1.4375l.019531.035156.023438.039063.023437.035156c.441406.628907 1.085937.992188 1.78125.992188h.011719.027344c1.222656 0 4.78125-2.578125 4.855468-4.09375.039063-1.011719-1.003906-2.234375-1.453125-2.714844-.828125-.878906-3.140625-2.929687-6.699219-2.929687zm13.457032 14.488281c.210937 0 .414062.144531.464844.214843.195312.507813.433593 4.667969-.59375 6.300782-.222657.359375-.371094.359375-.433594.363281-.175782 0-.285156-.054687-.402344-.183594-.511719-.574219-.652344-2.105469-.527344-3.257812.253906-2.375.933594-3.4375 1.492188-3.4375zm17.945312 2.371093c.632813.59375 1.421875.964844 2.355469 1.113282-.21875.882812-.753906 2.277344-1.613281 2.957031l-.027344.023437-.007812.011719c-.046876.039063-.140626.082031-.167969.082031-.058594-.027343-.230469-.261718-.347657-.777343l-.011718-.039063-.007813-.027344-.019531-.058593c-.210938-.59375-.265625-2.105469-.152344-3.285157zm21.632813 1.308594c.097656 1.160156-.015625 2.699219-.699219 3.644532-.503906.699218-1.167969 1.027343-2.109375 1.027343-.292969 0-.574219-.03125-.804687-.066406.296874-.386719.601562-.785156.917968-1.152344.339844-.425781.742188-.953125 1.132813-1.460937l.011719-.019532c.441406-.574218 1.039062-1.351562 1.550781-1.972656zm0 0" fill="#fa4616"/><path d="m10.382812.738281c-.613281 0-1.242187.0625-1.871093.191407-4.15625.851562-7.007813 5.125-7.582031 8.71875-1.296876 8.097656 2.421874 14.816406 6.609374 16.394531.683594.257812 1.46875.394531 2.265626.394531 1.1875 0 2.3125-.300781 3.167968-.851562 2.480469-1.59375 3.894532-3.613282 4.679688-5.640626-.03125 2.179688.414062 3.835938 1.332031 4.941407.832031 1 2.027344 1.527343 3.464844 1.527343 1.28125 0 2.558593-.433593 3.164062-.867187.632813.523437 1.585938.871094 2.472657.875 1.394531 0 2.386718-1.378906 3.070312-2.449219.476562.8125 1.273438 2.148438 2.972656 2.429688.136719.023437.273438.035156.40625.035156 1.140625 0 2.179688-.769531 3.171875-2.355469.160157-.257812.308594-.519531.441407-.757812.34375 1.242187 1.179687 2.949219 3.578124 3.089843.09375.007813.1875.011719.28125.011719 4.789063 0 6.03125-7.175781 6.273438-9.042969 1.835938-.679687 3.296875-2.226562 3.800781-2.984374.074219-.0625.183594-.09375.316407-.09375.378906 0 .769531.238281.898437.457031.058594.101562.039063.152343.015625.199219-.039062.0625-3.371094 6.769531-1.566406 9.914062.390625.683594 1.210937 1.496094 2.890625 1.496094.183593 0 .382812-.011719.585937-.027344 1.058594-.105469 1.988282-.859375 2.851563-1.824219.210937.527344 1.113281 1.417969 1.972656 1.789063 1.292969.550781 2.59375.832031 3.878906.832031 1.460938 0 2.808594-.390625 3.441407-1 .6875-.667969 1.550781-3.015625 1.164062-3.988281-.152344-.382813-.480469-.613282-.878906-.613282-.058594 0-.125.003907-.1875.015626.628906-1.660157.851562-3.441407.65625-5.273438l-.007813-.019531v-.019531c-.28125-1.621094-1.089843-2.683594-1.679687-3.457032-.414063-.539062-.738282-.964844-.722656-1.332031.015624-.40625-.132813-.8125-.421876-1.113281-.285156-.300782-.679687-.472656-1.085937-.472656-.785156 0-1.21875.710937-1.402344 1.015624-.019531.027344-.035156.050782-.046875.070313-.148437.226563-.351562.570313-.351562.570313-.699219 1.167968-1.28125 2.289062-1.898438 3.476562-.535156 1.039062-1.09375 2.113281-1.777344 3.308594l-.128906.226562c-1.0625 1.828125-1.464844 2.511719-2.546875 3.78125l-.019531.019532-.015625.023437c-.511719.707031-.949219.960937-1.125.960937-.015625 0-.023437 0-.027344-.003906-.09375-.03125-.140625-.074218-.175781-.164062-.417969-1.035156 1.285156-4.363282 2.011719-5.785156.207031-.40625.382812-.753907.511719-1.023438l.003906-.015625.007812-.015625c.085938-.210938.179688-.421875.273438-.632812.515625-1.148438 1.160156-2.578126.199218-4.109376l-.003906-.011718-.007812-.007813c-.632813-.941406-1.929688-1.136719-2.902344-1.136719-.648438 0-1.167969.082032-1.417969.132813-.175781.035156-.34375.09375-.503906.148437-.050781.015626-.113281.039063-.175781.058594-.097656-.304687-.351563-.890625-1.144532-.902344l-.023437-.003906h-.007813c-.421874 0-1.183593.164063-1.535156 1.234375l-.03125.097657c-.179687.5625-.59375 1.878906-1.648437 2.722656-.414063-2.621094-2.671875-3.933594-4.828125-4.046875-.074219-.003907-.152344-.003907-.230469-.003907-1.667969 0-4.609375.964844-5.597656 7.425782-.367188 2.414062-1.589844 4.453125-2.671875 4.453125-.109375 0-.21875-.019531-.335938-.0625-.007812-.003907-.777344-.433594-.5-5.214844.128906-2.265625.429688-4.4375.570313-5.292969h.644531c.148438.003906.296875.007813.429688.007813.113281 0 .210937-.003907.304687-.007813h.203125c.710938 0 1.289062-.582031 1.289062-1.300781v-.253906c0-.714844-.578124-1.296875-1.289062-1.296875h-1.363281c.023437-.363282.089843-.898438.140625-1.292969.097656-.828125.191406-1.613281.144531-2.070313-.085937-.914062-1.050781-1.941406-2.203125-1.941406-.515625 0-1.007812.210938-1.417969.609375-.535156.511719-.679687 1.6875-.839843 3.425781-.039063.417969-.089844.953126-.140626 1.269532-.046874 0-.085937 0-.117187 0h-1.355469c-.707031 0-1.285156.582031-1.285156 1.296875v.253906c0 .71875.578125 1.300781 1.285156 1.300781h1.175782c.011718 0 .023437 0 .035156.003906.066406 1.738282-.574219 9.429688-1.972656 11.207032-.019532.023437-.039063.046875-.054688.0625-.023438-.535156.070312-1.554688.148438-2.40625.246093-2.640625.585937-6.253906-.726563-8.273438l-.011719-.019531-.015625-.019531c-.269531-.355469-.578125-.535156-.910156-.535156-.132813 0-.25.027343-.34375.066406-.679687-.707032-1.550781-1.199219-2.402344-1.34375-.253906-.042969-.507812-.066406-.753906-.066406-2.101563 0-3.765625 1.617187-4.730469 4.515624-.015625-1.011718-.105468-1.878906-.171875-2.5l-.023437-.207031v-.019531c-.152344-1.09375-.765625-1.679688-1.828125-1.738281-.042969 0-.082031 0-.125 0-1.632813 0-5.355469 1.777343-5.960938 4.109375-.230469.902344-.09375 2.207031 1.839844 3.363281-.003906.027344-.007813.054687-.011719.078125l-.003906.035156c-.148438.894532-.429688 1.558594-.894531 2.09375-.425781.5-.980469.785156-1.519531.785156-.183594 0-.367188-.035156-.546876-.101562l-.015624-.007812-.015626-.003907c-.582031-.183593-1.785156-1.304687-2.648437-3.21875-.695313-1.542969-1.621094-4.683593-.019531-8.355469.34375-.792968 2.019531-2.78125 3.921875-2.78125.121093 0 .242187.007813.359375.023438.894531.121094 1.003906 1.113281 1.011718 1.175781.015626.121094.015626.265625.019532.414063.007812.386718.015625.828125.238281 1.238281l.015625.035156.023438.03125c.359374.515625.878906.808594 1.417968.808594h.023438.027344c1.007812 0 4.363281-2.445313 4.425781-3.667969 0-.003906 0-.007812 0-.011718.027343-.691407-.667969-1.691407-1.335938-2.394532-.789062-.84375-2.996093-2.796875-6.386719-2.796875zm33.058594 12.78125c.175782.050781.472656.207031.765625.523438.300781.328125.476563.640625.554688.851562-.234375-.074219-.574219-.257812-.859375-.566406-.308594-.335937-.429688-.640625-.460938-.808594zm-19.601562.839844c.398437 0 .75.265625.847656.453125.277344.589844.492188 4.964844-.609375 6.730469-.316406.5-.605469.558593-.800781.558593-.296875 0-.523438-.101562-.722656-.324218-.625-.703125-.769532-2.355469-.632813-3.59375.257813-2.394532.972656-3.824219 1.917969-3.824219zm17.667968 1.816406c.085938.125.1875.257813.300782.390625.699218.800782 1.652344 1.246094 2.847656 1.332032-.132812.867187-.738281 2.785156-1.851562 3.667968l-.027344.027344c-.105469.089844-.292969.1875-.46875.1875-.445313 0-.675782-.777344-.753906-1.109375l-.007813-.039063-.011719-.035156c-.324218-.90625-.292968-3.28125-.027344-4.421875zm22.195313 1.308594c.242187 1.066406.390625 3.46875-.632813 4.886719-.585937.8125-1.386718 1.207031-2.457031 1.207031-.378906 0-.726562-.050781-.992187-.089844-.078125-.015625-.15625-.027343-.226563-.039062-.140625-.023438-.269531-.046875-.382812-.058594.148437-.1875.292969-.375.4375-.5625.324219-.417969.628906-.8125.9375-1.175781.332031-.414063.71875-.917969 1.128906-1.453125.636719-.828125 1.601563-2.09375 2.1875-2.714844zm0 0" fill="#fff"/><path d="m10.613281 1.390625c-.621093-.019531-1.28125.035156-1.972656.175781-3.734375.761719-6.503906 4.621094-7.074219 8.1875-1.25 7.792969 2.296875 14.207032 6.199219 15.679688 1.496094.566406 3.511719.46875 4.859375-.398438 6.273438-4.027344 5.351562-10.941406 5.105469-13.320312-.046875-.359375-.164063-1.121094-1.222657-1.175782-2.023437-.109374-8.59375 3.601563-3.734374 6.347657.226562.148437.1875.34375.148437.683593-.148437.894532-.445313 1.722657-1.046875 2.417969-.675781.792969-1.734375 1.265625-2.78125.867188-1.824219-.574219-5.824219-6.125-3.0625-12.453125.484375-1.109375 2.597656-3.464844 4.960938-3.140625 1.074218.148437 1.5 1.128906 1.558593 1.738281.0625.46875-.035156 1.015625.183594 1.425781.210937.296875.542969.546875.925781.535157.675782.046874 3.800782-2.308594 3.800782-3.054688.042968-.816406-2.496094-4.394531-6.847657-4.515625zm22.476563 2.265625c-.347656-.023438-.71875.09375-1.066406.425781-.699219.675781-.574219 4.597657-.96875 4.820313-.109376.0625-.324219.050781-.570313.054687h-1.355469c-.351562 0-.640625.292969-.640625.648438v.253906c0 .359375.289063.652344.640625.652344h1.1875c.300782.011719.539063.050781.59375.132812.363282.535157-.535156 13.183594-2.949218 12.558594-1.0625-.277344 1.238281-8-.765626-11.09375-.511718-.671875-.679687.101563-.960937-.136719-.582031-.71875-1.425781-1.285156-2.289063-1.429687-3.152343-.535157-4.71875 2.835937-5.316406 6.207031-1.972656 11.167969 5.332032 9.1875 6.617188 8.261719.316406-.230469.394531-.359375.527344-.203125.484374.5625 1.449218.957031 2.308593.960937 1.226563.003907 2.1875-1.601562 2.800781-2.566406.65625-1.132813.847657 2.144531 3.351563 2.558594 2.410156.398437 3.789063-4.097657 4.15625-4.074219.359375.023438-.054687 3.875 3.375 4.078125 5.078125.304687 5.921875-8.871094 5.921875-8.871094 2-.570312 3.535156-2.339843 3.894531-2.910156.828125-.894531 2.894531.203125 2.289063 1.300781-.554688.96875-4.929688 11.023438 1.285156 10.410156 1.738281-.171874 3.304688-2.765624 4.730469-4.453124 1.28125-1.589844 3.484375-4.710938 4.042969-4.730469.464843-.015625 1.21875 4.078125-.339844 6.242187-1.636719 2.273438-4.296875 1.222656-4.796875 1.277344-.09375.011719-.148438.132812-.125.238281.050781.210938.808593 1.085938 1.636719 1.441407 3.226562 1.386718 5.914062.640624 6.617187-.039063.699219-.675781 1.683594-3.84375.554687-3.449219-.472656.164063-1.066406 1.390625-1.558593 1.714844-.21875.144531-.554688.320312-.65625.230469 1.699219-2.207031 2.535156-4.875 2.214843-7.816407-.464843-2.671874-2.46875-3.59375-2.410156-4.925781.023438-.476562-.375-.910156-.863281-.910156-.480469 0-.769531.578125-.910156.796875-.140625.214844-.339844.550781-.339844.550781-1.292969 2.148438-2.191406 4.179688-3.667969 6.773438-1.1875 2.035156-1.582031 2.738281-2.746094 4.105469-.515624.710937-1.265624 1.398437-1.878906 1.191406-2.050781-.695313 1.164063-6.152344 1.964844-7.867188.542969-1.339844 1.449219-2.675781.527344-4.152344-.691406-1.015624-2.710938-.917968-3.667969-.726562-.324219.0625-.738281.273438-1.007813.261719-.546874-.023438-.199218-.9375-.945312-.949219-.667969-.011719-.863281.539062-.945312.785156-.195313.605469-.828126 2.863282-2.875 3.707032.113281-3.089844-2.320313-4.386719-4.277344-4.484376-1.957032-.101562-4.296875 1.226563-5.160156 6.867188-.429688 2.816406-2.042969 5.574219-3.863282 4.902344-1.988281-.738282-.371094-11.355469-.265625-11.660156.039063-.109376.246094-.09375.457031-.105469h.6875c.289063.003906.566407.015625.765626 0h.226562c.355469 0 .644531-.292969.644531-.652344v-.253906c0-.355469-.289062-.648438-.644531-.648438h-1.679688c-.117187-.007812-.210937-.023437-.261718-.054687-.269532-.171875.304687-3.023438.226562-3.894532-.058594-.5625-.710937-1.296874-1.476562-1.351562zm10.292968 9.199219c.378907.019531.875.292969 1.292969.746093.613281.664063.992188 1.53125.648438 1.855469s-1.285157-.023437-1.894531-.6875c-.609376-.660156-.824219-1.457031-.480469-1.78125.109375-.101562.257812-.144531.433593-.132812zm-19.613281.855469c.671875-.03125 1.269531.386718 1.488281.800781.480469.90625.699219 8.226562-1.972656 8.242187-1.960937.007813-2.179687-3.015625-2.007812-4.640625.363281-3.363281 1.511718-4.359375 2.492187-4.402343zm17.710938 1.296874c.316406-.003906.652343 2.316407 3.730469 2.257813.402343-.007813-.28125 3.445313-2.007813 4.8125-.492187.441406-1.785156.851563-2.273437-1.261719-.402344-1.113281-.464844-5.3125.519531-5.800781.011719-.003906.023437-.007813.03125-.007813zm0 0" fill="#003087"/></svg>