<svg height="45pt" viewBox="0 0 70 45" width="70pt" xmlns="http://www.w3.org/2000/svg"><path d="m68.144531.421875c-3.011719 1.25-6.90625 1.964844-10.683593 1.964844h-18.328126l-.96875-1.070313h-8.96875l-.972656 1.070313h-14.039062c-7.316406 0-9.894532-1.121094-12.28125-1.984375-1.171875-.3750002-1.65625.523437-1.558594 1.246094.027344.203124.292969 1.480468 1.332031 2.707031-.359375.265625-.3125.953125-.136719 1.242187.175782.324219.945313 1.578125 2.441407 2.40625-.121094.113282-.125.609375.164062.988282.515625.71875 1.554688 1.851562 3.160157 2.335937-.042969.695313.488281 1.992187 1.519531 1.945313l-.449219 1.304687-1.636719.753906-3.507812 6.296875 2.320312 4.605469c.375-.195313.976563-.5 1.796875-.867187-.453125.976562-.6875 1.992187-.6875 3.039062 0 7.15625 11.101563 12.859375 25.527344 13.53125 1.242188 1.484375 2.859375 2.773438 2.859375 2.773438s1.613281-1.289063 2.855469-2.773438c14.425781-.671875 25.53125-6.371094 25.53125-13.53125 0-.929688-.1875-1.835938-.546875-2.707031.472656.226562.839843.410156 1.09375.546875l2.519531-5.011719-3.089844-5.875-1.65625-.765625-.476562-1.335938c1.09375.082032 1.5625-1.304687 1.519531-1.929687 1.601563-.484375 2.644531-1.617187 3.15625-2.335937.21875-.289063.355469-.847657.148437-.976563 1.511719-.828125 2.265626-2.105469 2.460938-2.417969.296875-.46875.058594-1.140625-.140625-1.242187 1.042969-1.226563 1.304687-2.503907 1.335937-2.707031.117188-1.179688-.878906-1.515626-1.613281-1.226563" fill="#ccc"/><path d="m68.777344 1.488281c.046875-.296875-.238282-.148437-.238282-.148437-2.753906 1.144531-6.730468 2.042968-11.078124 2.042968h-18.765626l-.96875-1.066406h-8.089843l-.96875 1.066406h-14.480469c-7.234375 0-9.902344-1.082031-12.621094-2.042968 0 0-.285156-.148438-.238281.148437.046875.292969.507813 2.410157 2.792969 3.53125 0 0-.894532.144531-1.648438-.007812 0 0-.136718-.035157-.058594.105469.125.230468 1.25 2.242187 3.777344 2.589843 0 0-.324218.453125-1.234375.542969 0 0-.082031.046875-.023437.125.136718.1875 1.324218 1.976562 3.519531 2.171875 0 0-.484375 1.15625.292969 1.742187 0 0 .246094-.160156.535156-.160156.597656 0 .804688.53125.578125 1.195313l-.679687 1.980469-1.726563.800781-3.09375 5.546875 1.644531 3.261718s1.699219-.941406 4.957032-2.058593c-1.828126 1.667969-2.859376 3.554687-2.859376 5.546875 0 6.496094 10.890626 11.820312 24.738282 12.335937 1.171875 1.367188 2.207031 2.285157 2.207031 2.285157s1.039063-.917969 2.207031-2.285157c13.847656-.515625 24.738282-5.839843 24.738282-12.335937 0-1.867188-.902344-3.644532-2.523438-5.234375 2.675781.976562 4.066406 1.746093 4.066406 1.746093l1.847656-3.675781-2.691406-5.113281-1.730468-.800781-.71875-2c-.292969-.824219.132812-1.191407.582031-1.191407.324219 0 .535156.15625.535156.15625.777344-.585937.292969-1.742187.292969-1.742187 2.195312-.195313 3.382812-1.984375 3.519531-2.171875.054687-.078125-.027344-.125-.027344-.125-.90625-.085938-1.230469-.542969-1.230469-.542969 2.527344-.34375 3.652344-2.355469 3.777344-2.589843.078125-.140626-.058594-.105469-.058594-.105469-.757812.152343-1.648437.007812-1.648437.007812 2.28125-1.121093 2.746094-3.234375 2.792969-3.53125" fill="#036"/><path d="m5.238281 3.746094c-.019531.003906-.039062.019531-.03125.0625.011719.09375 1.886719 2.039062 5.273438 2.601562 0 0-1.851563.101563-3.449219-.179687 0 0-.105469-.03125-.070312.066406.042968.109375 1.222656 1.328125 4.300781 1.917969 0 0-.542969.34375-2.175781.359375 0 0-.117188 0-.050782.082031.074219.09375 1.335938.796875 3.070313.664062l-.140625.660157h-1.109375l1.0625 2.476562-1.421875 3.765625-1.785156.625-1.5625 3.230469s2.695312-1.34375 8.046874-2.59375c-.28125-.835937-.355468-1.828125 0-2.8125 0 0 .75 1.03125 2.992188 2.183594.113281-.019531.222656-.042969.335938-.0625l.925781-2.566407-2.710938.390626.695313-1.910157 4.921875-.214843 1.957031-2.710938-5.882812.214844.695312-2.53125h3.699219l-.273438 1.0625h4.585938l.535156-3.398438h-14.015625s-5.089844-.058594-8.378906-1.378906c0 0-.019532-.007812-.039063-.003906zm59.839844.109375c-.019531-.003907-.039063.003906-.039063.003906-2.90625 1.167969-7.070312 1.269531-8.144531 1.269531h-7.351562l.757812 2.335938h1.023438l2.566406 7.332031-4.054687-.910156-1.886719-6.421875h1.007812l-.710937-2.335938h-7.414063l.582031 2.335938h1.25l1.53125 6.296875c.4375 1.785156 2.203126 2.195312 6.5 3.191406l.691407.160156c2.648437-1.253906 3.507812-2.441406 3.507812-2.441406.417969 1.148437.242188 2.3125-.15625 3.21875l2.601563.601563c3.164062.730468 3.257812-.503907 2.691406-1.792969l-2.480469-5.640625c-.203125-.46875.074219-.742188.511719-.742188.429688 0 .691406.261719.792969.535156l.0625.011719c.480469-.792969-.707031-1.429687-.707031-1.429687 1.734374.128906 2.996093-.570313 3.074218-.667969.058594-.082031-.054687-.082031-.054687-.082031-1.632813-.015625-2.175781-.359375-2.175781-.359375 3.078124-.585938 4.257812-1.804688 4.300781-1.914063.035156-.097656-.070313-.066406-.070313-.066406-1.597656.28125-3.445312.175781-3.445312.175781 3.382812-.5625 5.257812-2.507812 5.269531-2.597656.007813-.046875-.007813-.0625-.03125-.066406zm-34.648437.039062-6.207032 9.808594-1.675781.214844-.773437 2.386719c1.144531-.191407 3.617187-.550782 6.699218-.65625l1.464844-2.625h6.667969l1.441406 2.734374c2.792969.148438 5.589844.371094 6.472656.445313l-.878906-2.5-1.625-.117187-5.460937-9.691407zm3.085937 2.171875 2.085937 3.914063h-4.375zm28.429687 11.941406c-.601562 0-1.082031.488282-1.082031 1.089844 0 .601563.480469 1.089844 1.082031 1.089844.597657 0 1.085938-.488281 1.085938-1.089844 0-.601562-.488281-1.089844-1.085938-1.089844zm0 .230469c.46875 0 .851563.382813.851563.859375 0 .472656-.382813.855469-.851563.855469-.472656 0-.851562-.382813-.851562-.855469 0-.476562.378906-.859375.851562-.859375zm-.445312.234375v1.246094h.230469v-.503906h.167969l.238281.503906h.253906l-.246094-.527344c.144531-.050781.246094-.1875.246094-.347656 0-.203125-.164063-.371094-.367187-.371094zm.230469.234375h.292969c.074218 0 .132812.0625.132812.136719s-.058594.136719-.132812.136719h-.292969zm-45.234375 3.84375c-2.238282 1.683594-3.539063 3.695313-3.539063 5.855469 0 5.367188 8.042969 9.816406 18.566407 10.640625-.617188-.878906-1.175782-1.839844-1.539063-2.808594l-2.390625.824219.945312-1.8125c-6.433593 1.378906-14.820312-2.550781-14.25-7.265625l1.59375.71875s-1.007812-2.824219 1.179688-5.707031c-.195312-.148438-.382812-.296875-.566406-.445313zm37.101562 0c-.183594.148438-.371094.296875-.566406.445313 2.1875 2.882812 1.179688 5.707031 1.179688 5.707031l1.59375-.71875c.570312 4.71875-7.816407 8.648437-14.25 7.265625l.945312 1.8125-2.390625-.824219c-.363281.96875-.921875 1.929688-1.539063 2.808594 10.523438-.824219 18.566407-5.273437 18.566407-10.644531 0-2.15625-1.300781-4.167969-3.539063-5.851563zm-28.398437 5.015625c-.277344.242188-.449219.5625-.449219.914063 0 .757812.800781 1.371093 1.789062 1.371093.695313 0 1.300782-.308593 1.59375-.753906zm19.691406 0-2.933594 1.53125c.292969.445313.894531.753906 1.597657.753906.988281 0 1.789062-.613281 1.789062-1.371093 0-.351563-.171875-.667969-.453125-.914063zm0 0" fill="#fff"/><path d="m20 24.792969c-.542969.753906-.851562 1.621093-.851562 2.546875 0 2.921875 3.09375 5.292968 6.90625 5.292968 2.128906 0 4.035156-.742187 5.300781-1.90625l-1.421875-.710937c-.867188 1-2.351563 1.65625-4.035156 1.65625-2.667969 0-4.835938-1.65625-4.835938-3.707031 0-.792969.324219-1.527344.882812-2.128906zm30.09375 0-1.945312 1.042969c.550781.601562.878906 1.335937.878906 2.128906 0 2.050781-2.164063 3.707031-4.835938 3.707031-1.683594 0-3.167968-.65625-4.03125-1.65625l-1.425781.710937c1.265625 1.164063 3.171875 1.90625 5.304687 1.90625 3.8125 0 6.90625-2.371093 6.90625-5.292968 0-.925782-.308593-1.792969-.851562-2.546875zm-15.046875 5.25v9.695312c-1.226563-1.804687-2.046875-3.6875-2.046875-5.320312 0-1.171875.378906-2.207031.925781-3.085938-.914062.929688-1.761719 2.253907-1.761719 3.941407 0 2.050781 1.421876 4.210937 2.882813 5.847656 1.523437-1.644532 3.023437-3.796875 3.023437-5.847656 0-2.792969-3.023437-5.230469-3.023437-5.230469zm0 0" fill="#ccc"/><path d="m52.996094 17.621094s-2.074219 2.222656-6.859375 3.664062c-2.382813.714844-10.609375 3.511719-10.484375 8.09375 1.289062-1.664062 4.632812-3.851562 10.113281-5.722656 8.0625-2.757812 7.230469-6.035156 7.230469-6.035156zm-35.898438.003906s-.832031 3.273438 7.226563 6.03125c5.484375 1.871094 8.828125 4.058594 10.117187 5.722656.125-4.582031-8.105468-7.375-10.484375-8.09375-4.785156-1.4375-6.859375-3.660156-6.859375-3.660156zm0 0" fill="#c00"/></svg>