<svg height="35pt" viewBox="0 0 74 35" width="74pt" xmlns="http://www.w3.org/2000/svg"><path d="m1.640627 1.64386h78.35164v31.003421h-27.292996v-6.49497h-16.406266v15.197079h22.757835v23.197962h-22.71096v12.507128h6.714851v23.899188h-41.496136v-23.899188h7.089851v-51.005629h-7.089851zm85.253991 0h41.496135v24.313027h-6.796881v50.994133h6.796881v23.899189h-41.496135v-23.899189h6.902351v-50.994133h-6.902351zm48.105517 0h38.496132v24.313027h-4.195316v49.994023l.996094 1.00011h14.191421l1.007813-1.00011v-49.994023h-4.195316v-24.313027h38.496132v24.313027h-6.902351v56.500488l-17.78908 18.496293h-35.214879l-17.78908-18.496293v-56.500488h-7.10157zm0 0" fill="#081e3f" stroke="#b6862c" stroke-width="3.3" transform="scale(.333333 .339806)"/></svg>