<svg height="50pt" viewBox="0 0 69 50" width="69pt" xmlns="http://www.w3.org/2000/svg"><path d="m24.640625.292969c-.140625-.023438-.289063-.003907-.433594.011719-.121093.011718-.238281.023437-.34375.015624-.214843.003907-.390625.089844-.566406.175782-.234375.117187-.386719.179687-.519531.101562l-.015625-.011718-.019531-.003907c-.207032-.054687-.371094-.085937-.53125-.09375-.234376-.011719-.453126.023438-.671876.109375 0 0-.136718.0625-.136718.0625l-.050782.023438c-.132812.078125-.246093.167968-.355468.289062l-.007813.007813-.003906.007812c-.121094.179688-.203125.375-.265625.632813-.035156.152344-.058594.324218-.070312.53125 0 .003906-.003907.503906-.003907.503906 0 .015625.019531.191406.019531.191406s.027344.238282.035157.332032c-.125.167968-.296875.269531-.554688.316406-.003906 0-.027343 0-.027343 0l-.136719.011718h-.035157l-.363281.015626c-.226562.007812-.460937.015624-.6875.078124-.003906 0-.234375.089844-.234375.089844l-.019531.027344-.089844.089844c-.183593.160156-.390625.277344-.632812.355468-.007813.003907-.15625.042969-.15625.042969l-.105469.027344c.003906-.003906-.519531.082031-.519531.082031l-.300781.039063-.035157.007812-.46875.085938c-.171875.046875-.378906.113281-.578125.230469-.152344.097656-.265625.191406-.359375.285156-.101562.035156-.191406.054687-.28125.058594-.113281.003906-.203125-.019532-.277343-.074219-.152344-.125-.226563-.398438-.308594-.691407-.085938-.308593-.171875-.628906-.371094-.867187.007812.011719-.132812-.132813-.132812-.132813l-.035157-.03125-.011719-.011718-.007812-.003906-.039062-.03125c-.335938-.324219-.75-.476563-1.203126-.4375-.113281.011718-.28125.039062-.457031.101562l-.042969.015625-.03125.050781-.1875.316406c-.285156.390626-.683593.539063-1.109374.695313-.542969.203125-1.105469.414063-1.417969 1.128906.003906-.007812-.035157.070313-.035157.070313-.089843.191406-.121093.378906-.121093.570312 0 .292969.082031.582032.160156.863282 0 0 .085937.34375.101563.414062-.125.238281-.246094.519531-.246094.871094v.089844c.042968.390624.292968.738281.65625.910156l.019531.007812.023437.003906c.09375.007813.15625.03125.21875.070313l.019532.015625v-.003906l.230468.058594c.328126.058593.671876.03125.988282-.078126-.015625.003907.320312-.085937.320312-.085937.125-.035156.253906-.070313.382813-.097656-.109375.066406-.1875.136719-.230469.214843-.335938.332032-.753906.410157-1.277344.417969h-.871094c-.015624.003907-.035156.003907-.035156.003907s-.242187.058593-.257812.0625c-.1875.054687-.363282.171874-.496094.265624-.03125.015626-.074219.03125-.074219.03125l-.082031.039063-.113281.089844-.074219.128906.027344.230469s.019531.179687.019531.191406v.015625c0 .113281.050781.207031.121094.28125l-.003907.199219.035157-.003906s.09375.050781.125.066406c.355469.582031.753906 1.183594 1.253906 1.675781l.003906.007813.019531.011718c-.003906.035156-.007812.0625-.007812.0625-.050781.449219-.070312.910156-.070312 1.355469 0 .707031.050781 1.382813.101562 1.914063-.066406.070312-.355469.382812-.355469.382812s-1.429687 1.558594-1.429687 1.558594c-.089844.117187-.128906.238281-.128906.367187 0 .058594.007812.121094.027343.183594.007813.03125.023438.054687.035157.082031-1.027344 1.8125-1.660157 3.957032-1.804688 6.292969v.023437c.007812.046876.007812.085938.007812.128907 0 .488281-.339843.75-.726562 1.050781-.382812.296875-.816406.632812-.816406 1.234375 0 .023437.007812.050781.007812.074219-1.097656.726562-2.027344 1.878906-2.570312 3.183594-.070313.019531-.214844.066406-.214844.066406-.8125.25-1.820312.558594-2.015625 1.597656-.039063.257812-.058594.5-.058594.722656 0 .695313.1875 1.21875.554688 1.597656.363281 3.652344 1.070312 7.738282 4.742187 10.132813.03125.066406 1.042969 2.328125 1.042969 2.328125.839844 1.714844 2.601563 1.6875 4.152344 1.65625.375-.003906.730469-.011719 1.066406.003906.828125.488282 1.753906.773438 2.835937.867188.679688.113281 1.257813-.078125 1.820313-.257813.5-.164062.96875-.316406 1.488281-.25l.042969.007813.035156-.023438c.179688-.097656.207031-.261718.207031-.402344 0-.035156-.003906-.066406-.003906-.097656-.003906-.035156-.003906-.066406-.003906-.089844 0-.109374.027344-.144531.113281-.167968.476563.019531.867188-.214844 1.242188-.441406.386719-.234376.75-.453126 1.171875-.371094l.226562.046875-.078125-.21875c-.042969-.125-.0625-.230469-.0625-.316407 0-.28125.207031-.40625.484375-.574218.257813-.152344.535156-.328125.664063-.667969.105469-.050781.226562-.074219.355469-.089844.1875-.023437.398437-.054687.574218-.210937l.046875-.039063v-.058593c0-.527344-.296875-.894532-.589843-1.191407-.015626-1.066406-.453126-1.960937-1.304688-2.652343-1.148438-1.167969-2.855469-.949219-4.066406-.664063-.078125-.066406-.386719-.332031-.386719-.332031-.585937-.503906-1.191406-1.023438-1.925781-1.214844-.394532-1.210938-1.007813-2.167969-1.816406-2.855469.324218-.371093.75-.597656 1.207031-.828125.261719-.136718.535156-.277344.785156-.449218 5.0625 2.460937 11.703125 1.621093 15.894531.144531.28125.132812.355469.410156.355469.667969 0 .183593-.035156.351562-.058594.4375-.328125.800781-1.035156.914062-1.785156 1.027343-.476563.074219-.96875.152344-1.382813.417969l-.011718.007812-.011719.011719c-.476563.5-1.09375.644531-1.75.796875-.648437.15625-1.320313.3125-1.851563.839844-.375.464844-.4375 1.019531-.503906 1.5625-.03125.289062-.066406.585938-.148437.855469-.078125.222656-.117188.398437-.117188.539062 0 .125.03125.226563.09375.300781.175781.210938.515625.144532.871094.078126.324219-.058594.691406-.128907.863281.027343.425782.472657.863282.3125 1.25.171875.296875-.109375.578125-.210937.894532-.089844.339843.273438.742187.230469 1.097656.191407.285156-.035157.550781-.058594.789062.058593-.046875.15625-.113281.308594-.1875.453126l-.140625.289062.007813.035156c.007812.058594.007812.117188.007812.175782 0 .394531-.148437.738281-.308594 1.101562-.15625.359375-.320312.730469-.320312 1.15625 0 .105469.011719.214844.035156.328125l.019532.097656.101562.007813c.195312.015625.359375-.0625.503906-.128906.222656-.105469.324219-.144532.464844.003906l.023438.019531.027343.011719c.414063.144531.378907.421875.289063.898437l-.027344.144531.007812.035157c.054688.171875.136719.285156.253907.339843.183593.085938.386719-.003906.585937-.085937.148438-.066406.304688-.128906.425782-.109375.21875.289062.59375.347656.933593.390625.257813.039063.503907.070313.597657.203125.027343.042969.042968.101562.042968.179688 0 .058593-.007812.125-.027344.203124l-.015624.058594.039062.054688c.195312.269531.449219.207031.636719.160156.101562-.023438.195312-.046875.273437-.023438 1.386719.820313 2.964844.316407 4.359375-.128906 0 0 .664063-.207031.710938-.21875 2.460937.464844 5.292969-.464844 6-3.148437 3.402343-4.101563 5.578125-7.6875 6.839843-11.285157l-.011718.019532c.15625-.289063.214844-.640625.269531-.980469.085937-.492187.164063-.953125.519531-1.164063 1.296875.925782 3.195313 1.996094 5.007813 1.066407.761719.460937 1.1875 1.328125 1.410156 1.984375l.003906.011718.007813.011719c.117187.210938.171875.386719.171875.527344 0 .050781-.003907.097656-.023438.140625-.082031.222656-.386719.335938-.714843.457031-.363282.132813-.738282.273438-.902344.597657-.292969.582031-.792969.75-1.316406.925781-.523438.175781-1.0625.355469-1.429688.9375-.535156.613281-.484375 1.378906-.433594 2.121093.023438.363282.042969.734376-.003906 1.078126l-.003906.046874.023437.039063c.355469.601563.882813.53125 1.390625.460937.328125-.042968.667969-.089843.980469.042969.15625.164063.359375.25.578125.21875l.046875-.007812.03125-.039063c.335937-.394531.710937-.253906 1.246094.003906l.433593.1875c.304688.066407.597657.023438.878907-.023437.429687-.070313.703125-.105469.90625.132813l.019531.019531.023438.011719c.300781.152343.480468-.054688.597656-.195313.054687-.066406.109375-.121094.160156-.140625.578125.273438 1.433594.546875 2.347656.347656l.035156-.007812.027344-.027344c.515625-.472656 1.230469-.480469 1.988282-.488281.917968-.011719 1.867187-.023438 2.460937-.90625.507813-.761719.597656-1.996094.214844-2.933594l-.003907-.019531-.011718-.011719c-.707032-.96875-1.019532-2.148437-1.320313-3.289063-.3125-1.1875-.636719-2.417968-1.40625-3.433593l-.011719-.015625-.015624-.011719c-1.160157-.835937-1.808594-1.972656-2.4375-3.074219-.71875-1.253906-1.460938-2.546875-2.945313-3.328125-.46875-.265625-1.082031-.15625-1.515625.078125-.078125-.195312-.28125-.71875-.28125-.71875-.332031-.871094-.679688-1.773437-1.171875-2.597656-.664063-1.359375-1.726563-2.214844-2.851563-3.121094 0 0-.859374-.710937-.921874-.761718-.085938-.613282-.5625-1.117188-1.03125-1.605469-.480469-.496094-.917969-.949219-.917969-1.476563 0-.277344.125-.574218.429687-.910156l.027344-.023438.007812-.035156c.046876-.234375.070313-.464844.070313-.6875 0-1.019531-.484375-2-1.433594-2.875l-.011719-.015625-.015624-.003906c-.703126-.371094-2.007813-1.066406-3.039063-.351563l-.007813.003907-.007812.007812c-.253906.246094-.34375.488281-.34375.722657 0 .300781.144531.585937.269531.835937.132813.261719.234375.480469.234375.679687 0 .167969-.074218.324219-.25.484376-.117187-.039063-.597656-.203126-.597656-.203126-1.621094-.554687-3.296875-1.128906-5.207031-1.0625-1.578125-1.636718-3.070313-2.546874-4.691407-2.867187h-.019531c-1.277343-.039063-2.453125-.429687-3.589843-.804687-1.46875-.484376-2.988282-.984376-4.785157-.78125-.019531.007812-.042969.011718-.0625.015624.042969-.222656.101563-.445312.160157-.683593.121093-.480469.25-.976563.25-1.449219 0-.03125 0-.0625-.003907-.09375v-.007812c0-.320313-.074219-.601563-.222656-.851563l-.136719-.136719c-.449218-.015625-.898437.085938-1.402344.324219-.003906 0-.558593.300781-.558593.300781l-.035157.019532c-.007812.003906-.75.480468-.75.480468.007813-.003906-.113281.066406-.113281.066406s-.027343.011719-.046875.027344c-.308594-.230468-.660156-.363281-1-.484375-.242187-.089843-.476562-.179687-.691406-.292969.558594.132813 1.152344.078126 1.691406-.175781.300782-.144531.554688-.320312.773438-.546875-.007813.007813.070312-.085937.070312-.085937l.019532-.019531c.046874-.136719.128906-.246094.203124-.289063l.035157-.015625.015625-.035156c.050781-.085938.046875-.191406.046875-.28125l.003906-.160156-.007813-.050782-.363281-.894531-.058593-.015625c-.175782-.0625-.324219-.15625-.484376-.3125-.214843-.21875-.375-.507812-.527343-.785156-.117188-.214844-.242188-.4375-.394531-.632813-.132813-.136719-.269532-.203125-.445313-.226562zm14.066406 30.191406c.292969.21875.65625.253906 1.011719.273437.410156.023438.761719.054688.972656.359376-1.125 1.457031-1.378906 3.296874-1.617187 5.074218-.167969 1.25-.347657 2.546875-.835938 3.671875-1.054687.164063-2.140625.398438-3.027343 1.074219 1.359374-1.675781 2.90625-3.730469 3.023437-6.324219v-.015625l-.003906-.007812c-.058594-.496094-.359375-1.085938-.894531-1.296875-.171876-.109375-.414063-.128907-.648438-.152344-.207031-.015625-.449219-.035156-.5-.125-.011719-.015625-.019531-.039063-.019531-.0625 0-.039063.015625-.078125.027343-.117187.882813-.628907 1.746094-1.4375 2.511719-2.351563zm0 0" fill="#00235d"/><path d="m29.414062 8.273438c-.195312 0-.398437.011718-.605468.03125.394531.527343.707031 1.085937 1.011718 1.632812 0 0 .453126.78125.5.863281 0 0 .042969.011719.0625.015625.785157.144532 1.617188.3125 2.390626.730469l.015624.007813.011719.007812c.085938.082031.113281.164062.113281.242188 0 .070312-.023437.132812-.039062.179687l-.023438.070313-.011718.042968-.007813.019532c-.242187.347656-.597656.785156-.8125 1.046874 0 0-.132812.167969-.140625.175782l-.175781.167968-.058594.054688s.003907 0 .003907-.003906c-.027344.050781-.082032.089844-.136719.125 0 0-.011719.007812-.023438.015625v.007812l-.238281.167969-.0625.035156.050781-.054687-.097656.082031.035156-.015625s-.050781.03125-.058593.035156c0 0-.019532.027344-.035157.050781 0 .089844.058594 2.003907.058594 2.039063.199219.59375.355469 1.195313.449219 1.804687.0625.417969.089844.816407.089844 1.195313 0 .488281-.050782.9375-.144532 1.351563-.085937.375-.226562.734374-.414062 1.078124-.203125.324219-.429688.605469-.671875.839844-.535157.523438-1.148438.828125-1.78125.90625.003906.019532.023437.101563.023437.109375.082032.46875.183594 1.027344.183594 1.582031 0 .160157-.007812.316407-.027344.476563-.023437.292969-.09375.585937-.210937.875l-.027344.097656-.292969-.03125-.054687-.007812-.015625-.003907-.105469-.03125-.121094-.035156c-.332031-.113281-.632812-.289062-.929687-.464844l-.03125-.019531s-.199219-.132812-.210938-.140625l-.019531-.015625-.152344-.105469s-.070312-.046874-.105469-.074218l-.761718 1.167968c.007812.019532.019531.035157.027344.058594.089843.269532.035156.65625-.132813.933594 1.667969-.332031 3.152344.433594 3.699219 2.09375.605468 1.839844.003906 3.832031-1.882813 4.46875s-3.933593-.394531-4.539062-2.238281c-.574219-1.726563.179687-3.339844 1.839843-4.054688-.226562-.109375-.425781-.316406-.539062-.535156l-1.453125-.300781c-.042969.296875-.101563.609375-.203125.914062-.097656.285156-.238281.539063-.421875.761719l-.003906.007813c-.011719.011718-.082031.097656-.082031.097656l-.042969.058594-.089844-.03125c-.1875-.070313-.339844-.15625-.476563-.234376 0 0-.417968-.300781-.425781-.304687l-.425781-.398437s-.019531-.019532-.023438-.023438l-.203124-.222656s-.203126-.222656-.214844-.238282l-.148438-.175781s-.070312-.082031-.082031-.097656l-.019531-.023437s-.007813-.011719-.011719-.015626c-.300781 0-.609375-.023437-.929687-.078124-.242188-.046876-.527344-.109376-.808594-.207032-.375-.144531-.664063-.328125-.902344-.550781-.617188.371094-1.402344.5-2.183594.347656-.1875-.035156-.355468-.082031-.511718-.148437-.296876-.136719-.582032-.328125-.867188-.574219-.925781-.828125-1.582031-2.175781-1.761719-3.601563l-.003906-.035156.011719-.027344c.027344-.089843.035156-.183593.039062-.292968 0-.015625 0-.027344 0-.042969 0-.429687-.214844-.78125-.441406-1.15625-.191406-.316406-.382812-.644531-.464844-1.035156-.0625-.015625-.3125-.078125-.3125-.078125l-.402344-.085938c-.417968-.09375-.847656-.1875-1.242187-.378906-1.019531 2.039062-1.527344 4.390625-1.679687 6.726562-.207032.894532-1.230469.808594-1.203126 1.824219 1.730469 2.777344 4.441407 5.128907 7.066407 6.898438 1.320312.449219 1.261719-1.40625 2.226562-1.792969.851563.269531-.117187.957031.148438 1.433594 7.242187 2.898437 17.355469 1.492187 21.667969-5.078125-.296876-1.042969-1.761719-.386719-1.816407-1.496094.789063-.414063 1.375.898437 2.109375.722656.089844-1.675781.917969-3.21875 1.621094-4.589843 1.613281-2.539063 4.023438-4.71875 6.957031-5.046876-.292969-.894531-.957031-1.480468-1.835937-1.628906-1.230469-2.925781-3.957032-5.824218-6.949219-6.808594-3.011719.082032-5.097656-2.0625-8.070313-2.046874zm-8.113281 7.246093c-.121093.019531-.246093.054688-.363281.09375 0 0-.152344.042969-.195312.054688.003906.003906.007812.015625.007812.015625.1875.324218.402344.691406.402344 1.042968 0 .0625-.007813.121094-.019532.179688l-.042968.171875-.054688-.167969c-.046875-.140625-.113281-.277344-.210937-.421875-.082031-.152343-.199219-.308593-.335938-.449219-.136719-.144531-.300781-.117187-.496093-.085937 0 0-.125.019531-.132813.019531-.0625.007813-.128906.011719-.1875 0-.027344.019532-.144531.089844-.144531.089844l-.109375.066406c-.21875.152344-.371094.3125-.449219.480469-.03125.066406-.058594.167969-.058594.285156 0 .039063.003906.078125.011719.125.40625.5.433594 1.082031.433594 1.65625v.214844c0 .375.011719.757813.132812 1.125.085938.300781.261719.675781.570313.820313.101562-.171876.15625-.371094.207031-.566407l.09375-.328125c.050781-.136718.121094-.316406.253906-.484375l.015625-.023437.03125.007812s.160156.039063.160156.039063c.21875.070312.363282.269531.507813.464843.066406.089844.136719.179688.214844.257813.003906-.125.011719-.328125.011719-.328125s.027343-.519531.027343-.523438c.035157-.179687.078125-.320312.136719-.4375l.015625-.019531s.0625-.015625.0625-.019531c.214844-.050781.359375.101562.503906.25.058594.0625.121094.121094.191407.167969-.011719-.070313-.027344-.136719-.027344-.203125 0-.121094.015625-.230469.035156-.320313.042969-.175781.109375-.359375.195312-.546875l.023438-.03125h.03125c.125 0 .226562.039063.324219.089844-.296875-.421875-.453125-.898438-.597657-1.363281-.113281-.359375-.230468-.730469-.414062-1.066407 0 0-.136719-.230468-.152344-.261718-.082031-.03125-.15625-.058594-.242187-.070313-.121094-.023437-.242188-.019531-.367188 0zm4.25 9.761719c-.078125.035156-.160156.070312-.164062.070312 0 0-.691407.28125-.6875.28125 0 0-.304688.117188-.304688.117188l-.730469.234375-.242187.066406s-.027344.007813-.027344.007813c-.0625.019531-.128906.035156-.199219.046875l1.148438.386719c.101562-.144532.253906-.265626.4375-.328126.117188-.039062.238281-.050781.355469-.039062zm-2.601562.871094c-.003907.003906-.011719.003906-.015625.003906-.011719.089844-.023438.214844-.023438.21875zm0 0" fill="#c03"/><path d="m36.382812 22.226562 1.816407 1.710938 3.144531-3.410156s-1.039062-.980469-1.285156-1.214844c.140625-.148438.46875-.503906.46875-.503906s-1.425782-1.347656-1.730469-1.632813c.269531-.207031.863281-.65625.953125-.726562.078125-.015625.132812-.066407.140625-.078125.03125-.039063.054687-.074219.054687-.121094 0-.175781-.347656-.542969-2.066406-2.199219 0 0-.753906-.71875-.753906-.71875l-4.726562 5.128907 2.03125 1.917968s.304687-.328125.429687-.46875c.257813.242188 1.703125 1.605469 1.957031 1.847656-.128906.136719-.433594.46875-.433594.46875" fill="#00235d"/><path d="m23.980469 1.066406c-.234375.027344-.472657.132813-.695313.191406l.511719.683594-.042969.050782c-.480468-.222657-.859375-.640626-1.390625-.753907-.046875-.011719-.105469-.027343-.160156-.035156-.1875.050781-.324219.132813-.429687.230469-.0625.070312-.097657.140625-.144532.222656-.21875.511719.027344 1.320312-.144531 1.851562-.023437.085938-.046875.160157-.085937.238282-.03125.089844-.074219.167968-.132813.242187-.023437.039063-.058594.082031-.101563.128907-.023437.03125-.054687.050781-.089843.082031-.183594.152343-.417969.230469-.683594.277343-.054687.007813-.109375.007813-.171875.023438-.101562.007812-.210938.015625-.328125.023438-.242187.011718-.496094.023437-.742187.058593-.105469.015625-.210938.03125-.316407.058594-.246093.082031-.480469.203125-.667969.421875-.007812.015625-.015624.027344-.015624.027344l-.25.058594-.832032.148437-.488281.089844-.359375.0625c-.070312.03125-.132812.046875-.203125.078125-.128906.058594-.265625.140625-.414063.214844-.097656.050781-.199218.089843-.300781.128906-.066406.03125-.140625.050781-.203125.054687-.042968.011719-.074218.019531-.109375.019531-.089843 0-.226562-.019531-.324219-.0625l-.003906-.011718c-.054687-.015625-.101562-.046875-.15625-.085938-.03125-.027344-.0625-.0625-.097656-.109375-.628906-.519531-.675781-1.753906-1.453125-1.960937-.121094-.035156-.265625-.050782-.429687-.03125-.101563.039062-.1875.085937-.273438.144531-.589844.378906-.730469 1.152344-1.023438 1.730469-.222656-.335938.035157-.664063.0625-1.023438-.863281.019532-1.007812.433594-.976562.980469.035156.691406.371094 1.585937-.105469 2.136719-.019531.015625-.046875.046875-.0625.0625.03125.082031.085938.167968.136719.234375.105469.105469.238281.171875.40625.125.917969-.011719 1.730469-.9375 2.125-1.691407.027344-.0625.035156-.148437.046875-.230468.023437-.128906.03125-.265625.046875-.417969.019531-.269531.03125-.53125.148438-.667969.113281.21875.222656.464844.285156.710938.101562.390625.113281.804687-.054688 1.191406.300782.550781.316406 1.113281.234375 1.679688-.113281.882812-.457031 1.78125-.238281 2.660156.164062.5.585938.285156.960938.101562.15625-.078125.308593-.140625.441406-.15625l-.25-.644531c-.0625-.355469-.042969-.714844.0625-1.027344.105468-.246093.257812-.464843.5-.644531-.242188.054688-.402344-.164062-.488282-.378906.179688-.195313.410157-.257813.648438-.277344.054688-.007812.109375-.007812.15625-.007812.101562.003906.199219 0 .289062 0 .074219-.011719.140626-.007813.203126-.023438.046874-.003906.089843.007812.125.011719.136718.007812.257812.039062.355468.082031.242188.105469.429688.28125.597656.496094.308594.367187.570313.839844.90625 1.144531.011719.007813.011719.007813.019532.003906.15625.039063.328125.0625.496094.023438.203124-.03125.402343-.128907.554687-.308594.078125-.089844.128906-.191406.152344-.300781.085937-.273438.039062-.578125-.027344-.878906.03125-.007813.058594-.015626.082031-.023438.628906-.195312.167969.804688.679688 1.015625.121094.035156.253906.089844.390625.097656.113281.011719.226562.007813.324219-.035156.101562-.035156.195312-.117187.257812-.25.0625-.320313.113281-.671875.167969-1.007813.050781-.230468.09375-.457031.160156-.667968.042969-.101563.074219-.191406.105469-.277344.132812-.296875.296875-.558594.550781-.785156.027344-.019532.054687-.039063.082031-.070313.003906 0 .007813 0 .011719-.003906.035156-.019531.074219-.039063.109375-.070313.058594-.042968.117188-.082031.175781-.105468.230469-.132813.476563-.222656.730469-.191406.074219.003906.148438.015624.214844.054687.019531.003906.046875.011719.070312.015625-.011718.046875-.023437.082031-.035156.121094-.019531.097656-.0625.1875-.117188.273437l-.003906-.007812c-.039062.0625-.09375.140625-.140625.183593.070313.046876.148438.09375.21875.140626.089844.054687.171875.113281.246094.183593.441406.367188.792969.867188.914063 1.402344.027343-.019531.054687-.035156.085937-.042969.28125-.160156.605469-.167968.90625-.25-.058594-.46875-.140625-.949218-.429687-1.335937-.046876-.042969-.082032-.089844-.125-.132813-.4375-.480468-.828126-.996094-1.207032-1.539062-.339844-.496094-.679687-1.015625-1.042968-1.519532-.039063-.054687-.074219-.113281-.113282-.171874-.03125-.117188-.050781-.28125-.046875-.429688.011719-.117188.050781-.226562.140625-.308594.175782.234375.375.40625.574219.578125.238281.183594.476563.355469.695313.558594.558593.355469 1.347656.390625 1.957031.121094.144531-.074219.28125-.15625.410156-.257813.164063-.183594.1875-.585937.054687-.796875-.332031-.207031-.675781-.507812-.964843-.847656-.234375-.300781-.441407-.617187-.558594-.9375-.097656-.074219-.199219-.113281-.300781-.132813-.078125-.011718-.15625-.011718-.234375-.003906zm4.347656 3.875c-.28125.113282-.589844.21875-.894531.335938-.199219.078125-.402344.167968-.59375.277344-.085938.039062-.164063.089843-.242188.136718-.191406.121094-.386718.265625-.542968.398438-.207032.1875-.394532.40625-.535157.664062.242188.539063.644531 1.140625 1.152344 1.464844.046875.027344.09375.054688.140625.078125.179688.082031.378906.144531.542969.152344.070312-.074219.125-.15625.183593-.242188.183594-.265625.328126-.5625.4375-.878906.261719-.738281.332032-1.5625.351563-2.386719zm-5.957031 2.078125c-.039063.019531-.070313.027344-.101563.039063-.058593.027344-.117187.0625-.171875.101562-.039062.023438-.078125.042969-.113281.078125-.027344.027344-.050781.058594-.085937.089844-.328126.363281-.328126.90625-.371094 1.460937-.003906.160157-.023438.3125-.058594.46875-.007812.058594-.019531.132813-.03125.179688l.082031.011719.03125-.007813-.046875-.351562c.011719-.046875.035156-.109375.058594-.160156.140625-.222657.402344-.363282.65625-.375.042969 0 .078125 0 .113281.003906.023438.003906.035157.003906.042969 0 .042969.023437.082031.054687.109375.082031.265625.199219.40625.558594.242187.863281l.171876-.070312.347656-.152344c.136718-.160156.199218-.378906.230468-.605469.027344-.152343.027344-.3125.039063-.484375-.066406-.246094-.179687-.472656-.34375-.667968-.199219-.261719-.472656-.449219-.800781-.503907zm5.75 1.507813c-.078125.167968-.238282.269531-.410156.335937-.042969.011719-.082032.023438-.125.035157.097656.367187.246093.726562.417968 1.078124.222656.4375.460938.871094.617188 1.335938.097656-.050781.21875-.148438.332031-.261719.183594-.140625.390625-.285156.621094-.304687l-1.242188-2.140625-.019531.003906zm-2.746094.257812c-.328125-.011718-.667969.039063-.980469.160156-.203125.078126-.386719.1875-.5625.328126-.011719 0-.015625.011718-.027343.015624l.039062.023438.175781.03125c.183594.152344.589844.347656.464844.628906-.160156-.101562-.332031-.167968-.515625-.1875-.058594-.015625-.128906-.019531-.207031-.019531-.246094-.011719-.515625.027344-.753907.09375-.050781.011719-.105468.015625-.160156.03125.058594.007813.117188.015625.175782.03125.335937.042969.65625.214844.898437.457031.121094.113282.21875.234375.300781.371094v.011719c.265625-.050781.496094.011719.679688.132812.5625.34375.929687 1.160157 1.488281 1.449219.09375.074219.222656.3125.007813.382812-.101563-.085937-.179688-.132812-.285157-.203124-.4375.117187-.742187-.445313-.972656-.777344l-.035156-.128906c-.183594-.246094-.5-.339844-.753907-.371094-.070312-.015625-.136718-.019532-.207031-.03125-.238281-.0625-.460937-.179688-.539062-.601563-.140625-.109375-.289063-.171875-.453125-.203125-.058594-.007812-.125-.015625-.203125-.015625-.035157-.003906-.078125 0-.132813.003907-.03125.007812-.066406.007812-.105468.019531-.242188.019531-.488282.097656-.722657.128906-.023437.003906-.042969.011719-.066406.003906.023437.007813.042969.011719.070313.015625.332031.046875.609374.160156.847656.347656.050781.027344.097656.074219.144531.117188.066406.050781.125.101562.175781.167969.109375.117187.207032.238281.296875.371093.460938.648438.777344 1.46875 1.144531 2.066407.503907 1.066406.660157 2.25 1.058594 3.351562.132813.339844.277344.671875.460938.984375.039062.066406.078125.128906.125.183594.796875 1.09375 1.054687 2.351562 1.398437 3.582031.042969.078125.105469.140625.164063.195313.253906.210937.601562.261718.925781.175781.527344-.148437.988281-.464844 1.359375-.875.261719-.285156.476562-.617187.617188-.960937.140624-.308594.222656-.625.269531-.96875.003906-.183594 0-.375-.003907-.566407-.011718-1.050781-.203124-2.117187-.78125-2.957031-.222656-.347656-.527343-.652344-.90625-.910156-.042968-.03125-.09375-.0625-.136718-.097656-.289063-.386719-.792969-.773438-1.074219-1.203126-.136719-.234374-.226563-.480468-.195313-.75.007813-.015624.003907-.023437.011719-.039062.425781.089844.410157.582031.652344.867188-.117187-1.453126-.445313-3.042969-1.519531-4.074219-.210938-.214844-.460938-.40625-.738282-.570313-.269531-.132812-.585937-.207031-.914062-.21875zm-9.578125.234375c-.070313-.011719-.148437-.011719-.230469.007813-.019531.019531-.027344.019531-.046875.039062-.039062.019532-.085937.042969-.132812.082032-.339844.285156-.476563.738281-.429688 1.167968.089844.339844.261719.871094.71875.871094.105469.027344.199219.035156.253907.019531.070312-.019531.109374-.050781.128906-.089843.105468-.199219-.09375-.621094.066406-.847657.035156-.042969.070312-.074219.128906-.101562.054688-.003907.113282-.03125.164063-.058594.109375-.050781.203125-.109375.304687-.105469.066406-.007812.140625.019532.210938.070313l-.324219-.492188-.105469-.199219c-.113281-.046874-.210937-.121093-.328125-.191406-.125-.082031-.238281-.140625-.378906-.171875zm6.011719.851563c-.058594-.007813-.113282-.003906-.179688.003906-.054687.003906-.117187.007812-.171875.011719l-.117187.144531c-.265625-.027344-.515625-.050781-.769532-.046875-.101562-.007813-.210937 0-.332031.007813-.15625.007812-.3125.03125-.464843.058593.160156 0 .328124-.007812.484374.015625.125.011719.242188.027344.351563.0625.285156.070313.535156.21875.75.441406.023437-.027343.0625-.0625.097656-.09375.089844-.082031.183594-.144531.277344-.214843.058594-.027344.109375-.050781.15625-.085938.226563-.109375.460937-.183593.695313-.222656.042968-.003906.078124-.011719.109374-.007813-.035156-.015624-.070312-.015624-.113281-.015624-.25-.023438-.519531-.0625-.773437-.058594zm-10.175782.121094c-.261718-.019532-.53125.003906-.804687.027343-.292969.027344-.597656.050781-.886719.015625l-.222656.074219-.363281.101563c.171875.371093.410156.722656.664062 1.050781.429688.527343.9375.988281 1.472657 1.277343.039062.019532.078124.042969.125.054688.691406-.496094.984374-1.539062.785156-2.382812-.246094-.140626-.503906-.199219-.769532-.21875zm8.117188.058593c-.085938.007813-.167969.03125-.265625.046875.097656-.019531.191406-.035156.285156-.046875zm-.265625.046875c-.082031.023438-.175781.050782-.269531.074219-.269532.074219-.53125.179687-.789063.292969-.148437.078125-.296875.152344-.449219.25-.175781.09375-.34375.207031-.511718.332031-.128906.105469-.257813.207031-.386719.308594-.070313.066406-.144531.132812-.203125.195312l-.085938-.113281c-.011718.003906-.011718.003906-.023437.007812-.09375.011719-.203125.03125-.316406.0625-.082031.019532-.175781.046876-.265625.082032-.039063.023437-.089844.039062-.140625.0625-.316407.144531-.605469.359375-.835938.625-.101562.121094-.191406.257812-.261719.402344-.042968-.25.070313-.496094.167969-.75.054688-.09375.085938-.191407.125-.292969-.070312-.019531-.136719-.023438-.203125-.015625-.132812.003906-.265625.0625-.421875.003906-.101562.050781-.1875.097656-.277343.144531-.484376.265625-.945313.632813-1.246094 1.132813-.460938.828125-.746094 1.960937-.707032 3.039062.03125.671875.179688 1.3125.488282 1.851563.039062.070312.078125.125.125.179687.402344-.425781.363281-1.085937.777344-1.492187.207031.066406.167968.304687.21875.449219-.335938.546874-.628907 1.160156-.875 1.804687-.289063.804687-.480469 1.675781-.46875 2.53125.011718.765625.191406 1.527344.585937 2.21875.015625.03125.03125.050781.050781.066406.394532.652344.90625 1.203125 1.507813 1.546875.574219.320313 1.226562.46875 1.953125.351563-.761719-.980469-1.046875-2.277344-.628906-3.523438.367187-.519531.484374-1.039062.472656-1.582031 0-1.199219-.65625-2.425781-.628906-3.667969.070312-.40625.078124-.839843.066406-1.277343-.015625-.949219-.101563-1.914063.304687-2.644532.042969-.058594.082031-.117187.113281-.167968.0625-.097657.140626-.175782.21875-.265626.089844-.078124.183594-.152343.273438-.222656.046875-.035156.097656-.0625.15625-.097656-.058594.003906-.109375.007812-.171875.023438-.101563.007812-.207031.023437-.320313.066406-.078124.03125-.167968.066406-.25.136718-.023437.027344-.066406.050782-.09375.082032-.015624.015625-.027343.015625-.035156.03125-.226562.199218-.371094.53125-.320312.894531-.140625.09375-.261719.191406-.363282.3125-.238281.269531-.375.601563-.484374.949219-.167969.546875-.273438 1.132812-.636719 1.558594l-.089844-.097657c.445313-.636719-.09375-1.574219.4375-2.171875.027344-.023437.058594-.042968.082031-.070312.242188-.191406.414063-.417969.5625-.664063.230469-.347656.421875-.71875.722656-1.058593.035157-.035157.070313-.066407.113282-.113282 0 0 .011718 0 .007812-.011718.082032-.078126.164063-.136719.242188-.179688.09375-.0625.195312-.101562.300781-.128906.117187-.019532.226563-.027344.328125-.019532.167969 0 .332031.03125.492188.089844.011718-.003906.011718-.003906.019531-.007812.105469-.230469.25-.453125.410156-.644532.128906-.148437.261719-.273437.414063-.382812.238281-.179688.488281-.328125.757812-.414062.089844-.035157.183594-.058594.265625-.082032zm.558594.609375c-.128907 0-.261719.007813-.390625.027344-.085938.011719-.183594.023437-.277344.050781-.277344.085938-.535156.25-.734375.507813l.003906.011719c.261719-.074219.519531-.179688.796875-.277344.089844-.035156.179688-.070313.265625-.09375.246094-.082032.496094-.148438.734375-.15625.046875-.003906.085938-.011719.132813-.015625-.046875.003906-.09375-.007813-.140625-.019531-.125-.019532-.257813-.03125-.390625-.035157zm28.601562.082031c-.273437-.007812-.53125.054688-.695312.308594-.203125.449219.089843.804688.292969 1.164063.265624.296875.765624.148437 1.058593.207031-.207031.449219-.851562.808594-.5 1.4375.644531.417969 1.351563.746094 2.054688.984375.554687-.71875.703125-1.792969.261719-2.628906-.351563-.6875-1.023438-1.136719-1.667969-1.375-.238281-.015625-.53125-.089844-.804688-.097657zm-27.003906.394532c-.226563.027344-.429687.152344-.566406.429687-.03125.019531-.046875.035157-.066407.039063-.269531.132812-.226562-.4375-.421874-.417969-.007813.015625-.007813.023437-.015626.027344-.117187.449219-.359374.835937-.433593 1.308593-.011719.09375-.019531.1875-.015625.289063.039062.058594.082031.101563.128906.144531.246094.21875.558594.347656.886719.40625.117187.023438.230469.039063.34375.042969.253906-.003906.5-.039063.726562-.109375.019531-.007812.03125-.011719.039063-.023438.082031-.03125.167968-.078124.257812-.117187.058594-.027344.109375-.050781.15625-.085937.28125-.15625.539063-.363282.566406-.722657.011719-.050781.011719-.082031.011719-.128906-.011719-.179687-.078125-.375-.1875-.535156-.082031-.148438-.210937-.261719-.359375-.3125-.160156-.058594-.335937-.136719-.523437-.183594-.0625-.019531-.121094-.035156-.191407-.039063-.105468-.027343-.21875-.03125-.335937-.011718zm7.742187.078125c-.226562-.015625-.265624.164062-.285156.351562.003906.101563.007813.191407-.003906.273438.109375.671875.054688 1.527343.589844 1.957031.042968.023438.085937.054688.121094.070312.375-.183593.765624-.425781 1.136718-.707031.519532-.394531.988282-.863281 1.285156-1.386719-.519531-.242187-1.132812-.320312-1.753906-.390624-.367187-.046876-.742187-.082032-1.089844-.167969zm-10.445312.546875c-.050781-.007813-.101562 0-.15625.011718 0 0-.011719.003907-.023438.007813l.082032.382813c-.132813.140624-.269532.175781-.421875.1875-.199219-.003907-.421875-.082032-.632813-.125-.117187-.023438-.230468-.039063-.339844-.019532-.039062.023438-.078124.046875-.113281.066406-.109375.054688-.199219.132813-.277343.210938-.097657.105469-.171876.242188-.238282.371094-.066406.167968-.113281.335937-.152344.519531-.011718.046875-.019531.09375-.019531.140625-.007812.21875.078125.386719.191407.523438.109374.109374.21875.191406.355468.246093l.003906.007813c.117188.027344.234376.046875.347657.050781.113281.015625.222656.007813.332031 0 .152344-.007813.304688-.035156.445312-.085937.199219-.054688.375-.136719.539063-.238282.152344-.085937.296875-.183594.433594-.300781.140625-.105469.261719-.226563.378906-.363281.171875-.160156.261719-.410156.222656-.640625 0-.042969-.011719-.085938-.03125-.125-.011719-.042969-.03125-.082031-.058593-.132813-.328126-.136718-.523438-.652344-.867188-.695312zm-6.933594 1.042968c-.101562.125-.222656.207032-.367187.246094-.207031.066406-.445313.050782-.625.046875-.027344.492188-.085938.984375-.113281 1.46875-.003907.242188-.007813.480469.007812.714844-.082031.394531.105469.511719.339844.605469.238281.097656.511718.15625.625.386718.078125-.757812-.007813-1.558593-.003906-2.34375.011718-.378906.046874-.75.136718-1.125zm11.703125.101563c-.027343.019531-.042969.035156-.074219.054687-.042968.046876-.074218.101563-.09375.148438-.074218.238281.160157.523438.164063.761719.011719-.015625.015625-.027344.023437-.039063.042969-.058594.066407-.132812.082032-.203125.054687-.21875.023437-.496093.003906-.703125zm20.226563.355469c-.324219-.011719-.644532.011718-.96875.085937.207031.6875.703125 1.226563 1.054687 1.855469.792969 1.523438 3.109375 1.847656 3.226563 3.820312 2.375 2.421876 3.195312 5.5 3.957031 8.605469.414063.121094.792969.449219 1.058594.835938.292969.777343.058593 1.675781-.148438 2.390625 1.027344 1.164062 2.316407 1.792968 3.722657 2 .644531-.027344 1.117187-.417969 1.554687-.925782.558594-.835937.5-1.972656 1-2.746093l.117187.148437c.464844 1.195313-.207031 2.300782-.46875 3.375 1.140626 1.046875 1.699219 2.359375 2.109376 3.734375.558593.117188 1.257812.359375 1.816406.0625.617187-.242187 1.261718.085938 1.554687.65625-.441406.355469-.820312-.359375-1.347656-.210937-.910156.296875-1.878906-.328125-2.875 0-1.40625.417968-2.609375 1.375-3.871094 2.210937-.261719.570313-.703125 1.105469-.4375 1.789063.441407-.148438 1.054688-.265625 1.347657.300781v-1.3125c.496093-2.089844 2.929687-2.507813 4.515624-2.152344l-.234374.238281c-1.582032-.328124-4.425782.867188-3.78125 2.988282.234374.507812.644531-.058594.964843.238281.238281.121094.53125.359375.5.628906.058594.328125.410157.539063.703125.566407 1.496094-1.492188 1.496094-5.972657 4.925782-4.210938l-.148438.148438c-1.582031-.6875-3.867188.984374-3.28125 2.867187.265625.480469.703125-.027344 1.113281.121094.292969.179687.585938.507812.558594.863281.261719.570312.996094.449219 1.492187.359375.996094-.777344 2.582032-.175781 3.578126-1.074219.617187-.804687.46875-1.882812.292968-2.867187-1.640625-1.882813-1.023437-4.75-2.753906-6.601563-1.789062-1.164062-2.320312-3.136718-3.578125-4.660156-.644531-.480469-1.292969-.898438-2.199219-.71875-.324218.089844-.441406.71875-.910156.507812-.820312-1.703124-.847656-3.734374-1.960938-5.285156-.910156-2.242187-4.046874-1.882812-4.371093-4.453125-1.085938-1.882812-3.050781-3.105469-4.925781-3.730469-.96875-.089843-1.933594-.417968-2.902344-.449218zm-20.773438.023437c-.179687.023438-.304687.058594-.417968.101563-.058594.027344-.105469.0625-.152344.097656-.453125.429688.492187 1.398438.265625 2.027344l.070312.003906c.042969-.082031.085938-.175781.125-.277344.042969-.089844.078125-.179687.109375-.265625.199219-.554687.28125-1.175781 0-1.6875zm-2.828125.242188c-.113281.039062-.164062.101562-.175781.175781-.011719.078125.023438.167969.070312.269531.097657.167969.265626.335938.398438.425781.023438.003907.039062.011719.0625.015626.121094-.214844.117188-.484376.199219-.722657l-.480469-.128906zm1.585938.140625-.347657.074218-.238281.03125c.089844.257813.222657.46875.378907.679688.007812-.015625.023437-.042969.027343-.054688.132813-.230468.183594-.492187.179688-.730468zm-2.210938.230468c-.105469.074219-.214843.117188-.324219.171876-.171874.066406-.335937.160156-.402343.371093.222656.175781.367187.589844.640625.523438zm17.4375.007813c-.269531.292969-3.859375 4.1875-4.128906 4.480469.234375.222656 1.15625 1.09375 1.394531 1.316406.125-.136719.425782-.46875.425782-.46875l2.597656 2.453125s-.304688.328125-.433594.464844c.222656.214843.953125.898437 1.175781 1.109375.253907-.273438 2.296875-2.488282 2.550781-2.765625-.246093-.230469-1.285156-1.210938-1.285156-1.210938s.328125-.355469.464844-.503906c-.261719-.25-1.792969-1.691406-1.792969-1.691406s1.027344-.785157 1.273438-.96875c-.308594-.332031-1.082031-1.097657-1.804688-1.796875 0 0-.265625-.253906-.4375-.417969zm-19.027343.722656c-.0625.007813-.105469.019531-.160157.019531-.128906.027344-.230469.054688-.308593.109376-.386719.253906.015624.890624.371093 1.394531.117188.160156.234375.3125.308594.417969l.019531-.4375.101563-1.390626-.332031-.109374zm-1.507813.0625c.039063.316407.230469.742188.457031.847657v-.042969l.054688-.386719.027344-.148438c-.015626-.0625-.054688-.117187-.105469-.148437-.046875-.046875-.105469-.0625-.175781-.078125-.082032-.023438-.175782-.03125-.257813-.042969zm-5.511719 1.554688c-.296875.230469-.597656.484375-.890625.765625-.445312.417968-.867187.894531-1.195312 1.371094.519531.164062 1.085937.292968 1.644531.332031.449219.023437.894531-.019531 1.296875-.152344.03125-.007813.050781-.011719.066406-.027344-.070312-.695312-.113281-1.535156-.613281-2.046875-.082031-.089844-.1875-.171875-.308594-.242187zm12.425782.351562c.179687.472657.246093.984375.289062 1.519531.019531.253907.042969.507813.066406.761719.039063-.011719.082032-.011719.125-.023437.0625-.015625.117188-.023438.171875-.035156.285157-.054688.574219-.132813.609375-.460938-.199218-.636719-.578125-1.53125-1.1875-1.726562-.023437-.015626-.046875-.023438-.074218-.035157zm1.355468 1.089844v.007813c.222656.214843.113282.855468.410156.796874.039063-.011718.089844-.035156.15625-.078124-.007812-.167969-.164062-.382813-.316406-.535157-.089844-.085937-.179687-.167969-.25-.191406zm-2.007812.878906c-.003906.023438-.011719.035157-.019532.058594-.050781.355469.023438.71875.046876 1.019531.058593-.035156.117187-.097656.179687-.160156.101563-.082031.1875-.175781.296875-.226562-.070312-.265626-.210938-.636719-.503906-.691407zm-4.269532.113281c-.066406.132813-.109374.257813-.152343.390626-.058594.246093-.082031.527343-.078125.796874.015625.359376.066406.730469.128906 1.042969.046875.007813.09375.019531.152344.023438.101562.007812.203125.011719.285156 0 .121094-.007813.230469-.027344.316406-.074219.019532-.015625.039063-.023438.058594-.039062-.015625-.4375-.207031-.871094-.414062-1.316407-.117188-.273437-.230469-.535156-.296876-.824219zm6.65625.453126v.003906c-.035156-.003906-.078124 0-.132812.011718-.03125 0-.0625.007813-.101562.019532-.238282.03125-.464844.101562-.703126.214844-.054687.015624-.101562.035156-.160156.066406-.089844.046875-.1875.09375-.292968.15625-.210938.128906-.433594.265625-.648438.417968-.082031.066407-.171875.136719-.277344.203126-.214844.160156-.425781.332031-.652344.484374-.074218.0625-.160156.121094-.242187.179688-.242187.175781-.492187.335938-.746094.476562-.085937.054688-.183593.101563-.273437.140626-.066406.007812-.128906.015624-.195313.019531-.199219.007812-.394531.015625-.59375.027343-.152343.007813-.308593.015626-.464843.015626-.109376.007812-.214844.011718-.324219.019531-.113281.007812-.222657.015625-.332031.023437-.085938.011719-.183594.015625-.28125.027344-.042969 0-.09375.019531-.148438.023438-.320312.054687-.636719.125-.941406.242187-.121094.042969-.238282.101563-.359375.15625l-.289063.171875-.671875.363281c-.097656.515625.019531.957031.160157 1.40625.316406.730469.796874 1.300781 1.414062 1.65625.261719.144531.535156.261719.824219.328125.105469.03125.199219.046875.300781.054688.238281.015625.480469-.007813.703125-.035156.054687-.015626.105469-.019532.148437-.03125.097657-.011719.191407-.039063.273438-.0625.113281-.03125.21875-.058594.308594-.09375.113281-.03125.214844-.070313.308594-.105469.148437-.066407.289062-.128907.414062-.195313.1875-.097656.359375-.199218.519531-.3125.152344-.097656.292969-.195312.433594-.300781.253906-.183594.488281-.382813.710937-.601563.082032-.066406.160157-.144531.230469-.210937.179688-.171875.34375-.34375.519531-.527344l.125.011719.03125-.011719c.015626.066407.023438.132813.015626.1875-.019532.3125-.355469.597657-.382813.789063.1875-.042969.378906-.082032.550781-.140625.113282-.042969.21875-.070313.308594-.105469.230469-.097656.460938-.195312.675781-.3125.109375-.050781.207031-.097656.289063-.15625.0625-.027344.109375-.054688.15625-.089844.222656-.128906.4375-.277344.644531-.425781.035156-.035156.066406-.050781.09375-.070313.046875-.035156.082031-.058593.109375-.085937.066406-.042969.121094-.089844.164062-.136719.222657-.175781.429688-.355468.636719-.546875.054688-.050781.105469-.097656.160157-.160156-.085938-.148437-.109376-.332031-.136719-.515625-.019531-.210938-.042969-.421875-.152344-.582031-.027344-.058594-.074219-.113281-.132813-.167969-.027343.03125-.054687.046875-.089843.082031-.203125.15625-.441407.269531-.691407.335938-.054687.015625-.117187.03125-.191406.039062-.03125.011719-.074218.023438-.125.023438-.03125.007812-.066406.007812-.109375.019531-.234375.03125-.492187.03125-.746093.035156-.054688.003906-.113282-.003906-.175782 0-.113281-.003906-.222656.003906-.335937 0-.246094 0-.496094.011719-.742188.058594-.109375.015625-.210937.035156-.3125.074219-.082031.019531-.167969.042969-.238281.074219-.136719.160156-.261719.320312-.394531.484374-.066407.097657-.140625.1875-.214844.285157-.207031.269531-.425781.546875-.652344.8125-.128906.15625-.253906.308593-.398437.449219-.148438.152343-.308594.300781-.480469.449218-.117187.101563-.25.191406-.390625.289063-.085938.054687-.179688.117187-.289062.171875-.085938.042968-.1875.09375-.296876.144531-.050781.015625-.109374.046875-.171874.0625-.027344.019531-.0625.027344-.089844.035156-.042969.011719-.09375.027344-.148438.039063-.308594.085937-.652344.101562-.984375.058594-.277343-.054688-.59375-.203126-.824219-.398438l.003907.007812c-.007813-.007812-.019531-.019531-.03125-.027343-.003907-.003907-.007813-.007813-.011719-.011719v-.003906c-.28125-.242188-.734375-.894532-.71875-1.347656.15625.128906.324219.265624.480469.390624.222656.167969.445312.332032.675781.460938.066406.027344.132812.03125.195312.046875.355469.050781.6875.039063.992188-.019531.054688-.015625.105469-.03125.148438-.042969.09375-.023437.183593-.050781.265624-.082031.113282-.042969.210938-.082032.300782-.128906.109375-.054688.207031-.105469.289062-.160157.148438-.085937.28125-.164062.398438-.265625.183594-.117187.347656-.253906.5-.386718.148437-.121094.28125-.246094.414062-.375.246094-.210938.476563-.4375.699219-.644532.078125-.078125.160156-.148437.230469-.222656.21875-.183594.425781-.367188.636718-.539062.039063-.015626.074219-.050782.121094-.085938.050782-.027344.109375-.054688.171875-.070312.230469-.097657.472657-.152344.707031-.183594.109376-.007813.21875-.027344.328126-.03125.0625-.007813.117187-.011719.175781-.015625.246093-.023438.5-.035157.734375-.078125.042968 0 .074218-.007813.105468-.015625.054688-.003907.097657-.011719.128907-.023438.074219-.007812.136719-.027343.191406-.039062.246094-.082031.476563-.179688.683594-.347657.03125-.019531.046875-.035156.066406-.054687.03125-.039063.0625-.09375.078125-.15625.082031-.25.011719-.570313-.125-.75-.023438-.003906-.050781-.019531-.074219-.023437-.070312-.046876-.144531-.082032-.230469-.117188h-.003906c-.265625-.117188-.5625-.191406-.828125-.191406-.058593-.007813-.125-.011719-.199219-.003906zm-3.277343.164062-.023438.164062-.078125.792969.003906.054688.019532.042969.074218.058593c.054688-.046875.125-.113281.1875-.164062.128907-.105469.246094-.214844.289063-.375zm23.65625.144531c-3.84375 1.734375-6.953125 5.230469-6.894531 9.324219.234374.507812.761718.597656 1.207031.777344 2.402343 1.042968 3.835937-1.4375 5.773437-1.792969-.820312.65625-1.847656 1.105469-2.699218 1.882813-3.078126 2.535156-2.375 6.6875-3.578126 10.035156-.117187.804687 1.234376.417968 1.558594 1.136718-2.054687-.121093-4.488281-.269531-6.070312 1.222657-1.585938.03125-3.195313.0625-4.429688 1.078125-.410156.503906-.9375.984375-.847656 1.730468 0 .269532.351562.476563.585938.269532.910156-1.972656 2.933593-2.421875 4.925781-2.363282.175781.03125.4375.214844.410156.421876-1.46875.058593-2.964844.058593-4.078125 1.015624-.554688.507813-.878906 1.132813-.90625 1.851563-.089844.355469.320312.507813.613281.449219.675781.085937.441407.863281.792969 1.222656 1.234375.121094.5-1.460938 1.113281-2.03125.882813-1.464844 3.285157-2.449219 4.371094-1.195312-1.320313-.238282-2.816406-.058594-3.726563 1.136718-.351562.535156-.554687 1.195313-.351562 1.851563l.472656.089843c.261719.175782.640625.445313.496094.863282 1.582031.777344 3.109375-.296875 4.574219-.65625 1.671875.300781 3.429687-.179688 4.515625-1.582032-.058594-1.761718 1.875-2.507812 2.667968-3.945312 2.429688-3.253906 4.808594-6.539062 4.71875-10.898438.5-.71875 1.203126-1.464843.851563-2.511718-.144531-.445313-.761719-.597656-1.203125-.417969-.4375-3.375-.964844-7.886719-4.863281-8.964844zm-24.859375.316407c-.015625.234374-.136719.484374-.222656.710937-.0625.234375-.082032.453125.132812.632813.011719.007812.023438.007812.035156.015624.175782-.015624.351563-.03125.488282-.089843.113281-.042969.195312-.109375.265624-.21875-.011718-.351563-.296874-.625-.550781-.871094-.050781-.066406-.109375-.117187-.148437-.179687zm-3.21875.535156c-.066406.097656-.117188.203125-.152344.3125-.078125.25-.132812.523437-.195312.792968.113281 0 .253906-.023437.382812-.082031.121094-.046875.238281-.113281.328125-.191406-.128906-.28125-.085937-.660156-.363281-.832031zm10.066406 2.808594c-.039062.023437-.078125.046874-.125.070312-.050781.023438-.109375.050781-.179688.082031-.226562.117188-.460937.246094-.671874.417969-.054688.050781-.105469.101562-.160157.148438-.035156.035156-.066406.078124-.101562.121093-.027344.027344-.046875.066407-.085938.101563-.03125.050781-.0625.105468-.082031.15625.058594.085937.121094.160156.183594.234375.0625.050781.105468.097656.148437.140625.058594.050781.117188.101562.175781.144531.078126.054687.160157.113281.242188.171875.292969.171875.597656.3125.894531.421875.070313.027344.140625.0625.21875.074219l.085938-.210938c-.101563-.722656.050781-1.671875-.542969-2.074218zm-5.460938 2.730468c-.050781.058594-.105468.097656-.164062.136719-.15625.125-.347656.195313-.527344.28125-.140625.0625-.277344.128906-.414062.214844-.089844.070312-.179688.152343-.242188.246093.191406.21875.332032.511719.507813.757813.152343.195313.320312.363281.546875.417969.007812-.003906.015625-.015625.027344-.03125.136718-.140625.203124-.316406.269531-.527344-.003907-.144531.027343-.316406.0625-.480469.101562-.378906.210937-.773437-.066407-1.015625zm2.90625.496094c-.074218-.007812-.15625.003906-.230468.027344-.101563.035156-.1875.097656-.253906.171875l.339843.117187c.003907-.003906.011719-.007812.019531-.011718.171876-.058594.359376.039062.414063.21875.0625.175781.027344.566406-.144531.625-.054688.019531-.113282 0-.171875-.035157l-.453125-.097656c.164062.226563.433594.40625.664062.328125.308594-.105469.433594-.625.328125-.9375-.074219-.234375-.28125-.390625-.511719-.40625zm.925782 1.40625c-.191406.011719-.386719.042969-.578125.09375-.027344.015625-.058594.027344-.089844.039062-.042969.015626-.082031.023438-.128906.027344-1.574219.550782-2.417969 2.292969-1.886719 3.90625.535156 1.625 2.265625 2.507813 3.859375 1.96875 1.597656-.539062 2.457031-2.292968 1.917969-3.921875-.449219-1.363281-1.742188-2.203125-3.09375-2.113281zm-20.675782.730469c-1.523437.984375-2.082031 2.6875-2.667968 4.242187-.46875-.121094.089844-.957031-.496094-1.136718-.472656.03125-.675781.570312-.910156.925781-.179688.714843.203125 1.402343.554687 2.003906 0 3.730469 1.230469 7.195313 4.515625 9.320313.382813.953124.46875 2.03125 1.113282 2.867187 1.054687 1.285156 2.875 1.164063 4.371093.925781 1.171875.894532 2.667969 1.402344 4.074219.65625-.027344-.417968.324219-.746094.644531-.925781.382813-.238281.820313.089844 1.117188.0625.378906-.691406-.089844-1.378906-.148438-2.09375-.5-1.613281-2.40625-.867187-3.519531-1.554687-.203125-.179688.089844-.386719.207031-.445313.878907.625 2.167969.265625 3.050781.867187.613282.386719 1.082032 1.042969 1.171876 1.789063.144531.480469.027343 1.105469.351562 1.4375.527344-.273437-.117188-.6875.085938-1.136719.175781-.65625.96875-.597656 1.464843-.597656.207031-.804688-.234375-1.523438-.847656-2.0625-.851563-1.046875-2.140625-.359375-3.226563-.867188-.203124-.148437.027344-.324218.144532-.417968.765625.269531 1.46875.03125 2.261718.210937.964844.175781 1.582032.898438 2.019532 1.792969.351562 0 .792968-.359375 1.058594-.570312-.058594-.65625-.5-1.132813-.851563-1.671876-.730469-.535156-1.699219-.953124-2.667969-.566406-1.320312.566406-2.050781-.625-3.019531-1.136718-1.347656-.566407-2.933594-.027344-3.929687 1.078124l-.144532-.152343c.4375-1.015625 1.757813-1.257813 2.605469-1.734375l-.230469-.269532c-.53125-2.6875-3.375-3.613281-5.542968-4.300781l.144531-.148437c1.199219.0625 2.140625.808594 3.371093.871094.5-.0625.878907-.421876 1.203126-.808594-1.992188-1.34375-4.046876-2.929688-5.570313-5.019532-.5-.507812-.9375-1.492187-1.757813-1.433593zm29.328126 5.101562c-.726563-.058593-1.453126.632813-2.179688.722657-1.554688.628906.175781 2.359374-1.171875 3.226562.203125.148438.761719.210938.613281.570312-1.230468-.210937-2.957031-.332031-4.011718.652344l.292968.121094c-.324218.570312-1.261718.300781-1.613281 1.074219-.351563.480469-.558594 1.078125-.351563 1.675781h.554688c.292969.121094.207031.445312.410156.625.878906.03125.089844-.746094.292969-1.222656.03125-.71875.324219-1.375 1-1.792969.4375-.058594.910156-.476563 1.316406-.117187-1.316406.027343-2.109375 1.523437-1.757812 2.71875l.703125-.210938c.207031.089844.46875.296875.5.566406 1.433594.449219 2.433594-.476562 3.722656-.566406 2.347656-1.671875 4.042969-4.179688 4.308594-7.050781-.324219-.835938-1.289063-.417969-1.90625-.625-.242188-.242188-.480469-.34375-.722656-.367188zm-7.925782 5.59375c-.878906-.03125-1.730468.449219-2.050781 1.285157-.234375.625.203125.953124.644531 1.285156.175782.148437-.117187.566406.261719.503906.324219-.089844.265625-.355469.148437-.566406-.261718-.984375.175782-1.941406.996094-2.507813zm28.929688 2.058594c-.0625-.015625-.136719-.003906-.226563.03125-.378906.058594-.613281.539063-.496093.835937.292968-.566406.941406.148438 1.054687-.417968-.066406-.179688-.148437-.410156-.332031-.449219zm1.988281.21875c-.070313-.011719-.152344-.007813-.25.023437-.292969.175782-.582031.476563-.554687.863282.410156-.148438.847656-.296875 1.203124-.449219-.066406-.199219-.183593-.398437-.398437-.4375zm3.769531.15625c-.0625-.007813-.132812-.007813-.207031.015625-.265625.207031-.585937.597656-.351563.984375.203126-.148437.46875-.417969.761719-.207031.121094-.121094.292969-.242188.207031-.417969-.066406-.179687-.214843-.34375-.410156-.375zm-36.886718.132813c-.144532.148437-.351563.359374-.261719.507812.203125-.117188.585937.0625.761719-.207031-.058594-.210938-.261719-.332031-.5-.300781zm4.171874.078124c-.027343-.003906-.058593-.003906-.09375.011719-.207031.089844-.382812.328125-.351562.570313.175781-.242188.644531-.0625.644531-.417969-.066406-.070313-.117187-.152344-.199219-.164063zm-2.066406.070313c-.222656-.015625-.449218.332031-.492187.511719.234375-.210938.761719.117187.703125-.359375-.066406-.105469-.136719-.148438-.210938-.152344zm-4.804687 2.449219c-.101563-.015625-.207031-.011719-.308594.011718-.132813.03125-.261719.09375-.363281.199219-.292969 1.136719.910156.179688 1.351562.507813v-.148438c-.082031-.320312-.371094-.527344-.675781-.570312zm7.761719 1.074218c-.089844-.003906-.195313.019532-.28125.003907-.207032.210937-.410157.417969-.410157.71875h.144531c.175782-.359375 1.027344.148437.761719-.570313-.042969-.117187-.121093-.148437-.214843-.152344zm-10.089844.570313c-.136719.019531-.269532.085937-.394532.210937-.175781 1.164063.9375.300782 1.410157.65625v-.207031c-.199219-.359375-.613281-.71875-1.019531-.660156zm11.488281.734375c-.175781-.007812-.367187.105469-.476563.285156-.089843.207032-.441406.449219-.207031.714844.324219-.359375 1-.179688 1.117188-.714844-.089844-.089844-.148438-.242187-.265625-.242187-.050782-.027344-.109375-.042969-.167969-.042969zm-14.050781.894531c-.109375-.015625-.230469-.011719-.355469.015625-.175781.179688-.320313.332032-.292969.570313.292969.625.941406 0 1.410156.296875v-.296875c-.15625-.292969-.425781-.53125-.761718-.585938zm16.757812.304688c-.050781-.007813-.105468-.003907-.164062.011719-.234375.117187-.589844.476562-.355469.714843.265625-.148437.617187-.265625.796875-.445312-.023438-.15625-.128906-.265625-.277344-.28125zm0 0" fill="#fff"/><path d="m23.824219 30.75.304687-.109375 2.375 2.75.925782-.328125.222656-3.664062.261718-.09375-.226562-.664063-1.710938.605469.230469.667968.402344-.140624-.113281 2.089843-1.34375-1.578125.375-.132812-.226563-.65625-1.699219.597656zm0 0" fill="#007a33"/><path d="m22.039062 4.398438c-.144531.085937-.277343.179687-.394531.28125-.050781.058593-.105469.105468-.15625.164062-.035156.03125-.066406.078125-.101562.117188-.023438.03125-.046875.074218-.082031.113281-.21875.320312-.351563.691406-.46875 1.097656-.027344.105469-.054688.226563-.089844.347656-.046875.242188-.089844.492188-.136719.730469-.066406.394531-.144531.777344-.238281 1.132812.078125-.328124.175781-.652343.28125-.972656.0625-.175781.125-.351562.195312-.519531.042969-.089844.078125-.167969.109375-.257813.152344-.3125.316407-.605468.523438-.878906.035156-.046875.0625-.074218.085937-.105468.03125-.039063.066406-.085938.101563-.128907.050781-.058593.105469-.105469.15625-.164062.035156-.035157.0625-.066407.097656-.097657.179687-.160156.40625-.179687.617187-.136718.082032.011718.15625.027344.21875.054687.15625.046875.292969.101563.398438.128907-.152344-.195313-.316406-.492188-.546875-.6875-.074219-.070313-.148437-.132813-.242187-.160157-.101563-.039062-.207032-.066406-.328126-.058593zm-7.265624 1.789062s-.097657.046875-.144532.082031c-.382812.289063-.578125.761719-.671875 1.261719-.050781.351562-.050781.726562-.011719 1.042969.035157-.199219.078126-.402344.125-.609375.039063-.144532.070313-.289063.101563-.433594.082031-.273438.34375-.539062.636719-.574219.054687 0 .109375-.007812.15625.003907.03125-.007813.054687-.003907.078125 0 .074219.027343.15625.050781.230469.074218.136718.042969.257812.085938.375.15625.140624.0625.277343.152344.402343.253906.21875.15625.425781.347657.617188.554688.320312.34375.605469.753906.835937 1.15625l.015625-.105469c-.296875-.65625-.621093-1.511719-1.132812-2.105469-.167969-.214843-.371094-.398437-.605469-.527343-.109375-.070313-.234375-.128907-.375-.15625-.109375-.039063-.230469-.0625-.355469-.074219-.085937-.007812-.175781-.015625-.277343 0zm4.226562 1.390625c-.046875.023437-.105469.054687-.160156.066406-.074219.042969-.164063.089844-.25.148438-.269532.199219-.484375.484375-.492188.882812.195313-.144531.410156-.273437.628906-.375.089844-.035156.179688-.074219.261719-.097656.246094-.078125.496094-.109375.757813-.082031.058594.007812.113281.015625.171875.023437l.015625-.109375c-.074219-.160156-.175782-.257812-.296875-.328125-.183594-.105469-.40625-.113281-.636719-.128906zm3.03125 3.898437c-.089844-.007812-.195312.035157-.199219.148438.019531.148438.183594.191406.3125.183594l-.003906-.007813c.046875 0 .105469-.035156.128906-.09375.035157-.042969.035157-.109375-.019531-.160156-.011719 0-.011719 0-.027344-.007813-.039062-.023437-.113281-.058593-.191406-.0625zm-.261719.578126c-.230469.089843-.066406.507812.175781.375.015626.007812.023438.003906.023438.003906.109375-.007813.167969-.136719.167969-.261719-.097657-.03125-.171875-.089844-.265625-.109375-.023438-.003906-.066406-.003906-.101563-.007812zm-1.027343.066406c-.085938.058594-.140626.140625-.125.25.070312.050781.171874.089844.269531.085937.078125 0 .148437-.027343.203125-.113281.011718-.160156-.144532-.210938-.289063-.214844-.023437-.003906-.046875 0-.058593-.007812zm3.449218.078125c.113282.136719.226563.277343.320313.421875.140625.199218.261719.40625.359375.605468.808594 1.589844.777344 3.457032 1.929687 4.875l-.027343-.105468c-.753907-1.71875-.5625-4.039063-2.066407-5.394532-.078125-.082031-.160156-.148437-.253906-.214843-.085937-.066407-.167969-.125-.261719-.1875zm-1.5625.277343c-.046875.003907-.085937.015626-.125.039063-.070312.027344-.109375.09375-.132812.167969-.011719.085937.003906.183594.0625.246094.039062.039062.125.050781.203125.046874h.003906.023437l-.003906-.011718c.101563-.046875.261719-.136719.246094-.277344-.007812-.160156-.152344-.195312-.277344-.210938zm-3.554687.035157c-.035157-.003907-.066407.007812-.105469.027343-.183594.097657-.304688.492188.082031.386719.011719-.003906.019531-.003906.019531-.003906.121094-.089844.179688-.210937.152344-.359375-.046875 0-.132812.011719-.148437-.050781zm-1.554688.023437c-.039062-.011718-.082031 0-.125.027344-.078125.042969-.152343.144531-.179687.210938l.179687.167968c.035157.003906.078125-.007812.09375-.027344.085938-.058593.113281-.15625.140625-.265624-.03125-.066407-.070312-.097657-.109375-.109376zm3.941407.296875c-.054688-.003906-.101563-.003906-.140626.003907-.253906.058593-.308593.527343.109376.460937l.007812-.003906c.128906-.035157.269531-.128907.203125-.292969-.035156-.09375-.113281-.09375-.179687-.167969zm-3.40625.160157c-.03125.011718-.046876.027343-.070313.035156-.117187.054687-.183594.230468-.144531.378906.0625.109375.167968.078125.253906.03125.039062-.023438.070312-.03125.109375-.054688.09375-.113281.0625-.390624-.148437-.390624zm.699218.492187c-.023437.003906-.035156.007813-.046875.011719-.117187.042968-.171875.183594-.183593.300781l.246093.136719c.023438.003906.042969 0 .050781-.015625.160157-.066407.230469-.269531.148438-.414063zm-1.453125.203125c-.09375.015625-.175781.082031-.230469.167969-.085937.148437-.082031.339843.101563.402343.035156 0 .0625.015626.09375.007813.0625-.019531.15625-.042969.226563-.070313.109374-.054687.1875-.132812.207031-.273437-.039063-.136719-.183594-.226563-.339844-.226563-.011719-.007812-.03125-.003906-.058594-.007812zm-1.574219.601562c-.207031.363282-.347656.71875-.4375 1.09375-.46875 1.898438.339844 3.921876.671876 5.691407.285156-1.621094-.355469-3.171875-.433594-4.78125-.027344-.605469.03125-1.234375.246094-1.855469.019531-.050781.035156-.089844.050781-.140625l-.085938.003906zm21.425782.230469-3.589844 3.898438.816406.769531.375-.40625 3.050782 2.878906-.375.40625.816406.773438 1.964844-2.132813-.816407-.769531-.488281.527344-1.066406-1.007813.351562-.382812.515625.488281.667969-.726562-1.769531-1.667969-.667969.726562.480469.453125-.351563.378906-1.210937-1.140624 1.273437-1.378907.726563.691407.847656-.921876zm0 0" fill="#00235d"/></svg>