<svg height="41pt" viewBox="0 0 69 41" width="69pt" xmlns="http://www.w3.org/2000/svg"><path d="m.742188.308594s10.164062 3.511718 15.972656 7.492187c-8.183594 3.589844-11.59375 15.421875-11.59375 15.421875s2.875-1.246094 3.058594-1.324218c-6.925782 8.289062-7.839844 18.878906-7.839844 18.878906s3.941406-5.871094 11.441406-9.789063c-1.179688 2.425781-2.269531 4.671875-2.367188 4.871094l-.023437.046875c-.171875.375-.261719.796875-.261719 1.21875 0 .511719.136719 1.003906.390625 1.429688.375.621093 1.148438 1.359374 2.714844 1.359374l43.425781-.007812c2.144532 0 3.769532-.257812 5.171875-3.558594 0-.003906 3.769531-8.980468 3.769531-8.980468.097657-.242188.214844-.53125.316407-.847657 2.1875-4.765625 5.257812-11.035156 3.183593-14.582031-1.703124-2.910156-4.460937-4.0625-9.273437-4.292969.007813-.085937.015625-.171875.015625-.257812 0-.753907-.210938-1.472657-.628906-2.132813-1.839844-2.902344-7.75-4.515625-18.070313-4.925781h-.019531zm0 0" fill="#a3aaae"/><path d="m7.128906 1.472656s7.0625 2.652344 11.921875 6.644532c-7.839843 2.328124-11.878906 12.953124-11.878906 12.953124 5.125-2.21875 6.058594-2.414062 6.058594-2.414062-7.785157 4.832031-10.765625 17.738281-10.765625 17.738281s4.140625-5.277343 12.074218-8.296875c-1.601562 3.296875-4.046874 8.328125-4.046874 8.328125l-.011719.023438c-.082031.183593-.144531.421875-.144531.675781 0 .246094.058593.511719.207031.761719.308593.507812.878906.765625 1.691406.765625l43.425781-.007813c1.925782 0 2.945313-.167969 4.066406-2.808593l3.769532-8.972657c.367187-.898437.585937-1.613281.285156-2.199219-.351562-.6875-1.164062-1.101562-2.457031-1.09375l-17.332031.007813c2.222656-2.066406 5.359374-2.65625 6.847656-2.710937 1.75-.058594 7.476562-.175782 9.667968-.089844 2.746094.105468 3.667969.859375 3.941407 3.082031 2.136719-3.851563 8.351562-15.203125-7.058594-15.089844 1.277344-3.0625-1-6.632812-17.289063-7.28125zm0 0" fill="#011e41"/><path d="m51.054688 12.796875c-.59375.554687-1.402344.851563-2.246094.734375-1.320313-.179688-2.292969-1.304688-2.398438-2.640625-5.570312-1.925781-12.496094-3.496094-12.574218-3.511719-.007813 0-.015626-.003906-.019532-.003906-2.703125-.59375-12.328125-2.511719-14.320312-2.914062-.230469-.046876-.363282-.085938-.363282-.085938 3.890626 1.171875 10.105469 4.507812 11.234376 5.121094 3 .167968 6.46875.761718 10.445312 1.933594 0 0-2.703125-.164063-6.429688-.085938-6.628906.152344-16.5 1.109375-20.261718 5.269531 3.277344-1.277343 8.003906-1.691406 11.578125-1.042969 8.15625-1.140624 15.242187 2.261719 15.242187 2.261719-3.347656.066407-5.789062 1.765625-5.789062 1.765625s-17.503906-2.664062-27.214844 9.867188c0 0 6.238281-6.3125 15.347656-6.3125h16.921875s1.863281-3.441406 6.960938-4.230469c-1.472657-2.035156-6.074219-3.792969-6.074219-3.792969 6.820312 0 7 .304688 8.773438-.496094 2.011718-.90625 2.179687-1.261718 2.179687-1.261718-.289063-.191406-.621094-.382813-.992187-.574219" fill="#9ba1a6"/><path d="m56.109375 10.953125s-4.347656 3.347656-.757813 4.085937c0 0-4.988281.648438-6.644531 1.945313 0 0 .828125 1.386719 1.382813 1.941406 0 0 8.667968-.183593 10.691406 0 0 0-3.839844-1.445312-9.125-.710937l-.554688-.800782c2.207032-.925781 8.207032-.523437 8.207032-.523437s3.640625.285156 4.9375 2.507813c0 0 4.085937-7.871094-3.742188-8.15625zm-22.390625 13.933594c-1.558594 0-2.128906.851562-2.15625.890625v.003906l-1.960938 3.699219c-.199218.371093-.226562.675781-.082031.917969.175781.292968.574219.433593 1.222657.433593h2.675781c.066406 0 1.644531-.011719 2.175781-1.011719l2.054688-3.882812c.140624-.269531.089843-.464844.023437-.582031h-.003906c-.273438-.453125-1.261719-.46875-1.375-.46875zm-13.464844.011719c-.605468 0-1.933594.082031-2.574218 1.230468-.316407.5625-1.585938 3.09375-1.585938 3.09375-.074219.136719-.230469.441406-.230469.75 0 .132813.027344.269532.101563.390625.191406.316407.617187.472657 1.292968.472657h4.4375l1.660157-3.246094h-3.292969l-.707031 1.375h.613281c-.105469.207031-.207031.40625-.257812.5h-.503907c-.253906 0-.296875-.058594-.300781-.066406-.003906-.003907-.007812-.011719-.007812-.035157 0-.039062.019531-.121093.097656-.277343 0 0 1.203125-2.34375 1.441406-2.8125h1.058594l-.199219.390624h2.574219l.902344-1.765624zm7.375 0c-1.929687 0-2.605468 1.402343-2.652344 1.511718-.003906.003906-2.347656 4.433594-2.347656 4.433594h5.53125l.3125-.589844.007813-.027344c.003906-.039062.007812-.078124.007812-.117187 0-.148437-.046875-.28125-.136719-.390625-.136718-.160156-.359374-.25-.628906-.253906h-1.429687c.15625-.300782.5-.945313.5625-1.070313h2.199219l.726562-1.378906h-2.191406c.082031-.15625.167968-.320313.167968-.320313.148438-.277343.4375-.417968.867188-.417968h1.894531l.730469-1.378906zm11.335938 0-3.179688 5.945312h2.847656s.90625-1.710938 1.046876-1.976562c.152343.101562.367187.242187.5.332031-.113282.214843-.867188 1.644531-.867188 1.644531h2.773438l1.199218-2.265625s-.503906-.292969-.789062-.453125c.40625-.144531 1.273437-.445312 1.273437-.445312l.871094-1.617188c.082031-.152344.113281-.28125.113281-.390625 0-.121094-.035156-.214844-.078125-.285156-.28125-.472657-1.242187-.488281-1.347656-.488281zm8.628906 0c-1.742188.003906-2.222656.941406-2.6875 1.847656-.003906.007812-1.285156 2.476562-1.285156 2.476562-.101563.199219-.375.722656-.125 1.140625.191406.316407.613281.472657 1.289062.472657h4.441406l1.660157-3.246094h-3.296875l-.707032 1.375h.613282c-.101563.207031-.207032.40625-.257813.5h-.503906c-.253906.003906-.292969-.058594-.300781-.0625 0-.007813-.003906-.015625-.003906-.035156 0-.042969.015624-.121094.09375-.28125 0 0 1.203124-2.34375 1.441406-2.808594h1.058594c-.039063.074218-.199219.386718-.199219.386718h2.574219l.902343-1.765624zm5.375 0-3.148438 5.945312h2.773438l3.148438-5.945312zm4.449219 0-4.378907 5.945312h2.898438l.667969-1.035156h1.070312c-.125.273437-.464843 1.035156-.464843 1.035156h2.71875l1.789062-4.0625.003906-.003906c.273438-.5625.3125-.992188.117188-1.3125-.238282-.382813-.785156-.566406-1.671875-.566406zm-23.292969 1.253906h.40625c.042969.003906.128906.023437.144531.0625.007813.007812.011719.015625.011719.035156 0 .035156-.015625.09375-.058594.171875 0 0-1.398437 2.636719-1.664062 3.144531h-.421875c-.050781 0-.128907-.015625-.144531-.046875-.003907-.003906-.003907-.011719-.003907-.027343 0-.03125.011719-.089844.054688-.171876 0 0 1.40625-2.65625 1.675781-3.167968zm24.804688.257812c.210937.007813.25.050782.25.054688s.007812.011718.007812.03125c0 .039062-.019531.128906-.109375.320312-.003906 0-.582031 1.261719-.742187 1.613282h-.667969c.238281-.378907 1.179687-1.894532 1.261719-2.019532zm-17.972657.066406h.425781c.15625 0 .207032.019532.222657.027344 0 .011719-.003907.039063-.039063.101563h.003906s-.148437.273437-.210937.394531c-.070313.023438-.484375.167969-.839844.292969.179688-.335938.382813-.714844.4375-.816407zm-18.324219 4.917969c-1.335937 0-1.90625.859375-1.929687.894531l-.003906.003907-2.125 3.898437c-.070313.128906-.257813.472656-.082031.777344.152343.253906.5.375 1.074218.375h2.277344c.058594.003906 1.417969-.007812 1.960938-1.007812l2.117187-3.882813c.164063-.296875.109375-.503906.039063-.628906-.242188-.414063-1.042969-.429688-1.132813-.429688zm4.519532 0-2.609375 4.796875c-.074219.128906-.261719.472656-.082031.777344.148437.253906.5.375 1.070312.375h2.277344c.0625.003906 1.417968-.007812 1.960937-1.007812l1.914063-3.507813c.300781 0 1.246094-.003906 1.554687-.007813-.21875.421876-2.40625 4.589844-2.40625 4.589844h2.398438s2.316406-4.421875 2.402343-4.589844h1.488282l-2.441406 4.589844h2.378906s1.144531-2.175781 1.226562-2.332031h.484375c-.199219.378906-1.226562 2.332031-1.226562 2.332031h2.375l3.195312-6.015625h-2.378906s-1.085937 2.027344-1.167969 2.183594h-.476562c.199218-.375 1.164062-2.183594 1.164062-2.183594h-2.375l-.636718 1.195313c.0625-.167969.117187-.351563.117187-.523438 0-.121094-.027344-.242187-.09375-.34375-.144531-.21875-.429687-.320312-.878906-.320312h-2.691407c-.792968 0-1.285156.328125-1.621093.71875l.390625-.726563h-2.410156s-2.464844 4.519531-2.554688 4.683594h-.355469c-.054687 0-.082031-.007813-.097656-.011719.003906-.03125.027344-.101562.113281-.261718l2.40625-4.410157zm18.121094 0c-1.570313 0-2.269532 1.460938-2.296876 1.523438l-2.257812 4.257812-.125.234375h4.375l.210938-.449218c.144531-.269532.167968-.511719.0625-.695313-.109376-.1875-.339844-.28125-.683594-.28125h-.828125c.164062-.300781.511719-.949219.578125-1.070313h1.648437l.742188-1.386718h-1.648438c.082031-.15625.167969-.324219.167969-.324219.152344-.277344.390625-.421875.710938-.421875h1.4375l.742187-1.386719zm3.292968 0-3.195312 6.015625h2.40625s.992187-1.890625 1.15625-2.199218c.128906.113281.238281.214843.332031.292968-.105469.195313-.996094 1.90625-.996094 1.90625h2.339844l1.3125-2.5s-.398437-.300781-.617187-.464844c.339843-.136718 1.113281-.457031 1.113281-.457031l.757812-1.417969c.085938-.160156.128907-.308593.128907-.449218 0-.101563-.023438-.203125-.078126-.289063-.25-.421875-.980468-.4375-1.0625-.4375zm-32.007812.007813c-.804688 0-1.601563.253906-1.910156.820312-.277344.507813-.707032 1.210938-.871094 1.742188-.164063.535156.347656 1.015625 1.058594 1.058594.003906 0 .863281.050781.863281.050781.300781.015625.34375.15625.28125.269531 0 0-.324219.601562-.398438.734375h-.320312c-.085938 0-.128907-.007813-.152344-.011719.007813-.027344.023437-.078125.074219-.179687.042968-.085938.0625-.160157.0625-.226563 0-.078125-.027344-.140625-.054688-.1875-.117187-.199218-.414062-.246094-.636718-.25h-1.464844l-.585938 1.070313c-.011718.023437-.171875.363281.015625.667969.160157.253906.511719.382812 1.039063.382812h2.324218c.0625 0 1.480469-.027344 1.953126-.898438.003906 0 .757812-1.429687.757812-1.429687.125-.226563.171875-.417969.171875-.570313 0-.140624-.035156-.253906-.082031-.335937-.136719-.261719-.453125-.433594-.867188-.46875-.003906 0-.820312-.066406-.875-.074219-.089844-.011718-.355468-.050781-.382812-.097656 0 0-.003906-.003906-.003906-.015625 0-.027344.015624-.113281.128906-.320313 0 0 .171875-.3125.253906-.46875h.554688c-.070313.136719-.261719.5-.261719.5h2.324219l.921874-1.761718zm37.78125.09375-.042969.085937-2.835937 5.8125h2.273437s.8125-1.730469 1.125-2.390625c.085937.691406.296875 2.390625.296875 2.390625h.839844c.449218-.03125 1.296875-.300781 1.878906-1.753906l1.667969-3.929687.09375-.210938h-2.183594s-.6875 1.574219-.96875 2.222656c-.101563-.675781-.332031-2.222656-.332031-2.222656zm-31.429688 1.175781h.328125c.023438 0 .070313.011719.078125.03125.003906.003906.007813.015625.007813.027344 0 .035156-.015625.101562-.070313.203125l-1.714844 3.144531h-.34375c-.03125 0-.074218-.015625-.078124-.023437-.003907-.003907-.003907-.011719-.003907-.023438 0-.027344.011719-.09375.070313-.195312 0 0 1.449218-2.65625 1.726562-3.164063zm27.320313.109375h.332031c.082031 0 .117188.011719.136719.019531-.003907.019531-.015625.050781-.046875.113281 0 0-.152344.28125-.214844.398438-.058594.023438-.332031.140625-.628906.261719.183594-.339844.371094-.691407.421875-.792969zm0 0" fill="#87714d"/><path d="m31.296875 4.109375c-5.664063.019531-10.648437.222656-12.171875.269531 0 0 .128906.039063.363281.085938 1.992188.398437 11.617188 2.320312 14.320313 2.914062.035156 0 .230468.007813.265625.007813 10.433593.207031 14.871093.898437 19.453125 2.160156 1.109375-1.21875 2.519531-3.246094-5.972656-4.609375-4.246094-.683594-10.589844-.847656-16.257813-.828125zm-3.046875 5.339844c-8.824219.101562-13.042969 4.128906-14.140625 7.167969 5.886719-6.5 26.695313-5.183594 26.695313-5.183594-4.945313-1.460938-9.101563-2.023438-12.554688-1.984375zm19.195312.898437c-.003906.011719-.003906.019532-.003906.027344-.140625 1.015625.535156 1.957031 1.5 2.089844.878906.121094 1.699219-.460938 1.949219-1.328125-.191406-.050781-.402344-.097657-.625-.152344-.117187.605469-.664063 1.023437-1.25.941406-.484375-.066406-.851563-.449219-.941406-.921875.070312.113282.183593.191406.308593.191406.21875 0 .390626-.214843.390626-.480468 0-.027344-.003907-.054688-.003907-.078125-.238281-.054688-.480469-.105469-.726562-.160157-.199219-.042968-.398438-.085937-.597657-.128906zm11.117188 2.019532c-.003906 0 1.148438 1.074218-1.496094 1.671874 0 0 2.21875.300782 2.6875-.945312 0 0 3.5625.1875 3.800782 2.835938 0 0 1.085937-3.554688-4.992188-3.5625zm-29.332031 2.96875c-.210938 0-.421875 0-.640625.003906-6.863282.140625-15.113282 3.046875-20.660156 14.128906 9.710937-12.53125 27.214843-9.867188 27.214843-9.867188s2.4375-1.703124 5.789063-1.769531c0 0-5.140625-2.46875-11.703125-2.496093zm4.488281 9.867187c-1.347656 0-1.84375.683594-1.886719.742187-.089843.171876-1.953125 3.683594-1.953125 3.683594-.035156.074219-.132812.253906-.132812.425782 0 .0625.011718.121093.042968.175781.109376.1875.4375.28125.953126.28125h2.671874c.019532 0 1.457032-.007813 1.898438-.839844l2.054688-3.882813c.042968-.078124.054687-.136718.054687-.179687 0-.046875-.015625-.078125-.027344-.089844-.125-.214843-.722656-.3125-1.101562-.316406zm-6.089844.011719c-1.75 0-2.34375 1.273437-2.367187 1.328125v.007812l-.003907.003907s-1.878906 3.550781-2.101562 3.96875h4.816406c.058594-.105469.175782-.328126.195313-.367188 0-.015625.003906-.035156.003906-.046875 0-.074219-.019531-.136719-.0625-.183594-.074219-.089843-.210937-.140625-.386719-.144531h-1.957031l.902344-1.707031h2.195312c.058594-.109375.257813-.484375.394531-.742188h-2.195312l.417969-.789062c.140625-.269531.453125-.585938 1.144531-.585938h1.703125c.058594-.109375.257813-.488281.394531-.742187zm-7.566406 0c-.355469 0-1.441406.15625-1.890625.773437-.445313.621094-1.796875 3.378907-1.796875 3.378907-.054688.105468-.191406.371093-.191406.605468 0 .082032.015625.15625.054687.222656.125.207032.480469.316407 1.019531.316407h4.242188c.078125-.148438 1.144531-2.226563 1.335938-2.605469h-2.578126c-.058593.109375-.25.488281-.382812.742188h.613281l-.582031 1.132812h-.699219c-.296875.003906-.480469-.070312-.570312-.214844-.117188-.191406-.019531-.433594.078125-.625l1.527344-2.984375h1.769531s-.160157.3125-.195313.386719h1.863282c.0625-.125.417968-.824219.574218-1.128906zm19.09375 0c-.085938.15625-2.613281 4.886718-2.839844 5.308594h2.125c.082032-.152344 1.121094-2.117188 1.121094-2.117188l1.035156.683594-.757812 1.433594h2.054687c.078125-.144532.847657-1.59375.96875-1.824219-.199219-.113281-1.128906-.644531-1.128906-.644531s1.703125-.601563 1.8125-.636719c.054687-.101563.816406-1.507813.816406-1.507813.058594-.109375.074219-.183594.074219-.242187 0-.0625-.019531-.101563-.03125-.117188-.144531-.242187-.738281-.335937-1.078125-.335937zm8.4375 0c-1.546875.003906-1.945312.78125-2.40625 1.683594l-1.285156 2.46875c-.050782.105468-.1875.371093-.1875.605468 0 .082032.011718.160156.054687.226563.125.207031.476563.3125 1.019531.3125h4.242188c.078125-.148438 1.140625-2.222657 1.339844-2.605469h-2.585938c-.058594.113281-.25.488281-.382812.742188h.613281l-.582031 1.132812h-.699219c-.292969.003906-.480469-.070312-.566406-.214844-.121094-.191406-.023438-.433594.074219-.625l1.527343-2.984375h1.773438s-.160157.3125-.199219.386719h1.863281c.066407-.125.421875-.824219.574219-1.128906zm5.5625 0c-.082031.160156-2.585938 4.886718-2.808594 5.308594h2.054688c.082031-.15625 2.585937-4.882813 2.8125-5.308594zm4.417969 0c-.085938.121094-3.570313 4.851562-3.90625 5.308594h2.097656c.078125-.125.664063-1.035157.664063-1.035157h1.742187s-.347656.761719-.46875 1.035157h2.015625c.082031-.179688 1.710938-3.878907 1.710938-3.878907l.003906-.007812c.144531-.285157.210937-.519531.210937-.707031 0-.117188-.023437-.210938-.074219-.296876-.167968-.273437-.652343-.417968-1.402343-.417968zm-23.636719.617187h.605469c.027343.003907.289062.015625.410156.21875.082031.140625.066406.3125-.042969.519531l-1.753906 3.316407h-.609375c-.03125 0-.296875-.003907-.417969-.203125-.082031-.132813-.070312-.308594.039063-.515625zm24.902344.257813c.21875-.003906.488281.015625.609375.203125.121093.191406.019531.441406-.085938.660156l-.828125 1.792969h-1.441406l1.664062-2.65625zm-18.070313.066406h.613281c.179688 0 .402344.019531.5.183594.0625.109375.054688.25-.035156.414062l-.265625.503906-1.730469.609376zm-24.078125 5.5625c-.394531 0-1.382812.03125-1.75.621094-.367187.59375-.742187 1.308594-.742187 1.308594l-.066407.210937c-.042968.128906-.054687.21875-.054687.273437 0 .054688.039063.53125.847656.585938 0 0 .789063.039062.789063.039062.261718.015626.511718.054688.613281.234376.03125.054687.042969.105468.042969.164062 0 .117188-.054688.242188-.113282.339844l-.488281.902344h-.507812c-.167969 0-.347657-.019532-.433594-.160157-.089844-.144531.015625-.363281.074219-.496093.058594-.136719-.101563-.195313-.351563-.203126h-1.277343c-.074219.140626-.480469.890626-.488282.902344-.003906.007813-.039062.085938-.039062.1875 0 .050782.011718.109375.042968.160156.097657.15625.363282.238282.769532.238282h2.320312c.011719 0 1.296875-.027344 1.679688-.734375 0 0 .757812-1.429688.757812-1.433594.09375-.167969.1875-.410156.085938-.601563-.085938-.164062-.3125-.273437-.613282-.300781l-.882812-.074219h-.003906c-.320313-.046874-.539063-.089843-.628906-.269531-.082032-.171875-.007813-.375.132812-.636719l.347656-.632812h1.265625s-.195312.375-.265625.503906h1.609375l.597657-1.128906zm17 0c-.78125 0-1.21875.367188-1.523437.785156h1.597656s-2.183594 4.164063-2.40625 4.585938h1.675781l2.410156-4.585938h1.488282c.070312-.183594.109375-.328125.109375-.4375 0-.070312-.011719-.125-.042969-.167968-.078125-.117188-.289062-.179688-.609375-.179688zm-11.058594 0c-1.136718 0-1.621093.6875-1.65625.742188-.082031.148437-2.121093 3.882812-2.121093 3.882812-.035157.066406-.117188.210938-.117188.34375 0 .042969.011719.078125.03125.117188.046875.082031.214844.21875.796875.21875h2.277344c.011719 0 1.226562-.011719 1.679688-.84375l2.117187-3.882813c.105469-.195313.058594-.277344.042969-.304687-.121094-.207032-.628906-.269532-.855469-.273438zm4.710938 0c-.339844.625-2.523438 4.625-2.523438 4.625-.035156.066406-.113281.210938-.113281.34375 0 .042969.007813.078125.027344.117188.050781.082031.21875.21875.796875.21875h2.277344c.015625 0 1.230468-.011719 1.679687-.84375 0 0 2.199219-4.03125 2.433594-4.460938h-1.675781c-.089844.160156-2.554688 4.683594-2.554688 4.683594h-.546875c-.070312 0-.285156 0-.378906-.164063-.03125-.046875-.042969-.101562-.042969-.15625 0-.132812.074219-.28125.15625-.433593 0 0 1.910156-3.503907 2.140625-3.929688zm10.722656 0c-.085937.160156-2.625 4.941406-2.847656 5.371094h1.648438l1.226562-2.335938h1.207031s-1.027343 1.953125-1.230469 2.335938h1.652344c.085938-.160156 2.628906-4.941406 2.855469-5.371094h-1.652344c-.085937.15625-1.167969 2.179688-1.167969 2.179688h-1.207031s.964844-1.800782 1.167969-2.179688zm7.207032 0c-1.367188 0-1.980469 1.285156-2.011719 1.34375h.003906s-1.914063 3.601562-2.136719 4.027344h3.636719c.046875-.105469.132813-.28125.132813-.28125v-.003906c.0625-.105469.089843-.203126.089843-.28125 0-.035157-.007812-.066407-.019531-.09375-.046875-.082032-.191406-.121094-.40625-.121094h-1.363281l.917969-1.71875h1.648437c.0625-.109375.261719-.484375.398437-.742188h-1.652343l.429687-.796875c.203125-.386719.546875-.589843.992188-.589843h1.242187c.058594-.105469.261719-.484376.402344-.742188zm3.484374 0c-.082031.160156-2.625 4.941406-2.851562 5.371094h1.675781c.085938-.160156 1.257813-2.390625 1.257813-2.390625l.828125.726562s-.683594 1.308594-.871094 1.664063h1.617187c.078126-.152344.988282-1.878906 1.097657-2.085938-.160157-.121094-.847657-.640625-.847657-.640625s1.425782-.589843 1.527344-.628906c.046875-.09375.703125-1.320313.703125-1.320313.09375-.179687.113281-.320312.058594-.421874-.132813-.222657-.628906-.269532-.789063-.273438zm5.769532.085938c-.078125.160156-2.382813 4.875-2.578125 5.277343h1.589843c.074219-.164062 1.492188-3.175781 1.492188-3.175781s.363281 2.933594.394531 3.175781h.554688c.378906-.027343 1.082031-.265625 1.605469-1.5625 0 0 1.414062-3.324219 1.578124-3.710937-.335937 0-1.355468-.003906-1.511718-.003906-.078125.175781-1.320313 3.03125-1.320313 3.03125s-.414062-2.789063-.449219-3.03125zm-31.8125.539062h.535156c.023438 0 .242188.011719.34375.195312.082031.140626.0625.328126-.0625.550782l-1.804688 3.3125h-.53125c-.027343 0-.246093 0-.355468-.183594-.082032-.132812-.0625-.316406.058594-.539062zm27.324218.117188h.523438c.085938 0 .316406 0 .414062.167968.097657.167969-.007812.367188-.042968.433594l-.269532.503906-1.5625.644532zm0 0" fill="#fff"/><path d="m56.539062 12.382812c.082032-.011718.160157-.007812.226563.011719.273437.074219.292969.382813.050781.6875-.242187.304688-.660156.488281-.929687.410157-.269531-.074219-.296875-.382813-.050781-.6875.179687-.226563.460937-.386719.703124-.421876zm0 0" fill="#011e41"/></svg>