<svg height="44pt" viewBox="0 0 70 44" width="70pt" xmlns="http://www.w3.org/2000/svg"><path d="m27.738281 14.191406v11.316406h6.304688l.617187-3.222656h1.964844c-1.164062 4.890625-6.554688 8.140625-12.882812 7.636719-6.007813-.457031-12.449219-3.863281-12.425782-10.21875.023438-7.019531 6.304688-11.066406 12.175782-11.320313 3.925781-.160156 8.335937 1.351563 11.511718 3.980469.183594.160157.226563.183594.25.207031.023438.019532.046875.019532.207032.160157l.183593.136719h7.011719v-12.554688h-7.289062v3.5c-2.96875-1.738281-7.671876-3.40625-13.085938-3.382812-6.191406.023437-12.222656 2.558593-16.5625 6.949218-3.539062 3.613282-5.433594 8-5.390625 12.414063.046875 4.320312 2.011719 8.460937 5.484375 11.636719 4.429688 4.046874 10.917969 6.152343 17.3125 5.625 4.980469-.410157 9.410156-1.507813 12.65625-3.132813v1.234375h7.71875v-12.847656h1.851562v14.289062h-3.703124v7.292969h17.109374v-7.292969h-3.699218v-14.3125h7.8125l.570312 3.222656h6.328125v-11.316406zm0 0" fill="#003057"/><path d="m28.972656 24.273438h4.019532l.617187-3.222657h4.476563l-.113282.707031c-.890625 5.921876-7.058594 9.96875-14.34375 9.421876-6.554687-.503907-13.589844-4.320313-13.570312-11.457032.023437-6.835937 5.78125-12.230468 13.363281-12.550781 4.226563-.183594 8.953125 1.441406 12.359375 4.253906.136719.113281.136719.113281.160156.136719.019532.023438.042969.023438.113282.089844h5.320312v-10.105469h-4.796875v4.390625l-1.027344-.523438c-2.625-1.832031-7.445312-3.75-13.15625-3.75h-.089843c-5.894532.023438-11.605469 2.421876-15.695313 6.582032-3.289063 3.363281-5.09375 7.453125-5.023437 11.523437.046874 3.980469 1.851562 7.796875 5.070312 10.722657 4.179688 3.820312 10.300781 5.808593 16.378906 5.304687 5.296875-.433594 9.933594-1.667969 13.085938-3.476563l.9375-.546874-.023438 2.125h5.210938v-12.847657h4.339844v16.78125h-3.703126v4.800781h14.621094v-4.800781h-3.703125v-16.78125h10.097657l.570312 3.222657h4.042969v-8.847657h-39.539063zm0 0" fill="#b3a369"/></svg>