<svg height="49pt" viewBox="0 0 75 49" width="75pt" xmlns="http://www.w3.org/2000/svg"><path d="m372.899091 123.200315c0-64.886277-82.29064-117.503078-183.799442-117.503078-101.508801 0-183.799441 52.616801-183.799441 117.503078s82.29064 117.503078 183.799441 117.503078c101.508802 0 183.799442-52.616801 183.799442-117.503078zm0 0" fill="#fff" stroke="#ba0c2f" stroke-width="7.5" transform="scale(.19899 .200892)"/><path d="m14.703125 9.019531c8.242187-4.660156 17.933594-6.148437 27.285156-5.546875 6.824219.527344 13.570313 2.496094 19.421875 6.109375 3.164063 1.988281 6.109375 4.5 7.898438 7.875h-16.699219c-3.9375-3.875-9.210937-6.527343-14.761719-6.667969-4.117187.078126-8.199218 1.304688-11.601562 3.597657-2.542969 1.703125-4.753906 4.097656-5.570313 7.109375-.859375 2.972656.101563 6.167968 1.648438 8.699218 2.667969 4.175782 7.425781 6.6875 12.261719 7.128907 3.441406.304687 6.945312-.015625 10.226562-1.101563 3.582031-1.128906 6.824219-3.777344 8.316406-7.292968h-22.167968v-6.691407h40.097656c.398437-.082031.320312.519531.378906.785157.058594 1.726562.097656 3.496093-.417969 5.183593-1.292969 4.722657-4.855469 8.476563-8.875 11.066407-7.898437 5.105468-17.507812 6.808593-26.785156 6.710937-4.972656-.199219-10.011719-.964844-14.746094-2.734375-4.257812-1.605469-8.277343-3.996094-11.519531-7.25-2.609375-2.792969-4.796875-6.164062-5.273438-10.042969-.179687-2.070312-.097656-4.203125.699219-6.148437 1.847657-4.761719 5.910157-8.253906 10.183594-10.789063zm0 0" fill="#2c2a29"/></svg>