<svg height="58pt" viewBox="0 0 70 58" width="70pt" xmlns="http://www.w3.org/2000/svg"><path d="m67.824219 7.21875s-1.652344.003906-2.914063.003906c-.726562 0-1.171875 0-1.332031-.003906-6.160156-.015625-8.746094-1.273438-12.023437-2.867188l-.136719-.066406c-3.515625-1.734375-7.894531-3.894531-16.347657-3.894531h-.199218c-8.457032 0-12.832032 2.160156-16.351563 3.894531l-.136719.066406c-3.273437 1.59375-5.859374 2.851563-12.03125 2.867188-.152343.003906-.597656.003906-1.324218.003906-1.257813 0-2.910156-.003906-2.910156-.003906h-1.800782l.378906 1.769531c.0625.285157 1.527344 6.839844 7.136719 9.617188.472657.886719 1.21875 2.011719 2.367188 3.09375.015625.894531.050781 2.503906.105469 3.523437.089843 3.410156.757812 6.4375 1.980468 9 1.386719 3.273438 3.488282 5.992188 6.246094 8.085938l.019531.015625c.542969.414062 1.363281 1.035156 1.535157 1.289062.273437.4375.558593 1.523438.808593 2.488281.542969 2.082032 1.289063 4.9375 3.265625 7.269532 2.34375 2.765625 6.074219 4.253906 10.792969 4.304687h.03125c4.71875-.050781 8.453125-1.539062 10.792969-4.304687 1.976562-2.332032 2.722656-5.1875 3.269531-7.273438.25-.960937.53125-2.046875.808594-2.484375.167969-.253906.988281-.875 1.53125-1.289062l.023437-.015625c2.753906-2.09375 4.855469-4.8125 6.242188-8.085938 1.226562-2.5625 1.890625-5.589844 1.984375-9 .050781-1.019531.085937-2.628906.101562-3.523437 1.148438-1.082031 1.898438-2.207031 2.367188-3.09375 5.609375-2.777344 7.074219-9.332031 7.136719-9.617188l.378906-1.769531zm0 0" fill="#fff"/><path d="m25.222656 52.503906c-1.765625-2.085937-2.4375-4.65625-2.976562-6.71875-.304688-1.171875-.59375-2.277344-.984375-2.902344-.289063-.464843-1.082031-1.0625-1.914063-1.699218-1.8125-1.375-4.191406-3.703125-5.8125-7.53125l-.007812-.019532c-.003906 0-.003906-.003906-.003906-.007812-1.027344-2.148438-1.761719-4.890625-1.855469-8.472656-.074219-1.421875-.113281-4.140625-.113281-4.140625-1.4375-1.21875-2.273438-2.542969-2.746094-3.554688-5.421875-2.367187-6.808594-8.839843-6.808594-8.839843s3.734375.003906 4.261719 0c6.609375-.015626 9.472656-1.457032 12.835937-3.09375 3.664063-1.808594 7.753906-3.773438 15.867188-3.757813 8.109375-.015625 12.199218 1.949219 15.863281 3.757813 3.363281 1.636718 6.226563 3.078124 12.835937 3.09375.527344.003906 4.261719 0 4.261719 0s-1.386719 6.472656-6.804687 8.839843c-.472656 1.011719-1.3125 2.335938-2.75 3.554688 0 0-.039063 2.71875-.113282 4.140625-.09375 3.582031-.824218 6.324218-1.855468 8.472656 0 .003906 0 .007812-.003906.007812l-.007813.019532c-1.621094 3.828125-4 6.15625-5.808594 7.53125-.835937.636718-1.625 1.234375-1.914062 1.699218-.394531.625-.683594 1.730469-.988281 2.902344-.539063 2.0625-1.210938 4.632813-2.976563 6.71875-2.097656 2.472656-5.449219 3.757813-9.738281 3.804688-4.292969-.046875-7.644532-1.332032-9.742188-3.804688" fill="#0039a6" fill-opacity=".941176"/><path d="m49.25 33.960938c.003906-.003907.542969-.671876.929688-1.648438.011718-.027344.023437-.054688.03125-.082031-4.003907-.554688-7.519532-.246094-8.445313-.148438 2.148437.316407 4.953125.988281 7.367187 2.023438zm-3.828125-8.953126c.300781 0 .613281.019532.925781.066407-.730468-.546875-1.515625-1.085938-2.316406-1.585938-.820312.441407-1.308594 1.128907-1.621094 1.808594l-.222656.464844.484375-.195313c.777344-.320312 1.730469-.558594 2.75-.558594zm5.015625 6.511719c.167969-.707031.171875-1.375.011719-1.996093-3.628907.0625-6.632813.730468-7.230469.871093.75.035157 3.878906.214844 7.21875 1.125zm-.34375-2.847656c-.25-.40625-.660156-.890625-1.1875-1.417969-2.257812.355469-4.042969 1.019532-4.761719 1.316406.996094-.078124 3.460938-.210937 5.949219.101563zm-18.324219 23.222656c-3.121093 0-4.222656-2.011719-4.222656-2.011719-.980469-1.558593-1.449219-3.445312-1.867187-5.125-.363282-1.449218-.703126-2.808593-1.3125-3.816406-.550782-.929687-1.492188-1.679687-2.605469-2.5625-2.289063-1.8125-5.332031-4.421875-6.320313-9.925781h.976563c1.167969-6.046875 4.285156-10.277344 4.796875-10.945313-.425782-.859374-.527344-1.878906-.53125-1.890624.289062.082031.722656.1875 1.132812.277343 1.304688-.726562 2.464844-1.226562 3.40625-1.570312.179688-1.109375.417969-2.011719.636719-2.617188.320313-.890625.800781-1.34375 1.03125-1.535156.925781-.761719 1.707031-1.144531 1.707031-1.144531-.402344 1.425781-.625 3.230468-.742187 4.613281.507812.847656 1.71875 2.019531 2.414062 2.660156.476563-.410156.960938-.855469 1.320313-1.1875.105468-2.117187.175781-4.984375.207031-6.523437-.828125-1.695313-1.742187-3.179688-2.320313-4.066406-9.714843 1.445312-10.394531 6.839843-23.003906 6.839843.167969.285157.488282.769531.96875 1.292969.765625.84375 2.0625 1.816406 3.695313 2.234375.003906 0 .109375.625.488281 1.359375.359375.707031.980469 1.613281 2.035156 2.457031 0 0 0 0 0-.003906.289063-.488281.605469-.980469.925782-1.457031-.832032-.75-1.347657-1.523438-1.664063-2.140625-.378906-.738281-.492187-1.359375-.492187-1.359375-.449219-.09375-1.753907-.402344-2.898438-1.15625 1.898438.234375 4.808594-.039063 9.058594-1.851563 0 0-.304688 1.132813-.992188 2.285157 1.453125-.257813 3.511719-.707032 5.183594-1.75-1.648438 2.453124-3.25 3.128906-3.832031 3.832031-.691407.8125-4.0625 5.074219-4.65625 7.519531-1.402344 13.042969 7.410156 15.695312 9.289062 18.773438 1.878907 3.203124 1.242188 10.695312 7.929688 12.441406 0 0 3.160156.910156 4.160156-3.496094 0 0-1.574219 1.550781-3.902344 1.550781zm8.542969-27.578125c-.238281-.800781-.617188-1.597656-.886719-1.726562-.425781-.25-1.761719-.492188-2.8125-.339844.34375-.570312 1.230469-1.027344 1.925781-1.242188-.476562-.304687-1.039062-.375-1.46875-.375-.230468.015626-.457031.039063-.667968.0625.363281-.921874 1.613281-1.597656 2.308594-1.71875-.742188-.488281-2.359376-.953124-3.75 1.238282-1.382813-2.183594-2.996094-1.730469-3.742188-1.242188.714844.105469 2.078125.695313 2.304688 1.722656-.070313-.011718-.140626-.023437-.210938-.03125-.390625-.050781-1.253906-.089843-1.941406.351563.667968.230469 1.511718.714844 1.859375 1.285156-1.550781-.261719-3.0625.449219-3.550781.917969l-.3125.296875c-.929688-1.71875-2.863282-.417969-3.46875-.023437.820312.441406 1.300781 1.125 1.617187 1.804687l.222656.464844-.164062-.066407c-.710938-.265624-3.609375-1.113281-6.46875 1.484376 1.144531.289062 2.617187.753906 3.671875 1.335937-2.421875-.246094-5.183594.636719-5.183594.636719s3.867188.269531 6.136719 1.308594c-3.609375.066406-6.148438 1.382812-6.148438 1.382812s1.855469-.144531 3.054688-.144531c1.28125 0 2.953125.136719 4.542969.554687-3.199219.371094-6.117188 2.148438-6.117188 2.148438s5.210938-.46875 9.058594-.609375c.035156-.003907-.753906-.832031-1.203125-2.242188 1.523437.839844 3.171875 1.382813 4.628906 1.433594-.519531-.402344-1.074219-.957031-1.621094-1.570313-.046875-.058593-.097656-.117187-.101562-.230468.007812-.214844.222656-.257813.300781-.257813.070312 0 .136719.011719.203125.03125.070313.019531.132813.03125.1875.03125.074219 0 .128906-.015625.175781-.046875.09375-.058594.160156-.195312.160156-.421875.003907-.320312-.148437-.78125-.441406-1.214843-.394531-.589844-.953125-.941407-1.25-.929688-.078125.003906-.128906.015625-.179687.050781-.089844.054688-.15625.1875-.160157.410157-.007812.1875-.039062.445312-.347656.484374-.179687-.007812-.273437-.113281-.363281-.242187-.820313-1.203125-1.398437-2.21875-1.417969-2.757813 0-.078124.007813-.164062.070313-.242187.175781-.234375.464843-.277344.785156-.28125 1.542969.007813 4.867187 1.328125 5.417969 1.546875.550781-.21875 3.871094-1.535156 5.410156-1.546875.117188.003906.226562.007813.332031.027344-.085937-.382813-.222656-.949219-.394531-1.507813zm.136719-19.792968c-.578125.886718-1.492188 2.371093-2.320313 4.066406.03125 1.539062.101563 4.40625.207032 6.523437.359374.332031.84375.777344 1.320312 1.1875.703125-.648437 1.9375-1.84375 2.433594-2.691406 0 0 3.050781.378906 7.273437 3.027344-.363281-1-.945312-2.296875-1.089843-2.621094-.527344-.285156-1.332032-.746094-2.121094-1.320313-1.367188-.996093-.941406-2.941406-.941406-2.941406 2.097656 1.367188 5.183593 2.574219 7.042968 3.148438-.636718-1.109375-.917968-2.164063-.917968-2.164063 4.246093 1.8125 9.863281 2.613281 12.117187.625-12.609375 0-13.289063-5.394531-23.003906-6.839843zm-1.386719 24.640624c.074219-.34375.03125-.621093-.140625-.738281-.316406-.210937-.949219.179688-1.410156.875-.460938.695313-.582031 1.433594-.265625 1.644531.105468.070313.246094.074219.402344.023438.046874-.015625.148437-.0625.25-.183594.355468-.433594.707031-.886718 1.03125-1.339844.089843-.128906.121093-.234374.132812-.28125zm-6.613281 8.433594 1.203125 1.503906s.667968-.84375 1.3125-1.695312c.636718.851562 1.3125 1.695312 1.3125 1.695312l1.199218-1.503906c.460938.78125.886719 1.503906.886719 1.503906.699219-.859374.992188-1.9375 1.121094-2.621093-1.425781-.058594-2.949219-.09375-4.519531-.09375-1.570313 0-3.09375.035156-4.519532.09375.125.683593.421876 1.761719 1.117188 2.621093 0 0 .429688-.722656.886719-1.503906zm8.753906 4.628906c1.882813-1.652343 2.472656-4.253906 2.652344-5.488281-1.054688-.078125-2.230469-.15625-3.488281-.21875.773437 2.019531.511718 5.257813.515624 5.554688.007813.328125.132813.316406.320313.152343zm-15.136719-5.488281c.183594 1.234375.777344 3.835938 2.65625 5.488281.191406.164063.316406.175782.320313-.152343.003906-.296875-.257813-3.535157.519531-5.554688-1.261719.0625-2.4375.140625-3.496094.21875zm4.730469 10.804688c.082031-.066407.171875-.132813.265625-.195313.402344-.269531.855469-.402344 1.347656-.402344.507813 0 .96875.136719 1.371094.257813.398438.121094.777344.234375 1.179688.234375.402343 0 .78125-.113281 1.179687-.234375.40625-.121094.867187-.257813 1.371094-.257813.492187 0 .949219.132813 1.351562.402344.09375.0625.179688.128906.265625.195313 1.722656-2.355469.367188-6.019531.285156-5.164063-.144531 1.546875-.746093 2.496094-1.304687 3.050782-.421875-.472657-.902344-.890626-.902344-.890626s-.671875.738282-1.121093 1.339844c-.449219-.601562-1.125-1.339844-1.125-1.339844s-.667969.582032-1.121094 1.160157c-.445313-.578125-1.125-1.160157-1.125-1.160157s-.476563.417969-.898438.894532c-.558594-.554688-1.160156-1.503906-1.308594-3.054688-.078124-.855468-1.433593 2.808594.289063 5.164063zm-3.917969-27.769531c.007813.003906.003906.03125.003906.035156 0 .035156-.007812.082031-.046874.121094-.035157.039062-.085938.046874-.113282.046874-.078125-.003906-.109375-.03125-.117187-.035156-.761719-.535156-1.191407-1.542968-1.390625-2.273437-.667969.039062-1.421875.144531-2.230469.335937.652344.394532 1.804687 1.214844 2.644531 2.484375.710938-.113281 1.484375-.144531 2.125-.144531.214844 0 .414063.003906.589844.011719.011719-.003907.023438-.003907.035156 0 .394532-.007813.605469-.230469.609375-.503907 0-.085937-.023437-.179687-.074219-.277343-.363281-.695313-.800781-1.328125-1.328124-1.644531-.082032-.050782-.222657-.101563-.402344-.148438-.257813.464844-.332032 1.039062-.332032 1.492188 0 .195312.011719.367187.027344.5zm16.195313-.5c0-.453126-.074219-1.027344-.332031-1.492188-.179688.046875-.320313.097656-.40625.148438-.527344.316406-.964844.949218-1.328126 1.644531-.050781.097656-.074218.191406-.074218.277343.007812.273438.21875.496094.613281.503907.011719-.003907.023437-.003907.03125 0 .179687-.007813.375-.011719.59375-.011719.640625 0 1.414063.03125 2.121094.144531.84375-1.269531 1.996093-2.089843 2.644531-2.484375-.804688-.191406-1.5625-.296875-2.226562-.335937-.199219.730469-.628907 1.738281-1.394532 2.273437-.007812.003906-.035156.03125-.113281.035156-.03125 0-.078125-.007812-.117187-.046874-.035157-.039063-.046876-.085938-.046876-.121094 0-.003906 0-.03125.003907-.035156.019531-.132813.03125-.304688.03125-.5zm6.390625-.664063 1.714844.59375c-.363282.140625-3.097657 1.285156-4.960938 3.746094-.695312-.398438-1.472656-.6875-2.054688-.875.40625-.011719.871094-.011719 1.328126.023437l.136718.007813.070313-.117188c1.132812-1.875 3.207031-3.078125 3.765625-3.378906" fill="#fff"/></svg>