<svg height="53pt" viewBox="0 0 70 53" width="70pt" xmlns="http://www.w3.org/2000/svg"><path d="m60.992188 40.851562 4.214843-4.875-3.914062-4.0625 4.15625-4.628906-3.996094-4.226562 4.039063-4.421875-4.199219-4.371094 7.585937-8.382813-30.292968-5.589843v15.957031c-.628907-.101562-2.816407-.136719-3.628907-.152344-.960937-.023437-2.773437.125-3.6875.21875l.003907-16.0625-30.3125 5.632813 7.59375 8.382812-4.203126 4.371094 4.363282 4.421875-4.203125 4.226562 4.320312 4.628907-4.371093 4.0625 4.386718 4.878906-8.65625 11.945313 31.050782-4.945313.035156-14.34375c.757812-.210937 2.945312-.339844 3.683594-.339844.8125 0 2.8125.089844 3.617187.304688l.039063 14.421875 31.03125 4.894531-8.65625-11.941406" fill="#ccc"/><path d="m58.78125 40.714844 4.078125-4.695313-4.21875-4.230469 4.21875-4.503906-4.019531-4.210937 4.101562-4.523438-4.179687-4.3125 6.648437-7.460937-25.082031-4.738282v16.03125c-1.253906-.109374-3.332031-.320312-5.367187-.339843-1.222657-.007813-3.925782.210937-5.449219.34375v-16.027344l-25.082031 4.734375 6.648437 7.460938-4.179687 4.3125 4.101562 4.523437-4.019531 4.210937 4.21875 4.503907-4.21875 4.230469 4.078125 4.699218-7.070313 9.933594 25.632813-4.21875.023437-14.285156c2.128907-.425782 4.386719-.460938 5.3125-.480469 1.148438-.019531 3.886719.128906 5.238281.476563l.023438 14.28125 25.636719 4.222656z"/><path d="m56.429688 40.699219 4.117187-4.679688-4.117187-4.132812c0-.15625 4.117187-4.601563 4.117187-4.601563l-4.117187-4.136718c0-.152344 4.117187-4.597657 4.117187-4.597657l-4.121094-4.289062 5.757813-6.394531-18.738282-3.410157v15.851563c-2.261718-.371094-6.523437-.777344-8.488281-.757813-2.21875.023438-5.523437.199219-8.558593.761719l-.003907-15.851562-18.738281 3.410156 5.757812 6.394531-4.121093 4.289063s4.121093 4.445312 4.121093 4.597656l-4.121093 4.136718s4.117187 4.445313 4.117187 4.601563l-4.117187 4.132813 4.117187 4.679687-5.878906 7.683594 18.855469-3.113281.011719-14.640626c2.082031-.542968 6.691406-.902343 8.558593-.855468 1.59375.035156 6.242188.367187 8.484375.851562 0 1.367188.03125 14.632813.03125 14.632813l18.835938 3.117187-5.882813-7.679687" fill="#fff"/><path d="m55.5 13.679688 4.695312-5.15625-15.824218-2.953126v15.726563c-2.519532-.476563-7.617188-.84375-9.414063-.855469-2.332031-.015625-6.351562.1875-9.484375.863282l-.003906-15.726563-15.824219 2.949219 4.695313 5.15625-.003906 27.546875-4.507813 5.828125 15.613281-2.578125.035156-14.601563c2.449219-.714844 7.355469-1.042968 9.480469-1.027344 2.261719.011719 6.917969.425782 9.40625 1.019532l.035157 14.605468 15.613281 2.578126-4.503907-5.832032z" fill="#024731"/><path d="m53.355469 15.464844-3.835938 3.960937 3.800781 3.925781-3.800781 3.925782 3.832031 3.957031-3.832031 3.957031 3.835938 3.960938zm-36.871094.003906v23.6875l3.835937-3.957031-3.832031-3.957031 3.832031-3.960938-3.800781-3.921875 3.800781-3.925781-3.835937-3.960938zm0 0" fill="#fff"/></svg>