<svg height="67pt" viewBox="0 0 70 67" width="70pt" xmlns="http://www.w3.org/2000/svg"><path d="m30.558594.324219v12.949219h3.65625v9.511718h-13.402344v-9.511718h3.65625v-12.949219h-24.226562v12.949219h3.921874v23.644531l7.53125 6.523437h7.625v10.328125h-3.917968v12.945313h24.226562v-12.945313h-3.65625v-2.386719h13.136719v2.386719h-3.652344v12.945313h24.226563v-12.945313h-3.921875v-18.027343h3.921875v-12.957032h-18.816406v-9.511718h3.914062v-12.949219zm0 0" fill="#c92a39"/><path d="m32.390625 2.164062v9.269532h3.652344v13.199218h-17.0625v-13.199218h3.652343v-9.269532h-20.5625v9.269532h3.925782v24.640625l6.382812 5.523437h8.769532v14.015625h-3.917969v9.257813h20.5625v-9.257813h-3.65625v-6.070312h16.800781v6.070312h-3.652344v9.257813h20.5625v-9.257813h-3.921875v-21.714843h3.921875v-9.265626h-18.816406v-13.199218h3.921875v-9.269532zm18.433594 32.457032v5.109375h-5.722657zm0 0" fill="#fff"/><path d="m3.816406 3.914062v5.765626h3.921875v25.589843l5.289063 4.574219h8.128906v-5.953125h-3.921875v-24.210937h3.65625v-5.765626zm30.316406 0v5.765626h3.65625v24.210937h-3.65625v5.953125h8.035157l5.125-4.574219v-25.589843h3.917969v-5.765626zm-15.15625 22.464844v5.765625h3.921876v25.214844h-3.921876v5.761719h17.074219v-5.761719h-3.65625v-9.574219h20.289063v9.574219h-3.652344v5.761719h17.074219v-5.761719h-3.917969v-25.214844h3.917969v-5.765625h-17.074219v5.765625h3.652344v9.445313h-20.289063v-9.445313h3.65625v-5.765625zm0 0" fill="#c92a39"/></svg>