<svg height="49pt" viewBox="0 0 69 49" width="69pt" xmlns="http://www.w3.org/2000/svg"><path d="m34.484375 48.714844c-18.167969 0-34.308594-10.222656-34.308594-24.273438 0-14.046875 16.140625-24.273437 34.308594-24.273437 18.171875 0 34.308594 10.226562 34.308594 24.273437 0 14.050782-16.136719 24.273438-34.308594 24.273438zm0 0" fill="#fff"/><path d="m1.296875 24.488281c0 12.855469 14.820313 23.28125 33.101563 23.28125s33.101562-10.425781 33.101562-23.28125c0-12.859375-14.820312-23.28125-33.101562-23.28125s-33.101563 10.421875-33.101563 23.28125zm0 0"/><path d="m31.773438 6.597656c-17.234376.019532-23 10.566406-22.914063 16.0625.925781-1.058594 2.320313-2.171875 3.183594-2.523437-1.6875 2.472656-2.398438 4.644531-2.40625 7.222656.941406-1.199219 1.679687-1.707031 2.636719-2.105469-1.429688 2.75-1.453126 4.550782-1.371094 7.035156.914062-1.136718 1.640625-1.8125 2.421875-2.148437 0 0-1.304688 3.257813-.617188 6.667969 6.078125-11.765625 15.683594-19.761719 23.191407-20.933594-.355469.621094-.773438 1.585938-.808594 2.351562-.113282 2.550782 1.835937 4.714844 4.359375 4.828126 2.523437.117187 4.664062-1.855469 4.78125-4.40625.042969-.960938-.207031-1.863282-.667969-2.625.839844.140624 1.769531.753906 2.433594 1.828124 1.074218 1.738282 1.890625 2.777344 3.261718 3.0625 2.570313.53125 4.363282-1.65625 4.195313-3.734374-.136719-1.679688-1.066406-2.910157-1.902344-3.726563-4.429687-4.332031-9.683593-6.351563-17.148437-6.78125-.90625-.050781-1.78125-.074219-2.628906-.074219zm23.929687 13.019532c-2.417969.835937-8.585937 6.269531-10.664063 10.203124 3.863282-2.394531 13.136719-.4375 12.132813 6.796876 6.375-4.242188 4.382813-14.824219-1.46875-17zm-23.398437.007812s-1.214844.359375-2.898438 1.601562c-1.886719 1.386719-2.101562 2.332032-2.101562 2.332032 2.496093-1.121094 4.527343-.328125 5.164062 1.058594.636719 1.390624-.429688 3.273437-3.605469 4.582031-2.683593 1.101562-4.769531 2.777343-4.917969 5.265625-.136718 2.230468 1.109376 4.742187 4.738282 5.386718 6.855468 1.21875 14.164062-6.621093 14.324218-14.582031-1 .433594-2.53125.742188-3.691406.6875-3.589844-.164062-6.46875-2.875-7.011718-6.332031zm11.898437 13.023438c.046875 2.777343 2.226563 5.074218 5.011719 5.203124 1.265625.058594 2.449218-.355468 3.390625-1.070312-3.011719.550781-4.296875-1.414062-3.71875-3.148438-1.617188-.5-4.015625-.925781-4.683594-.984374zm-3.925781 4.460937c-.957032 0-1.714844.777344-1.714844 1.742187 0 .960938.757812 1.734376 1.714844 1.734376.953125 0 1.71875-.773438 1.71875-1.734376 0-.964843-.765625-1.742187-1.71875-1.742187zm0 .410156c.738281 0 1.308594.554688 1.308594 1.332031 0 .773438-.570313 1.324219-1.308594 1.324219-.75 0-1.308594-.550781-1.308594-1.324219 0-.777343.558594-1.332031 1.308594-1.332031zm-.683594.410157v1.804687h.398438v-.761719h.277343l.398438.761719h.433593l-.433593-.761719c.316406-.023437.484375-.160156.484375-.492187 0-.476563-.28125-.550781-.691406-.550781zm.398438.316406h.386718c.171875 0 .402344 0 .402344.183594 0 .226562-.113281.269531-.3125.269531h-.476562zm0 0" fill="#fcd116"/></svg>