<svg height="48pt" viewBox="0 0 69 48" width="69pt" xmlns="http://www.w3.org/2000/svg"><path d="m41.792969 36.394531v-24.835937h4.792969l1.839843-11.558594h-28.046875l1.835938 11.558594h4.816406v24.835937h-4.746094l-1.835937 11.5625h27.921875l-1.839844-11.5625zm0 0" fill="#fdc82f"/><path d="m45.097656 9.796875 1.28125-8.035156h-23.957031l1.277344 8.035156h5.074219v28.359375h-5l-1.28125 8.042969h23.832031l-1.28125-8.042969h-4.992188v-28.359375zm0 0" fill="#a71930"/><path d="m46.378906 1.761719-4.128906 4.015625h-7.839844v8.667968c-1.109375 0-2.222656.023438-3.332031.066407-1.082031 4.265625-2.167969 8.554687-3.25 12.863281-.714844.054688-1.429687.117188-2.140625.1875.203125 1.394531.40625 2.785156.613281 4.183594 1.820313-.167969 3.648438-.28125 5.476563-.335938.265625-1.203125.535156-2.40625.804687-3.605468.609375-.015626 1.21875-.019532 1.828125-.023438v14.316406h-7.757812l-4.160156 4.101563h23.828124l-1.277343-8.042969-2.792969 3.941406h-6.128906l3.929687-3.941406v-6.617188c.847657.050782 1.699219.117188 2.546875.195313.203125-1.398437.410156-2.792969.613282-4.183594-.445313-.046875-.894532-.085937-1.34375-.121093.160156-1.183594.320312-2.363282.476562-3.542969-.710938-.0625-1.417969-.117188-2.132812-.164063-.054688-.203125-.105469-.40625-.160157-.609375v-2.53125c1.441407.085938 2.882813.210938 4.320313.371094-.03125-.578125-.0625-1.15625-.089844-1.734375.359375.042969.722656.085938 1.085938.128906v8.4375c-.386719-.046875-.773438-.089844-1.160157-.132812-.226562 1.386718-.457031 2.777344-.6875 4.167968 2.851563.289063 5.6875.714844 8.511719 1.277344-.230469-1.460937-.453125-2.917968-.679688-4.371094-.453124-.089843-.910156-.171874-1.359374-.25v-8.441406c.363281.066406.726562.128906 1.09375.199219-.027344.566406-.0625 1.136719-.089844 1.703125 1.460937.273438 2.917968.585938 4.371094.933594.101562-1.960938.207031-3.925782.3125-5.886719-5.148438-1.253906-10.378907-2.039063-15.628907-2.363281v-4.824219h5.046875zm-19.726562 4.015625-2.953125 4.019531h5.074219l4.175781-4.019531zm2.546875 8.824218c-5.390625.324219-10.761719 1.132813-16.042969 2.429688.105469 1.964844.207031 3.925781.3125 5.886719 1.449219-.347657 2.910156-.664063 4.371094-.941407-.03125-.570312-.058594-1.136718-.089844-1.707031.359375-.066406.71875-.132812 1.078125-.195312v8.4375c-.449219.082031-.898437.164062-1.34375.25-.226563 1.460937-.453125 2.917969-.675781 4.375 2.808594-.566407 5.640625-.996094 8.484375-1.292969-.226563-1.390625-.453125-2.78125-.679688-4.167969-.386719.042969-.773437.089844-1.160156.136719v-8.4375c.359375-.046875.722656-.089844 1.085937-.128906-.03125.578125-.0625 1.152344-.089843 1.730468 1.472656-.167968 2.953125-.296874 4.433593-.390624.105469-1.996094.210938-3.988282.316407-5.984376zm27 2.511719c.222656 1.46875.445312 2.941407.671875 4.410157.3125.082031.625.164062.9375.25v2.074218c-.574219-.152344-1.144532-.300781-1.722656-.441406.28125 1.480469.558593 2.964844.835937 4.449219.292969.078125.59375.15625.886719.234375v2.121094c-.445313-.121094-.890625-.238282-1.335938-.347657-.226562 1.355469-.449218 2.714844-.671875 4.074219 4.488281 1.097656 8.90625 2.550781 13.226563 4.351562-.09375-2.027343-.195313-4.054687-.292969-6.082031-1.398437-.578125-2.800781-1.117187-4.21875-1.625.023437.585938.050781 1.167969.078125 1.75-.753906-.269531-1.507812-.527343-2.269531-.773437v-2.121094c.945312.308594 1.890625.632812 2.828125.976562.328125-1.292968.65625-2.585937.984375-3.875-1.265625-.476562-2.535157-.925781-3.8125-1.339843v-2.082031c.761719.25 1.515625.507812 2.269531.777343-.027344.5625-.054688 1.125-.078125 1.691407 1.417969.503906 2.820313 1.046874 4.21875 1.625.097656-1.945313.199219-3.894532.304687-5.835938-4.195312-1.753906-8.488281-3.175781-12.839843-4.261719zm-43.796875.117188c-3.011719.765625-5.996094 1.695312-8.9375 2.785156-1.921875.707031-3.464844 2.636719-3.464844 4.980469v2.75c0 1.996094 1.539062 3.238281 3.464844 2.574218 1.539062-.53125 3.097656-1.023437 4.660156-1.46875.074219-.019531.132812.023438.132812.097657v1.988281c0 .074219-.054687.152344-.128906.171875-1.21875.378906-2.429687.78125-3.636718 1.210937.03125-.582031.058593-1.167968.089843-1.75-1.414062.5-2.816406 1.039063-4.207031 1.613282-.101562 2.023437-.199219 4.050781-.296875 6.078125 3.003906-1.253907 6.0625-2.335938 9.15625-3.246094 1.953125-.578125 3.558594-2.183594 3.558594-4.589844v-3.089843c0-1.996094-1.601563-3.261719-3.554688-2.730469-1.570312.425781-3.132812.894531-4.679687 1.40625-.070313.027343-.132813-.015625-.132813-.09375v-1.882813c0-.074218.058594-.15625.132813-.183594 1.101562-.390624 2.210937-.761718 3.324218-1.109374-.03125.585937-.058593 1.167968-.089843 1.75 1.425781-.445313 2.855469-.851563 4.300781-1.226563.101562-2.011719.207031-4.023437.308594-6.035156zm22.011718 3.398437v2.917969c-.265624 0-.527343-.003906-.789062 0 .261719-.972656.523438-1.945313.789062-2.917969zm0 0" fill="#822433"/><g fill="#fada63"><path d="m40.726562 19.742188c.921876.0625 1.84375.144531 2.761719.234374-.03125-.578124-.0625-1.152343-.089843-1.730468.953124.097656 1.90625.207031 2.851562.332031v10.203125c-.429688-.058594-.859375-.113281-1.289062-.164062-.132813.8125-.265626 1.625-.398438 2.433593 2.152344.242188 4.300781.566407 6.4375.964844-.132812-.851563-.265625-1.699219-.398438-2.550781-.496093-.089844-.996093-.179688-1.492187-.261719v-10.199219c.953125.15625 1.902344.332032 2.847656.519532-.027343.566406-.058593 1.132812-.089843 1.703124.910156.179688 1.820312.375 2.722656.582032.078125-1.382813.148437-2.765625.222656-4.148438-4.71875-1.097656-9.503906-1.808594-14.308594-2.132812.074219 1.40625.148438 2.808594.222656 4.214844"/><path d="m65.359375 31.769531c.027344.582031.054687 1.167969.082031 1.753907-1.316406-.488282-2.640625-.941407-3.976562-1.363282v-3.878906c1.011718.316406 2.015625.65625 3.019531 1.011719.191406-.757813.382813-1.515625.574219-2.269531-1.191406-.433594-2.386719-.839844-3.59375-1.222657v-3.839843c1.335937.421874 2.660156.871093 3.976562 1.359374-.027344.5625-.054687 1.125-.082031 1.691407.882813.324219 1.757813.660156 2.632813 1.011719.070312-1.371094.140624-2.742188.210937-4.113282-3.597656-1.460937-7.265625-2.679687-10.980469-3.65625.128906.863282.257813 1.722656.386719 2.585938.355469.089844.710937.191406 1.066406.289062v3.839844c-.488281-.136719-.976562-.269531-1.46875-.398438.132813.859376.261719 1.722657.390625 2.582032.359375.097656.71875.195312 1.078125.296875v3.882812c-.484375-.136719-.972656-.269531-1.460937-.398437-.128906.792968-.261719 1.585937-.390625 2.375 3.847656.992187 7.644531 2.242187 11.371093 3.753906-.070312-1.425781-.136718-2.851562-.203124-4.277344-.875-.351562-1.75-.691406-2.632813-1.015625"/><path d="m40.167969 27.078125c.265625.019531.527343.035156.792969.054687.117187-.816406.238281-1.632812.359374-2.453124-.597656-.042969-1.195312-.082032-1.792968-.117188-.8125-3.078125-1.628906-6.144531-2.445313-9.199219-1.765625-.050781-3.535156-.046875-5.304687.003907-1.089844 4.261718-2.175782 8.542968-3.265625 12.839843-.597657.042969-1.199219.089844-1.800781.140625.121093.816406.242187 1.632813.359374 2.449219 1.335938-.113281 2.671876-.195313 4.007813-.246094.390625-1.652343.785156-3.296875 1.175781-4.941406.207032.433594.417969.871094.625 1.308594 1.359375-.027344 2.71875-.023438 4.082032.015625.285156 1.203125.574218 2.40625.859374 3.613281 1.339844.046875 2.671876.125 4.003907.238281.121093-.820312.242187-1.632812.363281-2.449218-.601562-.050782-1.199219-.097657-1.796875-.136719-.074219-.371094-.148437-.746094-.222656-1.121094m-6.003907-9.269531h.574219c.539063 2.207031 1.082031 4.417968 1.621094 6.636718-1.273437-.027343-2.546875-.027343-3.820313 0 .542969-2.214843 1.082032-4.429687 1.625-6.636718"/><path d="m14.246094 21.855469c.90625-.210938 1.8125-.410157 2.71875-.589844-.027344-.566406-.058594-1.136719-.089844-1.703125.945312-.191406 1.886719-.363281 2.835938-.523438v10.203126c-.492188.082031-.984376.167968-1.476563.257812-.132813.855469-.265625 1.703125-.398437 2.554688 2.132812-.40625 4.269531-.730469 6.417968-.980469l-.398437-2.429688c-.429688.050781-.859375.105469-1.289063.164063v-10.199219c.949219-.128906 1.902344-.242187 2.851563-.339844-.027344.574219-.058594 1.152344-.089844 1.730469.917969-.09375 1.839844-.175781 2.761719-.242188.074218-1.40625.148437-2.808593.222656-4.214843-4.796875.332031-9.578125 1.054687-14.289062 2.164062.074218 1.382813.148437 2.765625.222656 4.148438"/><path d="m9.238281 25.484375c-1.570312.429687-3.132812.898437-4.679687 1.410156-.542969.179688-.984375-.125-.984375-.6875v-1.863281c0-.558594.4375-1.175781.980469-1.371094 1.386718-.492187 2.78125-.949218 4.183593-1.371094-.03125.582032-.058593 1.164063-.089843 1.75.886718-.269531 1.777343-.523437 2.667968-.761718.074219-1.421875.144532-2.835938.21875-4.253906-2.71875.722656-5.414062 1.574218-8.070312 2.558593-1.457032.539063-2.625 2.246094-2.625 3.753907v3.015624c0 1.503907 1.167968 2.277344 2.617187 1.777344 1.546875-.535156 3.101563-1.027344 4.667969-1.472656.546875-.15625.996094.179688.996094.742188v1.964843c0 .5625-.445313 1.148438-.996094 1.316407-1.5.464843-2.992188.96875-4.476562 1.515624.039062-.589843.078124-1.175781.117187-1.765624-.886719.324218-1.765625.664062-2.644531 1.015624-.070313 1.429688-.140625 2.855469-.210938 4.28125 2.734375-1.109374 5.515625-2.078124 8.320313-2.90625 1.480469-.4375 2.691406-1.972656 2.691406-3.484374v-3.113282c0-1.507812-1.210937-2.449218-2.683594-2.050781"/></g><g fill="#fdc82f"><path d="m46.253906 18.578125c.429688-.355469.859375-.710937 1.292969-1.058594-1.863281-.273437-3.730469-.492187-5.605469-.644531.011719.011719.019532.023438.027344.035156-.007812-.007812-.015625-.015625-.027344-.023437.027344.503906.054688 1.015625.082032 1.519531-.433594.441406-.863282.886719-1.296876 1.335938.921876.0625 1.84375.140624 2.765626.234374-.03125-.578124-.0625-1.152343-.09375-1.730468.953124.097656 1.902343.207031 2.855468.332031"/><path d="m53.398438 18.59375c-.035157.519531-.066407 1.042969-.101563 1.5625-.476563.351562-.953125.710938-1.429687 1.070312.914062.179688 1.820312.375 2.726562.582032.074219-1.382813.144531-2.765625.21875-4.148438-.46875.308594-.941406.617188-1.414062.933594"/><path d="m49.339844 30.484375c-.042969-.007813-.742188-.125-1.347656-.21875.371093-.355469.746093-.707031 1.117187-1.0625v-10.199219c.949219.15625 1.902344.332032 2.847656.519532.476563-.320313.949219-.632813 1.421875-.945313-1.890625-.410156-3.789062-.753906-5.695312-1.039063v12.683594c-.640625-.097656-1.34375-.191406-1.789063-.25-.441406.355469-.886719.714844-1.332031 1.078125 2.152344.242188 4.296875.566407 6.4375.96875-.136719-.851562-.265625-1.703125-.398438-2.554687-.421874.335937-.839843.679687-1.261718 1.019531"/><path d="m19.710938 19.039062c.429687-.484374.859374-.964843 1.289062-1.445312-1.859375.285156-3.714844.628906-5.5625 1.03125l.027344.027344c-.007813-.003906-.019532-.011719-.027344-.015625.027344.5.054688.996093.082031 1.496093-.425781.570313-.851562 1.144532-1.273437 1.722657.90625-.210938 1.8125-.410157 2.71875-.589844-.027344-.570313-.058594-1.136719-.089844-1.703125.945312-.191406 1.886719-.363281 2.835938-.523438"/><path d="m26.878906 16.902344c-.039062.53125-.070312 1.066406-.105468 1.597656-.480469.496094-.964844.996094-1.445313 1.5.917969-.09375 1.839844-.175781 2.761719-.242188.074218-1.40625.148437-2.8125.222656-4.214843-.476562.449219-.957031.902343-1.433594 1.359375"/><path d="m22.585938 30.046875c-.042969.007813-.53125.070313-1.136719.160156.371093-.46875.746093-.933593 1.117187-1.398437v-10.199219c.949219-.128906 1.902344-.242187 2.851563-.339844.480469-.464843.960937-.921875 1.441406-1.375-1.914063.164063-3.820313.390625-5.722656.679688v12.679687c-.636719.09375-1.53125.242188-1.976563.320313-.441406.488281-.882812.984375-1.324218 1.480469 2.128906-.402344 4.269531-.730469 6.417968-.976563-.132812-.8125-.265625-1.621094-.398437-2.433594-.421875.464844-.847657.929688-1.269531 1.402344"/><path d="m67.988281 32.785156c-.417969.25-.835937.5-1.253906.753906.03125.582032.066406 1.164063.101563 1.75-1.691407-.742187-7.878907-2.71875-8.707032-2.871093-.4375.296875-.871094.59375-1.308594.894531 3.847657.988281 7.648438 2.242188 11.371094 3.75-.066406-1.425781-.136718-2.851562-.203125-4.277344"/><path d="m65.359375 25.011719c.460937-.285157.921875-.566407 1.378906-.84375.035157-.515625.066407-1.03125.101563-1.546875.453125-.242188.910156-.476563 1.363281-.710938-.070313 1.371094-.140625 2.742188-.210937 4.113282-.875-.351563-1.75-.6875-2.632813-1.011719"/><path d="m58.671875 21.128906c.421875-.292968.84375-.585937 1.265625-.875-.363281-.109375-.726562-.210937-1.089844-.3125-.410156.292969-.828125.59375-1.238281.898438.351563.09375.710937.191406 1.0625.289062"/><path d="m58.671875 27.449219c.421875-.296875.84375-.589844 1.265625-.875-.363281-.109375-.726562-.214844-1.089844-.316407-.417968.296876-.835937.59375-1.253906.894532.363281.097656.71875.195312 1.078125.296875"/><path d="m65.4375 23.316406c.464844-.238281.933594-.476562 1.398438-.707031-2.230469-.867187-4.488282-1.636719-6.765626-2.316406v12.679687c.464844-.207031.929688-.414062 1.394532-.617187v-4.074219c1.007812.316406 2.015625.65625 3.015625 1.011719.191406-.757813.382812-1.515625.574219-2.273438-.429688.257813-.863282.519531-1.292969.78125-.761719-.265625-1.527344-.519531-2.296875-.761719v-5.078124c1.332031.421874 2.65625.875 3.972656 1.355468"/><path d="m40.875 29.472656c-.589844-.042968-1.179688-.078125-1.769531-.109375-.425781.390625-.855469.785157-1.285157 1.183594 1.339844.046875 2.671876.125 4.003907.238281.121093-.816406.242187-1.632812.363281-2.449218-.4375.375-.875.753906-1.3125 1.136718"/><path d="m39.179688 29.296875c.40625-.367187.808593-.734375 1.210937-1.097656-.074219-.371094-.144531-.746094-.222656-1.121094.265625.019531.527343.035156.789062.054687.125-.816406.242188-1.632812.363281-2.449218-.429687.378906-.859374.761718-1.289062 1.148437-2.128906-.128906-4.261719-.1875-6.390625-.164062-.253906.414062-.507813.828125-.761719 1.25 1.910156-.039063 3.824219-.011719 5.730469.078125.191406.765625.382813 1.535156.570313 2.300781"/><path d="m34.738281 17.808594c.394531-.414063.789063-.824219 1.183594-1.230469-.933594-.015625-1.863281-.015625-2.796875 0-1.058594 4.242187-2.121094 8.503906-3.183594 12.785156-.519531.027344-1.039062.058594-1.558594.09375-.4375.445313-.875.890625-1.3125 1.339844 1.335938-.113281 2.671876-.195313 4.007813-.246094 1.027344-4.265625 2.058594-8.511719 3.085937-12.742187z"/><path d="m38.261719 25.675781c.421875-.375.84375-.746093 1.265625-1.113281-.8125-3.074219-1.628906-6.144531-2.441406-9.199219-.390626.402344-.777344.8125-1.164063 1.21875.777344 3.019531 1.558594 6.054688 2.339844 9.09375"/><path d="m3.765625 31.742188c-.039063.589843-.078125 1.175781-.117187 1.765624-.460938.585938-.917969 1.171876-1.375 1.765626.03125-.613282.0625-1.222657.09375-1.835938.464843-.570312.929687-1.132812 1.398437-1.695312"/><path d="m11.921875 30.648438v-3.113282c0-.8125-.351563-1.457031-.90625-1.820312-.359375.394531-.71875.789062-1.078125 1.1875.347656.289062.558594.722656.558594 1.28125v2.105468c0 1.324219-1.058594 2.546876-2.351563 2.945313-1.972656.609375-3.929687 1.289063-5.871093 2.039063-.457032.582031-.910157 1.171874-1.363282 1.765624 2.734375-1.109374 5.515625-2.078124 8.320313-2.90625 1.480469-.4375 2.691406-1.976562 2.691406-3.484374"/><path d="m4.425781 21.773438c-1.28125.457031-2.179687 1.75-2.179687 3.074218v1.832032c0 .648437.183594 1.070312.585937 1.324218.332031-.40625.660157-.808594.992188-1.210937-.152344-.125-.25-.328125-.25-.585938v-1.863281c0-.558594.4375-1.175781.980469-1.371094 1.386718-.492187 2.78125-.949218 4.183593-1.371094.464844-.554687.929688-1.105468 1.394531-1.652343-1.917968.542969-3.820312 1.152343-5.707031 1.824219"/><path d="m8.257812 26.832031c-1.308593.371094-2.617187.769531-3.914062 1.207031-.59375.199219-1.132812.199219-1.539062-.003906-.359376.445313-.714844.894532-1.070313 1.34375.460937.25 1.0625.289063 1.722656.0625 1.546875-.535156 3.101563-1.027344 4.664063-1.472656.304687-.085938.570312-.019531.753906.148438.355469-.40625.710938-.8125 1.0625-1.214844-.390625-.292969-.851562-.324219-1.679688-.070313"/><path d="m8.648438 23.351562c.457031-.558593.914062-1.113281 1.371093-1.664062.039063-.574219.074219-1.148438.113281-1.722656.46875-.546875.933594-1.089844 1.402344-1.628906-.074218 1.417968-.144531 2.835937-.21875 4.253906-.890625.238281-1.78125.492187-2.667968.761718"/></g></svg>