<svg height="62pt" viewBox="0 0 69 62" width="69pt" xmlns="http://www.w3.org/2000/svg"><path d="m65.519531 7.53125c-4.148437-4.507812-10.386719-5.171875-14.664062-3.902344-.605469-.542968-1.84375-1.5625-2.851563-1.847656-1.542968-.433594-2.507812-.203125-3.070312.097656-.832032-.527344-2.570313-1.460937-4.238282-1.382812-1.835937.089844-3.054687 1.28125-3.613281 1.96875-2.144531-.695313-4.414062-.683594-6.433593.0625-3.1875 1.171875-4.214844 3.097656-4.613282 3.890625-.414062.070312-1.085937.25-1.699218.820312-.25.230469-.617188.742188-1.246094 1.625-.59375.835938-1.332032 1.878907-1.734375 2.261719-1.195313 1.144531-1.726563 1.324219-2.402344 1.28125-.429687-.03125-.804687.257812-.894531.683594-.011719.054687-.019532.113281-.019532.171875 0 .773437.953126 1.925781 1.722657 2.214843.347656.128907.667969.207032.960937.253907-.0625.199219-.121094.410156-.15625.613281-.050781.277344-.214844.859375-.359375 1.378906-.238281.855469-.371093 1.339844-.371093 1.664063 0 .265625.085937.425781.277343.601562.1875.171875.390625.230469.585938.226563-.054688.21875-.117188.445312-.191407.691406-.125.382812-.375.886719-.574218 1.289062-.210938.421876-.402344.8125-.402344 1.152344 0 .238282.09375.453125.34375.640625.109375.082031.316406.226563.914062.203125-.019531.03125-.058593.097656-.058593.097656-.265625.425782-.464844.742188-.464844 1.070313 0 .113281.023437.226563.078125.347656.085938.199219.238281.339844.425781.4375-.222656.175781-.417969.386719-.542969.648438-.097656.203125-.144531.414062-.144531.628906 0 .195313.042969.394531.121094.582031.09375.21875.207031.386719.335937.527344-.121093.050781-.242187.105469-.355468.15625-.574219-2.039062-1.316406-3.070312-2.207032-3.054688-.175781 0-.390624.03125-.609374.125-.058594-.183593-.121094-.359374-.167969-.507812l-.359375-1.039062c-1.210938-3.292969-2.308594-3.210938-2.671875-3.1875-1.128907.082031-1.425781 1.207031-1.484375 2.292968-.214844-.21875-.46875-.347656-.800782-.324218-.183593.011718-.332031.070312-.464843.140624-.195313-.414062-.410157-.828124-.628907-1.144531l-.128906-.191406c-.648437-.945313-1.535156-2.242187-2.730468-1.738281-.972657.414062-1.234376 1.355468-1.234376 2.398437 0 .632813.097657 1.308594.183594 1.925781.050782.355469.117188.738282.191406 1.125-.078124-.027343-.15625-.058593-.234374-.070312-.382813-.050781-.742188.074219-1.015626.355469-.402343.40625-.535156.859375-.535156 1.296875 0 .546875.210938 1.074218.367188 1.453125 0 0 .078125.207031.089844.238281-.011719.003906-.027344.011719-.039063.019531-.753906-.710937-1.851563-1.496093-2.824219-.964843-.335937.183593-.574218.492187-.679687.886718-.039063.160156-.058594.328125-.058594.507813 0 1.207031.867187 2.734375 1.066406 3.066406.097657.164063.285157.5.476563.847656-.230469.085938-.472656.253907-.609375.601563-.058594.144531-.082031.289062-.082031.429687 0 .402344.199218.792969.449218 1.140625-.304687.058594-.558594.230469-.722656.542969-.503906-.160156-1.835938-.484375-2.214844.441406-.042968.105469-.0625.210938-.0625.324219 0 .808594 1.0625 1.675781 1.535156 2.023438-.058593.125-.101562.253906-.101562.394531 0 .0625.007812.125.019531.183593.121094.609376.738281 1.054688 2.082031 1.832032 0 0 .070313.042968.140626.085937-.007813.027344-.019532.046875-.027344.078125-.015625.074219-.023438.144532-.023438.210938 0 .871094 1.128906 1.457031 1.519532 1.65625 0 0 .070312.035156.167968.082031-.273437.417969-.445312.867187-.488281 1.347656-.003906.058594-.003906.113281-.003906.171875 0 1.113282.902343 1.949219 1.800781 2.050782.003906 0 .054688.003906.132812.011718.027344.117188.058594.246094.117188.441406 0 .003907.089844.25.246094.523438-.273438.039062-.597656.097656-1.015625.203125-.882813.21875-2.152344.683594-2.832031.933594l-.335938.121093c-1.230469.4375-1.3125.953126-1.339844 1.125-.007812.046876-.011718.09375-.011718.140626 0 .261718.121093.515624.328124.679687.0625.050781.128907.085937.191407.117187-1.113281.675782-1.574219 1.820313-1.574219 2.609376 0 .089843.007812.175781.019531.257812.054688.382812.128907.671875.191407.875-.070313.238281-.121094.523438-.121094.84375 0 .621094.179687 1.355469.730468 2.070312 1.109376 1.4375 3.394532 2.039063 5.160157 1.996094 1.34375-.03125 2.097656-.246094 2.476562-.355468 2.078125.691406 4.394531.902343 6.890625.621093 2.660156-.300781 5.117188-1.261719 6.191406-1.730469.355469.308594.863282.585938 1.503907.613282 1.558593.066406 2.492187-1.484375 3.203125-3.007813.273437-.59375.480468-1.0625.644531-1.449219.089844.082032.179687.164063.277344.234376l.175781.132812c.464844.351562.992188.753906 1.722656.617188.292969-.050782.511719-.195313.679688-.363282.175781.125.375.265625.628906.421875l.109375.066407c.371094.230468.738281.453124 1.089844.621093-.066407.085938-.132813.171875-.195313.269531-.835937 1.265626-1.097656 2.386719-1.097656 3.246094 0 .632813.144531 1.125.308594 1.421875.320312.582031.78125.625.964844.621094.082031-.003906.792968-.0625.847656-.910156.035156-.496094.675781-1.207031 1.210937-1.714844.363281-.347656.691407-.570313.945313-.710937.171875.316406.390625.671874.636718.964843.34375.40625.902344.691407 1.3125.894531 0 0 .132813.070313.203126.105469.023437.039063.058593.078125.058593.078125.320313.425782.988281 1.304688 2.425781 1.320313 1.4375.011719 3.242188-1.4375 4.0625-2.46875.996094-1.253907 1.519532-2.4375 1.738282-3.011719.582031-.316406 1.789062-1.125 3.503906-3.015625 2.824219-3.109375 4.0625-6.75 4.28125-7.449219.449219-1.429687.671875-2.585937.671875-3.511718 0-.644532-.105469-1.179688-.320313-1.621094-.445312-.921875-1.074218-1.324219-1.59375-1.460938-.476562-.738281-1.6875-2.292968-3.679687-2.707031-.53125-.109375-1.023437-.160156-1.492187-.171875.773437-.433594 1.351562-.761719 1.695312-1.011719.332031-.242187 2.957031-2.214843 2.957031-4.417969 0-.257812-.035156-.519531-.117187-.785156-.421875-1.371094-1.582032-1.953125-2.53125-2.207031.027344-.128906.046875-.265625.046875-.410156 0-.117188-.007813-.238281-.03125-.367188-.070313-.359375-.222657-.644531-.433594-.875 1.75-.089843 3.792969-.296875 5.761719-.761719 2.753906-.644531 4.355468-1.21875 5.644531-1.683593.589844-.207031 1.09375-.390625 1.628906-.554688 1.25-.375 2.234375-.632812 2.765625-.769531.523438-.136719.578125-.152344.710938-.242188.265625-.175781.421875-.476562.421875-.792968 0-.019532 0-.039063-.003907-.058594-.019531-.328125-.207031-.617188-.503906-.765625l-.125-.058594c-1.695312-.734375-3.226562-1.617187-4.210937-2.230469-1.046875-.648437-2.058594-1.421874-2.800781-2.03125.898437-.210937 1.972656-.441406 2.632812-.484374 2.511719-.171876 4.128906.320312 4.707031.542968.800781.304688 1.304688.789063 1.3125.792969l.917969.890625.429688-1.210938c.066406-.1875 1.5625-4.628906-2.691407-9.257812" fill="#fff"/><path d="m40.730469 1.328125c-2.128907.101563-3.300781 2.050781-3.300781 2.050781s-.101563.042969-.273438-.019531c-.800781-.292969-3.332031-1.121094-6.230469-.050781-3.6875 1.359375-4.128906 3.714844-4.390625 3.867187-.085937.050781-.921875.003907-1.648437.675781-.453125.417969-2.15625 3.097657-2.96875 3.875-1.207031 1.160157-1.976563 1.578126-3.023438 1.507813-.207031-.015625.476563 1.203125 1.148438 1.453125 1.09375.414062 1.898437.210938 1.898437.210938s-.441406.882812-.570312 1.59375c-.128906.707031-.792969 2.792968-.707032 2.871093.085938.078125.539063-.210937.675782-.253906.140625-.042969.410156-.144531.410156-.144531s-.074219.96875-.464844 2.191406c-.273437.863281-1.023437 2.082031-.925781 2.15625.117187.085938.652344.027344.953125-.023438.304688-.050781.785156-.179687.785156-.179687s-.191406.75-.367187 1.101563c-.171875.351562-.683594 1.050781-.636719 1.15625.023438.058593.539062.21875 1.421875.089843.765625-.109375 1.386719-.453125 1.386719-.453125s-.167969.3125-.246094.523438c-.078125.195312-.125.625-.21875.695312-.09375.066406-1.132812.148438-1.519531.253906-.507813.140626-1.21875.589844-.960938 1.191407.273438.644531.789063.558593 1.988281.714843 1.203126.15625 1.484376.308594 1.484376.308594s-.003907-.003906-.011719-.003906c-.023438.019531-.527344.480469-.269531.878906.261718.40625 1.113281.433594 1.527343.449219.398438.015625.546875-.070313.585938.003906.042969.082031-.136719.15625-.230469.351563-.09375.191406-.03125.632812.796875.785156 1.402344.265625 2.632813.277344 2.867187.289062.234376.011719.351563.066407.351563.097657 0 .082031-.050781.023437-.90625.097656-.730469.0625-2.039063.074219-2.660156-.046875-.8125-.164062-.953125-.46875-.96875-.683594-.011719-.164062.050781-.480468.03125-.503906s-1.359375.292969-1.78125-.34375c-.535157-.804688.078125-1.355469.101562-1.375-.460937.011719-1.136719.050781-1.765625.183594-1.003906.210937-2.460937 1.019531-2.460937 1.019531s-.769531-3.441406-1.652344-3.429687c-.828125.011718-.714844 1.023437-.804687 1.011718-.167969-.023437-.796876-2.109375-1.113282-2.972656-.316406-.855469-1.109375-2.699219-1.84375-2.648438-.734375.054688-.765625 1.390626-.714844 2.722657.050782 1.332031.027344 2.714843-.007812 2.714843s-.390625-.644531-.71875-1.734374c-.277344-.921876-.550781-1.753907-.84375-1.734376-.53125.039063-.511719 1.355469-.554688 1.339844-.042968-.015625-.683593-1.847656-1.269531-2.695312-.589843-.851563-1.246093-1.902344-1.867187-1.640625-.945313.402343-.777344 1.863281-.554688 3.433593.238282 1.675782.855469 4.03125.855469 4.03125s-1.46875-2.605468-2.144531-1.914062c-.601563.613281-.136719 1.453125.113281 2.121094.261719.699218.664063 1.34375.625 1.375-.15625.128906-.671875-.5-1.011719-.359375-.371094.152343-.179687.652343-.25.644531-.066406-.011719-1.726562-2.074219-2.609375-1.589844-.890625.488282.386719 2.871094.636719 3.292969.25.417969 1.066406 1.910156 1.082031 1.953125s-.328125.0625-.582031.078125c-.25.015625-.488281-.050781-.570312.15625-.066407.167969-.007813.53125.675781 1.242187.683593.707032 1.128906 1.074219 1.078125 1.136719-.105469.144531-1.972656-.648437-2.175782-.15625-.128906.3125.300782.699219.300782.699219s-.695313-.136719-1.183594-.304688c-.578125-.191406-1.203125-.21875-1.269531-.054687-.078125.195313.769531 1.082031 1.375 1.480469 1.308593.859375 1.546875.746094 1.570312.796875.027344.054687-1.578125-.164063-1.511719.167969.082032.398437 1.5 1.15625 1.949219 1.425781.449219.273437 1.449219.710937 1.421875.753906-.023437.042969-.265625 0-.542968 0-.277344 0-.59375-.015625-.628907.152344-.035156.167969.191407.5 1.0625.949219.785157.410156 1.148438.519531 1.128907.5625-.015626.042968-.914063.632812-1 1.683593-.0625.75.585937 1.269531 1.0625 1.320313.472656.050781.8125-.035156.8125-.035156.019531.679687.003906.632812.136718 1.074218.128906.429688.46875.746094.476563.746094.007812 0-.070313.21875-.148438.386719-.074219.167969-.136719.457031-.136719.457031s-.253906-.128906-1.554687.191406c-1.015625.253906-2.601563.859375-3.089844 1.035156-.492187.175782-.867187.4375-.789062.496094.074219.0625.324219.019532.699219.097656.371093.078126 1.328124.351563 1.796874.394532.464844.042968.84375.085937.84375.085937s-.011718.105469 0 .230469c.007813.121094.019532.277344.019532.277344s-.199219.113281-.378906.261718c-.183594.152344-.328126.351563-.328126.351563s-1.183593-.886719-2.335937-.332031c-1.179687.570312-1.433594 1.734375-1.375 2.152344.101563.675781.25.996093.25.996093s-.566406 1.171875.386719 2.402344c.898437 1.167969 2.910156 1.714844 4.492187 1.675781 1.707031-.039062 2.375-.394531 2.519531-.386718.148438.007812 2.621094 1.125 6.777344.65625 3.378906-.378907 6.488282-1.910157 6.488282-1.910157s.429687.75 1.328124.789063c.722657.03125 1.457032-.445313 2.421876-2.53125.96875-2.082032 1.144531-2.734375 1.144531-2.734375s.492187.820312 1.011719 1.203125c.519531.386718.835937.683594 1.265624.605468.433594-.078124.5-.789062.578126-.796874.078124-.007813.320312.355468 1.304687.960937.746094.457031 1.597656 1 1.988281.804687.144532-.070312-.273437-.953124-.273437-.953124v.003906c-.054688-.132813-.136719-.328125-.207031-.539063-.089844-.277343-.042969-.824219-.042969-.824219s.664062.273438 1.382812.609376c.84375.398437 1.328125.457031 1.558594.308593.234375-.148437-.332031-.78125-.570313-1.332031-.195312-.457031-.367187-1.257812-.269531-1.285156.128907-.035156.332031.332031 1.773438 1.046875.492187.246093 1.660156.730469 1.824219.6875.15625-.046875.035156-1.195313-.507813-2.640625-.234375-.621094-1.136719-1.464844-1.070313-1.589844.003907-.007812.539063 0 .539063.046875 0-.007813-.003906.160156.074219.230469.050781.050781.324218.171875.507812.109375.296875-.101563.882813-.175781 2.589844.0625 1.597656.222656 2.925781 1.289062 2.949219 1.101562.070312-.664062.292969-1.730469.808593-2.769531.777344-1.570312 1.238282-1.929688 1.199219-2.023438-.128906-.28125-1.230469-1.050781-2.4375-1.363281-1.40625-.367187-2.210937-.222656-2.273437-.335937-.054688-.097656.792968-1.367188 1.964844-1.570313.9375-.15625 1.375.289063 1.53125.226563.054687-.023438-.050782-.347656-.304688-.546875-.414062-.320313-.972656-.285157-.972656-.285157s-.078125-1.945312 1.375-3.371093c.84375-.824219 2.929687-1.289063 4.648437-.257813 2.324219 1.394532 2.277344 3.195313 1.867188 5.367188-.316407 1.707031-1.441407 2.855468-1.980469 3.3125-.125.105468-.019531-.382813-.035156-.65625-.015625-.28125-.097656-.703125-.21875-.695313-.199219.015625-.0625.960938-.308594 1.84375-.519531 1.886719-.875 2.675781-1.867188 3.886719-1.78125 2.164062-3.648437 2.660156-3.609374 2.773438.058593.15625.441406.335937.441406.335937s.023437.683594-.765625 1.839844c-1.5 2.191406-3.359375 2.863281-3.921875 2.96875-.269532.046875-1.046875-.117188-1.722656-.644531-.425782-.335938-.785157-1.050782-.78125-1.484376 0-.175781.554687-.429687.996093-.730468.417969-.289063.597657-.789063.410157-.941406-.21875-.175782-.464844.375-.769532.574218-.304687.195313-.785156.445313-.8125.355469-.035156-.140625-.023437-.285156-.269531-.527344-.191406-.195312-.371094-.34375-.371094-.34375s.441407-.105469.871094-.585937c.335937-.378906.375-1.203125 0-1.867188-.324219-.585937-1.054687-1.019531-1.167969-1.019531-.113281 0-.066406.234375.011719.363281.082031.132813.199219.160156.402344.324219.199219.160156.695312.820313.53125 1.480469-.105469.433594-.484375.753906-1.257813.722656-.609375-.027344-.921875-.1875-1.472656-.542969-.0625-.039062-.15625.027344-.0625.257813.054688.125.238281.320312.316406.398437.019532.015625.039063.035157.0625.050781.269532.210938.613282.273438.613282.308594s-.894532.316406-1.652344 1.460938c-1.519532 2.300781-.859375 4-.542969 3.984375.207031-.007813-.355469-.597657 1.527344-2.394531 1.066406-1.019532 1.914062-1.160157 1.914062-1.160157s.394531.925781.863281 1.480469c.324219.386719 1.121094.703125 1.382813.867188.257813.167968.632813 1.222656 1.992187 1.238281 1.066407.011719 2.675782-1.230469 3.414063-2.15625 1.273437-1.605469 1.71875-3.09375 1.71875-3.09375s1.300781-.484375 3.5625-2.976563c2.355469-2.59375 3.648437-5.691406 4.101563-7.136718.699218-2.226563.792968-3.6875.394531-4.511719-.558594-1.160157-1.351563-1.050781-1.351563-1.050781s-1.117187-2.203126-3.34375-2.664063c-2.027344-.417969-3.722656-.152344-4.832031 1.703125-.925781 1.554688-.707031 2.835938-.949219 2.933594-.242187.09375-.640625.242187-1.253906.804687-.613281.558594-.957031 1.304688-1.011719 1.359375-.050781.050782-.832031.132813-1.007812.347656-.085938.105469-.199219.953126-.527344 1.691407-.644531 1.449219-.769531 1.460937-.769531 1.460937s-.691406-.972656-1.425782-1.65625c-.75-.699218-1.988281-1.46875-2.039062-1.527344-.050781-.0625-.027344-.039062.015625-.117187s3.261719-3.015625 5.53125-4.675781c3.484375-2.546875 7.15625-4.285156 8.15625-5.007813 1.003906-.730469 3.027344-2.660156 2.53125-4.273437-.421875-1.382813-1.953125-1.707032-2.695313-1.785156-.007812.007812-.242187.207031-.433593.328124-.113281.070313-.347657.136719-.316407.191407.019532.035156.273438.003906.976563.1875.699219.183593 1.1875.757812.859375 1.433593-.414062.839844-1.730469 1.480469-2.679688 1.699219-1.589843.371094-2.851562.300781-2.839843.339844.011719.042969.226562.148437.355469.554687.148437.464844-.363282 1.023438-.898438 1.191407-.371094.113281-1.730469-.039063-1.722656.109375 0 .050781.695312.921875-.5625 1.507812-.816406.378906-2.910156.601563-4.140625.511719-1.355469-.097656-1.660157-.058594-1.65625-.171875.003906-.117188.972656-.140625 3.992187-.460938 1.945313-.207031 2.078125-.65625 2.046875-.9375s-.472656-.628906-.5-.683593c-.027343-.058594-.027343-.152344.1875-.144531.207031.011718 1.28125-.011719 1.996094-.222657.625-.183593.832031-.523437.8125-.726562s-.578125-.628907-.660156-.675781c-.082031-.046876-.152344-.203126.082031-.207032.601562-.003906 2.652344-.421875 3.875-.730468 1.21875-.308594 1.941406-1 1.988281-1.417969.03125-.28125-.488281-.640625-1.273437-.753907-.804688-.113281-1.109375-.105468-1.113282-.226562 0-.050781.347657-.261719.546876-.351562.1875-.082032.621093-.335938.675781-.367188h-.011719s.71875-.496094.570312-1.265625c-.121093-.632813-.65625-1.011719-2.953124-1.101563-1.722657-.0625-2.714844-.03125-2.722657-.039062-.007812-.007812.066407-.214844.113281-.410156.042969-.191406.066407-.421875.074219-.410156.011719.007812 6.066407.613281 11.445313-.648438 3.933594-.925781 5.445312-1.6875 7.222656-2.226562 1.917969-.578126 3.203125-.871094 3.253906-.90625.050782-.035157.089844-.132813 0-.175782-.085937-.042968-1.925781-.792968-4.394531-2.324218-2.164063-1.339844-4.132813-3.160157-4.132813-3.160157s2.960938-.804687 4.339844-.902343c2.480469-.167969 4.214844.273437 5.050782.59375.992187.378906 1.59375.976562 1.59375.976562s1.441406-4.097656-2.519532-8.40625c-3.871094-4.210938-9.972656-5.015625-14.273437-3.539062 0 0-1.703125-1.652344-2.855469-1.976563-2.1875-.613281-2.832031.304687-2.832031.304687s-2.226563-1.65625-4.21875-1.558593zm-1.320313 50.714844c-.152344-.011719-.265625.066406-.289062.164062-.058594.210938.375.261719.515625.648438.144531.402343.082031.636719.078125.679687-.011719.140625-.300782.710938.015625.71875.34375.007813.648437-1.277344.222656-1.84375-.191406-.253906-.386719-.355468-.542969-.367187zm0 0" fill="#0051ba"/><path d="m41.109375 1.933594c-.265625 0-.546875.027344-.847656.082031-1.480469.265625-2.359375 1.777344-2.359375 1.777344s.945312.597656 1.535156.914062c.546875.300781.78125.394531 1.207031.4375s.839844.042969.871094.171875c.03125.105469-.195313.378906-.515625.378906-.828125.007813-.613281.085938-3.375-1.363281-2.453125-1.285156-4.5-.90625-4.539062-.902343-.273438.042968-2.914063.316406-4.632813 1.972656-.925781.890625-1.265625 1.890625-1.238281 2.066406.046875.316406.199218.386719.300781.667969.089844.246093.085937.714843-.054687.691406-.171876-.027344-.453126-.941406-1.167969-.953125-.386719-.007812-.933594-.027344-2 1.691406-.699219 1.121094-1.632813 2.234375-2.007813 2.625s-1.414062 1.257813-1.742187 1.382813c-.628907.238281-.757813.085937-.800781.164062-.042969.074219.308593.601563 1.246093.671875 1.222657.097656 2.199219-.683594 2.253907-.65625.019531.011719-.820313 1.453125-1.050782 2.082032-.253906.703124-.34375 1.164062-.480468 1.582031-.128907.390625-.203126.800781-.285157.9375-.039062.066406 1.035157-.242188 1.753907-.785157.839843-.636718 1.222656-1.199218 1.222656-1.199218s-.054688.917968-.769532 1.476562c-.675781.523438-1.15625.695313-1.328124.949219-.03125.046875-.042969 1.003906-.292969 1.832031-.449219 1.46875-.886719 2.136719-.886719 2.136719s.722656-.007813 1.738281-.675781c.984375-.652344 1.40625-1.109375 1.40625-1.109375s.082031.5625-.617187 1.179687c-.585938.519532-.851563.613282-.910156.691406-.03125.042969-.167969.738282-.296876 1.109376-.1875.546874-.519531.980468-.46875 1.050781.050782.074219.996094-.117188 2.070313-.867188.722656-.503906 1.527344-1.027343 1.527344-1.027343s-.53125.726562-.914063 1.5625c-.46875 1.03125-.703125 1.605468-.644531 2.277343.003906.039063.660156-.335937 1.257813-.542969.457031-.160156 1.003906-.308593 1.621093-1.015624.449219-.511719.964844-1.125.964844-1.125s-.273437.691406-.382813 1.339843c-.105468.652344-.121093 1.609375-.042968 1.695313.042968.046875 1.558594-.890625 2.027344-1.433594.734374-.851562 1.363281-2.039062 1.363281-2.039062s.042969.066406.054687.140624c.007813.078126-.132812 1.574219-.085937 2.121094.054687.660156.089843.835938.136719 1.6875.011718.226563-.015626.394532.039062.425782.050781.03125.128906-.085938.34375-.183594s1.617188-.625 2.398438-1.332032c1.371093-1.238281 1.667968-2.007812 1.667968-2.007812s-.292968 1.5625-.3125 2.117188c-.035156.917968.078125 2.40625.183594 2.484374.105469.074219.570312-.375 1.160156-.714843.285156-.167969.84375-.464844 1.769532-1.734375.582031-.792969 1.007812-1.355469 1.074218-1.375.070313-.019532-.378906 1.199218-.382812 1.597656 0 .445312.210937 1.160156.324218 1.472656.089844.246094.113282.378906.183594.722656 0 0 1.027344-1.011718 1.660156-1.683593 1.421876-1.523438 1.332032-2.382813 1.332032-2.382813-2.113282-.238281-4.117188-.933594-5.359375-1.390625-3.261719-1.199219-5.078125-2.71875-6.96875-4.515625-1.097657-1.039062-1.457031-2.101562-1.226563-2.648437.136719-.320313.457032-.449219.457032-.449219s-1.585938-1.882812-1.347657-3.582031c.140625-.992188 1.546875-1.378907 4.152344-.871094 3.339844.648437 6.722656 2.566406 6.722656 2.566406s-1.285156-.90625-1.785156-1.621093c-.503906-.710938-.757813-1.277344-.757813-1.277344s-.871093.144531-1.78125-.09375c-.917968-.246094-1.78125-.421875-2.429687-1.582032-.199219-.351562.058594-.222656.335937.140626.019532.027343.226563.210937.515626.226562.359374.023438 1.460937-.15625 3.101562-1.609375 1.703125-1.511719 3.160156-2.652344 4.171875-2.25 1.015625.398437 1.378906 1.363281.78125 2.152344-.597656.789062-.738281 1.113281-.738281 1.113281s.226562.140625.554687.488281c.332031.34375.695313.679688.695313.679688s1.164062-1.480469 4.066406-3.375c2.902344-1.890625 4.332031-2.421875 4.332031-2.421875s-.480469-.8125-1.75-1.410156c-.875-.410157-1.546875-.496094-1.917969-.449219-.289062.03125-.636718.175781-.652343.375-.007813.117187.175781.234375.445312.371093.328125.167969.546875.207032.589844.292969.042969.085938.121094.285157.050781.292969-.359375.042969-.757812-.105469-.953125-.214844-.5-.285156-1.667969-1.121094-2.503906-1.601562-.636719-.367188-1.273437-.59375-2.0625-.59375zm11.898437 14.992187c-.050781 0-.101562.003907-.152343.023438-.746094.257812-2.199219.773437-3 1.070312-.820313.304688-2.914063 1.246094-3.328125 1.398438-.414063.152343-.558594.257812-.691406.261719-.355469.011718-.660157.113281-.476563.222656.027344.019531 2.285156.035156 3.789063.003906 1.816406-.039062 4.285156-.050781 4.484374-.066406.25-.019532.640626-.191406 1.480469-.625.863281-.441406 1.046875-.46875 1.195313-.515625.230468-.074219.097656-.121094.097656-.121094-.050781-.035156-.835938-.308594-1.519531-.660156-.558594-.285157-1.636719-.925781-1.636719-.925781s-.101562-.066407-.242188-.066407zm-11.261718 27.722657c-.988282-.042969-1.574219.164062-1.65625.210937-.105469.0625-.445313 1.015625-.574219 1.40625-.128906.394531-.742187 1.695313-.757813 1.765625-.015624.070312-.027343.207031-.023437.261719.007813.054687.023437.097656.039063.121093.015624.023438.070312.117188.097656.171876.03125.054687.054687.105468.097656.113281.046875.007812 1.382812.050781 2.371094.261719 1.269531.269531 2.132812.785156 2.210937.761718.175781-.054687.25-.984375.785157-2.054687.308593-.625.8125-1.585938.863281-1.660157.054687-.078124.054687-.117187.054687-.117187-.121094-.214844-1.191406-.859375-2.386718-1.101563-.417969-.085937-.789063-.125-1.121094-.140624zm-.226563.941406c.183594.003906.363281.019531.511719.046875.632812.113281 1.640625.5625 1.703125.625 0 0 0 .050781-.03125.097656s-.28125.613281-.449219 1.015625c-.210937.507812-.378906 1.09375-.425781 1.085938-.046875-.007813-.726563-.355469-1.617187-.59375-1.03125-.277344-1.585938-.019532-1.65625-.128907-.023438-.039062.273437-.746093.375-1.039062.097656-.292969.347656-1.007813.398437-1.039063.042969-.023437.644531-.085937 1.191406-.070312zm-26.832031 3.355468c-.101562-.027343-.207031.21875-.421875.433594-.164063.164063-.660156.3125-.8125.296875-.257813-.03125-.378906-.109375-.378906-.109375s-.261719.109375-.777344.425782c-.511719.320312-.820313.609374-.804687.710937.074218.429687.128906.289063.757812.992187.628906.703126.980469 1.3125 1.023438 1.332032.042968.023437 1.015624-.515625 1.820312-.78125 1.113281-.363282 2.207031-.484375 2.289062-.554688.035157-.027344-.472656-.84375-.933593-1.308594-.304688-.304687-.609375-.527343-.675781-.550781-.214844-.074219-.34375-.019531-.449219-.082031-.238281-.140625-.578125-.527344-.582031-.613281-.003907-.085938.003906-.175781-.054688-.191407zm-.238281.746094c.054687.011719.382812.355469.621093.613282.230469.25.65625.886718.640626.890624-.019532.003907-.65625.257813-.910157.339844-.257812.085938-.886719.367188-.925781.359375-.039062-.007812-.40625-.40625-.636719-.691406-.25-.304687-.636719-.730469-.617187-.765625.023437-.035156.707031-.363281.957031-.472656.246094-.105469.816406-.28125.871094-.273438zm0 0" fill="#e8000d"/><path d="m54.71875 4.484375c-1.160156.039063-2.378906.25-3.640625.675781-4.710937 1.578125-8.445313 4.863282-9.171875 6.160156-.125.222657 1.382812 1.675782.273438 3.003907-.894532 1.078125-2.648438.371093-2.648438.371093 1.523438.984376 2.371094 1.910157 2.464844 2.082032.066406.125.105468.296875.105468.296875-1.410156-.992188-2.695312-1.832031-4.085937-2.503907-.527344-.253906-7.238281-3.324218-9.152344-2.152343-1.089843.664062.578125 3.117187.949219 3.570312.546875.667969 1.914062 1.847657 3.089844 2.488281.839844.457032.871094.417969.886718.617188.003907.085938-.265624.1875-.609374.105469-.300782-.070313-1.519532-.773438-1.96875-1.136719-.449219-.359375-1.34375-1.070312-1.34375-1.070312s-.292969-.109376-.410157.074218c-.355469.554688 2.601563 4.074219 6.867188 5.816406 4.589843 1.871094 8.25 2.3125 14.859375 1.683594 3.46875-.328125 6.992187-1.710937 8.800781-2.328125 1.226563-.417969 2.269531-.722656 2.269531-.777343 0-.050782-2.125-.476563-4.382812-.679688-3.839844-.347656-5.914063-.175781-8.925782-.242188-4.25-.09375-6.695312.335938-10.945312-.441406-1.324219-.242187-2.800781-.84375-3.765625-1.621094-1.488281-1.199218-3.175781-3.277343-2.585937-3.613281.566406-.320312 1.261718.433594 1.542968.722657 1.164063 1.179687 1.070313 1.953124 1.070313 1.953124s1.460937 2.171876 7.5 2.34375c3.277343.09375 5.066406-1.476562 7.894531-2.421874 4.171875-1.390626 4.464844-1.910157 9.582031-2.890626 5.234375-1.003906 7.707031.894532 7.707031.894532s.96875-4.082032-3.5-7.8125c-2.25-1.878906-5.238281-3.292969-8.726562-3.171875zm-14.910156 2.21875c-.210938-.027344-1.042969.109375-2.679688 1.511719-1.636718 1.40625-2.140625 1.808594-2.589844 1.996094-.449218.1875-.921874.277343-.871093.332031.054687.054687.832031.265625 1.203125.308593.804687.09375 1.265625-.050781 1.265625-.050781s-.039063-1.246093.582031-1.78125c1.074219-.929687 2.984375.117188 2.984375.117188s.699219-.796875.871094-1.175781c.210937-.46875.105469-.722657.105469-.722657-.15625-.425781-.660157-.507812-.871094-.535156zm9.894531.265625c.4375-.023438.6875.167969.792969.332031.117187.1875.449218.695313-.707032 1.429688-1.152343.734375-1.6875.179687-1.8125.070312-.125-.105469-.414062-.855469.71875-1.488281.410157-.230469.742188-.324219 1.007813-.34375zm-.144531.5625c-.183594.007812-.394532.078125-.570313.207031-.347656.261719-.714843.542969-.507812.773438s.734375-.007813.960937-.117188c.230469-.113281.683594-.488281.53125-.722656-.070312-.105469-.230468-.152344-.414062-.140625zm6.046875 8.535156s-.4375.128906-.761719.21875c-.324219.09375-.972656.238282-.957031.277344.019531.035156 1.375.96875 1.84375 1.152344s1.304687.53125 1.59375.605468c.289062.074219.6875.128907.6875.203126 0 .074218-.542969.292968-1.269531.605468-.722657.308594-1.445313.714844-1.445313.769532 0 .054687 2.332031.273437 3.453125.402343 1.121094.128907 2.550781.3125 2.914062.367188.359376.054687.742188.164062.722657.109375-.019531-.054688-.144531-.109375-.523438-.273438-.378906-.167968-1.828125-1.066406-2.625-1.632812-.792969-.570313-2.132812-1.648438-2.65625-2.035156-.523437-.382813-.976562-.769532-.976562-.769532zm-8.058594 21.605469c-1.105469-.046875-2.117187.328125-2.644531.84375-1.453125 1.425781-1.375 3.371094-1.375 3.371094s.558594-.035157.976562.285156c.253906.199219.355469.523437.300782.546875-.15625.0625-.59375-.382812-1.527344-.226562-1.175782.203124-2.019532 1.472656-1.96875 1.570312.066406.113281.867187-.03125 2.273437.335938 1.207031.3125 2.308594 1.082031 2.4375 1.363281.039063.09375-.421875.453125-1.203125 2.023437-.511718 1.039063-.734375 2.105469-.804687 2.769532-.023438.1875-1.351563-.878907-2.949219-1.101563-1.703125-.238281-2.292969-.164063-2.589844-.0625-.183594.0625-.453125-.0625-.507812-.109375-.078125-.070312-.074219-.238281-.074219-.230469 0-.046875-.535156-.054687-.539063-.046875-.066406.125.839844.964844 1.070313 1.589844.542969 1.445312.660156 2.59375.507813 2.640625-.164063.042969-1.332032-.441406-1.824219-.6875-1.441407-.714844-1.644531-1.082031-1.773438-1.046875-.09375.027344.070313.828125.273438 1.285156.234375.550782.800781 1.183594.570312 1.332032-.230469.148437-.714843.089843-1.5625-.308594-.71875-.335938-1.386719-.609375-1.386719-.609375s-.042968.546875.050782.824219c.066406.207031.148437.40625.207031.539062.039063.09375.070313.15625.070313.15625s.058593.054688.140624.101562c.078126.050782.347657.238282.347657.238282s-.015625-.011719-.039063-.035156c-.078125-.078126-.261718-.273438-.3125-.398438-.097656-.230469-.003906-.296875.058594-.257812.550781.355468.863281.515624 1.472656.542968.773438.03125 1.152344-.289062 1.257813-.722656.164062-.660156-.328125-1.320312-.53125-1.480469-.199219-.164062-.320313-.191406-.398438-.324219-.082031-.128906-.128906-.367187-.015625-.367187.113282 0 .84375.4375 1.167969 1.023437.375.664063.339844 1.488282 0 1.867188-.425781.476562-.871094.585938-.871094.585938s.175781.148437.371094.339843c.246094.246094.230469.390625.273437.53125.023438.085938.503907-.164062.808594-.359375.304688-.195312.550782-.746094.769532-.570312.1875.152344.007812.652344-.410157.941406-.441406.300781-.996093.554688-.996093.730469-.003907.433593.351562 1.148437.78125 1.484375.675781.527344 1.453124.691406 1.722656.640625.5625-.101563 2.421875-.773438 3.921875-2.964844.789062-1.15625.765625-1.839844.765625-1.839844s-.382813-.179687-.4375-.335937c-.042969-.113282 1.828125-.613282 3.605468-2.773438.992188-1.210937 1.34375-2 1.867188-3.886718.242188-.886719.109375-1.828126.308594-1.84375.121094-.007813.203125.417968.21875.691406.019531.28125-.089844.765625.039062.660156.539063-.457031 1.660156-1.605469 1.980469-3.3125.40625-2.175781.453125-3.972656-1.871094-5.367188-.644531-.386718-1.339843-.5625-2.003906-.585937zm4.714844 3.003906c-.1875.125.269531 1.121094-.199219 2.941407-.742188 2.878906-2.441406 3.917968-2.605469 4.1875-.128906.207031-1.015625 2.535156-1.90625 3.660156-.878906 1.113281-1.691406 1.8125-3.136719 2.683594-.253906.152343-.027343.355468-.035156.484374-.011718.128907-.339844 1.792969-1.78125 3.144532-2.207031 2.070312-3.308594 1.941406-3.464844 2.101562-.070312.070313.457032.453125.984376.402344.511718-.046875 2.140624-.828125 3.480468-2.742188 1.0625-1.519531 1.261719-2.683593 1.277344-2.769531.039062-.1875.097656-.246093.273438-.128906.070312.046875.152343.296875.234374.269531.734376-.277344 2.757813-2.023437 4.585938-4.710937 1.332031-1.960938 2.550781-5.121094 2.828125-6.417969.390625-1.808594.007813-2.972656-.410156-3.105469-.058594-.015625-.097657-.015625-.125 0zm-42.238281 6.410157c-.03125.011718-.175782.367187-.351563.476562s-.191406.023438-.355469.203125c-.167968.179687-.703125.972656-.042968 1.550781.359374.3125 1.046874.21875 1.3125.125.265624-.089844.480468-.449218.367187-.675781-.101563-.203125-.316406-.121094-.46875-.332031-.148437-.210938-.183594-.464844-.285156-.6875-.097657-.21875-.167969-.277344-.148438-.378906.03125-.195313-.027343-.28125-.027343-.28125zm-2.179688 2.019531c-.277344.023437-.734375.058593-1.589844.304687-.851562.246094-2.074218.589844-2.074218.695313 0 .082031 1.761718.238281 2.359374.226562.792969-.015625 1.714844-.386719 1.839844-.726562.125-.339844-.261718-.527344-.535156-.5zm10.25.488281s-.34375 0-.695312.042969c-.351563.042969-.785157.128906-.785157.128906s.535157.550781.867188 1.015625c.335937.464844.769531 1.167969.730469 1.304688-.027344.085937-.476563-.101563-2.632813.554687-1.699219.515625-2.535156 1.105469-2.59375 1.125-.058594.015625-.109375-.359375-.34375-.714844s-.46875-.695312-.5-.695312c-.035156 0-.078125.839843-.347656 1.382812-.289063.574219-.597657 1-.765625.863281-.234375-.183593.242187-.863281.460937-1.472656.152344-.433594.109375-1.347656.109375-1.347656s-.210937-.238281-.253906-.238281c-.039062 0-.316406.753906-.617188 1.042969-.300781.289062-.699218.730468-.859374.492187-.160157-.238281.574218-.652344.808593-1.179687.234375-.523438.402344-.871094.417969-1.449219.019531-.574219.035156-.539063-.023438-.546875-.058593-.007813-.511718.207031-1.128906.199218-.835937-.011718-.851562-.25-.929687-.269531-.074219-.015625-.15625.414063-.9375.71875-.609375.242188-1.078125.207031-1.175781.324219-.101563.117188-.101563.738281.109374 1.355469.144532.429687.609376 1.167969.332032 1.261719-.289063.097656-.367188-.128907-.660156-.847657-.199219-.484375-.210938-.617187-.242188-.652343-.035156-.03125-.148438-.050782-.207031-.015626-.0625.035157-.367188.40625-.410157.476563-.042968.066406.207032.398437.308594.558594.097656.160156.324219.574219.226563.742187-.101563.171875-.167969.1875-.226563.113282-.058594-.078126-.378906-1.046876-1.332031-1.59375-1.085937-.628907-2.335937.097656-2.457031 1.152343-.136719 1.210938 1.0625 2.511719 3.246094 3.230469 2.390624.785156 3.804687-.1875 3.804687-.1875s2.222656 1.226562 6.453125.785156c4.328125-.453125 5.808594-1.539062 6.285156-1.90625.460938-.351562.519532-.566406.460938-.550781s-.695313.382813-1.1875-.09375c-.882813-.851563-.375-2.703125-.457032-2.769531-.085937-.066406-.3125.066406-.570312.015625-.433594-.082031-.585938-.507813-.667969-.496094-.152343.015625-.285156.75-.953125.683594-.542968-.054688-.796875-.574219-.765625-1.480469.023438-.769531.105469-1.0625.105469-1.0625zm21.316406 2.449219c.15625.011719.351563.109375.542969.363281.425781.570312.117187 1.855469-.222656 1.84375-.316407-.003906-.027344-.574219-.015625-.714844.003906-.042968.066406-.277344-.078125-.679687-.140625-.386719-.574219-.4375-.515625-.648438.023437-.097656.136718-.175781.289062-.164062zm-36.976562 3.472656c-.078125-.035156-.511719 1.761719 2.9375 2.683594.945312.25 2.738281.066406 3.460937-.152344.582031-.179687.6875-.304687.738281-.3125.085938-.015625.195313 0 .195313.054687 0 .058594.007813.15625.007813.15625s1.765624.804688 4.332031.761719c2.570312-.042969 5.292969-.566406 7.296875-1.523437 1-.476563 1.0625-.574219 1.101562-.652344.035156-.078125.082032-.304688.078125-.40625-.007812-.101562-.03125-.308594-.03125-.308594s-.691406.523438-3.492187 1.425782c-1.46875.472656-3.230469.769531-6.042969.613281-2.515625-.140625-3.289063-.734375-3.492187-.773438-.191407-.035156-1.316407.90625-4.101563.136719-2.25-.621094-2.679687-1.550781-2.988281-1.703125zm32.875.378906c-.324219 0-.902344.160157-1.597656.972657-.925782 1.085937-1.261719 2.472656-1.195313 2.5625.070313.09375.171875-.699219 1.550781-1.757813 1.382813-1.0625 1.664063-.832031 1.828125-1.132813.082031-.144531-.082031-.507812-.355469-.613281-.042968-.015625-.125-.03125-.230468-.03125zm0 0" fill="#ffc82d"/><path d="m37.71875 9.179688c-.148438.023437-.292969.074218-.429688.15625-1.121093.695312-.394531 2.523437.707032 3.625 1.078125 1.078124 2.53125 1.679687 3.296875 1.328124.886719-.40625.695312-1.203124.695312-1.203124s-.488281.863281-1.332031.839843c-1.316406-.03125-2.367188-1.566406-2.367188-1.566406s.203126-.078125.648438-.148437c.359375-.058594.660156-.160157.660156-.160157s-.492187-.183593-.894531-.292969c-.414063-.113281-.839844-.25-.839844-.25s-.398437-.835937.246094-1.375c.714844-.605468 1.972656.011719 1.972656.011719s-1.316406-1.125-2.363281-.964843zm-18.40625 24.222656c-.449219 0-.449219.230468-.449219.304687 0 .089844.039063.300781.390625.300781.167969 0 .34375.011719.410156.027344.273438.0625.335938.148438.355469.5.023438.371094.023438.695313.023438 2.496094v2.082031c0 1.082031 0 2.011719-.058594 2.496094-.046875.339844-.09375.464844-.183594.484375-.132812.03125-.253906.042969-.382812.042969-.351563 0-.378907.222656-.378907.289062 0 .09375.042969.3125.425782.3125.269531 0 .617187-.007812.929687-.019531l.542969-.015625.523438.015625c.339843.007812.761718.019531 1.15625.019531.394531 0 .414062-.261719.414062-.3125 0-.140625-.109375-.289062-.347656-.289062-.140625 0-.390625-.023438-.542969-.042969-.0625-.011719-.226563-.039062-.253906-.464844-.035157-.5-.035157-1.433594-.035157-2.515625v-.601562c.277344.308593 4.449219 4.976562 4.449219 4.976562l.007813.007813c.515625.464844.871094.75 1.554687.816406.253907.023438.46875.023438.824219.023438h1.015625c.128906 0 .472656 0 .472656-.3125 0-.144532-.105469-.289063-.34375-.289063-.085937 0-.3125-.054687-.703125-.214844-.5625-.222656-1.09375-.695312-1.542968-1.128906-.007813-.011719-1.351563-1.488281-1.351563-1.488281s-2.621094-2.859375-3.222656-3.515625c.542969-.570313 2.039062-2.089844 2.382812-2.414063.5-.457031 1.046875-.929687 1.355469-.929687.144531 0 .28125.039062.304688.488281.023437.375.023437.695312.023437 2.492188v1.722656c0 1.546875.351563 2.585937 1.101563 3.269531.941406.867187 2.183593.867187 2.714843.867187.707031 0 1.632813-.101562 2.546875-.898437 1.03125-.894531 1.171875-2.308594 1.171875-3.699219v-1.261718c0-1.796876 0-2.121094.023438-2.492188.023437-.402344.105469-.460938.273437-.492188.132813-.023437.191406-.035156.304688-.035156.347656 0 .402344-.183594.402344-.296875 0-.199219-.148438-.304687-.4375-.304687-.296876 0-.699219.019531-.996094.027344 0 0-.324219.007812-.328125.007812h-.03125c-.652344-.027344-1.074219-.035156-1.3125-.035156-.289063 0-.433594.105468-.433594.304687 0 .089844.035156.296875.390625.296875.136719 0 .304688.015625.371094.03125.277344.0625.335937.144532.355468.496094.023438.375.023438.695312.023438 2.492188v1.472656c0 1.226562-.046875 2.210937-.621094 2.789062-.515625.523438-1.199218.582032-1.472656.582032-.398438 0-.867188-.054688-1.332031-.4375-.503907-.417969-.839844-1.046876-.839844-2.757813v-1.648437c0-1.796876 0-2.121094.023437-2.492188.023438-.402344.105469-.460938.277344-.492188.128906-.023437.191406-.035156.300782-.035156.351562 0 .378906-.226562.378906-.296875 0-.300781-.339844-.304687-.449219-.304687l-.855469.023437-.578125.015625h-2.234375l-.664062-.019531-.539063-.019531c-.328125 0-.378906.191406-.378906.304687 0 .238281.21875.289063.300781.308594h.011719c0 .007813.003906.019531.003906.046875 0 .121094-.261719.429688-.488281.703125l-.050781.058594c-.199219.234375-.890625.964843-1.503907 1.609375-.25.261718-.476562.503906-.65625.691406v-.09375c0-1.800781 0-2.125.023438-2.496094.023438-.40625.105469-.464844.273438-.496094.128906-.023437.191406-.03125.292968-.03125.339844 0 .355469-.25.355469-.300781 0-.199219-.144531-.304687-.4375-.304687l-.824219.023437-.589844.015625-.511718-.015625c-.335938-.007812-.746094-.023437-1.121094-.023437zm-6.699219 2.777344c-.164062.046874-.195312.550781-.183593 1.210937.011718.664063.050781.867187-.007813.90625s-.785156-.308594-1.375-.585937c-.742187-.351563-1.710937-.984376-1.769531-.972657-.070313.015625.664062.984375.917968 1.539063.300782.65625.566407 1.253906.480469 1.289062-.085937.03125-.480469-.152344-.984375-.332031-.5-.175781-1.035156-.382813-1.074218-.335937-.039063.046874.605468.765624.90625 1.242187.296874.476563.402343.566406.402343.632813 0 .066406-.082031.152343-.148437.160156-.066406.003906-.476563.03125-.808594.035156-.332031.007812-.707031-.023438-.753906.015625s.617187.820313 1.125 1.328125c.722656.71875 1.316406 1.003906 1.335937 1.035156.019531.035156-.351562.234375-.808593.449219-.996094.46875-1.183594.390625-1.203126.46875-.015624.054687.839844.316406 1.457032.535156.804687.285157 1.460937.332031 1.636718.351563.175782.019531-.164062.183594-.273437.25s-.324219.15625-.324219.203125c0 .09375 1.46875.828125 2.699219.9375 1.289063.109375 2.4375-.0625 3.066406-.394531.125-.066407.117188-.164063-.007812-.210938-.15625-.058594-.363281.234375-2.214844.191406-1.648437-.042968-2.828125-.488281-2.878906-.546875-.046875-.050781.449219-.226562.664062-.339843.214844-.109376.480469-.199219.457031-.316407-.03125-.132812-.480468-.109375-.945312-.160156-.59375-.066406-2.117188-.457031-2.152344-.496094-.03125-.039062.457032-.277343.699219-.414062.238281-.140625.472656-.292969.546875-.304688.070312-.011719.195312-.070312.199219-.132812.019531-.15625-.128907-.183594-.199219-.230469-.074219-.042969-.320312-.28125-1.113281-.910156-.488281-.390625-.953125-.867188-.976563-.914063-.027344-.042969.410156-.054687.746094-.070312.339844-.011719.515625-.03125.605469-.078125.09375-.046875.191406-.085938.183593-.199219-.003906-.113281-.167968-.351563-.457031-.734375-.210937-.28125-.609375-.703125-.597656-.746094.011719-.039062.304687.082032.695313.199219.390624.117187.859374.34375.96875.257813.113281-.085938.0625-.460938-.210938-1.015626-.386719-.773437-.808594-1.3125-.765625-1.347656.046875-.03125.726563.410156 1.175781.660156.449219.25 1.210938.664063 1.296875.652344.082031-.011718.234375-.335937.214844-.632812s-.070313-.839844-.039063-.859375.820313.925781 1.179688 1.25c.355469.324219.726562.621093.902344.765625.179687.144531.457031.421875.523437.480468.066407.058594.207031.046876.242188-.070312.03125-.121094.003906-.707031 0-.90625-.007813-.199219.011719-.75.042969-.777344.035156-.027344.371093.660156.703124 1.148438.230469.335937.730469 1.148437.875 1.394531.144532.242187.375.558594.449219.511719.207031-.132813-.429687-1.117188-.78125-1.757813-.363281-.667969-1.460937-2.847656-1.523437-2.855469-.066406-.007812-.113282 1.0625-.117188 1.519532-.007812.453125-.019531 1.074218-.054687 1.09375-.03125.019531-.671875-.601563-1.128907-1.054688-.453124-.457031-1.027343-1.070312-1.144531-1.339844-.117187-.273437-.261719-.707031-.378906-.675781zm30.339844 2.671874c-.6875.441407-1.382813.910157-2.082031 1.417969-1.609375 1.179688-3.71875 3.023438-4.769532 3.976563.425782.296875.9375.675781 1.339844 1.050781.265625.246094.519532.523437.742188.785156.046875-.097656.089844-.199219.144531-.316406.167969-.382813.273437-.816406.351563-1.136719.089843-.359375.136718-.558594.292968-.746094.253906-.3125.652344-.433593 1.109375-.539062.191407-.316406.515625-.820312.992188-1.253906.472656-.433594.855469-.664063 1.140625-.804688l.007812-.03125c.070313-.5.199219-1.390625.730469-2.402344zm-24.921875 2.972657c-.066406.007812-.175781.421875-.277344.753906-.097656.324219-.425781 1.433594-.507812 2.015625-.082032.582031.210937 1.179688.316406 1.234375 0 0 .226562-1.609375.308594-2.011719.082031-.40625.449218-1.425781.449218-1.570312 0-.105469-.222656-.429688-.289062-.421875zm16.328125 3.011719c-.25.101562-1.222656 1.144531-1.90625 2.488281-.859375 1.6875-1.058594 2.851562-1.070313 2.914062-.015624.074219-.394531-.464843-.433593-1.28125-.0625-1.277343.265625-2.5 0-2.59375-.253907-.085937-1.308594 2-1.59375 2.578125-.289063.578125-1.519531 2.808594-1.324219 2.980469.226562.195313 1.15625-1.609375 1.414062-2.039063.246094-.414062.941407-1.671874.941407-1.671874s-.023438 1.378906.207031 1.832031c.226562.453125.539062 1.039062.847656.976562.3125-.0625.105469-.269531.273438-.777343.167968-.507813 1.027344-2.453126 1.324218-2.964844.296876-.507813 1.414063-2.167969 1.382813-2.425782-.003906-.023437-.027344-.027343-.0625-.015624zm6.703125 1.28125c-.199219 0-.328125.019531-.363281.042968-.078125.039063-.1875.238282-.277344.460938-.09375.222656-.179687.601562-.179687.644531s.210937-.074219 1.050781.164063c.839843.238281 1.136719.25 1.191406.238281.054687-.015625.203125-.332031.296875-.582031.097656-.253907.210938-.550782.210938-.550782-.027344-.066406-.539063-.265625-1.15625-.355468-.308594-.046876-.574219-.0625-.773438-.0625zm-23.71875.25s-.320312.324218-.378906.707031c-.066406.480469.085937.875.042968 1.085937-.039062.210938-.25.917969-.25.917969s.140626-.042969.363282-.066406c.230468-.03125.292968-.058594.304687-.117188.015625-.054687-.0625-.480469-.0625-.675781 0-.199219.089844-.652344.132813-1.171875.042968-.523437-.152344-.679687-.152344-.679687zm-5.042969 1.371093s-.167969.210938-.390625.394531c-.222656.183594-.390625.351563-.390625.421876 0 .070312-.011719.339843-.054687.46875-.042969.125.042968.480468.097656.492187.054688.015625.292969-.097656.558594-.195313.261718-.101562.585937-.269531.585937-.269531s-.113281-.28125-.15625-.464843c-.039062-.183594-.109375-.566407-.125-.664063-.011719-.097656-.125-.183594-.125-.183594zm1.984375 2.445313c-.035156-.023438-.308594.121094-.433594.160156s-.496093.175781-.519531.207031c-.027343.03125.203125.265625.28125.371094.078125.109375.335938.398437.386719.402344.019531.003906.324219-.132813.492188-.1875.167968-.054688.324218-.125.375-.175781.019531-.023438-.179688-.316407-.285157-.457032-.105469-.136718-.261719-.300781-.296875-.320312zm0 0" fill="#fff"/></svg>