<svg height="75pt" viewBox="0 0 75 75" width="75pt" xmlns="http://www.w3.org/2000/svg"><g fill="#553a84" fill-rule="evenodd"><path d="m31.667969 61.683594.472656 1.195312.4375-1.195312h.464844v1.671875h-.304688v-1.382813l-.515625 1.382813h-.171875l-.542969-1.382813v1.382813h-.296874v-1.671875zm-.832031 0v.25h-.535157v1.421875h-.335937v-1.421875h-.53125v-.25zm-2.214844-50.617188c.511718 2.402344-.519532 4.703125-2.519532 6.035156-1.542968 1.03125-2.425781 1.171876-5.65625.898438-3.527343-.296875-7.8125-3.589844-10.242187-6.933594zm0 0"/><path d="m16.574219 63.039062c-5.359375-2.945312-8.714844-7.164062-8.714844-11.851562 0-8.898438 12.089844-16.109375 27.007813-16.109375 5.105468 0 9.914062.820313 13.988281 2.289063-.507813 1.007812-.742188 2.21875-.871094 3.175781-1.464844-.414063-3.878906-.835938-5.761719-.847657-6.628906-.203124-13.535156 1.839844-16.511718 8.160157-2.320313 4.558593-1.386719 10.707031 2.101562 14.441406l.769531.800781v.085938c-3.097656 1.367187-7.375 1.695312-10.636719.414062zm0 0"/><path d="m49.828125 36.058594c2.824219-4.042969 7.925781-5.503906 10.484375-3.96875 2.007812 1.207031 2.867188 3.40625 2.121094 6.089844-.042969.164062-.195313.5625-.175782.699218.050782.394532.734376.085938 1.898438-1.335937.253906-.308594 1.046875-1.402344 1.558594-2.425781.085937-.050782.167968.03125.28125.035156.699218.101562 1.425781.3125 2.160156.273437 1.5-1.5625 4.890625-8.242187 5.675781-11.050781.105469-.375.171875-.546875-.546875-1.0625-6.199218-4.429688-14.785156-6.765625-23.050781-8.042969 0 0-.148437-.003906-.152344-.085937-.003906-.15625.1875-.167969.300781-.195313 0 0 4.726563.132813 4.804688.132813s.203125-.042969.253906-.09375c.050782-.050782.089844-.289063-.019531-.378906-5.425781-2.429688-12.617187-4.828126-25.332031-3.8125l-.03125.082031c.355468 1.835937-.40625 4.167969-.984375 5.152343-1.164063 1.988282-3.882813 3.671876-7.582031 3.519532-3.699219-.15625-8.902344-2.753906-11.914063-6.757813l-.195313-.058593c-2.855468.585937-5.515624 1.507812-8.261718 2.460937l-.019532 33.246094c3.519532-7.039063 13.027344-13 24.882813-14.738281 8.988281-1.3125 17.207031-.292969 23.121094 2.441406 0 0 .234375.128906.394531.09375.230469-.050782.328125-.21875.328125-.21875zm0 0"/><path d="m48.988281 58.851562c-1.203125-2.375-3.703125-4.023437-6.527343-4.023437-3.027344 0-5.695313 1.859375-6.785157 4.519531-2.402343-1.867187-3.996093-4.554687-3.996093-7.558594 0-5.644531 5.332031-10.222656 11.914062-10.222656 1.511719 0 2.964844.171875 4.296875.613282.164063 1.742187 1.132813 3.148437 2.660156 3.9375 3.605469 1.863281 6.613281.171874 9.304688-3.300782 0 0 .097656-.167968.191406-.203125.140625-.050781.257813.023438.269531.230469.039063.816406-.203125 1.628906-.390625 2.410156-.265625.667969-.449219 1.367188-.746093 2.007813.605468.6875 1.378906 1.242187 1.898437 1.984375-2.640625 3.777344-8.753906 8.117187-12.089844 9.605468zm0 0"/></g></svg>