<svg height="51pt" viewBox="0 0 75 51" width="75pt" xmlns="http://www.w3.org/2000/svg"><path d="m30.398438 2.058594c-8.285157-.054688-16.152344 2.070312-21.570313 7.132812-.027344-.335937-.269531-2.636718-.269531-2.636718l-2.253906 2.84375-.40625.511718c-1.902344 2.402344-3.953126 5.367188-4.757813 9.148438-.210937.984375-.316406 1.941406-.316406 2.902344 0 1.796874.378906 3.613281 1.167969 5.65625-.660157-.132813-1.441407-.28125-1.441407-.28125l1.054688 2.035156c3.226562 6.222656 8.898437 10.707031 16.507812 13.257812 3.050781 1.019532 4.769531 1.152344 5.742188 1.253906-5.867188-2.144531-9.835938-6.378906-12.339844-10.363281.507813.105469 1.015625.210938 1.015625.210938l-.746094-1.902344c-.617187-1.574219-.914062-3.644531-.914062-5.3125 0-.851563.070312-1.601563.230468-2.125.773438-2.582031 7.148438-5.421875 10.945313-4.933594-.34375.039063-1.171875.199219-1.171875.199219s3.289062.144531 6.058594.832031c2.773437.6875 6.144531 1.683594 9.09375 2.992188 1.3125.578125 5.214844 2.550781 8.105468 4.523437l-.492187-.847656s.226563.046875.855469.472656c.964844.652344 1.953125 1.898438 2.03125 2.136719.007812.160156-.117188.207031-.824219.359375-.929687.203125-1.910156.371094-1.910156.371094s.9375.953125 2.378906 1.4375c1.441406.480468 2.390625.523437 3.296875.425781.789062 1.1875 2.238281 2.496094 4.910156 3.199219 3.996094 1.050781 7.375.128906 9.785156-.875.507813 1.085937.78125 2.113281.78125 2.96875 0 .28125-.027343.542968-.085937.785156-.214844.878906-1.847656 2.28125-2.921875 2.695312-1.078125.417969-1.367188.519532-1.707031.640626.394531.335937 1.402343.832031 1.859375.996093.609375.222657 1.351562.363281 1.75.429688 1.839844.320312 3.707031.160156 5.332031-.367188 2.082031-.679687 3.621094-2.007812 4.445313-3.835937.632812-1.402344.878906-2.769532.878906-4.050782 0-3.308593-1.632813-6.035156-2.492188-7.242187.46875-.46875.734375-1.082031.757813-1.773437 0-.035157 0-.066407 0-.101563 0-1.882813-1.753907-3.996094-3.527344-5.304687-.492187-2.109376-1.75-4.203126-3.949219-6.542969-1.039062-1.109375-2.300781-2.183594-3.632812-3.320313-1.21875-1.039062-5.226563-3.835937-6.300782-5.328125 0 0 .742188 1.660157.960938 2.15625-2.6875-1.835937-7.109375-4.035156-9.84375-5.121093l-3.714844-1.472657s.914063 1.183594 1.644532 2.125c-3.074219-.984375-6.535157-1.714843-7.84375-1.890625l.039062.007813c-2.742188-.40625-7.003906-.625-8.332031-.53125.332031.21875 1.183593.800781 2.136719 1.445312" fill="#fff" fill-rule="evenodd"/><path d="m69.777344 24.6875c-.605469-1.195312-1.429688-1.390625-1.429688-1.390625l-.035156 1.398437s-.320312-1.207031-.496094-1.796874c-.609375-2.039063-2.402344-4.777344-4.480468-6.714844.140624.296875.238281.589844.230468.832031-1.125-1.386719-4.34375-4.019531-4.34375-4.019531l.398438 1.21875s-.210938-.277344-.445313-.554688c-2.128906-2.546875-8.023437-5.628906-9.8125-6.5625l.785157 1.28125c-.140626-.078125-.335938-.183594-.589844-.308594l.796875 1.359376-4.15625-1.96875 2.238281.066406c-.632812-.296875-1.386719-.632813-2.226562-.980469-2.054688-.722656-4.292969-1.304687-6.980469-1.8125-.480469-.09375-.964844-.171875-1.457031-.238281.441406.285156 1.207031 1.339844 1.5625 1.671875-8.773438-1.234375-16-.632813-21.65625 1.523437-3.738282 1.738282-7.171876 4.441406-10.300782 8.308594l-.09375-.535156c-.003906.007812-.007812.011718-.011718.015625l-.304688-1.738281c-1.253906 1.652343-2.789062 4.371093-3.277344 6.273437-.003906.015625-.039062.160156-.042968.175781-.429688 1.691406-.472657 3.175782-.214844 4.617188.355468 1.554687 1.050781 3.082031 1.980468 4.796875l-.191406-.039063c.09375.183594.195313.367188.296875.558594l-.964843-.195312c1.621093 2.535156 4.164062 5.355468 6.96875 7.332031-1.816407-1.957031-3.144532-3.902344-3.933594-6.101563l.101562.019532c-.074218-.175782-.144531-.355469-.207031-.539063l1.335937.277344c-.105468-.398438-.1875-.773438-.257812-1.148438-.628906-2.769531-.457031-5.609375.324219-7.605469.636719-1.636718 3.207031-5.289062 7.519531-6.417968l-.644531.980468c.277343-.082031.566406-.152343.863281-.214843l-1.015625 1.347656c3.542969-1.480469 8.558594-1.980469 14.648437-.183594l-.609374.085938c.183593.070312.363281.144531.53125.226562l-1.042969.257813c1.847656.449218 4.152343 1.113281 5.1875 1.472656 1.097656.382812 2.441406 1.015625 3.765625 1.703125-.335938-.242187-.53125-.386719-.53125-.386719 1.941406.601563 3.238281 1.871094 4.628906 2.609375l-.238281-.441406c1.996093 1.101563 3.796875 1.730469 4.535156 2.503906.007813.007813.011719.015625.019531.023438 1.453125 1.21875 2.203125 2.222656 2.429688 2.554687.066406.644532.183594 1.203125.402344 1.714844-.609376-2.796875.023437-3.617188.246093-4.117188.0625-.140624.152344-.269531.25-.386718.917969-1.417969 3-2.210938 4.78125-2.152344 1.851563.066406 3.636719.578125 5.429688 1.652344-.332031-.378906-.351563-.894532-.238281-1.277344.015624-.054688.039062-.105469.058593-.15625.019531-.109375.046875-.21875.09375-.316406.097657-.226563.300781-.375.515625-.46875-.128906-.429688-.578125-1.332032-1.648437-1.453125-.683594-.074219-1.011719.179687-1.023438.191406.007813-.011719.21875-.382813.578125-.535156-.359375-.210938-1.285156-.007813-1.308594 0 .039063-.015625.894532-.824219 2.207032-.410157.261718.082032.492187.210938.703125.328126-.183594-.265626-.296875-.421876-.304688-.425782.15625.003906 1.144531.292969 1.679688 1.433594.121093.253906.425781.917969.59375 1.273438.300781.640624.882812 1.542968 1.488281 2.164062.980469 1.011719 2.0625 1.363281 3.289062 1.355469 1.25-.007813 1.714844-.839844 1.71875-.875-.003906.03125.03125.613281-.339843 1.050781.273437-.152344.621093-.511719.714843-.761719.121094-.34375.039063-1.015625-.085937-1.15625.0625.074219.859375.777344.695313 1.492188-.027344.128906-.070313.28125-.175782.441406.117188.078125.257813.179687.410156.285156l-.214843-.3125.707031.40625c.265625-.304687.199219-1.460937-.378906-2.609375" fill="#efab00"/><path d="m38.398438 5.734375c.339843.222656.910156.96875 1.265624 1.367187-3.789062-.535156-7.292968-.726562-10.503906-.597656 6.050782-.019531 17.003906 3.132813 21.457032 6.195313 3.699218 2.539062 3.089843 3.132812-.875 1.355469-8.816407-3.964844-15.953126-4.183594-15.953126-4.183594l-4.882812 2.976562s8.195312 1.078125 13.863281 4.128906c4.878907 2.625 3.210938 2.765626-1.628906 1.023438-7.265625-2.617188-15.105469-3.082031-18.714844-2.609375 3.210938.117187 8.84375.859375 11.042969 1.601563-.558594.167968-1.980469.800781-2.660156.964843 1.21875-.082031 14.8125 4.113281 18.53125 9.023438.015625-.152344.042968-.320313.074218-.496094.445313-2.027344 3.042969-3.203125 5.199219-3.128906 1.851563.0625 3.636719.574219 5.429688 1.648437-.335938-.375-.351563-.898437-.238281-1.28125.101562-.335937.320312-.585937.445312-.609375.070312-.101562.152344-.183593.242188-.246093-.089844-.378907-.523438-1.410157-1.667969-1.535157-.6875-.074219-1.015625.179688-1.027344.191407.011719-.011719.222656-.378907.578125-.535157-.359375-.210937-1.285156-.003906-1.308594.003907.042969-.015626.894532-.828126 2.210938-.414063.261718.082031.492187.214844.703125.328125-.183594-.261719-.300781-.425781-.308594-.425781.15625.007812 1.148437.296875 1.683594 1.429687.121093.257813.425781.917969.589843 1.277344.304688.644531.886719 1.542969 1.492188 2.164062.832031.859376 1.738281 1.242188 2.742188 1.335938-.542969-.144531-.902344-.460938-.832032-.792969.765625.324219 1.5.460938 1.882813-.449219.378906-.910156.183593-3.988281-3.378907-7.910156.039063.214844.132813.589844.136719.992188-.929687-1.328125-2.816406-3.320313-3.984375-4.234375.050782.234375.246094 1.015625.339844 1.339843-.621094-.648437-2.367188-2.140624-2.367188-2.140624l.359376 1.113281s-.191407-.257813-.402344-.511719c-1.949219-2.320312-7.324219-5.136719-8.960938-5.988281l.71875 1.167969c-.128906-.066407-.308594-.164063-.539062-.277344l.726562 1.238281-3.792968-1.792969 2.042968.058594c-.574218-.269531-1.265625-.578125-2.03125-.894531-1.878906-.664063-3.921875-1.195313-6.375-1.65625-.4375-.082031-.878906-.15625-1.328125-.214844zm-5.492188 2.105469c1.113281.152344 2.378906.359375 3.234375.515625 4.46875.824219 8.371094 2.128906 11.832031 4.089843l.386719-.296874c-3.203125-1.644532-6.847656-2.890626-10.835937-3.625-1.246094-.230469-3.359376-.5625-4.617188-.683594zm0 0" fill="#785100" fill-rule="evenodd"/><path d="m32.140625 1.925781c.617187.417969 1.46875 1.097657 1.957031 1.492188-10.59375-1.199219-20.457031 2.546875-26.152344 9.054687l-.101562-1.230468-.148438-1.78125c-.277343.355468-.601562.753906-.953124 1.199218-1.605469 2.027344-3.753907 4.945313-4.554688 8.714844-.710938 3.34375-.097656 6.226562 1.621094 9.84375l-1.253906-.253906c.597656 1.148437 1.289062 2.265625 2.082031 3.34375 3.078125 4.1875 7.632812 7.738281 13.761719 10.101562 1.15625.449219 2.113281.769532 2.949218 1.011719.964844.285156 1.773438.464844 2.542969.605469-7.625-2.789063-12.136719-6.980469-14.34375-11.71875h-.003906c-.035157-.074219-.070313-.148438-.101563-.226563l1.09375.226563h.21875c-.996094-2.570313-1.226562-6.328125-.707031-8.121094.324219-1.113281.832031-2.246094 1.550781-3.121094.472656-.582031 1.164063-1.136718 1.773438-1.453125l-.390625.617188-1.25 1.8125c1.992187-1.882813 7.386719-4.070313 13.160156-3.6875.496094.03125.992187.082031 1.488281.152343l-2.296875.511719-.550781.121094c.574219-.039063 1.492188.050781 2.613281.242187 2.574219.449219 7.429688 1.882813 10.386719 3.191407 1.660156.738281 4.023438 1.824219 6.832031 3.742187-.300781-.566406-.566406-1.136718-.867187-1.652344 1.460937 1.117188 3.25 2.566407 3.667968 3.011719.996094 1.058594 1.871094 2.089844 1.824219 2.707031-.042969.617188-1.339843.554688-1.40625.625 1.65625.511719 2.972657.511719 3.492188.183594-.730469-.847656-1.023438-1.730468-1.140625-2.898437-.515625-.734375-3.613282-4.832031-11.375-7.246094 0 0 .617187.449219 1.527344 1.121094-1.398438-.660157-3.066407-1.363281-4.65625-1.917969-1.265626-.441406-4.425782-1.332031-6.324219-1.734375l2.074219-.515625c-3.699219-1.808594-11.539063-1.175781-15.113282.59375l1.5625-2.070312c-4.574218.945312-6.839844 4.074218-7.632812 6.164062-.867188 2.277344-.992188 5.628906-.027344 8.746094l-1.382812-.285156c.140624.394531.300781.78125.476562 1.160156v.003906c1.015625 2.1875 2.59375 4.15625 4.691406 6.199219-2.550781-1.546875-4.960937-3.878907-6.765625-6.199219l-.003906-.003906c-.640625-.828125-1.210937-1.652344-1.675781-2.441406l1.207031.246093c-1.890625-3.488281-2.816406-6.207031-1.871094-9.933593.003907-.015626.039063-.15625.042969-.171876.492188-1.910156 2.035156-4.640624 3.292969-6.292968l.398437 2.277344c8.082032-10 18.214844-12.222657 30.316406-10.09375-.253906-.285157-.832031-1.296876-1.546874-1.960938 5.019531.011719 12.601562 3.652344 13.996093 4.425781l-1.097656-1.789062c3.753906 1.683593 7.628906 3.816406 10.089844 6.027343-.128907-.359374-.351563-1.171874-.441407-1.402343.429688.328125 3.585938 3.046875 5.3125 4.667969 2.695313 2.535156 3.898438 5.34375 4.472657 7.113281.039062-.023438-.082031-.917969-.089844-1.101563 1.441406 1.488282 3.019531 3.570313 2.042969 5.277344-.039063.070312-.082032.140625-.132813.210938l-.851562-.488282.226562.320313c.25.359375 1.636719 2.4375 2.257813 5.109375v.003906c.425781 1.835938.488281 3.953125-.429688 5.984375-.851562 1.882813-2.742187 3.027344-4.726562 3.410156-1.019532.195313-2.273438.296875-3.023438.171875.234375.039063 2.261719-.882812 3.074219-2.46875.605469-1.175781.46875-3.074218-.035156-4.433594-.292969-.789062-.671875-1.617187-1.125-2.332031-.148438-.238281-.214844-.335937-.214844-.335937-2.414063-3.566406-6.324219-5.324219-8.21875-5.789063-2.5-.617187-4.398437.15625-4.910156 1.800781 0 0-.0625.421876-.046875.609376.007812-.011719.019531-.023438.03125-.035157.195312-.050781.445312-.074219.726562-.078125.539063-.007812 1.171875.046875 1.667969.105469.785156.089844 2.292969.363281 3 .503906-.621094-.332031-2.441406-.855469-3.152344-.929687-.105469-.011719-.210937-.019532-.3125-.035156-.425781-.039063-.808593-.0625-1.128906-.023438.042969-.019531.066406-.03125.066406-.03125l.203125-.253906c.8125-.871094 2.328125-.933594 3.652344-.609375 1.515625.378906 4.234375 1.558593 6.292969 3.8125-1.195313.5-4.117188 1.367187-7.378907.292969-2.765624-.910157-2.925781-2.609376-2.917968-2.6875-.007813.101562-.675782 2.207031 2.429687 3.347656 0 0 .074219.03125.246094.089844 2.949219.996093 5.273437.433593 6.636719-.085938l.003906-.003906c.425781-.164063.757812-.324219.988281-.433594l.316407-.152344c.15625.191406.308593.382813.453124.585938 0 0 .089844.121094.285157.414062-2.117188.960938-5.414063 1.9375-9.40625.882813-1.222657-.320313-2.171875-.785157-2.914063-1.292969-1.820312-1.246094-2.351562-2.710938-2.359375-2.789062l.015625.398437c.007813.074219.097656 1.203125 1.078125 2.390625.726563.875 1.933594 1.785156 3.960938 2.316406 4.273437 1.125 7.808593-.195312 10.039062-1.230468.894531 1.574218 1.683594 3.683593 1.257813 5.441406-.269532 1.109375-1.585938 2.359375-3.0625 3.105468.191406.09375.75.226563 1.117187.289063 2.972657.503906 7.117188-.117187 8.664063-3.546875 1.027344-2.269531.90625-4.503906.367187-6.375v-.003906c-.519531-1.789063-1.417969-3.25-2.070312-4.113282-.003907-.269531-.109375-.84375-.054688-.875 1.980469-1.15625-.007812-4.285156-2.613281-6.039062-.351562-1.988281-1.503906-4.042969-3.78125-6.464844-1.9375-2.0625-4.644531-3.996094-7.621094-6.890625.101563.292969.59375 1.910157.558594 1.871094-1.527344-1.566406-7.847656-4.9375-11.40625-6.351563.292969.382813.972656 1.304688 1.46875 2.042969-2.949219-1.53125-9.074219-2.9375-11.152344-3.214843-1.394531-.242188-2.804687-.277344-4.332031-.347657zm-1.425781 7.515625c-3.207032.023438-6.378906.433594-8.902344 1.21875 1.3125-.339844 2.4375-.539062 3.363281-.683594 4.289063-.667968 12.804688.296876 16.160157 1.71875.113281-.09375.433593-.332031.601562-.414062-2.925781-1.261719-7.101562-1.867188-11.222656-1.839844zm27.828125 11.015625c-.519531 0-1.003907.167969-1.441407.503907-.015624.011718-.03125.023437-.03125.03125.019532-.007813.425782-.097657.808594-.097657.222656 0 .390625.035157.496094.085938-.207031.09375-.40625.273437-.570312.523437v.023438c.003906-.003906.25-.207032.773437-.207032.082031 0 .164063.007813.25.015626 1.160156.128906 1.601563 1.183593 1.679687 1.585937.105469-.066406.226563-.101563.367188-.101563.335938 0 .679688.203126.808594.292969.191406.28125.378906.605469.570312.929688-.011718 0-.027344 0-.042968 0-.101563 0-.203126.035156-.289063.109375.214844.242187.347656.492187.359375.496094l-.589844-.078126c-.027344.332032.1875.746094.660156.898438.132813.042969.261719.066406.386719.066406.121094 0 .242188-.023437.351563-.070312.171875.1875.355468.371094.542968.53125l-.011718.007812c-.214844.191406-.417969.371094-.777344.371094h-.019531c-.023438 0-.046875 0-.070313.007812.039063.011719.457032.324219.457032.324219 1.347656 1.019531 1.988281 1.722657 2.554687 2.339844.15625.175781.304687.339844.464844.503906l.007812-.003906c-.453125-.851563-1.3125-1.804687-2.632812-2.898437.148437.019531.304687.03125.503906.03125.101563 0 .207031-.003907.316406-.007813h.101563c.707031.429687 1.421875.667969 2.132812.695313-.496094.089843-.886718.097656-.992187.097656h-.011719c-.03125 0-.050781 0-.050781.007812.003906 0 .023437.003906.050781.015625.511719.164063 1.015625.25 1.5.25.550781 0 1.054688-.109375 1.496094-.332031.566406-.28125.714844-.636719.785156-.949219.066406-.296875.007812-.789062-.667969-1.460937-.015625-.019532-.027343-.027344-.039062-.027344.121093.136719.210937.804688.085937 1.148438-.089844.246093-.429687.605468-.707031.769531.21875-.261719.332031-.601563.339844-1.023438 0-.019531 0-.027343-.007813-.035156 0 .011719-.453125.867187-1.714844.875h-.039062c-1.316406 0-2.34375-.425781-3.246094-1.355469-.632812-.648437-1.203125-1.550781-1.488281-2.160156-.089844-.195312-.21875-.476562-.335937-.734375-.105469-.222656-.199219-.425781-.253907-.542969-.535156-1.140625-1.515625-1.425781-1.683593-1.425781h-.007813c.015625.007813.125.15625.3125.417969l-.046875-.027344c-.195312-.105469-.417969-.226562-.65625-.304688-.246094-.078124-.496094-.113281-.738281-.113281zm1.714843 2.652344c-.128906.019531-.347656.269531-.453124.617187-.113282.378907-.09375.898438.238281 1.277344-1.792969-1.074218-3.578125-1.585937-5.425781-1.652344-2.160157-.070312-4.757813 1.105469-5.199219 3.128907-.195313.9375-.03125 1.59375-.03125 1.59375s.070312-.546875.144531-.773438c.316406-1.710937 2.601562-3.339843 5.199219-3.285156 2.34375.046875 3.402343.519531 6.695312 2.21875l.519531.117187c-.503906-.410156-1-.777343-1.496093-1.09375-.511719-.527343-.683594-1.234374-.191407-2.148437zm-49.726562 9.203125.242188.046875c-.007813-.015625-.015626-.03125-.019532-.046875zm0 0" fill="#003875" fill-rule="evenodd"/><path d="m23.097656 11.308594-1.804687 7.667968h1.78125l-3.652344 15.144532h-1.765625l-1.949219 7.933594h34.207031l1.921876-7.929688h-4.207032l-3.984375-9.707031 3.496094-3.011719c1.261719.804688 2.445313 1.667969 3.550781 2.601562l.734375-.171874c-1.203125-.933594-2.5625-1.828126-4.011719-2.664063l2.539063-2.1875h3.8125l1.847656-7.671875zm0 0" fill="#efab00"/><path d="m23.667969 11.917969-1.539063 6.363281h1.816406l-3.976562 16.535156h-1.78125l-1.582031 6.539063h32.773437l1.550782-6.535157h-3.769532l-4.34375-10.597656 6.871094-5.941406h3.5l1.585938-6.359375zm35.066406 6.730469c-1.15625-.054688-2.15625.464843-2.75 1.183593-.476563.574219-.535156 1.464844-.242187 2.074219-.101563-.648438.203124-1.238281.570312-1.6875.476562-.578125 1.464844-.957031 2.4375-.984375 1.113281-.03125 2.433594.328125 3.152344 1.265625-.519532-1.070312-1.507813-1.769531-3.167969-1.847656zm0 0" fill="#fff"/><path d="m5.789062 9.058594c-1.574218 2.015625-4.207031 5.050781-5.0625 9.277344l.066407 1.363281c.8125-3.976563 3.367187-8.550781 4.996093-10.640625zm18.8125 4.042968-.941406 3.996094h1.859375l-4.566406 18.898438h-1.851563l-1.035156 4.152344h11.746094l1.011719-4.152344h-1.878907l.464844-1.875 5.152344-4.433594 2.613281 6.296875h-2.859375l-1.011718 4.164063h15.167968l1.011719-4.164063h-3.140625l-4.949219-12.117187 7.917969-6.769532h2.945312l.933594-3.996094h-15.015625l-.980469 3.996094h1.71875l-6.777343 5.757813 1.382812-5.757813h1.226563l.980468-3.996094zm36.1875 5.230469c.84375.308594 1.9375 1.039063 3.355469 3.152344l.410157.632813c.570312.890624 1.046874 1.457031 1.890624 1.664062-.65625-.160156-.90625-1.058594-1.460937-1.917969l-.417969-.640625c-1.496094-2.226562-3.222656-2.859375-3.777344-2.890625zm-24.195312 26.074219c-1.144531 0-2.492188.515625-2.503906 1.851562-.011719.960938.78125 1.503907 1.628906 1.707032.335938.082031.507812.144531.507812.316406s-.148437.242188-.367187.242188c-.292969 0-.605469-.191407-.617187-.511719-.609376.144531-1.21875.289062-1.828126.4375.113282 1.144531 1.394532 1.453125 2.347657 1.453125 1.167969.003906 2.644531-.433594 2.632812-1.855469-.007812-.898437-.730469-1.445313-1.542969-1.660156-.203124-.050781-.695312-.140625-.726562-.367188-.015625-.117187.101562-.238281.339844-.238281.261718 0 .46875.160156.480468.390625.621094-.082031 1.246094-.171875 1.867188-.253906-.0625-1.183594-1.230469-1.511719-2.21875-1.511719zm-13.679688.105469c-.082031.449219-.164062.890625-.246093 1.335937-.074219.398438-.140625.796875-.191407 1.199219h-.039062c-.140625-.324219-.304688-.636719-.476562-.949219-.292969-.527344-.582032-1.054687-.875-1.582031h-1.929688c-.339844 1.828125-.683594 3.65625-1.023438 5.484375.679688-.019531 1.359376-.035156 2.035157-.050781l.242187-1.285157c.074219-.429687.152344-.855468.207032-1.285156h.042968c.199219.40625.425782.792969.652344 1.1875.269531.445313.539062.894532.804688 1.339844.605468-.011719 1.207031-.023438 1.8125-.035156.339843-1.78125.683593-3.570313 1.027343-5.359375zm2.664063 0c-.097656.535156-.203125 1.066406-.304687 1.597656.484374-.003906 2.03125-.007813 2.03125-.007813l-.710938.71875-.578125 3.019532c.691406-.007813 1.382813-.015625 2.078125-.023438.242188-1.238281.484375-2.480468.726562-3.722656h1.460938c.101562-.527344.207031-1.054688.308594-1.582031zm13.859375 0c-.101562.53125-.207031 1.058593-.304688 1.585937.484376.003906 2.015626.007813 2.015626.007813l-.691407.699219c-.195312 1.007812-.386719 2.015624-.582031 3.019531.695312.007812 1.386719.019531 2.078125.027343.242187-1.246093.484375-2.492187.726563-3.738281.488281 0 .976562.003907 1.460937.003907.101563-.53125.207031-1.066407.308594-1.605469zm6.660156.003906c-1.011718 1.789063-2.035156 3.570313-3.058594 5.351563.710938.011718 1.425782.027343 2.136719.039062.136719-.238281.273438-.480469.40625-.722656.628907.011718 1.890625.035156 1.890625.035156h.589844l-.507812.519531c.011718.066407.023437.136719.039062.222657.683594.015624 1.371094.035156 2.058594.054687-.296875-1.832031-.59375-3.667969-.890625-5.5zm-27.773437 0c-1.472657 0-2.941407.003906-4.414063.003906-.34375 1.882813-.6875 3.761719-1.027344 5.644531 1.46875-.054687 2.941407-.101562 4.410157-.140624.097656-.527344.195312-1.050782.292969-1.578126-.804688.019532-1.613282.035157-2.417969.050782.039062-.199219.0625-.300782.101562-.503906.703125-.011719 1.402344-.023438 2.109375-.039063.074219-.457031.15625-.917969.238282-1.375-.699219.007813-1.398438.015625-2.097657.023437.039063-.199218.058594-.300781.097657-.5.804687-.007812 1.605468-.015624 2.40625-.019531.097656-.523437.199218-1.046875.300781-1.566406zm-4.902344.003906c-.765625.003907-1.53125 0-2.296875 0-.429688.667969-.859375 1.335938-1.285156 2.007813-.101563 0-.152344 0-.257813.003906.117188-.667969.234375-1.339844.351563-2.007812-.691406 0-1.386719 0-2.078125 0h-.730469l.621094.625c-.308594 1.753906-.613282 3.511718-.914063 5.265624.691407-.03125 1.382813-.0625 2.078125-.09375.121094-.703124.246094-1.410156.375-2.117187.117188 0 .171875-.003906.289063-.007813.210937.691407.414062 1.382813.625 2.070313.726562-.027344 1.449219-.054687 2.179687-.082031-.328125-.921875-.648437-1.847656-.964844-2.769532.664063-.96875 1.332032-1.933593 2.007813-2.894531zm36.839844 0c-.101563.546875-.203125 1.09375-.308594 1.644531.492187.007813 1.632813.023438 1.632813.023438h.382812l-.679688.6875c-.195312 1.058594-.390624 2.113281-.585937 3.171875.691406.019531 1.386719.042969 2.078125.066406.242188-1.304687.480469-2.609375.722656-3.914062.488282.003906.972656.011719 1.460938.015625.105468-.5625.207031-1.128906.308594-1.691406v-.003907c-1.667969 0-3.339844 0-5.011719 0zm5.6875 0c-.339844 1.890625-.679688 3.777344-1.023438 5.664063 1.472657.054687 2.945313.117187 4.414063.183594.097656-.554688.191406-1.105469.289062-1.65625-.804687-.027344-1.609375-.054688-2.414062-.078126.039062-.203124.058594-.308593.097656-.515624l2.109375.058593c.078125-.484375.15625-.96875.238281-1.457031-.703125-.007812-1.402344-.023438-2.101562-.03125.042968-.207031.058594-.3125.101562-.519531.800782.007812 1.605469.019531 2.40625.03125.050782-.296875.101563-.589844.15625-.890625l.78125-.785156h-.8125v.003906c-1.414062-.003906-2.828125-.003906-4.242187-.007813zm-8.894531 1.582031h.039062l.167969 1.703126c-.304688-.003907-.609375-.007813-.910157-.015626zm0 0" fill="#003875"/><path d="m28.828125 2.746094c-8.957031.117187-16.140625 2.964844-20.9375 7.847656l.101563 1.230469c5.289062-6.042969 13.914062-9.355469 24.875-8.84375-.03125-.039063-.066407-.078125-.097657-.117188-1.347656-.097656-2.664062-.136719-3.941406-.117187zm-22.261719 7.292968c-1.511718 1.96875-4.460937 5.300782-5.40625 9.894532-.6875 3.339844-.058594 6.214844 1.660156 9.824218l-1.25-.25c2.929688 5.613282 8.136719 10.449219 15.800782 13.40625 1.625.625 2.855468 1.007813 3.914062 1.273438-.835937-.246094-1.792968-.570312-2.945312-1.011719-7.707032-2.972656-12.925782-7.816406-15.84375-13.445312l1.257812.25c-1.714844-3.617188-2.332031-6.496094-1.617187-9.839844.804687-3.773437 2.949219-6.691406 4.554687-8.714844zm54.664063 8.109376c.847656.308593 1.941406 1.039062 3.359375 3.152343l.410156.636719c.570312.886719 1.046875 1.457031 1.890625 1.660156-.65625-.15625-.90625-1.054687-1.457031-1.917968l-.417969-.640626c-1.5-2.226562-3.226563-2.855468-3.785156-2.890624zm-2.363281.691406c-1.195313-.058594-2.234376.480468-2.847657 1.222656-.488281.597656-.550781 1.515625-.246093 2.144531-.105469-.671875.207031-1.28125.589843-1.746093.492188-.597657 1.511719-.988282 2.519531-1.015626 1.15625-.035156 2.523438.339844 3.265626 1.308594-.539063-1.109375-1.5625-1.828125-3.28125-1.914062zm-4.136719 5.179687c-2.351563-.046875-4.449219 1.285157-5.054688 2.808594-.226562.898437-.105469 2.050781.339844 3.089844l-.015625-.375c.011719.105469.769531 2.953125 4.984375 4.058593 3.992187 1.050782 7.289063.078126 9.40625-.882812-.230469-.351562-.480469-.683594-.742187-.996094l-.3125.148438c-.964844.46875-3.746094 1.800781-7.632813.519531-1.429687-.46875-2.128906-1.136719-2.460937-1.761719-.480469-.5-.777344-1.09375-.800782-1.761718-.042968.007812-.085937.015624-.128906.027343-.011719.011719-.023438.023438-.035156.035157-.011719-.1875.050781-.609376.050781-.609376.511719-1.644531 2.410156-2.417968 4.910156-1.800781 1.953125.480469 6.046875 2.332031 8.433594 6.125.449219.710938.832031 1.539063 1.121094 2.332031.507812 1.359376.640625 3.253907.039062 4.433594-.816406 1.585938-2.839843 2.507813-3.074219 2.46875.746094.121094 2.003907.019532 3.023438-.175781 1.984375-.386719 3.875-1.53125 4.722656-3.410156.160156-.351563.289063-.707031.394532-1.0625.65625-4.152344-2.441407-9.90625-2.816407-9.738281-.574219.261718-1.09375.28125-1.492187.222656-1.035156.121094-1.925782-.234375-1.980469-.242188.007813 0 .457031.011719 1.054687-.101562-.734374-.03125-1.457031-.289063-2.128906-.703125-.339844.007812-.621094.023437-.925781-.023438.996094.839844 1.722656 1.582031 2.210937 2.25 1.269532 1.511719 2.242188 3.015625 2.242188 3.015625s-1.34375-1.507812-2.046875-2.214844c-1.246094-1.253906-3.007813-2.492187-4.699219-3.515624-3.207031-1.648438-4.265625-2.113282-6.585937-2.160157zm-51.371094 11.703125c.074219.617188 1.464844 2.257813 3.871094 3.902344 3.089843 2.121094 4.683593 2.421875 5.285156 2.472656-2.222656-1.042968-3.707031-1.894531-5.21875-2.945312-2.136719-1.480469-3.511719-2.855469-3.9375-3.429688zm30.277344 8.304688-2.265625 1.3125s-.019532.113281-.128906.476562c-.109376.359375-.175782.554688-.175782.554688l.519532-.195313s-.089844.386719-.300782.949219c-.214844.5625-.511718 1.285156-.511718 1.285156l.609374-.257812s.003907.027344-.238281.691406c-.203125.558594-.453125 1.144531-.453125 1.144531s.5-.476562.894532-.875c.398437-.398437.726562-.746093.726562-.746093l-.449219.144531s.234375-.332031.527344-.757813c.289063-.425781.578125-.890625.578125-.890625l-.527344.144531s.246094-.503906.558594-1.269531c.308594-.761719.636719-1.710937.636719-1.710937zm0 0" fill="#efab00"/></svg>