<svg height="62pt" viewBox="0 0 75 62" width="75pt" xmlns="http://www.w3.org/2000/svg"><path d="m.398438.367188v10.929687h4.054687v20.480469l6.753906 6.828125h9.457031v12.296875h-4.058593v10.921875h24.320312v-10.921875h-4.054687v-2.738282h7.433594l4.726562 4.785157v8.875h25.664062l.003907-10.925781h-6.082031l-9.792969-9.902344 9.117187-9.21875h6.757813l-.003907-10.921875h-21.613281v-9.558594h4.054688v-10.929687h-24.316407v10.929687h4.050782v9.558594h-16.210938v-9.558594h4.054688v-10.929687zm0 0" fill="#0033a0"/><path d="m56.800781 40.996094 10.46875-10.582032h6.078125v-8.195312h-21.613281v-12.292969h4.054687v-8.191406h-21.617187v8.191406h4.054687v12.292969h-18.914062v-12.292969h4.050781v-8.191406h-21.613281v8.191406h4.054688v21.171875l6.082031 6.144532h10.128906v15.023437h-4.054687v8.195313h21.617187v-8.195313h-4.054687v-5.464844h9.457031l5.402343 5.464844v8.195313h22.964844v-8.195313h-5.402344zm0 0" fill="#fff"/><path d="m3.101562 3.101562v5.460938h4.050782v21.851562l5.40625 5.460938h9.453125v-5.460938h-4.050781v-21.851562h4.050781v-5.460938zm32.421876 0v5.460938h4.046874v21.851562h-4.046874v5.460938h9.457031l5.398437-5.460938v-21.851562h4.054688v-5.460938zm-16.210938 20.480469v5.464844h4.050781v24.585937h-4.050781v5.460938h18.910156v-5.460938h-4.050781v-8.195312h11.480469l8.105468 8.195312h-2.023437v5.460938h20.261719v-5.460938h-4.734375l-12.492188-12.636718 11.820313-11.949219h5.40625v-5.464844h-20.261719v5.464844h2.023437l-8.105468 8.195313h-11.480469v-8.195313h4.050781v-5.464844zm0 0" fill="#0033a0"/></svg>