<svg height="68pt" viewBox="0 0 75 68" width="75pt" xmlns="http://www.w3.org/2000/svg"><path d="m73.691406 17.917969c-1.101562-2.644531-2.992187-4.597657-4.390625-5.773438-2.058593-1.8125-5.15625-2.566406-6.746093-2.882812-.035157-.082031-.070313-.15625-.109376-.226563-.195312-.371094-.417968-.742187-.65625-1.105468-.46875-.699219-.996093-1.328126-1.570312-1.867188-2.566406-2.398438-6.015625-4.050781-10.25-4.914062-1.0625-.21875-2.195312-.394532-3.363281-.527344-.964844-.105469-2.109375-.226563-3.269531-.296875-.796876-.050781-1.605469-.078125-2.402344-.085938-8.503906-.09375-16.890625 2.023438-27.199219 6.867188-3.035156 1.425781-6.050781 2.90625-9.183594 4.105469-.621093.238281-1.242187.464843-1.871093.679687l-2.128907 9.675781 4.4375.449219c.832031.167969 1.214844.4375 1.316407.578125 0 .003906.003906.003906.003906.003906.109375.164063.070312.585938-.007813.933594l-.066406.320312-.363281 1.707032-1.046875 4.945312-.5 2.359375-.34375 1.613281-3.738281 17.617188h22.625c-.109376 2.007812.121093 3.890625.683593 5.601562.109375.359376.238281.707032.386719 1.070313 1.570312 3.707031 4.855469 6.503906 9.019531 7.667969 2.421875.679687 4.988281 1.050781 7.222657 1.050781 6.351562 0 10.863281-1.636719 14.199218-5.148437 2.535156-2.671876 4.273438-6.296876 5.308594-11.085938l5.011719-23.191406c.59375-.226563 1.113281-.476563 1.542969-.710938.445312-.242187 1.070312-.625 1.632812-1.058594.003906.003907.011719.007813.015625.011719.105469.078125.203125.152344.289063.226563.566406.476562.984374 1.121094 1.269531 1.691406.636719 1.078125 1.308593 2.667969 1.679687 4.90625 0 0 3.015625-4.550781 3.453125-9.078125 0-.007813.003907-.019531.003907-.027344.011718-.140625.023437-.277343.03125-.417969.121093-1.984374-.1875-3.898437-.925782-5.683593" fill="#fff"/><path d="m40.378906 1.824219c-9.128906.007812-17.476562 2.730469-25.96875 6.71875-3.464844 1.625-6.4375 3.011719-9.535156 4.203125h20.5l-1.386719 6.535156c.265625-.023438.53125-.042969.792969-.0625 2.023438-.144531 4.035156-.148438 5.640625.136719 1.523437.265625 2.6875.871093 3.503906 1.621093 1.386719 1.515626 1.292969 6.390626-4.269531 4.226563-.675781-.265625-1.367188-.503906-2.054688-.71875-1.542968-.480469-3.085937-.84375-4.480468-1.121094l-.71875 3.390625h25.886718c1.113282-.726562 2.027344-1.410156 2.726563-1.984375 1.59375.808594 2.539063 1.164063 3.832031 1.609375.433594.148438.863282.269532 1.300782.375.710937.171875 1.425781.296875 2.164062.402344 2.03125.359375 3.839844.089844 5.316406-.402344 2.433594-.8125 3.953125-2.234375 4.054688-2.46875.601562.339844 1.117187.683594 1.515625 1.019532 1.6875 1.414062 2.304687 3.808593 2.304687 3.808593 1.886719-3.984375 1.984375-7.546875.722656-10.585937-1.039062-2.496094-2.863281-4.257813-3.960937-5.179688-2.210937-1.960937-6.152344-2.546875-6.828125-2.679687-.070312-.078125-.191406-.402344-.257812-.558594-.050782-.136719-.09375-.257813-.132813-.328125-.175781-.332031-.371094-.65625-.578125-.96875-.398438-.605469-.847656-1.136719-1.332031-1.589844-2.347657-2.195312-5.539063-3.714844-9.480469-4.519531-1.019531-.207031-2.105469-.375-3.226562-.503906-.941407-.101563-2.054688-.21875-3.1875-.289063-.964844-.058594-1.917969-.085937-2.863282-.085937zm-36.414062 12.722656-.476563 2.125-.640625 2.863281-.097656.441406 2.5.25c.851562.164063 1.988281.527344 2.550781 1.363282.0625.097656.1875.28125.273438.589844.082031.28125.128906.664062.074219 1.179687-.015626.167969-.042969.347656-.085938.542969l-.304688 1.429687-1.132812 5.347657-.535156 2.515624-.339844 1.609376-3.285156 15.480468h22.386718l-.082031.730469c-.015625.121094-.03125.242187-.042969.371094-.214843 2.097656-.03125 4.035156.539063 5.757812.09375.316407.203125.617188.328125.914063 1.355469 3.203125 4.214844 5.617187 7.847656 6.632812 2.273438.640625 4.667969.988282 6.738282.988282 5.828124 0 9.925781-1.460938 12.898437-4.589844 2.296875-2.421875 3.886719-5.769532 4.855469-10.222656l4.800781-22.226563.019531-.082031h-18.890625l-.179687.804687-.441406 1.960938-.59375 2.667969 1.710937.144531c.539063.042969 2.355469.265625 3.207031 1.296875.175782.210937.699219.851562.417969 2.339844l-2.332031 10.945312c-.574219 2.535156-1.109375 3.488281-1.792969 4.207031-.613281.644531-1.539063 1-2.609375 1-3.050781 0-3.492188-1.726562-3.5625-3.027343-.03125-.597657.042969-1.378907.214844-2.25l3.574218-16.566407.410157-1.894531.347656-1.628906h-19.375l-1.214844 5.4375 1.714844.140625c.132813.007812.339844.027343.59375.074219.773437.125 1.953125.4375 2.597656 1.207031.046875.054687.089844.113281.128907.171875.359374.527344.46875 1.203125.324218 2.058594l-.242187 1.203124h-8.765625l.621094-2.917968.335937-1.585938.847656-3.996094.75-3.535156.804688-3.792968.75-3.546876 1.046875-4.929687zm38.550781 21.242187-2.855469 13.238282c-.183594.941406-.1875 1.515625-.175781 1.773437.039063.769531.070313 1.320313 1.769531 1.320313.5625 0 1.035156-.160156 1.300782-.4375.371093-.390625.808593-1.003906 1.34375-3.363282l2.324218-10.902343c.03125-.171875.101563-.660157-.035156-.832031-.246094-.296876-1.113281-.585938-1.972656-.652344zm-19.996094.085938c-.6875.027344-1.375.046875-2.0625.058594l-.234375 1.117187h5.042969c.011719-.183593-.003906-.371093-.085937-.464843-.253907-.300782-1.097657-.582032-1.964844-.652344zm10.886719 12.941406c-.023438.203125-.042969.421875-.058594.660156.015625-.238281.035156-.457031.058594-.660156zm0 0" fill="#0a254e"/><path d="m48.96875 5.152344c3.722656 1.550781 4.777344 3.316406 4.621094 4.929687.347656.160157.714844.308594 1.125.441407.199218.046874.390625.074218.558594.078124 1.070312.03125 1.277343-.714843 1.316406-1.039062.21875-1.816406-2.78125-2.949219-2.894532-2.992188-.289062-.105468-.601562-.214843-.941406-.339843-1.382812-.503907-2.664062-.847657-3.785156-1.078125zm-9.324219 2.601562c-2.023437.046875-3.574219.664063-3.585937.667969 2.949218-.585937 5.328125-.113281 6.863281.847656 1.332031.835938 2.03125 2.042969 1.917969 3.242188-.238282 2.570312-4.011719 2.855469-4.066406 2.859375.988281.132812 1.855468.140625 2.601562.050781 2.3125-.28125 3.453125-1.507813 3.402344-2.941406 0-.097657-.011719-.195313-.023438-.292969-.003906-.039062-.015625-.082031-.023437-.125-.003907-.027344-.003907-.050781-.011719-.078125-.117188-.546875-.398438-1.113281-.84375-1.65625-.308594-.378906-.699219-.746094-1.167969-1.09375-1.636719-1.207031-3.488281-1.515625-5.0625-1.480469zm1.128907 7.617188c-.003907 0-.003907 0-.007813 0zm18.863281-2.660156c-.539063-.003907-1.09375.019531-1.714844.042968-.144531.007813-.296875.015625-.449219.019532.753906-.023438 8.300782.042968 10.546875 5.570312 1.28125 3.136719-2.074219 1.488281-6.816406.894531.097656.011719.199219.03125.296875.046875.011719 0 .023438.003906.035156.007813.042969.007812.082032.011719.125.019531 1.171875.210938 2.023438.457031 2.726563.730469 1.136719.378906 2.09375.8125 2.898437 1.246093.605469.328126 1.117188.65625 1.550782.972657 1.460937 1.054687 2.023437 1.933593 2.023437 1.933593s.074219-2.078124-.613281-4.25c-.117188-.515624-.363282-1.09375-.730469-1.726562-.109375-.203125-.226563-.398438-.359375-.585938-.097656-.152343-.203125-.300781-.3125-.457031-2.398438-3.375-5.070312-3.742187-6.425781-4.101562-1.03125-.273438-1.882813-.359375-2.78125-.363281zm-32.601563 6.414062c-.734375.003906-1.492187.039062-2.25.09375.035156.003906 6.492188-.074219 5.871094 3.390625-.25 1.375-1.457031 1.960937-3.054688 1.875.691407.214844 1.378907.453125 2.054688.714844 5.5625 2.167969 5.660156-2.707031 4.269531-4.222657-.816406-.75-1.980469-1.355468-3.5-1.621093-1.007812-.179688-2.167969-.242188-3.390625-.230469zm36.496094 3.402344c.027344.304687-.082031.640625-.238281.894531-.636719 1.027344-1.996094 1.34375-3.097657 1.425781-.402343.03125-.839843.015625-1.3125-.0625.398438.085938.875.171875 1.40625.242188 1.074219.140625 1.953126.03125 3.179688-.144532.765625-.109374 1.644531-.421874 2.304688-.761718.257812-.128906.496093-.277344.722656-.449219-.167969-.078125-.332032-.152344-.488282-.21875-.25-.109375-.480468-.203125-.679687-.28125v-.007813c-.570313-.226562-1.171875-.441406-1.796875-.636718zm0 0" fill="#c6c7c9"/><path d="m6.035156 17.140625-.128906.574219c.335938.070312.6875.160156 1.046875.285156.613281.207031 1.238281.5 1.808594.917969.445312.328125.851562.726562 1.183593 1.222656.300782.449219.519532.9375.652344 1.464844.105469.40625.160156.839843.164063 1.289062 0 .492188-.054688 1.007813-.171875 1.550781l-.144532.683594-1.21875 5.734375-.578124 2.734375-.335938 1.589844-2.421875 11.414062-.230469 1.089844h27.902344l3-13.902344.382812-1.773437.1875-.863281h-12.203124l-.128907.574218c.898438.183594 1.945313.539063 2.839844 1.195313.320313.234375.617187.503906.886719.824219.011718.011718.023437.027344.035156.042968.371094.445313.644531.949219.828125 1.5.277344.847657.335937 1.800782.15625 2.828126l-.003906.03125-.660157 3.296874h-15.976562l.230469-1.089843.976562-4.601563.332031-1.574218.699219-3.285157.019531-.097656 1.148438-5.410156.019531-.101563.578125-2.726562.5-2.351563.652344-3.066406zm39.898438 14.011719-.128906.574218c.902343.1875 1.957031.542969 2.855468 1.207032.324219.238281.632813.519531.902344.851562.972656 1.171875 1.300781 2.730469.957031 4.503906l-2.339843 10.996094c-.621094 2.730469-1.28125 4.199219-2.445313 5.425782-1.105469 1.167968-2.695313 1.808593-4.480469 1.808593-.351562 0-.683594-.027343-1.011718-.066406-.285157.039063-.582032.066406-.890626.066406-2.292968 0-4.050781-.804687-5.089843-2.246093-.285157-.398438-.511719-.84375-.6875-1.328126.003906.003907.003906.011719.007812.019532 0 0-.246093-.050782-.691406-.066406l-1.261719-.050782c-.046875 0-.128906 0-.230468-.003906-.074219 0-.160157-.003906-.265626-.003906-.175781 0-.367187.015625-.5625.039062-1.027343.132813-2.234374.589844-2.695312 1.199219-.644531.847656-.210938 2.222656.101562 2.964844.320313.757812.75 1.453125 1.277344 2.085937 1.199219 1.433594 2.890625 2.511719 4.882813 3.066406 1.757812.492188 3.582031.792969 5.230469.871094 4.492187-.164062 7.667968-1.371094 9.9375-3.761718 1.964843-2.074219 3.339843-5.011719 4.203124-8.988282l4.140626-19.164062zm0 0" fill="#900"/><path d="m39.011719 4.304688c-.847657.003906-2.863281.066406-5.457031.457031-.355469.054687-.726563.113281-1.105469.179687-.175781.03125-.351563.0625-.53125.097656-.539063.105469-1.09375.21875-1.660157.351563-.949218.222656-1.929687.488281-2.925781.808594-1.199219.386719-2.421875.847656-3.632812 1.402343-.269531.121094-.535157.25-.804688.382813-.667969.332031-1.332031.691406-1.984375 1.085937l.003906.003907c.46875-.132813 7.476563-2.136719 13.363282-2.265625-1.898438.625-4.277344 1.878906-6.449219 4.574218 10.878906-3.902343 13.945313.453126 14.683594 1.867188 0 0-5.074219-3.632812-9.476563-1.082031-.199218.117187-.828125.597656-.972656.84375-1.433594 2.242187.398438 4.777343 3.042969 5.476562s9.484375-.332031 9.484375-.332031c1.359375-.171875 2.695312-.488281 3.921875-.894531.78125-.257813 1.519531-.554688 2.191406-.875.34375-.167969.675781-.34375.984375-.523438.078125-.046875.15625-.09375.230469-.140625.089843-.054687.175781-.109375.265625-.167968.375-.242188.710937-.496094 1.003906-.753907.125-.109375.246094-.226562.355469-.339843.164062-.171876.308593-.34375.425781-.515626-.179688.019532-.378906.039063-.597656.050782l-.089844.007812c-.09375.007813-.191406.015625-.296875.011719-.300781-.007813-.597656-.035156-.894531-.078125-.210938-.027344-.421875-.066406-.628906-.113281-.675782.488281-1.292969.941406-1.960938 1.332031-.011719.007812-.027344.015625-.039062.023438-.710938.40625-1.488282.738281-2.488282.953124-8.46875 1.835938-11.996094-3.128906-11.996094-3.128906 1.871094 1.488282 3.96875 2.222656 5.792969 2.367188.046875 0 3.832031-.285156 4.070313-2.859375.113281-1.199219-.585938-2.40625-1.917969-3.242188-1.535156-.960937-3.914063-1.433593-6.863281-.847656-.671875.160156-1.191406.332031-1.460938.429687-.066406.019532-.117187.039063-.15625.054688-.039062.015625-.0625.023438-.0625.023438 1.425782-1.15625 3.726563-2.429688 7.121094-2.433594.078125 0 .15625.003906.234375.007812.234375-.007812.460937-.007812.683594.003906 5.601562.316407 7.675781 1.558594 9.503906 2.652344.542969.328125 1.070313.640625 1.667969.921875.15625-1.613281-.902344-3.378906-4.621094-4.929687-2.65625-.550782-4.40625-.613282-4.429688-.613282h-.023437c-1.726563-.175781-3.417969-.253906-5.070313-.234374 0 0-.152343-.003907-.433593 0zm11.722656 5.308593c-.039063 0-.089844.03125-.144531.066407-.039063.027343-.085938.0625-.125.105468-.011719.007813-.019532.015625-.027344.023438-.007812.011718-.015625.023437-.027344.035156-.007812.007812-.011718.019531-.019531.027344-.082031.101562-.144531.226562-.183594.359375-.003906.011719-.007812.023437-.011719.035156-.003906.015625-.007812.027344-.011718.042969-.003906.007812-.003906.011718-.003906.015625-.011719.050781-.019532.101562-.027344.15625v.011719c-.007813.050781-.011719.101562-.011719.152343v.003907c-.003906.273437.0625.53125.179687.757812l.011719.03125c.15625.304688.417969.613281.828125.898438.050782.03125.089844.0625.136719.089843.195313.125.375.203125.542969.25.417968.121094.75.019531.992187-.183593-1.015625-.046876-1.8125-1.34375-1.078125-2.242188-.351562-.183594-.707031-.398438-.988281-.628906-.007813-.007813-.019531-.007813-.03125-.007813zm6.738281 3.160157c-.042968.003906-.066406.003906-.066406.003906-.453125.601562-2.136719 2.425781-4.695312 3.992187-1.164063.710938-2.503907 1.367188-3.992188 1.832031-1.035156.324219-2.148438.558594-3.316406.648438-.28125.050781-.550782.09375-.8125.136719-.699219.117187-1.335938.226562-1.886719.367187-1.523437.390625-2.386719 1.042969-2.042969 2.902344.351563 1.933594 1.757813 2.230469 3.363282 1.890625 1.007812-.210937 2.097656-.671875 3.0625-1.144531.15625-.066406.328124-.152344.5-.242188.621093-.335937 1.285156-.792968 1.765624-1.085937 2.75-1.691407 6.972657-3.515625 11.726563-2.851563.03125.003906.113281.015625.125.015625 4.738281.59375 8.097656 2.242188 6.816406-.894531-2.246093-5.527344-9.792969-5.59375-10.546875-5.570312zm3.683594 1.03125c1.574219-.027344.507812.675781.507812.675781s-2.164062 1.5-2.210937.824219c-.046875-.679688.128906-1.472657 1.703125-1.5zm-43.097656 3.335937-.648438 3.066406-.5 2.351563-.578125 2.726562-.019531.101563-1.148438 5.410156-.019531.097656-.699219 3.285157-.332031 1.574218-.976562 4.601563-.230469 1.089843h1.898438l.230468-1.089843.953125-4.496094.335938-1.578125.746093-3.515625.136719-.636719.746094-3.527344.203125-.960937.632812-2.96875.59375-2.808594.578126-2.722656zm40.015625 4.539063c-.964844 0-1.921875.074218-2.867188.21875-.335937.046874-.671875.109374-1 .179687-.457031.128906-1.027343.351563-1.632812.726563.585937.152343 1.34375.417968 2.234375.726562.472656.167969.972656.339844 1.484375.511719.507812.171875 1.03125.335937 1.558593.492187.1875.054688.550782.148438 1.03125.25.472657.078125.910157.09375 1.3125.0625 1.101563-.082031 2.460938-.398437 3.097657-1.425781.15625-.253906.265625-.589844.238281-.894531-.210938-.0625-.421875-.125-.632812-.1875-1.601563-.453125-3.21875-.660156-4.824219-.660156zm-20.941407 9.472656-.1875.863281-.382812 1.773437-3 13.902344s-.0625.335938-.128906.867188c-.011719.074218-.015625.15625-.027344.234375.011719-.082031.015625-.15625.027344-.234375.054687-.46875.117187-.796875.128906-.867188l-.089844.417969c-.21875 1.109375-.3125 2.085937-.265625 2.910156.035157.683594.160157 1.308594.355469 1.875.003906.015625.007812.03125.011719.050781.171875.484376.402343.929688.6875 1.328126 1.039062 1.441406 2.792969 2.246093 5.089843 2.246093.300782 0 .601563-.027343.890626-.066406-1.800782-.203125-3.203126-.957031-4.082032-2.179687-.621094-.859376-.984375-1.953126-1.050781-3.238282-.046875-.824218.042969-1.804687.261719-2.910156l3.230468-14.972656.390626-1.820313.039062-.179687zm20.519532.027344-4.136719 19.09375c-.867187 3.960937-2.238281 6.886718-4.203125 8.953124-2.273438 2.382813-5.449219 3.585938-9.941406 3.75.277344.011719.550781.015626.816406.015626 5.070312 0 8.574219-1.195313 11.023438-3.765626 1.964843-2.066406 3.339843-4.992187 4.203124-8.953124l4.136719-19.09375zm-24.308594 18.320312c-.023438.351562-.035156.734375-.027344 1.136719-.007812-.402344.007813-.785157.027344-1.136719zm0 0" fill="#fff"/></svg>