<svg height="36pt" viewBox="0 0 70 36" width="70pt" xmlns="http://www.w3.org/2000/svg"><path d="m63.515625 29.984375v-.808594c0-1.359375-.40625-2.304687-.40625-2.304687v-1.53125c0-1.898438.730469-2.804688 2.121094-4l3.496093-2.792969h-7.476562v-6.085937c2.386719-.582032 4.898438-3.347657 4.898438-6.066407 0-3.074219-2.128907-4.523437-2.582032-4.65625 0 0-.78125-1.1875-2.355468-1.1875-2.054688 0-2.410157 1.882813-2.46875 2.339844-.480469-.210937-1.019532-.332031-1.605469-.351563h-56.035157c2.945313 1.792969 6.703126 3.875 6.703126 5.636719v.59375c-.308594 1.140625-4.378907 2.042969-4.378907 2.042969 2.636719 1.21875 4.378907 1.820312 4.378907 2.972656v.765625c0 1.886719-3.367188 3.773438-5.867188 5.488281-1.042969.835938-1.464844 2.085938-1.449219 3.449219v6.980469c0 2.542969 1.816407 5.175781 4.859375 5.175781h64.023438c-3.542969-2.398437-5.855469-3.988281-5.855469-5.660156" fill="#d11c2e"/><path d="m61.25 1.515625c-1.800781 0-1.488281 1.9375-1.488281 1.9375-.414063.351563-.460938 1.164063-.460938 1.164063-.453125-.539063-1.144531-.917969-2.203125-.957032h-2.957031v1.371094c-.785156-.917969-1.859375-1.40625-3.121094-1.40625h-46.507812c2.546875 1.691406 4.25 2.65625 4.25 4.222656v.875c0 1.386719-1.644531 1.742188-3.226563 2.183594 1.761719.703125 3.230469 1.148438 3.230469 2.660156v.867188c0 2.019531-1.527344 2.875-3.242187 4.121094h9.230468v-1.367188c.425782.84375 1.222656 1.367188 2.1875 1.367188h8.191406s.226563-1.382813.238282-1.464844h.351562c.011719.082031.242188 1.464844.242188 1.464844h6.183594l-.179688-.875c.589844.550781 1.359375.875 2.230469.875h20.011719v-1.03125c.007812.011718.488281 1.03125.488281 1.03125h5.472656v-7.019532s.125.03125.222656.03125c2.210938 0 4.707031-2.660156 4.707031-5.394531s-2.085937-3.609375-2.085937-3.609375-.675781-1.046875-1.765625-1.046875zm-55.910156 18.113281c-1.066406 0-2.035156.386719-2.722656 1.089844-.691407.707031-1.066407 1.683594-1.054688 2.757812v6.992188c0 2.011719 1.414062 4.09375 3.78125 4.09375h11.675781s.230469-1.378906.246094-1.464844h.351563c.015624.082032.246093 1.464844.246093 1.464844h9.113281c1.507813 0 2.867188-.949219 3.4375-2.222656.628907 1.367187 1.917969 2.222656 3.542969 2.222656h3.1875c1.097657 0 2.148438-.433594 2.886719-1.183594.128906-.132812.242188-.273437.347656-.417968v1.601562h6.027344v-.949219c.003906.011719.472656.949219.472656.949219h19.515625c-3.328125-2.152344-3.839843-2.828125-3.839843-4.636719v-.769531c-.007813-1.21875-.367188-2.285156-.957032-3.132812h.550782v-2.085938s-.042969-.765625.558593-1.46875c.601563-.703125 1.683594-1.84375 2.988281-2.839844h-16.167968c-.871094 0-1.636719.308594-2.203125.890625-.242188.242188-.429688.542969-.582031.867188-.140626-.28125-.878907-1.757813-.878907-1.757813h-7.238281c-.960938 0-2.035156.308594-2.746094 1.417969v-1.417969zm0 0" fill="#0a0203"/><path d="m7.125 4.488281s2.5 1.304688 2.5 3.445313v1.070312c0 1.566406-1.835938 2.007813-1.835938 2.007813s1.835938.765625 1.835938 2.078125v1.539062c0 1.542969-.554688 2.066406-.558594 2.074219l-1.066406.984375h5.894531v-4.273438h.703125c.074219.019532.339844.121094.390625.691407.003907.042969.316407 1.976562.316407 1.976562.125.96875.769531 1.605469 1.640624 1.605469h2.730469l-.65625-4.460938c-.03125-.738281-.386719-1.339843-.972656-1.765624.484375-.382813.941406-.972657.972656-1.898438 0 0-.007812-2.4375-.007812-2.507812 0-.574219-.242188-1.171876-.675781-1.628907-.570313-.609375-1.425782-.9375-2.402344-.9375zm12.414062 0 1.695313 1.039063c.976563.597656.679687 2.0625.675781 2.074218.003906-.003906-.425781 1.898438-.425781 1.898438-.277344 1.058594-.988281 1.457031-1.015625 1.472656l-.8125.4375.765625.527344c.058594.039062.566406.410156.4375 1.152344l-.839844 4.597656h4.386719s.171875-1.027344.242188-1.460938h1.800781c.070312.433594.242187 1.460938.242187 1.460938h4.40625l-2.011718-9.9375c-.433594-2.164062-1.703126-3.261719-3.769532-3.261719zm9.207032 0 1.875 1.050781c.707031.398438 1.023437 1.226563 1.023437 2.695313v1.304687c.007813.746094-.566406.972657-.628906.996094l-1.136719.402344 1.035156.613281c.007813.003907.738282.453125.730469 1.035157v2.175781c0 1.453125.875 2.925781 2.554688 2.925781h4.191406c1.714844-.011719 2.851563-1.429688 2.835937-3.519531v-4.5h-4.886718v3.398437h.796875v.75c0 .121094-.023438.179688-.035157.191406-.011718.007813-.0625.027344-.179687.027344h-.84375c-.078125 0-.105469-.011718-.113281-.015625-.007813-.007812-.042969-.070312-.046875-.214843v-5.679688h1.179687c.046875 0 .078125.003906.105469.007812.003906.042969.007813.085938.007813.148438l-.007813.816406 3.875-.003906v-1.574219c0-2.019531-1.140625-3.007812-3.488281-3.03125zm11.378906 0 1.878906 1.050781c.8125.457032 1 1.515626.988282 2.011719l-.003907 1.988281c-.011719.632813-.53125.992188-.554687 1.007813l-.675782.453125.664063.476562c.023437.015626.566406.410157.566406 1.167969v1.984375c0 1.519532-.957031 2.148438-.957031 2.148438l-1.347656.910156h12.675781v-4.015625c.8125 1.738281 1.886719 4.015625 1.886719 4.015625h4.070312v-9.472656c.003906-1.4375.011719-3.609375-2.246094-3.6875h-2.066406v3.910156c-.472656-.984375-.945312-1.976562-.945312-1.976562-.632813-1.292969-1.679688-1.972657-3.035156-1.972657h-4.75l1.816406 1.046875c.679687.394532.996094 1.039063.992187 2.027344v1.960938c-.003906.699218-.550781 1.105468-.570312 1.121093l-.621094.449219.613281.460938c.003906.007812.582032.445312.578125 1.125v1.953124c-.003906.449219-.121093 1.320313-.902343 2.097657l-.953126.941406v-10.609375c0-1.265625 0-2.574219-2.535156-2.574219zm-26.265625 3.730469h.917969s.035156.003906.070312.007812c.003906.050782.007813.109376.007813.109376v1.296874h-.996094zm11.6875 2.539062c.148437.898438.242187 1.46875.304687 1.835938h-.605468c.058594-.367188.152344-.9375.300781-1.835938zm-20.203125 9.738282c-.851562 0-1.578125.285156-2.113281.832031-.53125.539063-.816407 1.300781-.808594 2.136719v7.003906c0 1.585938 1.09375 3.226562 2.925781 3.226562h10.949219s.171875-1.027343.246094-1.460937h1.804687c.070313.433594.242188 1.460937.242188 1.460937h4.398437l-.324219-1.589843c.382813.84375 1.046876 1.589843 2.105469 1.589843h2.207031c1.640626 0 2.867188-1.394531 2.867188-2.644531 0-.003906.003906-2.363281.003906-2.363281 0-.488281.578125-1.027344.78125-1.175781l.226563-.167969v3.089844c.03125 1.578125 1.015625 3.261718 3.105469 3.261718h3.1875c.867187 0 1.695312-.339843 2.273437-.925781.511719-.523437.792969-1.195312.792969-1.902343 0-.007813.003906-2.179688.003906-2.179688 0-.488281.582031-1.027344.785156-1.175781l.234375-.175781v6.359374h4.3125v-3.714843c.804688 1.609375 1.859375 3.714843 1.859375 3.714843h5.285156l-.742187-.914062c-.417969-.515625-.480469-1.335938-.480469-2.144531v-1.742188c-.003906-.738281.632813-1.378906.640625-1.382812l.40625-.40625-.414062-.402344c-.003907-.003906-.632813-.621094-.632813-1.378906l-.003906-1.871094c-.007812-.867187.035156-1.5625.609375-1.921875l1.644531-1.035156h-4.191406c-.636719 0-1.191406.21875-1.597656.628906-.480469.496094-.738282 1.234375-.738282 2.140625v.953125c-.804687-1.613281-1.859374-3.722656-1.859374-3.722656h-1.835938c-2.285156.078125-2.269531 2.363281-2.261719 3.730468v2.542969l-.25-.171875c-.199219-.140625-.765625-.628906-.765625-1.066406l-.003906-1.699219c0-.078125-.003906-.167969-.007812-.253906h.003906l.003906-.039063h-.003906v-.007812c0-.429688.121094-1.617188.6875-2.015625l1.445312-1.019531h-3.71875c-2.589844 0-2.648437 2.710937-2.667968 3.734375v5.609375c-.003907.097656-.011719.15625-.019532.199218h-.90625c-.003906-.039062-.011718-.089843-.015625-.175781v-9.367187h-1.914062c-.558594 0-1.058594.207031-1.445313.597656-.53125.539062-.808594 1.394531-.804687 2.46875v3.199219l-.242188-.167969c-.195312-.136719-.765625-.625-.765625-1.0625v-1.703125c0-.074219-.003906-.164063-.011718-.25h.007812v-.035156h-.003906v-.023438c0-.4375.117187-1.601562.671875-2.015625l1.339843-1.007812h-3.59375c-2.589843 0-2.648437 2.710937-2.671874 3.730468v4.800782c-.007813.949218-.023438.949218-.394532.949218h-2.960937l-.238281-1.164062c-.132813-.773438.65625-1.351562.664062-1.359375l.949219-.6875-1.132813-.308594c-.039062-.011719-.84375-.242187-1.101562-1.230469-.011719-.070312-.285156-1.597656-.285156-1.597656-.007813-.058594-.242188-1.523437 1.003906-2.058594l2.503906-1.074218h-6.914062c-2.113282 0-3.273438 1-3.769532 3.25 0 .003906-1.179687 5.804687-1.738281 8.542968-.414063-.503906-.414063-.878906-.410156-1.359374l.003906-2.792969h-4.144531v1.902343h-.550782c-.265624 0-.332031-.046874-.332031-.050781-.007812-.007812-.070312-.097656-.058593-.574219v-4.625c0-.519531.066406-.644531.082031-.664062.007812-.003906.0625-.027344.25-.027344h.609375v1.414063h3.996094v-2.085938c-.011719-.539062.1875-1.023437 1.226562-1.953125l1.097656-.976562zm50.648438 0c-1.183594-.019532-2.105469.289062-2.734376.914062-.570312.566406-.871093 1.378906-.867187 2.347656v1.015626c0 1.078124.371094 2.027343 1.074219 2.738281.742187.746093 1.78125 1.15625 2.929687 1.152343h.789063c.148437-.003906.214844.027344.234375.042969.015625.019531.042969.082031.042969.21875v.589844c0 .34375-.039063.433594-.050782.453125-.007812.003906-.0625.035156-.253906.035156h-.417969v-1.175781h-4.109375v2.269531c-.007812.746094.234375 1.414063.683594 1.867188.476562.484375 1.15625.730468 2.019531.730468h8.457031l-1.183593-.988281c-.273438-.230469-.910157-.878906-.910157-1.992187v-1.558594c-.011718-1.710938-.910156-3.417969-2.589843-3.996094h2.183593v-1.253906c0-1.496094 1.023438-2.371094 2.097657-3.410156zm0 0" fill="#ce181e"/><path d="m61.3125 2.496094c-.292969.011718-.480469.109375-.585938.296875-.195312.519531.246094.792969.300782.917969-.257813.128906-.5625.34375-.695313.746093-.078125.238281-.070312.484375.007813.753907-.058594.414062-.019532.914062.203125 1.585937h.003906c0 .007813.003906.015625.007813.027344.109374.332031.371093 1.0625-.613282 2.382812-.660156.730469-.117187 1.976563 1.425782 1.109375 3.097656-1.609375 3.378906-4.789062 2.136718-6.1875-.097656-.164062-.363281-.675781-1.039062-.703125-.660156-.957031-.992188-.9375-1.152344-.929687zm-30.421875 2.550781c1.136719.636719 1.308594 2.011719 1.308594 3.183594v1.308593c.011719 1.195313-1.007813 1.527344-1.007813 1.527344s1.019532.585938 1.007813 1.527344v2.167969c0 1.191406.6875 2.367187 2 2.367187h4.191406c1.351563-.011718 2.292969-1.125 2.28125-2.957031v-3.941406h-3.777344v2.273437h.796875v1.3125c0 .480469-.226562.789063-.78125.777344h-.832031c-.53125.011719-.707031-.371094-.714844-.777344v-6.25h1.734375c.738282-.003906.671875.445313.667969.96875h2.757813v-1.015625c0-1.035156-.246094-2.445312-2.9375-2.472656zm-22.070313.003906c1.335938.835938 1.359376 2.550781 1.359376 2.550781v1.957032c-.027344 1.121094-1.011719 1.492187-1.011719 1.492187s1 .476563 1.011719 1.597657v1.980468c0 1.894532-.757813 2.5-.757813 2.5h3.921875v-4.273437h1.316406s.78125.082031.882813 1.203125l.3125 1.933594c.089843.710937.496093 1.136718 1.085937 1.136718h2.089844l-.566406-3.878906c-.039063-.914062-.648438-1.492188-1.570313-1.753906.738281-.335938 1.53125-.835938 1.570313-1.953125l-.007813-2.378907c.054688-1.027343-.84375-2.121093-2.523437-2.113281zm33.449219 0c1.109375.617188 1.292969 1.96875 1.273438 2.515625v1.972656c-.015625.964844-.804688 1.476563-.804688 1.476563s.804688.542969.804688 1.628906v1.988281c-.015625 1.269532-.589844 2.207032-1.160157 2.496094h4.289063v-10.066406c0-1.289062 0-2.011719-1.980469-2.011719zm6.097657 0c1.105468.636719 1.273437 1.738281 1.273437 2.515625v1.957032c-.007813 1.019531-.8125 1.582031-.8125 1.582031s.8125.582031.8125 1.574219v1.949218c-.007813.8125-.300781 1.734375-1.074219 2.5h4.234375v-5.949218l2.796875 5.949218h3.160156v-8.914062c.007813-1.59375-.023437-3.070313-1.707031-3.128906h-1.492187v5.796874l-2.003906-4.179687c-.632813-1.292969-1.597657-1.652344-2.53125-1.652344zm-26.84375 0c1.335937.816407.929687 2.671875.929687 2.671875l-.425781 1.902344c-.351563 1.355469-1.300782 1.84375-1.300782 1.84375s.882813.566406.679688 1.71875l-.71875 3.941406h3.246094l.242187-1.464844h2.746094l.242187 1.464844h3.253907l-1.875-9.269531c-.359375-1.777344-1.300781-2.808594-3.226563-2.808594zm4.023437 2.289063.960937 5.8125h-1.917968zm-12.242187.320312s.863281-.007812 1.480468 0c.617188.003906.617188.386719.628906.675782v1.324218s.003907.539063-.527343.53125c-.53125-.003906-1.582031 0-1.582031 0zm-7.960938 13.394532c-1.480469 0-2.382812 1.046874-2.363281 2.402343v7.011719c0 1.285156.851562 2.667969 2.367187 2.667969h6.871094c-1.148438-1.019531-1.003906-1.699219-1.011719-2.445313v-1.992187h-3.03125v1.902343h-1.105469c-.789062-.003906-.964843-.335937-.945312-1.203124v-4.582032c-.003906-1.050781.234375-1.273437.878906-1.28125h1.171875v1.414063h2.882813v-1.523438c-.011719-.796875.359375-1.425781 1.417968-2.371093zm12.335938 0c-1.957032 0-2.808594.921874-3.226563 2.8125l-1.882813 9.269531h3.257813l.246094-1.464844h2.746093l.238282 1.464844h3.25l-.859375-4.214844c-.203125-1.152344.882812-1.925781.882812-1.925781s-1.152343-.28125-1.5-1.636719l-.292969-1.628906s-.351562-1.953125 1.335938-2.675781zm10.578124 0c-1.621093 0-2.078124 1.285156-2.117187 3.183593v4.789063c-.007813.914062-.007813 1.511718-.949219 1.511718h-2.390625s.300781 2.597657 1.96875 2.597657h2.207031c1.28125 0 2.308594-1.082031 2.308594-2.085938l.003906-2.363281c.003907-.890625 1.011719-1.628906 1.011719-1.628906s-1.011719-.6875-1.011719-1.527344c0 0 .003907-2.40625-.003906-1.960938 0 0-.042968-1.8125.894532-2.515624zm4.847657 0c-.945313 0-1.699219.808593-1.691407 2.507812v6.871094c.023438 1.359375.828126 2.703125 2.546876 2.703125h3.1875c1.414062 0 2.523437-1.039063 2.511718-2.289063l.003906-2.160156c.003907-.890625 1.011719-1.628906 1.011719-1.628906s-1.007812-.6875-1.007812-1.527344c0 0 0-2.40625-.007813-1.960938 0 0-.035156-1.839843.921875-2.515624h-1.953125c-1.621094 0-2.074218 1.285156-2.113281 3.183593v5.601563c-.007813.679687-.246094.757812-.546875.761718h-.988281c-.339844-.003906-.5-.148437-.515625-.726562v-8.820312zm10.394531 0c-1.679688.058593-1.714844 1.660156-1.703125 3.167968v8.914063h3.195313v-5.511719l2.761718 5.511719h3.769532c-.558594-.683594-.605469-1.6875-.609376-2.5v-1.746094c-.003906-.992187.808594-1.78125.808594-1.78125s-.804687-.765625-.808594-1.78125v-1.757813c-.003906-.777343-.058593-1.929687.871094-2.515624h-2.253906c-1.234375 0-1.792969.980468-1.777344 2.261718v3.257813l-2.761718-5.519531zm12.492188 0c-2.183594-.035157-3.050782 1.144531-3.042969 2.699218v1.019532c-.007813 2.046874 1.542969 3.332031 3.449219 3.328124h.789062c.46875-.003906.839844.210938.828125.855469v.535157c.003906.710937-.121094 1.066406-.855469 1.070312h-.976562v-1.175781h-2.996094v1.710937c-.007812.878906.386719 2.039063 2.144531 2.039063h6.917969c-.609375-.511719-1.109375-1.359375-1.109375-2.421875v-1.558594c-.011719-1.929688-1.203125-3.664062-3.289063-3.664062h-.925781c-.574219-.003907-.84375-.433594-.839843-.808594v-.390625c.011718-.585938.191406-.757813.871093-.757813h1.058594v1.0625h2.71875v-1.277344c-.011719-.628906.355469-1.628906 1.414063-2.265624zm-38.546876 2.292968.960938 5.8125h-1.917969zm0 0" fill="#fff"/><path d="m61.097656 9.890625c-.8125.496094-1.066406.058594-.757812-.367187 1.164062-1.566407.792968-2.5.671875-2.859376-.214844-.660156-.238281-1.136718-.160157-1.484374-.34375-.925782.695313-1.125.695313-1.125.109375-.515626-.382813-.960938-.382813-.960938s-.054687-.09375.207032-.109375c.269531.007813.847656.929687.847656.929687.480469-.058593.753906.210938.914062.515626.257813.207031.414063.523437.507813.871093.488281 2.660157-1.769531 4.109375-2.542969 4.589844" fill="#ce181e"/><path d="m61.371094 2.984375c-.261719.015625-.207032.109375-.207032.109375s.492188.445312.378907.960938c0 0-1.039063.199218-.695313 1.125.066406.164062.167969.355468.335938.574218 0 0-.152344-.933594.46875-1.023437 0 0 .449218.277343.542968.992187 0 0 .421876-.667968.105469-1.171875 0 0 .523438-.308593 1.039063.570313 0 0-.035156-.363282-.210938-.691406-.15625-.300782-.433594-.574219-.910156-.515626 0 0-.582031-.921874-.847656-.929687zm1.539062 2.230469c.480469 2.28125-1.757812 4.269531-1.761718 4.273437 2.160156-1.535156 2.285156-3.277343 2.144531-3.667969 0 0-.050781-.457031-.382813-.605468zm-5.953125 18.878906c-.191406 0-.265625.015625-.300781.027344-.007812.03125-.015625.078125-.015625.175781v.390625c0 .058594.019531.246094.28125.246094h.539063v-.839844zm-39.511719 2.671875c-.148437.898437-.242187 1.46875-.304687 1.835937h.609375c-.0625-.367187-.15625-.9375-.304688-1.835937zm0 0" fill="#0a0203"/></svg>