<svg height="77pt" viewBox="0 0 70 77" width="70pt" xmlns="http://www.w3.org/2000/svg"><path d="m67.589844 39.699219c-1.617188-3.03125-4.023438-5.195313-6.808594-6.199219.082031-.605469.71875-6.738281-6.699219-10.277344-2.21875-1.054687-4.746093-2.03125-7.417969-3.0625-4.433593-1.714844-9.460937-3.652344-13.992187-6.371094-7.109375-4.261718-13.492187-10.152343-13.554687-10.210937l-3.359376-3.117187s-2.351562 4.742187-2.261718 13.394531c-.808594-1.089844-1.394532-1.683594-1.394532-1.683594s-1.382812 6.589844.273438 11.839844c-5.5 4.097656-9.203125 8.882812-9.203125 8.882812s1.1875.3125 2.363281.621094c-2.960937 4.019531-5.109375 9.152344-5.109375 9.152344s2.765625-.230469 3.90625-.003907c0 0-3.144531 9.675782 6.800781 15.09375l33.640626 18.527344c-.324219-1.234375-4.84375-14.554687 2.625-15.585937 3.582031.628906 7.144531-.0625 8.492187-.386719 3.765625-.902344 6.71875-3.425781 7.800781-4.453125.617188 1.90625.875 2.761719.875 2.761719 5.464844-5.125 5.449219-14.363282 3.023438-18.921875"/><path d="m41.089844 30.542969c-1.777344.828125-3.007813 2.621093-3.007813 4.707031 0 2.871094 2.328125 5.195312 5.207031 5.195312 2.085938 0 3.878907-1.226562 4.707032-2.988281-.339844-.402343-.679688-.789062-1.007813-1.164062-.511719 1.1875-1.695312 2.015625-3.070312 2.015625-1.847657 0-3.34375-1.488282-3.34375-3.332032 0-1.394531.855469-2.582031 2.070312-3.082031h.003907c-.960938-.871093-1.554688-1.34375-1.558594-1.351562zm3.589844 3.296875c-.242188.238281-.394532.570312-.394532.9375 0 .734375.601563 1.332031 1.339844 1.332031.34375 0 .652344-.128906.886719-.34375-.644531-.703125-1.261719-1.351563-1.832031-1.925781zm11.273437 12.882812c-.777344-.023437-1.449219.050782-2.03125.203125.238281.660157.601563 1.800781.738281 3.015625.628906-.09375 1.304688-.175781 2.003906-.222656-.078124-1.253906-.445312-2.351562-.710937-2.996094zm1.289063.121094c.183593.640625.414062 1.6875.414062 2.835938.609375-.011719 1.230469.011718 1.847656.070312-.042968-.753906-.191406-1.566406-.515625-2.378906-.527343-.230469-1.109375-.414063-1.746093-.527344zm-4.351563.484375c-1.398437.757813-2.007813 2.113281-2.101563 3.507813.457032-.144532 1.507813-.457032 2.882813-.71875-.136719-1.167969-.554687-2.257813-.78125-2.789063zm7.425781.789063c.082032.382812.167969.996093.136719 1.757812.742187.125 1.46875.320312 2.15625.59375-.429687-.632812-1.179687-1.574219-2.292969-2.351562zm-1.730468 2.761718c-.316407-.007812-.65625-.007812-1.015626.003906-.199218 1.386719-.625 2.4375-.871093 2.960938.707031-.117188 1.476562-.316406 2.3125-.621094.144531-.425781.390625-1.253906.472656-2.292968-.277344-.023438-.578125-.042969-.898437-.050782zm-1.929688.0625c-.609375.050782-1.265625.140625-1.976562.269532-.105469 1.101562-.511719 2.085937-.78125 2.636718.660156.132813 1.421874.164063 2.292968.066406.128906-.554687.382813-1.765624.464844-2.972656zm3.664062.101563c-.113281.585937-.304687 1.226562-.609374 1.902343.820312-.339843 1.691406-.769531 2.625-1.316406-.339844-.160156-1.003907-.417968-2.015626-.585937zm-6.613281.363281c-.800781.175781-1.664062.40625-2.582031.699219.417969.699219 1.214844 1.339843 2.402344 1.65625.066406-.515625.152344-1.367188.179687-2.355469zm0 0" fill="#fff"/><path d="m58.066406 35.773438c-7.171875-.816407-8.644531 6.746093-8.644531 6.746093s-8.386719.605469-7.886719 8.621094c.507813 8.117187 9.867188 7.304687 13.683594 6.394531 3.8125-.914062 6.816406-4.0625 6.816406-4.0625-8.902344 4.417969-13.378906 1.019532-13.378906-2.429687 0-3.453125 2.699219-7.507813 8.953125-5.886719s8.035156 7.457031 8.035156 7.457031c3-5.734375-.40625-16.03125-7.578125-16.839843" fill="#fdb913"/><path d="m32.046875 54.828125s3.941406.707031 6.46875-1.308594c0 0-4.546875-.101562-6.871094-3.425781 0 0 3.636719.703125 6.464844-1.210938 0 0-3.332031-1.308593-5.453125-3.625 0 0 3.15625.421876 5.9375-.679687-3.476562-1.210937-5.9375-4.195313-5.9375-7.683594 0-3.796875 2.902344-6.988281 6.859375-7.960937-.820313-1.324219-2.460937-3.074219-5.75-4.636719 0 0 5.050781.503906 7.882813 2.316406 2.828124 1.816407 4.039062 4.9375 6.667968 5.339844 3.121094.480469 3.332032-1.308594 2.929688-2.820313 0 0 3.070312 2.308594-.5 6.292969.6875-.699219 3-2.648437 7.195312-2.320312 0 0 .707032-4.527344-5.097656-7.296875-5.800781-2.769532-14.183594-5.082032-21.648438-9.5625-7.472656-4.480469-14.035156-10.570313-14.035156-10.570313s-2.875 9.464844 1.871094 16.609375c0 0-2.980469-.152344-4.542969-2.261718 0 0-.050781 4.675781 4.589844 9.410156 0 0-2.015625 0-5.550781-2.71875 0 0-3.582032 2.617187-5.25 4.578125 0 0 1.71875.457031 2.273437.757812 0 0-3.582031 3.675781-5.753906 7.75 0 0 2.121094-.050781 3.027344.050781 0 0-2.773438 7.902344 2.273437 13.390626l27.226563 15.410156s-3.253907-8.175782 1.695312-10.496094c0 0-4.75 0-6.972656-3.324219" fill="#c9001f"/></svg>