<svg height="23pt" viewBox="0 0 70 23" width="70pt" xmlns="http://www.w3.org/2000/svg"><path d="m51.085938.277344v3.078125h.761718v4h-1.246094l-2.097656-7.074219h-5.019531v3.074219h.578125l-1.242188 4h-1.253906v-4h.765625v-3.074219h-4.609375v3.074219h.765625v4h-.382812v-2.3125l-1.511719-1.148438h1.125v-3.613281h-6.707031l-1.226563.933594v-.933594h-8.066406v6.996094l-.105469.078125h-1.625l-.105469-.078125v-6.996094h-3.84375v.933594l-1.230468-.933594h-4.769532l-1.613281 1.226562v4.832032h-2.535156v1.015625h-1.792969v-4.003907h.726563v-3.070312h-4.550781v3.070312h.730468v4.003907h-.730468v3.074219h8.542968v-.933594l1.222656.933594h4.769532l1.613281-1.226563v-5.847656h.382813v5.847656l1.609374 1.226563h4.769532l1.613281-1.226563v-5.847656h1.144531v4h-.761718v3.074219h11.3125l1.230468-.933594v.933594h8.125v-2.476563l.03125-.101563h1.664063l.027343.089844v2.488282h7.359376v-4.433594l2.179687 4.433594h7.210937v-2.480469l.03125-.097657h1.667969l.023438.089844v2.488282h3.902343v-3.074219h-.867187l-2.101563-7.074219h-5.015624v3.074219h.578124l-1.246093 4h-.488281v-4h.761718v-3.078125h-3.84375v4.4375l-2.183594-4.433594h-4.457031zm-18.503907 3.074218h2.230469v.46875h-2.230469l-.101562-.078124v-.3125zm-20.972656.003907h1.628906l.101563.074219v3.847656l-.101563.078125h-1.628906l-.101563-.078125v-3.847656zm17.410156 0h.378907v2.3125l.964843.730469h-.964843v.957031h-.378907zm5.902344 3.535156.105469.078125v.308594l-.101563.078125h-2.621093v-.464844zm-17.964844 5.480469v3.574218h2.960938v-.503906h.355469v4.003906h-.730469v3.074219h4.554687v-3.074219h-.730468v-4.003906h.355468v.503906h2.929688v-.503906h.226562v4h-.730468v3.074219h8.542968v-.828125l1.140625.832031h6.269531v-.003906h3.328126v-3.539063h1.726562v3.539063h3.824219v-3.074219h-.730469v-4h.730469v-3.070312h-3.824219v3.53125h-1.726562v-3.53125h-9.597657l-1.140625.835937v-.835937zm13.015625 3.070312h1.792969v.460938h-1.792969zm12.128906 0h.230469v4h-.230469v-1.011718h-2.921874v1.011718h-1.789063l-.109375-.078125v-3.84375l.109375-.078125h1.789063v1.015625h2.921874zm-9.320312 1.015625h1.410156v1.972657h-1.410156zm-2.808594 2.527344h1.792969v.460937h-1.792969zm0 0" fill="#fff"/><path d="m51.59375.792969v2.046875h.761719v5.03125h-.761719v2.042968h2.828125v-6.097656l3 6.097656h2.875v-7.074218h.761719v-2.046875h-2.828125v6.101562l-3.003907-6.101562zm-41.382812 0-1.277344.972656v7.179687l1.277344.96875h4.429687l1.273437-.96875v-7.179687l-1.273437-.972656zm6.335937 0v2.050781h.761719v6.101562l1.277344.96875h4.429687l1.273437-.96875v-6.101562h.765626v-2.050781h-2.828126v6.742187l-.445312.335938h-1.960938l-.445312-.335938v-6.742187zm31.578125 0h-4.132812v2.046875h.761718l-1.5625 5.03125h-.738281v2.046875h2.886719v-2.046875l.167968-.53125h2.421876l.144531.53125v2.046875h2.886719v-2.050781h-.738282zm18.472656 0h-4.128906v2.046875h.761719l-1.566407 5.03125h-.738281v2.046875h2.886719v-2.046875l.167969-.53125h2.425781l.144531.53125v2.046875h2.886719v-2.050781h-.738281zm-65.816406 0v2.046875h.726562v5.03125h-.726562v2.042968h7.527344v-3.058593h-1.910156v1.015625h-2.808594v-5.03125h.726562v-2.046875zm24.902344 0v2.050781h.765625v5.023438h-.765625v2.046874h3.59375v-2.046874h-.761719v-5.023438h.761719v-2.050781zm5.496094 0-1.273438.96875v3.648437l1.273438.96875h3.910156l.445312.332032v.828124l-.445312.328126h-3.292969v-.953126h-1.890625v3h6.417969l1.273437-.964843v-3.648438l-1.273437-.96875h-3.910157l-.441406-.332031v-.828125l.441406-.332031h2.90625v.542968h1.890626v-2.589843zm7.050781 0v2.050781h.761719v5.023438h-.761719v2.046874h3.59375v-2.046874h-.765625v-5.023438h.765625v-2.050781zm-26.789063 2.046875h1.96875l.4375.335937v4.359375l-.441406.335938h-1.964844l-.441406-.335938v-4.359375zm35.300782.539062h.015624l.546876 1.851563h-1.140626zm18.476562 0h.011719l.546875 1.851563h-1.140625zm-47.753906 9.503906v2.550782h1.949218v-.503906h1.371094v5.027343h-.734375v2.046875h3.539063v-2.046875h-.726563v-5.027343h1.367188v.503906h1.914062v-2.550782zm9.191406 0v2.046876h.730469v5.027343h-.730469v2.046875h7.53125v-3.058594h-1.914062v1.011719h-2.808594v-1.488281h2.808594v-2.050781h-2.808594v-1.492188h2.808594v1.015625h1.914062v-3.058594zm15.457031 0v2.046876h.726563v5.027343h-.726563v2.046875h2.808594v-3.542968h2.742187v3.542968h2.808594v-2.046875h-.726562v-5.027343h.726562v-2.046876h-2.808594v3.535157h-2.742187v-3.535157zm-6.117187 0-1.296875.957032v7.21875l1.296875.945312h5.601562v-3.058594h-1.90625v1.011719h-2.460937l-.453125-.328125v-4.375l.453125-.324218h2.460937v1.015624h1.90625v-3.0625zm0 0" fill="#002f8b"/></svg>