<svg height="23pt" viewBox="0 0 69 23" width="69pt" xmlns="http://www.w3.org/2000/svg"><path d="m340.553279 617.758875v-62.938084h56.871561v13.77084h-34.283074v49.167244zm78.625526 0c-10.499192 0-19.047406-6.439761-19.047406-14.361336v-23.987555h44.624384v-6.060952c0-2.584817-2.943383-4.679411-6.563405-4.679411h-38.060979v-13.84883h48.109078c10.544301 0 19.11507 6.439762 19.11507 14.361337v24.076686h-44.624384v5.982962c0 2.52911 2.965937 4.66827 6.484463 4.66827h38.139921v13.848829zm95.44002 0v-44.409843c0-2.629383-2.943382-4.757401-6.563404-4.757401h-15.619099v49.011264h-22.362939v-62.782104h48.030136c10.499192 0 19.047406 6.439762 19.047406 14.361337v48.576747zm0 0" fill="#461d7c" stroke="#fdd023" stroke-miterlimit="10" stroke-width="1.2874" transform="matrix(.346381 0 0 -.350605 -117.492379 217.128407)"/></svg>