<svg height="46pt" viewBox="0 0 69 46" width="69pt" xmlns="http://www.w3.org/2000/svg"><path d="m10.367188 4.554688v3.457031c1.988281 0 3.914062 2.101562 3.914062 4.269531v5.976562h18.777344l-8.164063-13.703124zm33.726562 0-8.160156 13.703124h18.777344v-5.976562c0-2.167969 1.925781-4.273438 3.910156-4.273438v-3.453124zm-29.8125 23.171874v4.660157c0 2.101562-1.925781 5.097656-3.914062 5.097656v4.074219h17.257812v-4.074219c-1.925781 0-3.914062-2.996094-3.914062-5.097656v-4.660157zm12.414062 0 7.800782 12.925782 7.800781-12.925782zm18.582032 0v4.660157c0 2.101562-1.988282 5.097656-3.914063 5.097656v4.074219h17.257813v-4.074219c-1.984375 0-3.910156-2.996094-3.910156-5.097656v-4.660157zm0 0" fill="#00b140"/><path d="m67.6875 27.726562v-9.46875h-10.09375v-3.328124c0-2.558594-.015625-4.210938 4.035156-4.210938v-9.484375h-19.339844l-7.792968 12.992187-7.789063-12.992187h-19.34375v9.484375c4.054688 0 4.039063 1.652344 4.039063 4.210938v3.328124h-10.113282v9.46875h10.113282v1.875c0 2.476563.015625 5.394532-4.039063 5.394532v9.734375h23.28125v-4.386719l2.625 4.386719h2.457031l2.625-4.386719v4.386719h23.277344v-9.734375c-4.050781 0-4.035156-2.917969-4.035156-5.394532v-1.875zm-58.523438-18.652343v-5.8125h16.417969l8.914063 14.929687 8.917968-14.929687h16.417969v5.8125c-2.5625 0-3.988281 1.820312-3.988281 4.140625v5.042968h-42.691406v-5.042968c0-2.320313-1.429688-4.140625-3.988282-4.140625m19.664063 33.722656h-19.664063v-6.183594c2.558594 0 3.988282-2.726562 3.988282-5.230469v-3.65625h11.664062v3.65625c0 2.664063 1.574219 5.230469 4.011719 5.230469zm5.667969.367187-9.253906-15.4375h18.511718zm25.335937-6.550781v6.183594h-19.664062v-6.183594c2.433593 0 4.011719-2.566406 4.011719-5.230469v-3.65625h11.664062v3.65625c0 2.503907 1.425781 5.230469 3.988281 5.230469" fill="#231f20"/><path d="m6.335938.203125v11.546875h1.027343c1.339844 0 2.210938.191406 2.589844.574219.417969.417969.417969 1.355469.417969 2.542969v2.359374h-10.113282v11.53125h10.113282v.871094c0 1.449219 0 2.910156-.75 3.660156-.445313.449219-1.203125.675782-2.257813.675782h-1.027343v11.796875h25.332031v-1.699219c.285156.476562 1.019531 1.699219 1.019531 1.699219h3.617188s.730468-1.222657 1.019531-1.699219v1.699219h25.328125v-11.796875h-1.027344c-1.050781 0-1.8125-.226563-2.257812-.675782-.746094-.75-.75-2.210937-.75-3.632812v-.898438h10.09375v-11.53125h-10.09375v-2.359374c0-1.1875.003906-2.125.421874-2.542969.378907-.382813 1.246094-.574219 2.585938-.574219h1.027344v-11.546875h-20.945313s-5.828125 9.71875-7.210937 12.023437c-1.382813-2.304687-7.214844-12.023437-7.214844-12.023437zm1.027343 1.03125h19.339844l7.792969 12.992187 7.789062-12.992187h19.339844v9.484375c-4.050781 0-4.035156 1.652344-4.035156 4.207031v3.332031h10.097656v9.46875h-10.097656v1.875c0 2.476563-.015625 5.394532 4.035156 5.394532v9.734375h-23.277344v-4.386719l-2.625 4.386719h-2.457031l-2.621094-4.386719v4.386719h-23.285156v-9.734375c4.054687 0 4.039063-2.917969 4.039063-5.394532v-1.875h-10.113282v-9.46875h10.113282v-3.332031c0-2.554687.015624-4.207031-4.039063-4.207031v-9.484375zm1.800781 2.027344v5.8125c2.558594 0 3.984376 1.820312 3.984376 4.140625v5.042968h1.132812v-5.976562c0-2.167969-1.925781-4.269531-3.914062-4.269531v-3.457031h14.527343l8.164063 13.703124h2.875l8.160156-13.703124h14.527344v3.457031c-1.988282 0-3.914063 2.101562-3.914063 4.269531v5.976562h1.132813v-5.042968c0-2.320313 1.429687-4.140625 3.988281-4.140625v-5.8125h-16.417969l-8.914062 14.929687-8.914063-14.929687zm29.921876 16.375-.4375.089843-.355469.175782-.261719.175781-.175781.265625-.617188 1.769531h-1.496093l.878906-1.859375h-2.375l.265625.175782.085937.179687.089844.175781-.089844.265625-.175781.621094-.175781.441406h-2.023438l.53125.265625.261719.355469.085937.355469v.527344l.707032-.085938-.175782.441406-.351562 1.0625-.179688.355469v.265625l.089844.265625h.441406l.261719-.089844.175781-.265625.265626-.355468.792968-1.769532 1.671875-.175781-.355469 1.238281-.4375 1.152344-.175781.441406v.265625l.152344.230469.023437.035156.261719.089844h.175781l.175782-.089844.179687-.179687.175781-.351563 1.40625-2.921875 1.054688-.085937-.261719.441406-.175781.355469v.441406l.085938.175781.089843.179688.261719.351562.351562.089844h3.609376l.527343-.089844.441407-.265625.261718-.441406.265625-.441406 1.230469-2.566407h1.144531l.175781.085938.085938.265625-.085938.085937-.089843.179688-.351563.175781-.703125.089844-.175781.265625-.175781.351562-.089844.269532.089844.351562.351562.53125.351563.445313 1.054687.707031.617188.351562.707031.265626.613281.179687h.792969v-.089844l-.089844-.175781-1.054687-.53125h1.40625l.792969-.089844.707031-.175781.703125-.265625.523437-.355469.441407-.53125.265624-.617187.085938-.355469v-.796875l-.085938-.445312-.175781-.351563-.441406-.441406-.261719-.179688-.617187-.175781-.789063-.089844h-2.554687l.351562.089844.175781.175781.089844.179688.085938.175781-.085938.265625v.179687l1.144532-.089843.792968.089843h.351563l.261719.171876.175781.179687.175781.175781.085938.441406v.355469l-.171876.445313-.265624.351562-.351563.265625-.441406.179688-.613281.085937h-.707032l.792969-1.859375h-1.40625l-1.234375 2.480469-.613281-.621094-.53125-.53125-.085938-.265625v-.089843l.085938-.175782.089843-.089844.617188-.175781.351562-.265625.261719-.265625.089844-.441406.085937-.351563-.085937-.355468-.175781-.265625-.175782-.179688-.175781-.175781-.265625-.089844h-2.816406l-.964844 2.125-.441406.796875-.265625.441407-.085937.179687-.175782.089844-.527344.085937h-1.671874l-.355469-.085937v-.179688l.089843-.265625.265626-.53125.792968-.089844.613282-.175781.878906-.355469.175781-.085937-.261719-.089844h-1.9375l.351563-.792969h2.113281l.527344-1.066406h-3.519532l-.878906 1.859375h-.96875l.878906-1.859375v-.261718l-.085937-.179688-.265625-.085938zm-24.285157.085937.351563.265625.089844.179688v.085937h-.089844l-.613282.355469-.441406.265625-.703125.441406 2.023438-.085937 2.375-.179688-.351563 1.242188-.351562 1.0625-.882813 2.300781-.171875.351562v.355469l.085938.175781.109375.054688.066406.035156.066406-.035156.109375-.054688.265625-.089843.261719-.261719.265625-.445312 2.902344-4.691407 1.496093-.175781 3.875-1.152344zm10.824219.53125-.882812 1.949219h-1.40625l.617187-1.417969-1.582031.53125-.441406.886719h-1.585938l.441406.179687.351563.351563.351562.355469-.4375.972656-.53125 1.0625h1.410157l.878906-1.859375h1.410156l-.882812 1.859375h1.410156l2.285156-4.871094zm2.199219.089844-.792969 1.59375-.96875 1.949219-.085938.441406v.175781l.085938.179688.351562.351562.351563.089844h2.289063l.175781-.089844.265625-.089844.351562-.441406.351563-.53125h-2.113281l-.175782-.085937-.085937-.089844-.089844-.089844v-.265625l.265625-.441406.878906-.089844.792969-.175781.96875-.621094h-2.375l.4375-.796875h2.203125l.613281-.972656zm-14.675781 7.386719v3.652343c0 2.503907-1.425782 5.230469-3.984376 5.230469v6.179688h19.660157v-6.179688c-2.4375 0-4.011719-2.566406-4.011719-5.230469v-3.652343h-1.101562v4.65625c0 2.101562 1.988281 5.097656 3.914062 5.097656v4.078125h-17.257812v-4.078125c1.988281 0 3.914062-2.996094 3.914062-5.097656v-4.65625zm12.089843 0 9.257813 15.433593 9.253906-15.433593h-1.453125l-7.800781 12.921875-7.800782-12.921875zm18.9375 0v3.652343c0 2.664063-1.574219 5.230469-4.011719 5.230469v6.179688h19.667969v-6.179688c-2.5625 0-3.992187-2.726562-3.992187-5.230469v-3.652343h-1.128906v4.65625c0 2.101562 1.925781 5.097656 3.910156 5.097656v4.078125h-17.257813v-4.078125c1.925781 0 3.914063-2.996094 3.914063-5.097656v-4.65625zm0 0" fill="#fff"/></svg>