<svg height="76pt" viewBox="0 0 70 76" width="70pt" xmlns="http://www.w3.org/2000/svg"><path d="m1.457031.539062h.003907l5.0625 13.363282-.003907 39.65625-5.515625 11.988281h21.09375v-24.710937l8.585938 19.167968h8.378906l8.578125-19.160156v24.703125h21.394531l-5.816406-12.003906v-39.710938l4.976562-13.292969h-19.78125l-13.550781 31.007813-13.539062-31.007813zm-1.035156 68.832032h.003906l1.820313 3.007812-1.828125 3.058594h69.203125l-1.828125-3.0625 1.828125-3.003906zm0 0"/><path d="m3.671875 2.054688-.003906.003906h.003906zm0 .003906 4.378906 11.566406v40.265625l-4.664062 10.140625h17.179687v-30.351562l11.113282 24.808593h6.390624l11.101563-24.800781v30.34375h17.425781l-4.910156-10.140625v-40.328125l4.308594-11.503906h-16.582032l-14.550781 33.308594-14.542969-33.308594zm1.261719 68.363281v3.964844h3.1875v-2l-3.070313-1.964844zm3.839844 0v1.890625l3.128906 2.074219h.0625v-3.964844zm6.496093 0 .542969.351563v-.351563zm5.023438 0v3.316406l.980469.648438h2.449218l.003906-3.964844zm29.914062 0v3.964844h3.1875v-2l-3.074219-1.964844zm3.839844 0v1.890625l3.121094 2.074219h.0625v-3.964844zm6.488281 0 .546875.351563v-.351563zm5.023438 0v3.316406l.976562.648438h1.140625l-1.390625-2.015625 1.382813-1.949219zm-49.109375 1.273437v2.691407h3.1875v-.609375zm45.265625 0v2.691407h3.1875v-.609375zm0 0" fill="#ffcd23"/><path d="m5.277344 3.15625v.003906l3.890625 10.265625-.003907 40.703125-4.046874 8.796875h14.335937v-34.453125l12.949219 28.910156h4.941406l12.945312-28.90625v34.449219h14.539063l-4.25-8.785156v-40.78125l3.816406-10.203125h-14.246093l-15.285157 34.984375-15.277343-34.984375zm21.171875 67.273438c-.097657.199218-.171875.425781-.226563.671874-1.355468.082032-2.339844.628907-2.339844 1.289063h11.113282v-1.960937h-1.691406v.464843h-4.304688c-.046875-.167969-.109375-.324219-.179688-.464843zm8.546875 1.960937v2h1.6875v-.496094h4.355468c.050782.179688.113282.34375.1875.496094h2.351563c.097656-.210937.179687-.441406.234375-.699219 1.363281-.085937 2.34375-.628906 2.34375-1.296875v-.003906zm11.160156 0h.1875v-1.960937h-2.753906c.09375.199218.171875.425781.222656.671874 1.359375.082032 2.339844.628907 2.34375 1.289063zm-22.273438 0h-.160156v2h2.738282c-.101563-.210937-.179688-.441406-.238282-.699219-1.359375-.085937-2.339844-.628906-2.339844-1.296875zm12.800782-1.960937v.464843h4.355468c.046876-.167969.109376-.324219.175782-.464843zm-7.683594 3.464843c-.050781.179688-.117188.34375-.1875.496094h4.492188v-.496094zm0 0" fill="#cf102d"/><path d="m23.726562 70.421875v1.96875h.15625c.003907-.664063.984376-1.210937 2.34375-1.292969.050782-.246094.128907-.472656.222657-.675781zm.15625 1.96875v.003906c0 .664063.984376 1.210938 2.34375 1.292969.054688.257812.136719.492188.234376.699219h2.351562c.074219-.152344.136719-.316407.1875-.492188h4.304688v.492188h1.691406v-1.996094zm11.113282 0h11.164062c-.007812-.664063-.984375-1.210937-2.34375-1.292969-.054687-.246094-.128906-.472656-.222656-.675781h-2.375c-.070312.144531-.128906.300781-.175781.46875h-4.355469v-.46875h-1.691406zm11.164062 0v.003906c0 .664063-.984375 1.210938-2.34375 1.292969-.054687.257812-.136718.492188-.238281.699219h2.769531v-1.996094zm-17.335937-1.96875c.066406.148437.128906.300781.175781.46875h4.304688v-.46875zm7.863281 3.472656v.492188h4.542969c-.074219-.152344-.140625-.316407-.1875-.492188zm0 0" fill="#fff"/></svg>