<svg height="61pt" viewBox="0 0 70 61" width="70pt" xmlns="http://www.w3.org/2000/svg"><path d="m2.429688 14.101562v14.066407h2.9375v18.375h-2.9375v13.964843h20.042968v-7.035156l3.304688 5.195313 2.886718-4.882813v6.71875h20.460938v-13.542968h-2.9375v-6.507813s1.46875-.421875 2.097656-1.574219c0 0 1.679688-1.367187 1.46875-2.519531 0 0 .839844-.945313.523438-2.101563 0 0 .839844-.210937.210937-1.890624 0 0 .210938-1.886719-1.46875-2.519532 0 0 1.890625 1.261719 5.351563.527344 0 0 1.785156 2.625 3.988281 3.464844 0 0 2.203125 1.992187 2.726563 2.097656 0 0-.628907 2.730469 2.519531 3.570312 0 0 1.261719.628907 2.726562-.945312 0 0 3.148438.839844 2.730469-3.148438 0 0 .839844-1.367187-.105469-2.625 0 0 .628907-2.101562-1.257812-3.570312 0 0-1.785157-1.996094-4.09375-3.359375 0 0-.417969-2.207031-1.363281-3.464844 0 0-1.785157-1.785156-2.308594-2.203125 0 0 .734375-1.261718-.421875-3.363281 0 0 .839843-1.992187-.628907-3.988281 0 0 .945313-1.996094 0-3.675782 0 0-1.257812-.628906-3.777343-.839843 0 0-3.042969-1.46875-5.035157-1.257813 0 0-3.671874-3.148437-10.601562-2.941406 0 0-4.40625-1.046875-9.125 1.785156 0 0-5.351562 2.207032-13.117188 9.03125l-1.050781-1.050781-1.679687-.105469s-1.46875-2.730468-5.246094-5.144531c0 0-2.625-1.363281-.628906-1.890625 0 0 2.308594-.210938 3.25.632812 0 0 1.890625 1.78125 3.675781.941407 0 0 2.414063-.628907 1.679687-3.882813 0 0-1.367187-2.941406-5.878906-3.464844 0 0-3.566406-1.46875-7.554687 1.363282 0 0-2.625.945312-3.042969 4.515625 0 0-.8398438 2.519531 2.308594 5.773437l1.257812 1.472656zm0 0" fill="#fff"/><path d="m8.847656 1.925781c-2.289062.039063-4.363281.957031-5.859375 2.800781-1.09375 1.308594-1.175781 3.542969-.515625 5.054688.4375 1.1875 1.371094 2.023438 2.3125 2.839844.46875.40625.945313.808594 1.371094 1.246094.417969.433593.785156.902343 1.046875 1.441406h-3.558594v11.6875h2.84375v20.976562h-2.84375v11.339844h17.492188v-11.339844h-2.957031v-5.320312l7.503906 13.269531 4.527344-7.882813v11.273438h17.589843v-11.339844h-2.941406v-8.441406l.066406-.082031c.179688.050781.355469.039062.519531.011719.171876-.027344.347657-.074219.511719-.085938.578125-.089844.808594-.5 1.011719-.878906.050781-.089844.101562-.183594.15625-.273438s.109375-.171875.175781-.242187c.128907-.144531.292969-.257813.527344-.304688l.054687-.039062c.058594-.09375.121094-.191407.179688-.292969.058594-.105469.117188-.210938.160156-.316406.089844-.214844.140625-.449219.066406-.675782l-.03125-.109374-.375.269531c-.132812.03125-.292968.097656-.445312.128906-.089844.015625-.171875.015625-.238281-.015625.304687-.089844.597656-.230469.882812-.441406.414063-.414063.863281-.878906.820313-1.53125l-.007813-.09375-.089843.019531c-.175782.027344-.359376.066406-.539063.074219-.109375.007812-.214844.003906-.308594-.015625l.070313-.050781c.070312-.046876.136718-.082032.222656-.105469.648438-.335938.882812-1.085938.902344-1.664063l.003906-.09375-.09375.007813c-.160156.011719-.304688.074219-.433594.140625-.066406.027344-.128906.0625-.191406.089844-.058594.027343-.121094.050781-.191406.066406-.175782.066406-.371094.054687-.480469-.027344.589844-.203125 1.238281-.582031 1.527344-1.222656l.027343-.058594-.050781-.039062c-.367187-.304688-.796875-.476563-1.246093-.582032-.433594-.105468-.898438-.148437-1.363282-.1875-.410156-.484375-1.1875-.488281-1.71875-.414062.015625-1.386719-.078125-2.328125.074219-3.640625l1.007813-.0625c.605468-.109375 1.0625.144531 1.5.503906.222656.179687.4375.378906.65625.570313.21875.1875.445312.363281.699218.488281 1.78125 1.089843 4.125 1.414062 6.089844.621093 1.003906 1.597657 2.503906 3.210938 4.214844 3.988282.226562.257812.472656.480468.726562.6875.257813.210937.527344.40625.785156.601562.507813.378906.996094.753906 1.363282 1.238282-.285156.996093.265625 1.828124.953125 2.429687.613281.296875 1.4375.519531 2.144531.1875l.046875-.046875c.171875-.515625.449219-.488281.800781-.394531.09375.023437.191406.050781.28125.074219.101563.027343.203125.046874.304688.054687.199218.011719.40625-.027344.59375-.195313.59375-.273437.828125-.894531.789062-1.515624.011719-.132813-.039062-.257813-.101562-.367188-.054688-.101562-.136719-.207031-.191406-.304688-.097657-.175781-.128907-.3125.179687-.515624.214844-.578126.121094-1.28125-.277344-1.765626.203125-.558593.199219-1.261718.183594-1.832031-.011719-.539062-.386719-.8125-.730469-1.046875-.089844-.058594-.175781-.113281-.253906-.175781-.082031-.058594-.15625-.117187-.226562-.183594-.121094-.128906-.21875-.277343-.253907-.503906-.246093-.386719-.558593-.664063-.894531-.882813-.164062-.109374-.339844-.203124-.519531-.292968-.175781-.089844-.355469-.171875-.539063-.253906-.710937-.335938-1.386718-.675782-1.8125-1.476563-.507812-1.070313-.957031-2.175781-1.554687-3.214844-.589844-1.023437-1.316407-1.984375-2.359375-2.773437.375-1.140625.375-2.496094-.554688-3.414063.203125-1.023437.265625-2.171875-.085937-3.207031-.683594-.488281-.589844-.988281-.355469-1.558594.121094-.296875.277344-.597656.378906-.910156.101563-.316406.152344-.660156.050782-1.011719-.125-.316406-.371094-.742187-.800782-.8125-1.550781.195313-2.886718-.203125-4.214844-.679687-.667968-.238282-1.328124-.492188-2.007812-.695313-.679688-.199219-1.382812-.351562-2.128906-.386719l-2.460938-1.25c-5.511718-2.335937-12.808594-1.75-17.671875 1.554688-2.175781 1.101562-4.226562 2.554688-6.226562 4.089844-1.980469 1.515625-3.914063 3.121094-5.890625 4.5625l-.917969-1.472656h-1.679687l-1.066407-1.476563c-.917969-1.257813-2.054687-2.148437-3.210937-2.972656-.574219-.410157-1.15625-.808594-1.722656-1.222657-.5625-.414062-1.105469-.851562-1.609376-1.34375-.253906-.355468-.113281-.910156.054688-1.3125.730469-1.210937 2.152344-1.484374 3.414062-1.464843.804688-.078125 1.441407.261719 2.078126.664062.320312.199219.636718.414063.972656.589844.339844.175781.699218.3125 1.109375.363281.75 0 1.527343-.300781 1.839843-1.070312.199219-.746094-.09375-1.425782-.589843-1.945313-1.398438-1.230469-3.097657-1.785156-4.863281-2.078125-.546876-.082031-1.085938-.121094-1.613282-.109375zm-3.726562 14.859375h9.761718l10.882813 19.242188.1875.191406.054687-.09375c1.3125-2.320312 2.523438-4.675781 3.792969-6.996094l.320313.808594c-1.296875 2.6875-2.871094 5.257812-4.332032 7.882812l-11.414062-20.09375h-8.410156v6.9375h2.765625v25.382813h-2.789063l.007813 6.9375h13.089843v-6.9375h-3.078124v-15.335937l4 6.757812 5.726562 9.664062 5.554688-9.582031 1.871093-3.222656 2.453125-4.359375v16.078125h-3.039062v6.9375h13.003906v-6.9375h-2.914062v-12.199219l.796874.867188v10.628906h2.890626v8.476562h-14.539063v-8.476562h2.867187v-11.972656l-2.40625 4.179687-6.542968 11.371094-6.71875-11.464844-2.1875-3.730469v11.617188h3.019531v8.476562h-14.675781v-8.476562h2.808594v-23.921875h-2.808594zm28.128906 25.964844v5.222656h-3zm0 0" fill="#0d3182"/><path d="m16.953144 4.60605c-.59509.408044-1.031028.912911-1.439287 1.452358-.429019.560196-.809599 1.141139-1.273216 1.687502l-.145313.041496c-.415179-.096824-.449777.041496-.449777.318136 0 .165984.020759.359631.027679.539447 0 .096824-.00692.200564-.027679.304304.027679-.013832.062277-.020748.096875-.041496l.159152-.076076c.055357-.027664.117634-.048412.186831-.062244.207589-.089908.429018-.13832.650447-.165984s.449777-.041496.678126-.062244c.429018-.041496.809599-.10374 1.100224-.338883.117634-.788423.691965-1.348619 1.217859-1.853486.138393-.131404.276786-.262808.401339-.394211.131474-.124488.249108-.255892.352903-.394212.172991-.221312.304464-.456455.366741-.719263-.636608-.06916-1.273216-.165984-1.902904-.235144zm3.57054.636271-.172991.179816c-.076117.304304-.20759.670851-.256027 1.016651-.041518.297388-.01384.539447.117634.726179.650447-.726179 1.501564-.968239 2.359601-1.071979.484375.131404.858036.525616.719643 1.071979-.076116.124488-.145312.248976-.235268.38038-.083036.138319-.18683.290471-.311384.408043-.214509.221312-.525894.387296-.851117.152152-.076116.06916-.159152.131404-.242188.200564-.110714.089907-.235268.186731-.339063.290471-.18683.179816-.318304.352716-.345982.55328.311384.131403.615848.297387.913393.470287.318304.186732.636608.394211.954912.580943.615849.366548 1.238618.677767 1.937502.781507.262947-.221311.394421-.477203.352903-.774591-.505135-.504867-.40134-1.044314-.193751-1.521518.096876-.235144.228349-.470287.332144-.698515.083035-.193648.138393-.366548.152232-.518699-1.550002-1.002819-3.120763-1.853486-4.892193-2.22695zm-7.91608.152152c-1.826788.152152-3.473665 1.030483-4.76072 2.282277.643527.179816 1.224778.504868 1.77143.899079.553573.401128 1.093305.871415 1.639958 1.327871.062277-.165984.103794-.338884.138393-.5187.041518-.255891.055357-.518699.076116-.781507.041518-.525615.096875-1.092726.422099-1.563014l.096875-.145236.262946.262808zm-6.898892 6.203645-.512054.408043c-.546653 1.320954-.491296 3.195188.179911 4.343243.221428-.1729.39442-.401128.553572-.650104.19375-.304303.352902-.636271.518973-.954406.339063-.636272.754242-1.258711 1.612279-1.341703l.124554-.013832.034598.117572c.048438.165984.034598.31122 0 .44954-.020759.062244-.041518.131403-.069196.193647l-.076117.1729c-.048437.110656-.083035.193648-.096875.27664.823439-.580943 1.466966-1.514602 1.543082-2.558917-1.238617-.179816-2.636387.03458-3.708932.31122l-.138393.041496-.041518-.145236c-.069197-.248976-.00692-.442624.076116-.650103zm54.893589.491035c-3.272995 1.016651-7.182598 3.305844-7.570098 7.081975-.518974 1.556098-.781921 3.222852-.934153 4.931102s-.19375 3.45108-.290625 5.117834c-.020759.10374-.041518.200563-.076116.290471-.027679.096824-.069197.193648-.124554.283556-.110715.193648-.311384.3458-.615849.269724l-.089956-.06916c-1.889064-2.980793-2.788619-6.390376-3.044646-10.0766-.449777.442624-.79576.961323-1.141742 1.480022-.20067.304304-.40134.601692-.60893.892163-.207589.283556-.435937.55328-.698884.795339l-.117634.110656-.096875-.131404c-.283706-.380379-.380581-.843751-.456697-1.272542-.041518-.221312-.076116-.435708-.131474-.650103-.041518-.186732-.096875-.366548-.179911-.532532-.159152-.055328-.269866-.006916-.39442.096824-.076116.06916-.145312.145236-.221429.221312-.069196.062244-.145312.13832-.242187.193648-2.809378 5.657281-1.78527 13.569175-.484376 19.641415l-.207589.636272c-.262947.262807-.484376.165983-.622769.020748l-.089955-.10374-.076117-.096824c-.048437-.062244-.083035-.089908-.103794-.10374l-.076116-.082992c-.961832-2.690321-2.207369-5.228489-4.075675-7.503851l-.18683-.082992c-.069197-.03458-.145313-.062243-.20759-.076075-.124554-.020748-.207589 0-.276786.117571-.110714.131404-.179911.283556-.235268.44954-.062277.1729-.110714.352715-.159152.525615-.110714.352716-.256027.733095-.629688.933659l-.138393.076076-.062277-.145236c-.20067-.456455-.415179-.919827-.636608-1.383198-.228348-.44954-.470536-.905995-.747322-1.334787-.546653-.857582-1.210939-1.625258-2.110494-2.185453-.643527-.20748-1.300894-.006916-1.847546.331968 3.051566 2.683404 4.989068 5.982332 6.310721 9.45416.062277-.428791.138393-.912911.249108-1.39703.166071-.712347.415179-1.438526.837277-2.040218.546653-.193647 1.017189.228228 1.307814.546364 1.695315 3.215936 2.560271 6.743091 3.030807 10.422399h1.667636c.145313-1.120391.214509-2.268445.20067-3.45108.027679-.124488.076116-.248976.159152-.338884.089955-.096823.235268-.159067.408259-.103739l.089956.076075c.58817 1.210299 1.072546 2.524337 1.563841 3.817628h.304464-.311384l.117634.290471c.40134 1.051231.809599 2.067882 1.287055 2.987709-.242188-1.099643-.498215-2.19237-.78884-3.27818-.79576-3.029205-1.792189-5.982333-3.183039-8.741813-.062277-.159068-.131474-.456456-.089956-.6916.041518-.276639.235268-.497951.629688-.401127 1.307814 1.597594 2.497994 2.96696 3.992639 4.170343-.00692-.44954.055357-1.009735.3875-1.383199.532813-.131403.809599.110656 1.037948.38038 1.017189 2.323773 2.304244 4.60605 3.978799 6.667016h1.750672-1.750672c.941073 1.15497 2.006699 2.240781 3.217638 3.229768l.498215-1.825822c.062276-.318136.172991-.629355.297544-.940575.069197-.159068.138394-.311219.20759-.463371h-.3875c-.145313.311219-.276786.629355-.394421.940575l-.110714.297387-.159152-.276639c-.179911-.318136-.359822-.636272-.539733-.961323-2.871655-5.15933-5.431925-10.456979-6.345319-16.46006l.242187-.733095.145313.055328c.256027.10374.505135.24206.747322.387295.235269.152152.463617.318136.698885.477204.415179.290472.816519.560195 1.259377.740011.18683-.753843.283705-1.597594.484375-2.386017.214509-.857583.560492-1.67367 1.307814-2.240781l.235268-.179816v.290472c.034598 2.752564.152233 5.698777.885715 8.236945.311385.892163.60893 1.791242.975671 2.655741.352902.816087.761162 1.590678 1.321654 2.275361-.138394-1.403946-.20759-2.800976-.172992-4.26025.034598-.10374.048438-.152152.069197-.221312.013839-.076076.034598-.159068.062277-.235144.062276-.165984.179911-.338883.429018-.387295l.138393.041496c.3875.401127.664286.864498.906474 1.314038.19375.366547.366742.733095.567412 1.071979.429018-.885247.961831-1.735914 1.695314-2.462093.235268-.089908.380581-.048412.491295 0l.145313.06916c.041518.013832.083036.027663.117634.034579l.110714.020748.01384.10374c.242187 1.369367.463616 2.745649.795759 4.073519.339063 1.320955.788841 2.579665 1.480806 3.72772 1.148662 1.210298 1.985939 2.545085 2.56027 3.990527h.00692c.574331 1.417778.892635 2.939296 1.024108 4.550722l-.020759.089908c-.096875.165984-.172991.366548-.256027.580943-.083035.221312-.166071.44954-.262946.663935-.193751.421876-.477456.823003-1.010269.871415l-.145313.006916-.00692-.145235c-.179911-1.860402-.643527-3.617064-1.612278-5.152414-.083036.062244-.145313.145236-.20067.248976-.041518.076075-.076116.159067-.110715.242059l-.103794.269724c-.131474.373463-.311385.809171-.830358.961323l-.103795.027664-.062277-.082992c-.435938-.608607-.733483-1.279459-.968751-1.964142-.131473-.380379-.242188-.774591-.345983-1.168802h-1.937502c-.20067 1.417778-.269866 2.890884-.228348 4.39857l.359822.456456c1.646876-.228228 3.086164-.843751 4.414737-1.853486l.089955-.06916.422099.304304-.01384.089908c-.366741 2.185453-1.224778 4.15651-2.338841 6.051492 1.37009.373464 2.850896.248976 4.096433-.338883l.083036-.041496c.560491.456455.622768 1.065062.553572 1.632174-.055358.477203-.20759.961322-.311385 1.348618 1.633038-.124488 3.203799-.421876 4.56697-1.154971l.159152.006916c.567411.401128.304464.885247.013839 1.210299-.069196.082992-.152232.165984-.235268.235144l-.186831.172899c.525894-.304303 1.695315-.753843 1.695315-.753843.415179-.03458.871876-.10374 1.321653-.10374s.913394.06916 1.280135.31122l.069197.096824c.069196.394211-.138393.643187-.373661.816087-.110715.082992-.235268.159068-.352902.235144-.110715.076075-.20759.152151-.276786.228227-.8096.843751-1.065627 2.116294-.685046 3.257432.581251 1.078895 1.695315 1.991806 2.878575 2.026386 1.058706.304303 1.252457-.186732 1.460046-.899079.055357-.179816.110715-.373464.172991-.553279.062277-.193648.145313-.38038.256028-.546364.207589-.318135.512054-.567111.996429-.657019-.027678-.940575.352902-1.791242 1.100225-2.386017-.304465-.408044-.359822-.802255-.297545-1.182635.034598-.207479.110714-.401127.19375-.587859.076116-.186732.172991-.366547.269866-.546363.366742-.691599.60893-1.224131-.228348-1.805074-.138393-.24206-.152233-.428791-.145313-.601691.00692-.165984.034598-.338884.062277-.504868.055357-.297387.076116-.539447-.062277-.767675-2.262726-.262807-4.428576.781507-6.379918 1.88115l-.131473.006916c-.505135-.221312-.574331-.746927-.560492-1.217214 0-.235144.027679-.48412.041518-.712348.013839-.186731.020759-.345799.00692-.484119-.678126-.055328-1.266296.24206-1.868306.657019-.318304.214396-.622769.463372-.941072.691599-.318304.228228-.650448.44954-1.00335.615524-.096875.076076-.228348.172899-.373661.262807-.145313.096824-.318304.193648-.491295.248976-.380581.110656-.768081.03458-.941073-.518699l.00692-.117572c1.349332-2.469009 1.245537-5.864761.117634-8.389098-.124554-.145236-.242188-.297387-.359822-.449539-4.193308-5.359894-6.186167-12.988232-2.684824-19.302532l.138393-.152152c.041518-.048412.096875-.089908.152232-.131404.138393-.082992.318304-.10374.470536.076076l.027679.089908c.041518 1.576846.027679 3.285096.283706 4.903438.242187 1.528434.719643 2.96696 1.688394 4.121931.083036-.186732.145313-.373464.228349-.55328.117634-.248975.269866-.497951.615849-.629355l-.124554-.580943c-.131473.048412-.262947 0-.373661-.076076-.041518-.027664-.076116-.062244-.110714-.096824l-.103795-.089908c-.062277-.055328-.103795-.082992-.131474-.089908l-.083035-.06916c-2.352682-3.589399-1.875226-9.129108.228348-12.76692-.975671.816087-1.743752 2.081714-2.200449 3.250516-.089955.165984-.159152.352716-.221429.532531-.062277.186732-.117634.387296-.172991.574028-.117634.387295-.256027.788423-.512054 1.141138-.262947.110656-.408259.055328-.512054-.03458-.055357-.041496-.096875-.089908-.131474-.131403-1.605359 1.549182-1.930582 3.630895-2.262725 5.781768-.055358.13832-.076117.262808-.083036.408044-.01384.159068-.01384.318135-.027679.463371-.027678.304304-.131473.657019-.574331.705431l-.124554.013832-.034598-.124487c-1.307814-4.785867-.304464-10.18034 3.328352-13.679832.242188-.435707.60201-.753843.975671-1.01665.373661-.262808.78192-.48412 1.148662-.719263.719644-.456456 1.231698-.947491 1.072546-1.971058.491295-1.625258 2.062056-2.669573 3.56362-2.925464-.235268-.574028-.013839-1.071979.290625-1.50077.166072-.228228.359822-.442624.546653-.643188.076116-.089908.145312-.179815.207589-.262807-5.604917 1.403946-10.282601 7.012815-12.524568 12.123733-.089955.110656-.124553.200563-.145312.325051-.01384.131404-.00692.27664-.01384.408044-.006919.290471-.062276.636271-.498214.760759l-.145313.03458-.034598-.13832c-1.093305-4.198007.18683-8.278442 2.17277-11.653446l-2.200449.560196-.59509-.3458.027679-.10374c.117634-.497951.408259-.912911.698884-1.29329.145313-.186732.297545-.373464.435938-.567111.069197-.089908.131474-.179816.186831-.27664zm-16.607162 35.651936h-1.667636c.20759 1.646006.339063 3.319676.422099 5.014094.60201-1.597595 1.017189-3.271264 1.245537-5.014094zm34.535977-34.400142c-1.889065-.006916-3.77121.401128-5.279694 1.307123 1.238618.145236 2.560271.933659 3.639736 1.74283 2.158931-.795339 4.636166-1.459275 7.009607-1.874234-1.563842-.753843-3.473665-1.175719-5.369649-1.175719zm-68.276194 2.399849c-1.058706.325052-2.062056 1.320955-2.684824 2.344521-.40826.650104-.456697 1.431611.172991 1.860402.525894-.345799 1.010269-.788423 1.529243-1.148054.560492-.387296 1.169421-.698516 1.916743-.677768.518974-.069159.733483-.608607.747322-1.141138-.110714-.131404-.221428-.27664-.339062-.41496-.131474-.159067-.262947-.304303-.40826-.428791-.283706-.248976-.58817-.408044-.934153-.394212zm77.05723.262808c-1.120983.027664-2.200449.13832-3.238396.359632.290625-.027664.58817-.03458.885715-.027664l.117634.055328.20067.179815c.089955.082992.179911.214396.117634.401128l-.096875.096824c-1.107144.366547-2.235047.691599-3.314513 1.092726-1.072546.401128-2.103574.878331-3.051566 1.549182-.096875.117572-.214509.24206-.318304.38038-.117634.13832-.221428.27664-.297545.414959-.124553.214396-.172991.387296-.138393.532532 1.20402-.988987 2.58103-1.632174 3.9788-2.206201.463616-.186732.98951-.394212 1.515403-.5187.532813-.124488 1.086385-.165984 1.619198-.006916l.179911.055328-.290625.525615c-1.010269.684684-2.075895 1.224131-3.086164 1.860402-.99643.629355-1.930583 1.348619-2.698664 2.386017l-.131473.186732c-.041518.06916-.076117.131404-.103795.193648-.027679.082992-.027679.145236.041518.200563.691965-.082991 1.252456-.477203 1.799109-.954406.290625-.248976.567411-.511784.851117-.760759.290625-.248976.58817-.491036.920313-.670852.387501-.159067.775001-.380379 1.162502-.532531.40134-.159068.837278-.255892 1.252457-.110656l.138393.048412-.041518.131404c-.138393.435707-.352903.836835-.588171 1.217215-.235268.373463-.498214.733095-.740402 1.106558-.221429.338884-.429019.684683-.567412 1.044315.858037-1.078895 1.930583-1.237963 3.072325-1.002819-.055357-.10374-.103794-.186732-.152232-.27664-.048438-.103739-.089955-.214395-.103795-.331967-.041518-.262808.062277-.511784.39442-.670851.920314-.013832 1.709154.13832 2.470316.359631.747322.221312 1.466966.511784 2.17969.788423.615848.567112 1.293974.878331 1.992859 1.161887.352902.145236.705804.283555 1.044867.442623.345983.159068.685046.338884 1.00335.567112l.062276.110655c.041518.491036-.256027.740012-.574331.899079-.145312.06916-.311384.131404-.463616.193648l-.166072.06916.221429.110656c.152232.06916.304465.13832.449777.214396.304465.152151.59509.345799.80268.670851l.069196.110656-.096875.082992c-.518974.435707-1.044867.518699-1.563841.511783-.249107-.006916-.512054-.03458-.775001-.048412-.214509-.013832-.442857-.020748-.671206.006916.089956.13832.179911.20748.297545.290472l.172991.131403c.062277.048412.117634.096824.172992.152152.103794.117572.19375.255892.19375.442624l-.055357.110656c-1.100225.94749-2.38728 1.473106-3.736612 1.811989l-.131473-.03458c-.20067-.186731-.262947-.380379-.214509-.580943.020759-.089908.062277-.1729.103795-.248976.041517-.06916.096875-.138319.145312-.207479.186831-.255892.290626-.408044.124554-.615524-.719644.13832-1.287055-.103739-1.806029-.325051-.131473-.055328-.262947-.117572-.40134-.165984-.124553-.048412-.256027-.089908-.3875-.124488-.20759-.048412-.422099-.06916-.650447-.03458.152232.338884.456697.601691.809599.892163.18683.159068.3875.331968.553572.518699.166072.193648.304465.408044.366741.677768l.034599.138319-.145313.03458c-.567411.13832-1.204019.048412-1.78527-.096823-.366741-.089908-.719644-.200564-1.044867-.304304l1.550002 1.542266c-.103795.574027-.477456.746927-.851117.836835-.179911.041496-.373662.06916-.553572.10374-.186831.03458-.339063.06916-.470537.131404l-.089955.013832c-.968751-.145236-1.902904-.373464-2.601789-1.224131-.59509-.463371-.78192-1.092727-.830358-1.749746-.034598-.511783.013839-1.065062.013839-1.597594-.179911.221312-.373661.470288-.560491.726179.034598.03458.069196.076076.110714.124488l.062277.082992-.055357.082992c-.588171.919827-.98951 2.157789-.435938 3.160608.283705.650103.809599 1.272543 1.487725 1.445442 2.17277.325052 4.15871-.795339 6.027015-1.881149 1.072546-.435708 1.97902-.20748 2.816298.193647.415179.193648.809599.435708 1.210939.663936.39442.228227.78884.435707 1.18326.580943.152233.076076.290626.214396.345983.373463.020759.055328.034598.10374.027678.159068.518974.006916 1.127904-.10374 1.550002.062244.657367-.532531 1.515404-.553279 2.331923-.539447.415179.013832.830358.03458 1.231697.006916.39442-.020748.754242-.082992 1.072546-.24206.567412-.159068.615849-.484119.518974-.912911-.055357-.235143-.145313-.470287-.221429-.698515-.069196-.228228-.138393-.470287-.117634-.684683l.020759-.159068.152232.03458c.103795.020748.179911.048412.262947.082992.678126-.816087 1.217859-2.323773 1.1971-3.333508-.069197.193648-.20067.38038-.380581.567111l-.304465.304304-.103795-.13832c-.048437-.076076-.076116-.165984-.096875-.255891-.020759.055327-.062276.110655-.131473.165983-.20067.117572-.373661.186732-.532813.24206-.138393.048412-.276786.089908-.39442.145236-.20067.089908-.332143.20748-.359822.518699l-.013839.193648-.186831-.06916c-.59509-.235144-.754242-.740011-.837278-1.237962-.041518-.24206-.062276-.491036-.103794-.733096-.041518-.228227-.096875-.428791-.193751-.594775-.754242-.753843-1.314733-1.583762-1.695314-2.531253l-.138393-.345799.339063.159068c.083036.041496.172991.076076.262947.103739-.228349-.242059-.435938-.470287-.60201-.691599l-.117634-.020748-.096875-.062244c-.103795-.131403-.242188-.269723-.40826-.421875l-.249107-.228228c-.083036-.076076-.166072-.159068-.242188-.242059-.311384-.338884-.560491-.76076-.3875-1.279459l.103795-.096824c1.536162-.463371 3.279914 0 4.663844.636271.166072.248976.297545.428792.442858.62244.152232.193647.297545.387295.429018.587859l.055357.096824.055357-.145236c.034599-.165984.020759-.366548-.069196-.560195l-.172991.165984-.048438-.269724c-.055357-.255892-.159152-.491036-.297545-.733095-.138393-.235144-.304464-.470288-.463616-.698515-.325224-.463372-.650448-.968239-.691965-1.590678l.020758-.200564c-.249107-.41496-.477455-.802255-.657366-1.127307l-.172992.013832-.117634-.048412c-.456697-.504867-.996429-.712347-1.591519-.781507-.297545-.041496-.615849-.041496-.927234-.027664-.325223.013832-.650447.041496-.968751.06916-1.280135.096824-2.608708.117572-3.439066-1.334786-1.18326-.131404-2.338842-.193648-3.459825-.165984zm-73.09227 2.863221c-.505134.048411-.78884.491035-1.079465 1.05123-.110715.221312-.221429.44954-.339063.670851-.124554.221312-.256027.442624-.415179.636272-.297545.359631-.691965.629355-1.245537.643187-.048438.477203.145312.843751.401339 1.237962.124554.013832.235268-.006916.339063-.048412.138393-.041496.262947-.10374.40826-.145236 1.259376-.795339 2.802458-2.060965 3.300673-3.451079l-.359822-.297388c-.304464-.1729-.560492-.262808-.78192-.290472-.083036-.013831-.159152-.013831-.228349-.006915zm2.927012 4.12193c-.207589-.006916-.415179 0-.622768.006916-.99643.062244-1.972101.338884-2.740182.802255-.304464.442624-.020759 1.071979.40826 1.348619 1.037947.331967 2.103573.221311 3.224557.027664.567411-.089908 1.141742-.20748 1.722993-.283556.539733-.076076 1.079465-.124488 1.626118-.10374-.768082-1.18955-2.172771-1.74283-3.618978-1.798158zm83.243398.560196c.138393.304303.228349.663935.089956 1.065062.408259.304304.712724.55328.809599.698516l.539732.179815c-.249107-.781507-.712724-1.46619-1.439287-1.943393zm1.529243 16.18342h.013839c-.083036.006916-.166071.027664-.235268.06916-.069196 1.50077-.858037 2.842472-1.826788 3.776131l-.089955.082992-.096875-.06916c-.297545-.214396-.429019-.491036-.518974-.753843-.041518-.124488-.076116-.255892-.110714-.38038l-.055358-.1729-.657367.463372c-.352902-.159068-.422098-.401128-.463616-.580943-.020759-.082992-.034598-.159068-.062277-.235144-.179911.255892-.366741.491035-.512054.746927-.166072.283556-.269866.580943-.249108.933659.186831.394211.311385.325051.636608-.020748l.249108-.269724c.076116-.096824.166071-.186732.262946-.269723.186831-.159068.422099-.297388.691966-.248976l.103794.06916c.567412.905995.477456 2.379101.138393 3.368088.249108.124487.352903.311219.387501.539447.020759.110656.020759.24206.013839.373463 0 .096824-.00692.200564 0 .304304.221429.10374.442858.193648.671206.27664h.00692c.449777.165984.920313.304303 1.370091.463371.719643.269724 1.432367.601691 2.034377 1.217215l.027679.145235c-.020759.082992-.048438.145236-.089956.20748 2.760941-.864499 4.470094-.200564 5.210497 3.077616.761162 3.395752 1.937502 4.405487 3.272995 4.744371l-.020759-.027664-.041518-.117572c.041518-.3458.159152-.670851.3875-.954407.269867-.580943.193751-1.39703-.235268-1.860402-.235268-.608607-.166071-1.300206.256027-1.722082.39442-.428791.913394-.580943 1.439288-.636271.470536-.055328.961831-.027664 1.404689-.03458-.062277-.055328-.103795-.06916-.152233-.096824-.048437-.020748-.103794-.041496-.138393-.06916-1.674555-.235143-3.245316.580944-4.290183 1.991806l-.069196.089908-.110715-.048412c-.823438-.359632-1.120983-1.009735-1.210939-1.735914-.041518-.352716-.034598-.726179-.013839-1.106559.013839-.366547.055357-.740011.062277-1.092726-.172991-.456456-.567412-.705431-1.079466-.878331-.532813-.179816-1.141742-.262808-1.639957-.408044-.117634-.062244-.242188-.096824-.3875-.13832-.145313-.034579-.290626-.076075-.435938-.138319-.283706-.117572-.539733-.331968-.463617-.781507.027679-.027664.048438-.055328.076116-.082992.512054-.491036 1.093305-.650103 1.653797-.788423.297545-.06916.58817-.145236.864956-.248976.235268-.082992.449777-.186732.650447-.331968l-.069196-.089907c-.740403-.076076-1.550002-.179816-2.352681-.228228-.816519-.041496-1.619199-.027664-2.318083.152152l-.089956.027664c-.089955-.110656-.131473-.152152-.179911-.193648l-.131473-.131404c-.096875-.089908-.20067-.214396-.228349-.373464 0-.491035.290626-.760759.581251-.954406.152232-.096824.297545-.179816.449777-.262808.096875-.055328.179911-.110656.249108-.165984l-.567412-.726179.138393-.082992c.512055-.304303 1.058707-.318135 1.59152-.269723.415179.041495.851117.131403 1.259376.159067-.290625-.387295-.712724-.567111-1.190179-.643187-.290626-.041496-.588171-.048412-.878796-.048412-.304465 0-.59509.006916-.851117 0-.179911.013832-.352902.089908-.518974.186732-.179911.110656-.352902.235144-.532813.3458-.345983.235143-.768081.442623-1.252457.152151l-.103795-.062244.034599-.117571c.172991-.48412.422098-.940575.602009-1.417779.179911-.470287.283706-.954407.179911-1.507686-.020759-.262808-.221429-.408043-.449777-.387295zm-39.871027 3.257432c-.588171 1.50077-.98951 3.091448-1.224779 4.751286l1.937503-.006916c-.076116-.304304-.152233-.615524-.228349-.926743-.089955-.740011-.159152-1.493854-.242188-2.220033-.062276-.55328-.138393-1.092727-.242187-1.597594zm-3.397549 3.077616c-.415179.497951-.754242 1.071978-1.037947 1.67367l.38058-.006916c.069197-.145236.131474-.290472.20067-.435708.19375-.428791.366742-.836835.456697-1.231046zm10.614744 16.522303c.484376.27664.961832.560196 1.446207.816087.691965.359632 1.39085.643188 2.117413.746927l-1.293974-1.300206c-.60893.062244-1.169421-.013832-1.709154-.131404-.186831-.041496-.373661-.082992-.560492-.131404zm0 0" fill="#f8992e" stroke="#f8992e" stroke-width=".3" transform="scale(.564515 .564814)"/><path d="m33.222656 8.144531-.097656.101563c-2.761719 2.910156-1.988281 8.117187-.472656 11.308594l.066406.144531.078125-.136719c.125-.214844.179687-.46875.203125-.722656.023438-.246094.019531-.503906.015625-.738282-.339844-1.914062-.535156-3.625-.0625-5.605468.050781-.191406.121094-.371094.203125-.546875.078125-.183594.167969-.359375.25-.539063.160156-.367187.304688-.75.304688-1.199218v-.054688l-.050782-.023438c-.316406-.144531-.378906-.429687-.375-.789062.003906-.179688.023438-.371094.03125-.546875.003906-.183594 0-.363281-.050781-.519531zm17.085938 2.019531c-.777344.015626-1.488282.390626-2.050782.953126l-.023437.058593c0 .117188.023437.230469.136719.316407l.085937.011718c.921875-.433594 2.324219-.472656 3.25-.164062l.070313.019531.03125-.0625c.050781-.101563.007812-.183594-.023438-.238281-.015625-.019532-.027344-.039063-.042968-.0625-.007813-.015625-.007813-.023438-.007813-.0625l-.628906-.65625c-.269531-.082032-.535157-.117188-.796875-.113282zm2.039062.101563-.117187.453125c.160156.222656.3125.476562.488281.703125.175781.234375.386719.449219.652344.582031l.074218.035156.035157-.070312c.207031-.371094.527343-.410156.902343-.351562.191407.03125.386719.082031.574219.125.191407.042968.382813.078124.554688.0625l.128906-.015626-.0625-.109374c-.328125-.570313-.835937-.878907-1.402344-1.066407-.277343-.09375-.574219-.15625-.875-.207031-.296875-.050781-.597656-.089844-.882812-.132812zm-3.015625 1.265625-.046875.011719c-.0625.03125-.136718.058593-.21875.085937-.085937.03125-.171875.054688-.253906.089844-.160156.066406-.328125.175781-.367188.386719l-.015624.074219.074218.019531c.242188.066406.515625.085937.800782.097656.28125.007813.578124.011719.867187.03125.582031.042969 1.109375.164063 1.496094.625.070312.019531.152343.050781.234375.078125.085937.03125.175781.058594.265625.074219.1875.03125.386719.007812.550781-.175781l.015625-.078126c-.21875-.777343-.78125-1.074218-1.425781-1.191406-.628906-.117187-1.355469-.066406-1.976563-.128906zm-24.53125.933594-.066406.046875c-.175781.125-.242187.347656-.28125.558593-.039063.210938-.054687.445313-.109375.652344-.3125 2.921875-.109375 6.074219 1.816406 8.304688l.050782-.015625c.601562-.183594 1.027343.125 1.460937.539062l.328125.3125c.113281.105469.226562.207031.34375.296875.238281.183594.5.328125.8125.363282l.140625.015624-.058594-.132812c-1.058593-2.433594-2.234375-4.816406-2.972656-7.433594-.089844-.277344-.132813-.585937-.183594-.886718-.054687-.304688-.117187-.613282-.285156-.933594h-.050781c-.390625.011718-.519532-.1875-.585938-.464844-.035156-.148438-.046875-.3125-.0625-.472656-.019531-.164063-.039062-.332032-.09375-.488282zm26.105469 5.453125.265625.257812c.480469.464844 1.503906 1.007813 2.390625.964844l.070312-.042969c.121094-.246094.042969-.550781-.066406-.769531l-.027344-.054687-.0625.011718c-.753906.140625-1.535156-.019531-2.21875-.25zm0 0" fill="#0d3182"/><path d="m40.902344 9.273438c-.226563 0-.441406.054687-.621094.203124-.175781.148438-.246094.347657-.277344.570313-.03125.234375-.019531.484375-.050781.714844.023437.9375.78125 1.816406 1.507813 2.230469l.015624-.101563c.039063-.207031.027344-.414063-.007812-.617187-.035156-.210938-.089844-.417969-.140625-.617188-.09375-.40625-.164063-.828125.085937-1.238281.195313-.1875.382813-.152344.542969-.074219.078125.035156.152344.085938.226563.136719.070312.046875.132812.089843.195312.117187.09375.070313.128906.050782.1875-.035156.03125-.046875.066406-.109375.097656-.160156.019532-.03125.042969-.066406.066407-.09375-.320313-.394532-.710938-.75-1.128907-.921875-.234374-.0625-.472656-.117188-.699218-.113281zm15.617187.859374c-.402343.027344-.835937.148438-1.203125.195313.097656.183594.226563.402344.371094.632813l.09375.03125c.261719.082031.460938-.027344.679688-.191407.113281-.082031.226562-.175781.339843-.25.125-.082031.253907-.148437.40625-.171875l.070313-.007812.140625.378906c-.085938.390625-.152344.777344-.261719 1.132812-.113281.355469-.269531.691407-.523438.945313.035157.125.042969.238281.027344.332031.175782-.449218.367188-.847656.53125-1.269531.164063-.429687.289063-.875.304688-1.363281-.210938-.351563-.558594-.425782-.976563-.394532zm-13.667969 2.246094c-.21875.574219-.21875 1.273438-.089843 1.882813 0 .601562-.378907 1.082031-.832031 1.40625-.261719.132812-.550782.003906-.738282-.101563l-.039062-.058594c-.121094-.660156-.277344-1.332031-.726563-1.792968-1.191406 1.707031-1.46875 4.035156-1.019531 6.1875l-.007812.058594c-.046876.074218-.097657.117187-.148438.136718l.070312.324219.230469.09375c.1875 1.652344.824219 3.09375 2.070313 4.246094h.070312c.261719-.429688.4375-.902344.578125-1.394531.144531-.507813.253907-1.039063.390625-1.5625l.03125-.117188.097656.070312c.597657.441407 1.082032 1.152344 1.484376 1.804688l.023437-.089844c.023437-.085937.042969-.175781.066406-.265625.050781-.179687.117188-.363281.269531-.515625l.046876-.046875.054687.03125c.296875.1875.523437.445313.714844.722657.179687.265624.332031.558593.476562.835937 1.78125.722656 3.597657 2.226563 4.609375 3.988281 1.128906.605469 2.800782.621094 3.988282.132813.539062-.308594.875-.859375.953124-1.441407-1.664062-.578124-3.628906-.511718-5.3125-.019531l-.0625.019531-.03125-.054687c-.398437-.648437-.808593-1.328125-1.28125-1.980469-.472656-.652344-1.015624-1.273437-1.679687-1.8125-.1875-.523437.046875-.917968.296875-1.277344.121094-.175781.257812-.355468.359375-.542968.097656-.179688.164063-.359375.171875-.554688-.054688-.097656-.113281-.09375-.210938-.070312-.066406.015625-.132812.042968-.199218.050781-.070313.011719-.148438.011719-.226563-.015625-.296875.0625-.527343.242188-.726562.476562-.105469.121094-.199219.257813-.289063.394532-.089844.136718-.179687.277344-.269531.410156-.230469.234375-.449219.148438-.613281.011719-.078125-.066407-.144532-.148438-.207032-.222657l-.082031-.105468c-.128906.070312-.203125.191406-.265625.335937-.035156.085938-.070312.171875-.105468.257813-.039063.089844-.078126.179687-.125.261718l-.058594.09375-.074219-.078124c-.941406-.984376-1.367187-2.4375-1.21875-3.882813.175781-.746094.714844-1.4375 1.378906-1.882813.105469-.019531.175781-.042968.253907-.074218.082031-.035156.164062-.074219.242187-.097656.152344-.054688.324219-.066407.476563.078124.105468-.148437.214843-.285156.316406-.410156 0-.0625-.003906-.125-.003906-.183594-.179688-.140624-.375-.242187-.585938-.332031-.226562-.09375-.460938-.171875-.695312-.253906-.46875-.167969-.945313-.367187-1.320313-.804687-.578125-.613282-.589844-1.515626-.476563-2.269532zm5.488282.699219c-.472656-.011719-.902344.152344-1.265625.609375-.09375.230469-.140625.476562-.121094.746094.023437.097656.074219.125.167969.148437.054687.011719.117187.019531.171875.039063.046875.011718.097656.035156.144531.070312 1.257812-.296875 2.851562-.476562 4.082031.101563-.035156-.089844-.089843-.175781-.160156-.261719-.058594-.066406-.117187-.128906-.183594-.191406l-.195312-.191406c-.140625-.140626-.304688-.234376-.484375-.304688-.179688-.074219-.371094-.121094-.5625-.167969-.386719-.097656-.800782-.199219-1.113282-.535156-.164062-.039063-.324218-.0625-.480468-.0625zm6.859375.074219c-.074219-.007813-.144531-.003906-.222657.007812.011719.007813.027344.015625.046876.023438.027343.011718.054687.019531.085937.023437l.105469.019531c.148437.027344.332031.085938.332031.359376v.054687l-.050781.023437c-.226563.105469-.464844.0625-.679688-.007812-.109375-.035156-.214844-.078125-.320312-.113281-.082032-.03125-.160156-.054688-.238282-.070313.097657.121094.210938.253906.339844.390625.074219.023438.152344.039063.238282.058594.144531.03125.292968.054687.433593.09375.273438.070313.539063.195313.65625.507813.078125.019531.148438.007812.214844-.011719.039063-.015625.078125-.035157.117187-.054688.042969-.023437.082032-.046875.121094-.070312.167969-.101563.367188-.214844.632813-.078125l.039062.050781c.082031.285156.246094.578125.320313.871094.050781.203125.0625.410156-.023438.613281.011719.570312-.292968 1.421875-.675781 1.882812.339844.148438.542969.523438.664063.796876.257812.621093.175781 1.171874-.042969 1.671874-.113281.25-.253907.488282-.40625.714844-.140625.21875-.292969.429688-.433594.640625.019531.085938.082031.125.179687.144531.0625.011719.125.011719.1875.011719l.160157-.003906c.769531-.699219 1.230469-1.613281 1.3125-2.652344.050781-.246093 0-.453125-.101563-.648437-.058594-.097656-.121094-.191406-.191406-.285156-.074219-.097657-.148438-.191407-.226562-.285157-.292969-.375-.578126-.792969-.230469-1.363281.132812-.6875.152343-1.4375-.058594-2.070312l-.304687-.101563c-.0625-.082031-.226563-.222656-.457032-.394531-.011718.027344-.023437.050781-.035156.078125l-.03125.074219-.074219-.035157c-.148437-.070312-.28125-.167969-.410156-.273437-.128906-.101563-.253906-.214844-.386719-.316406-.183594-.140626-.375-.25-.585937-.277344zm-14.890625 1.863281.09375.136719c.292968.4375.800781 1 1.351562 1.121094.316406.078124.539063-.011719.753906-.148438.113282-.070312.21875-.148438.332032-.222656.113281-.078125.238281-.148438.378906-.195313l.074219-.023437.027343.074218c.109376.277344.015626.511719-.09375.714844-.054687.097656-.113281.195313-.164062.296875-.046875.097657-.082031.1875-.089844.285157-.273437 1.132812-.335937 2.484374-.148437 3.667968l.007812.0625-.058593.027344c-1.042969.460938-1.375 1.589844-1.414063 2.695312l-.003906.078126h-.28125l-.023438-.046876c-1.09375-2.441406-1.75-5.632812-.796875-8.367187zm9.371094.226563-.042969.460937c.042969.085937.148437.253906.292969.1875.355468.128906.375-.371094.355468-.394531l-.34375.386718c-.253906-.085937-.261718-.429687-.15625-.640624zm-.464844.148437-.144532.144531c.03125.042969.054688.074219.082032.09375.027344.019532.054687.03125.097656.042969-.023438-.082031.074219-.21875-.03125-.28125zm7.546875.050781c-.039063.027344-.054688.070313-.066407.140625-.007812.046875-.011718.09375-.023437.140625-.003906.027344-.015625.058594-.027344.089844.0625.050781.09375.074219.125.097656.027344.019532.050781.042969.066407.074219v-.25c.003906-.085937 0-.15625-.015626-.214844-.011718-.035156-.03125-.0625-.058593-.078125zm-.441407.054688-.105468.25h.105468zm-.3125.039062c.019532.105469-.042968.273438.105469.253906zm-5.113281.105469c-.042969.105469-.191406.253906-.0625.316406l.070313-.074219c-.007813-.03125.007812-.09375.019531-.144531.003906-.027343.007813-.050781.007813-.070312-.003907-.015625-.015626-.027344-.035157-.027344zm-.578125 3.546875c-.070312.003906-.136718.011719-.207031.027344.34375.121094.699219.160156 1.039063.230468.355468.078126.707031.199219.996093.476563.078125.230469-.011719.367187-.15625.464844l-.058593.011719c-.359376-.050782-.71875-.140626-1.074219-.222657-.3125-.070312-.621094-.136719-.925781-.164062.34375.101562.710937.179687 1.078124.269531.398438.097656.804688.207031 1.175782.378906l.0625.027344-.011719.0625c-.023437.140625-.097656.292969-.246094.390625l-.0625.011719c-.355469-.0625-.714843-.152344-1.078125-.21875-.332031-.058594-.660156-.097656-.980468-.078125v.066406c.15625.035156.316406.054687.480468.070313.191406.011718.390625.019531.582032.03125.386718.027343.777343.082031 1.101562.292968.242188.183594.09375.421875-.035156.53125l-1.773438-.082031c-.054687.050781-.078125.070313-.097656.085937.3125.101563.675781.105469 1.054688.101563.199218-.003906.394531-.007813.589843-.003906.199219.003906.394531.015625.582031.046875l.257813.171875-.367187.433593c.066406.257813.125.515626.214843.761719.078125.203125.179688.394531.332031.5625.085938-.457031.222657-.917969.558594-1.292969l.0625-.027343c.199219 0 .285156.148437.332032.28125.023437.0625.039062.132812.0625.199219l.203124-.496094.070313.015625c.183594.046875.21875.214843.238281.332031.011719.058594.019532.121094.035156.179688l.273438-.527344.0625.015625c.203125.054687.261719.207031.285156.347656.011719.058594.015625.117187.019532.179687l.289062-.441406.058594.019532c.089844.03125.144531.089843.179687.160156.03125.070312.046875.148437.054688.21875.011719.066406.019531.140625.035156.207031l.390625-.65625c-.914062-.21875-1.941406-.257813-2.796875-.226563l-.226563-.113281c-.058593-.292969.078126-.445312.203126-.574219.429687-.125.894531-.152343 1.308593-.25.296875-.066406.554688-.164062.730469-.347656-.046875.023438-.101562.042969-.152344.058594-.152344.050781-.316406.078125-.488281.027344l-.082031-.023438.027344-.082031c.132812-.375-.019532-.546875-.25-.71875.050781.082031.089843.167969.117187.257813l.019531.070312-.0625.03125c-.042968.019531-.082031.046875-.125.070312-.042968.027344-.09375.054688-.148437.078126-.109375.042968-.242188.050781-.367188-.058594-.289062-.308594-.429687-.652344-.339843-1.125l.023437-.121094.105469.066406c.0625.039063.128906.082032.195312.132813-.019531-.070313-.03125-.148438-.03125-.234375l.027344-.058594c-.21875-.109375-.5625-.046875-.855469-.050781-.003906.074219-.046875.148437-.148437.191406-.261719.09375-.566406-.042969-.765625-.144531-.324219-.042969-.648438-.15625-.972657-.234375-.214843-.050781-.421874-.085938-.628906-.074219zm5.835938 3.492188c.054687.214843.089844.449218.136718.671874.039063.171876.082032.335938.144532.480469.164062-.292969.265625-.609375.335937-.949219-.195312-.078124-.402343-.144531-.617187-.203124zm-6.164063.835937c-.070312-.003906-.128906.027344-.183593.101563 0 .292968.15625.4375.382812.546874.121094.0625.253906.109376.382812.164063.105469.042969.210938.089844.304688.148437l.550781-.761718.300781.269531c-.019531-.027344-.042968-.054687-.066406-.082031-.050781-.054688-.101562-.109375-.148437-.167969-.035157-.039063-.074219-.078125-.105469-.125l-.488281.226563c-.132813.027343-.257813-.011719-.367188-.058594-.105469-.050782-.210937-.117188-.316406-.175782-.097656-.050781-.175781-.085937-.246094-.085937zm1.480469.988281c-.230469.351563-.273438.777344-.246094 1.25.457032-.074218.933594-.117187 1.414063-.121094-.058594-.046874-.097657-.105468-.132813-.164062-.019531-.039062-.035156-.078125-.050781-.121094l-.039063-.121094c-.039062-.125-.074218-.222656-.140624-.292968l-.03125.09375c-.023438.074218-.039063.148437-.066407.21875-.046875.148437-.125.296875-.300781.386718l-.09375.046876-.023438-.101563c-.054687-.199219-.089843-.40625-.140624-.617187-.039063-.160157-.085938-.3125-.148438-.457032zm4.070312.4375c-.042968.042969-.082031.09375-.121093.144532-.0625.082031-.117188.171874-.175781.253906-.113282.171875-.246094.347656-.457032.441406l-.058594.027344c-.085937-.097656-.113281-.15625-.136718-.214844-.019532-.050781-.03125-.109375-.046875-.164062-.015625-.0625-.027344-.121094-.050781-.171876-.085938.128907-.179688.257813-.257813.386719l-.078125.039063c-.1875-.015625-.242188-.15625-.261719-.277344-.011719-.054688-.019531-.113281-.027343-.167969l-.347657.421875c.667969.050782 1.324219.167969 1.925781.339844.046876-.175781.101563-.375.125-.570312.023438-.183594.019532-.351563-.03125-.488282zm-2.441406.171875-.28125.519531c.160156 0 .324219.007813.484375.015626-.019531-.046876-.039062-.089844-.058593-.132813-.023438-.066406-.042969-.128906-.0625-.191406-.023438-.074219-.050782-.148438-.082032-.210938zm-9.757812 1.992188c-.136719.035156-.238282.164062-.347656.257812-.585938.480469-.566407 1.320313-.398438 1.972657.230469.3125.398438.984374.902344.855468v-3.082031c-.058594-.015625-.109375-.011719-.15625-.003906zm16.183594.8125c-.316407.003906-.667969.070312-1.0625.195312-.113282.1875-.328126.257813-.53125.300781-.113282.027344-.234376.042969-.347657.074219.320313.039063.679688.0625 1.007813.136719.425781.09375.8125.285156.972656.722656-.050781.472656-.453125.417969-.65625.273438-.4375-.101563-.925781-.078125-1.105469.289062-.089843.3125-.027343.664063.226563.867188.253906.292968.585937.402344.957031.433594.1875.015624.378906.011718.570313-.003907.199218-.011719.390624-.03125.570312-.046875l.074219.027344c.222656.253906.242187.5625.238281.859375 0 .148437-.011719.300781-.011719.453125 0 .148438.003907.296875.039063.433594.117187.308594.332031.5625.585937.800781.253907.238281.550781.457031.820313.6875.535156.453125 1 .972656.871094 1.820313.222656.195312.511718.292968.789062.230468-.203125-.359375-.414062-.714844-.566406-1.09375-.164063-.417968-.277344-.867187-.253906-1.375.035156-.269531.183593-.46875.355468-.632812.160156-.15625.351563-.292969.515625-.457032.042969-.128906.003907-.164062-.039062-.199218-.023438-.011719-.039063-.023438-.0625-.035156l-.078125-.039063c-.046875-.027344-.101563-.0625-.148438-.109375-.757812-.191406-1.417968-.765625-1.851562-2.683594-.308594-1.386718-.929688-1.945312-1.878906-1.929687zm5.175781 2.242187c-.101563-.011718-.207031-.003906-.304688.007813l-.128906.058593c-.050781.023438-.089844.042969-.125.066407-.066406.042969-.101563.089843-.089844.167969.152344.308593.183594.605468.175781.898437-.011718.246094-.058593.488281-.109374.730469.289062-.082032.554687-.210938.796874-.402344.113282-.171875.242188-.335938.34375-.511719.097657-.171875.160157-.351562.140626-.570312-.085938-.285157-.390626-.421875-.699219-.445313zm1.542969.25c-.042969.289063.109374.433594.347656.570313.136718.074219.28125.136719.417968.214843.066407.039063.136719.078126.199219.125l-.046875-.296874c-.265625-.328126-.585937-.65625-.917968-.613282zm-19.46875 1.128906c-.027344.011719-.035157.035157-.03125.085938 0 .035156.007812.074219.007812.113281.003906.027344.003906.0625 0 .097657.015625.03125.03125.066406.046875.105468l.058594.148438c.035156.101562.074219.203125.121093.289062.085938.152344.1875.230469.398438.109375.433594-.144531.917969-.324219 1.078125-.59375-.25-.09375-.515625-.15625-.785156-.210937-.296875-.054688-.597657-.09375-.894531-.144532zm19.714843.039063c-.128906.015625-.195312.101563-.230469.222656-.035156.128907-.023437.28125-.007812.390625-.078125.449219-.488281.785156-.839844.910156.015625.011719.035156.023438.058594.042969.410156.230469 1.054688.167969 1.402344-.140625.304687-.253906.40625-.632812.289062-.980468-.117187-.265626-.378906-.464844-.671875-.445313zm-.847656.207031-.320313.476563c.015626.039062.054688.066406.105469.058593.0625-.089843.136719-.207031.175781-.328124.027344-.074219.046876-.144532.039063-.207032zm-17.042969 1.660156c-.535156.164063-1.160156.171876-1.703125.007813-.152343.167969-.242187.355469-.195312.589844.039062.070312.09375.152343.160156.207031s.140625.078125.230469.039062c.617187-.105468 1.320312-.269531 1.507812-.84375zm18.210938.320313c-.050782.007813-.082032.0625-.117188.125-.050781.09375-.089844.207031-.140625.308594-.050781.105469-.117187.21875-.230469.277343-.050781.042969-.121093.085938-.175781.121094l-.191406.105469c-.085937.050781-.152344.09375-.203125.140625.308594.171875.6875.261719 1.042969.15625.324219-.097656.59375-.410156.554687-.746094l-.277344-.335937c-.125-.121094-.203124-.160157-.261718-.152344zm-20.179688 1.347656c-.085937-.003906-.167968.019531-.242187.089844-.015625.148437-.0625.300781-.085938.449219-.019531.132812-.015625.246094.046875.34375.167969-.011719.34375.003906.515625.007812.183594.003906.34375-.015625.46875-.09375.242188-.140625.53125-.339844.683594-.59375-.117187.03125-.203125.042969-.300781.035156-.144532.03125-.285156.011719-.414063-.023437-.128906-.035156-.25-.089844-.371093-.136719-.113282-.042968-.210938-.074218-.296876-.078125zm20.3125.75c-.238281 0-.492187.144531-.632812.445313-.085938.089844-.171875.121094-.242188.144531-.082031.023437-.160156.042969-.234375.0625-.132812.039063-.179687.070313-.183593.132813.304687.429687.824218.445312 1.3125.363281.265624-.144531.542968-.40625.492187-.722657-.0625-.28125-.277344-.425781-.511719-.425781zm-2.367187.953125c-.113281 0-.242188.039063-.382813.09375-.199218.074219-.40625.171875-.617187.222656-.132813.03125-.273438.046876-.417969.019532.316406.429687.886719.605468 1.476562.613281.054688-.046875.117188-.078125.171876-.105469l.097656-.050781c.027344-.015625.050781-.03125.078125-.046875.074219-.054688.125-.121094.0625-.296875-.117188-.335937-.277344-.445313-.46875-.449219zm-18.707031.121094c-.1875.105469-.304688.300781-.332032.515625.164063.121094.375.171875.605469.191406.25.019531.503906.007813.71875.015625.265625-.082031.535156-.265625.65625-.464844-.574219.222657-1.167969-.023437-1.648437-.257812zm-.789063 1.03125c-.125.015625-.238281.105469-.355469.3125l-.054687.160156c-.019531.058594-.035157.121094-.042969.179688-.015625.109375.007812.167968.082031.195312.570313.050782 1.230469-.015625 1.601563-.402344-.128906.003907-.246094-.023437-.359375-.066406-.089844-.035156-.171875-.078125-.257813-.125-.078125-.046875-.15625-.09375-.230468-.132812-.140626-.078125-.265626-.132813-.382813-.121094zm0 0" fill="#fff"/></svg>