<svg height="43pt" viewBox="0 0 69 43" width="69pt" xmlns="http://www.w3.org/2000/svg"><path d="m49.660156.152344.050782 28.589844c0 1.832031 0 7.40625-13.898438 7.429687h-2.613281c-13.898438-.027344-13.898438-5.597656-13.898438-7.429687l.050781-28.589844h-19.160156l.019532 32.878906c0 9.097656 25.253906 9.804688 32.996093 9.804688h2.601563c7.738281 0 32.996094-.707032 32.996094-9.800782l.015624-32.882812zm0 0" fill="#fff"/><path d="m51.136719 28.742188.007812-27.195313h16.25s-.019531 30.398437-.019531 31.488281c0 5.96875-16.226562 8.359375-31.570312 8.359375 0-.75.007812-2.597656.007812-3.785156 7.679688-.011719 15.324219-1.652344 15.324219-8.867187" fill="#005030"/><path d="m17.875 28.742188-.007812-27.195313h-16.25s.019531 30.398437.019531 31.488281c0 5.96875 16.226562 8.359375 31.570312 8.359375 0-.75-.007812-2.597656-.007812-3.785156-7.679688-.011719-15.324219-1.652344-15.324219-8.867187" fill="#f47321"/></svg>