<svg height="53pt" viewBox="0 0 69 53" width="69pt" xmlns="http://www.w3.org/2000/svg"><path d="m45.738281.546875h22.78125l-7.824219 13.03125h-1.34375l-.027343 25.945313h1.371093l7.824219 13.097656h-33.5625l7.796875-13.035156h1.398438l-.027344-8.214844-9.609375 16.617187-9.734375-16.746093v8.3125h1.371094l7.769531 13.066406h-33.445313l7.769532-13.066406h1.398437v-25.976563h-1.371093l-7.796876-13.03125h22.785157l11.238281 19.457031zm0 0"/><path d="m47.777344 43.136719h-2.953125l-3.410157 5.746093h20.742188l-3.351562-5.746093h-2.921876l-.03125-33.234375h2.894532l3.410156-5.804688h-14.253906l-13.371094 23.007813-13.3125-23.007813h-14.34375l3.441406 5.804688h2.894532l.027343 33.234375h-2.921875l-3.441406 5.746093h20.773438l-3.472657-5.777343h-2.894531l.03125-25.171875 13.203125 22.855468 13.234375-22.824218.03125 25.171875zm0 0" fill="#b61e2e"/></svg>