<svg height="50pt" viewBox="0 0 69 50" width="69pt" xmlns="http://www.w3.org/2000/svg"><path d="m48.070312.292969-13.507812 18.769531-13.488281-18.769531h-20.804688v14.746093h5.152344v20.125h-5.152344v14.746094h26.53125v-14.746094h-5.5v-11.550781l13.191407 18.226563 13.351562-18.242188v11.566406h-5.496094v14.746094h26.527344v-14.746094h-5.152344v-20.125h5.152344v-14.746093zm0 0" fill="#00274c"/><path d="m67.769531 13.925781v-12.527343h-19.136719l-14.074218 19.554687-14.050782-19.554687h-19.136718v12.527343h5.15625v22.34375h-5.15625v12.53125h24.324218v-12.53125h-5.5v-16.070312l14.296876 19.757812 14.457031-19.742187v16.054687h-5.5v12.53125h24.320312v-12.53125h-5.152343v-22.34375zm0 0" fill="#f5c300"/></svg>