<svg height="42pt" viewBox="0 0 70 42" width="70pt" xmlns="http://www.w3.org/2000/svg"><path d="m65.25 31.171875-12.132812-20.203125h3.34375v-10.527344h-20.195313v10.527344h3.34375l-4.636719 7.71875-4.632812-7.71875h3.339844v-10.527344h-20.191407v10.527344h3.339844l-12.128906 20.203125h-4.328125v10.527344h20.59375v-10.527344h-3.699219l6.320313-10.523437 2.449218 4.082031h-2.351562v10.527343h22.578125v-10.527343h-2.347657l2.449219-4.082031 6.320313 10.523437h-3.703125v10.527344h20.59375v-10.527344zm0 0" fill="#862334"/><path d="m55.097656 1.808594v7.828125h-4.378906l13.753906 22.902343h3.742188v7.832032h-17.898438v-7.832032h4.734375l-8.703125-14.492187-4.832031 8.050781h3.382813v7.828125h-19.882813v-7.828125h3.386719l-4.839844-8.050781-8.699219 14.492187h4.734375v7.828126h-17.898437v-7.828126h3.738281l13.753906-22.902343h-4.375v-7.828125h17.496094v7.828125h-4.375l7.015625 11.683593 7.015625-11.683593h-4.375v-7.828125zm0 0" fill="#fbb93c"/><path d="m53.75 3.160156v5.128906h-5.414062l15.375 25.601563h3.15625v5.128906h-15.207032v-5.128906h5.769532l-11.082032-18.457031-7.214844 12.011718h4.417969v5.132813h-17.1875v-5.132813h4.417969l-7.214844-12.011718-11.082031 18.457031h5.769531v5.128906h-15.207031v-5.128906h3.15625l15.375-25.601563h-5.414063v-5.128906h14.804688v5.128906h-5.410156l9.394531 15.652344 9.402344-15.652344h-5.410157v-5.128906zm0 0" fill="#862334"/></svg>