<svg height="43pt" viewBox="0 0 70 43" width="70pt" xmlns="http://www.w3.org/2000/svg"><path d="m10.230469.464844v6.492187l2.296875 3.703125s-6.570313 2.675782-10.949219 5.933594l2.660156 5.835938-3.871093 12.425781s3.355468-2.34375 7.488281-4.804688v5.46875s2.191406-1.40625 4.316406-2.464843l-1.9375 2.984374v6.652344h18.335937v-13.742187l6.335938 10.027343 6.339844-10.027343v13.742187h18.335937v-6.652344l-1.9375-2.984374c2.121094 1.058593 4.316407 2.464843 4.316407 2.464843v-5.46875c4.132812 2.460938 7.488281 4.804688 7.488281 4.804688l-3.871094-12.425781 2.65625-5.835938c-4.378906-3.257812-10.941406-5.933594-10.941406-5.933594l2.292969-3.699218v-6.496094h-16.722657l-6.210937 9.695312c-1.835938-.046875-3.488282 0-3.488282 0l-6.210937-9.695312h-16.726563zm54.0625 35.410156c-.917969 0-1.648438.71875-1.648438 1.609375 0 .914063.730469 1.625 1.648438 1.625.929687 0 1.644531-.710937 1.644531-1.625 0-.890625-.714844-1.609375-1.644531-1.609375zm0 .324219c.714843 0 1.230469.578125 1.230469 1.292969 0 .707031-.515626 1.277343-1.21875 1.277343-.722657 0-1.25-.570312-1.25-1.285156 0-.707031.527343-1.285156 1.238281-1.285156zm-.007813.472656c-.261718 0-.46875.019531-.617187.046875v1.609375h.371093v-.648437h.175782c.207031 0 .304687.078124.335937.257812.046875.183594.074219.332031.125.390625h.398438c-.039063-.058594-.066407-.15625-.117188-.402344-.046875-.214843-.136719-.335937-.292969-.394531v-.019531c.195313-.054688.332032-.195313.332032-.371094 0-.15625-.070313-.285156-.15625-.351563-.117188-.070312-.25-.117187-.554688-.117187zm-.03125.261719c.234375 0 .34375.101562.34375.246094 0 .167968-.167968.234374-.371094.234374h-.175781v-.457031c.039063-.011719.105469-.023437.203125-.023437zm0 0" fill="#aaa"/><path d="m67.078125 31.324219-2.816406-9.039063 2.367187-5.195312-.0625-.214844c-3.296875-2.179688-6.769531-3.953125-10.679687-5.449219v-1.160156l2.296875-3.703125v-4.683594h-14.554688l-5.644531 8.804688c-1.027344-.0625-2.054687-.097656-3.078125-.097656-1.019531 0-2.046875.035156-3.074219.097656l-5.644531-8.804688h-14.554688v4.683594l2.296876 3.703125v1.160156c-3.910157 1.496094-7.382813 3.269531-10.683594 5.449219l-.058594.214844 2.367188 5.195312-2.816407 9.039063.257813.199219c1.953125-1.292969 4.003906-2.46875 6.113281-3.535157v5.226563c1.523437-.90625 3.136719-1.730469 4.820313-2.472656v2.195312l-2.292969 3.523438v4.828124h15.53125v-14.285156c.5625-.082031 1.125-.152344 1.695312-.214844l6.042969 9.5625 6.046875-9.5625c.570313.0625 1.132813.132813 1.695313.214844v14.285156h15.53125v-4.828124l-2.292969-3.523438v-2.195312c1.683593.742187 3.296875 1.566406 4.820312 2.472656v-5.226563c2.105469 1.0625 4.15625 2.242188 6.113281 3.535157zm0 0" fill="#600"/><path d="m34.910156 12.3125c-8.199218 0-16.726562 2.121094-24.074218 5.964844v12.207031c7.402343-3.722656 15.898437-5.769531 24.074218-5.769531 8.175782 0 16.667969 2.046875 24.070313 5.769531v-12.207031c-7.351563-3.84375-15.875-5.964844-24.070313-5.964844zm-20.980468.78125c-3.191407 1.253906-6.085938 2.710938-8.835938 4.4375l2.117188 4.644531-1.890626 6.078125c1.234376-.710937 2.503907-1.378906 3.789063-2.007812v-8.914063l.089844-.152343.414062-.21875c1.398438-.75 2.839844-1.429688 4.316407-2.054688zm41.957031 0v1.8125c1.476562.621094 2.917969 1.304688 4.316406 2.054688l.410156.21875.09375.152343v8.914063c1.285157.628906 2.550781 1.296875 3.789063 2.007812l-1.894532-6.078125 2.117188-4.644531c-2.75-1.726562-5.640625-3.179688-8.832031-4.4375zm0 0" fill="#fff"/><path d="m35.3125 13.953125c-.707031-.007813-1.417969 0-2.117188.019531l-2.644531 7.476563s-.042969.113281-.042969.113281l-.125.011719-.597656.058593v1.535157c1.035156-.097657 2.078125-.167969 3.117188-.203125v-1.539063l-.441406.015625s-.292969.011719-.292969.011719l.511719-1.40625.128906-.007813c.882812-.03125 1.785156-.039062 2.675781-.027343h.136719s.488281 1.398437.484375 1.398437l-.277344-.003906-.445313-.007812v1.539062c1.09375.011719 2.195313.0625 3.289063.148438v-1.539063c-.234375-.015625-.453125-.03125-.65625-.046875l-.128906-.011719-.042969-.121093zm2.871094.117187v2.585938c.503906.03125 1.007812.074219 1.507812.125v-1.039062l.214844.019531c.421875.042969.839844.09375 1.238281.140625l.167969.023437v5.675781.21875l-.21875-.027343-.539062-.0625v1.535156c1.148437.132813 2.304687.304687 3.441406.515625v-1.535156l-.597656-.105469s-.15625-.03125-.160157-.03125v-5.898437l.226563.039062c.441406.078125.847656.152344 1.25.234375l.15625.027344v1.039062c.492187.101563.988281.207031 1.476562.324219v-2.578125c-2.679687-.625-5.421875-1.039063-8.164062-1.226563zm-7.859375.070313c-2.738281.234375-5.476563.695313-8.148438 1.371094v2.578125c.492188-.125.984375-.242188 1.476563-.347656v-1.039063l.152344-.035156c.394531-.085938.792968-.164063 1.222656-.25l.234375-.042969v5.738281s0 .160157-.003907.160157l-.15625.03125-.59375.117187v1.535156c1.132813-.230469 2.285157-.425781 3.433594-.574219v-1.539062l-.535156.074219s-.222656.03125-.222656.03125v-5.894531l.167968-.023438c.429688-.066406.851563-.121094 1.25-.167969l.214844-.027343v1.039062c.5-.054688 1.003906-.105469 1.507813-.152344zm17.382812 1.492187v1.539063l.617188.164063s.148437.039062.144531.039062v5.652344.253906l-.246094-.066406-.515625-.136719v1.523437c2.421875.632813 4.816407 1.449219 7.136719 2.429688v-2.195312c-.601562-.253907-1.210938-.5-1.820312-.730469v.679687l-.265626-.097656c-.746093-.285156-1.515624-.550781-2.28125-.800781l-.132812-.042969v-2.347656l.253906.078125c.757813.246093 1.515625.515625 2.265625.796875v-1.375c-.789062-.296875-1.589843-.578125-2.386719-.839844l-.132812-.042969v-2.179687l.253906.082031c.761719.242187 1.535156.515625 2.296875.800781 0 0 .128907.050782.128907.046875v.550781c.609374.230469 1.21875.476563 1.820312.734376v-2.066407c-2.3125-.988281-4.714844-1.808593-7.136719-2.445312zm-13.519531.210938.179688.523438.691406 2.011718.089844.257813h-.277344c-.464844 0-.9375.003906-1.410156.015625l-.28125.007812.09375-.269531.726562-2.027344zm-14.660156.414062c-1.175782.367188-2.347656.777344-3.484375 1.21875l-1.46875 2.0625v2.386719l.980469.664063c1.035156-.414063 2.136718-.808594 3.28125-1.179688l.253906-.082031v2.597656l-.136719.042969c-.777344.25-1.550781.519531-2.292969.800781l-.265625.101563v-1.058594c-.613281.234375-1.222656.480469-1.820312.734375v1.082031c.449219.273438.902343.558594 1.363281.847656 1.144531-.449218 2.316406-.863281 3.488281-1.226562l1.539063-1.945312v-2.898438l-1.082032-.710938c-1.003906.304688-2.058593.664063-3.222656 1.101563l-.265625.101563v-2.023438l.125-.046875c.78125-.292969 1.558594-.5625 2.316407-.808594l.253906-.082031v.660156c.617187-.195312 1.246094-.382812 1.875-.558594v-.828124c-.484375-.324219-.964844-.648438-1.4375-.953126zm0 0" fill="#600"/></svg>