<svg height="40pt" viewBox="0 0 70 40" width="70pt" xmlns="http://www.w3.org/2000/svg"><path d="m34.996094.265625c-19.191406 0-34.746094 8.8125-34.746094 19.6875s15.554688 19.6875 34.746094 19.6875c3.808594 0 7.476562-.347656 10.90625-.992187l-.042969.140624c.6875-.070312 1.457031-.300781 2.179687-.585937.894532-.203125 1.765626-.429687 2.621094-.675781l-.015625.078125c.070313-.042969.140625-.085938.207031-.128907 11.214844-3.265624 18.886719-9.886718 18.886719-17.523437 0-10.875-15.554687-19.6875-34.742187-19.6875" fill="#2c2a29"/><path d="m52.613281 35.902344c.585938-.714844.972657-1.453125 1.230469-2.09375 7.988281-3.117188 13.183594-8.160156 13.183594-13.855469 0-8.175781-10.707032-15.011719-25.03125-16.722656-.730469-.351563-1.449219-.683594-2.003906-.917969-2.339844-1.003906-2.875-.550781-3.457032 0-.183594.171875-.328125.347656-.445312.515625-.367188-.003906-.734375-.011719-1.105469-.011719-14.429687 0-26.628906 5.101563-30.648437 12.109375 2.03125 1.714844 7.332031 5.992188 11.546874 8.042969l-.050781-.125c-.152343-.15625-3.828125-3.847656-4.820312-8.769531h.078125c.304687.382812 2.015625 3.476562 9.253906 8.082031.5625.355469 6.203125 3.757812 8.601562 4.394531l-.289062-.320312c-.230469-.253907-3.800781-4.382813-5.484375-7.59375 0 0-1.808594-2.984375-3.082031-6.601563 0 0 2.421875 1.960938 2.652344 2.039063l.023437-.128907c-.074219-.175781-2.101563-4.796874-2.46875-7.34375.589844-.144531 3.164063-.609374 4.355469-.679687 0 0 .492187 4.027344 3.707031 5.945313 0 .488281.171875 5.484374 1.535156 7.335937-.035156-.699219-.417969-3.175781 1.714844-5.796875l.105469.101562c-.28125 1.085938-1.050782 5.488282 0 9.117188.277344.976562 2.199218 5.765625 4.015625 6.988281-.210938-1.152343-2.796875-6.5-.070313-12.15625.019532.191407.058594.625.167969 1.246094.3125 1.765625 1.164063 5.078125 3.5625 8.828125.003906.007812.089844.125.128906.183594-.171875-2.417969.699219-3.875 1.1875-4.542969 1.636719-2.175781 5.050781-2.265625 7.554688-1.71875 1.007812.21875 1.792969.339844 2.6875.613281.03125-.027344.050781-.054687.070312-.085937-2.246093-1.207031-7.648437-2.214844-7.648437-2.214844.914062-.164063 1.824218-.085937 2.757812-.09375 2.296875.117187 4.699219.171875 6.863282.835937.035156-.039062.089843-.082031.121093-.117187-.722656-.328125-1.523437-.515625-2.273437-.769531-2.957032-.773438-6.097656-1.269532-9.261719-1.515625l-.011719-.027344c1.542969-.242187 3.265625-.289063 4.914063-.308594 2.167969-.046875 4.371093.160157 6.554687.355469l.039063-.082031c-.816407-.230469-2.632813-.585938-2.632813-.585938-3.691406-.554687-7.566406-.933593-11.363281-.988281.011719-.023438.917969-.300781 1.875-.441406 2.601563-.414063 5.570313-.464844 8.164063-.492188.5-.398437.753906-.511718 1.324218-.757812-2.070312-.632813-4.253906-.609375-6.382812-.851563-1.773438-.074219-3.46875-.429687-5.066406-1.054687-.578126-.625-1.167969-1.238282-1.636719-1.886719.09375-.070313.132812-.027344.132812-.027344s.867188.273438 1.320313.390625c.613281.273438 1.171875.605469 1.835937.839844.28125.121094.710938.238281 1.007813.277344-.320313-.953125-.246094-1.519532-.230469-1.59375.011719-.078125.046875-.132813.046875-.132813.269531.070313.433594.113281.695312.195313 0 0-.027343.101562.027344.433594l.902344.117187c-.078125.125-.539062.371094-.6875.492187 0 0 .0625.21875.148438.367188.113281.199219.214843.339844.445312.390625.867188-.128906 1.523438-.882813 1.523438-.882813l.886718.246094s-.070312.222656-.324218.527344c.597656.0625 1.667968-.027344 2.382812-.035156.160156-.003906.207031-.003906.296875-.085938.136719-.152344.308594-.289062.40625-.460937-.472656-.085938-.683594-.167969-.65625-.15625-.125-.007813-.25-.011719-.375-.027344-1.445313-.390625-2.867187-.933594-4.195313-1.496094-1.398437-.570312-3.152343-.03125-4.621093-.464843-.804688-.242188-1.667969-.359376-2.460938-.59375-.003906-.003907-.027343-.011719-.054687-.019532 0 0 .003906 0 .003906.003906 0-.003906-.003906-.007812-.003906-.007812-.042969-.011719-.09375-.035156-.148438-.054688v.160157c.25.300781.65625.792969.765625.890625-.160156-.039063-.425781-.125-.757812-.226563-.597657-.179687-1.410157-.402343-2.222657-.484375-.382812-.035156-.800781-.066406-1.292968-.167968.0625.09375.996094 1.195312.996094 1.195312-2.980469-.601562-4.695313-1.292969-5.878907-2.175781-1.179687-.886719-1.703125-1.90625-1.800781-2.101563-.203125-.417968-.289062-.941406-.035156-1.179687.320312-.285157.996094-.117188 1.140625-.082031.234375.0625.324219.085937.484375.125.144531.03125.339844.054687 1.359375.261718 1.207031.253906 4.441406.578125 7.210937.644532.320313.007812.636719.011718.941406.011718 1.347657 0 2.839844.136719 3.675782.371094 0 0-1.492188.042969-1.996094.152344l.226562.171875c.652344 0 4.054688.328125 5.824219.699219l-.820312.113281.167969.152343c.558593.050782 2.796874.621094 5.824218 1.503907l.296875-.082031s-2.808593-1.980469-3.277343-2.214844c-.300782.1875-.367188.222656-.628907.367187-.105469.058594-.265625.089844-.40625.023438-.664062-.335938-2.53125-1.253907-3.019531-1.445313 0 0-.742188.332032-1.023438.230469l-3.167968-1.117187c-.261719.046874-1.382813.195312-2.621094.3125-1.183594.113281-2.476562.199218-3.25.15625.625-.179688 2.136719-.527344 3.246094-.722657.050781-.007812.105468-.015625.15625-.027343.511718-.089844 1.394531-.136719 3.074218-.042969 1.675782.089843 6.742188.804687 8.523438 1.160156.699219.140625 1.753906.539063 2.9375 1.398437.507812.375 3.003906 1.941407 3.15625 2.503907.078125.289062.167969.621093.082031 1.371093l-.242187-.066406s-.226563-.5-.320313-.597656c-.425781-.457031-1.351562-.320312-1.351562-.320312s-.1875.6875 1.265625 1.421874c.1875.09375 1.078125.363282 1.410156.4375.417969.097657 2.226562.71875 2.167969.683594.007812.003906.015625.007813.027343.015625.972657.378907 1.957032.792969 2.722657 1.449219.230469.222656.441406.71875.558593 1.496094.070313.53125.15625 1.023437.183594 1.519531-.382812.308594-1.710937.808594-1.710937.808594l.082031.160156s1.097656-.0625 1.566406-.1875c.027344.492187-.097656 1.066406-.164062 1.53125-.4375.140625-1.503906.351563-1.503906.351563l.09375.210937 1.300781-.003906c-.039063.492187-.296875 1.113281-.421875 1.289062-.308594.140625-.503906.203125-.941406.265625-.167969.019532-.285157.039063-.492188.058594.046875.082031.054688.109375.085938.160156.339843.046875.949218.070313 1.15625.085938-.109376.308594-.230469.457031-.355469.636718-.1875.265626-.449219.5625-.875.863282-.746094-.289063-1.070313-1.277344-1.089844-1.847656-.078125-.945313.132813-3.1875.363281-3.832032.382813-.839844 1.238282-1.359375 1.515625-1.535156.207031-.695312.695313-1.269531.691407-1.292969-.015626-.125-.097657-.230469-.097657-.230469s-.207031.066407-.300781.105469c-.128906.058594-.449219.140625-.730469.4375-.03125.039063-.089843.09375-.132812.148438-.058594-.09375-.34375-.585938-.34375-.585938l-1.929688.042969s-.175781.347656-.496093.523438c-.03125-.039063-.117188-.117188-.1875-.171876l-.160157-.035156c-.34375-.0625-.59375-.070312-.980469-.078125-.300781 0-.933593-.007812-.933593-.007812l-.007813.183593s.53125.078126.984375 1.070313c.425781.070313.816407.199219 1.210938.347656.753906.410157 1.339843 1.261719 1.261719 2.292969.054687 1.589844-.898438 2.753906-2.15625 3.574219-.742188.484375-2.605469.882812-4.25.765625-.457032-.070313-.875-.140625-1.492188-.34375-.800781-.253906-1.773438-.574219-2.894531-.628906-1.699219-.027344-3.539063.441406-4.40625 1.964843-.9375 1.640625-.550781 3.550781-.550781 3.550781.746093-.511718 1.914062-.808593 2.867187-.515624.367187.144531.640625.234374.9375.40625-.03125-.203126-.320313-.546876-.648437-.789063.8125-.101563 1.523437.285156 2.148437.679687.234375.160157.367187.285157.621094.523438-.03125-.941406.363281-2 .8125-2.496094 1.554687-1.707031 3.722656-1.992187 6.464843-2.375.589844-.082031 1.253907-.234375 1.78125-.496094.28125.1875.488282.292969.8125.433594.234376.125.480469.226563.738282.304688.105468 1.039062-.683594 2.070312-1.246094 2.570312-.269531.246094-.683594.578125-1.433594.867188.078125-.097656.402344-.601563.46875-.695313.261719-.472656.453125-.929687.507813-1.46875.003906-.226562-.03125-.566406-.242188-.738281-.710937-.253906-1.621093-.226562-2.339843-.03125-.128907.375-.148438.566406-.453126 1.121094-.164062.269531-.203124.351562-.378906.5625-.40625.5-.953125 1.019531-1.722656 1.460937-.070312.039063.050781-.144531.058594-.238281.203125-.769531.417968-1.648438.351562-2.457031-1.269531.054687-2.191406 1.140625-2.710937 2.082031-.140625.257812-.269531.675781-.296875 1.042969-.027344.453125.113281 1.261719.636718 1.578125-.410156.527344-1.015624 1.007812-1.683593 1.234375-1.210938.378906-1.683594-1.128907-2.667969-1.398438-.742188-.28125-1.835938-.488281-2.917969-.050781l-.121093.0625c.089843.59375.296874 1.203125.53125 1.730469l.152343.183593c.957031-.644531 2.058594.007813 2.871094.417969 1.875.46875 3.363281-.960937 4.535156-2.117187.132813-.113282.15625-.175782.34375-.363282.335938.691407.035157 1.457032-.359375 2.039063-.21875.320313-.464844.644531-.742187.921875.09375.109375.257812.132812.390625.167969.515625.113281 1.207031-.042969 1.476562-.125.976563-.382813 2.414063-1.453125 3.074219-2.191407.183594.792969-.125 1.773438-.730469 2.554688.648438.054688.894532.066406 1.253906.097656-.101562.535156-.332031 1.03125-.59375 1.597656-.472656.828126-1.015624 1.632813-1.746093 2.238282-.179688.148437-.0625.046875-.378907.308594.039063-.390626.0625-.527344.027344-.835938-.617187.5625-3.050781 2.027344-4.660156 2.464844 0 0 .3125-.757813.417969-1.214844-1.1875.648438-2.671875 1.121094-3.617188 1.363281.230469-.410156.539063-1.125.539063-1.125-.816406.308594-1.804688.539063-2.71875.722657.226562-.46875.457031-1.105469.519531-1.527344-.75.136718-1.941406.207031-1.941406.207031-.058594-.269531-.105469-.398437-.199219-.699219-.214844-.546875-.339844-.785156-.644531-1.152344-.597657-.628906-1.351563-1.089843-2.160157-1.441406-.460937-.203125-.9375-.371094-1.417968-.515625-.757813-.167969-1.585938-.285156-2.351563-.296875-.316406.003906-.386719.015625-.714843.050782.25.070312.335937.078124.558593.144531 1.105469.292969 2.296875.566406 3.679688 1.359375l-.742188.0625c-2.742187.296875-6.054687 1.515625-8.472656 2.554687 2.488281.328125 5.09375.507813 7.78125.507813 1.335937 0 2.648437-.042969 3.941406-.128906.019531.089843.039063.179687.050781.261718.550782 0 1.277344-.035156 1.929688-.082031-.058594.246094-.34375.835937-.542969 1.296875-1.753906.15625-3.550781.238281-5.378906.238281-18.585937 0-33.652344-8.382812-33.652344-18.722656 0-10.335937 15.066407-18.722656 33.652344-18.722656 18.582031 0 33.644531 8.386719 33.644531 18.722656 0 6.742187-6.40625 12.652344-16.019531 15.949219" fill="#c69214"/><path d="m2.949219 19.949219c0 6.527343 6.8125 12.199219 16.847656 15.09375 1.695313-.429688 3.308594-.953125 3.160156-.984375-1.367187-.316406-3.558593-.878906-4.371093-1.269532.734374-.035156 5.101562-.488281 6.359374-.910156-1.5-.3125-7.125-2.234375-9.433593-3.527344 1.015625.035157 5.625.34375 7.273437 0l-.703125-.207031c-2.640625-.652343-13.804687-5.523437-19.050781-9.4375-.054688.414063-.082031.828125-.082031 1.242188" fill="#2c2a29"/><path d="m38 2.675781c-.097656 0-.183594.007813-.257812.019531-.632813.152344-.742188 1.257813-.777344 1.714844h.144531s.058594-1.339844 1.753906-.972656l4.285157.894531h.019531l-.09375-.128906c-.644531-.113281-3.117188-.996094-3.773438-1.226563-.59375-.207031-1.003906-.292968-1.300781-.300781zm-11.917969 2.300781c-.230469-.011718-.476562.019532-.636719.160157-.253906.238281-.167968.761719.035157 1.179687.097656.195313.621093 1.214844 1.800781 2.101563 1.183594.882812 2.898438 1.574219 5.878906 2.175781 0 0-.933594-1.101562-1-1.195312-.519531-.117188-2.648437-.628907-4.238281-1.589844-1.035156-.550782-2.183594-1.59375-2.089844-2.378906 0-.03125.082031-.390626.753907-.375-.074219-.015626-.277344-.066407-.503907-.078126zm8.945313 3.242188s.007812.355469.457031.929688c-.003906 0-.007813-.003907-.007813-.003907s.082032.101563.195313.242188c0-.054688 0-.109375 0-.160157.050781.019532.105469.039063.144531.054688.003906 0 .003906.003906.007813.007812 0-.003906-.003907-.003906-.003907-.007812.027344.011719.046876.019531.050782.023438.792968.234374 1.660156.351562 2.464844.59375 1.46875.433593 3.222656-.105469 4.621093.460937 1.324219.5625 2.75 1.109375 4.191407 1.5.125.011719.25.019531.378906.027344-.675782-.296875-2.207032-.996094-3.089844-1.546875 0 0-1.753906-1.03125-3.996094-1.152344 0 0-3.054687-.0625-5.414062-.96875zm6.453125 2.519531s-.035157.054688-.046875.132813c-.015625.074218-.089844.640625.230468 1.589844-.296874-.035157-.722656-.152344-1.007812-.277344-.664062-.230469-1.222656-.566406-1.835938-.835938-.453124-.117187-1.320312-.390625-1.320312-.390625s-.039062-.042969-.132812.027344c.46875.648437 1.058593 1.261719 1.636718 1.882813 1.597656.628906 3.292969.984374 5.066406 1.054687 2.128907.246094 4.3125.222656 6.382813.855469-.570313.246094-.824219.359375-1.324219.757812-2.59375.027344-5.5625.074219-8.164062.492188-.957032.140625-1.863282.417968-1.875.441406 3.796875.054688 7.671875.429688 11.363281.988281 0 0 1.8125.351563 2.632813.585938l-.039063.082031c-2.183594-.195312-4.386719-.402344-6.554687-.355469-1.648438.015625-3.371094.0625-4.914063.308594l.011719.023437c3.160156.246094 6.304687.746094 9.261718 1.519532.75.253906 1.550782.441406 2.273438.769531-.03125.035156-.085938.078125-.121094.117187-2.164062-.664062-4.566406-.71875-6.863281-.839843-.933594.007812-1.84375-.070313-2.757813.097656 0 0 5.402344 1.007813 7.648438 2.214844-.019531.03125-.042969.058593-.070312.085937-.894532-.273437-1.679688-.394531-2.6875-.613281-2.503907-.546875-5.917969-.457031-7.554688 1.71875-.492188.667969-1.359375 2.125-1.1875 4.542969 0 0-2.175781-1.210938-3.328125-3.511719 0 0 0 1.996094.484375 3.089844 0 0-.726562-.484375-1.152344-1.394531 0 0 .851563 4.515624 1.277344 5.667968 0 0-4.199219-2.289062-6.972656-9.300781 0 0-.238282.546875-.0625 1.9375 0 0-2.898438-1.972656-3.988282-3.816406.476563.824219 3.410157 5.871093 5.300782 7.59375 0 0-7.910156-1.898438-11.058594-3.898438 0 0 .359375.667969 1.269531 1.515625 0 0-4.058593-.546875-5.933593-1.152344 0 0 5.027343 2.476563 9.996093 3.992188 0 0-2.246093.671875-4.425781.972656 0 0 2.785156 1.394532 6.300781 2.363282 0 0-1.394531.96875-4.242187 1.515624 0 0 .484375.359376 1.816406.722657l-.679688.300781c-.003906-.003906-.042968.019531-.117187.054688-.546875.230468-1.273437.515624-1.867187.675781l-1.070313.351562c.027344.007813.058594.015625.085937.023438 1.253907.347656 3.738282.859375 6.042969 1.164062.003907 0 .003907-.003906.007813-.003906 2.417968-1.035156 5.730468-2.253906 8.472656-2.550781l.738281-.0625c-1.378906-.792969-2.574219-1.066406-3.675781-1.359375-.222656-.066407-.308594-.074219-.558594-.144531.328125-.035157.398438-.046876.714844-.050782.765625.011719 1.59375.128906 2.351562.296875.480469.144531.957032.3125 1.417969.515625.808594.351563 1.5625.8125 2.160157 1.4375.304687.371094.429687.609375.644531 1.152344.09375.304688.140625.433594.199219.703125 0 0 1.191406-.070313 1.941406-.207031-.0625.421875-.292969 1.058594-.523438 1.523437.917969-.183593 1.90625-.410156 2.722656-.71875 0 0-.308593.714844-.539062 1.125.945312-.242187 2.429688-.714843 3.617188-1.363281-.105469.457031-.417969 1.214844-.417969 1.214844 1.609375-.4375 4.039062-1.90625 4.660156-2.464844.035156.308594.011719.445312-.03125.835938.320313-.261719.203125-.160157.382813-.308594.730468-.605469 1.273437-1.410156 1.746093-2.238282.261719-.566406.492188-1.066406.59375-1.601562-.359375-.027344-.605469-.039062-1.253906-.09375.605469-.785156.914063-1.761719.730469-2.554688-.660156.738282-2.097656 1.808594-3.074219 2.191407-.269531.082031-.960937.238281-1.476563.125-.132812-.035157-.296874-.0625-.390624-.171875.277343-.273438.523437-.597656.742187-.921875.394531-.578125.695313-1.34375.359375-2.035157-.1875.1875-.210938.25-.34375.363282-1.171875 1.152344-2.660156 2.585937-4.535156 2.117187-.8125-.410156-1.914063-1.0625-2.871094-.417969l-.152344-.1875c-.234375-.523437-.441406-1.132812-.53125-1.726562l.121094-.0625c1.082031-.441406 2.175781-.230469 2.917969.046875.984375.273437 1.457031 1.78125 2.667969 1.398437.667968-.226562 1.273437-.707031 1.679687-1.230468-.519531-.320313-.660156-1.125-.632813-1.578125.027344-.367188.15625-.789063.296876-1.042969.519531-.941406 1.441406-2.027344 2.710937-2.082031.066406.804687-.148437 1.683593-.351563 2.457031-.007812.089844-.128906.277344-.058593.238281.769531-.441406 1.316406-.960937 1.722656-1.460937.175781-.210938.214844-.292969.378906-.5625.304688-.554688.324219-.75.453125-1.121094.71875-.195312 1.628906-.222656 2.339844.03125.210938.171875.246094.507812.242188.738281-.054688.535157-.246094.996094-.507813 1.46875-.066406.09375-.390625.597657-.46875.695313.746094-.289063 1.164063-.625 1.433594-.867188.5625-.503906 1.351562-1.535156 1.246093-2.574218-.257812-.074219-.503906-.175782-.738281-.300782-.324219-.140625-.535156-.246094-.816406-.433594-.523437.257813-1.1875.414063-1.777344.496094-2.742187.378906-4.910156.667969-6.46875 2.371094-.449219.496094-.839843 1.554688-.808593 2.496094-.253907-.234375-.386719-.359375-.625-.523438-.625-.390625-1.335938-.777344-2.144532-.675781.324219.242187.617188.585937.648438.789063-.296875-.171876-.570313-.261719-.9375-.40625-.957032-.296876-2.125 0-2.871094.515624 0 0-.382812-1.910156.550781-3.550781.871094-1.523437 2.710938-1.992187 4.40625-1.964843 1.125.054687 2.09375.375 2.894531.628906.621094.203125 1.039063.273437 1.492188.34375 1.644531.117187 3.511719-.28125 4.253906-.765625 1.253906-.824219 2.210938-1.988281 2.15625-3.574219.074219-1.03125-.511718-1.882812-1.261718-2.296875-.394532-.144531-.785157-.273437-1.214844-.34375-.449219-.992187-.980469-1.070313-.980469-1.070313l.003906-.183593s.632813.003906.9375.003906c.382813.011719.636719.019531.976563.078125-.613282-.585938-1.683594-1.375-3.015625-1.335938l.546875-.425781s-.898438-.535156-2.421875-.421875l.503906-.382812s-.390625-.347656-1.535156-.414063c-.046875-.003906-.085938-.007812-.128907-.011719-.191406-.023437-.410156-.078124-.667968-.097656v.007813c-.097656.171875-.273438.308593-.40625.460937-.089844.078125-.136719.082032-.296875.085938-.714844.007812-1.785157.097656-2.382813.035156.253906-.304688.324219-.527344.324219-.527344l-.886719-.246094s-.65625.757813-1.523437.886719c-.230469-.054687-.332031-.195312-.445313-.394531-.085937-.148438-.148437-.367188-.148437-.367188.148437-.117187.609375-.363281.6875-.492187l-.902344-.113281c-.054687-.335938-.027344-.4375-.027344-.4375-.261719-.078125-.421875-.125-.695312-.191406zm14.976562 1.945313c.238281.15625.445313.300781.640625.433594.132813.097656.292969.214843.464844.339843.839844.628907 1.175781 1.019531 1.324219 1.308594.089843-.035156.300781-.101563.300781-.101563s.082031.105469.097656.230469c0 .019531-.484375.597657-.691406 1.292969-.277344.175781-1.132812.695312-1.519531 1.535156-.226563.644532-.4375 2.886719-.359375 3.832032.015625.566406.34375 1.558593 1.085937 1.847656.429688-.300782.6875-.597656.875-.863282.128907-.179687.25-.332031.355469-.636718-.207031-.015625-.8125-.039063-1.152344-.085938-.03125-.050781-.039062-.078125-.085937-.160156.207031-.019531.324219-.039062.492187-.058594.4375-.0625.628906-.125.941406-.265625.121094-.175781.382813-.796875.421876-1.289062l-1.300782.003906-.09375-.210937s1.066406-.210938 1.5-.351563c.070313-.464844.195313-1.039063.167969-1.53125-.46875.125-1.570313.1875-1.570313.1875l-.078124-.160156s1.328124-.5 1.710937-.808594c-.027344-.496094-.113281-.988281-.1875-1.519531-.113281-.777344-.324219-1.273438-.554687-1.496094-.765626-.65625-1.753907-1.074219-2.722657-1.449219-.023437-.007812-.042969-.015625-.0625-.023437zm0 0" fill="#fff"/></svg>