<svg height="92pt" viewBox="0 0 75 92" width="75pt" xmlns="http://www.w3.org/2000/svg"><path d="m463.103779 727.329985-8.595185-24.959571h-27.245118l22.361899-16.513108-8.162724-26.442677 22.055571 15.898162 22.127649-15.681122-8.342916 26.225637 20.884319 16.513108h-26.524347zm-279.568782-93.905866v-41.382247h20.055433v-141.654612h-20.055433v-43.263258h91.50179v43.263258h-19.42476v99.65742l84.618434-142.920678h63.319672v184.91787h18.794086v41.382247h-90.871117v-41.382247h20.668089v-87.756407l-77.104404 129.120567h-91.50179zm0 0" fill="#b4a87e" stroke="#000048" stroke-width="5.0152" transform="matrix(.216782 0 0 -.215974 -35.583951 159.467367)"/><path d="m.683594 75.855469v3.292969h1.164062v8.574218h-1.171875v3.3125h6.992188v-3.3125h-1.167969v-3.484375l3.925781 6.796875h4.832031v-11.886718h1.171876v-3.292969h-6.988282v3.292969h1.179688v3.503906l-3.949219-6.796875zm20.085937 0-3.578125 11.867187h-1.148437v3.3125h6.988281v-3.3125h-1.066406l.164062-.5625h3.421875l.171875.5625h-1.039062v3.3125h6.984375v-3.3125h-1.175781l-3.574219-11.867187zm8.03125 0v3.292969h1.421875l4 11.886718h4.582032l3.988281-11.886718h1.417969v-3.292969h-6.980469v3.292969h.757812l-.160156.488281c-.171875.5-.359375 1.058593-.558594 1.671875-.285156.832031-.535156 1.574218-.765625 2.261718-.101562-.3125-.207031-.613281-.304687-.90625-.160157-.484374-.316407-.949218-.464844-1.382812l-.082031-.25c-.230469-.679688-.441406-1.308594-.632813-1.878906h.761719v-3.296875zm16.109375 0v3.292969h1.660156l3.304688 6.261718v2.3125h-1.136719v3.3125h6.988281v-3.3125h-1.125v-2.296875l3.398438-6.277343h1.4375v-3.292969h-6.828125v3.292969h.511719l-.871094 1.75-.890625-1.75h.542969v-3.292969zm-21.0625 5.644531.707032 2.363281h-1.421876zm0 0" fill="#000048"/><path d="m1.296875 76.46875v2.070312h1.167969v9.800782h-1.175782v2.078125h5.765626v-2.078125h-1.171876v-6.402344l4.894532 8.480469h3.863281v-11.878907h1.171875v-2.070312h-5.753906v2.070312h1.175781v6.398438l-4.917969-8.46875zm19.929687 0-3.578124 11.871094h-.988282v2.078125h5.753906v-2.078125h-1.273437l.53125-1.792969h4.335937l.542969 1.792969h-1.253906v2.078125h5.757813v-2.078125h-1.023438l-3.574219-11.871094zm8.191407 0v2.070312h1.242187l4.003906 11.878907h3.699219l3.984375-11.878907h1.242188v-2.070312h-5.746094v2.070312h1l-.433594 1.292969c-.167968.5-.351562 1.054688-.558594 1.671875-.410156 1.199219-.742187 2.191406-1.050781 3.136719l-.285156.882813-.296875-.878907c-.21875-.628906-.417969-1.226562-.605469-1.789062-.160156-.484375-.3125-.945313-.460937-1.378907l-.082032-.25c-.289062-.84375-.546874-1.601562-.765624-2.289062l-.132813-.398438h.992187v-2.070312zm16.109375 0v2.070312h1.414062l3.550782 6.722657v3.078125h-1.136719v2.078125h5.753906v-2.078125h-1.121094v-3.070313l3.640625-6.730469h1.191406v-2.070312h-5.597656v2.070312h.894532l-1.863282 3.722657-1.898437-3.722657h.929687v-2.070312zm-21.679688 2.886719 1.535156 5.121093h-3.078124zm0 0" fill="#b4a87e"/></svg>