<svg height="88pt" viewBox="0 0 75 88" width="75pt" xmlns="http://www.w3.org/2000/svg"><path d="m15.667969 3.007812-12.625 12.980469v25.527344l11.816406 11.859375h-11.816406v18.710938l12.667969 12.609374h43.164062l12.675781-12.609374v-26.878907l-10.917969-10.886719h10.917969v-18.332031l-12.628906-12.980469zm1.28125 2.960938h40.6875l10.90625 11.210938v14.175781h-16.101563v4.460937h5.523438l10.578125 10.6875v24.363282l-10.914063 10.859374h-40.664062l-10.914063-10.859374v-14.535157h15.46875v-5.074219h-4.558593l-10.910157-10.953124v-23.125zm17.394531 15.441406 9.917969 7.640625v-7.640625zm-4.601562 6.746094v7.660156h10.105468zm.011718 26.402344v7.964844h14.507813v-2.78125h5.824219v-2.542969h-5.824219v-2.640625zm0 0"/><path d="m17.589844 7.453125-10.035156 10.320313v21.921874l10.035156 10.078126h4.488281l4.648437-3.265626h20.558594l5.160156 3.6875v7.003907h-.855468v2.542969h.855468v7.378906l-5.085937 3.613281h-20.550781l-5.289063-3.796875v-9.125h-13.964843v12.441406l10.035156 9.996094h39.40625l10.046875-9.996094v-23.148437l-9.757813-9.804688h-4.84375v2.328125h-7.558594l-3.082031-2.328125h-12.058593v2.292969l-8.222657-.011719v-21.9375h7.945313l2.957031 2.28125h11.839844v-2.28125h8.179687v12.230469h14.601563v-12.101562l-10.046875-10.320313zm5.429687 11.671875v18.992188h5.222657v-12.96875l17.148437 13.003906h5.546875v-19.027344h-5.171875v12.972656l-16.816406-12.972656zm4.1875 28.867188-4.1875 2.9375v15.253906l4.230469 3.074218h19.625l4.078125-2.886718v-5.144532h-5.1875v2.777344h-17.511719v-10.925781h17.511719v2.640625h5.1875v-4.773438l-4.152344-2.953124zm0 0" fill="#c00"/><path d="m14.703125.78125-13.917969 14.3125v27.328125l8.699219 8.730469h-8.699219v21.847656l13.988282 13.917969h45.046874l2.207032-2.199219c.523437.691406 1.359375 1.136719 2.300781 1.136719 1.585937 0 2.871094-1.261719 2.871094-2.820313 0-.945312-.472657-1.773437-1.179688-2.292968l7.785157-7.742188v-28.621094l-7.695313-7.839844h7.695313v-21.445312l-13.921876-14.3125zm.964844 2.226562h43.253906l12.628906 12.980469v18.332031h-10.921875l10.921875 10.886719v26.878907l-12.675781 12.609374h-43.164062l-12.667969-12.609374v-18.710938h11.816406l-11.816406-11.859375v-25.527344zm1.28125 2.960938-10.898438 11.210938v23.125l10.910157 10.953124h4.558593v5.074219h-15.46875v14.535157l10.914063 10.859374h40.664062l10.914063-10.859374v-24.363282l-10.578125-10.6875h-5.523438v-4.460937h16.101563v-14.175781l-10.90625-11.210938zm.640625 1.484375h39.40625l10.046875 10.320313v12.101562h-14.601563v-12.230469h-8.179687v2.28125h-11.839844l-2.957031-2.28125h-7.945313v21.9375l8.222657.011719v-2.292969h12.058593l3.082031 2.328125h7.558594v-2.328125h4.84375l9.757813 9.804688v23.148437l-10.046875 9.996094h-39.40625l-10.035156-9.996094v-12.441406h13.964843v9.125l5.289063 3.796875h20.550781l5.085937-3.613281v-7.378906h-.855468v-2.542969h.855468v-7.003907l-5.160156-3.6875h-20.558594l-4.648437 3.265626h-4.488281l-10.035156-10.078126v-21.921874zm5.429687 11.671875h5.929688l16.816406 12.972656v-12.972656h5.171875v19.027344h-5.546875l-17.148437-13.003906v12.96875h-5.222657zm11.324219 2.285156h9.917969v7.640625zm-4.601562 6.746094 10.105468 7.660156h-10.105468zm-2.535157 19.835938h19.59375l4.152344 2.953124v4.773438h-5.1875v-2.640625h-17.511719v10.925781h17.511719v-2.777344h5.1875v5.144532l-4.078125 2.886718h-19.625l-4.230469-3.074218v-15.253906zm2.546875 6.566406h14.507813v2.640625h5.824219v2.542969h-5.824219v2.78125h-14.507813zm0 0" fill="#fff"/></svg>