<svg height="70pt" viewBox="0 0 70 70" width="70pt" xmlns="http://www.w3.org/2000/svg"><path d="m.492188.324219v20.460937h4.546874v28.1875h-4.546874v20.457032h29.09375v-20.457032h-4.542969v-11.265625l19.445312 30.667969.671875 1.054688h24.433594v-20.457032h-4.542969v-28.1875h4.542969v-20.460937h-29.09375v20.460937h4.546875v11.265625l-19.445313-30.675781-.671874-1.054688h-24.433594zm0 0" fill="#e41c38"/><path d="m1.402344 1.234375v18.640625h4.542968v30.007812h-4.542968v18.636719h27.277344v-18.636719h-4.546876v-15.308593l21.125 33.3125.402344.632812h23.027344v-18.636719h-4.546875v-30.007812h4.546875v-18.640625h-27.28125v18.640625h4.546875v15.308594l-21.125-33.316406-.402344-.632813zm0 0" fill="#fff"/><path d="m2.765625 2.597656v15.914063h4.542969v32.734375h-4.542969v15.910156h24.550781v-15.910156h-4.546875v-21.367188l23.640625 37.277344h20.914063v-15.910156h-4.546875v-32.734375h4.546875v-15.914063h-24.550781v15.914063h4.542968v21.367187l-23.640625-37.28125zm0 0" fill="#e41c38"/></svg>