<svg height="45pt" viewBox="0 0 70 45" width="70pt" xmlns="http://www.w3.org/2000/svg"><path d="m34.378906.316406c-1.15625.011719-2.316406.058594-3.472656.136719v1.730469c.292969.019531.496094.070312.613281.152344.117188.082031.179688.214843.179688.390624 0 .09375-.003907.171876-.011719.234376-.003906.058593-.015625.117187-.027344.167968-.503906 2.015625-1.003906 4.035156-1.507812 6.058594-.546875-1.964844-1.097656-3.921875-1.640625-5.871094-.019531-.058594-.035157-.117187-.046875-.167968-.007813-.054688-.015625-.109376-.015625-.171876 0-.164062.0625-.296874.179687-.398437.121094-.101563.316406-.1875.59375-.257813v-1.730468c-1.734375.164062-3.464844.40625-5.183594.722656v1.734375c.261719.015625.460938.078125.589844.179687.128906.101563.242188.304688.332032.609376.769531 2.546874 1.542968 5.109374 2.3125 7.6875 1.726562-.222657 3.460937-.371094 5.199218-.441407.734375-2.714843 1.472656-5.414062 2.210938-8.097656.078125-.269531.1875-.476563.320312-.621094.128906-.144531.308594-.25.53125-.3125v-1.734375c-.382812-.003906-.769531-.003906-1.15625 0zm3.886719.089844c-.710937 2.554688-1.425781 5.125-2.136719 7.707031-.109375.410157-.230468.683594-.359375.828125-.128906.140625-.3125.234375-.550781.285156v1.804688c1.542969.003906 3.089844.070312 4.632812.195312v-1.800781c-.289062-.03125-.492187-.09375-.621093-.1875-.128907-.09375-.195313-.230469-.195313-.410156 0-.039063.003906-.085937.011719-.136719.007813-.046875.015625-.109375.027344-.183594.046875-.132812.085937-.265624.132812-.398437.96875.066406 1.9375.160156 2.90625.277344.042969.152343.085938.308593.128907.464843.011718.0625.023437.121094.03125.175782.003906.054687.007812.101562.007812.136718 0 .148438-.066406.257813-.203125.328126-.136719.074218-.316406.105468-.546875.09375v1.800781c1.703125.1875 3.40625.449219 5.09375.78125v-1.800781c-.230469-.097657-.40625-.222657-.527344-.375-.125-.152344-.234375-.398438-.335937-.738282-.769531-2.796875-1.546875-5.574218-2.328125-8.339844-1.714844-.242187-3.441406-.414062-5.167969-.507812zm-15.40625 1.136719c-3.492187.71875-6.933594 1.75-10.28125 3.089843v1.734376c.28125-.066407.472656-.054688.578125.035156.101562.089844.152344.351562.152344.789062v4.953125c0 .4375-.050782.742188-.152344.910157-.105469.167968-.296875.332031-.578125.492187v1.800781c3.347656-1.339844 6.789063-2.371094 10.28125-3.089844v-3.589843c-1.078125.222656-2.148437.472656-3.210937.75v.386719c0 .449218-.109376.78125-.332032 1.003906-.222656.21875-.621094.410156-1.191406.574218-.492188.144532-.984375.292969-1.476562.453126v-2.578126c1.324218-.421874 2.664062-.800781 4.007812-1.128906v-1.800781c-1.34375.328125-2.683594.703125-4.007812 1.128906v-2.238281c.414062-.132812.828124-.261719 1.246093-.382812.652344-.195313 1.109375-.238282 1.367188-.140626.257812.09375.386719.347657.386719.761719v.113281c1.066406-.28125 2.132812-.53125 3.210937-.753906zm24.96875.160156v1.734375c.292969.109375.492187.242188.597656.398438.109375.152343.160157.445312.160157.882812v4.957031c0 .433594-.050782.707031-.160157.808594-.105469.105469-.304687.148437-.597656.132813v1.800781c1.640625.359375 3.277344.789062 4.890625 1.289062 2.234375.691407 3.707031.992188 4.449219.722657.746093-.265626 1.113281-1.195313 1.113281-2.8125v-2.5625c0-1.53125-.386719-2.757813-1.167969-3.648438-.785156-.886719-2.234375-1.746094-4.394531-2.414062-1.613281-.5-3.25-.929688-4.890625-1.289063zm-7.226563.894531c.34375 1.398438.683594 2.800782 1.027344 4.203125-.679687-.074219-1.363281-.140625-2.046875-.191406.339844-1.339844.679688-2.675781 1.019531-4.011719zm11.386719 2.292969c.324219.089844.648438.183594.972657.28125.0625.019531.125.039063.191406.058594.699218.222656 1.175781.496093 1.433594.808593.257812.308594.382812.820313.382812 1.535157v3.230469c0 .613281-.132812.96875-.398438 1.070312-.265624.101562-.792968.015625-1.589843-.234375-.332031-.105469-.660157-.203125-.992188-.300781zm-41.203125.496094c-1.492187.65625-2.964844 1.375-4.414062 2.15625v1.734375c.269531-.109375.460937-.113282.570312-.019532.113282.09375.171875.328126.171875.710938v3.207031c-1.15625-1.402343-2.296875-2.765625-3.421875-4.09375-1.167968.710938-2.316406 1.464844-3.445312 2.261719.003906.574219.007812 1.152344.007812 1.726562.246094-.125.417969-.15625.511719-.097656.097656.058594.148437.246094.148437.5625v5.171875c0 .425781-.050781.734375-.140624.9375-.097657.199219-.269532.402344-.519532.605469 0 .601562-.003906 1.203125-.007812 1.808594 1.355468-.957032 2.742187-1.851563 4.152344-2.683594-.003907-.601562-.003907-1.199219-.007813-1.796875-.265625.121094-.449219.144531-.546875.058594-.101562-.085938-.152344-.328125-.152344-.726563v-3.195312c1.125 1.34375 2.265625 2.726562 3.421875 4.152344.960938-.503907 1.933594-.980469 2.914063-1.425782v-7.785156c0-.460938.054687-.785156.160156-.96875.109375-.183594.308594-.375.597656-.570312zm51.429688 1.453125c-.652344 2.261718-1.308594 4.539062-1.96875 6.828125-.105469.367187-.21875.589843-.335938.679687-.121094.089844-.292968.109375-.515625.0625v1.800782c1.445313.640624 2.867188 1.339843 4.265625 2.101562v-1.800781c-.257812-.148438-.445312-.296875-.5625-.445313-.117187-.144531-.175781-.304687-.175781-.484375 0-.042969 0-.085937.007813-.132812.007812-.046875.015624-.105469.027343-.171875.039063-.117188.078125-.230469.117188-.347656.882812.46875 1.761719.960937 2.628906 1.472656.035156.175781.074219.347656.113281.519531.011719.070313.019532.132813.027344.191406.003906.054688.007812.101563.007812.140625 0 .144532-.058593.226563-.179687.242188-.121094.019531-.285156-.027344-.492187-.132813v1.800781c1.53125.894532 3.035156 1.855469 4.507812 2.894532v-1.804688c-.199219-.191406-.355469-.386718-.464844-.589844-.105468-.207031-.203125-.5-.289062-.882812-.679688-3.113281-1.363282-6.214844-2.054688-9.304688-1.523437-.953124-3.082031-1.832031-4.664062-2.636718zm2.125 3.15625c.3125 1.539062.621094 3.078125.925781 4.625-.609375-.359375-1.226563-.703125-1.851563-1.039063.3125-1.199219.621094-2.394531.925782-3.585937zm-24.542969 5.109375c-.285156.042969-1.023437.03125-.882813 1.015625.0625.445312.144532 1.34375.261719 1.863281 0 0-7.648437.015625-11.464843-.621094l1.101562 1.050781s-8.394531 1.09375-11.929688.84375l1.324219 1.140626s-4.464843 1.203124-12.144531 2.171874c0 0 5.203125.601563 8.164062 2.667969 10.796876-2.3125 21.4375-2.054687 21.4375-2.054687s-8.824218 1.113281-15.28125 2.859375c0 0 1.460938.203125 1.984376.746093 0 0-8.761719 2.003907-17.3125 5.746094 0 0 4.894531.246094 9.105468.945313l.472656.089843c10.363282-4.039062 19.9375-4.757812 19.9375-4.757812-8.882812 1.710938-16.035156 5.527344-16.035156 5.527344 1.640625.402344 2.085938.515625 3.671875 1.027344 0 0 9.335938-4.542969 18.378907-5.285157 0 0-1.199219.714844-1.496094 1.957031 0 0 3.535156-1.125 7.207031-.90625 0 0-3.671875.601563-6.632813 2.203126-1.589843.855468-3.945312 2.859374-3.945312 2.859374s0-1.925781.765625-3.191406c0 0-5.039063.957032-9.082031 4.578125 0 0 5.078125 2.640625 6.117187 6.546875 0 0 .09375.4375.105469.53125l.007812.09375c7.234376-11.558594 25.417969-7.609375 25.417969-7.609375s.613281.089844 1.691407-.585937c0 0 .304687-.199219.296874-.453125-.003906-.082031-.113281-.148438-.269531-.199219.054688-.34375.054688-.558594.035157-.617188-.027344-.089843-.074219-.015624-.074219-.015624-.117188.195312-.246094.375-.367188.539062-.121093-.019531-.246093-.035156-.363281-.046875.0625-.449219.082031-.828125.0625-.890625-.027344-.085938-.070312-.011719-.070312-.011719-.203126.328125-.421876.617188-.617188.847657-.390625-.121094-.640625-.234376-.824219-.347657.054688-.308593.0625-.632812.082031-1.011719.003907-.074218.019532-.082031 0-.097656-.027343-.027344-.097656.050782-.097656.050782-.171875.210937-.367187.402343-.546875.558593-.128906-.125-.289062-.261719-.546875-.417969.097656-.445312.101563-.597656.0625-1.070312-.003906-.070312-.011718-.121094-.046875-.125-.042969-.003906-.117187.089844-.117187.089844-.273438.289062-.609375.511718-.863282.660156-.167968-.058594-.324218-.105469-.488281-.148438-.003906-.039062-.003906-.082031-.007812-.128906-.058594-.519531-.179688-.832031-.242188-.863281-.058593-.035156-.148437.089844-.148437.089844-.191406.296875-.496094.546875-.78125.738281-.351563-.011719-.695313-.003906-1.027344.015625 0 0-.335938-.007813-.4375-.199219-.296875-.558594.316406-1.160156.316406-1.160156.441406-.367188 1.386719-1.050781 2.753906-1.144531.042969.117187.101563.238281.183594.402343 0 0 .125.273438.195313.289063.070312.015625.328125-.121094.613281-.453125.046875-.054688.085938-.117188.125-.183594.1875.03125.378906.074219.574219.128906-.042969.160157-.09375.335938-.160157.511719 0 0-.085937.1875.039063.15625.085937-.023437.382813-.167969.730469-.457031.132812.050781.261718.105469.398437.167969-.042969.1875-.101562.390625-.179687.601562 0 0-.085938.1875.035156.152344.089844-.019531.378906-.164063.722656-.445313.011719.003907.019532.007813.027344.011719.191406.113281.375.207031.554688.289063-.136719.566406-.3125 1.171875-.523438 1.621094 0 0-.019531.046874.011719.066406.03125.019531.070312-.015625.070312-.015625.046875 0 .6875-.59375 1.242188-1.382813.261719.0625.503906.101563.730469.117188-.042969.210937-.105469.472656-.199219.714844 0 0-.015625.054687.007812.058593.035157.007813.351563-.210937.828125-.789062.703125-.078125 1.160156-.355469 1.316406-.453125.226563-.144532.261719-.1875.261719-.1875.140625-.125.246094-.265625.375-.457032.945313-1.417968-.222656-1.941406-.222656-1.941406-.65625-.296875-1.308594-.511718-1.308594-.511718-1.105469-.507813-4.121093-1.660157-5.46875-3.34375-1.886719-2.355469-2.851562-2.917969-2.851562-2.917969-1.808594-1.046875-4.984375-2.816407-6.535157-3.410157-.144531-.0625-.347656-.15625-.496093-.21875-5.3125-2.269531-7.429688-4.257812-7.714844-4.214843zm-.417969 3.890625c.328125.007812.714844.1875.714844.1875s2.582031 1.136718 4.589844 2.449218c0 0 .242187.164063.136718.296876-.050781.0625-.183593.097656-.183593.097656-.847657.285156-2.6875.183594-2.6875.183594s.566406.898437 1.351562 1.324218c0 0-.839843.183594-1.167969.164063 0 0 .78125.390625-.132812.84375 0 0-.371094.253906-.710938-.179688-.335937-.433593-1.886718-2.035156-2.335937-4.472656 0 0-.140625-.664063.140625-.835937.078125-.046876.175781-.0625.285156-.058594zm14.03125 5.945312c.054688-.007812.105469.039063.105469.039063l5.625 3.746093c-4-2.195312-4.773437-.832031-4.773437-.832031s-.039063.027344-.0625 0c-.023438-.027343.003906.003907-.003907-.074219-.15625-1.304687-.9375-2.675781-.9375-2.675781s-.074219-.097656-.003906-.171875c.015625-.015625.035156-.027344.050781-.03125zm1.425782 1.46875s.308593.414063.242187.75c0 0 .59375.234375.816406-.136718 0 0-.527343-.449219-1.058593-.613282zm8.007812 3.296875c.199219-.003906.386719.023438.507812.066407.320313.121093 1.257813.460937.871094 1.300781-.390625.835937-.78125.929687-.78125.929687s-.1875.039063-.261718-.050781c-.070313-.089844-.101563-.167969-.03125-.207031.066406-.042969.59375-.28125.621093-.597656.027344-.316407-.160156-.40625-.230469-.410157-.074218 0-.257812.046875-.164062.28125.089844.230469-.125.390625-.125.390625s-.15625.128906-.261719.019532c-.101562-.109376-.695312-.585938-.804687-.660157 0 0-.359375-.253906-.15625-.679687.125-.269532.488281-.371094.816406-.382813zm-6.746094.273438c.296875-.011719.59375.042969.878906.148437.214844.078125.65625.257813.734376.507813.003906.007812.003906.011719 0 .015625-.054688.058594-.601563-.089844-.628907-.097656-.3125-.054688-.628906-.066407-.945312-.035157-.320313.03125-.636719.109375-.941407.210938-.21875.078125-.515624.289062-.75.238281-.003906-.164062.214844-.367188.347657-.472656.230469-.1875.488281-.335938.773437-.429688.175782-.054687.351563-.082031.53125-.085937zm0 0" fill="#011e41"/></svg>