<svg height="86pt" viewBox="0 0 70 86" width="70pt" xmlns="http://www.w3.org/2000/svg"><path d="m62.925781 27.523438 3.050781-8.148438-6.558593-14.386719-.488281-.277343c-.375-.21875-10.523438-4.335938-23.972657-4.335938-13.445312 0-23.734375 4.308594-24.121093 4.519531l-.457032.253907-7.335937 13.054687 3.917969 9.71875-6.65625 12.28125 6.21875 13.367187c.082031.054688 8.890624 6.199219 27.238281 30.613282l1.195312 1.589844 1.195313-1.589844c18.347656-24.414063 26.9375-30.402344 26.9375-30.402344l6.414062-13.636719zm0 0" fill="#9fa0a2"/><path d="m63.875 41.570312c.753906-.25 3.808594-1.257812 3.808594-1.257812l-.929688-2.078125c-1.230468-2.765625-3.617187-7.003906-5.496094-10.230469-.722656-1.242187-1.375-2.339844-1.855468-3.136718.765625-.773438 5.019531-5.132813 5.019531-5.132813l-6.050781-13.453125s-9.289063-4.601562-23.382813-4.601562c-14.089843 0-23.847656 4.539062-23.847656 4.539062l-6.398437 12.703125s4.453124 4.617187 5.765624 5.945313c-.472656.785156-1.113281 1.863281-1.820312 3.082031-1.886719 3.234375-4.296875 7.503906-5.535156 10.285156l-1.023438 2.300781s3.339844.742188 4.007813.886719c-.523438.804687-1.027344 1.765625-1.390625 2.855469l-.484375 1.449218 1.253906.882813c.09375.070313 9.480469 6.839844 27.789063 31.199219l1.652343 2.195312 1.648438-2.195312c18.3125-24.359375 27.699219-31.128906 27.789062-31.199219l1.246094-.878906-.476563-1.453125c-.355468-1.070313-.816406-1.972656-1.289062-2.707032" fill="#fff"/><path d="m34.953125 2.902344c-13.160156 0-22.269531 4.007812-22.269531 4.007812l-6.410156 12.039063 6.824218 5.601562s-5.917968 9.699219-8.0625 14.511719l4.882813 1.078125s-2.222657 1.796875-3.21875 4.777344c0 0 9.417969 6.585937 28.253906 31.644531 18.835937-25.058594 28.253906-31.644531 28.253906-31.644531-.996093-2.980469-2.933593-4.339844-2.933593-4.339844l4.59375-1.515625c-2.140626-4.808594-8.058594-14.511719-8.058594-14.511719l5.855468-4.910156-5.882812-12.667969s-8.671875-4.066406-21.828125-4.066406zm-30.210937 16.011718 3.941406 9.023438c.710937-1.21875 1.347656-2.292969 1.820312-3.078125-1.308594-1.332031-5.761718-5.945313-5.761718-5.945313zm59.675781.808594s-4.253907 4.359375-5.019531 5.132813c.480468.800781 1.132812 1.898437 1.855468 3.136719zm3.261719 20.582032s-3.054688 1.007812-3.808594 1.257812c.472656.734375.929687 1.632812 1.289062 2.703125l.476563 1.453125zm-2.042969 5.414062-1.246094.882812c-.089844.066407-9.476563 6.839844-27.789063 31.199219l-1.648437 2.195313-1.652344-2.195313c-18.3125-24.359375-27.699219-31.132812-27.792969-31.199219l-1.25-.882812 3.722657 7.046875s8.132812 5.460937 26.972656 30.519531c18.832031-25.058594 26.964844-30.519531 26.964844-30.519531zm-61.378907-.003906.484376-1.445313c.363281-1.09375.867187-2.054687 1.390624-2.855469-.667968-.148437-4.007812-.886718-4.007812-.886718zm0 0"/><path d="m36.707031 4.640625-.417969.160156c.109376.078125.222657.148438.320313.238281.371094.34375.585937.765626.613281 1.199219v.011719c.011719.207031.03125 1.804688.03125 1.824219.019532.421875-1.074218 1.179687-1.839844 1.574219-.1875.101562-.375.199218-.566406.300781.207032.046875.417969.097656.625.144531.816406.199219 1.972656.695312 1.996094 1.101562l.265625 5.28125s-2.773437 1.621094-2.832031 1.621094c-.054688 0-6.203125.007813-6.203125.007813l-.625.664062h6.949219l3.257812-1.894531s-.339844-5.667969-.339844-5.667969c-.050781-.710937-1.113281-1.183593-1.820312-1.414062.652344-.390625 1.609375-1.066407 1.570312-1.695313 0-.058594-.039062-1.617187-.050781-1.828125-.03125-.539062-.300781-1.066406-.753906-1.484375-.054688-.050781-.117188-.097656-.179688-.144531zm-8.363281.066406-.335938.308594c.0625.035156.128907.066406.175782.109375.214844.203125.296875.488281.242187.851562-.84375 5.199219-1.609375 9.921876-1.609375 9.921876l-2.726562 2.230468-4.746094.035156-.371094.605469h5.183594l3.136719-2.59375s1.335937-8.808593 1.550781-10.222656c.070312-.46875-.042969-.855469-.328125-1.117187-.050781-.046876-.109375-.089844-.171875-.128907zm17.371094.785157-.3125.15625c.054687.039062.113281.070312.160156.109374.382812.316407.640625.722657.769531 1.203126.503907 1.917968 2.402344 9.132812 2.402344 9.132812l-1.804687 2.046875-4.746094-.027344-.101563.65625h5.183594l2.0625-2.390625s-2.191406-8.019531-2.546875-9.335937c-.160156-.582031-.488281-1.078125-.976562-1.476563-.027344-.027344-.0625-.050781-.089844-.074218zm-11.136719.371093-1.839844.027344-.191406 3.304687.472656-.464843.117188-2.453125 1.011719-.015625zm6.796875.328125 1.402344 9.367188.421875-.5625-1.335938-8.367188 1.363281.148438.355469-.332032zm-15.632812.25-2.253907.328125-2.476562 8.96875.667969-.566406 2.152343-8.089844 1.386719-.199219zm-8.210938.027344-.617188.457031-4.011718 9.308594.734375-.511719zm38.152344 1.242188-.378906.121093.585937 1.269531-4.890625-1.292968 1.042969 2.867187.351562-.300781-.785156-2.101562 4.953125 1.300781zm-21.175782 3.359374-2.070312.019532-.257812 4.429687.542968-.597656.15625-3.332031 1.148438-.007813zm15.859376.773438.046874.445312c.566407.277344 1.222657.46875 1.941407.558594l2.238281.300782.351562-.339844s-1.839843-.277344-2.75-.402344c-.6875-.089844-1.320312-.285156-1.828124-.5625zm6.582031.089844c.089843.050781.183593.097656.261719.152344.398437.273437.6875.601562.886718 1.015624 0 .003907 1.691406 3.605469 1.691406 3.605469l-1.59375 1.5625-6.570312-.085937-.363281.585937h7.347656l1.816406-1.820312s-1.214843-2.542969-1.785156-3.726563c-.222656-.472656-.5625-.867187-1.039063-1.214844zm-39.894531 3.542968-.707032.542969-.800781 2.1875-6.882813.097657-.777343.464843h7.996093zm39.0625 4.75c-12.890626 2.515626-16.25 11.035157-16.25 11.035157.195312-2.40625 1.425781-4.824219 1.425781-4.824219-2.003907-2.273438-9.960938-2.335938-9.960938-2.335938 7.535157-1.902343 11.390625 1.023438 11.390625 1.023438l1.136719-1.417969c-3.246094-.597656-3.792969-1.195312-8.839844-1.195312-4.390625 0-5.378906.453125-7.691406.964843 2.296875 3.042969 3.199219 6.777344 3.199219 6.777344-5.546875-7.246094-16.414063-9.394531-16.414063-9.394531s13.894531 5.527344 16.441407 14.320313c.96875.933593 1.414062 1.6875 1.414062 1.6875l.09375.132812c.195312-2.019531-.761719-5.304688-.761719-5.304688 2.570313 3.238282 2.796875 7.367188 2.796875 7.367188s-2.769531 1.023438-4.808594-3.128906c-1.578124-2.5-5.222656-3.921875-5.269531-3.941406.023438.019531 2.167969 1.691406 3.363281 3.601562 1.199219 1.921875 2.40625 5.277344 6.25 4.679688l-1.441406 1.199218 1.0625 7.054688-.589844-1.230469c-4.480468-8.519531-11.5-3.484375-12.683593-2.546875-.058594.046875-.410157.339844-.53125.441406 0 0 1.648437-3.21875 5.167969-5.757812 0 0-1.214844-2.320313-.8125-4.246094 0 0-3.511719-4.636719-10.003907-2.714844 0 0 2.929688 1.339844 4.734375 3.246094 0 0 .636719.621094.90625 1.191406-2.683594-.851562-8.765625 1.320313-8.765625 1.320313s2.828125-.453125 6.277344 1.925781l1.765625 1.210938c-3.65625 0-8.285156 2.023437-8.285156 2.023437s3.125.125 12.261718 6.242187l-1.203124 1.679688s4.109374 1.3125 5.234374 6.429688c.789063 3.613281 2.390626 8.015624 3.621094 9.996093.898438 1.441407 2.417969 2.460938 4.636719 2.460938h.035156.03125c2.222657 0 3.742188-1.019531 4.636719-2.460938 1.238281-1.980469 2.832031-6.382812 3.625-9.996093 1.125-5.121094 5.230469-6.429688 5.230469-6.429688l-1.195313-1.679688c9.132813-6.117187 12.253906-6.242187 12.253906-6.242187s-4.625-2.023437-8.28125-2.023437l1.761719-1.210938c3.460938-2.402344 6.28125-1.925781 6.28125-1.925781s-6.085937-2.171875-8.769531-1.320313c.269531-.570312.910156-1.191406.910156-1.191406 1.804688-1.90625 4.734375-3.246094 4.734375-3.246094-6.492187-1.921875-10.007812 2.714844-10.007812 2.714844.40625 1.925781-.808594 4.246094-.808594 4.246094 3.515625 2.539062 5.167969 5.757812 5.167969 5.757812-.191406-.164062-.378906-.320312-.5625-.46875-1.28125-1.007812-8.269532-5.941406-12.679688 2.601563l-.566406 1.203125 1.066406-7.054688-1.445312-1.199218c3.847656.597656 5.050781-2.757813 6.253906-4.679688s3.363281-3.601562 3.363281-3.601562-3.679687 1.425781-5.269531 3.941406c-2.039062 4.152344-4.804688 3.128906-4.804688 3.128906s.21875-4.128906 2.792969-7.367188c0 0-.957031 3.28125-.765625 5.304688l.097656-.132812s.445313-.753907 1.414063-1.6875c2.554687-8.828126 16.632813-14.949219 16.632813-14.949219zm-43.039063 1.707032c1.683594 1.203125 3.042969 2.851562 4.011719 4.257812 0 0 3.285156.703125 8.382812 4.371094-8.117187-8.105469-12.394531-8.628906-12.394531-8.628906zm43.878906 0s-1.324219.164062-3.898437 1.703125c-.722656.433593-1.539063.96875-2.453125 1.644531-.097657.074219-.121094.085938-.121094.085938l-1.917969 4.148437c.828125-.179687 1.746094-.363281 2.714844-.519531 0 0 2.132812-4.535156 5.675781-7.0625zm0 0" fill="#9fa0a2"/><path d="m25.535156 42.976562c-2.339844-.3125-3.441406 4.773438-3.441406 4.773438 1.445312-.464844 3.410156.15625 3.410156.15625-.949218.792969-1.265625 2.613281-1.265625 2.613281 4.910157 4.910157 4.011719 8.683594 5.546875 13.617188 1.121094 3.601562 3.464844 4.195312 5.234375 4.195312s4.238281-.59375 5.230469-4.195312c1.371094-4.976563.636719-8.707031 5.550781-13.617188 0 0-.316406-1.820312-1.269531-2.613281 0 0 1.96875-.621094 3.410156-.15625 0 0-1.4375-6.644531-4.519531-4.277344-1.746094 1.34375-1.066406 4.285156-1.746094 8.074219-.789062 4.433594-.554687 7.285156-6.65625 7.285156-6.105469 0-5.871093-2.851562-6.660156-7.285156-.679687-3.792969.003906-6.730469-1.746094-8.074219-.382812-.292968-.742187-.449218-1.078125-.496094zm3.210938.871094s2.21875 5.929688 2.546875 11.109375c.191406 3.003907 3.726562 2.847657 3.726562 2.847657s3.695313.160156 3.722657-2.847657c.046874-4.625 2.9375-11.109375 2.9375-11.109375s-3.160157 2.996094-4.746094 8.050782c-.015625-.03125-.230469-.113282-1.914063-.113282-1.8125 0-1.964843.09375-1.96875.121094-1.585937-5.058594-4.304687-8.058594-4.304687-8.058594zm0 0"/><path d="m34.519531 3.9375c-1.441406.011719-4.542969.1875-4.542969.1875l-1.902343 14.644531.625-.664062 1.636719-13.644531 4.179687-.15625c.683594.003906 1.292969.179687 1.773437.496093l.417969-.160156c-.570312-.449219-1.335937-.695313-2.1875-.703125zm5.546875.292969c-1.15625.039062-1.808594.609375-1.734375 1.574219.457031 5.902343.800781 10.328124.800781 10.328124l2.945313 2.636719.105469-.65625-2.558594-2.257812s-.695312-7.953125-.875-10.023438c-.078125-.886719.628906-1.339843 1.894531-1.226562.996094.109375 2 .238281 3.019531.386719.71875.117187 1.296876.34375 1.738282.65625l.308594-.15625c-.546876-.417969-1.257813-.707032-2.125-.851563-1.003907-.152344-2.003907-.285156-2.996094-.390625-.183594-.019531-.359375-.023438-.523438-.019531zm-12.878906.222656c-.160156.003906-.332031.019531-.515625.042969-1.007813.144531-2.03125.3125-3.070313.511718-1.765624.363282-2.980468 1.238282-3.410156 2.46875-1.6875 4.839844-3.140625 9.011719-3.140625 9.011719l1.917969 2.28125.375-.605469-1.679688-1.945312s2.355469-6.964844 2.992188-8.832031c.351562-1.042969 1.316406-1.726563 2.851562-2.035157 1.042969-.1875 2.074219-.355468 3.09375-.5.617188-.082031 1.089844-.019531 1.40625.164063l.335938-.308594c-.285156-.175781-.675781-.261719-1.15625-.253906zm21.429688 1.328125c-.917969.03125-1.191407.546875-1.003907 1.171875l1.003907 3.433594c.148437.503906.492187.992187.992187 1.390625.238281.195312.511719.363281.804687.511718l-.046874-.445312c-.183594-.101562-.359376-.210938-.511719-.328125-.382813-.308594-.632813-.660156-.753907-1.046875 0-.003906-1.035156-3.425781-1.035156-3.425781-.183594-.609375.171875-1.175781 1.808594-.785157 0 0 1.191406.3125 2.476562.679688 1.304688.378906 2.949219.898438 2.949219.898438l.382813-.125s-5.027344-1.542969-5.925782-1.78125c-.457031-.113282-.835937-.15625-1.140624-.148438zm-14.042969.082031-.425781.398438-.054688 2.453125-1.074219.015625-.476562.464843 1.988281-.027343zm-8.832031.578125-.523438.441406-1.925781 8.214844-1.613281.074219-.667969.566406 2.667969-.101562zm17.839843.003906-.359375.332032 1.582032 8.277344-1.605469-.058594-.425781.5625 2.65625.078125zm-26.050781.023438-4.097656 1.289062-5.546875 11.011719.777343-.464843 5.140626-10.421876 3.105468-.957031zm34.863281 3.902344-.351562.308594s1.832031.335937 2.761719.519531c.921874.195312 1.621093.4375 2.144531.734375l.652343.074218c-.042968-.03125-.089843-.066406-.136718-.097656-.683594-.464844-1.585938-.816406-2.824219-1.085937zm-17.886719.699218-.480468.507813-.078125 3.335937-1.230469.007813-.539062.597656 2.265624-.011719zm20.4375 1.738282-.351562.339844 1.027344 2.582031-5.371094-.371094 1.011719 3.410156.363281-.585937-.695312-2.265625 5.417968.324219zm-37.890624 2.667968-3.417969.246094-.738281.511719 3.445312-.214844zm39.0625 4.75s-8.449219.835938-13.394532 4.898438c0 0-3.855468-2.925781-11.390625-1.023438 0 0 7.953125.0625 9.960938 2.335938 0 0-1.234375 2.421875-1.425781 4.828125 0 0 3.359374-8.523437 16.25-11.039063zm-42.003907.632813s10.867188 2.148437 16.414063 9.394531c0 0-.902344-3.734375-3.199219-6.777344-.347656.074219-.726563.15625-1.152344.230469l1.925781 2.398438s-4.976562-4.167969-13.992187-5.246094zm36.375 4.511719c-1.664062 1.238281-3.644531 2.914062-5.925781 5.191406l4.003906-1.042969 1.917969-4.148437zm-33.398437.820312c1.070312 1.550782 1.660156 2.804688 1.660156 2.804688 3.753906.609375 6.722656 1.566406 6.722656 1.566406-5.097656-3.667969-8.382812-4.371094-8.382812-4.371094zm21.648437 5.5c-2.574219 3.238282-2.796875 7.367188-2.796875 7.367188s2.769532 1.023437 4.808594-3.125c1.585938-2.519532 5.269531-3.945313 5.269531-3.945313-3.15625.488281-5.28125 1.980469-6.539062 3.191407-.964844.929687-1.410157 1.6875-1.410157 1.6875l-.097656.132812c-.191406-2.023438.765625-5.308594.765625-5.308594zm-7.4375.003906s.953125 3.28125.761719 5.304688l-.097656-.132812s-.445313-.753907-1.410156-1.6875c-1.257813-1.207032-3.390626-2.707032-6.539063-3.1875.046875.019531 3.691406 1.4375 5.273437 3.941406 2.035157 4.148437 4.804688 3.125 4.804688 3.125s-.222656-4.125-2.792969-7.363282zm-12.765625 4.023438c-2.507812-.003906-6.417968 1.015625-7.859375 2.511719 0 0 6.082031-2.171875 8.765625-1.320313-.269531-.570312-.90625-1.191406-.90625-1.191406zm32.964844 0s-.636719.621094-.90625 1.191406c2.683594-.851562 8.765625 1.320313 8.765625 1.320313-1.445313-1.496094-5.351563-2.515625-7.859375-2.511719zm-26.433594.09375s.027344 3.585938 2.339844 3.785156c1.542969.132813 1.984375.617188 1.984375.617188l-.644531-.949219c-1.132813.050781-1.726563-.917969-1.730469-1.539063-.003906-.273437.070313-.527343.207031-.742187l-.171875-.25s-.367187-1.0625-1.984375-.921875zm19.351563 0c-1.15625.109375-1.4375.921875-1.4375.921875l-.164063.25c.132813.210937.207032.46875.203125.742187-.003906.621094-.597656 1.589844-1.734375 1.535157l-.640625.953125s.441407-.484375 1.984375-.617188c2.316406-.199218 2.339844-3.785156 2.339844-3.785156-.203125-.019531-.386719-.015625-.550781 0zm-27.46875 4.339844c-1.496094.199218-3.632813 1.101562-6.515625 3.238281 0 0 4.625-2.023437 8.28125-2.023437zm36.132812 0-1.761719 1.214844c3.65625 0 8.28125 2.027343 8.28125 2.027343-2.882812-2.140625-5.023437-3.039062-6.519531-3.242187zm-12.984375.761718-3.316406 7.613282.566406-1.203125c4.410156-8.542969 11.394532-3.613281 12.675782-2.605469-6.15625-5.117188-9.683594-2.433594-9.683594-2.433594zm-10.195312.027344-.242188 1.371094s-3.527344-2.683594-9.683594 2.4375c1.183594-.9375 8.199219-5.972656 12.683594 2.542969l.59375 1.234375zm-.066406 17.265625c.046874 3.261719 1.195312 5.605469 1.195312 5.605469-.148438-2.207031.011719-3.832031.15625-4.726562-.039062-.019532.015625.003906-.113281-.050782-.484375-.222656-.890625-.496094-1.238281-.828125zm9.398437.691407s-.304687.164062-.6875.292968c-.285156.097656-.542969.179688-.703125.214844.394531 1.066406 1.164062 4.40625 1.164062 4.40625.433594-2.660156.226563-4.914062.226563-4.914062zm-1.921875.542968c-.273438.074219-.574219.121094-.910156.15625-.070313.007813-.128906.015625-.097656.015625v2.609375zm-4.738281.019532.929687 2.800781.078125-2.613281c.019531.003906-.085937-.011719-.167969-.023438-.304687-.039062-.582031-.097656-.839843-.164062zm-.550781 4.140624c.003906 1.339844.105468 2.453126.199218 3.199219.292969.191407.597656.332031.894532.433594-.355469-1.003906-1.09375-3.632813-1.09375-3.632813zm5.90625 0s-.738282 2.628907-1.097657 3.632813c.300781-.101563.601563-.242187.894531-.433594.09375-.742187.199219-1.859375.203126-3.199219zm-3.964844 1.832032.132812 2.09375.710938.03125zm2.019531 0-.84375 2.125.710937-.03125zm0 0" fill="#fff"/><path d="m40.207031 58.203125c-.28125.269531-.601562.496094-.972656.691406 0 0 .207031 2.253907-.222656 4.917969 0 0 1.148437-2.347656 1.195312-5.609375zm-9.015625.882813c-.144531.894531-.304687 2.515624-.15625 4.726562 0 0 .765625-3.335938 1.160156-4.402344-.371093-.089844-.703124-.199218-1.003906-.324218zm5.109375.527343c-.210937.015625-1.15625.035157-1.15625.035157l1.164063 2.574218zm-2.714843.035157-.078126 2.613281 1.238282-2.550781s-.949219-.039063-1.160156-.0625zm-1.5625 3.953124s-.40625 1.058594-.667969 2.429688c.277343.320312.566406.570312.871093.769531-.097656-.746093-.199218-1.863281-.203124-3.199219zm5.90625 0c-.003907 1.339844-.105469 2.457032-.203126 3.199219.304688-.199219.597657-.449219.871094-.769531-.257812-1.371094-.667968-2.429688-.667968-2.429688zm-3.960938 1.832032-.484375 1.9375c.058594.007812.558594.152344.613281.15625zm2.019531 0-.132812 2.09375c.058593-.003906.5625-.152344.617187-.15625l-.484375-1.941406zm0 0" fill="#9fa0a2"/><path d="m34.515625 4.304688-4.179687.152343-1.640626 13.648438s6.152344-.007813 6.207032-.007813c.054687 0 2.832031-1.625 2.832031-1.625l-.265625-5.277344c-.023438-.40625-1.179688-.902343-1.996094-1.101562-.207031-.046875-.417968-.097656-.625-.144531.1875-.101563.375-.199219.566406-.300781.761719-.394532 1.859376-1.152344 1.839844-1.578126 0-.015624-.023437-1.617187-.03125-1.820312v-.011719c-.023437-.433593-.242187-.855469-.613281-1.199219-.097656-.089843-.210937-.164062-.320313-.238281-.480468-.316406-1.089843-.496093-1.773437-.496093zm6.125.300781c-1.261719-.113281-1.96875.339843-1.890625 1.226562.183594 2.070313.875 10.023438.875 10.023438l2.558594 2.257812 4.746094.027344 1.800781-2.046875s-1.894531-7.214844-2.398438-9.132812c-.128906-.484376-.386719-.886719-.765625-1.203126-.050781-.039062-.113281-.070312-.164062-.109374-.441406-.3125-1.019532-.539063-1.738282-.65625-1.019531-.148438-2.023437-.277344-3.019531-.386719zm-13.222656.226562c-.234375-.027343-.507813-.023437-.816407.015625-1.019531.148438-2.050781.316406-3.09375.503906-1.535156.308594-2.5.992188-2.851562 2.03125-.636719 1.871094-2.992188 8.835938-2.992188 8.835938l1.679688 1.945312 4.746094-.035156 2.726562-2.230468s.765625-4.722657 1.605469-9.921876c.058594-.363281-.023437-.652343-.238281-.851562-.050782-.042969-.117188-.078125-.175782-.109375-.160156-.09375-.355468-.15625-.589843-.183594zm7.15625 1.03125-.042969 3.304688-1.988281.027343.191406-3.304687zm14.300781.269531c-.78125.019532-.945312.453126-.808594.910157 0 0 1.035156 3.421875 1.035156 3.425781.121094.386719.371094.738281.753907 1.046875.152343.117187.324219.226563.511719.328125.511718.277344 1.140624.472656 1.828124.566406.910157.125 2.75.398438 2.75.398438l1.398438 3.433594-5.414062-.324219.695312 2.265625 6.570312.085937 1.59375-1.5625s-1.691406-3.601562-1.691406-3.605469c-.199218-.414062-.488281-.746093-.886718-1.019531-.078126-.050781-.171876-.097656-.261719-.148437-.523438-.296875-1.222657-.539063-2.148438-.730469-.925781-.1875-2.761719-.523437-2.761719-.523437l-1.042968-2.871094 4.894531 1.292968-.585937-1.265624s-1.648438-.519532-2.953126-.898438c-1.285156-.367188-2.476562-.679688-2.476562-.679688-.40625-.097656-.738281-.132812-.996094-.125zm-7.5.058594 2.203125.253906 1.851563 9.191407-2.65625-.078125zm-15.632812.25-2.0625 9.195313-2.667969.101562 2.476562-8.96875zm-8.828126.488282-3.109374.953124-5.144532 10.421876 6.886719-.097657.796875-2.1875-3.445312.214844zm17.59375 4.140624-.058593 4.4375-2.269531.007813.257812-4.425781 2.070312-.015625zm.75 41.644532c-1.148437.007812-2.4375.128906-2.988281.578125-1.105469.898437.871094 2.925781.871094 2.925781s-.9375-3.035156 1.523437-2.445312c2.125.511718 2.757813-.957032 2.757813-.957032s-1.015625-.105468-2.164063-.101562zm0 0" fill="#ba0c2f"/></svg>