<svg height="52pt" viewBox="0 0 70 52" width="70pt" xmlns="http://www.w3.org/2000/svg"><path d="m68.144531 44.820312h-1.707031l.148438-.738281 1.65625-.007812 1.121093-6.507813h-1.285156c.230469-.203125.417969-.460937.546875-.765625.238281-.554687.246094-1.175781.027344-1.703125-.085938-.78125-.609375-1.46875-1.3125-1.738281-.453125-.460937-1.101563-.726563-1.789063-.726563-.132812 0-.269531.007813-.394531.027344-.171875.027344-.371094.089844-.566406.1875l-2.308594-.421875c-.40625-.304687-.84375-.378906-1.078125-.417969l-3.152344-.515624-.054687-.007813c-.195313-.019531-.378906-.011719-.558594.019531-.398438-.214844-.800781-.277344-1.1875-.300781l-.144531-.011719-.140625.035156c-.214844.054688-.484375.167969-.941406.402344-.910157-.230468-1.828126-.457031-2.6875-.671875.101562-1.234375.085937-2.90625-.316407-4.851562.195313-1.378907.078125-2.433594-.078125-3.371094-.214844-1.269531-.992187-2.527344-2.085937-3.355469-.558594-.421875-1.261719-.804687-2.140625-1.152344-.148438-.1875-.351563-.332031-.601563-.414062-.351562-.121094-.703125-.230469-1.042969-.335938-.253906-.539062-.714843-1.078124-1.667968-1.035156h-.003906c-.101563 0-.121094 0-.421876-.390625-.019531-.027343-.039062-.050781-.058593-.078125.09375-.824218.226562-2.265625.300781-3.742187 2.695312-1.722657 4.140625-3.96875 4.3125-5.074219.039062-.25.15625-1.003906-.320312-1.5625-.191407-.222656-.542969-.492188-1.140626-.492188-.21875 0-.457031.035157-.730468.109376-.457032.117187-1.023438.464843-1.679688.859374-.289062.175782-.589844.359376-.882812.519532-.089844-.316406-.160156-.574219-.222656-.800782-.078126-.28125-.144532-.515624-.214844-.753906-.011719-.042968-2.152344-4.472656-3.601563-4.484375-.554687 0-.890625.328125-1.089843.523438-.160157.152343-.214844.207031-.433594.230469-.082032 0-.234375-.074219-.414063-.160157-.433593-.210937-1.03125-.496093-1.996093-.496093h-.089844c-1.5.027343-4.90625 4.003906-5.105469 4.53125l-.078125.210937c-.136719.363281-.3125.816406-.515625 1.367187-.84375-.441406-1.730469-.832031-2.527344-.984374-1.4375-.273438-3.246093.628906-3.269531 2.304687-.027344 1.886719 1.738281 4.332031 5.167969 5.488281l.101562.203125c.015625.046875.023438.09375.035157.144531.035156.164063.078124.390626.191406.632813-.003906.222656.003906.492187.015625.78125-1.117188-.0625-2.300781-.117187-3.554688-.101563-.292969.003907-.511719.089844-.664062.191407-1.164063.078125-2.640625.285156-4.1875 1.0625-.222657.0625-.4375.113281-.644531.167969-1.140626.292968-2.128907.546874-3.417969 1.171874-1.667969.808594-2.675781 1.617188-3.570313 2.332032-.378906.304687-.738281.59375-1.105468.84375-1.207032.8125-2.472657 1.972656-2.695313 4.382812-.128906 1.394532.195313 2.75.945313 3.914063.480468.75 1.289062 1.71875 2.074218 2.652343.386719.464844.757813.90625 1.078125 1.308594l.019531.3125.785157.835938c.5625.59375 1.140625 1.203125 1.484375 1.59375.074218.085937.15625.152344.242187.207031.035157.0625.074219.125.113281.1875.050782.175781.140626.46875.230469.765625.042969.140625.082031.28125.121094.410156h-13.917969l-1.113281 6.203125h.632813l-.277344 1.5625h-.632813l-1.113281 6.207031h31.332031c.683594 0 1.300781-.058593 1.851563-.238281l-.050782.238281h33.273438zm0 0" fill="#fff"/><path d="m39.742188 1.480469c-.433594-.003907-.519532.652343-1.40625.742187-.773438.085938-1.160157-.671875-2.601563-.644531-.917969.015625-4.109375 3.527344-4.261719 3.9375-.21875.566406-.542968 1.410156-.957031 2.574219-.992187-.566406-2.222656-1.222656-3.191406-1.402344-.960938-.183594-2.171875.382812-2.1875 1.40625-.019531 1.460938 1.53125 3.707031 4.898437 4.714844.09375.191406.199219.394531.28125.5625.132813.261718.09375.617187.332032.949218-.035157.375.019531 1.402344.019531 1.476563-.15625.148437-.296875.304687-.417969.488281-1.289062-.074218-2.597656-.148437-4.0625-.128906-.128906 0-.234375.035156-.230469.167969-.058593.003906-.113281.003906-.171875.007812-1.195312.066407-2.632812.246094-4.128906 1.023438-1.496094.398437-2.53125.59375-3.996094 1.304687-2.300781 1.113282-3.300781 2.25-4.558594 3.105469-1.160156.785156-2.113281 1.746094-2.292968 3.707031-.136719 1.429688.300781 2.542969.800781 3.320313.71875 1.121093 2.292969 2.847656 3.285156 4.125.003907.078125.007813.175781.011719.261719.667969.710937 1.578125 1.660156 2.0625 2.207031.046875.050781.132812.085937.195312.097656.101563.175781.207032.351563.316407.53125.070312.242187.472656 1.574219.546875 1.820313.078125.238281.203125.453124.359375.65625h-8.757813l-.304687 1.851562-.5625-1.851562h-4.925781l-.78125 4.355468h.636718l-.613281 3.414063h-.636719l-.78125 4.355469h5.371094l.289062-1.792969.550782 1.792969h8.691406l.363281-2.089844.839844 2.28125 1.320313-1.835938-.296876 1.644532h13.109376c1.847656 0 2.753906-.476563 3.445312-2.386719l-.507812 2.386719h31.371093l.867188-4.777344h-1.796875l.488281-2.691406h1.644531l.855469-4.65625h-8.515625c.074219-.117188.144531-.246094.203125-.394532.628906-.039062 1.015625-.308594 1.230469-.742187.230468-.238281.433594-.539063.605468-.871094.164063-.03125.34375-.105469.476563-.207031l2.699219.496094.144531.5625 1.277344-.078126.703125-.183593c.691406-.171875 1.011718-1.117188.660156-1.738281.003906-.554688-.40625-1.078126-.917969-1.160157-.332031-.457031-.953125-.6875-1.535156-.597656-.160156.027344-.386719.117187-.492187.25l-2.941407-.535156c-.21875-.246094-.496093-.316407-.808593-.371094l-3.148438-.511719c-.234375-.027344-.4375.015625-.621094.113282-.316406-.292969-.652344-.367188-1.097656-.398438-.210938.054688-.632812.265625-1.042969.488281-1.308593-.328125-2.632812-.65625-3.808593-.945312.210937-1.496094.214843-3.40625-.246094-5.527344.21875-1.402344.089844-2.417969-.050782-3.246094-.207031-1.242187-1.007812-2.222656-1.734374-2.773437-.554688-.417969-1.285157-.796875-2.257813-1.160156 0-.109376-.058594-.210938-.226563-.265626-.957031-.328124-1.921874-.597656-2.820312-.835937.300781-.097656.609375-.3125.867188-.539063-1.121094.230469-1.273438-.316406-1.902344-1.0625.003906-.039062.007812-.074218.011718-.105468.113282-.941406.285157-2.765625.347657-4.449219 2.796875-1.644531 4.175781-3.871094 4.300781-4.683594.152344-.976562-.316406-1.105469-1.050781-.910156-.703125.1875-2.292969 1.417969-3.378907 1.773437-.40625-1.398437-.558593-1.972656-.730468-2.582031-.097656-.332031-2.15625-3.8125-2.722656-3.816406zm0 0"/><path d="m27.320312 17.148438c.339844.40625.15625 1.699218 0 2.972656-.101562.824218-.234374 1.882812-.40625 3.015625l2.25 1.382812 1.429688-.335937c-.175781-2.496094-.917969-4.753906-.875-6.3125.03125-.21875.066406-.417969.109375-.59375-.75-.03125-1.785156-.101563-2.507813-.128906zm15.363282 1.417968c-.125.8125-.265625 1.433594-.445313 1.824219-.1875.453125-.558593.613281-.796875.695313-.015625.070312-.035156.171874-.050781.238281-.347656 1.601562-.90625 2.914062-1.59375 4l1.058594.417969 2.457031-1.050782c.117188-.679687.246094-1.332031.363281-1.929687.316407-1.625 1.054688-3.03125 1.707031-3.457031-.621093-.1875-1.925781-.550782-2.699218-.738282zm-15.914063 5.472656c-.496093 2.890626-1.285156 6.015626-2.625 7.074219l1.503907 1.148438c.238281.191406.417968.433593.527343.71875l.9375.816406c.386719.109375.765625.488281.929688.808594l.671875.601562c.328125.402344.550781 1.179688.28125 1.710938-.019532.492187-.316406.910156-.808594 1.078125l-.03125.894531v.011719c.449219-.25.988281-.410156 1.609375-.410156h.230469c.503906-2.359376 1.382812-5.996094 1.929687-8.191407-.941406.179688-1.980469.304688-3.109375.363281 1.109375-1.523437 1.691406-3.152343 1.789063-4.71875.03125-.5.03125-.996093.003906-1.484374l-1.558594.921874zm12.835938 1.574219c-.921875 1.347657-2.046875 2.320313-3.207031 3.054688-.917969.582031-2.09375 1.070312-3.523438 1.425781-.601562 2.199219-1.523438 5.996094-2.230469 8.398438h9.746094c.738281-1.902344 1.746094-3.765626 3.113281-5.847657-.96875-1.507812-.773437-4.332031-.359375-6.96875l-2.296875.9375zm-14.140625 10.828125c.144531.589844-.25 1.183594-.640625 1.59375-.074219.0625-.171875.292969-.226563.457032h2.945313l-1.09375-.890626-.003907-.285156zm27.613281 1.355469c-.3125.550781-.578125 1.15625-.855469 1.789063.226563.371093.722656.496093 1.570313.703124.203125.050782.421875.09375.628906.113282-.324219-.292969-.597656-.730469-.378906-1.140625-.378907-.417969-.617188-.703125-.835938-1.132813-.054687-.105468-.09375-.21875-.128906-.332031zm-25.042969 1.097656-.011718.046875h.0625.003906l-.039063-.035156zm0 0" fill="#891216"/><path d="m35.910156 2.882812c1.554688 1.214844-.757812 2.777344-3.265625 2.996094 2.070313.398438 6-1.816406 3.265625-2.996094zm4.128906.058594c-.355468.296875-.285156.871094.109376 1.453125.34375.507813.894531.984375 1.519531 1.191407-.804688-.742188-1.722657-1.695313-1.628907-2.644532zm6.742188 3.992188c-1.683594 1.511718-3.746094 2.730468-7.769531 3.351562 2.257812.003906 5.832031-.589844 7.769531-3.351562zm-19.773438.566406c-.605468-.003906-1.039062.265625-1.027343.6875.558593-.628906 1.402343-.34375 2.605469.253906.964843.476563 2.160156.980469 3.324218 1.273438-1.140625-.488282-2.523437-1.296875-3.160156-1.609375-.582031-.292969-1.375-.605469-1.742188-.605469zm15.40625.71875c-1.183593.300781-3.378906.453125-4.828124.484375-2.859376.066406-4.597657-.039063-6.3125-.238281 1.519531.566406 3.941406.808594 6.425781.875 1.738281.046875 3.582031-.042969 4.898437-.351563-.078125-.347656-.125-.535156-.183594-.769531zm-10.503906 1.804688c-.707031-.019532-1.328125.164062-1.691406.707031.21875-.152344.804688-.492188 1.023438-.519531-.023438.164062.03125.292968.160156.433593.089844-.226562.21875-.378906.382812-.5 0 .167969.042969.523438.207032.8125.144531-.269531.269531-.609375.492187-.757812-.023437.117187-.015625.296875.105469.542969.203125-.402344.320312-.5.652344-.5-.453126-.125-.90625-.207032-1.332032-.21875zm6.433594 5.121093c-.257812-.019531-.582031.074219-.804688.109375-1.023437.160156-1.664062 1.214844-2.699218 1.621094.890625-.167969 1.164062-.519531 1.496094-.847656.035156.089844.15625.199218.230468.285156.082032-.269531.164063-.417969.382813-.695312.023437.199218.078125.34375.191406.539062.09375-.277344.160156-.425781.40625-.691406.015625.152344.101563.320312.261719.582031.078125-.257813.160156-.421875.328125-.636719.046875.1875.140625.386719.296875.539063.058594-.179688.113281-.347657.175781-.4375.222656.0625.4375.179687.949219.046875-.480469-.027344-.710938-.175782-.984375-.34375-.066407-.042969-.144531-.0625-.230469-.070313zm2.449219.011719c-.105469.023438-.167969.09375-.253907.1875-.171874.191406-.429687.230469-.714843.21875.332031.085938.367187.355469.207031.945312.148438-.125.355469-.363281.410156-.84375.101563.070313.171875.238282.222656.339844.132813-.210937.140626-.363281.128907-.53125.113281.007813.199219.09375.308593.242188.058594-.109375.070313-.203125.050782-.304688.15625-.015625.273437.007813.519531.050782-.09375-.078126-.347656-.191407-.398437-.210938-.242188-.09375-.378907-.117188-.480469-.09375zm-18.621094 15.5625c-.09375.011719-.1875.039062-.265625.09375-.015625.054688-.007812.21875.046875.273438.335937.335937.433594.542968.421875.867187l1.351562 1.078125c.253907.203125.234376.359375.203126.472656l-.855469-.683594c-.628907.058594-.921875.570313-.878907 1.105469-.246093-.472656-.03125-1.160156.652344-1.285156l-.511718-.40625c-.199219.367187-.328126.625-.378907.976563-.046875.320312.050781.675781.132813 1.015624l.769531.804688c-.023437-.09375.007813-.175781.019531-.242188-.238281-.21875-.316406-.484374-.203125-.800781.050781-.140625.226563-.402343.597657-.535156-.042969-.132813-.058594-.207031-.015626-.375.070313.199219.171876.355469.332032.460937-.441406.117188-.628906.324219-.695313.53125-.144531.453126.179688.523438.214844.671876.046875.175781-.183594.4375.199219.800781.230468.222656.785156.1875.914062-.296875.070313.667968-.699218.753906-1.03125.464844l-.933594-.980469c.246094.464843.480469.941406.847657 1.316406v.003906c.433593.421875.515625 1.226563.582031 1.777344.140625.046875.359375.035156.511719-.058594.105469-.410156.167969-1.621093.160156-2.097656v-.011719c.546875.054688.78125-.136718.871094-.371094-.390625-.375-.527344-.570312-.683594-.910156l2.601563 2.320313v.566406l.351562.285156.007812-.277343c.3125.226562.929688-.035157.75-.546876.320313-.207031.066407-.886718-.0625-1.039062l-.523437-.46875v.1875c-.011719.285156-.71875-.210938-.859375-.601562.292969.226562.511719.460937.617188.417968l.011718-.210937c.007813-.183594-.496094-.632813-.601562-.519531l-1.28125-1.105469c-.035156-.222657-.195313-.453125-.339844-.566407l-1.714844-1.308593c-.1875-.140625-.53125-.011719-.691406.027343-.207031-.34375-.097656-.632812-.390625-.8125-.0625-.011718-.15625-.019531-.25-.007812zm34.097656 2.128906c-.097656.03125-.203125.085938-.316406.144532.550781.152343.753906.523437.707031.839843.183594.109375.320313.269531.347656.5.023438.222657.007813.453125.015626.679688.007812.382812.121093.683593.226562 1.023437.015625.046875.039062.101563.046875.140625.035156.117188.0625.234375.078125.347657.199219.089843.453125.21875.675781.367187.222657.148437.398438.304687.519531.492187.148438.230469.210938.5625.070313.832032-.085937.179687-.339844.375-.652344.484375.453125.050781.902344-.171875 1.144531-.503907.128907-.183593.179688-.386718.222657-.578124-.222657-.058594-.484375-.148438-.789063-.375.285156.039062.597656.089843.839844.128906.65625.085937 1.078125-.035156 1.175781-.414063.359375-.328125.566407-.757812.777344-1.191406.398437.101563.558594-.085937.644531-.257813-.09375-.066406-.183594-.097656-.277344-.113281l-.449218-.082031c-.203125.003906-.230469.230469-.050782.386719-.265624-.003907-.429687-.261719-.34375-.460938l-.699218-.136719c.007812.023438.015625.042969.027344.066407.035156.109375.082031.328125.074218.457031 0 .445312-.234375 1.019531-.605468.960938l-2.054688-.3125c-.003906-.101563.019531-.1875-.011719-.257813l2.046875.324219c.25.039062.371094-.523438.371094-.738282 0-.222656-.097656-.488281-.167969-.773437-.003906.070313-.015625.148437-.027343.242187-.019532.140626-.132813.28125-.253907.3125-.015625.078126-.027343.15625-.042969.261719.304688-.335937.378907-.054687.355469.085938-.046875.308593-.347656.5-.425781.175781-.769531-.078125-1.035156-.167969-1.113281-.488281-.066407-.289063.570312-.113281 1.148437-.03125-.054687-.199219-.097656-.429688.058594-.632813-.433594-.066406-.988281-.160156-.914062-.539062.042968-.222656.699218-.046875 1.152343.03125 0-.03125.003907-.066406.011719-.097656l-1.777344-.304688c-.304687.347656-.570312 1.042969-.671875 1.773438-.273437-.730469.035157-1.445313.378907-1.824219l-.480469-.09375c.152343-.109375.417969-.160157.617187-.128907l2.871094.488282-.699219.121094c0 .367187.027344.550781.074219.71875l.699219.136718c-.285157-.402344-.050781-1.125.46875-1.097656-.484375.199219-.417969.898438-.167969 1.148438l.609375.128906c.160156.03125.25.160156.269531.292968l3.53125.648438.113282.4375.625-.039062-.070313-.285157.644531.121094c.285156.046875.527344-.644531.148438-.851563.15625-.300781-.082032-.605468-.242188-.65625l-.40625-.082031c-.011718-.460937-1.179687-.84375-1.15625-.183593l-3.765625-.683594c-.066406-.21875-.171875-.261719-.484375-.3125l-3.117187-.511719c-.234375-.035156-.464844.242187-.609375.316406-.355469-.179687-.308594-.539062-.945313-.578125zm0 0" fill="#8a8a8a"/><path d="m33.488281 10.273438c-.035156.070312-.070312.136718-.101562.207031-.515625 1.136719-.484375 2.601562-.398438 3.296875-.363281-.199219-.757812-.417969-1.039062-.574219-.421875-1.339844-.773438-2.210937-1.195313-2.253906-.375-.042969-.515625.355469-.527344.671875-.050781.738281.484376 1.46875.554688 1.894531.148438.859375.660156 1.125.921875 1.117187.160156-.015624.203125-.277343.1875-.601562.203125.355469.203125.835938-.085937.957031-.140626.058594-.328126-.003906-.507813-.132812-.046875.5625.011719 2.019531.132813 2.460937.582031 2.136719 2.800781 3.9375 5.640624 4.425782v.003906c.003907 0 .011719 0 .019532.003906.042968.003906.085937.011719.128906.015625.058594.011719.117188.019531.171875.027344.046875.007812.089844.011719.132813.019531.066406.003906.128906.011719.191406.015625.039062.007813.074218.011719.113281.015625.101563.007812.195313.011719.296875.019531.03125 0 .0625 0 .09375.003907.074219 0 .148438.003906.226562.003906.035157 0 .074219.003906.113282.003906.070312 0 .144531 0 .21875-.003906h.101562c.109375-.003906.214844-.007813.324219-.015625.148437-.007813.515625-.105469.675781-.1875.117188-.234375.167969-.335938.210938-.417969-.097656.007812-.429688.019531-.542969.027344-.089844.003906-.179687.003906-.269531.007812-.035156 0-.074219 0-.113282 0-.050781.003906-.101562.003906-.152343.003906-.042969 0-.085938 0-.128907-.003906-.046874 0-.09375 0-.144531 0-.039062 0-.082031-.003906-.121093-.003906-.054688 0-.105469-.003906-.160157-.003906-.03125-.003906-.066406-.003906-.097656-.007813-.085937-.003906-.167969-.007812-.25-.011719-.019531 0-.039063-.003906-.058594-.007812-.066406-.003906-.132812-.007812-.195312-.011719-.019531-.003906-.039063-.003906-.0625-.007812-.0625-.003907-.125-.011719-.1875-.015625-.015625-.003906-.03125-.003906-.042969-.007813-.074219-.007812-.144531-.015625-.210938-.023437h-.003906c-.382812-.050782-.675781-.105469-.816406-.148438-.359375-.105468-1.222656-.4375-2.363281-1.167968-.960938-.625-1.804688-1.3125-2.253907-1.851563-.226562-.261719-.367187-1.910156-.253906-2.894531.054688.304687.386719 2.421875.652344 2.667968.796875.738282 1.511719 1.179688 2.269531 1.609376.679688.394531 1.402344.683593 1.886719.84375.027344.011718.050781.019531.078125.027343.128906.039063.238281.074219.320313.09375.4375.097657 1.6875.136719 2.566406.101563.0625-.003906.128906-.003906.191406-.007813.195312-.007812.386719-.015625.570312-.023437h.015626c.074218-.003906.140624-.007813.207031-.011719.007812-.003906.015625-.003906.023437-.003906.46875-.035157.832032-.101563.980469-.285157.25-.4375.390625-1.328124.535156-2.492187-.335937-.089844-.667969-.1875-1-.285156-.042969-.011719-.082031-.023438-.128906-.035157-.078125-.023437-.15625-.046874-.234375-.070312-.140625-.039062-.28125-.078125-.421875-.113281-.085937 0-.171875.007812-.257813.011719-.015624 0-.03125 0-.046874.003906-.0625.003906-.128907.007812-.1875.015625-.011719.003906-.027344.003906-.039063.003906-1.75.183594-1.980469.910156-2.738281.839844-.140625-.011719-.515625-.054688-.789063-.425781-.125.015624-.261719.023437-.414062.027343-.742188.023438-1.824219-.082031-2.761719-.933593 2.425781.582031 2.863281-1.445313 4.5625-1.699219.035156-.007813.066406-.015625.097656-.019531-.023437-.082032-.035156-.183594-.03125-.300782.023438-.527344.511719-.964844.769532-.957031.085937-.203125.203124-.449219.402343-.738281-.042969.292968-.066406.574218-.054687.777344.167968.0625.296875.257812.292968.453124-.839843-.835937-1.398437 1.058594-.460937.605469.035156-.003906.074219.011719.121094.039063.003906.003906.007812.003906.011719.003906.035156.023438.082031.054688.132812.089844.007812.007812.019531.011718.03125.019531.007812.007813.019531.011719.03125.019531.011719.011719.027344.019532.039062.027344.011719.003906.019532.011719.03125.019531.015626.007813.03125.015625.046876.027344.011718.003906.023437.011719.035156.015625.015625.011719.035156.019531.054687.027344.011719.007812.019531.011718.03125.015625.03125.015625.0625.027343.097657.039062.003906.003907.007812.003907.011718.003907.03125.011718.058594.023437.09375.03125.011719.003906.023438.007812.039063.011718.023437.007813.050781.011719.078125.019532.015625.003906.03125.003906.046875.007812.023437.003906.050781.007812.078125.011719.015625 0 .035156.003906.054687.003906.027344.003906.054688.007813.085938.007813h.054687.101563c.019531-.003907.035156-.003907.054687-.003907.050782-.003906.105469-.011719.164063-.019531.328125-.050781.433593-.285156.425781-.476562.6875.21875.066406-1.222657-.039062-.683594-.226563-.667969-.402344-1.09375-.828126-1.839844.054688-.050781.101563-.101562.152344-.148438 0-.003906.003906-.003906.003906-.007812.023438-.019531.046876-.042969.066407-.0625.003906 0 .007812-.003906.007812-.003906.050781-.046875.101563-.09375.15625-.136719 0-.003906.003907-.003906.003907-.007813.023437-.019531.046874-.039062.074218-.058593.007813-.003907.015625-.011719.023438-.019531.019531-.015626.042968-.027344.0625-.046876.011718-.007812.019531-.015624.03125-.023437.023437-.015625.046875-.03125.066406-.046875.195312-.132812.445312-.285156.816406-.488281-.375.3125-.578125.5-.730468.667969 0 .003906 0 .003906-.003907.003906-.027343.03125-.054687.0625-.078125.09375-.003906.003906-.007812.007812-.011718.011718-.023438.027344-.046876.058594-.070313.089844-.003906.007813-.007813.011719-.011719.015625-.023437.03125-.046875.0625-.074218.097657 0 .003906-.003907.007812-.007813.011718-.027344.035156-.050781.074219-.082031.113282.28125.480468.460937.792968.703125 1.308593.011719-.007812.023437-.011719.035156-.015625.1875-.039062.488281.460938.523437.832032.019532.246093.019532.445312-.101562.550781.101562.015625.207031.054687.324219.117187.277343.148438.511719.304688.714843.460938.125-1.09375.246094-2.949219.28125-3.695313.003907-.128906.007813-.273437.011719-.425781-.230469.015625-.464843.0625-.695312.132812.167969.09375.292969.238282.527343.585938-.199218-.03125-.257812-.027344-.417968-.015625l-.289063.605469-1.308593-.484375c-.007813.003906-.019532.011719-.027344.015625.035156-.050782.074218-.101563.117187-.152344.554688-.695312 1.492188-1.386719 2.109375-1.363281 0-.046875 0-.089844 0-.128907-.964844.339844-2.027344.511719-3.175781.53125-.027344 0-.058594 0-.085937 0-.308594.003907-.621094 0-.9375-.019531-.03125 0-.058594-.003906-.085938-.003906-.320312-.019531-.648438-.046875-.984375-.085937-.027344-.003907-.058594-.007813-.089844-.011719-.335937-.039063-.675781-.089844-1.023437-.148438-.03125-.003906-.0625-.007812-.097656-.015625-.34375-.058594-.695313-.128906-1.054688-.207031-.039062-.007813-.078125-.019531-.117188-.027344-.179687-.039062-.355468-.078125-.539062-.125-.328125-.082031-.59375-.148437-.824219-.214843zm-7.101562 7.058593c-.292969.007813-.589844.019531-.886719.039063-1.851562.128906-3.84375.730468-5.054688 2.257812.101563-.445312.167969-.722656.410157-1.007812-4.023438.941406-5.769531 3.085937-7.203125 4-1.421875.90625-1.730469 1.964844-1.824219 2.824218-.136719 1.25.191406 2.246094.972656 3.308594.066407-.320312.148438-.652344.355469-1.0625-.003906.714844.050781 1.292969.320312 1.925782-.011718-1.136719.085938-2.09375.472657-3.164063-.011719 1.738281.136719 2.949219.621093 4.464844.296876.359375.628907.761719.917969 1.121093.179688-2.027343 1.882813-2.757812 3.433594-2.578124h.023437c.054688.007812.109376.015624.164063.023437.007813 0 .019531.003906.027344.003906.050781.007813.097656.019531.140625.027344.011718.003906.019531.003906.03125.007813.050781.011718.105468.023437.15625.035156h.003906c.164062.042968.332031.097656.5.167968-.070312-.007812-.164062-.019531-.261719-.03125h-.003906c-.074219-.007812-.152344-.011718-.234375-.019531-.011719 0-.023438 0-.03125 0-.074219-.007812-.148438-.007812-.226562-.011719h-.007813c-.066406 0-.136719 0-.203125 0-.015625 0-.03125 0-.046875 0h-.019531c-2.132813.054688-3.136719 1.351563-3.03125 3.082032.191406.191406.367187.378906.628906.714844.015625-.445313.113281-.992188.296875-1.410157.40625-.921875.933594-1.515625 1.652344-1.710937.269531-.074219.542969-.078125.804687-.050782.042969.003907.085938.011719.132813.015626.007812.003906.015625.003906.027343.003906.054688.007812.109376.019531.164063.027344.003906 0 .007813 0 .011719.003906.046875.007812.097656.015625.140625.027344.015625 0 .03125.003906.046875.007812.035156.007812.070312.015625.105468.019531.101563.023438.199219.042969.285157.058594.011719 0 .019531.003906.027343.003906.03125.003907.058594.011719.085938.015625h.027344c.035156.003906.070312.007813.101562.007813.242188-.003907.421875-.023438.644532-.046875-1.09375-.921875-1.507813-2.089844-2.144532-3.40625-.015625-.011719-.035156-.023438-.050781-.039063-.070313-.058593-.144531-.117187-.21875-.175781-.027344-.023438-.058594-.042969-.085937-.066406-.070313-.054688-.140626-.105469-.210938-.160156-.023438-.015626-.046875-.03125-.070312-.050782-.09375-.0625-.191407-.128906-.285157-.191406-.019531-.011719-.035156-.019531-.050781-.03125-.082031-.050781-.160156-.097656-.242188-.148438-.015624-.007812-.03125-.015624-.046874-.023437-.835938-.484375-1.742188-.796875-2.714844-.882813.304687-.105468.582031-.164062.855468-.191406.011719 0 .027344-.003906.042969-.003906.070313-.007812.140625-.007812.214844-.011719h.074219c.066406 0 .132812.003907.195312.007813.027344.003906.050782.003906.078125.007812.070313.003906.140625.011719.214844.023438.015625.003906.03125.003906.046875.007812.085938.011719.167969.03125.253906.046875.003906.003907.007813.003907.011719.003907.089844.019531.183594.042968.277344.070312.023437-.074219.03125-.183594.023437-.316406-.007812-.136719-.03125-.292969-.066406-.457032-.019531-.085937-.042969-.171874-.066406-.253906.460937.328125.769531.933594.921875 1.335938.53125.25 1.054687.59375 1.570312 1.015625.640625-.238281 1.539063-.632813 2.066407-1.097657-.019532-.097656-.035157-.199218-.050782-.296874-.003906-.027344-.007812-.054688-.011718-.082032-.011719-.082031-.019532-.160156-.027344-.242187-.003906-.023438-.003906-.046875-.007813-.074219-.007812-.101562-.015625-.207031-.019531-.308594 0-.019531-.003906-.039062-.003906-.058594-.003906-.085937-.003906-.175781-.003906-.261718-.011719-.910156.113281-1.8125.253906-2.363282.347656 2.730469 1.152344 5.296876 2.574218 7.285157 1-2.148438 1.617188-6.1875 2.003907-9.640625.058593-.523438.152343-1.121094.09375-1.667969-.007813-.070313-.042969-.222656-.09375-.402344zm4.234375.261719c-.167969.488281.039062 1.636719.171875 2.292969.292969 1.488281.605469 3.296875.664062 4.585937.027344.632813.035157 1.296875-.085937 2.261719-.109375.855469-.476563 2.011719-.957032 2.941406 1.210938-.136719 3.109376-.492187 4.597657-1.214843 1.910156-.925782 3.1875-2.261719 3.964843-3.429688-1.40625.894531-2.839843 1.429688-4.636718 1.789062 1.46875-.628906 2.964844-1.261718 4.230468-2.332031.921876-.773437 1.4375-1.433593 1.644532-2.042969-.46875.210938-.675782.222657-1.433594.261719-.078125.003907-.15625.007813-.234375.007813-.035156.003906-.070313.003906-.101563.003906-.046874 0-.089843 0-.132812 0-.039062 0-.078125-.003906-.117188-.003906-.039062 0-.078124 0-.121093-.003906-.039063 0-.078125-.003907-.117188-.003907-.039062-.003906-.078125-.003906-.117187-.007812-.039063-.003907-.074219-.007813-.113282-.007813-.039062-.003906-.082031-.007812-.125-.015625-.035156-.003906-.066406-.003906-.101562-.007812-.046875-.007813-.101562-.011719-.148438-.019531-.027343-.003907-.050781-.003907-.074218-.007813-.152344-.023437-.304688-.046875-.449219-.074219 0 0 0 0-.003906 0-.457031-.085937-.875-.199218-1.234375-.316406-2.617188-.859375-4.386719-2.640625-4.96875-4.65625zm15.609375 2.191406c-.039063.039063-.078125.078125-.117188.121094-.121093.121094-.320312.390625-.378906.464844-.792969.957031-1.101563 2.707031-1.296875 3.789062-.328125 1.824219-.679688 3.832032-.613281 5.667969 1.070312-.976563 1.945312-2.144531 2.527343-3.558594.175782 1.019531-.0625 2.140625-.902343 3.660157-.207031 1.683593-.871094 3.449218-1.554688 4.257812.066407 1.554688.339844 2.871094.9375 3.46875.03125.027344.0625.054688.101563.082031.003906.003907.007812.007813.015625.011719.035156.027344.074219.050781.117187.074219.007813 0 .015625.007812.023438.007812.046875.023438.097656.050781.148437.070313.003907 0 .007813 0 .007813.003906.050781.019531.101562.039062.160156.054688.035156.011718.078125.023437.117188.035156.019531.007812.035156.011718.054687.015625.050781.015625.101563.027343.152344.039062.011719.003907.023437.007813.035156.007813.0625.015625.121094.027344.1875.039062.003906 0 .007813.003906.011719.003906.054687.011719.105468.019532.160156.027344.050781.007813.101562.015625.15625.023438 0 0 .003906 0 .003906.003906.011719 0 .015625 0 .027344.003906.113281.015625.230469.03125.355469.046875h.007812.015625c.066406.007813.132813.015625.199219.023438.042969.003906.078125.007812.121094.011719h.003906c.019531 0 .035156.003906.054687.003906.019532.003906.035157.003906.054688.003906.011719.003906.03125.003906.042969.007812h.015625c.054687.003907.113281.011719.171875.015626.03125 0 .0625.003906.09375.007812.023437 0 .050781 0 .070312.003906h.019531c.015626.003906.03125.003906.046876.003906h.007812.003906c.035156.003907.066406.003907.101563.007813.09375.007813.183593.011719.28125.019531.109375.003906.226562.011719.34375.019532h.007812c.148438.007812.304688.015624.464844.023437h.03125c.152344.007813.308594.011719.464844.019531h.019531c.160156.003906.320312.011719.484375.019532.03125 0 .066406 0 .097656.003906.160157.003906.320313.007812.484375.015625-.070312-.222657-.128906-.40625-.167968-.554688-.003907-.015625-.011719-.035156-.015626-.050781-.011718-.039062-.019531-.078125-.027343-.113281-.550781-2.21875-.082031-4.367188 1.480469-4.429688-.785157.242188-1.859376 1.515625-1.074219 4.457031h-.003907c.042969.15625.097657.339844.160157.539063.003906.015625.011719.03125.015625.046875.03125.097656.066406.203125.105468.308594.410157.039062.605469.039062.996094.054687.011719-.03125.035156-.074219.058594-.125.046875-.097656.101562-.207031.128906-.265625-.03125-.066406-.066406-.136718-.101562-.207031-.011719-.019531-.019532-.042969-.03125-.066406-.027344-.046875-.046875-.089844-.066406-.136719-.441407-.914062-.828126-1.976562-.535157-2.914062.226563-.738282.683594-1.667969 1.757813-1.820313-.054688-.011719-.179688-.042969-.296875-.074219-1.042969-.261718-2.082031-.5-2.582031-.640625-1.652344-.121093-2.589844.089844-3.960938 1.328125.03125-.09375.066406-.179687.101562-.261718.003907-.003907.003907-.011719.007813-.015626.035156-.082031.070313-.15625.109375-.230468.003906-.011719.011719-.019532.015625-.03125.039063-.066406.078125-.136719.117187-.199219.007813-.011719.015626-.023437.023438-.035156.035156-.054688.074219-.105469.113281-.15625.015625-.019531.027344-.035157.042969-.054688.035156-.039062.070312-.082031.105469-.121093.015625-.019532.035156-.039063.054687-.058594.035156-.039063.074219-.074219.113282-.113282.023437-.019531.046874-.039062.070312-.0625.039062-.03125.078125-.0625.121094-.09375.023437-.019531.046875-.039062.074218-.054687.039063-.03125.082032-.058594.125-.085937.023438-.015626.046876-.027344.070313-.042969.046875-.027344.09375-.054688.144531-.082031.015625-.007813.03125-.015626.050782-.023438.054687-.03125.113281-.054688.171874-.082031.011719-.003907.019532-.007813.03125-.011719.066407-.027344.128907-.054688.199219-.078125 0 0 .007813-.003906.011719-.003906.070312-.023438.144531-.046875.21875-.070313h.007812c.074219-.019531.148438-.039062.226563-.058594h.011719c.074218-.019531.152344-.035156.226562-.046874.007813 0 .011719 0 .019532-.003907.074218-.011719.152343-.023437.230468-.03125.007813-.003906.015625-.003906.023438-.003906.078125-.011719.160156-.019531.238281-.027344-.011719-.03125-.023437-.066406-.039063-.097656-.011718-.019531-.023437-.039063-.03125-.058594-.015624-.023437-.027343-.042969-.039062-.0625-.007812-.015625-.015625-.027343-.023438-.039062-.027343-.039063-.058593-.078125-.089843-.113281l-.003907-.003907c-.074218-.089843-.164062-.167969-.253906-.234375-.007812-.003906-.015625-.011718-.023437-.015625-.039063-.027343-.082031-.054687-.125-.082031-.019531-.011719-.035157-.019531-.054688-.03125-.042969-.019531-.085937-.042969-.125-.058594-.019531-.011718-.042969-.019531-.0625-.03125-.066406-.023437-.128906-.046875-.183593-.066406.089843-.019531.179687-.027344.265624-.03125.253907-.015625.480469.019531.671876.074219v.003906c.027343.007813.058593.015625.085937.027344.015625.003906.03125.011719.050781.015625.019532.007812.039063.015625.058594.023437.019531.007813.039062.015625.058594.027344.027344.007813.054687.023437.078125.035156.023437.007813.042969.019531.0625.03125.019531.007813.042969.019531.0625.03125.023437.011719.046875.023438.066406.039063.019531.007812.039063.019531.054687.03125.023438.011718.046876.027344.070313.042968.015625.007813.03125.019532.046875.03125.023438.015626.042969.027344.066406.042969.015625.011719.035156.027344.050782.035157.019531.015624.039062.027343.054687.042968.023437.015625.046875.03125.066406.046875.011719.011719.023438.019531.039063.03125.066406.050781.132812.101563.191406.152344.070312-.441406.113281-1.0625.113281-1.722656.003907-.847657-.054687-1.761719-.199219-2.453125-.144531.203125-.289062.351562-.871093.730468.589843-1.046874.828125-2.253906.808593-3.445312-.007812-.429688-.050781-.863281-.121093-1.28125-.015625-.105469-.035157-.210938-.054688-.3125-.121093-.605469-.398437-1.113281-.941406-1.703125-.488281-.53125-1.558594-1.035156-2.847656-1.480469zm-24.304688 6.75c-.507812.339844-1.027343.597656-1.691406.859375.515625 1.0625.734375 1.660157 1.894531 2.617188.132813-.011719.269532-.007813.394532.011719-.027344-.789063-.066407-1.570313-.109376-2.347657-.074218-.152343-.359374-.78125-.488281-1.140625zm1.585938 2.859375c.007812.105469.011719.214844.015625.324219.007812.179688.011718.367188.019531.566406 0 0 .003906 0 .003906-.003906.019531-.015625.039063-.035156.0625-.054688.011719-.011718.023438-.023437.035157-.035156.027343-.023437.050781-.050781.078124-.078125.003907-.003906.011719-.011719.015626-.019531.0625-.066406.117187-.136719.175781-.214844-.148438-.152344-.28125-.3125-.40625-.484375zm20.78125 1.300781c-.113281.089844-.230469.179688-.347657.265626.03125.144531.0625.28125.101563.417968.015625.050782.03125.101563.046875.15625.101562-.285156.160156-.542968.199219-.839844zm-25.28125.285157c-.300781 0-.566407.074219-.832031.304687-.730469.632813-1 1.859375-.984376 2.125.054688 1 .625 1.804688.894532 2.253906.179687.296876.445312 1.875.824218 2.367188.527344.6875 2.0625 1.925781 2.566407 1.949219.03125.003906.160156-.011719.335937-.042969.261719-.046875.636719-.140625.972656-.289062.316407-.140626.601563-.328126.730469-.582032-.605469.066406-1.277343.042969-1.703125-.019531-.496094-.078125-1.070312-.394531-1.480468-.816406.597656.214843.867187.378906 1.554687.511719.410156.078124 1.046875.089843 1.679687.039062.144532-.125.246094-.253906.316407-.378906-.746094-.003906-2.589844-.175782-3.253907-.875.664063.203125 1.898438.476562 2.753907.542968-.007813-.0625-.015625-.128906-.023438-.195312-.148437-.007812-.285156-.027344-.402343-.066406-.359376-.113282-.628907-.265625-.84375-.382813-.738282-.398437-1.226563-.832031-1.433594-1.285156.625.46875 1.519531 1.082031 2.332031 1.386719.085937.03125.191406.054687.3125.066406-.015625-.113281-.03125-.226562-.050781-.339844-.0625-.328125-.148438-.683594-.375-.941406-.507813-.5-.828125-1.25-1.0625-1.667969-.128906-.597656-.285156-1.105469-.1875-1.59375.035156-.183593.15625-.566406.390625-.972656.035156-.429687-.097657-.492187-.195313-.625-.050781-.074219-.199218-.167969-.242187-.34375-.382813-.015625-1.003907.152344-1.5625.035156-.398438-.078125-.730469-.160156-1.03125-.164062zm35.714843 2.828125c-.390624.007812-.78125.074218-1.179687.027344-.835937-.09375-1.296875.386718-1.605469 1.433593-.167968.570313.214844 1.628907.398438 2.035157.105468.226562.199218.429687.304687.613281.070313-.132813.320313-.570313.320313-.570313-.0625-.382812.03125-.710937.445312-.886718.0625-.023438.128906-.03125.199219-.035157-.003906-.042969-.011719-.082031-.011719-.117187s.007813-.070313.007813-.105469c-.039063.011719-.078125.019531-.121094.027344-.003906 0-.011719 0-.019531.003906-.007813 0-.019532.003906-.035156.003906-.011719.003907-.023438.003907-.046876.003907 0 0-.003906 0-.003906.003906-.066406.003906-.136718.007812-.210937.003906-.003907 0-.007813 0-.007813 0-.019531 0-.042968-.003906-.0625-.003906-.003906-.003906-.015625-.003906-.019531-.003906-.019531-.003907-.03125-.003907-.046875-.007813-.015625 0-.027344-.003906-.035156-.007813-.011719 0-.019532-.003906-.035156-.003906-.011719-.007812-.027344-.007812-.035157-.011718-.011719-.003907-.023437-.007813-.027343-.011719-.015626-.003907-.03125-.011719-.039063-.015625-.011719-.003906-.023437-.007813-.03125-.011719-.011719-.003906-.023437-.011719-.03125-.015625-.011719-.007812-.019531-.015625-.03125-.023438-.011719-.003906-.015625-.011718-.027344-.015624-.007812-.007813-.019531-.019532-.035156-.03125-.003906-.003907-.007813-.007813-.015625-.011719-.007812-.015625-.023438-.03125-.035156-.046875 0-.003906 0-.003906-.003906-.007813-.015626-.019531-.027344-.042969-.035157-.0625.664063.207031 1.148438-.445312 1.878907-.683593.058593-.015626.109374-.015626.164062-.019532.492188.007813.667969.515625.792969.863282.222656.636718.546875 1.324218 1.085937 1.203124.078125-.019531.148438-.039062.207032-.0625.003906 0 .003906-.003906.007812-.003906.015625-.007812.03125-.011718.046875-.019531.148437-.074219.214844-.171875.246094-.308594.007812-.054687.015625-.113281.019531-.183593 0-.027344 0-.058594-.003906-.089844 0-.015625 0-.03125-.007813-.050782 0-.015624 0-.027343-.003906-.042968 0-.007813 0-.015625-.003906-.023438-.003907-.050781-.015625-.105468-.03125-.164062-.027344-.019532-.050781-.035156-.078125-.050782-.003906-.003906-.015625-.007812-.019532-.011718-.019531-.011719-.035156-.019532-.054687-.027344-.011719-.003906-.027344-.007812-.035156-.011719-.011719-.007812-.027344-.011719-.042969-.019531-.015625 0-.023438-.003906-.039062-.007812-.011719-.003907-.027344-.007813-.042969-.011719-.007813 0-.019531-.003907-.03125-.007813v.003906c-.28125-.042968-.574219.058594-.765625.171876.132812-.300782.425781-.414063.714844-.402344.011718 0 .015624 0 .023437.003906.019531 0 .039063 0 .054687.003906.011719 0 .023438.003906.035157.003906.011719.003907.027343.003907.035156.007813.027344.003906.046875.007813.074219.015625h.003906c.023438.007812.050781.015625.070312.023438-.019531-.066407-.039062-.128907-.054687-.183594-.011719-.023438-.015625-.050782-.019531-.074219-.023438-.066406-.042969-.128906-.058594-.1875-.003906-.027344-.007812-.050781-.015625-.078125s-.015625-.054688-.019531-.082031c-.003906-.035157-.011719-.070313-.015625-.105469l-.011719-.054688c-.027344-.21875-.027344-.410156-.023438-.570312 0-.089844 0-.191406-.011718-.277344 0-.019531-.003906-.035156-.007813-.050781 0-.007813 0-.019531-.007812-.027344-.003907-.015625-.007813-.027343-.015625-.039062-.003906-.023438-.011719-.042969-.027344-.054688-.464844-.261719-1.054688-.386719-1.503906-.441406-.132813-.015625-.261719-.019531-.394532-.015625zm-11.742187 1.621094c-.203125.355468-.386719.695312-.5625 1.027343l-1.105469 2.035157h2.933594c-.617188-.511719-.957031-1.417969-1.136719-2.28125-.058593-.269532-.101562-.535157-.128906-.78125zm11.472656.378906c-.0625-.007813-.117187 0-.167969.015625-.382812.101562-.40625.441406-.324218.722656.160156-.003906.273437.121094.355468.28125.109376.066406.199219.082031.367188.101563-.066406.058593-.179688.121093-.265625.132812.054687.152344.097656.296875.140625.378906.082031.15625.605469.671875 1.050781 1.003906 0 .003907.003907.007813.015625.011719.003906.007813.011719.015625.023438.019531.019531.019532.046875.035157.066406.050782.011719.007812.019531.011718.03125.019531.019531.015625.039062.027344.0625.039063.007812.007812.019531.015624.027344.019531.03125.019531.058594.035156.082031.050781.25.136719.609375.074219.804687.054688-.261718.179687-.621093.238281-.863281.207031-.261719-.074219-1.355469-.988281-1.527343-1.371094-.09375-.207031-.175782-.460937-.214844-.554687-.109375-.25-.472656-.261719-.597656-.21875-.355469.125-.25.511718-.15625.820312.132812.078125.359374.125.542968.136719-.070312.054687-.316406.121093-.476562.097656.171875.414063.472656.796875.738281 1.082031.371094-.160156.75.019532 1.113281.230469.015625.007813.03125.019531.050782.027344.078124.046875.160156.097656.234374.140625.011719.007812.019532.011718.03125.019531.027344.015625.054688.027344.082032.042969.011718.007812.023437.015625.039062.023437.023438.011719.046875.023438.066406.03125.015626.011719.039063.015625.050782.023438.023437.011719.039062.019531.058594.027343.019531.007813.039062.015626.0625.019532.011718.007812.023437.011718.039062.015625.035156.011719.070312.019531.101562.023437.101563.019532.285157-.066406.390626-.171875-.011719.035157-.023438.066407-.03125.097657-.011719.023437-.027344.042968-.035157.066406 0 .003906-.007812.011718-.011719.015625-.019531.042969-.050781.074219-.085937.105469-.042969.042968-.089844.078124-.144531.097656-.003906.003906-.015625.007812-.023438.011718-.046875.015626-.097656.015626-.148437.007813-.105469-.015625-.214844-.0625-.328125-.117187-.425782-.207032-.894532-.578126-1.144532-.433594-.394531.234375-.265624.582031.0625.898437.15625.027344.308594.003907.546876-.101562-.074219.132812-.148438.226562-.324219.292969.066406.046874.136719.085937.203125.132812.386718.242188.824218.421875 1.078125.417969.464843-.007813.722656-.492188.625-.90625-.03125-.109375-.046875-.207031-.0625-.300781-.070313-.460938.015625-.757813.441406-1.082032-.046875-.015625-.09375-.039062-.136719-.0625-.011718-.007812-.027344-.015625-.042968-.023437-.03125-.019531-.066407-.039063-.097657-.0625-.015625-.007813-.023437-.015625-.039062-.023438-.042969-.03125-.085938-.0625-.128907-.09375-.015624-.011719-.03125-.023437-.046874-.035156-.023438-.023437-.054688-.046875-.089844-.070313-.015625-.015624-.03125-.03125-.050782-.050781-.027343-.023437-.058593-.046875-.082031-.074219-.027343-.019531-.050781-.042968-.074219-.066406-.136718-.128906-.265624-.265625-.386718-.40625-.097656-.050781-.183594-.121094-.269532-.214844-.273437-.296874-.460937-.773437-.628906-1.144531-.015625-.027343-.027344-.058593-.042968-.085937-.167969-.222656-.363282-.328125-.535157-.34375zm2.921875 1.078125c-.035156.21875-.140625.410156-.371094.570312-.128906.085938-.308593.15625-.472656.203125-.054687.015625-.109375.027344-.167968.03125.058593.066406.117187.132813.183593.195313-.003906 0-.003906 0-.003906 0 .015625.011719.023437.023437.035156.03125.019531.015625.035157.035156.050781.050781.027344.019531.050782.042969.074219.0625.011719.015625.035157.027344.050781.042969.035157.03125.074219.0625.109376.089843.015624.011719.03125.023438.046874.035157.027344.019531.046876.035156.066407.046875.019531.015625.035156.027344.050781.035156.019531.015625.042969.027344.0625.039062.015625.007813.03125.019532.046875.027344.019531.011719.035156.019532.054687.03125.011719.003906.027344.011719.035157.015625.027343.011719.058593.023438.078125.03125.386718.109375.996094-.160156 1.0625-.414062.011718-.027344.015625-.050781.015625-.078125 0-.007813 0-.015625.003906-.023438v-.078125c-.003906-.015625-.003906-.03125-.003906-.046875-.003907-.007812-.003907-.019531-.003907-.027344-.007812-.015624-.011718-.03125-.015624-.046874-.007813-.007813-.007813-.015626-.011719-.023438-.003907-.019531-.015625-.042969-.027344-.058594 0-.003906 0-.007812-.003906-.011718-.007813-.023438-.023438-.046876-.035157-.070313-.003906-.003906-.011718-.011719-.015624-.019531-.011719-.015625-.023438-.03125-.035157-.046875-.003906-.007813-.015625-.015625-.019531-.023438-.015625-.015625-.027344-.027343-.042969-.042969-.003906-.007812-.015625-.015624-.019531-.023437-.015625-.015625-.03125-.03125-.046875-.042969-.007813-.007812-.015625-.015625-.023437-.019531-.023438-.019531-.042969-.035156-.066407-.054687 0-.003907-.007812-.007813-.007812-.007813-.027344-.023437-.054688-.042969-.085938-.0625-.003906-.003906-.007812-.007813-.015625-.011719-.023437-.015625-.050781-.035156-.074218-.050781-.011719-.007813-.015626-.011719-.03125-.019531-.019532-.011719-.042969-.023438-.0625-.039063-.015626-.007812-.027344-.015625-.039063-.023437-.007813-.003906-.015625-.007813-.023437-.011719-.097657-.054687-.199219-.109375-.300782-.160156zm-27.613281 2.855469c-1.089844 0-1.726563.746093-1.8125 1.25l-.34375 1.960937c-.03125.167969.007813.34375.113281.523437l.007813.019532c.03125.042968.058593.082031.085937.121094.046875.058593.085938.097656.125.136718.054688.054688.101563.09375.144532.125.058593.046875.113281.082032.164062.113282l3.144531 1.898437-.316406 1.796875h-1.640625l.105469-.597656h-2.660157l-.398437 2.277344h5.082031c.878906 0 2.003906-.722657 2.117188-1.351563l.410156-2.179687c.089844-.46875-.125-.886719-.644531-1.207032l-3.144531-1.894531.25-1.425781h1.644531l-.105469.589844h2.660156l.410156-2.15625zm6.246094 0-.394531 2.15625h1.691406l.058594-.320313h1.167968l-1.074218 5.925781h-.636719l-.335938 1.863282h3.738281l.335938-1.863282h-.632812l1.074218-5.925781h1.167969l-.054687.320313h1.691406l.394531-2.15625zm21.578125 0c.074218.179687.117187.5625-.3125 1.28125-.136719.203124-.316406.363281-.535156.476562-.058594.03125-.117188.054688-.179688.078125h.59375l-.058594.320313h1.691406l.398438-2.15625zm2.488281 0-.339844 1.835937h.636719l-1.078125 5.925781h-.636719l-.335937 1.863282h6.847656l.414063-2.277344h-2.1875l-.078126.414062h-1.597656l.410156-2.246094h1.992188l.289062-1.625h-1.988281l.375-2.054687h1.597657l-.058594.320313h2.039062l.390625-2.15625zm-55.203125 0-.332031 1.855468h.632812l-1.058593 5.914063h-.636719l-.332031 1.855469h2.832031l.960937-6.011719 1.847656 6.011719h2.957032l.332031-1.855469h-.632813l1.058594-5.914063h.636719l.332031-1.855468h-2.789062l-1 6.054687-1.835938-6.054687zm9.460938 0-.335938 1.855468h.648438l-1.058594 5.914063h-.648438l-.332031 1.855469h2.914063l.972656-5.597657 1.628906 4.410157 3.152344-4.398438-1 5.585938h2.957031l.332031-1.855469h-.636718l1.0625-5.914063h.632812l.332031-1.855468h-.949219c-1.105468.914062-2 1.109374-2.5625 1.109374-.050781 0-.101562-.003906-.148437-.007812l-2.433594 3.46875-1.570312-4.570312zm31.257812 0-2.753906 7.761718h-.707032l-.335937 1.863282h2.835937l.765626-2.398438h1.808593l-.089843 2.398438h2.828124l.335938-1.863282h-.644531l.046875-7.761718zm5.878906.046874-.488281.042969-.382813 2.066407h1.695313l.054687-.320313h1.171876l-1.078126 5.925781h-.632812l-.339844 1.863282h3.738282l.339843-1.863282h-.636719l1.0625-5.851562c-.113281-.007813-.230468-.027344-.351562-.0625-.375-.097656-.65625-.238282-.902344-.375-.191406.003906-.390625-.011719-.652344-.054688-.308593-.050781-.613281-.128906-.910156-.203125l-.074218-.019531c-.207032-.054688-.394532-.113281-.574219-.1875-.726563-.347656-.964844-.785156-1.039063-.960938zm-4.160156 1.261719-.011719 4.40625h-1.449219zm0 0" fill="#fff"/><path d="m38.792969 16.925781c.320312-.011719.6875.046875 1.082031.136719-1.074219-.117188-2.082031.257812-2.5625.394531-.097656.027344-.285156.042969-.425781-.042969.53125-.191406.875-.449218 1.90625-.488281zm0 0" fill="#fff"/><path d="m34.664062 10.734375c-.019531.042969-.039062.085937-.054687.128906-.003906.011719-.007813.023438-.007813.03125-.015624.046875-.027343.089844-.039062.136719-.039062.171875-.058594.367188-.078125.609375.46875-.109375.988281-.082031 1.492187.011719-.234374.09375-.414062.238281-.746093.59375.277343-.03125.355469-.023438.582031-.015625l.402344.601562 1.824218-.484375c-.035156-.042968-.074218-.085937-.113281-.128906-.019531-.019531-.042969-.042969-.066406-.066406-.027344-.023438-.050781-.050782-.078125-.074219-.023438-.023437-.046875-.042969-.070312-.066406-.027344-.027344-.058594-.050781-.085938-.078125-.027344-.019532-.050781-.042969-.078125-.0625-.03125-.027344-.0625-.050782-.09375-.078125-.027344-.019531-.054687-.039063-.082031-.058594-.03125-.027344-.066406-.054687-.101563-.078125-.03125-.019531-.058593-.039062-.085937-.058594-.035156-.023437-.074219-.050781-.113282-.074218-.027343-.019532-.054687-.039063-.085937-.058594-.039063-.023438-.078125-.046875-.117187-.070313-.03125-.015625-.0625-.035156-.09375-.050781-.039063-.023438-.078126-.046875-.121094-.070312-.03125-.015626-.0625-.03125-.09375-.046876-.042969-.019531-.085938-.039062-.125-.058593-.035156-.019531-.066406-.035157-.101563-.050781-.042969-.019532-.085937-.035157-.125-.054688-.035156-.011719-.070312-.027344-.105469-.039062-.042968-.019532-.085937-.035157-.128906-.050782-.035156-.011718-.070312-.023437-.105468-.035156-.046876-.015625-.089844-.027344-.132813-.042969-.035156-.007812-.070313-.019531-.105469-.027343-.046875-.015626-.089844-.023438-.136718-.035157-.035157-.007812-.070313-.015625-.105469-.023437-.046875-.011719-.09375-.015625-.140625-.027344-.03125-.003906-.070313-.011719-.101563-.015625-.050781-.007813-.101562-.011719-.15625-.015625-.027343-.003906-.054687-.007812-.085937-.007812-.078125-.007813-.160156-.007813-.238282-.007813zm-3.984374.617187c-.28125.074219-.078126.878907-.011719 1.070313.09375.28125.386719 1.097656.65625 1.371094-.269531-.628907-.421875-1.082031-.523438-1.550781-.035156-.164063-.089843-.507813-.011719-.5625.066407-.046876.203126-.035157.464844.269531-.21875-.488281-.425781-.640625-.574218-.597657zm.832031 1.425782c-.027344.007812-.054688.035156-.082031.089844-.109376.246093-.191407.414062-.125.546874.0625.121094.398437.238282.320312.097657-.109375-.199219-.109375-.371094 0-.542969.035156-.054688-.035156-.210938-.113281-.191406zm-.3125 6.996094c.308593 1.824218 2.023437 1.996093 2.53125 2.976562.484375.933594.496093 1.773438.476562 2.710938.339844-.582032.714844-1.8125.042969-3.015626-.542969-.96875-2.183594-1.105468-3.050781-2.671874zm1.503906 3.414062c.3125 1.039062.382813 1.972656.171875 2.695312-.226562.78125-.421875 1.421876-1.902344 3.347657 1.410156-.902344 2.714844-2.929688 2.636719-4.117188-.066406-.996093-.484375-1.523437-.90625-1.925781zm-9.429687 8.476562c-.09375 0-.214844.027344-.300782.058594l1.464844 1.152344c-.171875-.324219-.679688-.851562-1.164062-1.210938zm1.519531 1.367188c-.070313 0-.140625.007812-.199219.027344-.519531.144531-.820312.894531-.460938 1.316406-.136718.234375.011719 1.015625.808594.917969-.585937-.164063-.6875-.617188-.558594-.871094-.308593-.332031-.195312-1.050781.324219-1.195313.191407-.050781.457031-.042968.726563.101563-.164063-.214844-.417969-.296875-.640625-.296875zm-1.269531.804688c-.175782 0-.335938.144531-.363282.320312-.023437.175781.101563.320312.277344.320312.171875 0 .332031-.144531.355469-.320312-.175781 0-.324219-.136719-.269531-.320312zm8.953124.476562c-.199218.027344-.371093.171875-.425781.378906-.070312.273438.089844.5625.367188.632813-.089844-.179688-.097657-.363281-.035157-.570313.0625-.203125.179688-.3125.296876-.429687-.066407-.019531-.136719-.023438-.203126-.011719zm-8.710937.410156c-.175781 0-.335937.144532-.359375.320313-.027344.175781.097656.320312.269531.320312.175781 0 .339844-.144531.363281-.320312.023438-.175781-.101562-.320313-.273437-.320313zm42.90625.398438c-.078125 0-.144531.136718-.144531.304687s.066406.300781.144531.300781c.082031 0 .15625-.132812.15625-.300781s-.074219-.304687-.15625-.304687zm-41.242187.488281c-.132813.171875-.292969.273437-.476563.328125.339844.109375.671875.140625.824219-.019531zm41.515624.148437c-.058593 0-.109374.097657-.109374.214844 0 .121094.050781.21875.109374.21875.058594 0 .105469-.097656.105469-.21875 0-.117187-.046875-.214844-.105469-.214844zm-39.128906.28125c-.175781 0-.335937.140626-.359375.316407-.023437.175781.097657.320312.273438.320312s.335937-.144531.359375-.320312c.023437-.175781-.097656-.316407-.273438-.316407zm-3.144531.429688c-.011719.230469-.027344.464844-.050781.691406.152344-.242187.257812-.527344.089844-.664062-.011719-.011719-.023438-.019532-.039063-.027344zm3.363281.316406c-.074218.097656-.25.132813-.359375.109375.003907.09375.0625.210938.214844.171875.125-.03125.144531-.164062.144531-.28125zm0 0"/></svg>