<svg height="68pt" viewBox="0 0 69 68" width="69pt" xmlns="http://www.w3.org/2000/svg"><path d="m68.316406 24.140625c-.023437-.03125-2.089844-3.046875-2.867187-4.835937l-.253907-.582032-11.5-2.269531.097657-.167969-8.253907-10.484375-1.484374 4.007813c-.648438-.078125-1.363282-.128906-2.148438-.148438-.417969-.75-1.164062-2.074218-1.941406-3.40625-.59375-1.019531-1.207032-2.039062-1.707032-2.808594-.269531-.414062-.507812-.757812-.703124-1.003906-.101563-.128906-.214844-.269531-.339844-.386718-.332032-.316407-.660156-.40625-.867188-.429688-1.550781-.140625-3.609375.957031-4.851562 5.117188-.851563-1.109376-1.933594-2.714844-2.859375-4.726563-1.230469-2.664063-3.292969-1.058594-4.078125-.171875-.238282.269531-.652344.691406-1.132813 1.320312-.503906.660157-1.070312 1.539063-1.59375 2.691407-.992187 2.195312-1.796875 5.328125-1.730469 9.785156-1.152343.804687-3.847656 2.84375-6.628906 6.101563-3.496094 4.089843-7.160156 10.152343-8.042968 18.113281h-4.9375l2.511718 5.632812v12.144531l-2.449218 5.417969h6.1875l-1.9375 4.394531h55.890624l-2.449218-4.476562 6.34375.082031-2.421875-5.691406v-11.878906l2.125-5.625h-12.523438c.058594-1.1875.289063-2.089844.527344-2.714844.148437-.390625.3125-.699219.4375-.902344l5.597656-.984375c2.804688-.289062 9.054688-2.226562 10.1875-10.246094l.066407-.472656zm-59.066406 15.714844c1.171875-1.117188 2.296875-1.890625 3.234375-2.414063-.292969.863282-.480469 1.671875-.605469 2.414063zm0 0" fill="#9ea2a2"/><path d="m52.046875 35.117188 6.125-1.070313c2.515625-.25 8.128906-1.957031 9.15625-9.214844 0 0-2.144531-3.125-2.976563-5.039062l-12.5625-2.484375.542969-.925782-6.414062-8.152343-1.082031 2.921875c-1.007813-.183594-2.203126-.289063-3.640626-.289063 0 0-4.386718-7.976562-4.960937-8.03125-.832031-.074219-3.046875.539063-4.105469 6.476563 0 0-2.617187-2.519532-4.582031-6.78125-.53125-1.152344-1.234375-.847656-2.097656.125-.90625 1.023437-4.453125 4.3125-4.128907 13.625 0 0-13.535156 8.941406-15.027343 24.972656h-3.660157l1.753907 3.929688v12.757812l-1.679688 3.710938h5.414063v1.113281l-1.238282 3.28125h51.75l-1.769531-3.21875v-1.175781h5.621094l-1.699219-4.003907v-12.425781l1.496094-3.96875h-11.703125c-.242187-4.25 1.46875-6.132812 1.46875-6.132812m-32.996094 4.351562c-.121093.496094-.210937 1.109375-.277343 1.78125h-2.757813c1.597656-1.132812 3.035156-1.78125 3.035156-1.78125m-12.363281 1.78125c3.882812-4.632812 8.140625-6.054688 8.140625-6.054688-1.25 2.152344-1.773437 4.34375-1.980469 6.054688zm41.492188 0c.078124-.691406.132812-1.203125.132812-1.203125.328125.421875.972656.878906 1.496094 1.203125zm0 0"/><path d="m5.410156 43.03125.757813 1.300781v14.28125l-.636719 1.3125h6.128906l-.640625-1.3125v-9.273437l13.953125 8.089844v1.171874l-.511718 1.324219h5.847656l-.636719-1.3125v-14.273437l.636719-1.3125h-5.972656l.546874 1.125.101563.164062v6.78125l-14.015625-8.027344-5.558594-.042968zm26.085938 0 .542968 1.121094.105469.164062-.011719 14.285156-.511718 1.324219h5.84375l-.636719-1.3125v-14.273437l.636719-1.3125h-5.96875zm7.21875 0 .613281 1.285156-.007813 6.191406v6.414063l3.777344 3.03125h11.773438l3.777344-3.03125-.007813-12.605469.613281-1.285156h-5.992187l.636719 1.3125.003906 10.359375-.726563.933594-1.457031.46875h-5.46875l-1.457031-.46875-.726563-.933594v-10.359375l.636719-1.3125zm0 0" fill="#ba0c2f"/><path d="m35.222656 35.597656c-1.214844 1.628906-1.996094 3.179688-2.503906 4.464844 3.914062-1.042969 7.703125-.75 7.703125-.75-1.050781 1.855469-1.355469 2.289062-1.355469 2.289062l5.417969-.136718 2.230469-4.445313-4.1875 1.652344 2.65625-4.464844-4.054688.445313 2.402344-3.0625c-2.433594.164062-6.039062.960937-8.308594 4.007812" fill="#9ea2a2"/><path d="m25.679688 6.835938s-2.09375 3.21875-2.027344 8.269531c0 0 2.402344-1.703125 5.703125-2.613281 0 0-2.460938-1.765626-3.675781-5.65625zm20.5625 5.429687-.164063 2.140625c-.824219-.464844-2.003906-1.1875-3.585937-.980469-4.609376.613281-3.300782 3.617188-3.070313 4.152344-.550781-.382813-1.265625-.613281-2.046875-.613281-1.726562 0-3.125 1.125-3.125 2.515625 0 .234375.039062.464843.113281.679687-9.023437-2.835937-12.066406 4.039063-12.066406 4.039063 3.191406-.9375 6.378906.199219 6.378906.199219-5.503906 1.828124-7.648437 7.800781-7.648437 7.800781 1.917968-1.085938 6.59375-1.542969 6.59375-1.542969-5.441406 3.699219-5.519532 9.085938-5.519532 9.085938 5.121094-4.769532 11.699219-5.65625 11.699219-5.65625-4.824219 4.628906-5.890625 8.175781-5.890625 8.175781 1.4375-1.0625 3.132813-1.75 4.808594-2.199219.507812-1.28125 1.292969-2.832031 2.507812-4.464844 2.269532-3.042968 5.871094-3.84375 8.304688-4.007812l.011719-.015625 15.484375-.535157c.601562-.359374 3.878906-1.976562 4.496094-5.175781 0 0 .550781.894531.589843 2.050781.738281-1.335937 1.097657-2.394531 1.097657-2.394531l-1.097657-2.304687s-.605469 1.753906-.675781 1.539062c-.199219-.59375-.800781-1.613281-1.433594-1.539062-1.609375.195312-1.371094 2.46875-1.371094 2.46875-3.199218-1.789063-.066406-4.433594-.066406-4.433594l-11.242187-2.449219.855469-1.226562s-1.914063-3-3.9375-5.308594zm-5.3125 3.085937 7.148437 3.882813.769531 3.050781s-1.40625-1.90625-3.292968-2.511718c-.378907.847656-1.609376 1.304687-2.820313 1.027343-1.253906-.289062-2.011719-1.265625-1.6875-2.175781.109375-.308594.324219-.574219.613281-.773438l-.730468-2.496093zm-15.601563 28.300782.273437.476562v7.214844l.660157.378906v-8.070312zm7.15625 0 .277344.476562-.011719 14.59375-.226562.578125h3.953124l-.386718-.664062h-2.625v-14.984375zm7.265625 0 .277344.476562-.011719 12.398438 3.65625 2.699218h9.960937l1.058594-.703124-10.570312.070312-3.304688-2.378906.015625-12.5625zm14.625 0 .277344.480468v10.796876l-.710938.929687.683594-.21875.945312-1.050781.003907-10.9375zm-47.882812.007812.289062.5v14.597656l-.261719.542969h4.148438l-.386719-.664062h-2.859375l.019531-14.972657zm4.511718 4.0625v.871094l14.589844 8.554688v1.574218l-.226562.578125h3.953124l-.386718-.664062h-2.6875l.003906-2.058594zm-.882812 14.128906.214844.351563v2.351563l-.214844.335937h2.105468l-.257812-.378906v-.785157l.085938-.046874h.5625l.640624.105468v-.914062l-.640624.113281h-.5625l-.085938-.042969v-.347656l.085938-.046875h1.445312l.773438.136719-.542969-.832032zm6.285156 0-1.117188.570313v1.914063l1.117188.554687h2.667969l1.117187-.554687v-1.914063l-1.117187-.570313zm6.578125 0-1.117187.570313v1.914063l1.117187.554687h2.667969l1.117187-.554687v-1.914063l-1.117187-.570313zm5.417969 0-.574219.875.894531-.15625h.671875l.085938.039063v1.828125l-.300781.453125h2.277343l-.300781-.453125v-1.828125l.085938-.039063h.671874l.894532.15625-.578125-.875zm5.492187 0 .21875.351563v2.351563l-.21875.335937h3.828125l1.03125-.511719v-.765625l-.730468-.367187.644531-.328125v-.585938l-.945313-.480469zm7.28125 0 .128907.28125-1.203126 2.417969-.34375.339844h1.976563l-.085937-.339844.128906-.257812.085937-.042969h1.421875l.085938.042969.125.257812-.082032.339844h2.105469l-.34375-.339844-1.203125-2.417969.128906-.28125zm5.359375 0 .21875.351563v2.351563l-.21875.335937h3.527344l.585938-.886719-.886719.15625h-1.203125l-.128906-.070312v-1.84375l.257812-.394532zm5.117188 0 .214844.351563v2.351563l-.214844.335937h3.527344l.582031-.886719-.882813.15625h-1.207031l-.125-.070312v-1.84375l.253906-.394532zm-9.082032.613282.042969.144531.429688.941406-.085938.046875h-.777343l-.082032-.046875.429688-.941406zm-6.738281.042968h.730469l.257812.0625.125.128907v.085937l-.125.132813-.257812.066406h-.730469l-.085937-.042969v-.394531zm-18.308593.015626h.429687l.347656.085937.171875.175781v1.132813l-.171875.171875-.347656.089844h-.429687l-.34375-.089844-.171876-.171875v-1.132813l.171876-.175781zm6.578124 0h.429688l.347656.085937.171875.175781v1.132813l-.171875.171875-.347656.089844h-.429688l-.34375-.089844-.171874-.171875v-1.132813l.171874-.175781zm11.730469 1.113281h.6875l.34375.089843.128907.128907v.148437l-.128907.132813-.34375.085937h-.648437l-.125-.0625v-.480468zm0 0" fill="#fff"/></svg>