<svg height="78pt" viewBox="0 0 70 78" width="70pt" xmlns="http://www.w3.org/2000/svg"><path d="m7.597656.628906s-1.589844.710938-2.144531 1.828125c-.554687 1.121094-3.445313 7.582031-3.445313 7.582031l-.015624.039063c-.195313.507813-.382813 1.199219-.382813 1.984375 0 1.035156.339844 2.242188 1.394531 3.421875-.464844.957031-2.042968 4.207031-2.042968 4.207031l-.015626.035156c-.269531.644532-.382812 1.25-.382812 1.808594 0 2.132813 1.660156 3.640625 2.847656 4.519532-.652344 1.394531-1.867187 3.996093-1.867187 3.996093-.246094.511719-.351563.992188-.351563 1.441407 0 2.199218 2.511719 3.679687 3.570313 4.300781 0 0 .289062.171875.292969.171875.585937.355468 14.691406 8.769531 28.101562 16.753906-5.386719 0-13.523438 0-13.523438 0-2.042968 0-2.007812-.019531-2.871093-.253906-1.207031-.324219-3.191407-1.0625-3.191407-1.0625s.082032 1.65625 1.4375 2.9375c1.355469 1.28125 2.5 2.335937 2.507813 2.34375l.164063.164062c.339843.34375.949218.949219 1.777343 1.40625.167969.394532.496094.722656.742188.964844l.917969.894531 1.367187 1.335938.207031.179687c.410156.355469.902344.78125 1.570313 1.058594l-.207031.253906 2.492187 2.429688c1.496094 1.445312 2.984375 2.039062 6.554687 1.027344 1.101563-.308594 5.714844-1.761719 7.253907-2.246094.683593.296875 2.816406 1.226562 3.3125 1.445312 3.125 4.210938 6.691406 6.960938 8.441406 8.167969-.0625.265625-.105469.53125-.105469.789063 0 .808593.097656 1.226562.472656 1.691406s1.304688 1.125 1.304688 1.125l1.167969-1.300782c.839843-.839843 1.75-1.386718 2.609375-1.386718 0 .035156 0 .066406-.003906.113281-.003907.050781-.003907.097656-.003907.140625 0 .949219.742188 1.289062.898438 1.347656l.972656.375.640625-.816406c1.859375-2.363281 1.375-3.980469.640625-4.917969-1.015625-1.296875-2.675781-1.230469-3.824219-.980469-.414062-.757812-.699218-1.273437-1.167968-2.128906.605468-.347656 1.097656-.628906 1.667968-.953125.890625.164063 1.652344.308594 2.097656.394531.003907.003907.375.628907.375.628907l.675782.089843c1.3125.175782 2.5.097657 2.941406.4375.445312.34375-.996094 2.292969-.996094 2.292969.234375-.046875 4.59375-.386719 5.921875-1.65625.175781-.160156.796875-.78125.839844-1.796875 0-.03125 0-.066406 0-.101562 0-.542969-.179687-1.324219-.960937-2.117188l-.019532-.023437s-.597656-.554688-1.097656-1.019531c.054688-.28125.089844-.582032.089844-.90625 0-1.15625-.402344-2.523438-1.691406-3.726563l-5.425782-5-2.277344-2.078125c-.132812-.121094-.253906-.230469-.367187-.335938 1.660156-10.722656-5.597656-18.890624-8.375-22.011718l-.449219-.511719s-.535156.460937-1.066406.921875c.53125-.460938 1.0625-.925781 1.0625-.925781-.542969-.621094-19.195312-21.582031-19.996094-22.484375-.699218-.773438-.820312-1.371094-.820312-1.691406-.277344-1.332032-.195313-3.582032-.195313-3.582032s-1.449219.449219-2.324219 2.097656c-.3125.738282-2.320312 5.242188-2.320312 5.242188l-.019531.046875c-.160157.453125-.230469.871094-.230469 1.261719 0 1.402344.890625 2.410156 1.472656 3.070312 0 0 .152344.175782.15625.175782.019532.023437.058594.066406.105469.117187-.394531.886719-1.847656 4.164063-1.847656 4.164063l-.023438.066406c-.117187.355468-.167969.6875-.167969 1.003906 0 .066406.007813.132812.011719.199219-5.851562-5.464844-13.519531-12.617188-13.519531-12.617188-.78125-.90625-.976562-1.535156-1.113281-2.324219-.136719-.789062-.222657-3.53125-.222657-3.53125zm60.796875 68.417969c-.007812.007813-.027343.027344-.035156.03125l.066406-.058594c-.011719.007813-.023437.015625-.03125.027344zm-4.664062-.40625h.003906c.011719.007813.035156.03125.035156.03125s-.027343-.023437-.039062-.03125zm0 0"/><path d="m6.734375 3.039062-3.429687 7.546876c-.917969 2.367187.496093 3.871093 1.484374 4.664062.988282.796875 33.414063 27.039062 33.414063 27.039062l.027344 1.09375-32.242188-24.757812c-1.597656-1.210938-1.414062-3.164062-1.414062-3.164062l-2.328125 4.808593c-1.128906 2.703125 1.660156 4.433594 2.828125 5.230469 1.164062.796875 33.304687 23.183594 33.304687 23.183594l.28125 1.339844s-31.152344-20.726563-32.296875-21.429688c-1.378906-.851562-1.273437-2.8125-1.273437-2.8125l-2.277344 4.878906c-.953125 1.988282 1.765625 3.375 2.96875 4.097656.707031.425782 18.132812 10.824219 32.492188 19.367188h-18.640626c-2.742187 0-3.664062-.8125-3.664062-.8125l2.5 2.332031c.425781.390625 1.546875 1.804688 3.191406 1.804688 1.167969 0 6.875.007812 6.875.007812l1.351563.582031-6 .46875c-1.191407.054688-1.523438.179688-3.113281-.703124-.015626-.007813 2.660156 2.601562 2.660156 2.601562.742187.636719 1.335937 1.265625 2.609375 1.160156 1.273437-.109375 8.800781-1.363281 8.800781-1.363281l1.191406.539063-7.898437 1.722656c-1.800781.398437-3.09375-.527344-3.09375-.527344s1.492187 1.464844 2.484375 2.421875c1.023437.988281 1.945312 1.605469 5.195312.6875 1.289063-.367187 7.710938-2.394531 7.710938-2.394531l4.136718 1.800781c4.164063 5.75 9.332032 8.800781 9.332032 8.800781-.992188 1.167969-.152344 2.535156-.152344 2.535156.859375-1.742187 2.785156-2.699218 4.242188-2.484374 1.261718.183593.925781 1.722656.96875 1.667968.777343-.988281 1.421874-2.175781.636718-3.179687-.953125-1.21875-3.398437-.164063-3.398437-.164063l-2.382813-4.351562 3.230469-1.84375c1.769531-11.238282-7.230469-18.871094-7.230469-18.871094l-41.859375-39.074219c-2.015625-1.964843-1.21875-4.457031-1.21875-4.457031zm19.839844 1.402344-2.269531 5.085938c-.503907 1.394531.4375 2.300781 1.132812 3.105468.695312.796876 21.117188 22.132813 21.117188 22.132813l-.132813 1.171875-19.339844-19.304688c-1.554687-1.589843-1.128906-2.796874-1.058593-2.96875l-2.074219 4.675782c-.472657 1.449218 1.011719 2.40625 2.039062 3.394531 1.09375 1.050781 22.613281 21.171875 24.371094 22.777344 3.765625 3.429687 5.605469 7.960937 5.605469 7.960937 2.167968-11.121094-6.265625-19.707031-8.371094-22.128906-.542969-.625-19.980469-22.464844-19.980469-22.464844-1.683593-1.867187-1.089843-3.328125-1.039062-3.4375zm29.390625 48.03125c.402344 1.269532 2.675781 5.371094 1.472656 12.96875l2.921875.550782.355469.589843s3.339844.445313 3.859375.9375c0 0 1.15625.800781-.082031 1.902344 0 0 1.886718-.367187 2.953124-1.40625 0 0 .96875-.835937-.171874-1.992187l-1.703126-1.585938c-.550781-.199219-1.535156.214844-1.535156.214844-.230468-1.402344-1.8125-3.34375-1.8125-3.34375s3.152344 2.933594 3.34375 3.121094c.035156-.070313 1.011719-2.191407-.972656-4.039063-2.960938-2.757813-8.636719-7.945313-8.628906-7.917969zm0 0" fill="#00853e"/></svg>