<svg height="114pt" viewBox="0 0 75 114" width="75pt" xmlns="http://www.w3.org/2000/svg"><path d="m73.988281.351562h-29.480469v17.570313l.355469.59375 15.792969 26.296875v21.914062l-38.699219-65.132812-.738281-1.242188h-20.824219v112.820313h29.480469v-17.566406l-.351562-.589844-15.792969-26.300781v-21.910156l38.695312 65.128906.738281 1.238281h20.824219zm-2.539062 2.519532v107.789062h-16.832031l-43.425782-73.082031v31.832031l16.144532 26.890625v14.359375h-24.402344v-107.789062h16.835937l43.425781 73.082031v-31.832031l-16.148437-26.894532v-14.355468zm0 0" fill="#fff"/><g fill="#59118e"><path d="m47.046875 2.867188v14.359374l16.148437 26.890626v31.832031l-43.429687-73.082031h-16.832031v107.789062h24.402344v-14.363281l-16.144532-26.886719v-31.832031l43.425782 73.082031h16.832031v-107.789062zm0 0"/><path d="m47.046875 2.867188v14.359374l16.148437 26.890626v31.832031l-43.429687-73.082031h-16.832031v107.789062h24.402344v-14.363281l-16.144532-26.886719v-31.832031l43.425782 73.082031h16.832031v-107.789062zm0 0"/></g></svg>