<svg height="55pt" viewBox="0 0 69 55" width="69pt" xmlns="http://www.w3.org/2000/svg"><path d="m45.820312 29.257812-12.710937-14.476562c1.136719-.089844 2.289063-.132812 3.441406-.132812 3.597657 0 7.175781.4375 10.417969 1.265624-.78125 3.75-1.175781 7.644532-1.175781 11.585938 0 .585938.007812 1.171875.027343 1.757812m-5.828124 10.957032c-1.144532.089844-2.292969.132812-3.445313.132812-3.597656 0-7.175781-.433594-10.414063-1.265625.777344-3.75 1.171876-7.640625 1.171876-11.585937 0-.585938-.007813-1.171875-.023438-1.757813zm-24.632813-6.523438c-1.621094-1.53125-3.074219-3.625-3.074219-6.195312 0-2.570313 1.453125-4.660156 3.074219-6.191406.261719 2.027343.394531 4.101562.394531 6.191406 0 2.09375-.132812 4.167968-.394531 6.195312m46.089844-2.527344c-.21875-.21875-.511719-.339843-.816407-.339843-.042968 0-.089843.003906-.132812.007812-.351562.039063-.664062.242188-.847656.542969-.492188.800781-1.132813 1.574219-1.914063 2.316406-.261719-2.027344-.394531-4.101562-.394531-6.191406s.132812-4.164062.394531-6.191406c.78125.738281 1.421875 1.511718 1.914063 2.3125.183594.304687.496094.503906.847656.546875.042969.003906.089844.007812.132812.007812.304688 0 .597657-.125.816407-.34375l6.472656-6.542969c.417969-.421874.453125-1.09375.082031-1.558593-1.832031-2.300781-4.175781-4.371094-6.976562-6.164063.496094-1.066406 1.035156-2.078125 1.609375-3.015625.164062-.265625.214843-.589843.140625-.894531-.074219-.308594-.265625-.570312-.535156-.726562-2.613282-1.550782-5.484376-2.863282-8.546876-3.894532-.117187-.042968-.242187-.0625-.363281-.0625-.402343 0-.785156.214844-.996093.578125-.621094 1.070313-1.207032 2.199219-1.753907 3.363281-4.441406-1.292968-9.15625-1.949218-14.03125-1.949218-4.296875 0-8.492187.511718-12.480469 1.523437l-2.894531-3.300781c-.21875-.253906-.535156-.390625-.859375-.390625-.121094 0-.238281.015625-.355468.054687-3.265626 1.058594-6.328126 2.433594-9.101563 4.082032-.296875.175781-.5.480468-.554687.824218-.050782.308594.027343.625.210937.875.554687.914063 1.082031 1.898438 1.5625 2.9375-7.21875 4.621094-11.335937 11.113282-11.335937 17.929688 0 6.820312 4.117187 13.308594 11.335937 17.933594-.496094 1.066406-1.035156 2.078125-1.613281 3.015625-.164063.265625-.210938.589843-.136719.894531s.265625.570312.535156.726562c2.609375 1.550782 5.484375 2.863282 8.542969 3.894532.121094.042968.246094.0625.367188.0625.402343 0 .785156-.214844.996093-.578125.621094-1.070313 1.207031-2.199219 1.753907-3.363281 4.4375 1.292968 9.152343 1.949218 14.03125 1.949218 4.300781 0 8.496093-.511718 12.480468-1.523437l2.898438 3.300781c.222656.253906.539062.394531.863281.394531.117187 0 .238281-.019531.355469-.058593 3.261718-1.058594 6.324218-2.429688 9.097656-4.078126.300781-.179687.503906-.480468.558594-.824218.046875-.308594-.03125-.625-.210938-.875-.558594-.914063-1.082031-1.902344-1.566406-2.9375 2.804688-1.792969 5.148438-3.863282 6.980469-6.164063.371093-.464843.335937-1.136719-.085938-1.558593l-6.472656-6.535157zm0 0" fill="#13294b"/><path d="m56.90625 35.894531c-.46875-2.667969-.714844-5.484375-.714844-8.394531 0-2.914062.246094-5.730469.714844-8.394531 1.589844 1.171875 2.859375 2.484375 3.726562 3.902343l6.472657-6.546874c-1.941407-2.4375-4.507813-4.609376-7.550781-6.433594.625-1.464844 1.332031-2.832032 2.101562-4.089844-2.527344-1.503906-5.320312-2.78125-8.324219-3.796875-.769531 1.324219-1.476562 2.722656-2.121093 4.183594-4.453126-1.402344-9.421876-2.191407-14.660157-2.191407-4.550781 0-8.894531.59375-12.875 1.667969l-3.367187-3.839843c-3.199219 1.042968-6.179688 2.386718-8.859375 3.976562l.015625.019531c.765625 1.25 1.464844 2.613281 2.089844 4.066407-7.148438 4.28125-11.65625 10.523437-11.65625 17.476562s4.507812 13.195312 11.65625 17.472656c-.628907 1.464844-1.332032 2.832032-2.101563 4.089844 2.527344 1.5 5.320313 2.777344 8.324219 3.792969.769531-1.324219 1.476562-2.71875 2.117187-4.179688 4.457031 1.402344 9.425781 2.1875 14.664063 2.1875 4.550781 0 8.894531-.589843 12.875-1.664062l3.367187 3.835937c3.210938-1.042968 6.191407-2.382812 8.871094-3.972656l-.015625-.019531c-.765625-1.25-1.464844-2.613281-2.089844-4.070313 3.042969-1.824218 5.609375-4 7.550782-6.4375l-6.472657-6.546875c-.867187 1.414063-2.132812 2.730469-3.726562 3.902344m-40.710938 0c-3.175781-2.347656-5.058593-5.253906-5.058593-8.402344 0-3.148437 1.882812-6.054687 5.058593-8.398437.46875 2.667968.714844 5.484375.714844 8.398437 0 2.914063-.246094 5.730469-.714844 8.394531m20.355469 5.625c-4.253906 0-8.261719-.578124-11.78125-1.597656.894531-3.90625 1.382812-8.082031 1.382812-12.421875 0-1.714843-.074218-3.402343-.222656-5.058593l16.425782 18.707031c-1.863282.242187-3.808594.371093-5.804688.371093m10.621094-8.960937-16.425782-18.710937c1.867188-.238282 3.808594-.367188 5.804688-.367188 4.253906 0 8.261719.578125 11.785156 1.597656-.898437 3.90625-1.386718 8.085938-1.386718 12.421875 0 1.714844.078124 3.402344.222656 5.058594" fill="#7bafd4"/></svg>