<svg height="63pt" viewBox="0 0 70 63" width="70pt" xmlns="http://www.w3.org/2000/svg"><path d="m12.414062.339844v11.140625h5.214844v1.410156h-17.292968v11.140625h3.769531v14.96875h-3.769531v11.140625h17.292968v1.410156h-5.214844v11.140625h21.535157v-11.140625h-5.183594v-1.410156h11.15625l6.460937 12.550781h9.734376v-12.550781h6.386718l7.132813-7.128906v-23.011719l-7.136719-7.109375h-6.382812v-1.410156h5.199218v-11.140625h-21.550781v11.140625h5.210937v1.410156h-11.152343l-6.460938-12.550781zm2.835938 23.691406h2.378906v14.96875h-2.378906zm24.304688 0h5.421874v10.535156zm16.5625 0h1.789062l.574219.582031v13.785157l-.59375.601562h-1.769531zm-27.351563 4.433594 5.425781 10.535156h-5.425781zm0 0" fill="#c99700"/><path d="m13.832031 1.757812v8.304688h5.210938v4.246094h-17.289063v8.308594h3.769532v17.800781h-3.769532v8.304687h17.289063v4.246094h-5.210938v8.304688h18.703125v-8.304688h-5.183594v-4.246094h13.4375l6.457032 12.554688h7.453125v-12.554688h7.21875l6.300781-6.300781v-21.832031l-6.300781-6.28125h-7.21875v-4.242188h5.199219v-8.308594h-18.71875v8.308594h5.214843v4.242188h-13.4375l-6.453125-12.550782zm0 20.859376h5.210938v17.800781h-5.210938zm13.519531 0 9.160157 17.800781h-9.160157zm9.882813 0h9.160156v17.800781zm17.464844 0h3.800781l1.398438 1.410156v14.957031l-1.421876 1.433594h-3.777343zm0 0" fill="#0c2340"/></svg>