<svg height="48pt" viewBox="0 0 70 48" width="70pt" xmlns="http://www.w3.org/2000/svg"><path d="m47.855469 42.640625c.714843.140625 1.449219-.0625 2.007812-.53125.023438-.019531.042969-.039063.0625-.058594 1.195313 1.222657 2.851563 2.171875 4.964844 2.828125l7.203125 2.59375c.082031.03125.167969.054688.253906.074219 1.753906.421875 3.53125.050781 4.882813-1.023437 1.550781-1.242188 2.402343-3.296876 2.402343-5.796876v.007813l.074219-26.097656v-.046875c-.003906-.246094-.167969-6.007813-6.042969-8.484375.011719.003906.027344.011719.039063.015625-.199219-.085938-4.988281-2.195313-9.441406-3.359375-1.160157-.308594-2.445313-.1875-3.5625.296875-.273438-.835938-.980469-1.480469-1.878907-1.660156-11.070312-2.210938-25.210937-.492188-27.496093-.078126-.871094.152344-1.566407.761719-1.867188 1.558594-1.128906-.503906-2.429687-.625-3.609375-.3125-4.441406 1.160156-9.230468 3.265625-9.429687 3.355469.011719-.007813.027343-.011719.039062-.015625-5.875 2.472656-6.042969 8.238281-6.046875 8.480469 0 .011719-.144531 27.378906-.144531 27.378906 0 1.890625.726563 3.472656 2.050781 4.460937 1.753906 1.316407 4.070313 1.269532 5.648438.78125.035156-.011718.070312-.023437.105468-.035156l7.582032-2.703125c.019531-.007812.039062-.015625.058594-.019531 1.78125-.6875 3.101562-1.546875 4.074218-2.457031.074219.078125.144532.152343.226563.222656.550781.472656 1.28125.679687 1.992187.558594 3.09375-.492188 14.113282-2.226563 25.851563.066406" fill="#fff"/><path d="m33.351562 2.597656c-.613281 0-1.140624.007813-1.492187.027344l-.152344 12.777344-2.523437.148437.074218-12.847656c-2.007812.148437-6.246093.824219-7.511718 1.050781l-.148438 36.367188c3.570313-.601563 6.097656-.828125 7.4375-.976563l.074219-15.929687 2.597656-.152344v15.855469c1.9375-.078125 5.652344.074219 7.4375.226562l.078125-36.367187c-1.34375-.113282-4.019531-.183594-5.871094-.179688zm7.503907.179688-.148438 36.441406c1.5625.074219 5.945313.675781 7.582031.976562l.074219-36.367187c-1.1875-.222656-6.09375-.976563-7.507812-1.050781zm-23.828125 2.089844c-.195313.011718-.382813.042968-.5625.089843-4.308594 1.125-9.070313 3.230469-9.070313 3.230469-4.460937 1.878906-4.535156 6.234375-4.535156 6.234375l-.148437 27.351563c0 3.082031 2.824218 3.382812 4.535156 2.855468l7.585937-2.703125c4.683594-1.804687 5.203125-4.8125 5.203125-6.164062l.148438-27.800781c-.066406-2.300782-1.78125-3.164063-3.15625-3.089844zm36.050781.203124c-1.371094-.074218-3.085937.789063-3.152344 3.09375l.148438 27.800782c0 1.351562.046875 4.859375 5.597656 6.558594l7.242187 2.605468c2.078126.5 4.257813-.800781 4.257813-4.40625l.078125-26.097656s-.078125-4.355469-4.539062-6.238281c0 0-4.757813-2.101563-9.070313-3.230469-.175781-.046875-.367187-.074219-.5625-.085938zm-41.296875 8.675782c.820312 0 .890625 1.726562.890625 1.726562v18.5625c-.144531.601563-.441406 1.652344-1.558594 1.804688-.742187.074218-.890625-.753906-.890625-1.203125l.074219-18.859375s.148437-2.03125 1.484375-2.03125zm46.546875.203125c1.339844 0 1.484375 2.027343 1.484375 2.027343l.074219 18.859376c0 .449218-.148438 1.277343-.890625 1.203124-1.117188-.152343-1.414063-1.203124-1.566406-1.804687v-18.558594s.078124-1.726562.898437-1.726562zm0 0" fill="#00694e"/></svg>