<svg height="69pt" viewBox="0 0 70 69" width="70pt" xmlns="http://www.w3.org/2000/svg"><path d="m58.519531 22.023438-.011719-8.808594-13.035156-13.027344h-20.433594l-13.203124 12.984375.019531 8.835937c-6.425781 2.214844-11.550781 4.863282-11.550781 4.863282l-.058594 33.796875 3.875 2.523437 5.113281-3.09375 2.355469-4.578125 13.472656 13.101563 20.339844-.054688 10.453125-10.414062c.464843.644531 1.222656 1.0625 2.089843 1.0625.960938 0 1.796876-.523438 2.238282-1.304688 2.765625 2.085938 9.496094 7.519532 9.496094 7.519532l.007812-38.644532s-6.632812-3.304687-11.167969-4.761718" fill="#fff"/><path d="m32.96875 19.519531-1.835938 1.8125v12.292969l1.996094 1.902344h3.355469l.023437 11.207031h-2.699218v-7.539063h-2.675782v8.238282l1.84375 1.816406 4.480469.027344 1.820313-1.84375-.050782-13.144532-1.964843-1.886718-3.386719.003906-.007812-10.09375 2.710937.011719.003906 6.472656 2.660157-.003906.007812-7.46875-1.804688-1.804688zm6.867188 3.945313.003906 2.570312c.730468.070313 1.847656.195313 1.847656.195313l-.003906 17.34375c.914062.132812 1.863281.25 2.691406.398437l-.082031-17.421875s1.015625.140625 1.941406.300781v-2.589843c-2.207031-.390625-4.179687-.601563-6.398437-.796875zm-12.410157.324218c-1.160156.15625-2.328125.292969-3.496093.511719l-1.457032 1.914063.023438 17.039062 1.316406 1.1875c1.488281-.359375 2.605469-.542968 4.042969-.761718l1.207031-1.589844.054688-16.636719zm21.03125.878907-1.621093 1.488281.003906 18.347656c.816406.214844 1.625.382813 2.417968.636719v-9.144531l1.582032.453125v9.234375c.816406.304687 1.617187.566406 2.398437.914062v-18.664062l-1.386719-2.503906c-1.179687-.316407-2.214843-.507813-3.394531-.761719zm-27.300781.164062c-.816406.1875-1.628906.34375-2.441406.5625l-.050782 20.558594c.820313-.277344 1.570313-.539063 2.484376-.8125zm-3.78125.921875c-.84375.246094-1.6875.429688-2.527344.742188v8.359375l-1.648437.628906-.027344-8.480469c-.851563.304688-1.644531.535156-2.484375.875l-.003906 22.054688c.894531-.617188 1.582031-.949219 2.65625-1.601563l-.027344-10.078125s.953125-.414062 1.675781-.660156l.027344 9.867188c.816406-.398438 1.5-.660157 2.355469-1.023438zm36.683594.265625.011718 2.675781c.1875.054688 1.980469.613282 1.980469.613282l.007813 18.492187c.882812.445313 1.648437.859375 2.441406 1.375l.007812-19.007812s2.1875.847656 2.34375.917969v-2.761719c-2.179687-.929688-4.550781-1.617188-6.792968-2.304688zm-27.492188.585938.066406 14.683593-1.707031.320313.054688-14.773437zm22.714844.867187 1.503906.375-.003906 5.882813-1.5-.378907zm12.386719 1.179688h.007812zm.007812 0 .066407 28.023437c1.824218 1.386719 4.5 3.511719 6.171874 4.933594v-3.359375c-1.144531-.925781-3.496093-2.828125-3.496093-2.828125v-10.222656s2.421875 1.316406 3.496093 1.972656v-3.191406c-1.050781-.65625-3.601562-2.015625-3.601562-2.015625l.007812-9.296875s2.367188 1.179687 3.601563 1.875v-2.949219c-1.980469-1.167969-4.160156-2.003906-6.246094-2.941406zm-54.441406.566406c-1.308594.617188-2.566406 1.191406-3.824219 1.894531l-1.28125 2.449219v26.160156l2.027344 1.363282c.339844-.214844 3.523438-2.144532 3.726562-2.257813l1.191407-2.554687.023437-25.691407zm-.636719 3.121094v24.273437l-1.863281 1.269531.011719-24.5625zm0 0"/><path d="m25.757812 1.957031-12.15625 11.953125.023438 9.382813c-3.796875 1.21875-7.777344 2.671875-11.457031 4.652343v1.980469c4.042969-2.339843 10.085937-4.359375 13.363281-5.324219v-9.808593l11.0625-10.894531 17.328125-.003907 10.933594 10.824219-.015625 9.847656c3.78125 1.0625 9.441406 3.214844 13.082031 5.25v-1.976562c-3.660156-1.972656-7.289063-3.292969-11.164063-4.535156l-.011718-9.359376-12-11.992187h-18.984375zm5.753907 13.863281-4.058594 3.976563v2.359375c.691406-.089844 1.226563-.113281 1.910156-.179688v-1.398437l2.90625-2.839844h5.902344l2.835937 2.828125v1.378906c.683594.0625 1.242188.148438 1.929688.234376v-2.378907l-3.960938-3.980469zm9.550781 29.167969v3.171875l-2.835938 2.84375-5.980468.011719-2.878906-2.804687v-3.207032c-.695313.089844-1.234376.105469-1.914063.222656v3.769532l4.003906 3.929687 7.503907.054688 3.992187-4.03125.007813-3.675781c-.679688-.117188-1.203126-.199219-1.898438-.285157zm-25.523438 3.828125c-2.007812.976563-3.414062 1.84375-4.851562 2.898438v2.277344c.867188-.691407 1.941406-1.597657 2.914062-2.167969v2.890625l12.1875 12.140625 18.882813.019531 12.074219-12.105469v-2.835937c1.363281.820312 2.574218 1.644531 3.695312 2.601562v-2.238281c-1.644531-1.257813-3.488281-2.484375-5.582031-3.480469l-.011719 5.101563-10.914062 11.035156-17.390625-.007813-11.007813-10.964843v-5.164063zm0 0" fill="#b0b7bc"/><path d="m27.300781 5.671875-10.015625 9.878906v8.566407c2.851563-.800782 5.585938-1.289063 8.40625-1.714844v-3.378906l5.078125-4.960938h8.945313l4.976562 4.992188v3.328124c2.820313.414063 5.542969.9375 8.394532 1.722657v-8.511719l-9.90625-9.921875zm17.40625 39.855469-.007812 4.164062-4.9375 5.0625-9.03125-.066406-5.042969-4.984375v-4.148437c-2.972656.589843-5.886719 1.433593-8.386719 2.511718v5.160156l9.960938 9.828126 15.957031.125 9.871094-10 .003906-5.121094c-2.628906-1.113282-5.300781-1.921875-8.386719-2.53125zm0 0" fill="#ce0f3d"/></svg>