<svg height="36pt" viewBox="0 0 69 36" width="69pt" xmlns="http://www.w3.org/2000/svg"><path d="m50.671875 5.652344c.136719-.382813.316406-.878906.316406-.878906l-6.066406-4.492188h-9.75c-4.171875 0-7.355469 3.117188-8.902344 5.382812h-11.285156c-1.835937-.039062-7.046875.808594-8.667969 5.105469-.878906 2.335938-2.367187 7.117188-3.175781 9.757813 0 0-.039063.117187-.046875.148437l-2.832031 9.085938s13.007812.003906 16.851562.003906c-.152343.378906-.359375.902344-.359375.902344l6.421875 5.011719 9.1875-.007813c4.777344 0 8.023438-3.160156 9.746094-6.523437.417969.285156 1.40625.964843 1.40625.964843h10.144531c2.28125.128907 6.417969-.839843 8.050782-5.292969.003906-.003906 2.554687-7.214843 2.554687-7.214843.011719-.039063 1.117187-3.179688 1.117187-3.179688-.003906-.007812 2.167969-6.320312 2.167969-6.320312l.847657-2.453125z"/><path d="m49.691406 5.167969-5.125-3.800781h-9.394531c-4.039063 0-7.058594 3.320312-8.304687 5.382812h-11.882813c-1.535156-.027344-6.261719.714844-7.648437 4.40625-.871094 2.304688-3.320313 10.230469-3.320313 10.230469l-2.277344 7.285156s15.019531.003906 16.976563.003906c-.21875.550781-.648438 1.632813-.648438 1.632813l5.484375 4.28125 8.8125-.007813c4.8125 0 7.910157-3.613281 9.292969-7.058593.820312.558593 2.195312 1.5 2.195312 1.5h9.816407c1.964843.128906 5.597656-.6875 7.023437-4.578126 0 0 2.550782-7.203124 2.550782-7.203124.011718-.035157 1.113281-3.175782 1.113281-3.175782-.003907-.003906 2.171875-6.316406 2.171875-6.316406l.347656-1.011719h-17.742188c.183594-.519531.558594-1.570312.558594-1.570312" fill="#f60"/><path d="m48.785156 5.441406-4.46875-3.3125h-9.140625c-4.121093 0-7.042969 3.824219-7.882812 5.382813h-12.308594c-1.679687-.035157-5.765625.796875-6.9375 3.910156-.882813 2.339844-2.425781 7.3125-3.140625 9.644531l2.207031 1.488282-2.664062-.019532-1.675781 5.375 17.058593.003906-.847656 2.144532 4.824219 3.769531 8.554687-.007813c5.242188 0 8.003907-4.574218 8.914063-7.480468l2.8125 1.917968h9.585937c1.703125.128907 5.011719-.554687 6.304688-4.078124.53125-1.457032 2.472656-6.992188 2.558593-7.230469l1.101563-3.136719h-.007813l2.175782-6.3125h-17.753906z"/><path d="m34.835938 4.148438-.53125.136718c-2.054688.527344-3.910157 2.289063-5.269532 5.003906-.496094.988282-.667968 1.429688-1.660156 4.226563-.851562 2.410156-.878906 2.496094-.769531 2.605469.0625.058594 1.953125 1.535156 4.203125 3.28125 2.25 1.742187 4.09375 3.199218 4.101562 3.238281.011719.042969-.34375 1.074219-.785156 2.292969l-.804688 2.222656-2.691406.015625c-1.480468.007813-2.691406.007813-2.691406 0s.242188-.664063.535156-1.453125c.296875-.792969.550782-1.488281.570313-1.550781.03125-.101563-.441407-.109375-9.324219-.109375-5.148438 0-10.414062-.015625-11.699219-.039063l-2.335937-.042969-.292969.996094c-.164063.546875-.296875 1.015625-.296875 1.042969 0 .023437 3.996094.050781 8.882812.0625l8.878907.015625-.609375 1.65625c-.335938.910156-.605469 1.695312-.597656 1.742188.011718.046874.664062.558593 1.453124 1.136718l1.433594 1.054688 4.402344-.015625c4.316406-.015625 4.410156-.019531 4.921875-.152344.601563-.160156 1.398437-.519531 1.921875-.867187.476562-.3125 1.257812-1.0625 1.71875-1.636719.691406-.871094 1.449219-2.347657 1.804688-3.519531.074218-.253907.554687-1.671876 1.0625-3.148438.585937-1.695312.90625-2.707031.867187-2.75-.027344-.039062-1.867187-1.546875-4.082031-3.351562-2.214844-1.808594-4.027344-3.3125-4.03125-3.347657 0-.035156.328125-.964843.730468-2.066406l.734376-2 2.699218-.015625c1.484375-.007812 2.699219-.007812 2.699219.003906 0 .035156-.65625 1.789063-.867187 2.3125-.105469.269532-.195313.5-.195313.515625 0 .019531 5.203125.03125 11.5625.03125l11.5625-.003906.378906-.949219.382813-.953125-2.253906-.039062c-1.238282-.023438-5.238282-.042969-8.882813-.046875-3.648437-.003906-6.632813-.027344-6.632813-.046875 0-.023438.269532-.800781.601563-1.726563.488281-1.371094.585937-1.703125.515625-1.742187-.046875-.03125-.648438-.460938-1.335938-.964844l-1.246093-.90625h-.46875c-.257813 0-2.226563-.03125-4.371094-.074219zm-11.296876 5.589843-4.964843.015625-4.960938.015625-.4375.144531c-1.441406.484376-2.554687 1.515626-3.140625 2.921876-.230468.554687-2.714844 7.78125-2.683594 7.808593.011719.011719.652344.460938 1.421876 1l1.402343.980469 4.558594-.019531c4.980469-.023438 4.789063-.011719 5.769531-.402344.925782-.371094 1.808594-1.074219 2.242188-1.792969.121094-.195312.828125-2.0625 1.695312-4.457031.816406-2.265625 1.515625-4.199219 1.554688-4.292969.066406-.167968.054687-.175781-1.195313-1.046875zm-8.699218 2.0625h3.242187c2.652344 0 3.238281.015625 3.238281.082031 0 .046876-.683593 2.011719-1.519531 4.363282h-.003906l-1.519531 4.28125-3.191406.015625c-1.769532.007812-3.1875-.007813-3.1875-.039063 0-.050781 2.640624-7.890625 2.84375-8.4375zm31.085937 1.4375-.546875 1.546875c-.300781.851563-1.175781 3.308594-1.941406 5.457032-1.078125 3.027343-1.375 3.925781-1.316406 3.984374.042968.039063.65625.464844 1.367187.953126l1.289063.878906 4.484375.015625c2.464843.011719 4.679687.007812 4.917969-.003907 1.222656-.058593 2.359374-.609374 3.097656-1.492187.550781-.660156.492187-.515625 3.089844-7.980469.628906-1.816406 1.148437-3.316406 1.148437-3.332031s-1.042969-.019531-2.320313-.011719l-2.316406.015625-.484375 1.40625c-.265625.777344-.976562 2.832031-1.574219 4.570313-.601562 1.742187-1.171874 3.328125-1.269531 3.527344-.234375.480468-.628906.878906-1.074219 1.085937l-.355468.167969-2.667969.019531c-1.46875.011719-2.667969.007813-2.667969-.007813 0-.023437 3.636719-10.484374 3.726563-10.722656.023437-.0625-.457031-.078125-2.277344-.078125zm0 0" fill="#f60"/></svg>