<svg height="90pt" viewBox="0 0 70 90" width="70pt" xmlns="http://www.w3.org/2000/svg"><path d="m18.300781 49.761719v-21.15625h15.363281v21.15625l2.605469-2.425781v-28.714844l-3.09375-2.882813h-14.386719l-3.097656 2.882813v28.714844zm13.871094 39.996093-13.871094-12.90625v-11.304687h-4.097656l-13.875-12.90625v-39.324219l13.875-12.90625h23.558594l13.875 12.90625v39.324219l-13.875 12.90625h-4.097657v6l3.097657 2.882813h14.382812l3.097657-2.882813v-42.941406h15.363281v48.246093l-13.871094 12.90625zm0 0" fill="#fff"/><path d="m33.664062 14.480469 3.847657 3.582031v29.792969l-3.847657 3.582031h-1.246093v-21.609375h-12.878907v21.609375h-1.238281l-3.851562-3.582031v-29.792969l3.851562-3.582031zm21.820313 15.347656v42.238281l-3.851563 3.585938h-15.363281l-3.851562-3.585938v-7.777344h4.851562l13.121094-12.207031v-38.242187l-13.121094-12.207032h-22.578125l-13.121094 12.207032v38.242187l13.121094 12.207031h4.851563v12.003907l13.117187 12.207031h22.582032l13.121093-12.207031v-46.460938h-12.878906zm0 0" fill="#841617"/></svg>