<svg height="32pt" viewBox="0 0 69 32" width="69pt" xmlns="http://www.w3.org/2000/svg"><path d="m66.871094 23.699219c.050781-5.523438.183594-13.292969.210937-14.832031l1.011719-7.375c-6.820312.40625-13.660156.652343-20.496094.546874-1.132812-.019531-8.882812-1.109374-8.882812-1.109374l.621094 2.234374.078124.28125c-3.894531-1.550781-7.972656-1.476562-12.082031-1.570312-1.582031-.035156-6.050781-1.128906-7.886719-1.550781l.203126 1.84375c-1.414063-.445313-2.832032-.675781-4.152344-.675781-8.308594.046874-15.167969 7.605468-15.167969 15.433593 0 7.121094 5.753906 14.417969 14.070313 14.488281 2.652343.019532 5.144531-.632812 7.332031-1.800781l-.371094 1.636719c3.78125-.222656 7.597656-.53125 11.386719-.316406 4.5.253906 8.078125-.121094 11.566406-3.621094 1.949219 2.734375 5.585938 4.011719 8.820312 3.808594.621094.003906 6.527344.011718 7.726563.023437 1.183594.007813 7.875-.007812 7.875-.007812-.320313-2.535157-.472656-5.199219-1.863281-7.4375" fill="#a1d1f1"/><path d="m21.167969 2.277344s4.699219 1.082031 6.132812 1.113281c4.960938.109375 9.453125-.082031 14.023438 2.691406.132812.078125.261719.160157.390625.246094-.367188-1.203125-.625-2.449219-.9375-3.578125 0 0 5.632812.785156 6.796875.804688.113281 0 10.710937-.128907 11.652343-.117188 3.097657.03125 4.453126-.164062 7.136719-.324219l-.777343 5.632813c-.023438 1.335937-.167969 9.746094-.214844 15.410156 1.148437 1.613281 1.417968 3.507812 1.664062 5.46875 0 0-4.980468.011719-6.160156 0-1.269531-.007812-7.789062-.019531-7.789062-.019531s-6.519532.542969-8.484376-4.972657c-1.832031 2.613282-4.632812 4.503907-8.246093 4.851563-3.101563.296875-1.9375-.511719-13.089844.136719.164063-.726563.21875-1.640625.84375-3.324219-.039063.03125-.082031.058594-.125.078125-2.542969 2.300781-5.894531 3.703125-9.574219 3.671875-7.488281-.0625-12.734375-6.65625-12.734375-13.121094 0-7.105469 6.289063-14.027343 13.824219-14.066406 1.882812 0 3.953125.507813 5.890625 1.460937-.078125-.65625-.144531-1.339843-.222656-2.042968zm0 0" fill="#00325b"/><path d="m15.507812 5.363281c-6.117187.035157-11.355468 5.777344-11.355468 11.5625 0 .175781.003906.351563.011718.527344.003907.054687.011719.113281.015626.171875.007812.117188.015624.234375.027343.351562.007813.070313.019531.136719.027344.203126.011719.109374.027344.214843.042969.320312.015625.074219.027344.144531.039062.214844.019532.105468.039063.207031.0625.308594.015625.074218.03125.144531.046875.214843.023438.101563.050781.207031.078125.308594.019532.070313.039063.136719.058594.207031.03125.105469.0625.210938.097656.316406.019532.066407.039063.128907.0625.195313.039063.113281.082032.230469.125.34375.019532.050781.039063.105469.058594.15625.066406.164063.136719.328125.210938.492187.003906.011719.007812.023438.015624.035157.070313.148437.140626.300781.21875.445312.023438.054688.050782.105469.082032.15625.054687.105469.113281.210938.175781.316407.03125.058593.070313.117187.101563.175781.058593.097656.117187.191406.179687.289062.035156.058594.078125.117188.117187.175781.0625.089844.121094.183594.1875.269532.039063.058594.082032.117187.125.175781.066407.089844.132813.175781.203126.265625.042968.054688.085937.109375.128906.164062.074218.089844.152344.179688.230468.265626.039063.046874.082032.097656.125.144531.089844.097656.183594.195312.277344.292969.03125.035156.0625.066406.09375.097656.128906.132812.261719.257812.398438.382812l.003906.003906c.164062.144532.332031.285157.5.421876.023438.019531.046875.039062.074219.054687.144531.113281.292969.226563.441406.332031.023437.015625.046875.035156.070313.050782 1.574218 1.085937 3.464843 1.753906 5.5625 1.769531 6.601562.054687 11.972656-5.5 11.941406-12.1875-.015625-2.464844-1.058594-4.605469-2.617188-6.265625v-.003906c-.03125-.03125-.0625-.0625-.09375-.097657-.085937-.085937-.171875-.171875-.257812-.253906-.050782-.050781-.101563-.101563-.15625-.152344-.085938-.078125-.175782-.160156-.265625-.238281-.050781-.046875-.101563-.09375-.15625-.136719-.097657-.082031-.195313-.164062-.292969-.242187-.046875-.039063-.097656-.078125-.144531-.113282-.132813-.105468-.273438-.207031-.410157-.304687-.015624-.007813-.027343-.019531-.042968-.027344-.152344-.109375-.308594-.210937-.464844-.3125-.046875-.03125-.097656-.058593-.144531-.085937-.109375-.070313-.222657-.136719-.335938-.203125-.058593-.035157-.121093-.066407-.179687-.097657-.105469-.058593-.207032-.113281-.3125-.167968-.0625-.03125-.128906-.066406-.191406-.097656-.105469-.050782-.210938-.101563-.316407-.148438-.0625-.03125-.125-.058594-.1875-.085938-.113281-.050781-.230469-.097656-.34375-.144531-.054687-.019531-.109375-.042969-.164062-.066406-.164063-.0625-.324219-.121094-.484375-.175781l-.027344-.007813c-.171875-.058593-.34375-.109375-.515625-.160156-.054687-.011719-.105469-.027344-.160156-.042969-.121094-.03125-.238281-.058594-.355469-.085937-.066406-.015625-.128906-.03125-.191406-.042969-.109375-.023438-.21875-.046875-.328125-.066406-.066407-.011719-.132813-.023438-.199219-.035156-.109375-.015626-.214844-.03125-.324219-.046876-.0625-.007812-.128906-.015624-.191406-.023437-.117187-.011719-.230469-.023437-.347656-.03125-.050781-.003906-.105469-.007813-.160157-.011719-.167968-.007812-.335937-.015625-.5-.015625zm8.496094.160157v.007812c.019532.136719.367188 2.300781 2.496094 3.738281.578125.390625 1.324219.617188 1.324219.617188l.941406 14.359375s-.699219.308594-1.433594 1.09375c-.039062.042968-.078125.085937-.117187.132812-.011719.015625-.023438.03125-.035156.046875-.023438.03125-.046876.0625-.070313.089844-.015625.019531-.03125.039063-.042969.0625-.019531.027344-.039062.054687-.058594.082031-.011718.019532-.027343.042969-.039062.0625-.019531.027344-.035156.054688-.054688.082032-.011718.023437-.023437.042968-.035156.066406-.019531.027344-.03125.054687-.046875.082031-.015625.019531-.023437.042969-.035156.0625-.015625.027344-.03125.054687-.042969.078125-.011718.023438-.023437.046875-.03125.066406-.015625.027344-.027344.050782-.039062.078125-.011719.019531-.019532.039063-.03125.0625-.011719.023438-.019532.046875-.03125.074219-.007813.019531-.015625.039062-.027344.058594-.007812.023437-.019531.046875-.027344.070312-.007812.015625-.015625.035156-.023437.050782-.007813.023437-.015625.046874-.023438.066406-.007812.015625-.015625.03125-.019531.050781-.007812.019531-.015625.039063-.023438.058594-.003906.015625-.011718.027343-.015624.039062-.007813.023438-.011719.042969-.019532.058594-.003906.011719-.007812.023437-.011718.03125-.003907.019531-.011719.039063-.015626.054687-.003906.007813-.003906.011719-.003906.015626-.015625.042968-.023437.074218-.03125.089843v.011719l.207032-.035156c.003906 0 3.40625-.355469 5.605468-.164063 1.308594.113281 2.636719.226563 3.921875.097657 3.550781-.347657 6.535157-2.660157 7.609375-6.304688.917969-3.117188.910156-5.574219.316406-7.523438-.003906-.011718-.007812-.023437-.011718-.039062-.054688-.175781-.117188-.347656-.179688-.519531-.015625-.035157-.027344-.066407-.042968-.101563-.058594-.148437-.121094-.292968-.1875-.433594-.011719-.027343-.023438-.058593-.039063-.085937-.074219-.160156-.15625-.3125-.242187-.464844-.019532-.035156-.035157-.066406-.054688-.097656-.078125-.136719-.160156-.269531-.246094-.398437-.011718-.019532-.023437-.035157-.035156-.054688-.097656-.140625-.195312-.277344-.296875-.410156-.023437-.03125-.050781-.0625-.074219-.09375-.097656-.128906-.203125-.253906-.308594-.375-.003906-.003906-.011718-.011719-.015624-.019532-.113282-.125-.230469-.246093-.347657-.363281-.027343-.027343-.054687-.054687-.082031-.082031-.121094-.117188-.242188-.230469-.367188-.339844-.003906-.003906-.011718-.007812-.015624-.015625-.121094-.105469-.246094-.207031-.371094-.304687-.03125-.023438-.058594-.046875-.089844-.070313-.128906-.101562-.261719-.199219-.398438-.292969-.015624-.011718-.03125-.023437-.050781-.035156-.121093-.082031-.246093-.164062-.375-.246094-.027343-.015624-.058593-.035156-.089843-.054687-.140626-.085937-.277344-.167969-.421876-.25-.023437-.011719-.046874-.023437-.074218-.039063-.125-.070312-.253906-.136718-.382813-.203124-.03125-.015626-.058593-.03125-.085937-.042969-.144532-.074219-.289063-.144531-.4375-.210938-.03125-.011719-.0625-.027343-.089844-.039062-.132812-.058594-.265625-.117188-.398438-.171875-.027343-.007813-.046874-.019532-.074218-.03125-.148438-.058594-.296875-.117188-.449219-.171875-.03125-.011719-.066406-.023438-.101563-.039063-.136718-.046875-.277343-.097656-.414062-.144531-.015625-.003906-.035156-.011719-.050781-.015625-.152344-.050781-.304688-.097656-.453125-.140625-.035156-.011719-.070313-.023437-.105469-.03125-.148437-.046875-.300781-.085937-.449219-.128906h-.003906c-.152344-.039063-.304688-.078125-.457031-.113281-.035157-.011719-.066407-.019532-.101563-.027344-.148437-.035156-.296875-.066406-.441406-.097656l-.027344-.003907c-.140625-.03125-.28125-.058593-.417968-.085937-.03125-.003906-.0625-.011719-.09375-.019532-.140626-.023437-.28125-.050781-.421876-.070312-.019531-.003906-.039062-.007812-.054687-.011719-.125-.019531-.253906-.039062-.375-.054687-.027344-.007813-.054687-.011719-.082031-.015625-.132813-.019531-.265625-.035157-.398438-.050781-.019531-.003907-.039062-.007813-.0625-.011719-.117187-.011719-.230468-.027344-.34375-.039063-.019531 0-.042968-.003906-.0625-.003906-.125-.015625-.246094-.027344-.363281-.039062-.023437 0-.046875-.003907-.070313-.003907-.105468-.011719-.207031-.019531-.308593-.027343-.015625 0-.03125 0-.046875-.003907-.113282-.007812-.21875-.015625-.324219-.019531-.019531-.003906-.039063-.003906-.0625-.003906-.097656-.007813-.191406-.011719-.28125-.015625-.003906 0-.015625 0-.019531 0-.097656-.003907-.183594-.007813-.273438-.011719-.019531 0-.039062 0-.058594 0-.082031-.003906-.164062-.003906-.238281-.003906-1.089843-.019532-2.476562.039062-3.496093.015625-1.695313-.035157-3.238282-.394531-3.238282-.394531zm20.175782.226562s.320312 1.152344.671874 1.816406c.300782.570313 1.238282 1.40625 1.238282 1.40625-.058594 3.792969.292968 12.925782.789062 14.683594.347656 1.230469 1.445313 2.675781 2.820313 3.070312.234375.066407.472656.128907.710937.183594.011719 0 .019532.003906.03125.007813 2.878906.65625 5.878906.351562 8.554688-1.851563 0 .007813.003906.015625.003906.027344 0 0 .003906.003906.003906.007812 0 .007813.003906.015626.003906.023438.003907.003906.003907.007812.003907.011719 0 .007812 0 .015625.003906.023437v.015625c.003906.003907.003906.011719.007813.015625 0 .007813 0 .015625.003906.019532v.011718c0 .007813.003906.011719.003906.019532 0 .003906 0 .003906.003906.007812.003906.023438.003906.042969.003906.042969s-.550781.484375-.816406.839843c-.453125.59375-.730468 1.121094-.730468 1.121094s2.023437-.136718 3.363281-.128906c1.226562.011719 3.21875.113281 3.21875.113281s-.160157-.613281-.363281-.996093c-.375-.707032-.675782-1-.851563-1.164063.042969-6.105469.226563-16.554687.226563-16.554687l.40625-2.511719.007812-.039063c-.011719 0-1.773438.1875-3.199219.207032-.066406 0-.132812.003906-.203125.003906-.011718 0-.027344-.003906-.039062-.003906-.070313 0-.148438 0-.226563 0-.785156-.015626-1.816406-.082032-2.433593-.125-.324219-.023438-.535157-.039063-.535157-.039063s.261719 1.105469.636719 1.628906c.316406.441407.933594.984375.933594.984375s.464844 9.929688.378906 11.535156c-.308594 2.300782-2.015625 3.675782-4.902344 3.808594-.128906.007813-.25.007813-.371094.003906-.039062-.003906-.074218-.007812-.113281-.007812-.078125-.007812-.15625-.011719-.230469-.019531-.042968-.007813-.082031-.011719-.125-.019531-.066406-.011719-.132812-.023438-.195312-.035157-.039062-.007812-.078125-.019531-.117188-.027343-1.34375-.347657-1.90625-1.445313-2.121093-2.46875-.320313-4.359376.015625-15.535157.015625-15.535157s-.003906 0-.003906.003907c0-.007813.003906-.011719.003906-.011719s-1.75.222656-3.113282.199219c-1.273437-.019532-3.359374-.304688-3.359374-.304688zm-31.171876 3.921875c.179688-.007813.371094-.003906.5625.011719.332032.003906.671876.03125 1.003907.078125 2.335937.339843 4.574219 1.71875 5.949219 3.726562.496093.71875.878906 1.515625 1.117187 2.378907.046875.171874.089844.34375.125.519531.074219.355469.117187.71875.140625 1.089843.046875.890626-.003906 1.699219-.152344 2.410157-.078125.355469-.179687.691406-.304687.996093-.1875.460938-.433594.859376-.734375 1.199219-.101563.113281-.207032.21875-.320313.316407-.339843.292968-.734375.519531-1.1875.671874-.304687.105469-.632812.175782-.988281.210938-.175781.019531-.359375.03125-.546875.03125-.484375.003906-.960937-.027344-1.429687-.082031-.234376-.027344-.46875-.0625-.699219-.105469-.226563-.042969-.457031-.089844-.679688-.148438-.222656-.054687-.441406-.117187-.660156-.1875-.648437-.207031-1.269531-.476562-1.84375-.800781-.464844-.261719-.898437-.5625-1.300781-.898437-.265625-.222656-.515625-.460938-.75-.710938-.234375-.253906-.449219-.519531-.644532-.800781-.296874-.417969-.546874-.871094-.75-1.351563-.132812-.320312-.246093-.65625-.332031-1-.042969-.171874-.082031-.347656-.113281-.527343-.09375-.535157-.132812-1.097657-.109375-1.6875.027344-.648438.121094-1.25.273437-1.796875.101563-.367188.230469-.703125.382813-1.019532.074219-.15625.160156-.304687.246094-.449218.445312-.71875 1.042969-1.265625 1.769531-1.617188.144531-.070312.292969-.132812.449219-.1875.15625-.054687.316406-.101562.480469-.140625.328124-.078125.679687-.121093 1.046874-.128906zm19.777344 1.066406h.003906c.316407.039063.867188.066407 1.074219.113281 2.558594.660157 4.773438 2.027344 5.515625 4.507813.097656.328125.175782.691406.234375 1.070313.007813.050781.015625.09375.023438.144531.011719.089843.023437.183593.03125.277343.003906.039063.007812.078126.011719.117188.011718.132812.023437.269531.027343.40625.003907.023438.003907.046875.003907.070312.003906.113282.003906.226563.003906.339844 0 .046875 0 .09375-.003906.144532 0 .089843-.003907.179687-.007813.273437-.003906.054687-.007813.105469-.011719.160156-.007812.085938-.015625.175781-.027344.265625-.003906.054688-.007812.109375-.015624.160156-.011719.09375-.027344.183594-.042969.273438-.011719.050781-.019531.101562-.027344.148438-.023437.113281-.046875.222656-.074219.332031-.007812.027343-.011718.058593-.019531.085937-.035156.136719-.074219.273438-.121094.410156-.011719.039063-.027343.074219-.042969.109376-.035156.097656-.070312.195312-.109374.292968-.019532.046875-.042969.09375-.0625.144532-.039063.082031-.078126.167968-.121094.25-.023438.046874-.050782.097656-.078125.148437-.042969.078125-.089844.160156-.136719.238281-.03125.046875-.058594.09375-.089844.136719-.054687.085937-.113281.164063-.171875.246094-.03125.035156-.054687.078125-.085937.113281-.09375.117188-.191406.230469-.292969.339844-1.636719 1.679687-2.863281 2.308594-5.460937 2.195312-.070313-4.546875.070312-9.089844.074218-13.515625zm0 0" fill="#fff"/><path d="m24.003906 5.53125c.019532.136719.367188 2.300781 2.496094 3.738281.578125.390625 1.324219.617188 1.324219.617188l1.234375-.894531.824218 16.082031s-.765624.226562-1.863281.8125c-.414062.21875-1.125.792969-1.640625 1.226562 0 .007813-.003906.011719-.003906.011719l.210938-.035156c.003906 0 3.40625-.355469 5.605468-.164063 1.308594.117188 2.636719.222657 3.921875.097657 3.550781-.347657 6.53125-2.65625 7.605469-6.304688.917969-3.113281.910156-5.574219.316406-7.523438l-1.460937-.1875s-1.382813-4.09375-7.765625-5.390624c-4.574219-.929688-6.40625-.101563-8.117188-.589844-1.457031-.417969-2.257812-1.027344-2.6875-1.496094zm26.640625.332031c-.269531.515625-.765625.839844-1.375 1.203125-.566406.332032-1.050781.464844-1.566406.597656 0 5.945313.019531 12.574219.289063 14.90625.289062 2.464844 2.355468 3.050782 2.355468 3.050782l.09375 1.292968c2.878906.660157 5.875.355469 8.550782-1.847656 0 .003906.003906.003906.003906.007813l1.304687-1.042969v2.007812c-.578125.148438-.898437.261719-1.449219.5-.554687.242188-.957031.449219-1.363281.710938 0 0 2.023438-.132812 3.367188-.125 1.222656.011719 3.21875.113281 3.21875.113281s-.160157-.617187-.363281-1c-.375-.703125-.675782-.996093-.851563-1.160156.042969-6.105469.226563-16.558594.226563-16.558594l.40625-2.507812c-.308594.230469-1.09375.800781-1.707032 1.066406-.558594.242187-1.488281.460937-1.488281.460937l.042969 9.507813c.015625 3.839844-.328125 6.980469-4.832032 7.863281-2.664062.523438-3.882812-.167968-3.882812-.167968l1.054688-.894532c.023437.003906.050781.011719.078124.015625-1.339843-.34375-1.902343-1.441406-2.117187-2.464843-.320313-4.359376.015625-15.535157.015625-15.535157h-.007812zm-35.054687 1.011719c-2.386719-.066406-4.824219.78125-6.855469 2.839844-6.105469 6.175781-1.449219 12.894531.320313 14.117187l-.1875 1.941407c1.574218 1.085937 3.464843 1.753906 5.5625 1.769531 6.601562.054687 11.976562-5.5 11.941406-12.1875-.011719-2.464844-1.058594-4.605469-2.621094-6.265625l-1.597656.417968c-1.839844-1.589843-4.179688-2.566406-6.566406-2.632812zm-2.582032 2.792969v.003906c.183594-.007813.371094-.003906.5625.007813 2.679688.035156 5.378907 1.515624 6.957032 3.808593l.445312-1.890625c2.511719 2.554688 3.707032 8.429688.421875 11.609375-2.5625 2.480469-7.726562 1.660157-10.65625-.605469l1.625-.613281c-2.480469-1.402343-4.132812-3.847656-4.003906-6.976562.140625-3.257813 1.898437-5.273438 4.648437-5.34375zm19.777344 1.070312c.320313.039063.871094.066407 1.078125.113281 2.558594.660157 4.773438 2.027344 5.511719 4.507813.101562.328125.179688.691406.238281 1.070313-.007812-.046876-.015625-.097657-.023437-.148438l.988281-1.445312s1.988281 7.101562-3.945313 9.777343c-1.738281.785157-4.835937.558594-4.835937.558594l.914063-.925781c-.070313-4.546875.070312-9.082032.074218-13.507813zm0 0" fill="#969c9e"/></svg>