<svg height="23pt" viewBox="0 0 70 23" width="70pt" xmlns="http://www.w3.org/2000/svg"><path d="m35.433594.511719c-.945313 0-1.894532.265625-2.679688.574219-.121094-.277344-.371094-.449219-.695312-.472657l-.09375-.007812-.085938.023437c-1.183594.347656-2.25.945313-3.28125 1.523438l-.328125.207031c-.421875.304687-1 .71875-1.109375 1.339844-.21875 1.210937.058594 2.273437.78125 2.992187l.117188.085938c.417968.21875.914062.289062 1.425781.027344 1.558594-1.050782 2.851563-1.84375 4.019531-2.472657.148438-.054687.289063-.128906.425782-.203125.023437-.011718.042968-.023437.066406-.035156l-.71875 1.878906c-1.230469 2.335938-2.582032 5.15625-3.777344 7.648438-.820312 1.71875-1.53125 3.203125-2.0625 4.234375-.136719.269531-.535156 2.015625.859375 3.777343.238281.300782.589844.476563.9375.476563.292969 0 .839844-.125 1.207031-.980469.5-1.160156 1.113282-2.304687 1.707032-3.417968.414062-.769532.828124-1.542969 1.1875-2.289063.773437-1.296875 1.496093-2.488281 2.253906-3.601563-1.324219 2.53125-2.703125 5.253907-2.996094 6.414063l-.015625.105469c-.03125 1.027344.042969 2.515625 1.105469 3.597656.125.101562.464844.339844.855468.339844.203126 0 .386719-.0625.542969-.179688.59375-.464844 1.378907-1.96875 2.34375-3.886718.261719-.527344.492188-.980469.636719-1.234376l.289062-.460937c.945313-1.515625 1.910157-3.0625 3.015626-4.527344-.632813 1.195313-1.265626 2.433594-1.644532 3.277344-.09375.210937-.195312.417969-.292968.628906-.667969 1.410157-1.363282 2.871094-1.027344 4.613281.117187.917969.921875 1.4375 1.582031 1.769532.332031.117187.671875.175781 1.015625.175781 1.027344 0 1.917969-.515625 2.707031-.96875.101563-.058594.199219-.117187.296875-.175781.429688.585937 1.011719.960937 1.660156 1.046875 1.636719.152343 3.234376-.472657 4.582032-1.742188 1.132812 1.082031 2.519531 1.628907 4.128906 1.628907 1.800781 0 3.503906-.679688 4.703125-1.316407 1.167969 1.03125 2.605469 1.574219 4.1875 1.574219 1.742187 0 3.386719-.667969 4.28125-1.367188.085937-.082031 2.113281-2.097656 1.898437-4.097656-.0625-.550781-.753906-.964844-1.273437-.730468-.511719.222656-.898437.761718-1.304687 1.335937-.28125.390625-.570313.789063-.871094 1.058594.320312-.519531.609375-1.113281.898437-1.824219.597657-1.742188.210938-3.722656-.210937-5.046875-.113282-.480469.089844-.949219.339844-1.492187.101562-.230469.207031-.464844.285156-.699219l.035156-.191407-.035156-.136718c-.042969-.238282-.132813-.636719-.53125-.863282-.816406-.460937-1.910156-.464843-2.515625.058594-1.253907 1.074219-2.527344 3.179688-3.765625 5.214844-.722656 1.195312-1.496094 2.472656-2.226563 3.449219.613281-1.449219.3125-3.050781.046875-4.476563-.074218-.382812-.148437-.757812-.210937-1.183594-.101563-.375.015625-.738281.148437-1.160156.132813-.40625.28125-.863281.230469-1.386718l-.015625-.15625-.109375-.121094c-.347656-.398438-.871094-.617188-1.484375-.617188-.15625 0-.3125.015625-.535156.054688-1.410156.433594-2.101563 1.5625-2.710938 2.5625-.246094.40625-.484375.789062-.78125 1.160156l-.230468.328125c-1.503907 2.1875-3.0625 4.441406-5.210938 6.316406-.015625-.21875.023438-.503906.125-.722656 1.042969-2.3125 2.136719-3.726563 2.933594-4.761719.484375-.621094.863281-1.113281 1.070312-1.59375.035156-.082031.1875-.5625.089844-.914062-.050781-.175782-.144531-.332032-.277344-.460938.273438-.03125.507813-.109375.703125-.238281.851563-.558594 1.148438-1.40625.800781-2.34375-.253906-.613281-.902343-.996094-1.722656-1.023437l-.09375-.003907c-.785156 0-1.464844.386719-1.84375 1.105469-.214844.625-.1875 1.175781.058594 1.5625.117188.210938.273438.378906.441406.511719-.398437.050781-.734375.207031-.949218.433593-2.117188 1.726563-3.746094 3.976563-4.851563 6.6875-.085937.210938-.160156.429688-.234375.644532-.113281.351562-.226562.6875-.398438.976562-.117187.050782-.222656.09375-.332031.121094.332031-1.714844 1.140625-3.292969 1.957031-4.789062.589844-1.242188 2.023438-3.476563 3.285157-5.453126 1.730469-2.695312 2.707031-4.25 2.820312-4.863281l.011719-.0625-.003906-.066406c-.0625-.800781-.574219-1.382813-1.097656-1.917969-.523438-.5-1.378907-.664062-2.039063-.382812l-.078125.039062c-1.257812.8125-2.390625 1.808594-3.472656 2.84375.078125-.132812.152344-.265625.234375-.398437.480469-.730469-.089844-1.351563-.363281-1.648438l-.125-.140625c-.671876-.757812-1.859376-1.035156-2.871094-.683594l-.085938.039063c-1.15625.664063-2.09375 1.5625-2.964844 2.492187.113282-.601562.113282-1.226562-.140624-1.859374l-.039063-.09375-.4375-.433594-.097656-.074219c-.566407-.335937-1.234375-.503906-1.984375-.503906zm-23.867188.152343c-.542968 0-1.0625.074219-1.597656.246094-3.21875 1.417969-5.6875 3.996094-7.34375 7.667969-.59375 1.304687-3.445312 8.007813-1.59375 11.664063.605469 1.191406 1.632812 1.941406 3.054688 2.234374.542968.109376 1.070312.167969 1.574218.167969 3.632813 0 5.628906-2.789062 6.945313-5.507812-.148438 1.195312-.117188 2.320312.199219 3.261719.355468 1.050781 1.03125 1.800781 2.011718 2.226562.269532.117188.574219.175781.898438.175781 1.519531 0 3.304687-1.332031 4.046875-1.949219 1.007812.890626 1.945312 1.320313 2.851562 1.320313 1.53125 0 2.496094-1.25 3.136719-2.074219l.171875-.222656c1.539063-1.949219.601563-2.835938.488281-2.929688l-.089844-.074218-.113281-.03125c-.082031-.019532-.167969-.027344-.253906-.027344-.683594 0-1.214844.617188-1.773437 1.269531-.457032.535157-1.019532 1.203125-1.429688 1.082031-.109375-.035156-.214844-.125-.277344-.234374 2.894532-1.851563 4.574219-3.8125 5.140625-6.035157.113281-.761719.347657-2.351562-1.015625-3.167969-.40625-.210937-.847656-.320312-1.3125-.320312-.984375 0-1.90625.457031-2.785156.96875-.398438.269531-.769531.554688-1.121094.863281 2.472656-4.667969 2.710938-8.59375 2.347656-9.808593l-.039062-.125-.09375-.09375c-.320312-.308594-.78125-.472657-1.332031-.472657-.492188 0-1.035157.140625-1.449219.371094l-.074219.050781c-2.078125 1.710938-3.355469 4.011719-4.378906 5.859375-.117187.214844-.304687.554688-.53125.992188.046875-.214844.085937-.433594.125-.652344.019531-.199219.042969-.398437.066406-.601563.097657-.847656.199219-1.722656-.054687-2.5625-.105469-.394531-.382813-.714843-.828125-.957031.078125-.097656.144531-.210937.203125-.339843.171875-.488282.003906-.984376-.464844-1.359376l-.082031-.050781c-1.03125-.53125-2.175781-.824219-3.226563-.824219zm.261719 4.878907c-.082031 1.496093-.542969 2.867187-1.023437 4.316406-.210938.636719-.433594 1.292969-.605469 1.921875-.84375 2.402344-1.730469 4.730469-3.21875 6.738281-.308594.308594-.839844.671875-1.398438.546875-.792969-.402344-.753906-1.273437-.609375-2.542968.027344-.257813.058594-.503907.066406-.699219.296876-2.183594 1.109376-4.238281 1.898438-6.222657l.15625-.417968c.089844-.152344.167969-.3125.242188-.46875.085937-.175782.171874-.347656.265624-.5.214844.0625.445313.117187.695313.117187.171875 0 .339844-.027343.496094-.078125l.089843-.042968c.695313-.398438 1.175782-.941407 1.644532-1.460938.40625-.457031.796875-.894531 1.300781-1.207031zm12.109375 7.9375c-.308594.605469-.773438 1.195312-1.378906 1.753906-.046875.035156-.089844.070313-.136719.109375.292969-.601562.753906-1.191406 1.375-1.757812zm-5.355469 2.015625c-.273437.902344-.402343 1.847656-.371093 2.824218-.023438.015626-.046876.039063-.066407.054688-.292969.269531-.660156.597656-.929687.597656-.058594 0-.117188-.015625-.179688-.050781-.375-.207031-.363281-.976563-.316406-1.296875.679688-.710938 1.300781-1.421875 1.863281-2.128906zm44.652344.359375c-.046875.542969-.238281 1.203125-.726563 1.894531-.117187-.042969-.25-.082031-.394531-.121094.429688-.578125.796875-1.175781 1.121094-1.773437zm-8.859375.144531c-.144531.472656-.363281 1.003906-.648438 1.5625-.136718-.066406-.28125-.125-.421874-.171875.367187-.449219.726562-.910156 1.070312-1.390625zm0 0" fill="#14213d"/><path d="m35.304688 1.011719c-1.09375.03125-2.230469.441406-3.117188.871093l-.085938-.050781c.160157-.121093.144532-.308593.222657-.464843-.035157-.152344-.125-.242188-.304688-.257813-1.191406.347656-2.285156.980469-3.339843 1.570313-.371094.273437-.945313.640624-1.03125 1.109374-.160157.894532-.035157 1.871094.640624 2.546876.257813.136718.648438.1875.917969.050781 1.308594-.878907 2.6875-1.757813 4.121094-2.523438.390625-.148437.707031-.441406 1.167969-.4375.152344.039063.140625.195313.167968.308594l-.945312 2.472656c-2.074219 3.933594-4.539062 9.347657-5.839844 11.875-.039062.082031-.472656 1.621094.804688 3.238281.273437.339844.894531.558594 1.300781-.390624.847656-1.972657 1.984375-3.832032 2.925781-5.765626 1.496094-2.507812 3.003906-4.992187 5.148438-7.207031l.136718-.027343c-.847656 1.71875-4.636718 8.527343-5.121093 10.425781-.03125 1.132812.101562 2.351562.921875 3.191406.207031.171875.550781.332031.78125.15625.765625-.601563 2.292968-3.996094 2.863281-4.992187 1.746094-2.792969 3.464844-5.644532 5.984375-8.035157h.082031c-.117187.265625-2.617187 4.746094-3.53125 6.796875-.71875 1.578125-1.636719 3.109375-1.28125 4.96875.082031.648438.667969 1.0625 1.25 1.363282 1.554688.542968 2.820313-.539063 4.035157-1.15625.292968.566406.816406 1.113281 1.535156 1.207031 1.8125.175781 3.414062-.75 4.535156-1.953125 2.925781 3.261718 7.160156 1.394531 8.90625.410156 2.863281 2.832031 6.757812 1.460938 8.042969.464844 0 0 1.945312-1.90625 1.753906-3.6875-.027344-.238282-.359375-.425782-.582031-.328125-1.050782.464843-1.816406 3.261719-3.5625 2.703125.746094-.835938 1.226562-1.785156 1.613281-2.753906.53125-1.535157.238281-3.320313-.222656-4.765626-.214844-.890624.371093-1.671874.640625-2.46875-.046875-.21875-.078125-.464843-.308594-.59375-.539062-.304687-1.414062-.457031-1.945312 0-2.863282 2.453126-6.027344 10.851563-8.460938 10.425782.667969-.585938 1.148438-1.269532 1.527344-2.007813.957031-1.742187.234375-3.84375-.027344-5.664062-.257812-.949219.453125-1.703125.363281-2.625-.355469-.402344-.929687-.507813-1.503906-.410157-1.746094.535157-2.226563 2.296876-3.230469 3.523438-1.632812 2.367188-3.289062 4.839844-5.675781 6.875-.164063.089844-.425781.066406-.558594-.078125-.1875-.371094-.121093-.964844.054688-1.363281 1.679687-3.722656 3.503906-5.1875 4.003906-6.347656.035156-.082032.113281-.414063.066406-.582032-.0625-.222656-.308593-.398437-.671875-.484375-.484375-.113281-1.066406-.082031-1.417968.285157-2.191407 1.789062-3.722657 4.078124-4.703126 6.484374-.253906.613282-.375 1.269532-.753906 1.828126-.304687.144531-.617187.285156-1 .257812-.148437-.089844-.175781-.277344-.199218-.4375.320312-1.835938 1.148437-3.472656 2.035156-5.097656 1.238281-2.613282 5.871094-9.132813 6.066406-10.191406-.050781-.632813-.480469-1.121094-.945312-1.597657-.378907-.367187-1.003907-.492187-1.5-.28125-2.4375 1.574219-4.414063 3.847657-6.515626 5.84375.890626-1.367187 1.773438-2.710937 2.585938-4.09375.3125-.476562-.171875-.863281-.445312-1.183593-.570313-.644532-1.523438-.824219-2.335938-.542969-1.679688.964843-2.894531 2.472656-4.175781 3.835937-.035157-.003906-.089844.019532-.109375-.023437.367187-1.0625.9375-2.265625.46875-3.425781l-.359375-.359376c-.566407-.332031-1.207031-.453124-1.863281-.433593zm-23.570313.152343c-.144531-.003906-.285156-.003906-.429687.003907-.382813.019531-.765626.085937-1.136719.199219-3.460938 1.527343-5.683594 4.296874-7.09375 7.417968-.808594 1.785156-5.027344 11.9375 1.109375 13.199219 6.039062 1.242187 8.007812-5.160156 9.40625-8.390625.671875-2.078125 1.492187-4.09375 1.867187-6.28125.089844-.996094.3125-2.039062.027344-2.984375-.136719-.515625-.742187-.769531-1.222656-.902344.214843-.207031.480469-.410156.613281-.695312.109375-.316407-.050781-.59375-.308594-.796875-.824218-.425782-1.824218-.738282-2.832031-.769532zm10.449219.078126c-.40625.015624-.824219.132812-1.128906.304687-1.9375 1.597656-3.140626 3.699219-4.261719 5.714844-2.011719 3.621093-6.308594 12.9375-1.78125 14.90625 1.773437.769531 4.761719-1.984375 4.761719-1.984375 3.214843 3.097656 4.800781.59375 5.757812-.617188 1.285156-1.628906.558594-2.238281.558594-2.238281-1.070313-.265625-2.144532 2.703125-3.476563 2.316406-.414062-.121093-.707031-.546875-.699219-.953125 2.277344-1.410156 4.558594-3.339844 5.207032-5.867187.136718-.941407.222656-2.070313-.753906-2.652344-1.230469-.644531-2.566407.023437-3.589844.617187-2.761719 1.859376-4.238282 4.644532-4.0625 7.746094-.535156.457032-1.191406 1.230469-1.921875.824219-.835938-.460937-.554688-1.949219-.527344-1.980469 6.5625-6.789062 7.507813-14.0625 6.984375-15.804687-.265625-.253907-.660156-.347657-1.066406-.332031zm-10.066406 3.601562c.214843-.015625.246093.199219.222656.359375-.039063 2.414063-1.058594 4.515625-1.671875 6.742187-.847657 2.40625-1.75 4.796876-3.335938 6.925782-.496093.496094-1.164062.867187-1.921875.667968-1.476562-.699218-.941406-2.507812-.863281-3.78125.324219-2.421874 1.246094-4.613281 2.117187-6.820312.25-.4375.410157-.910156.75-1.316406.375.128906.800782.296875 1.222657.15625 1.386719-.800782 1.914062-2.316406 3.480469-2.933594zm8.070312 1.3125c-.25 2.714844-1.703125 5.03125-3.171875 7.308594-.097656.128906-.25.273437-.390625.363281.566406-2.769531 2.039062-5.265625 3.5625-7.671875zm30.921875.773438c-.609375-.027344-1.171875.25-1.445313.765624-.125.367188-.199218.816407.027344 1.164063.164063.316406.53125.527344.855469.640625.398437.070312.894531.101562 1.230469-.121094.726562-.476562.847656-1.113281.617187-1.730468-.199219-.484376-.757812-.703126-1.285156-.71875zm-26.660156 5.582031c.1875 0 .285156.148437.277343.3125-.292968 1.058593-.980468 1.992187-1.863281 2.804687-.398437.308594-.78125.765625-1.28125.898438.109375-1.316406.917969-2.4375 1.917969-3.34375.3125-.230469.621094-.484375.949219-.671875zm30.503906 1.597656c.480469 1.089844-.46875 3.09375-.941406 3.988281l-.144531.105469c-.4375-.246094-.878907-.46875-1.445313-.414063l-.054687-.050781c.980468-1.164062 1.933593-2.34375 2.585937-3.628906zm8.546875.128906s.933594 1.988281-.835938 4.117188c0 0-.726562-.378907-1.503906-.332031 1.015625-1.171876 1.703125-2.464844 2.339844-3.785157zm0 0" fill="#ce1126"/></svg>