<svg height="58pt" viewBox="0 0 70 58" width="70pt" xmlns="http://www.w3.org/2000/svg"><path d="m35.085938.4375c-9.777344 0-18.777344 1.902344-23.976563 5.414062-5.847656 3.945313-10.597656 7.402344-10.597656 23.113282 0 15.714844 4.75 19.167968 10.597656 23.117187 5.203125 3.511719 14.199219 5.414063 23.976563 5.414063 9.777343 0 18.777343-1.902344 23.976562-5.414063 5.851562-3.949219 10.601562-7.402343 10.601562-23.117187 0-15.710938-4.75-19.167969-10.601562-23.113282-5.199219-3.511718-14.199219-5.414062-23.976562-5.414062zm0 4.605469c7.207031 0 12.761718 3.707031 15.058593 7.503906s2.070313 8.355469 2.070313 16.417969.226562 12.625-2.070313 16.421875-7.851562 7.503906-15.058593 7.503906c-7.207032 0-12.761719-3.707031-15.058594-7.503906-2.292969-3.796875-2.070313-8.359375-2.070313-16.421875s-.222656-12.621094 2.070313-16.417969c2.296875-3.796875 7.851562-7.503906 15.058594-7.503906zm0 0" fill="#004f39"/></svg>