<svg height="39pt" viewBox="0 0 70 39" width="70pt" xmlns="http://www.w3.org/2000/svg"><path d="m29.765625.441406c-7.441406 0-14.984375 1.371094-22.421875 4.070313-.785156.285156-1.566406.582031-2.328125.886719-.402344.152343-.824219.316406-1.25.488281l-3.414063 1.367187 3.585938.816406c.007812.003907 1.339844.316407 3.257812 1.195313 2.425782 1.109375 5.742188 3.089844 8.679688 6.453125-.628906-.039062-1.375-.113281-2.027344-.25-.152344-.03125-.300781-.066406-.441406-.105469l-2.226562-.628906.859374 2.164063c.015626.035156.15625.378906.460938.925781.738281 1.320312 2.238281 3.484375 4.957031 5.527343l-3.046875-.46875 2.339844 2.445313c.046875.050781.117188.132813.210938.238281.097656.109375.21875.242188.359374.398438 1.691407 1.867187 4.152344 4.066406 7.429688 5.738281l-3.210938-.269531 5.011719 2.632812c.332031.175782.675781.351563 1.0625.535156l.027344.011719c2.578125 1.574219 8.414063 4.179688 18.792969 4.179688 1.960937 0 4.023437-.097657 6.125-.285157l.148437-.015624.140625-.011719.109375-.011719.296875-.027344h.136719l.179687-.058594c.070313-.027343.144532-.054687.214844-.082031 1.664063-.679687 3.832032-3.039062 6.609375-7.207031 3.667969-5.507812 7.355469-12.605469 8.398438-14.652344.230469-.449218.355469-.703125.355469-.703125l.414062-.824219-.710938-.582031c-2.832031-2.316406-5.886718-4.382812-9.085937-6.140625-1.824219-.996094-3.726563-1.917968-5.644531-2.730468-5.109375-2.15625-10.632813-3.671876-16.421875-4.503907-2.628907-.34375-5.292969-.515625-7.933594-.515625zm0 0" fill="#dc4405"/><path d="m149.578646 6.951475c-33.89947 0-71.295563 5.634349-111.437593 20.103044-3.832457 1.393863-7.704425 2.846622-11.596147 4.39754-2.094023.785276-4.207802 1.609815-6.32158 2.453985 0 0 7.131532 1.609814 17.601648 6.360729 14.875467 6.772998 36.447857 19.887093 53.674161 43.700562-1.126032.039264-2.331083.058896-3.595399.058896-1.955738 0-4.049761-.058896-6.183294-.157055-3.970743-.157055-9.265065-.549693-13.828456-1.511655-.908727-.176687-1.777944-.392637-2.607651-.62822 0 0 .592648 1.492023 1.995248 3.985272 4.267067 7.597537 16.060763 24.539848 41.248306 36.731245 0 0-1.066766.215951-3.00275.412269-1.066766.117792-2.370592.215951-3.911477.274847-.671668.019632-1.402601.019632-2.153288.019632-.217304 0-.454364 0-.711178 0-3.04226-.039264-6.696923-.274847-10.84546-.903067.513629.549693 1.52113 1.707974 2.982996 3.317788 8.119278 8.932505 30.73868 31.568061 67.52237 38.184004.138285.019632.276569.058896.434609.078527 0 0-4.780695 1.020858-11.675167 1.374232-1.48162.058896-3.062015.117791-4.72143.117791-1.56064 0-3.200299-.039263-4.899224-.137423-.513628-.039264-1.047011-.078527-1.580395-.117791 1.698925.883434 3.437359 1.747237 5.175793 2.571776.138285.058896.296324.137423.434609.215951 11.201049 6.851525 39.86546 20.299362 92.275305 20.299362 9.383595 0 19.517877-.431901 30.462111-1.413495.474119-.039264.948237-.098159 1.422356-.137423.790197-.078528 1.560639-.137423 2.350837-.215951h.019755c.237059-.078527.474118-.176687.711178-.274846 8.237808-3.337419 19.517876-17.217158 30.837454-34.100574 18.214051-27.17052 36.487367-62.036737 42.137278-73.050221 1.145787-2.238034 1.777945-3.494474 1.777945-3.494474-14.638408-11.916551-29.750934-21.909177-45.061009-30.272357-8.297073-4.515332-17.660913-9.109192-28.012499-13.487101-27.65691-11.582809-55.373085-18.473598-81.627395-22.223287-12.485119-1.609814-25.602396-2.532512-39.292567-2.532512zm0 0" stroke="#000" stroke-width="1.25" transform="matrix(.197735 0 0 .198975 .188633 .206675)"/><path d="m28.300781 4.058594c.566407.636718.859375 1.539062.902344 1.675781-.257813-.035156-5.730469-.699219-10.542969.109375 0 0-.5625.085938-1.320312.269531-.003906 0-.007813-.003906-.011719 0-.214844.050781-.441406.105469-.675781.171875-.949219.203125-2.4375.585938-3.554688 1.179688 0 0 2.578125.453125 7.050782 5.320312h1.777343c-.523437-1.027344-1.53125-3.375-1.101562-5.574218.289062.054687.503906.09375.597656.109374 1.855469.410157 5.644531 1.777344 7.101563 6.183594 0 0 .472656-1.0625.484374-2.605468 5.113282-2.128907 10.300782-3.460938 12.296876-.835938-3.871094-1.421875-6.140626.871094-5.328126 3.265625.660157-2.804687 4.214844-3.503906 6.722657-.578125 2.160156 2.519531 5.816406 2.183594 5.816406 2.183594s-.433594-.558594-.578125-1.15625c0 0 1.882812.90625 4.105469.652344 0 0-.046875-1.941407 5.066406-.140626 0 0-1.277344 1.167969-5.941406 1.652344 0 0 .496093.441406 1.3125.695313 0 0-5.117188 1.421875-8.679688.277343 0 0 .867188-.695312 1.042969-1.320312 0 0-2.980469 1.503906-5.300781-.011719-2.085938-1.367187-3.324219-.9375-3.324219-.9375s1.71875.722657 1.96875 2.234375c0 0-8.796875 1.484375-14.023438-1.648437 0 0 1.578126 3.636719 6.410157 4.609375 2.648437-.355469 6.535156-1.300782 12.507812.480468-1.816406.046876-2.613281 1.246094-3.082031 1.765626-2.828125.273437-9.109375.402343-16.796875-.214844 0 0 19.835937 4.148437 27.269531-.914063-2.710937 3.5-9.269531 3.660157-11.546875 3.699219-.132812.4375-.140625 1.746094-.070312 1.859375-1.359375.441406-6.882813.695313-10.351563.734375 0 0 16.300782 1.601562 22.644532-2.796875-.675782 1.183594-3.421876 4.316406-11.855469 4.152344 1.476562 3.722656 5.460937 4.597656 10.171875-.222657 9.175781-8.210937 12.667968-4.957031 13.566406-8.945312.507812-2.269531-3.695312-2.574219-3.421875-4.808594 0 0 3.046875 1.03125 5.316406.105469 0 0-9.160156-6.714844-22.765625-10.136719.699219.664063 1.117188 1.835938 1.117188 1.835938s-6.570313-2.390625-14.972656-2.375zm22.628907 26.664062c-4.039063 3.070313-8.980469 2.648438-8.980469 2.648438 2.160156 1.082031 6.207031 1.136718 6.207031 1.136718 2.476562-1.164062 2.773438-3.785156 2.773438-3.785156zm0 0" fill="#dc4405"/><path d="m38.851562 12.09375c-.03125 0-.066406.003906-.097656.007812-.523437.082032-.886718.574219-.804687 1.101563.074219.527344.5625.890625 1.089843.8125.523438-.082031.886719-.570313.808594-1.101563-.070312-.460937-.453125-.796874-.902344-.820312-.03125 0-.0625 0-.09375 0zm1.816407 1.21875c-.027344 0-.054688 0-.082031.003906-.214844.03125-.363282.234375-.332032.453125.035156.214844.234375.367188.453125.332031.214844-.03125.363281-.234374.332031-.449218-.027343-.191406-.1875-.328125-.371093-.339844zm20.269531 11.4375-1.101562.25-1.148438 1.601562-.1875-1.382812c-2.171875-.238281-3.730469 1.109375-3.730469 1.109375l-.691406 2.015625s-.488281 1.316406-.808594 2.386719c-.96875 3.226562-2.242187 4.023437-2.734375 4.214843h1.09375c.480469-.183593 1.402344-.621093 1.949219-1.433593 0 0-.121094.484375-.328125.859375h.527344c.175781-.09375.34375-.195313.492187-.300782 1.714844-1.222656 6.667969-9.320312 6.667969-9.320312zm0 0" fill="#fff"/><path d="m284.884596 82.141571s-6.993247.333742-13.156787 5.968091c0 0 3.792947 1.806133 10.154037.373006-5.175793-1.923925-1.224806-4.711651 3.00275-6.341097zm21.6119 9.874835s-6.775943.31411-12.741934 5.811036c0 0 3.654663 1.727605 9.837958.333742-5.017754-1.845397-1.205051-4.554596 2.903976-6.144778zm-17.739933 6.988949s-8.711926 1.236808-15.547134 9.011032c0 0 5.037509 1.786501 12.801198-.785275-6.815453-1.747237-2.291572-5.693245 2.745936-8.225757zm0 0" stroke="#000" stroke-width="1.25" transform="matrix(.197735 0 0 .198975 .187764 .206675)"/></svg>