<svg height="49pt" viewBox="0 0 70 49" width="70pt" xmlns="http://www.w3.org/2000/svg"><path d="m35.082031.5625c-19.042969 0-34.476562 10.734375-34.476562 23.972656 0 13.238282 15.433593 23.96875 34.476562 23.96875 19.039063 0 34.476563-10.730468 34.476563-23.96875 0-13.238281-15.4375-23.972656-34.476563-23.972656zm0 0" fill="#fff"/><path d="m35.082031 1.640625c-18.449219 0-33.40625 10.25-33.40625 22.894531 0 5.003906 2.34375 9.632813 6.320313 13.402344-.3125-.40625-3.453125-4.59375-3.453125-10.988281 0-15.769531 19.4375-19.277344 19.4375-19.277344h.394531c-2.199219 1.667969-14.925781 7.21875-14.925781 20.253906 0 14.800781 15.695312 18.445313 17.511719 18.816407 2.597656.445312 5.320312.683593 8.121093.683593 18.449219 0 33.40625-10.25 33.40625-22.890625 0-12.644531-14.957031-22.894531-33.40625-22.894531zm0 0" fill="#002d62"/><path d="m30.839844 3.070312c-1.609375.5625-2.3125 2.335938-2.921875 3.742188-1.28125 3.460938-2.132813 7.152344-2.59375 10.925781 4.171875-2.964843 8.980469-4.371093 14.136719-4.933593 2.96875-.132813 6.285156-.664063 9.058593.230468 1.542969.628906 2.035157 2.515625 3.480469 3.378906 2.296875 1.503907 4.660156 2.828126 6.894531 4.5 1.378907 1.226563 3.496094 2.433594 3.546875 4.488282-.496094 1.792968-1.117187 3.292968-2.839844 3.886718l-.082031-.113281c.359375-1.242187.226563-2.648437-.363281-3.742187-2.148438-3.394532-5.746094-5.097656-9.175781-6.308594-.886719-.214844-1.539063-.371094-2.675781-.644531.394531-.546875.34375-1.324219.113281-1.9375-.164063-.28125-.359375-.710938-.785157-.59375l-6.109374 2.78125c2.777343-.101563 5.304687.644531 7.734374 1.503906 3.019532 1.441406 7.269532 3.757813 7.601563 7.667969.164063 1.902344-.839844 3.457031-2.367187 4.53125-3.9375 2.21875-8.089844 3.941406-12.375 5.363281-6.222657 1.242187-14.429688 2.21875-19.058594-3.109375-.214844-.265625-.394532-.613281-.640625-.796875-.128907 1.574219.296875 2.996094.984375 4.253906 1.082031 1.6875 2.824218 2.601563 4.695312 2.78125 5.203125.316407 9.75-1.4375 14.460938-2.613281l9.800781 1.539062c3.976563.503907 4.597656-2.070312 5.367187-3.296874.542969-1.191407 1.179688-2.414063 1.527344-3.605469-3.363281 1.355469-6.796875 2.546875-10.242187 3.722656l-.148438-.125c-.117187-.113281-.34375-.207031-.164062-.304687 2.445312-.945313 4.824219-2.054688 7.207031-3.179688 2.410156-1.339844 4.957031-2.332031 7.136719-4.253906 1.109375-1.550782 2.1875-3.523438 1.132812-5.441406-2.929687-3.941407-7.335937-5.367188-10.914062-8.296876-1.195313-1.105468-1.820313-2.761718-3.21875-3.457031-4.316407-1.691406-8.714844-3.128906-13.359375-3.972656-1.332032-1.640625-2.363282-4.488281-4.84375-4.570313zm0 0" fill="#fff"/><path d="m31.035156 4.460938c-.652344.25-.882812.960937-1.261718 1.472656-1.3125 2.714844-2.101563 5.644531-2.53125 8.742187h.085937c1.527344-2.617187 3.921875-5.710937 6.8125-6.921875.03125-.28125-.199219-.445312-.3125-.675781-.835937-.910156-1.363281-2.519531-2.792969-2.617187zm0 0" fill="#002d62"/></svg>