<svg height="40pt" viewBox="0 0 70 40" width="70pt" xmlns="http://www.w3.org/2000/svg"><path d="m22.066406.355469c-.679687-.007813-1.371094.019531-2.070312.074219-6.921875.550781-11.921875 2.488281-15.742188 6.09375l-.058594.058593c-1.773437 1.765625-3.78125 3.765625-3.859374 6.628907l-.007813.179687.042969.175781c.148437.59375.59375 2.375 2.230468 2.964844 1.191407.628906 2.644532.296875 3.554688-.207031l.101562-.054688.085938-.070312c.925781-.746094 1.554688-1.632813 2.167969-2.492188.421875-.585937.824219-1.152343 1.296875-1.628906-.035156.253906-.058594.496094-.078125.703125l-.007813.097656.007813.101563c.277343 4.273437.472656 8.601562.660156 12.792969l.300781 6.566406.007813.039062c.042969.367188.050781.761719.0625 1.183594.035156 1.359375.078125 3.046875 1.394531 4.300781l.09375.089844.113281.070313c2.332031 1.449218 6 1.992187 8.507813.230468l.128906-.085937.101562-.121094c.671876-.769531 1.019532-1.6875 1.042969-2.726563v.054688c.070313-1.054688.097657-2.070312.097657-3.066406 0-1.515625-.0625-2.984375-.125-4.503906.039062-.007813.078124-.007813.125-.015626-.027344 0-.054688.007813-.082032.011719l.082032-.011719c3.582031-.433593 6.695312-1.695312 9.289062-3.753906-.003906.164063-.007812.332032-.007812.496094 0 .484375.015624.960938.03125 1.433594.015624.453125.03125.898437.03125 1.328125 0 .835937-.058594 1.617187-.28125 2.304687-.097657.183594-.261719.492188-.261719.492188-.402344.78125-.675781 1.261718-1.082031 1.316406l-.234376.035156-.210937.113282c-.199219.113281-.410156.082031-1.027344-.066407-.503906-.128906-1.128906-.285156-1.839843-.203125l-.046876.003906-.042968.007813c-.652344.121094-1.765625.605469-1.894532 2.476563l-.015624.222656.429687 1.515625.136719.183593c1.132812 1.5625 2.84375 2.660157 5.082031 3.257813l.085937.027344.085938.007812c1.839844.230469 3.59375-.308593 5.128906-1.539062 1.519532 1.328125 3.253906 2.042969 5.167969 2.109375 2.355469.117187 4.003906-1.171875 5.035156-2.15625l-.066406.0625c.0625-.050782.105469-.105469.15625-.15625.902344.820312 2.007813 1.410156 3.222656 1.683594 0 0 .003907.003906.007813.003906h.003906c2.503906.605468 4.90625-.148438 7.023438-2.164063.003906.003907.003906.003907.007812.007813 2.691406 2.128906 5.753906 2.722656 8.234375 1.605468 2.523437-.773437 4.324219-3.277343 5.101563-5.203124l.066406-.160157.050781-.425781c.03125-.261719.070313-.589844.070313-.953125 0-.832031-.214844-1.816406-1.25-2.449219l-.015626-.003906-.035156-.019531-.03125-.015625c-1.054687-.5625-2.351562-.488282-3.300781.1875l-.121094.085937-.078125.089844-.605468.683594c-.410157.476562-.796876.921875-1.226563 1.238281-.050781-.007812-.125-.039062-.234375-.09375-.011719-.042969-.03125-.089844-.046875-.136719 0 0-.0625-.144531-.125-.289062-.164063-1.003907-.21875-2.058594-.21875-3.125 0-.914063.039063-1.839844.078125-2.753907.011719-.273437.019531-.554687.03125-.835937.425781.253906.898438.507813 1.441406.667969l.105469.03125.105469.011718c.488281.054688 1.785156.207032 2.535156-.941406.648438-.964844 1-2.15625 1-3.367187 0-.46875-.054688-.9375-.160156-1.398438l-.0625-.269531-.164063-.21875c-1.171875-1.5625-2.742187-2.515625-4.125-3.355469 0 0-.015625-.011719-.019531-.011719.042969-.585937.101562-1.335937.101562-1.335937l-.011718-.105469c0-.054687-.003906-.113281-.003906-.175781 0-.238281.03125-.515625.0625-.808594.039062-.328125.078124-.699219.078124-1.085937 0-.734375-.148437-1.53125-.753906-2.226563l-.027344-.027343c-.792968-.859376-1.804687-1.023438-2.476562-1.128907l-.121094-.019531-.117187.003906c-1.75.054688-3.40625.738282-5.0625 2.089844l-.402344.332031-.109375.898438.003906.082031.066406 1.347656c.023438.417969.046876.820313.058594 1.214844-.867187.132812-1.75.335938-2.679687.597656.007812-.332031.019531-.757812.019531-.757812.003906-.277344.039062-.5625.070312-.863282.042969-.359374.089844-.757812.089844-1.175781 0-.546875-.082031-1.128906-.347656-1.707031l-.035156-.078125-.042969-.070313c-.8125-1.28125-2.210937-1.402343-3.132813-1.476562l-.230468-.019531-.199219.046875c-1.378906.328125-3.402344.976562-5.03125 2.765625l-.414063.464843.097657.617188c.148437.921875.203125 1.914062.257812 2.96875.027344.445312.050781.902344.085938 1.355469-.164063-.089844-.328125-.199219-.503907-.339844l-.316406-.257813-.414062-.023437c-.636719-.035156-1.605469.15625-2.566406 1.285156l-.265626.308594-.039062.410156c-.027344.320313-.054688.691407-.054688 1.082031-.703124-.28125-1.460937-.296874-2.054687-.300781-.265625-.003906-.519531-.003906-.742187-.023437l-.140626-.015625-.175781.023437-.164062.019532c.878906-1.542969 1.503906-3.316407 1.519531-5.339844v-.027344c.007812-.179688.015625-.359375.015625-.539062 0-4.496094-2.546875-8.699219-6.753906-11.074219l-.023438-.011719-.027343-.011719c-2.484376-1.253906-5.226563-1.90625-8.171876-1.941406zm-2.695312 8.023437c1.582031.03125 3.414062.324219 4.964844 1.242188l.027343.015625c1.632813.914062 2.234375 2.832031 2.632813 4.78125.042968.28125.0625.558593.0625.824219 0 1.3125-.507813 2.449218-1.464844 3.265624-.976562.636719-2.1875.90625-3.46875 1.183594 0 0-.085938.019532-.148438.035156-.101562.011719-.226562.023438-.324218.035157-.105469-1.527344-.316406-4.511719-.316406-4.511719 0-.011719-.046876-.65625-.046876-.65625-.078124-1.101562-.152343-2.140625-.453124-3.25-.367188-1.316406-1.429688-2.351562-2.960938-2.925781.007812 0 .011719-.003907.015625-.003907.453125-.03125.953125-.046874 1.480469-.035156zm35.359375 13.902344c.03125.367188.046875.75.046875 1.144531 0 .519531-.023438 1.050781-.039063 1.574219 0 0-.027343.808594-.035156.976562-.242187 1.503907-.53125 2.941407-1.203125 4.097657-.332031.277343-.53125.382812-.703125.371093l-.074219-.003906h-.074218c-.203126.011719-.386719-.171875-.476563-.363281-.535156-1.246094-.550781-2.769531-.570313-4.378906 0 0-.023437-1.0625-.023437-1.152344 0-.03125.023437-.992187.042969-1.777344.898437-.292969 1.925781-.449219 3.109375-.488281zm-14.21875 1.292969c.894531.527343 1.9375.570312 2.769531.59375.03125 0 .0625.003906.097656.003906.027344.410156.039063.820313.039063 1.234375 0 2.089844-.328125 4.175781-.945313 5.953125-.296875.542969-.480468.683594-.535156.714844h-.042969c-.304687-.007813-.675781-.148438-.816406-.441407-.449219-1.753906-.546875-3.707031-.609375-5.722656v-.019531l-.003906-.023437c-.011719-.1875-.015625-.375-.015625-.558594 0-.382813.023437-.761719.039062-1.152344.015625-.191406.015625-.390625.023438-.582031zm0 0" fill="#b3a369"/><path d="m22.03125 1.648438c-.636719-.007813-1.285156.015624-1.941406.070312-5.558594.441406-10.863282 1.871094-14.96875 5.75-1.671875 1.664062-3.445313 3.417969-3.515625 5.78125.203125.816406.558593 1.800781 1.488281 2.089844.710938.445312 1.753906.222656 2.433594-.152344 1.621094-1.308594 2.3125-3.296875 4.003906-4.589844 2.429688-1.90625 5.203125-2.996094 8.210938-3.472656 2.53125-.183594 5.152343.140625 7.246093 1.378906 2.128907 1.191406 2.835938 3.539063 3.277344 5.699219.320313 2.074219-.320313 4.046875-1.90625 5.355469-1.253906.832031-2.707031 1.125-4.175781 1.445312-.609375.050782-1.132813.171875-1.722656.085938l-.40625-5.75c-.101563-1.292969-.136719-2.464844-.457032-3.65625-.355468-1.273438-1.65625-1.972656-2.820312-2.257813-1.605469-.15625-3.402344-.144531-4.679688.917969-.871094.625-1.015625 1.578125-1.097656 2.546875.421875 6.480469.640625 12.925781.960938 19.335937.191406 1.644532-.183594 3.507813 1.066406 4.695313 1.941406 1.207031 5.085937 1.683594 7.09375.273437.476562-.546874.710937-1.175781.726562-1.90625.203125-3.042968.035156-5.714843-.082031-8.757812.355469.03125.777344.070312 1.230469-.015625 3.632812-.425781 6.910156-1.753906 9.648437-4.285156 2.265625-2.398438 4.089844-5.019531 4.105469-8.300781h.003906c.21875-4.386719-2.320312-8.351563-6.085937-10.476563-2.332031-1.171875-4.878907-1.773437-7.636719-1.804687zm37.898438 8.148437c-1.65625.050781-3.042969.78125-4.292969 1.800781l-.03125.273438c.03125 1.292968.203125 2.519531.101562 3.742187-1.589843.152344-3.074219.511719-4.527343.96875-.253907.035157-.492188.222657-.742188.066407l.066406-2.378907c.015625-1.070312.386719-2.175781-.066406-3.164062-.476562-.746094-1.367188-.8125-2.179688-.882813-1.640624.390625-3.160156 1.039063-4.378906 2.382813.304688 1.886719.238282 3.996093.507813 5.949219l-.082031.171874c-1.015626.101563-1.894532-.308593-2.652344-.917968-.59375-.035156-1.117188.355468-1.519532.832031-.101562 1.070313-.105468 2.3125.417969 3.25.863281 1.273437 2.605469.847656 3.9375 1.070313l.085938.085937c.335937 2.976563.03125 6.15625-.914063 8.824219-.335937.644531-.914062 1.566406-1.789062 1.5-.84375-.019532-1.691406-.480469-2.011719-1.296875-.507813-1.921875-.609375-4.011719-.675781-6.121094-.101563-1.582031.234375-2.890625-.050782-4.402344-.640624-1.226562-2.042968-.867187-3.257812-.988281-1.015625.152344-2.367188.070312-2.738281 1.222656-.8125 2.636719.21875 5.765625-.644531 8.300782-.574219.988281-1.011719 2.414062-2.363282 2.601562-1.132812.628906-2.164062-.253906-3.34375-.117188-.644531.121094-.804687.683594-.84375 1.292969l.300782 1.070313c1.097656 1.511718 2.722656 2.328125 4.375 2.769531 1.910156.242187 3.582031-.5625 4.902343-1.921875l.167969-.035156c1.402344 1.535156 3.089844 2.449218 5.121094 2.523437 1.636718.082031 2.9375-.699219 4.101562-1.804687.371094-.308594.578125-.820313 1-1.054688.859375 1.222656 2.144532 2.019532 3.496094 2.328125 2.71875.660157 5.019531-.714843 6.757812-2.804687.289063.238281.386719.609375.722657.847656 1.914062 1.53125 4.632812 2.605469 7.0625 1.445312 1.976562-.574218 3.601562-2.632812 4.34375-4.46875.085937-.800781.320312-1.875-.539063-2.402343-.609375-.320313-1.386718-.304688-1.960937.105469-.710938.765624-1.300781 1.597656-2.128907 2.175781-.492187.339843-1.152343.117187-1.601562-.152344-.460938-.253906-.476562-.765625-.695312-1.171875-.492188-2.859375-.121094-5.921875-.101563-8.777344l.101563-.289062c1.0625.289062 1.890624 1.140625 2.941406 1.445312.4375.050782 1.011718.101563 1.316406-.375.710938-1.035156.960938-2.429687.65625-3.757812-1.199219-1.597656-2.902344-2.480469-4.460938-3.453125l.15625-2.023438c-.105468-1.191406.519532-2.601562-.308593-3.554687-.46875-.507813-1.097657-.628906-1.738281-.730469zm-4.96875 11.171875c.238281-.003906.472656-.003906.710937 0l.152344.050781c.375 1.566407.1875 3.4375.152343 5.085938-.269531 1.667969-.59375 3.382812-1.488281 4.816406-.523437.457031-1.0625.863281-1.789062.8125-.757813.035156-1.402344-.460937-1.707031-1.121094-.792969-1.835937-.640626-4.015625-.710938-6.070312l.070312-2.6875c1.433594-.625 2.96875-.859375 4.609376-.886719zm0 0" fill="#0c2340"/></svg>