<svg height="38pt" viewBox="0 0 69 38" width="69pt" xmlns="http://www.w3.org/2000/svg"><g fill-rule="evenodd"><path d="m67.605469 4.363281c-2.5625-3.910156-7.769531-4.363281-11.472657-4.363281h-40.148437l-6.417969 15.214844h7.148438l-3.132813 7.429687h-7.164062l-6.417969 15.21875h37.378906l4.484375-10.636719h6.773438c11.960937 0 15.992187-5.652343 18.570312-11.761718 1.050781-2.488282 3.003907-7.125.398438-11.101563zm0 0"/><path d="m64.324219 6.554688c-1.152344-1.761719-3.757813-2.582032-8.191407-2.582032h-37.546874l-3.066407 7.265625h7.148438l-6.484375 15.378907h-7.160156l-3.070313 7.269531h28.820313l3.066406-7.269531h-7.261719l1.421875-3.367188h16.636719c10.164062 0 12.871093-4.417969 14.949219-9.34375 1.101562-2.609375 2.0625-5.324219.738281-7.351562zm-27.257813 4.683593h12.308594c.886719 0 1.53125.214844 1.773438.582031.28125.425782.054687 1.121094-.101563 1.496094-.695313 1.648438-2.347656 2.667969-4.308594 2.667969h-11.675781zm0 0" fill="#9d968d"/><path d="m56.132812 4.726562h-37.058593l-2.429688 5.761719h7.152344l-7.121094 16.882813h-7.164062l-2.429688 5.765625h27.199219l2.433594-5.765625h-7.261719l2.050781-4.871094h17.132813c9.820312 0 12.285156-4.199219 14.261719-8.886719 1.976562-4.6875 3.054687-8.886719-6.765626-8.886719zm-9.394531 12.011719h-12.804687l2.636718-6.25h12.800782c2.265625 0 3.179687 1.175781 2.359375 3.125-.820313 1.949219-2.726563 3.125-4.992188 3.125zm0 0" fill="#ceb888"/></g></svg>