<svg height="84pt" viewBox="0 0 70 84" width="70pt" xmlns="http://www.w3.org/2000/svg"><path d="m49.1875 1.390625-9.15625 5.828125-9.160156 6.070312c-1.441406.960938-2.203125 1.773438-3.015625 3.15625-1.082031 1.839844-1.226563 5.523438-1.226563 5.582032v18.210937s-.085937 18.207031-.097656 18.390625c-.054688.71875.03125 3.035156-2.941406 5.175782.191406-.140626 2.730468-.367188 4.699218-1.289063 1.035157-.40625 5.152344-2.304687 7.761719-5.109375 1.726563-1.402344 1.867188-3.6875 1.867188-4.277344l-.011719-5.242187.113281-3.523438c.445313 0 .867188.09375 1.253907.257813.664062.332031 1.675781 1.214844 2.011718 1.882812 1.183594 1.839844 2.339844 5.871094 2.597656 7.464844.167969.714844 1.285157 7.480469 1.296876 7.632812.015624.152344.269531 2.132813.546874 3.277344.429688 1.800782.789063 2.917969.847657 2.980469l-1.183594 1.027344c-.558594-.183594-1.117187-.363281-1.664063-.5625.332032.121093-7.902343-3.191407-12.410156-3.445313-3.035156-.167968-4.789062.179688-6.585937.546875-7.5 1.917969-14.027344 8.417969-17.179688 13.125-.828125 1.035157-1.695312 2.839844-1.695312 2.839844s5.746093-3.683594 10.023437-4.792969c2.84375-.734375 7.710938-1.253906 12.535156.210938 3.078126.835937 9.941407 4.824218 9.941407 4.824218l5.175781-7.136718s3.871094-5.015625 4.007812-4.570313c.652344 2.078125 1.964844 6.347657 4.550782 8.429688 4.066406 3.269531 7.816406 2.667969 7.816406 2.667969s2.203125-4.105469 3.222656-5.984376c.902344-1.667968 4.148438-6.882812 4.148438-6.882812-2.351563 1.253906-3.539063 1.632812-4.957032 1.078125-1.5625-.613281-1.949218-1.394531-2.925781-3.660156-.234375-.542969-3.210937-12.109375-3.285156-12.347657-.921875-3.015624-2.71875-8.324218-5.472656-11.289062-.476563-.515625-3.03125-3.046875-3.683594-2.550781 4.457031-3.382813 7.296875-7.148438 7.84375-8.027344 3.128906-5.042969 3.941406-11.6875 3.546875-14.308594-.007812-.058593.257812-11.28125-9.160156-15.660156zm-14.945312.859375c.054687-.058594-2.753907 3.097656-5.363282 3.609375-4.171875 1.023437-11.464844-2.105469-12.617187-2.457031-1.363281-.414063-3.441407-.664063-4.269531-.671875-1.039063-.007813-8.378907-.351563-10.574219 10.328125-.167969.746094-.253907 2.777344-.253907 2.777344v.730468c.226563-.242187 2.609376-3.292968 4.605469-3.839844 2.648438-.726562 5.46875.503907 5.441407.496094 2.023437.761719 5.226562 2.164063 8.828124 1.960938 4.890626-.28125 7.398438-2.441406 8.542969-3.269532 2.964844-2.1875 5.660157-9.664062 5.660157-9.664062zm9.011718 6.765625c5.667969 2.359375 5.808594 12.054687 5.945313 13.789063.136719 2.394531.101562 2.101562-.109375 3.59375-1.136719 12.554687-10.996094 17.128906-11.089844 15.210937s-.09375-13.816406-.09375-13.816406l.09375-13.910157c.890625-2.679687 5.253906-4.867187 5.253906-4.867187zm-18.972656 7.550781-6.636719 2.726563c-.261719.097656-5.652343 1.984375-5.652343 6.234375 0 1.378906 0 1.019531.042968 9.855468 0 .042969-2.804687.121094-3.722656.121094-2.101562 0-4.667969-.015625-5.945312 3.082032-.933594 2.265624-.96875 6.636718.242187 9.21875 1.128906 2.402343 2.320313 2.761718 2.320313 2.761718s-1.109376-3.320312 4.386718-3.105468c.140625-.007813 2.675782.007812 2.675782.007812v18.074219c0 3.355469-2.195313 4.527343-2.210938 4.546875.117188-.132813 3.941406-1.769532 9.363281-6.300782 4.148438-3.464843 3.574219-7.832031 3.574219-7.890624v-31.683594c0 .617187.089844-2.421875.222656-3.15625.4375-2.496094 1.285156-4.3125 1.339844-4.492188zm0 0" fill="#00205b"/></svg>