<svg height="62pt" viewBox="0 0 69 62" width="69pt" xmlns="http://www.w3.org/2000/svg"><path d="m3.57971 3.572329v47.954259h19.912138v167.848412h-19.912138v47.137727h127.819747v-47.137727h-20.600544v-65.883947h34.42029l42.71558 65.883947h-24.163044v47.137727h136.355978v-47.137727h-24.868659l-48.65308-75.052923c8.914855-4.848161 15.971015-10.989164 21.495471-17.538433 8.794384-10.47883 13.905797-22.080393 16.229167-33.818044 2.529891-13.132561 1.669384-26.571321-2.874094-39.499748-3.734602-10.495842-9.913044-20.753528-19.447464-29.718372-6.935688-6.464214-15.747283-12.316028-26.692935-16.109501-7.434782-2.585686-15.867753-4.082661-24.403985-4.048639-.120471 0-.240942 0-.361413 0l-.068841-.017011zm107.219203 47.954259h52.19837c14.835145 0 26.589674 11.397429 26.589674 28.051285 0 16.670867-14.972827 28.187374-28.276269 28.187374h-50.511775zm0 0" fill="#cf102d" stroke="#231f20" stroke-linecap="round" stroke-width="7.159" transform="scale(.226974 .22963)"/></svg>