<svg height="71pt" viewBox="0 0 70 71" width="70pt" xmlns="http://www.w3.org/2000/svg"><path d="m51.335938 44.664062c.460937-1.300781.789062-2.964843.910156-4.511718l2.84375 6.535156 8.660156 7.789062s18.042969-26.363281-8-47.273437c-17.652344-14.171875-48.949219-6.175781-55.359375 16.441406l15.394531 1.148438.453125.960937 3.21875 1.261719c-9.542969 12.457031-12.578125 27.75-12.578125 27.75l7.769532-8.164063 2.121093-4.007812-8.140625 27.917969 29.574219-16.734375c.101563-.050782 3.75-1.886719 8.410156.699218l.046875.027344 19.941406 8.195313-15.347656-16.660157c.074219-.671874.0625-1.210937.082032-1.375" fill="#fff"/><path d="m125.957812 8.022498h-.014062zm0 0 11.573438 36.293629 20.221875-31.192286s-12.304688-4.403114-31.795313-5.101343zm-6.384375.213744c-4.570312.028499-15.440625.555733-29.601562 4.21787l21.459375 31.491527 10.4625-35.680898s-.801563-.042749-2.320313-.028499zm-32.428125 5.386334s-12.670312 3.20615-29.235937 13.494333l29.854687 23.668519zm72.759375.256492.829688 38.074824 28.223437-24.210003s-10.560937-7.694762-29.053125-13.864821zm-104.34375 14.905039s-11.25 6.668794-24.24375 21.203345l35.325 14.292309zm136.476563 1.211213-10.673438 36.56437 34.2-14.5488s-7.748437-10.544675-23.526562-22.01557zm-163.771875 24.380997s-8.648438 9.803697-16.523438 27.644146l38.010938 2.693167zm189.5625.584232h.014062zm.014062 0-20.967187 31.819267 36.984375-3.861631s-4.303125-12.354368-16.017188-27.957636zm-93.051562 7.409771c-23.723438 0-44.71875 11.599142-57.670313 29.425341 4.21875 1.667198 12.023438 4.759353 12.023438 4.759353-3.389063 3.134903-6.567188 6.79704-9.182812 10.615922 0 0-23.850001 36.835112-34.298438 73.385233l12.585937-13.380336s10.659375-27.473152 28.40625-32.845236h38.179688s-10.040625 12.553862-47.30625 15.061785l-27.829688 96.697513 95.189063-56.157515s15.764062-8.592485 35.465625 2.493673l51.75 24.210002-43.396875-45.484595s-14.79375-11.684639-21.417188-14.406305l10.476563 20.861355s-7.425-5.600077-19.729688-4.246368c-.126562.014249-.28125.042748-.534375.071247-3.670312.441737-7.7625 1.524703-12.220312 3.533891l-69.975 38.188821-.478125.256492 12.698437-58.465944s21.796875-2.59342 38.657813-13.408836c1.842187-1.196963 3.614062-2.479424 5.301562-3.861631 4.359375-3.576639 8.085938-7.837258 10.589063-12.9386h-39.164063s-19.715625-.840724-22.921875 2.479423c0 0 11.1375-37.191351 53.971875-37.191351 0 0 2.067188-.028499 5.301563.398988 12.332812 1.681448 41.5125 10.131437 36.590625 52.851617l-12.965625-1.980689s-2.798438-.113996-3.76875 2.27993c0 0 13.725 2.721666 30.571875 16.344245 1.926562-5.215339 3.403125-13.323338 3.403125-19.792639 0-34.227442-27.745313-61.957086-61.959375-61.957086-14.104688 0-27.1125 4.716604-37.532813 12.667859 11.334375-10.900914 26.732813-17.598207 43.678125-17.598207 34.832813 0 63.070313 28.242628 63.070313 63.082802l4.134375 10.003191c.998437-4.759353 1.51875-9.675451 1.51875-14.734045 0-39.328785-31.879688-71.2193-71.2125-71.2193zm110.278125 23.782515-29.039063 24.651739 36.576563 6.668794s-.675-13.066847-7.5375-31.320533zm7.93125 36.550121-35.409375 14.035817 32.5125 18.039942s3.54375-12.582361 2.896875-32.075759zm-3.895313 36.379127-37.96875 3.149152 25.860938 26.703675s7.059375-11.00066 12.107812-29.838578zm0 0" fill="#0055a2" stroke="#0055a2" transform="matrix(.277778 0 0 .274131 0 .000001)"/><path d="m123.960937 92.023654c-42.834375 0-53.971875 37.191351-53.971875 37.191351 3.20625-3.320147 22.921875-2.479423 22.921875-2.479423h21.515625c-5.554687-7.880007-14.7375-26.461433 14.821875-34.298691-3.220312-.441736-5.2875-.413237-5.2875-.413237zm-2.503125 47.679027c-1.673437 1.367958-3.445312 2.636169-5.273437 3.818882-3.065625 9.675451-13.907813 34.526684-50.878125 71.618288l69.975-38.174571c4.457812-2.009188 8.55-3.092154 12.234375-3.54814.253125-.028499.379687-.056998.50625-.071248-8.676563-6.540548-18.379688-16.985475-26.564063-33.643211zm0 0" fill="#ffce00" stroke="#ffcd00" transform="matrix(.277778 0 0 .274131 0 .000001)"/><path d="m116.184375 143.535736c-16.846875 10.815416-38.657813 13.423086-38.657813 13.423086l-12.698437 58.451694.478125-.256492c36.970312-37.105854 47.8125-61.957086 50.878125-71.618288zm84.65625-4.331866c-.421875 5.82807-1.504688 11.470896-3.164063 16.871479l22.55625-3.106404zm-2.109375-24.323998c1.420312 5.642825 2.207812 11.556393 2.30625 17.626705l20.798437-10.630172zm-69.482813-22.457307c-29.559375 7.837258-20.390625 26.418684-14.821875 34.31294h17.648438c-2.517188 5.115592-6.257813 9.39046-10.617188 12.9671 8.170313 16.657735 17.8875 27.116912 26.564063 33.65746 12.304687-1.353708 19.74375 4.260619 19.74375 4.260619l-10.476563-20.875606c6.623438 2.735916 21.403125 14.406305 21.403125 14.406305l.984375-9.233714c-16.832812-13.60833-30.557812-16.358495-30.557812-16.358495.970312-2.379677 3.76875-2.26568 3.76875-2.26568l12.951562 1.994938c4.95-42.73443-24.24375-51.198668-36.576562-52.865867zm84.234375-.527233-24.370312.740977c3.20625 5.030094 5.835937 10.444927 7.804687 16.1875zm-160.720312-22.6853 9.548437 20.661862c3.31875-4.730854 7.171875-9.07697 11.460938-12.9386zm145.532812-.598481-23.217187 7.666263c4.528125 3.961378 8.578125 8.478488 12.051562 13.394586zm-125.592187-16.928477 4.035937 22.713798c4.429688-3.605139 9.267188-6.711543 14.442188-9.262214zm104.146875-1.225463-19.96875 13.95032c5.484375 2.550671 10.617187 5.728323 15.3 9.447458zm-79.734375-10.216934-2.404688 23.269531c5.273438-2.26568 10.85625-3.961377 16.664063-4.987346zm55.490625-.598481-15.342188 18.723921c6.01875.98322 11.8125 2.678917 17.26875 5.001596l-1.9125-23.725517zm-27.7875-3.804633-9.16875 22.044069c2.995312-.356239 6.046875-.541483 9.140625-.541483 2.896875 0 5.751562.170995 8.578125.484485zm0 0" fill="#ffb819" stroke="#ffb819" transform="matrix(.277778 0 0 .274131 0 .000022)"/><path d="m118.223437 10.330927-10.420312 7.666263 3.360937 18.709672zm35.409375 3.704886-12.164062 4.388864-2.123438 18.880667zm-69.384375 2.636168-7.65 10.430678 8.775 16.857229zm100.490625 10.801167-12.895312.755226-7.36875 17.526959zm-131.090625 5.072843-4.401562 12.154875 13.176562 13.708076zm145.4625 14.748294-12.332812 14.491803 24.8625-11.3284zm-74.320312 10.04594c-3.09375 0-6.145313.185244-9.126563.541483-1.448437.170995-2.86875.384739-4.289062.641231-5.821875 1.025968-11.390625 2.721666-16.664063 4.987346-1.195312.512984-2.376562 1.054467-3.54375 1.624449-5.160937 2.550672-9.998437 5.657076-14.428125 9.247965-1.0125.826474-1.996875 1.681448-2.967187 2.550671-4.289063 3.87588-8.142188 8.207746-11.460938 12.9386v.01425c1.701563.698228 3.684375 1.439205 4.809375 1.909441 12.951563-17.826199 33.960938-29.425341 57.670313-29.425341 39.332812 0 71.2125 31.890515 71.2125 71.2193 0 5.058594-.520313 9.974692-1.51875 14.734045l3.192187 7.75176c1.659375-5.400583 2.728125-11.043408 3.15-16.871478.140625-1.852443.210938-3.719136.210938-5.614327 0-.370489-.014063-.726728-.014063-1.082967-.084375-6.070312-.857812-11.96963-2.30625-17.626705-.50625-2.051937-1.110937-4.075374-1.785937-6.056063-1.96875-5.728323-4.598438-11.157405-7.804688-16.1875-.646875-.997469-1.307812-1.994938-1.982812-2.963909-3.4875-4.916098-7.5375-9.433208-12.065625-13.394586-.942188-.840724-1.9125-1.638699-2.882813-2.422425-4.696875-3.719135-9.829687-6.896787-15.314062-9.447458-.7875-.356239-1.560938-.712478-2.348438-1.054468-5.45625-2.308428-11.235937-4.004126-17.26875-4.987346-1.29375-.227992-2.5875-.398987-3.895312-.541483-2.8125-.32774-5.667188-.484485-8.578125-.484485zm-97.185938 1.196963-.435937 12.924351 16.748437 8.977223zm191.910938 15.033286-16.03125 10.231184 27.070312-3.519641zm11.925 30.907295-18.253125 5.329336 26.985937 4.217869zm-16.734375 33.600462 24.201562 12.653609-5.203125-11.841384zm-7.157813 27.487401 19.476563 19.151409-1.546875-12.853103zm0 0" fill="#4d90cd" stroke="#4d8fcd" transform="matrix(.277778 0 0 .274131 0 .000001)"/></svg>