<svg height="49pt" viewBox="0 0 70 49" width="70pt" xmlns="http://www.w3.org/2000/svg"><path d="m19.578125.449219.664063 9.398437-12.121094-.007812 2.582031 11.085937c-.351563.042969-.660156.132813-.921875.269531-.398438-.203124-.886719-.3125-1.414062-.3125-.59375 0-1.160157.136719-1.605469.386719-.039063-.003906-.210938-.054687-.210938-.054687-1.074219-.242188-3.28125-.15625-3.378906-.15625h-.007813c-.808593.003906-1.71875.007812-2.308593.636718-.8203128.867188-.402344 2.480469-.335938 2.710938.195313.675781.65625 2.09375 1.898438 2.144531.039062 0 .183593-.003906.191406-.003906.046875-.003906 1.167969-.09375 2.09375-.09375.460937 0 1.054687.082031 1.191406.082031.21875 0 .507813-.039062.820313-.1875.464844.230469.9375.261719 1.121094.265625h3.050781l-2.765625 12.320313 12.492187-.011719-.960937 8.636719-.109375.988281-.015625.136719h24.320312l-.007812-.132813-.058594-.945312-.699219-10.082031c1.328125-.402344 2.566407-.890626 3.695313-1.457032 2.074218-1.042968 3.769531-2.347656 5.039062-3.871094 1.355469-1.632812 2.21875-3.515624 2.570313-5.597656l.796875.003906 1.433594 1.203126 2.296874.339843.671876-.3125.605468.242188 2.921875-.722657.496094-.339843.492187.023437s1.925782-.941406 2.402344-1.203125c.410156-.222656.996094-.546875 1.441406-.820312.226563-.140625 1.625-.832031 1.574219-1.308594-.027343-.445313-1.421875-1.054687-1.664062-1.191406-.371094-.207031-.882813-.472657-1.519531-.789063-1.074219-.535156-2.164063-1.042968-2.175782-1.046875-.117187-.058593-.695312.019531-.695312.019531l-.441406-.367187-2.921876-.699219-.660156.292969-.605468-.242187-2.402344.402343-1.136719 1.265625-1.113281-.011718c-.464844-1.800782-1.363282-3.449219-2.671875-4.902344-1.328125-1.476563-3.066407-2.746094-5.171875-3.773438-1.148438-.5625-2.394532-1.042968-3.722656-1.441406l1.171874-10.769531zm10.90625 6.984375h3.855469v2.445312c-.40625-.015625-.816406-.023437-1.226563-.023437l-2.628906-.003907zm2.457031 8.929687c.339844 0 .664063.003907.980469.011719l-2.515625 2.589844h10.367188l.070312-.648438c.671875.492188 1.207031 1.074219 1.617188 1.773438.660156 1.125 1 2.570312 1 4.289062 0 1.003906-.117188 1.925782-.351563 2.742188-.214844.746094-.535156 1.421875-.945313 2.011718-.183593.265626-.386718.511719-.609374.746094l-.667969-9.640625-11.402344.003907v-3.875c.777344 0 2.316406-.003907 2.457031-.003907zm-12.238281.035157.820313 11.644531h13.167968v4.726562c-1.292968.105469-2.621094.132813-3.929687.132813h-1.078125l3.117187-2.429688h-11.246093l-.269532 2.429688h-2.042968l.820312-8.4375c.003906-.058594.003906-.121094 0-.175782l-.8125-7.886718s1.191406-.003906 1.453125-.003906zm13.988281 22.480468v2.722656h-5.773437v-2.6875l4.195312-.003906c.53125 0 1.058594-.011718 1.578125-.03125zm0 0" fill="#fff"/><path d="m20.652344 1.460938.539062 8.394531 8.289063-.003907v-3.429687h5.863281l.003906 9.933594-1.550781 1.597656h7.078125l1.792969-16.492187zm8.828125 14.9375-7.800781.003906.773437 10.617187v.011719h13.246094v5.632812c1.5-.179687 2.929687-.492187 4.203125-1.023437.652344-.277344 1.230468-.597656 1.738281-.964844l-.6875-9.417969-11.472656-.003906zm-7.027344 15.085937-1.800781 16.1875h22.125l-.644532-9.824219c-2.078124.523438-4.265624.839844-6.433593.976563v3.789062h-7.785157l-.003906-9.609375 1.949219-1.519531zm0 0" fill="#c41230"/><path d="m63.789062 21.484375-.71875.734375-.128906-.042969-.128906-.980469-2.710938-.671874-.589843 1.078124-.179688-.011718-.496093-1.015625-1.929688.3125-1.222656 1.332031-2.214844.007812c-.992188-5.171874-5.535156-8.433593-10.945312-10.105468l-.566407 5.183594c2.03125 1.296874 3.398438 3.464843 3.398438 7.070312 0 9.003906-8.753907 9.421875-14.59375 9.421875h-1.84375v4.214844h4.199219c9.417968 0 19.144531-3.421875 20.417968-11.734375 0 0 .039063-.242188.082032-.582032l1.941406.011719 1.300781 1.234375 2.054687.304688.425782-1.023438.152344-.023437.699218.976562 2.703125-.695312.078125-1.015625.167969-.054688.753906.75c.203125-.050781 4.226563-2.136718 4.210938-2.390625-.015625-.277343-4.316407-2.285156-4.316407-2.285156zm-44.613281 2.890625-.914062-8.871094 16.078125-.007812v-4.757813l-25.105469.007813 2.597656 11.089844c-.226562-.023438-.441406-.042969-.632812-.042969-.628907 0-1.226563.292969-1.367188.457031-.019531.019531-.089843-.011719-.1875-.078125-.285156-.25-.75-.394531-1.277343-.394531-.476563 0-.933594.117187-1.253907.324218-.121093.042969-.234375.0625-.347656.0625-.144531 0-.464844-.089843-.464844-.089843h-.003906c-.175781-.054688-.378906-.117188-.609375-.117188 0 0-.464844-.007812-.707031-.015625 0 0-1.269531-.011718-1.414063.003906-.082031.007813-1.644531-.066406-2.066406.367188-.203125.207031-.285156.546875-.257812 1.027344.019531.320312.082031.640625.132812.816406.347656 1.203125.785156 1.480469 1.09375 1.496094.15625.027344 1.296875-.070313 2.234375-.097656.4375-.011719.769531.019531.976563.054687.050781.011719.121093.027344.214843.027344.203125 0 .507813-.070313.832031-.394531l.011719.003906c.34375.4375.984375.46875 1.113281.46875h1.234376c.921874 0 2.070312 0 2.917968-.003906l-2.769531 12.300781h11.480469l.472656-4.214844h-2.925781z"/></svg>