<svg height="36pt" viewBox="0 0 69 36" width="69pt" xmlns="http://www.w3.org/2000/svg"><path d="m43.644531 22.90625c-.371093.566406-1.1875 1.804688-1.335937 2.089844-.148438.28125-.433594.722656.386718.816406.816407.09375 1.917969.242188 2.359376.160156.492187-.09375.847656-.308594.511718-.9375-.25-.460937-1.183594-1.90625-1.320312-2.085937-.132813-.179688-.339844-.441407-.601563-.042969m-6.402343.625c.101562.558594.664062.617188 1.210937.621094.71875-.945313 1.089844-1.808594 1.285156-2.390625-.105469-.238281-.304687-.878907-.429687-1.210938s-.484375-.1875-.851563-.121093c-2.554687.449218-5.238281-1.40625-7.433593-1.773438-.800782-.132812-.628907.339844-.527344.859375.105468.523437.773437 3.0625 1.320312 4.371094.433594 1.046875 1.332032 1.414062 2.378906 1.601562 1.296876.226563 1.605469 1.070313 2.269532 1.40625.273437-.1875.605468-.566406.714844-.839843-.132813-.433594-.527344-.453126-1.015626-.625-.851562-.296876-1.054687-.660157-1.4375-.9375-1.171874-.851563-.898437-1.523438-.261718-1.472657.640625.054688 1.808594.050781 2.183594-.003906.304687-.046875.496093-.042969.59375.515625m31.277343-7.960938c.242188.351563.148438.417969.167969.796876.027344.515624-.539062.605468-.90625 1.382812-.199219.425781-.347656.664062-.816406.804688-.46875.140624-1.648438-.152344-2.132813-.679688-.488281-.53125-.113281-1.210938-.347656-1.632812-.535156-.976563-1.476563-1.34375-1.878906-1.710938-.40625-.363281-.863281-.5-1.433594-.644531-1.589844-.402344-1.796875-1.25-2.367187-2.0625-.570313-.808594-.914063-.667969-1.113282-.617188-2.472656.613281-5.398437 1.746094-6.75 2.585938-2.28125 1.417969-3.230468 3.039062-3.679687 5.582031 1.113281 1.824219.636719 2.394531.601562 3.121094-.097656 1.9375.652344 2.902344.824219 3.390625.171875.484375.15625.710937-.085938.984375-.242187.273437-.5625.792968-.949218 1.152344-.382813.359374-.753906.195312-1.128906.097656-1.957032-.503906-3.550782-.714844-5.46875-.796875-1.296876-.058594-2.480469 1.234375-2.808594 1.59375-.328125.363281.164062.585937.429687.765625.746094.5 1.054688 1.105468 1.695313 1.394531s1.214844.476563 1.542968 1.148437c.230469.484376-.074218.890626-.3125 1.089844.308594.175782 1.015626.738282 1.34375 1.042969.328126.300781.398438.929687-.054687 1.074219-.449219.144531-1.238281.363281-1.695313.417968-.5625.070313-.625-.308593-.738281-.476562-.5-.726562-1.5625-1.855469-2.496093-2.082031-1.660157-.410157-1.742188-1.292969-2.820313-2.269531-.621094-.566407-.710937-.09375-1.480469.527343-1.472656 1.199219-1.53125.238281-2.84375 1.058594-2.171875 1.351563-2.246094.511719-2.132812.15625.109375-.351563.382812-.890625.898437-1.964844.582031-1.214843 1.484375-.175781 2.242188-.863281.585937-.53125 1.023437-1.265625 1.023437-1.265625-1.0625-1.128906-1.332031-.554687-3.414062-.648437-1.941406-.089844-2.035156-.769532-2.480469-2.140626-1.144531-3.53125-3.074219-4.363281-5.808594-6.191406-2.285156-1.527344-1.304687-2.300781-2.6875-3.648437-.707031-.691407-.714843-1.132813-.863281-1.882813-.144531-.75-.261719-.75-.921875-.847656-.664063-.101562-3.214844-.367188-4.527344-1.523438-1.414062-1.242187-1.441406-.746093-3.101562-.664062-5.398438.261719-8.699219-3.550781-8.796875-5.535156-.054688-1.078125.5-1.316406 1.058594-.78125.5625.535156 2.210937 1.777344 4.707031 2.046875 3.355469.367187 4.554687-.539063 5.589843-.351563 2.035157.371094 1.9375 1.277344 3.078126 3.035156.65625 1.015626 4.671874-.730468 5.222656-1.015624 2.542968-1.316407 5.394531-3.042969 10.144531-2.292969 5.507813.867187 9.609375-.128907 11.703125-.886719 1.609375-.585938.808594-.710938.433594-.992188-.375-.277343-1.53125-1.125-1.289063-1.628906.355469-.757812 4.488281 1.511719 5.132813.707032.304687-.382813-2.832032-1.953126-2.089844-2.871094.738281-.910156 1.738281.960937 4.285156 1.675781 1.449219.410156 1.953125.589844 2.144532.351563.378906-.476563-.375-.820313.007812-1.164063.503906-.457031 1.894531.585937 3.105469 1.132813 1.28125.574218-.082031-1.546876 2.160156.007812 1.65625 1.148438 2.78125 1.300781 4.011719 1.3125.804687.007812.507812-.261719.621094-.851562.113281-.585938.441406-2.285157.859374-2.5625.832032-.5507818.960938 1.328124 1.21875 2.699218.253907 1.367188.832032 2.339844 2.328126 3.6875 1.152343 1.035156 1.007812 1.742188 1.3125 2.769532.519531 1.75 1.023437 3.785156 2.527343 5.957031" fill="#cc0035"/></svg>