<svg height="56pt" viewBox="0 0 69 56" width="69pt" xmlns="http://www.w3.org/2000/svg"><g fill-rule="evenodd"><path d="m28.179688 36.367188c.300781-.203126 2.53125-1.660157 2.558593-1.714844l9.0625-15.230469c3.378907.089844 12.519531-.019531 15.195313-1.605469-.445313-.925781-.996094-1.796875-1.320313-2.777344-2.355469-7.042968 5.195313-11.175781 9.914063-14.472656l-1.753906 6.914063c-.230469.910156-.132813 1.726562.402343 2.5 2.175781 3.140625 6.800781 3.824219 6.132813 9.609375-1.097656 9.59375-11.691406 12.246094-19.691406 12.6875-2.136719 3.589844-3.347657 6.421875-7.308594 8.347656l-3.121094 5.527344c.121094 1.015625.167969 1.792968-.339844 2.730468-1.019531 1.886719-7.660156 5.410157-9.777344 6.671876l-19.429687-.199219c-1.429687-2.265625-5.816406-8.234375-3.738281-10.800781.34375-.425782 1.871094-1.613282 1.949218-1.738282l3.464844-5.558594c-1.210937-2.65625-1.320312-3.390624.320313-5.851562-7.949219-1.246094-13.183594-5.398438-8.820313-13.855469 3.371094-6.539062 12.171875-6.550781 14.363282-12.171875l1.953124-5.035156 2.734376 4.652344c3.449218 5.890625-.664063 9.273437-4.699219 12.941406 4.367187 1.242188 13.164062 1.085938 17.972656 1.007812l-11.027344 16.742188c.265625.617188.523438 1.242188.757813 1.875-1.03125 1.882812-2.066406 3.761719-3.128906 5.625l3.460937.078125c1.277344-2.3125 2.507813-4.65625 3.742187-6.992187l.167969.089843" fill="#cfc493"/><path d="m11.59375 36.394531c-.253906-.558593-.542969-1.234375-.59375-1.484375-.082031-.425781-.128906-1.089844.261719-1.679687l1.988281-3.007813c-10.597656-.84375-13.628906-5.503906-10.089844-11.964844.933594-1.707031 2.226563-2.925781 3.628906-3.898437.683594-.476563 1.410157-.902344 2.152344-1.308594.714844-.386719 1.445313-.757812 2.171875-1.132812 2.875-1.492188 5.296875-2.941407 6.484375-5.996094l.867188-2.238281 1.214844 2.066406c2.195312 3.734375.273437 6.757812-1.734376 8.785156-.5.503906-1.027343.976563-1.542968 1.417969-.496094.417969-.976563.804687-1.398438 1.167969-.421875.355468-.738281.644531-.953125.882812-.074219.085938-.128906.152344-.160156.199219 0 .136719.09375.304687.394531.507813.335938.21875.855469.425781 1.527344.609374 1.347656.371094 3.195312.625 5.085938.800782 3.804687.351562 7.789062.386718 8.339843.378906l2.214844-.035156-9.949219 15.109375.414063.832031c.121093.25.242187.5.335937.695312l.113282.246094c.058593.140625.0625.242188.058593.261719l-.285156-.035156s.300781.0625.199219.234375l-.140625.234375-.492188.832031-1.5 2.511719-1.921875 3.222656c1.449219.03125 5.621094.132813 6.828125.152344.558594-1.050781 3.703125-6.976563 3.707031-7.015625l.015626-.148438.128906-.074218c.070312-.042969 2.433594-1.558594 2.882812-1.855469l8.765625-14.75.675781.015625c.230469.007812 3.726563.050781 7.363282-.285156 3.738281-.347657 7.316406-1.085938 8.03125-2.441407.007812-.074219 0-.109375-.019532-.160156-.0625-.179687-.152343-.429687-.324218-.765625-.191406-.363281-.414063-.757812-.628906-1.179688-.242188-.476562-.476563-.984374-.65625-1.527343-.824219-2.476563-.421876-5.40625 3.519531-8.664063l2.636719-1.875-.78125 3.082032c-.695313 2.785156.53125 3.980468 2.351562 5.421874.488281.382813.980469.761719 1.449219 1.160157.484375.410156.972656.875 1.398437 1.410156.882813 1.117187 1.453125 2.507813 1.296875 4.347656-.523437 6.273438-6.980469 10.917969-19.082031 11.386719l-3.28125 5.402344c-.636719 1.054687-2.839844 2.648437-4.21875 3.238281l-3.585938 6.347656c.027344.296875.113282 1.199219.128907 1.417969.019531.394531-.125.707031-.226563.882812-.109375.191407-.246094.359376-.375.496094-.253906.273438-.589844.554688-.941406.820313-.355469.273437-2.253906 1.425781-4.03125 2.496093-1.792969 1.078126-3.566406 2.132813-3.566406 2.132813l-18.238282-.183594s-.761718-1.210937-1.507812-2.472656c-.742188-1.25-1.570312-2.722656-1.847656-3.5-.074219-.207031-.148438-.410156-.210938-.605469-.066406-.207031-.117187-.410156-.144531-.609375-.054687-.414062 0-.835937.300781-1.222656.128906-.160156.617188-.589844 1.050782-.964844.402343-.34375.800781-.675781.945312-.789062l3.941406-6.367188c-.09375-.195312-.265625-.570312-.445312-.964843" fill="#fff"/><path d="m18.679688 6.351562c3.53125 6.011719-5.6875 9.6875-5.976563 11.691407-.566406 3.910156 16.554687 3.636719 16.554687 3.636719l-9.101562 13.8125s.945312 2.15625 1.003906 2.152343c.042969 0-4.863281 7.957031-4.921875 8.105469l9.535157.203125c.105468-.046875 3.898437-7.527344 3.964843-7.515625.027344.003906 2.972657-1.933594 2.972657-1.933594l8.550781-14.390625s14.574219.363281 16.472656-3.546875c.976563-2.003906-5.707031-5.726562 1.566406-11.738281-1.75 7.015625 6.96875 6.511719 6.464844 12.527344-.449219 5.394531-6.183594 10-18.585937 10.332031l-3.609376 5.941406c-.53125.882813-2.945312 2.597656-4.023437 2.894532l-3.953125 6.992187c-.058594.097656.097656 1.320313.128906 1.804687.058594 1.035157-6.890625 4.710938-8.292968 5.578126l-17.257813-.175782c-.640625-1.105468-3.644531-5.449218-3.085937-6.542968.296874-.578126 2.082031-1.71875 1.984374-1.765626l4.277344-6.953124c-.234375-.777344-1.660156-2.757813-1.117187-3.578126l3.125-4.730468c-12.101563-.386719-14.21875-4.769532-11.179688-10.324219 3.292969-6.015625 11.785157-5.464844 14.507813-12.476563" fill="#006747"/></g></svg>