<svg height="76pt" viewBox="0 0 70 76" width="70pt" xmlns="http://www.w3.org/2000/svg"><path d="m46.617188 22.199219c-.183594.59375-.195313 1.15625-.117188 1.691406.074219.722656.617188 1.113281.617188 1.113281.222656-.625.625-.648437.765624-1.273437.164063-1.023438-.214843-1.117188-.222656-1.691407-.011718-.574218.105469-1.253906.105469-1.253906s-.96875.820313-1.148437 1.414063"/><path d="m30.078125 23.316406c-.214844.78125.097656 1.515625.460937 1.882813.355469.371093 1.34375.867187 1.34375.867187s-.699218-.695312-.683593-1.699218c.011719-.75 1.058593-1.148438.8125-2.167969-.242188-1.019531-.972657-1.542969-.972657-1.542969s.242188.59375.128907 1.078125c-.203125.589844-.875.804687-1.089844 1.582031"/><path d="m42.316406 27.5625c-1.695312-3.59375-2.0625-1.0625 0 0m-25.066406 9.050781-.011719.09375m10.378907-6.289062c.171874-2.328125-.011719-3.988281-.847657-5.765625-.601562-1.449219-1.710937-2.828125-3.1875-3.597656-.207031-.113282-.445312-.203126-.644531-.355469-.203125-.808594-.566406-1.601563-1.253906-2.1875-.679688-.566407-1.507813-.867188-2.386719-.910157-2.5.164063-4.371094 1.457032-5.878906 3.027344l-.136719.042969c-1.074219.136719-2.058594.503906-2.9375 1.109375-2.183594 1.96875-4.605469 3.640625-7.339844 4.492188-.023437.035156-.023437.113281 0 .144531 1.019532.785156 2.578125.761719 3.789063.394531 1.617187-.640625 2.496093-.957031 3.929687-2.0625.28125-.191406.558594-.582031.636719-.523438-.300781.523438-.832031 1.5-1.007813 2.441407-.175781.945312-1.164062 1.679687-2.347656 2.464843.160156.171876.582032-.070312.722656-.105468.140626-.035156.921876-.277344 1.746094-.785156.832032-.503907 1.058594-.773438 1.632813-1.296876 1.371093-1.425781 2.394531-3.171874 2.960937-4.1875 1.445313-.148437 4.078125-1.117187 4.917969-.597656l.234375.128906c-.171875.277344-.460938.875-.460938.875l-.675781 1.542969s-1.308593-.160156-1.925781-.425781c-1.34375-.566406-1.675781-1.214844-1.675781-1.214844s-.101563.875.015625 1.273438c.113281.394531.558594.960937.917968 1.214844.355469.257812 1.71875.980468 1.800782 1.277343-.105469.277344-1.167969 4.046875-1.5625 5.996094-.011719.054687-.046875.1875-.136719.132813-.824219-1.042969-1.636719-1.847657-3.121094-2.082032-1.484375-.230468-3.054687.839844-4.117187 2.160156-.859375 1.039063-1.300782 2.53125-1.308594 2.867188-.066406 1.660156-1.613281 1.976562-1.613281 1.976562-.945313.058594-1.546875-.695312-1.546875-.695312s-.3125 1.660156 1.203125 2.226562c.363281.105469 1.230469-.039062 1.804687-1.082031.285156-.65625.320313-1.320312.410156-1.832031.085938-.507812.3125-.964844.632813-1.449219.839844-1.0625 2.09375-1.601562 3.460937-1.355469 1.777344.382813 2.953126 1.980469 4.128907 3.242188.042969.035156.078125.128906.007812.15625-.429687-.042969-.847656-.144531-1.308593-.144531-1.46875-.03125-2.714844.503906-3.855469 1.253906-1.71875 1.039063-2.746094 2.875-2.964844 4.792969.027344.058594-.007813.214844.105469.171875.890625-1.949219 2.90625-3.265625 5.074218-3.296875 1.527344-.078125 2.847657.546875 4.125 1.152344.046876.042968.054688.097656 0 .140624-1.230468.347657-2.480468.699219-3.445312 1.65625-.964844.953126-1.269531 2.242188-1.300781 3.597657.042969.132812-.054688.394531.125.4375.8125-1.707031 2.566406-3.132813 4.496093-3.273438.25.019531.578126-.058593.78125.109375l-.023437.046875c-1.085937.679688-2.167969 1.78125-2.679687 2.734375-.507813.960938-1.195313 1.234375-1.160157 1.265625 1.25.199219 1.671875.160157 2.84375-.261719.488281-.199218 1.320313-1.195312 1.894531-1.304687.136719.023437.945313-.226563 1.402344-.027344.316406.25-.859375 1.5-1.089844 1.445313-2.089843-.03125-2.40625.394531-2.976562 1.214844-.574219.824218-1.21875 1.648437-2.269531 1.984374-.234375.125-.507813.167969-.734375.304688-.007813.085938 2.179687.054688 3.039062-.316406.78125-.253906 1.347656-.984375 2.148438-1.128906 0 0 .191406.828124-1.242188 2.046874.039063.078126 1.546875-.191406 2.179688-.765624 4.910156-3.441407 1.546875-.886719.660156 1.441406-.105469.757812-.722656 2.425781-.640625 2.53125.082031.101562 1.339844-1.003906 2.0625-1.367188.71875-.367187.535156-2.117187.8125-2.566406 1.226563-1.316406 1.203125.261719.667969 1.351562.929687-.46875 2.101562-1.898437 1.320312.5625-.367187 1.019532-.820312 1.691407-.820312 1.691407s1.152344-.589844 1.9375-1.714844c.78125-1.117187.988281-1.75 1.046875-2.09375.277343.367187.160156.335937.394531.976563.265625.734374.183594 1.410156.183594 1.410156s.457031-.308594.703125-1.183594c.199219-.703125.160156-.800781.136719-.808594.902343-.042968.675781 1.527344.675781 1.527344s.660156.050781.742187-.90625c-.054687-.339844 3.742188-.253906 4.574219.804688.832031 1.066406 1.058594 1.050781 1.5 1.277343.445313.226563 1.261719.1875 1.972656.363281.664063.105469 1.929688.667969 2.414063.984376.675781.785156-1.09375 3.566406-1.828125 4.5-.015625.023437-.035157.046874-.050781.0625.050781-.027344.105468-.050782.15625-.082032 1.164062-.628906 2.785156-1.980468 2.980468-4.28125.011719-.121094.746094-.089844.863282.054688.464843.421875.554687 1.484375.886718 2.125.332032.636718 1.890625 1.144531 2.640625.648437 0 0 .683594-.363281.496094-.828125-.300781.195313-.488281.222656-.859375.257813-.371094.03125-.5-.089844-.800781-.277344s-.347657-.242187-.542969-.59375c-.199219-.355469-.191406-1.21875.066406-1.472656.261719-.257813.933594-.457031 1.621094-.371094s.652344.574219.652344.574219.199218.722656-.402344.929687c.46875.28125.929688-.035156.929688-.035156s.183593.246094-.046876 1.039063c.789063.019531.988282-.804688.988282-.804688s.1875.070312.210937.152344c.175781-.070313.160157-.382813.160157-.382813s.15625-.039062.230468.117188c.328125.097656-.074218-2.3125-.203125-2.578125-.125-.269532-2.261719-1.859375-2.648437-1.855469-.386719.003906-.929688.363281-1.519532.636719-.585937.269531-1.304687.933594-2.117187.765625-.488281-.414063-1.652344-.238281-1.652344-.238281l-.890625-.226563s-.800781-.347656-.824218-.488281c-.019532-.144532.164062-.488282.289062-.957032.125-.472656.082031-.738281.265625-.878906.1875-.140625.660156-.121094 1.015625-.328125.816406-.726562 1.148438-.683593 1.796875-.199219.621094.464844 2.820313 1.179688 3.917969 1.308594 1.101562.128906 2.40625.128906 2.785156.109375.378906-.023437-.28125-.550781-.339844-.660156 0 0 2.402344.660156 4.007813.769531 1.605469.117188 4.582031-.054687 5.339843-.789062 0 0-.507812-.144532-.714843-.3125l.035156-.03125c.804687-.203125 4.9375.511718 4.273437-1.328125-.167968-.199219-.371093-.125-.542968-.25.046875-.054688 4.730468-1.097657 3.53125-1.421875-.988282-.082032-4.28125-.703125-5.695313-1.085938-1.410156-.382812-3.289062-.933594-4.238281-1.257812-.109375-.042969-.273438-1.621094-.105469-1.539063.285157.382813.492188.644531.925781.898438.835938.226562 2.0625.246093 2.664063.25.605469 0 .789063-.847657 1-1.339844-.089844.109375-.394531.28125-.476563.28125-.570312.140625-1.890624-.046875-2.046874-.105469-.160157-.054687-.535157-.675781-.425782-.992187.109375-.316407.753906-.679688.753906-.679688s.765626-.070312 1.03125 0c.265626.066407.875.433594.964844.601563.085938.164062.308594.523437.289063.828125.335937-.523438.109375-.832031.25-.890625.070312 0 .246093.050781.28125.242187.148437-.078125.066406-.824219.140625-.925781 0 0 .140625.089844.265625.175781.097656-.128906.078125-.839843-.035157-1.105469-.117187-.273437-.816406-.949218-.945312-1.039062-.132812-.082031-.21875-.097656-.21875-.097656s-.011719-.078125.246094-.375c.257812-.296875 1.71875-.550782 2.167968-.871094.257813-.191406-.023437-.167969.28125-.46875.300782-.296875 1.632813-.402344 2.027344-2.085938-3.449218.9375-5.597656 1.238282-8.386718 1.238282-2.792969 0-6.621094-.339844-7.324219-.796875-.261719-.207031-.371094-.636719-.285157-1.046875.085938-.410156.585938-.699219.902344-.835938.234375-.042968.128906.851563.128906.851563s1.675782-1.105469 2.492188-1.402344 3.394531-.636719 3.394531-.636719c-.773437.933594-.257812 2.015625.375 2.039063.269531.015625 1.402344.355469 2.679688-.921875.269531-.269532.714843-.496094.714843-.496094.488282.113281.816407.128906.816407.128906l1.070312-.027344c-.726562-.359374-1.167969-.53125-1.183593-.839843.03125-.03125.699218.269531.789062.085937-.332031-.1875-.503906-.453125-.503906-.453125s.972656-.070312 1.921875.3125c-.589844-.992187-.855469-.953125-1.320313-1.234375-.238281-.132812-.6875-.265625-.886718-.410156-.117188-.113281.03125-.570312-.152344-.882812-.425782-1.066407-.988282-1.535157-1.589844-1.832032s-1.027344-.339844-1.4375-.296875c-.410156.046875-.789062.179688-.863281.53125-.070313.355469.175781.527344.335937.703125.011719.035156-.335937.019532-.675781-.03125-.347656-.054687-1.480469.101563-2.234375-.246094-1.257812-.390624-2.449219-2.972656-2.65625-3.335937.023438.574219-.28125.972656-.28125.972656-.386719.089844-1.320312-1.441406-1.320312-1.441406-.085938.789063.042968 1.722656.042968 1.722656-.976562-.84375-1.203125-2.167969-1.203125-2.167969-.796875.296876-.042969 2.074219-.0625 2.082032-.621093-.917969-.992187-1.148438-1.527343-2.570313-.539063-1.421875-.636719-2.289062-.6875-2.550781 0 0 .324218-.382812.472656-.546875.152344-.160156.628906-.441406.628906-.441406s-.371094-.09375-.683594-.046875c-.320312.054687-.589844.121094-.589844.121094s-.0625-.339844.097657-1.816407c-1 .421875-1.378907 1.851563-1.453125 2.5625-.617188.515625-.941406 1.042969-.941406 1.042969s-.054688-.84375-.582032-1.460938c-.53125-.617187-.882812-.644531-1.234375-1.191406-.351562-.414062-.3125-1.589844-.335937-1.5625-.054688.28125-.320313.640625-.300782 1.171875-.007812.539063.117188.730469.324219 1.445313.203125.714844.140625 1.523437-.34375 2.316406-1.171875 2.179688-.328125-.578125-.316406-1.1875 0-.976562-.183594-1.6875-.917969-2.492188-.234375-.21875-.683594-.742187-.683594-.742187.863282 1.902344-.117187 3.882813-.117187 3.882813s-.285156-1.09375-.859375-1.644532c-.570312-.554687-1.203125-1.019531-1.203125-1.019531.546875 1.46875.183594 3.417969.054687 3.542969-.1875-.171875-.542968-.878906-.984374-1.292969-.445313-.410156-1.066407-.644531-1.066407-.644531s.335938.957031.363281 1.710937c.027344.75-.34375 1.289063-.371093 2.347657-.027344 1.066406 1.890625 3.0625 1.890625 3.0625-1.796875.101562-4.171875-2.449219-4.171875-2.449219.164062 2.203125 2.695312 3.9375 2.695312 3.9375-.464843.125-4.171875-2.285157-4.667969-2.527344.507813 2.179687 2.859376 4.15625 2.859376 4.15625-.578126.246094-2.203126-.414063-2.203126-.414063 1.273438 2.695313 4.101563 2.441407 4.101563 2.441407.003906.40625-3.734375.070312-3.734375.070312 1.113281 1.207031 3.855469 1.410157 3.855469 1.410157-.679688.3125-2.78125.222656-2.78125.222656.339843.492187 1.171875.828125 1.542969 1.144531-.449219.128906-1.480469.90625-2.433594 1.808594-.953125.910156-1.957032 3.707031-3.6875 3.460937-1.113282-.019531-3.09375-2.777344-.402344-7.195312 1.148438-1.925782 1.316406-2.664063 1.492188-4.988282"/><path d="m53.410156 1.703125h-34.796875l-16.8125 15.609375.945313 8.148438.121094-.027344c2.3125-.71875 4.707031-2.199219 7.148437-4.40625.929687-.632813 1.96875-1.046875 3.097656-1.210938.445313-.476562.972657-.941406 1.558594-1.355468l.851563-3.457032 39.078124-.09375.472657 5.964844 13.535156.65625-.1875-5.484375zm0 0"/><path d="m54.792969 61.285156-39.363281-.28125-.757813-9.242187c-.332031-.007813-.648437-.027344-.902344-.054688-.859375-.085937-1.636719-.765625-1.636719-.765625-.003906-.007812 1.164063-.214844 2.070313-.769531.179687-.113281.332031-.21875.46875-.320313v-1.359374c-.15625-.023438-.320313-.050782-.496094-.085938-.460937-.078125-.835937-.382812-.835937-.382812s-.097656.167968-.355469.765624c0 0-.300781-.417968-.496094-.980468-.191406-.5625-.257812-1.460938-.257812-1.460938.046875-1.808594.546875-3.160156 1.53125-4.132812.285156-.285156.589843-.515625.910156-.714844v-.871094c-.328125-.054687-.65625-.082031-1-.0625-1.886719.023438-3.523437.953125-4.601563 2.828125-.601562 1.324219-.902343 2.472657-.902343 2.472657-.058594.003906-.359375-1.457032-.386719-2.9375-.085938-2.046876 1.386719-4.34375 3.222656-5.457032 1.253906-.820312 2.441406-1.257812 3.667969-1.347656v-.207031c-.710937-.730469-1.480469-1.363281-2.394531-1.558594-1.019532-.183594-2.007813.207031-2.691406 1.078125-.269532.414062-.429688.757812-.488282 1.109375-.015625.101563-.03125.214844-.046875.339844-.066406.472656-.148437 1.066406-.414062 1.671875-.808594 1.480468-2.078125 1.710937-2.742188 1.515625-1.742187-.640625-1.898437-2.308594-1.75-3.105469l.316407-1.652344 1.054687 1.316406s.347656.40625.839844.410157c.230469-.070313.910156-.34375.945312-1.234375.011719-.554688.535157-2.191406 1.488281-3.34375 1.425782-1.773438 3.242188-2.6875 4.847657-2.433594.382812.058594.722656.152344 1.035156.269531v-5.226562c-.527344.65625-1.566406 2.050781-1.960937 2.363281-.015626.011719-1.496094 1.050781-2.042969 1.378906-.550781.324219-2.054688.660156-2.460938.707032-.40625.046874-1.160156.027343-1.160156.027343.445313-.484375 1.023437-1.207031 1.023437-1.207031s.710938-.898438 1.453126-1.972656c0 0-.300782.246094-2.339844 1.046875-1.339844.410156-3.144532.488281-4.4375-.421875l-.535156 31.539062 15.867187 16.628906h35.332031l14.917969-14.988281v-5.265625l-13.539063-.09375zm0 0"/><g fill="#fff"><path d="m52.410156 44.402344c-.058594.019531-.289062.15625-.273437.164062-.019531.066406.503906.238282.546875.21875.042968-.023437-.019532-.359375-.035156-.429687-.011719-.066407-.179688.019531-.238282.046875"/><path d="m40.960938 26.472656c.226562 1.027344 1.351562 1.09375 1.351562 1.09375-.503906-.226562-1.167969-1.550781-.964844-2.636718 0 0-.601562.480468-.386718 1.542968"/><path d="m20.910156 29.792969c-.402344-.847657-.523437-.75-.523437-.75s-.679688 1.230469-1.082031 2.59375c-.410157 1.210937-.371094 2.945312-.230469 3.882812.402343 1.640625.375 2.238281 1.351562 3.679688-.0625-1.027344-.546875-3.511719-.203125-5.046875.34375-1.523438 1.320313-3.28125.6875-4.359375"/><path d="m20.0625 19.214844c-.335938-.410156-.921875-.707032-1.183594-.714844-.457031-.035156-1.128906.351562-1.410156.625-.285156.28125-.742188.804688-.671875 1.015625.175781.246094 1.09375.023437 1.90625.035156.785156.011719 1.585937.28125 1.730469.035157.085937-.160157-.035156-.585938-.371094-.996094"/><path d="m24.121094 26.886719c-.226563-.902344-.597656-1.753907-1.0625-2.546875-.066406-.101563-.25-.324219-.351563-.101563-.210937.605469-.574219 1.164063-.855469 1.722657-.070312.113281-.125.257812-.015624.359374.363281.222657 1.238281 1.148438 1.539062 3.042969.300781 1.890625-.128906 3.800781-.128906 3.800781s1.589844-2.742187.875-6.277343"/><path d="m43.105469 52.324219c-.378907.226562-.660157.554687-1.074219.402343-.832031-.335937-1.621094-.238281-1.621094-.238281s-.9375-.121093-1.003906-.316406c-.066406-.191406.089844-.261719.132812-.417969.050782-.199218-.023437-.347656.085938-.457031.113281-.109375.542969-.109375.839844-.28125.253906-.148437.449218-.335937.609375-.492187.054687-.050782-.019531-.019532.328125.234374.449218.335938 1.605468.863282 2.617187 1.078126-.085937.042968-.730469.378906-.914062.488281m4.777343-28.59375c-.144531.625-.546874.648437-.769531 1.273437 0 0-.542969-.394531-.617187-1.117187-.078125-.53125-.066406-1.097657.117187-1.6875.183594-.597657 1.148438-1.414063 1.148438-1.414063s-.117188.679688-.105469 1.253906c.011719.574219.386719.667969.226562 1.691407m-2.101562.121093c.027344.234376.199219.644532.199219.644532l-.132813.125c-.371094-.988282-.597656-1.921875-.667968-2.320313-.015626-.078125.820312-.640625.820312-.640625s-.0625.179688-.070312.195313c-.199219.644531-.246094 1.308593-.148438 1.996093m-13.066406 1.644532c-.199219-.113282-.582032-.6875-.574219-1.230469 0-.074219.605469-.933594.734375-1.253906.058594.25.152344.601562.160156.828125.007813.257812-.269531 1.355468-.320312 1.65625m-.832032.570312s-.988281-.496094-1.347656-.867187c-.359375-.367188-.671875-1.101563-.457031-1.882813.214844-.777344.886719-.992187 1.089844-1.585937.113281-.480469-.128907-1.078125-.128907-1.078125s.730469.527344.972657 1.546875c.246093 1.019531-.800781 1.417969-.816407 2.164062-.015624 1.007813.6875 1.703125.6875 1.703125m-2.046874 5.058594-1.296876-.527344c.003907-.050781.058594-1.199218.066407-1.617187.535156 1.429687 1.230469 2.144531 1.230469 2.144531m.253906 2.566406-1.816406-.167968 1.351562 1.464843c.101562.121094.316406.292969.316406.292969l-.359375-.011719s.636719.859375.917969 1.1875c.28125.332031.550781.542969.863281.769531-.523437.390626-1.078125.867188-1.519531 1.289063-.351562.339844-.671875.828125-1.015625 1.347656-.585937.894531-1.410156 2.007813-2.125 1.902344-.09375-.011719-.421875-.214844-.683594-.75-.304687-.632813-.832031-2.417969.929688-5.304687 1.09375-1.839844 1.371093-2.8125 1.546875-4.738282l.628906 1.300782c.644531 1.148437.964844 1.417968.964844 1.417968m-15.417969 12.015625c.28125-.304687.621094-.59375 1.003906-.792969-.324219.382813-.597656.769532-.800781 1.148438-.0625.125-.132812.226562-.203125.324219-.257813.359375-.523437.574219-.625.640625-.128906.085937-.320313.046875-.34375.066406 0 0 .351563-.726562.96875-1.386719m6.320313 4.484375c.222656-.015625.441406-.058594.640624-.101562-.027343.054687-.054687.101562-.082031.148437-.074219.070313-.777343.476563-.925781.574219.042969-.074219.292969-.507812.367188-.621094m43.585937-3.394531c-.832031-.0625-3.199219-.472656-5.320313-1.128906l-.738281-.226563c.527344-.238281.820313-.746094 1.015625-1.085937.0625-.105469.402344-.71875.449219-.828125.046875-.113282-.320313-.113282-.21875-.234375.085937-.023438.167969-.054688.25-.097657.578125-.300781.304687-.65625.480469-.789062.070312-.054688.128906-.113281.167968-.164062.375-.480469.132813-1.25-.042968-1.664063-.203125-.480469-.640625-.832031-.640625-.832031.109375-.035156.222656-.070313.320312-.097656.511719-.160157.996094-.3125 1.328125-.546876.292969-.214843.410156-.542968.410156-.542968.035157-.019532.074219-.035156.109376-.050782.554687-.25 1.699218-.769531 2.085937-2.402343l.292969-1.253907-1.253906.335938c-3.34375.910156-5.414063 1.183594-8.207032 1.210938-3.160156.039062-6.164062-.425782-6.164062-.425782.445312-.292968 1.738281-1.105468 2.339844-1.320312.535156-.199219 1.480468-.445313 1.96875-.390625-.007813.304687.054687.601562.179687.882812.261719.570313.773437.9375 1.308594.957031.011719 0 1.878906.257813 3.285156-1.148437.132813-.132813.203125-.246094.296875-.226563.375.066407.632812.082032.714844.082032l2.90625-.0625-1.125-.917969 2.121094.863281-1.160157-1.960937c-.542969-.914063-.910156-1.152344-1.375-1.386719-.070312-.039062-.785156-.203125-.78125-.378906.003907-.199219-.042969-.457032-.171875-.703125-.4375-1.070313-1.039062-1.746094-1.953125-2.195313-.65625-.328125-1.234375-.441406-1.871093-.375-1.164063.121094-1.421876.621094-1.597657 1.1875-.417969.003906-.832031.050782-1.53125-.199218-.703125-.246094-2.992187-4.1875-3.027343-4.246094 0 0-.109376.660156-.28125 1.535156-.167969-.21875-.726563-1.066406-.726563-1.066406.171875-.269532.363281-.695313.4375-1.167969.121094-.769531.003906-1.179687-.144531-1.558594-.050782-.136719-.070313-.183593-.070313-.269531-.007812-.492188.460938-3.207031.460938-3.207031s-1.710938 1.449219-2.261719 1.917969c-.4375-.109376-1.382812-.332032-1.703125-.332032l.066406-.839844.144531-1.304687-1.21875.515625c-1.21875.515625-1.679687 1.914062-1.839843 2.691406-.125-.15625-.253907-.332031-.253907-.332031-.300781-.347656-.554687-.542969-.757812-.699219-.175781-.132812-.417969-.421875-.464844-.476562-.03125-.058594-.296875-.921875-.28125-2.109375-.015625-.441407-.0625-1.289063-.0625-1.289063s-1.398437 2.273438-1.421875 2.332032c-.109375.265624-.210937.667968-.210937.667968s-.496094-.585937-.945313-.9375c-.453125-.355468-2.207031-1.445312-2.207031-1.445312l1.234375 2.527344c.433594.804687.304687 1.410156.304687 1.410156-.605468-.585938-1.289062-1.097656-1.316406-1.121094l-2.09375-1.546875.898438 2.425781c.160156.429688.222656.917969.242187 1.371094-.449219-.347656-1.15625-.710938-1.234375-.742188 0 0-.734375-.296874-1.195312-.472656-.355469-.578125-.796875-.949218-.863282-1 0 0-2.144531-1.535156-2.144531-1.53125l.964844 2.4375c.066406.160156.132813.464844.117187.554688-.035156.105468-.15625.222656-.300781.371094-.269531.269531-.632812.644531-.800781 1.257812-.292969 1.054688.054688 2.03125.804688 2.769531l.257812 2.363281c-.609375-.320312-2.066406-1.109374-2.066406-1.109374-.148438-.957032-.441406-1.898438-.855469-2.769532-.714844-1.738281-2.03125-3.410156-3.890625-4.175781-.292969-.96875-.761719-1.714844-1.425781-2.273437-.789063-.667969-1.777344-1.046876-2.910157-1.105469-.917968.023437-1.835937.253906-2.703124.613281-.726563.304688-1.414063.699219-2.042969 1.148438-.582031.417968-1.109375.878906-1.554688 1.355468-1.128906.167969-2.171875.578125-3.101562 1.214844-2.441407 2.203125-4.835938 3.6875-7.144531 4.402344l-.125.03125-1.351563.332031c.265625.402344 1.230469 1.121094 1.230469 1.121094.039062.03125.085937.050781.121094.078125 1.292968.910156 3.097656.832031 4.441406.421875 2.039062-.800781 2.339844-1.046875 2.339844-1.046875-.746094 1.074218-1.453126 1.972656-1.453126 1.972656s-.582031.722656-1.023437 1.207031c0 0 .753906.019531 1.15625-.027343.40625-.046876 1.914063-.382813 2.464844-.707032.546875-.328125 2.023437-1.367187 2.039062-1.378906.398438-.3125 1.433594-1.710938 1.960938-2.363281.183593-.230469.308593-.371094.320312-.34375.246094.527343.714844 1.066406 1.097657 1.339843.058593.042969.335937.207032.625.386719.335937.207031.703124.433594.765624.5-.191406.6875-.503906 1.910157-.765624 2.898438-.191407.71875-.347657 1.308593-.40625 1.480469-.445313-.421876-.972657-.785157-1.636719-1.035157-.308594-.117187-.652344-.210937-1.03125-.273437-1.605469-.25-3.421875.667968-4.851563 2.4375-.949218 1.152344-1.472656 2.789062-1.488281 3.34375-.03125.890625-.714844 1.164062-.945313 1.234375-.488281-.003907-.839843-.410157-.839843-.410157l-1.054688-1.316406-.3125 1.652344c-.152343.796875.007813 2.464844 1.75 3.109375.664063.195313 1.933594-.039063 2.738281-1.519531.269532-.605469.347657-1.199219.414063-1.671875.015625-.125.03125-.238281.050781-.339844.058594-.347656.214844-.695313.484375-1.109375.683594-.867188 1.675781-1.261719 2.691407-1.078125.917968.195313 1.683593.828125 2.394531 1.5625.0625.0625.121093.125.183593.191406-.0625 0-.121093.007813-.183593.015625-1.226563.085938-2.410157.519532-3.664063 1.34375-1.835937 1.113282-3.3125 3.410156-3.222656 5.457032.027344 1.480468.324219 2.941406.386719 2.941406 0 0 .300781-1.152344.902343-2.476563 1.078126-1.875 2.710938-2.800781 4.601563-2.828125.339844-.019531.671875.007813.996094.0625.378906.066406.753906.171875 1.121093.300782-.378906.15625-.757812.339843-1.121093.570312-.316407.199219-.621094.433594-.90625.714844-.984375.976562-1.488281 2.328125-1.53125 4.132812 0 0 .0625.898438.257812 1.460938.191407.566406.492188.980468.492188.980468.261719-.597656.359375-.765624.359375-.765624s.375.308593.832031.382812c.179687.035156.34375.0625.496094.085938.46875.066406.847656.085937 1.144531.082031-.371094.511719-.605469.875-1.144531 1.277343-.132813.101563-.285157.207032-.464844.320313-.90625.554687-2.078125.761719-2.070313.769531 0 0 .773438.679688 1.636719.765625.253907.027344.566407.046875.898438.054688.652343.007812 1.394531-.0625 2.042969-.367188.144531-.066406.285156-.144531.417968-.242187 0 0 .0625.382812-.417968.898437-.078126.082031-.164063.167969-.269532.253907l.269532.03125.71875.082031c.386718.082031 1.535156-.152344 2.347656-.605469-.058594.128906-.105469.269531-.125.421875-.046875.328125-.230469.941406-.375 1.429687-.304688 1.019532-.464844 2.179688-.464844 2.179688s1.492188-.324219 2.214844-.855469c.386718-.292969.867187-.648437 1.175781-.804687.445313-.226563.683594-.632813.828125-1.085938 0 0 .582031-.082031.753906-.144531-.296875.703125-.597656 1.164063-.601562 1.167969l-1.667969 2.472656 2.671875-1.367188c.054688-.027343 1.335938-.695312 2.222656-1.964843.082032-.113281.15625-.226563.230469-.335938 0 .0625-.210937 1.777344-.210937 1.777344l1.414062-.953125c.050781-.039062.210938-.15625.394531-.378906l.625.050781c.484375.03125 1.203125-.242187 1.480469-1.09375.902344-.058594 2.914062.207031 3.296875.695313.765625.980468 1.128906 1.195312 1.601563 1.414062.386718.195312 1 .320312 1.480468.371094.28125.035156.578125.066406.886719.136718.539063.09375 1.886719.640626 1.886719.761719-.007813.273438-.15625.984375-1.0625 2.59375-.140625.253907-.214844.410157-.828125 1.511719 0 0 .230469-.039062.527343-.097656.738282-.933594 2.503907-3.714844 1.828126-4.5-.484376-.316406-1.746094-.882813-2.410157-.988282-.710937-.175781-1.527343-.136718-1.972656-.359374-.445313-.226563-.671875-.214844-1.503906-1.277344-.828125-1.0625-4.628907-1.148438-4.570313-.804688-.082031.957032-.742187.902344-.742187.902344s.226562-1.570312-.675781-1.527344c.019531.007813.058593.105469-.136719.8125-.246094.871094-.703125 1.179688-.703125 1.179688s.082031-.675782-.183594-1.410156c-.234375-.636719-.121094-.605469-.394531-.976563-.0625.34375-.265625.976563-1.050781 2.097656-.785157 1.121094-1.9375 1.714844-1.9375 1.714844s.453124-.675781.824218-1.691406c.371094-1.019531.105469-1.816407.105469-1.816407s-.160156.4375-.636719.828126c-.472656.386718-.789062.425781-.789062.425781.230468-.457031.53125-1.242188.496094-1.945313-.066407-.089844-.203126-.035156-.292969 0-.304688.167969-.59375.144532-.871094.59375-.277344.449219-.09375 2.195313-.816406 2.5625-.71875.367188-1.976563 1.46875-2.058594 1.367188-.082031-.101563.535156-1.773438.636719-2.527344.105468-.753906 1.589844-1.203125 1.898437-1.628906.308594-.429688.550781-1.378906.425781-1.570313-.128906-.1875-1.035156.3125-1.867187.3125-.371094.03125-.742187 1.128907-1.113281 1.445313-.636719.570312-2.144532.84375-2.179688.765625 1.433594-1.21875 1.242188-2.046875 1.242188-2.046875-.800782.144531-1.367188.871094-2.148438 1.125-.859375.371094-3.050781.40625-3.039062.316406.226562-.136719.496094-.179688.734375-.300781 1.050781-.335938 1.691406-1.164063 2.265625-1.988281.574218-.816407.886718-1.242188 2.980468-1.214844.230469.054687 1.402344-1.191406 1.089844-1.445313-.460937-.199219-1.269531.050781-1.40625.027344-.570312.113281-1.402344 1.105469-1.890625 1.304687-1.175781.421876-1.59375.464844-2.847656.265626-.03125-.035157.65625-.308594 1.164063-1.265626.507812-.953124 1.59375-2.054687 2.679687-2.738281l.023437-.046875c-.203124-.164062-.53125-.085937-.78125-.109375-1.933593.144531-3.6875 1.566407-4.5 3.277344-.179687-.046875-.078124-.304687-.125-.4375.035157-1.355469.335938-2.644531 1.300782-3.597656.96875-.960938 2.21875-1.3125 3.449218-1.65625.054688-.046875.042969-.101563 0-.144531-1.277343-.605469-2.601562-1.230469-4.128906-1.152344-2.167968.03125-4.179687 1.351562-5.074218 3.296875-.109376.046875-.078126-.109375-.101563-.167969.214844-1.921875 1.242187-3.757812 2.964844-4.792969 1.140625-.753906 2.382812-1.289062 3.851562-1.253906.464844 0 .882813.101563 1.3125.140625.066407-.027344.03125-.121094-.011719-.152344-1.175781-1.261718-2.351562-2.863281-4.125-3.242187-1.367187-.246094-2.625.289062-3.460937 1.351562-.324219.488281-.546875.945313-.636719 1.453125-.085937.507813-.121094 1.175782-.40625 1.828125-.574218 1.046875-1.441406 1.1875-1.808594 1.085938-1.515624-.570313-1.203124-2.226563-1.203124-2.226563s.601562.75 1.550781.695313c0 0 1.542969-.320313 1.609375-1.976563.007812-.339844.453125-1.832031 1.3125-2.871094 1.0625-1.316406 2.628906-2.386718 4.113281-2.160156 1.488281.234375 2.300781 1.042969 3.125 2.082032.085937.054687.121094-.078126.132813-.132813.398437-1.949219 1.460937-5.714844 1.566406-5.996094-.085938-.296875-1.445313-1.015625-1.804688-1.273437-.359375-.257813-.800781-.824219-.914062-1.214844-.117188-.398438-.015625-1.277344-.015625-1.277344s.328125.648438 1.675781 1.214844c.613281.269531 1.921875.429688 1.921875.429688l.679687-1.542969s.285157-.597657.460938-.878907l-.234375-.128906c-.84375-.519531-3.476563.445313-4.921875.597656-.5625 1.011719-1.589844 2.757813-2.957031 4.183594-.578125.523438-.804688.792969-1.632813 1.300782-.828125.507812-1.605468.746093-1.746094.785156-.140624.03125-.566406.277344-.726562.105468 1.1875-.789062 2.171875-1.523437 2.347656-2.464843.179688-.945313.707032-1.921875 1.007813-2.445313-.078125-.054687-.351563.332032-.636719.523438-1.433594 1.109375-2.3125 1.425781-3.929688 2.0625-1.207031.371094-2.769531.390625-3.785156-.390625-.023437-.03125-.023437-.113281 0-.148438 2.734375-.847656 5.15625-2.523437 7.335938-4.492187.882812-.601563 1.867187-.972656 2.941406-1.105469l.132812-.046875c1.507813-1.570312 3.378907-2.859375 5.878907-3.023438.882812.039063 1.707031.34375 2.386719.910157.691406.582031 1.050781 1.378906 1.253906 2.183593.203125.15625.441406.242188.644531.355469 1.480469.773438 2.589844 2.148438 3.1875 3.601563.835937 1.773437 1.019531 3.4375.847656 5.761718-.171875 2.324219-.34375 3.0625-1.488281 4.988282-2.695312 4.421875-.714844 7.175781.398438 7.195312 1.730468.246094 2.738281-2.550781 3.691406-3.457031s1.980468-1.679687 2.433594-1.8125c-.375-.316406-1.207032-.652344-1.546876-1.144531 0 0 2.101563.089844 2.785157-.222656 0 0-2.746094-.203126-3.859375-1.40625 0 0 3.738281.332031 3.738281-.074219 0 0-2.828125.257812-4.105469-2.4375 0 0 1.625.65625 2.203125.410156 0 0-2.351562-1.972656-2.859375-4.15625.496094.246094 4.203125 2.65625 4.671875 2.53125 0 0-2.535156-1.738281-2.699219-3.9375 0 0 2.375 2.546875 4.171876 2.445313 0 0-1.917969-1.996094-1.890626-3.058594.027344-1.0625.398438-1.601563.371094-2.351563-.027344-.753906-.363281-1.710937-.363281-1.710937s.621094.238281 1.066406.644531c.441407.417969.796875 1.125.988281 1.292969.125-.125.488282-2.070313-.058593-3.539063 0 0 .632812.464844 1.207031 1.019531.570312.550782.855469 1.644532.855469 1.644532s.984375-1.984375.117187-3.882813c0 0 .449219.523438.6875.734375.730469.808594.914063 1.519532.914063 2.496094 0 .972656-.519531 1.648438-.304688 2.1875 0 0 .132813-.207031.621094-1s.550781-1.601562.34375-2.316406-.328125-.90625-.320313-1.449219c-.023437-.527344.242188-.886719.296876-1.167969.027343-.03125-.011719 1.148438.339843 1.5625.347657.546875.703125.570313 1.230469 1.191406.53125.613282.582031 1.460938.582031 1.460938s.328125-.527344.945313-1.042969c.070312-.714843.453125-2.140625 1.453125-2.5625-.164063 1.476563-.101563 1.816407-.101563 1.816407s.269532-.070313.589844-.121094c.316406-.046875.6875.042968.6875.042968s-.480469.285157-.632812.445313c-.148438.160156-.472657.546875-.472657.546875.050781.261719.152344 1.128906.6875 2.550781.539063 1.421875.90625 1.652344 1.527344 2.570313.023437-.007813-.730469-1.789063.066406-2.082032 0 0 .226563 1.320313 1.199219 2.167969 0 0-.125-.933593-.039062-1.722656 0 0 .933593 1.53125 1.316406 1.4375 0 0 .304687-.394531.28125-.96875.210937.363281 1.398437 2.941406 2.65625 3.335937.757812.347657 1.886718.191407 2.234375.246094.34375.050782.6875.0625.675781.03125-.15625-.175781-.402344-.347656-.332031-.703125.070312-.351562.453125-.484375.859375-.53125.410156-.042969.835937 0 1.4375.296875.605468.296875 1.164062.765625 1.589844 1.832032.183593.308593.039062.769531.152343.878906.203125.144531.652344.28125.886719.414062.46875.28125.734375.242188 1.320312 1.234375-.945312-.386719-1.921874-.3125-1.921874-.3125s.175781.265625.503906.449219c-.085938.183594-.753906-.113281-.789063-.085938.019531.3125.460938.484376 1.183594.839844l-1.066406.027344s-.332031-.011719-.816407-.125c0 0-.445312.226562-.71875.496094-1.273437 1.273437-2.40625.933594-2.679687.921875-.632813-.023438-1.144531-1.105469-.371094-2.039063 0 0-2.582031.335938-3.394531.636719-.816406.296875-2.496094 1.402344-2.496094 1.402344s.105469-.894531-.125-.851563c-.316406.132813-.820312.425782-.902344.835938-.085937.410156.023438.839844.28125 1.046875.707032.453125 4.53125.796875 7.324219.796875s4.941407-.300782 8.390625-1.238282c-.394531 1.683594-1.726562 1.789063-2.027344 2.085938-.304687.296875-.027343.277344-.28125.46875-.453124.316406-1.910156.574219-2.167968.871094-.261719.292968-.246094.375-.246094.375s.082031.015625.214844.09375c.128906.09375.828125.769531.945312 1.039062.113282.269532.136719.980469.035156 1.109375-.121093-.085937-.265624-.175781-.265624-.175781-.070313.101562.011718.847656-.140626.925781-.035156-.191406-.210937-.242187-.28125-.242187-.136718.058594.085938.367187-.246093.890625.015625-.304688-.203125-.667969-.292969-.832031-.089844-.164063-.695312-.53125-.960938-.597657-.265624-.074219-1.035156 0-1.035156 0s-.644531.363281-.753906.679688c-.109375.316406.269531.933593.429688.992187.15625.058594 1.472656.246094 2.046874.105469.078126 0 .386719-.175781.476563-.28125-.210937.488281-.398437 1.335937-1.003906 1.335937-.601563 0-1.828125-.023437-2.664063-.246093-.429687-.253907-.640625-.515625-.921875-.898438-.167969-.085937-.007812 1.496094.101563 1.539063.953125.324218 2.832031.875 4.242187 1.257812 1.410157.382813 4.707031 1.003906 5.691407 1.082032 1.199218.324218-3.480469 1.367187-3.527344 1.425781.167968.121093.371094.046875.542968.246093.664063 1.839844-3.472656 1.128907-4.277343 1.332032l-.03125.03125c.203125.167968.714843.3125.714843.3125-.757812.734375-3.738281.90625-5.34375.789062-1.605468-.113281-4.003906-.773437-4.003906-.773437.058594.113281.71875.640625.339844.660156-.382812.023437-1.6875.023437-2.785156-.105469-1.101563-.128906-3.296875-.84375-3.921875-1.3125-.625-.464844-.765625-.515625-.976563-.453125-.203125.066407-.472656.453125-.820312.65625-.351563.207031-.828125.183594-1.011719.328125-.183594.140625-.144531.40625-.265625.875-.128906.46875-.308594.816406-.292969.957032.023438.140624.824219.492187.824219.492187l.890625.222656s1.164063-.175781 1.652344.242188c.816406.167969 1.535156-.5 2.121093-.765625.585938-.273438 1.128907-.636719 1.515626-.636719.386718-.003906 2.523437 1.585937 2.652343 1.851563.125.269531.53125 2.679687.199219 2.578124-.074219-.15625-.230469-.113281-.230469-.113281s.015625.3125-.15625.382813c-.027343-.082032-.214843-.15625-.214843-.15625s-.199219.824218-.984376.804687c.226563-.792969.046876-1.035156.046876-1.035156s-.460938.3125-.929688.035156c.601562-.207031.398438-.929687.398438-.929687s.039062-.488282-.652344-.574219c-.683594-.085937-1.359375.113281-1.617188.371094-.257812.253906-.269531 1.117187-.070312 1.472656.199218.351563.242187.40625.542968.59375.300782.1875.429688.308594.804688.277344.371094-.035157.554688-.0625.855469-.261719.1875.464844-.496094.828125-.496094.828125-.75.5-2.308594-.007813-2.640625-.644531-.328125-.640625-.417969-1.703125-.886719-2.125-.113281-.144532-.851562-.175782-.859375-.054688-.199218 2.300782-1.820312 3.652344-2.984375 4.28125.378907-.078125.84375-.1875 1.125-.296875.542969-.222656.394531-.199219.890625-.515625.492188-.320312 1.632813-1.785156 1.734375-2.382812.023438-.148438.332031 1.101562.492188 1.417968.269531.523438.914062.957032 1.71875 1.160157.792969.203125 1.539062.117187 2.054687-.226563l.65625-.628906.519532-.121094c.785156-.179687.921874-.835937.988281-.816406.144531.042969.390625.105469.433593.09375l.328126-.378906c.628906-.71875-.136719-3.375-.148438-3.394532-.097656-.203124-.722656-.777343-1.378906-1.265624.464844.003906.972656.007812 1.136718 0 .371094-.023438.679688-.371094.679688-.371094.855469.195312 1.988281.417968 2.902344.484375 1.183594.082031 4.824218.078125 5.949218-1.007813 0 0 .054688-.15625.136719-.15625 1.371094.023438 2.867188.003906 3.503907-.871094.207031-.285156.25-1.019531.25-1.019531 2.484374-.664062 3.136718-.976562 3.136718-1.71875 0-.15625-.050781-.683593-.769531-.878906"/><path d="m57.519531 41.503906c-.390625-.050781-.804687.261719-.804687.261719s.628906-.019531.785156.03125c.160156.054687.734375.308594 1.070312.65625.085938.089844.140626.160156.210938.375.078125-.277344.007812-.453125-.054688-.539063-.140624-.242187-.820312-.734374-1.207031-.785156"/><path d="m56.742188 40.492188c.144531-.03125 1.363281-.058594 1.5625.085937.199218.140625 1.105468.796875 1.199218 1.109375.050782-.3125.050782-.503906-.070312-.671875-.140625-.253906-.757813-.828125-.945313-.945313-.183593-.121093-2.203125-.175781-2.480469.023438-.28125.203125-1.167968 1.097656-1.167968 1.097656s-.804688.789063-1.007813.851563c-.203125.058593-.199219.03125-.300781.074219-.101562.042968.171875 1.421874.273438 1.421874.097656 0 .40625-.230468.527343-.140624.121094.089843.289063.320312.289063.320312s.421875.433594.648437.625c.042969.066406 1.730469.285156 2.519531.269531.136719 0 .425782-.554687.425782-.554687-.421875.265625-2.089844.007812-2.292969-.0625-.199219-.078125-.679687-.980469-.617187-1.328125.0625-.351563.953124-.929688.953124-.929688s.457032-.3125.597657-.363281c.25-.105469.582031-.105469.582031-.105469s.308594.027344.578125.117188c.273437.085937 1.089844.679687 1.171875 1.035156.070312-.316406.070312-.613281-.054688-.695313-.140624-.214843-.84375-.839843-1.015624-.925781-.171876-.082031-1.535157-.070312-1.5625-.109375-.027344-.042968.042968-.171875.1875-.199218"/><path d="m53.203125 42.175781c-.160156-.027343-.515625.132813-.8125.171875-.230469.035156-.425781.390625-.484375.515625s.117188.316407.191406.625c.074219.3125-.042968.710938.085938.710938s.273437-.226563.484375-.300781c.21875-.070313.632812-.097657.746093-.15625.117188-.054688 0-.394532-.027343-.648438-.027344-.253906-.027344-.886719-.183594-.917969"/><path d="m53.070312 44.886719c-.054687.167969.632813.308593.746094.253906.113282-.058594-.023437-.960937-.054687-1.144531-.039063-.191406-.617188.011718-.777344.070312-.15625.050782.046875.789063.085937.820313"/><path d="m51.742188 44.351562c.113281-.652343-.023438-1.257812-.25-1.273437-.273438-.054687-1.773438.234375-1.847657.363281-.070312.128906 2.050781 1.0625 2.097657.910156"/><path d="m38.976562 53.167969c-.332031-.167969-.609374-.410157-.75-.410157-.148437 0-.796874.921876-.773437 1.046876.019531.117187.679687.238281 1.074219.402343.390625.160157.929687.402344 1.050781.402344.125 0 .53125-.960937.386719-1.125-.0625-.125-.65625-.15625-.988282-.316406"/><path d="m40.972656 55.351562s-.40625.113282-.664062-.023437c.289062 1.222656-1.441406 3.675781-1.441406 3.675781.421874-.105468 1.964843-1.5 2.105468-3.652344"/><path d="m41.726562 55.035156c.144532.050782.566407-.0625.878907.589844.316406.570312.480469 1.730469.796875 2s.34375.351562 1.117187.507812c.757813.070313 1.074219-.035156 1.117188-.234374-.914063.183593-1.355469-.230469-1.355469-.230469s-.476562-.292969-.664062-.703125-.242188-1.097656-.128907-1.382813c.117188-.28125.214844-.609375.601563-.765625.273437-.109375.625-.253906 1.097656-.253906.46875 0 .910156 0 1.265625.386719.121094.167969.15625.527343.15625.609375.058594.457031-.152344.664062-.152344.664062s.402344.066406.480469-.324218c.117188.3125.175781.488281.191406 1.105468 0 0 .613282-.496094.410156-1.191406 0 0-.183593-.980469-.554687-1.417969-.355469-.421875-1.269531-.847656-1.597656-.863281-.332031-.011719-1.453125.59375-1.5625.453125-.105469-.136719 1.242187-.914063 1.703125-.894531.460937.027344 1.433594.785156 1.71875 1.09375.300781.398437.523437 1.265625.570312 1.960937.601563.054688.226563-1.773437-.074218-2.152343-.199219-.226563-1.90625-1.652344-2.40625-1.550782-.5.097656-2.046876 1.03125-2.492188 1.230469-.480469.214844-.964844.046875-1.054688.085937-.097656.042969.085938.308594 0 .675782-.085937.371094-.207031.539062-.0625.601562"/><path d="m41.296875 55.035156c.183594-.066406.316406-.976562.257813-1.257812-.058594-.28125-1.050782-.320313-1.226563-.234375-.128906.015625-.164063.441406-.234375.660156-.101562.316406-.300781.503906-.214844.613281.128906.324219 1.015625.355469 1.417969.21875"/><path d="m58.980469 32.6875c.183593-.023438.683593.054688.914062.085938.230469.023437.59375.167968.59375.167968s-.105469-.34375-.765625-.667968c-.328125-.15625-.707031-.375-.933594-.320313-.230468.058594-.699218.699219-.785156.964844-.085937.269531-.078125.8125.410156.980469.542969.125.855469.074218.855469.074218s-.699219-.105468-.945312-.703125c-.125-.421875.472656-.5625.65625-.582031"/></g><path d="m17.765625.488281-17.058594 16.386719v42.46875l17.058594 16.390625h36.492187l15.351563-14.75v-7.132813h-16.007813v6.242188h-36.890624v-7.757812l-.269532-.03125c.109375-.089844.195313-.175782.269532-.253907v-.660156c-.648438.304687-1.390626.378906-2.039063.367187v10.300782h40.96875v-6.246094h11.929687v4.363281l-14.160156 13.59375h-34.796875l-15.867187-15.238281v-31.535156c-.039063-.03125-.082032-.046875-.121094-.078125 0 0-.964844-.71875-1.234375-1.121094l1.355469-.335937v-7.773438l15.867187-15.238281h34.796875l14.160156 13.597656v4.359375h-11.929687v-6.242188h-40.96875v4.296876c.625-.449219 1.316406-.84375 2.039063-1.148438v-1.1875h36.890624v6.242188h16.007813v-7.128907l-15.355469-14.75zm1.855469 17.628907c-.109375-.003907-.179688.015624-.175782.066406-.035156.210937 1.234376.175781 1.65625 2.375.1875 1-.101562 1.363281-.527343 2.292968-.214844.367188-.398438.761719-.542969 1.164063-1.164062 2.617187-2.078125 5.34375-2.597656 8.242187-.195313.535157-.191406 2.371094-.078125 2.917969.476562 2.304688 1.222656 3.65625 2.523437 5.613281.769532 1.207032 2.726563 2.351563 4.46875 2.71875-3.6875-2.183593-4.183594-3.574218-4.183594-3.574218s-2.863281-4.414063-1.003906-9.347656c.722656-1.90625 1.480469-3.828126 2.441406-5.644532.519532-.851562.894532-1.765625.960938-2.816406-.054688-.613281.011719-1.261719-.28125-1.8125-.488281-1.035156-.796875-1.378906-1.257812-1.695312-.34375-.234376-1.066407-.480469-1.402344-.5zm-3.066406 1.207031c-.203126.003906-.78125.167969-.996094.273437-.28125.140625-.675782.378906-1.226563.894532-.746093.648437-1.472656 2.09375-1.597656 2.300781-.121094.210937-1.605469 2.535156-1.695313 3.5625-.226562 1.273437-.96875 1.675781-.96875 1.675781.753907-.355469 1.976563-1.625 2.628907-2.496094.957031-1.191406 1.554687-2.390625 2.289062-3.734375.363281-.617187 1.101563-1.851562 1.613281-2.414062.046876-.042969.019532-.0625-.046874-.0625zm27.277343.898437s-.265625.277344-.414062.640625c-.152344.359375-.253907.933594-.253907.933594.238282-.179687.386719-.257813.667969-.378906 0 0-.035156-.226563-.042969-.515625-.007812-.289063.042969-.679688.042969-.679688zm-25.292969.371094c-.566406.023438-2.003906.035156-2.164062.136719-.160156.105469-.304688.273437-.53125.597656-.019531.054687-.457031.675781-.386719.734375 1.457031.03125 3.597657-1.117188 4.980469-.28125.144531-.035156.125-.40625.148438-.515625-.035157-.167969.035156-.449219-.167969-.535156-.589844-.082031-1.246094-.125-1.878907-.136719zm21.425782.457031c.203125.640625.273437.835938.226562 1.234375-.070312.976563-.109375 1.359375-.898437 2.480469-1.261719 1.242187 1.101562 3.511719 1.101562 3.511719s-1.265625-1.105469-1.890625-1.96875c-.660156-1.132813.070313-3.101563.011719-3.765625-.066406-.667969-.199219-1.222657-.199219-1.222657s-.042968 1.371094-.332031 1.96875c-.292969.59375-.464844 1.070313-.511719 1.6875-.109375 1.320313.285156 2.308594.285156 2.308594-.613281-.679687-.957031-2.664062-.945312-3.597656.015625-1.035156-.75-1.683594-.75-1.683594s.050781.679688-.015625 1.367188c-.058594.683594-.234375.792968-.308594 1.761718-.140625.960938 2.050781 3.511719 2.050781 3.511719s-1.578124-1.074219-2.164062-2.761719c-.171875-.75-1.546875-2.507812-1.546875-2.507812s.214844.324219.160156 1.003906c-.0625.683594-.488281 1.320313-.234375 2.1875.429688.890625 1.984375 3.492188 4.5625 3.75-1.332031.730469-5.339844-1-6.164062-1.359375.390625.816407 3.734375 3.011719 6.230468 3.421875-1.898437.8125-6.695312-1.550781-8.59375-2.804687 1.277344 1.789062 3.222657 3.273437 3.222657 3.273437-.515625.382813-2.300781.105469-2.300781.105469.898437 1.230469 4.640624 1.277344 4.640624 1.277344-.285156.933593-3.308593.847656-3.308593.847656 1.589843.773437 3.179687.53125 3.179687.53125-.140625.367187-.328125.640625-1.070312.78125-1.070313.242187-2.300782.132813-2.300782.132813l1.453126.683593s-1.957032 1.242188-3.027344 2.28125c-1.070313 1.039063-2.21875 3.773438-3.3125 3.507813-.808594.289062-1.5625-.027344-1.832032-.398438-.273437-.363281-1.109374-1.457031-1.203124-2.433594-.09375-.980468.398437-3.515624 1.261718-4.816406.855469-1.304687 1.546875-2.152344 1.601563-6.464844-.101563-3.046874-1.324219-5.320312-2.703125-6.441406-.328125-.324218-.964844-.773437-1.136719-.816406s-.023437.503906-.066406.808594c-.042969.34375-.210938.691406-.085938.824218.230469.375.863281.453126 1.617188 3.449219.878906 4.671875-1.246094 6.417969-1.292969 8.128907-.34375 1.757812-.230469 3.175781-.113281 4.195312-1.089844-2.382812-.660157-4.976562-.292969-7.226562.363281-2.253907-.777344-4.601563-1.261719-4.929688-.09375-.042969-.238281-.15625-.308593 0-.257813.550781-.496094.929688-.664063 1.507812 2.0625 2.230469.292969 4.5.003906 6.113282-.285156 1.613281.347657 4.816406.746094 5.5.402344.675781 2.671875 3.5625 5.386719 3.738281-1.042969.503906-1.574219.53125-2.578125.28125-3.265625-.816406-4.765625-2.296875-5.773438-2.265625-1.289062.042969-1.789062.226562-2.304687.425781s-1.089844.453125-1.546875.964844c-.460938.507813-.769531 1.046875-.863281 1.585937 0 0 .632812-.769531 1.75-1.304687 1.976562-.738281 2.921874-.652344 4.296874.226563 1.144532.449218 2.863282 2.238281 4.527344 1.839843.054688-.019531.878906-.003906.859375.085938 0 .046875-.824219.207031-.859375.226562-1.316406.226563-2.671875-.546875-4.007812-1.273437-.375-.199219-1.148438-.652344-1.496094-.539063-.339844.109375-1.257812.679688-1.917969 1.445313-.660156.761718-1.175781 1.8125-1.175781 1.8125 1.03125.199218 1.203125.058594 3.09375-1.503906.660156-.308594 2.054688-.285157 3.355469.285156.085937.144531.140625.316406-.03125.453125-.644531.011719-.816407-.140625-1.203125.113281-.382813.257812-.429688.992188-.316406.9375.230468.054688.632812-.3125 1.664062-.226562.546875.140624-1.625.757812-2.347656.789062-1.585938-.027344-2.007813-.082031-2.578125.457031-.574219.535157-.832031 1.191407-1.378907 1.785157.316407-.035157 1.75-.933594 2.0625-1.078126.316407-.140624 2.179688 0 3.355469-.257812 1.171875-.25 1.746094-.589844 2.035157-.847656 0 0-.089844.824218-.59375 1.917968.023437.078126 2-1.710937 2.144531-2.082031-.046875.109375-.496094 1.148438-.082031 2.386719.125.960938.308593 1 .042968 2.527344.96875-.914063 1.484375-2.222656 1.523438-3.097656.039062-.875-.125-1.816407.101562-2.730469.167969-.652344.777344-1.734375.804688-1.714844-.070313.367187-.597656 1.246094-.617188 2.347656-.019531 1.101563.433594 2.769531.703125 2.992188.140625.105469.390625-.421875.285157-.792969-.101563-1-.246094-2.4375 0-2.566406.101562.03125.492187.464844.597656 1.058594.226562.488281.003906.9375.371094 1.304687.015624-.011719.246093-.386719.289062-1.101563.042969-.714843-.183594-1.019531-.265625-1.347656-.085937-.320312-.105469-1.648437-.105469-1.648437s1.132813.847656 1.558594 1.019531c.433594.167969 2.085938 1.34375 2.582031 2.09375.398438-.625-.183593-1.234375-1.046875-2.074219-.414062-.550781-1.421875-.917969-1.691406-2.097656-.519531-1.871094 2.082031-5.953125 3.503906-5.933594-.535156.976563-.125 2.179688-.125 2.179688s.21875-1.425781 1.363282-2.386719c1.492187-1.476562 3.351562-2.234375 3.882812-2.480469-.496094-.039062-.625-.019531-.710938-.191406-.167968-.316406.363282-1.394531 2.183594-1.933594-.730468.339844-1.375.59375-1.589844 1.191407-.171874.445312.074219.613281.074219.613281s.429688-.402344.710938-.59375c.277343-.191407 1.046875-.328125 1.050781-.316407.066406.148438.023438.273438-.066406.402344-.085938.128906-.324219.128906-.519532.445313-.117187.199219-.179687.542969-.074218.667969.109375.128906.574218.027343.832031-.230469.324219-.488281.257813-.308594.34375-.859375.105469-.660156.601563-.789063.601563-.789063s-.085938 1.148438.109374 1.339844c.105469-.617187.425782-.574219.425782-.574219s-.019532 1.101563.261718 1.210938c.039063-.59375.40625-.550782.40625-.550782s.066407.953126.246094 1.023438c.074219-.320312.289063-.640625.289063-.640625s.238281.828125.390625.953125c.105468-.210938.40625-.53125.40625-.53125s.117187 1.4375 1.082031 1.945312c-.339844-2.179687-.128906-2.328124.175781-2.457031 0 0 .203125 1.949219 2.273438 3.015625 0 0-.539063-1.011718-.726563-1.65625-.191406-.636718-.519531-2.117187.046875-2.683594.160156-.199218-.746094.105469-.34375-.121093.402344-.230469 2.027344-.855469 2.105469-.734375.101563.148437.019531.550781-.015625.695312 0 0 1.164062-.765625 1.890625-.976562.734375-.210938 3.675781-.574219 3.675781-.574219.128906 0 .777344-.636719.753906-.808594-.023437-.167969-.375-.570312-.34375-.679687.070313-.238282 1.703126-1.183594 1.136719-1.167969-1.589843-.214844-3.308593-.058594-4.316406-.59375-1.195313-.640625-1.453125-1.703125-1.871094-2.445313.082031.253907-.34375.59375-.34375.59375s-.894531-.582031-1.140625-1.015624c.171875.476562 0 1.035156 0 1.035156-1.34375-.835938-1.4375-1.398438-1.4375-1.398438-.058594.199219.363282 1.527344.363282 1.527344s-1.316407-.675781-2.210938-2.632812c-.375-.671876-.816406-2.742188-.816406-2.742188-.539063.835938-.605469 1.105469-.605469 1.105469s-.449219 1.589843.128906 2.570312c.453125.660157 1.527344 1.488281 1.785157 1.570313.625.449218.128906.382812.128906.382812s-1.785156-.507812-2.277344-.527344c-.492188-.023437-.730469.128907-1.417969-.0625-.6875-.191406-1.191406-1-1.136719-1.785156.0625-.964844.410157-1.058594.515626-1.425781.359374-.59375.464843-1.878906-.171876-2.613281-.195312-.253906-.523437-.558594-1.011718-.851563zm-8.59375.171875s.128906.367188-.128906.894532c-.246094.425781-.917969.660156-.988282 1.625-.101562 1.289062 1.058594 1.828124 1.058594 1.828124s-.414062-.625-.328125-1.230468c.171875-.878906.832031-1.21875.855469-1.773438.03125-.550781-.46875-1.34375-.46875-1.34375zm16.125.105469s-.515625.617187-.667969.957031c-.148437.34375-.210937.785156-.113281 1.59375.085937.601563.34375.765625.34375.765625.1875-.476562.648437-.527343.644531-1.191406.019531-.59375-.140625-.660156-.226563-1.210937-.066406-.40625.019532-.914063.019532-.914063zm-3.074219.210937s-.996094.425782-1.472656.953126c-.507813.457031-.855469 1.078124-.941407 1.25-.304687.472656-.4375 1.390624-.339843 2.019531.101562.625.5625 1.523437.917969 1.664062.359374.144531.625.015625 1.097656.171875.472656.152344.988281.296875.988281.296875-.394531-.355469-1.492187-1.214843-1.582031-1.664062-.015625-.039063-.277344-.746094-.144532-1.851563.140626-1.214844 1.476563-2.839844 1.476563-2.839844zm-32.054687.066407c-.621094.035156-1.445313.597656-2.296876 1.171875-1.5 1.394531-3.152343 2.625-4.960937 3.375-.226563.144531-.507813.152344-.722656.300781 1.253906.054687 2.359375-.34375 3.425781-.828125 1.617188-.691406 3.8125-2.449219 4.183594-2.867188.191406-.171874.34375-.652343.546875-1.011718 0 0 .121093-.15625-.175781-.140625zm3.507812 2.230469s.015625.253906.066406.445312c.070313.265625.449219.625.707032.851562.34375.308594 1.785156 1.144532 1.816406 1.035157.097656-.34375.191406-.554688.375-.910157.117187-.140624-1.15625-.316406-1.847656-.613281-.613282-.265625-1.117188-.808593-1.117188-.808593zm-.882812.890624c-.011719-.023437-.136719.117188-.320313.347657v5.226562c.664063.25 1.191406.613281 1.636719 1.03125.058594-.167969.214844-.761719.402344-1.480469v-3.398437c-.285157-.179687-.5625-.34375-.621094-.382813-.382813-.273437-.855469-.816406-1.097656-1.34375zm40.5625 4.074219c-.328126 0-.570313.097657-.613282.371094-.0625.433594.453125.703125.453125.703125s.664063.039062 1.480469.523438c.816406.492187 1.265625.988281 1.265625.988281 0-.292969-.035156-.644531-.148437-.878907-.214844-.636718-1.160157-1.464843-1.78125-1.613281-.234376-.058593-.460938-.09375-.65625-.09375zm.828124 1.8125c-.242187.046875-1.332031.894531-1.332031.980469-.042969.148438.148438.445312.28125.59375.125.148438.339844.324219.515625.296875.167969-.027344.433594-.28125.464844-.335937.054688-.070313-.054688-.042969-.152344-.070313-.378906-.066406-.390625-.683594.050782-.878906.273437-.125.71875-.097657 1.066406.429687.226562.296875.625.492188.703125.511719.082031.011719.21875-.15625.195312-.242187-.042969-.179688-.382812-.367188-.554687-.550782-.171875-.1875-1-.773437-1.238282-.734375zm-43.339843.710938c-1.460938.015625-2.78125 1.066406-3.527344 2.324219l.070313.015624c.585937-.300781 1.1875-.582031 1.910156-.582031 2.488281-.019531 4.179687 1.945313 5.742187 3.625l.011719-.09375c-.144531-.480469-1.300781-5.277343-4.207031-5.289062zm43.640625.878906c-.140625.027344-.402344.269531-.601563.433594-.558593.316406-.773437-.1875-.859375-.128907-.085937.054688-.402344.460938-.300781.53125.097656.070313 1.058594-.046874 1.542969-.027343.488281.011719.90625.097656 1.0625 0 .15625-.101563.046875-.210938.304687-.5625.257813-.355469-.519531-.078125-1.097656-.246094-.015625-.007813-.03125-.007813-.050781 0zm-.210938 1.074219c-.164062-.003906-.308594 0-.40625.003906-.386718.015625-1.261718.082031-1.519531.25-.140625.070312-.542969.9375-.355469 1.277344.183594.339844.457032.382812 1.015625.367187.945313.03125 1.949219-1.160156 2.421875-1.347656.199219-.125.15625-.324219.070313-.421875-.0625-.074219-.734375-.117188-1.226563-.128906zm-41.800781 2.640625v.207031c.0625-.003906.121094-.015625.183594-.015625-.0625-.0625-.121094-.125-.183594-.191406zm25.453125.691406c-.085938-.011719-.175781-.007813-.269531 0-.75.0625-1.375.722656-1.910157 1.105469 0 0 .230469-.527344.5-.875 0 0-2.234374.777344-3.492187 2.359375-.691406.851562-1.089844 1.8125-1.480469 2.859375-.351562-.511719-.71875-1.773438-.554687-2.585938-.269531-.105468-1.128907.902344-1.234375 1.511719-.101563.613281.632812 1.53125.632812 1.53125-.746094-.199219-1.089844-.933594-1.089844-.933594s-.257812.480469-.144531.960938c.117188.484375.6875 1.046875.6875 1.046875-.492187.265625-1.058593-.535156-1.058593-.535156s-.402344 1.160156.027343 1.8125c1.117188 1.132812 1.632813 1.441406 2.523438 2.777343.429687.59375 1.03125.765625.972656 2.097657-.144531 2.4375.542969 2.066406.542969 2.066406s-.085938-.90625.175781-.960938c0 0 .199219.875.570313 1.417969.371093.535156.976562 1.074219 1.433593.988281.457031-.085937.527344-.347656.773438-.738281.371093-.585937.203125-2.40625.230469-2.546875.027343-.140625.65625-.28125.105468-.5625-.441406-.222656-.683594-.535156-.652344-.710938 0 0 1.003907.480469 1.003907-.34375.113281-.761718-.746094-.933593-.976563-1.128906-1.089844-.878906-1.972656-2.441406-2.261718-2.441406 0 0-.402344.058594-.457032-.171875-.058594-.222656.371094-.335937.714844-.050781.34375.28125.773438.933594 1.40625 1.5.628906.566406.972656.820312 1.402344.820312 0 0-.574219-.425781-.429688-.820312 0 0 .746094.933594 1.203125 1.246094.460938.308593 1.488281.566406 1.488281.566406-.140624.257812-.972656 0-.972656 0s2.351563 1.8125 3.78125 2.441406c1.433594.617188 3.203125.8125 3.910156.597656.710938-.210937-.773437-.363281-1.164062-.554687-.953125-.375-1.667969-.699219-3.113281-1.488281-1.4375-.78125-2.621094-2.183594-2.621094-2.183594s1.632813 1.035156 2.558594.976562c-.042969.210938-.621094.253906-.621094.253906s.421875.296876 2.191406 1.066407c1.777344.769531 3.496094 1.207031 5.734375 1.78125 2.238282.578125 4.300782.507812 5.273438.113281-1.261719-.058594-3.886719-.804688-5.671875-1.359375-2.175781-.738281-3.898438-1.53125-5.207031-2.332031-.242188-.132813-.167969-.386719.078124-.304688.246094.082032.800782.3125 2.207032.878906 1.40625.566407 4.4375 1.386719 6.761718 1.726563 1.746094.367187 4.867188.441406 6.101563.46875 1.46875.007813.859375-.558594.515625-.59375-.347656-.035156-3.78125-.425781-6.445312-.9375-2.667969-.507813-5.402344-1.527344-7.164063-2.277344-.230469-.117187-.171875-.511719.230469-.398437 1.058594.398437 3.40625 1.132812 4.8125 1.5 1.402344.367187 3.121094.738281 4.84375.964844 1.71875.226562 2.777344.433593 4.867187.085937.191407 0 1.546875-.269531.816407-.425781-.726563-.15625-3.195313-.613282-4.101563-.839844-.90625-.230469-3.617187-.898438-5.964844-1.746094-2.980469-1.019531-4.449219-2.167968-5.652343-3.214844-1.257813-1-2.546876-3.039062-4-4.058593-1.273438-.890625-1.761719-1.347657-2.367188-1.402344zm21.609375.273437c-.773437.21875-4.195313.832032-5.8125.90625-1.695313.03125-3.390625.011719-5.0625-.109374-.914063-.070313-3.398437-.734376-3.167969-.292969.359375.625 1.554688 1.820312 1.695313 2.660156s-.03125 2.015625-.140625 2.90625c.089844.191406 1.523437-.261719 1.957031-.324219.449219-.152344.402344-.5.84375-.746094.28125-.105468 1.222656-.277343 1.671875-.304687.105469.046875.789062-.621094.898438-.8125.125-.128906-1.078126.0625-1.488282-.023437-.277344-.019532.027344-.277344.179688-.277344.148437 0 1.433594.128906 1.5625.046875.128906-.085938.761718-.636719.589844-.699219-.171876-.066406-1.011719.027344-1.226563-.039062-.214844-.066407-.023437-.210938.257813-.210938.277343 0 2.84375.082031 3.253906.039062.320312 0 .800781-.351562.917968-.699218.0625-.191406-1.878906-.097656-2.347656-.066406-.464844.039062-2.417968.09375-3.660156-.007813l-.101562-.066406c-.011719-.035157 0-.0625.035156-.0625 2.476562.054687 6.09375-.371094 8.367187-.984375.589844-.226563.710938-.421875.777344-.832032zm-53.898437.492188s-.515626.828125-1.546876.890625c-.574218.027344-1.136718-.300781-1.136718-.300781s.234375 1.042968 1.136718 1.089844c.882813-.023438 1.417969-.9375 1.546876-1.679688zm7.332031.171875c-.429688.015625-.855469.074219-1.238281.1875-1.359376.410156-2.160157.792969-3.449219 1.941406-.183594.238281-.5.484375-.582031.773438l.195312-.101563c1.789062-1.25 4.457031-2.054687 9.613281 1.175782 0 0-1.394531-2.65625-1.949219-3.289063-.347656-.394531-1.222656-.648437-2.164062-.683594-.140625-.007812-.285156-.007812-.425781-.003906zm-.496094 3.082031v.867188c.363281-.226563.738281-.414063 1.121094-.566406-.367188-.132813-.746094-.234376-1.121094-.300782zm16.636719 3.929688s.574218.421875 1.089844.421875c0 0-.34375.253906-.628907.082031-.285156-.167969-.460937-.503906-.460937-.503906zm-15.632813.355468c-.382812.199219-.722656.492188-1.003906.792969v.683594c.070313-.101563.140625-.203125.207031-.328125.199219-.378906.472656-.765625.796875-1.148438zm-1.003906 3.578126v1.359374c.535156-.40625.773437-.765624 1.140625-1.277343-.296875.003906-.671875-.015625-1.140625-.082031zm0 0" fill="#73000a"/><path d="m14.671875 45.707031c-.613281.660157-.96875 1.386719-.96875 1.386719.027344-.019531.21875.019531.347656-.066406.101563-.070313.367188-.28125.621094-.640625zm0 0"/><path d="m41.007812 38.949219s-.082031.46875.03125.667969c-.050781-.097657.160157.375.621094.570312.199219.085938.722656-.0625.722656-.0625-.40625-.054688-.5625-.199219-.820312-.417969-.410156-.363281-.554688-.757812-.554688-.757812zm-1.113281 1.320312s-.054687.734375.148438 1.046875c-.035157-.070312.597656.789063 1.335937 1.019532.332032.105468.890625-.417969.890625-.417969-.644531.085937-.660156-.027344-1.371093-.53125-.714844-.511719-1.003907-1.117188-1.003907-1.117188zm1.683594.285157c-.03125.039062.359375.332031.402344.539062.050781.28125.179687.425781.542969.65625.363281.226562-.105469-.257812-.148438-.589844-.042969-.335937-.378906-.472656-.597656-.554687-.128906-.054688-.1875-.066407-.199219-.050781zm-3.089844.375c-.035156.03125.480469.371093.511719.71875.042969.46875.234375.554687.710938.851562.472656.296875-.21875-.253906-.195313-.765625s-.492187-.617187-.769531-.722656c-.171875-.066407-.246094-.089844-.257813-.082031zm5.730469.882812c-.128906.109375-.148438.863281 1.117188 1.46875 1.074218.511719 2.019531.445312 1.976562.210938 0 0-1.054688-.210938-1.761719-.59375-.710937-.382813-1.332031-1.085938-1.332031-1.085938zm-6.128906.863281c-.09375.007813-.164063.039063-.191406.109375 0 0 .238281.234375.257812.40625.023438.167969.152344.316406-.257812.339844-.40625.019531-1.957032-.53125-1.957032-.53125s1.507813 1.019531 2.238282 1.0625c.773437-.042969.324218-.808594.238281-1.023438-.089844-.210937.40625-.210937.40625-.210937s-.460938-.179687-.734375-.152344zm3.71875 1.050781s.132812.445313.5.722657c.425781.363281 1.972656.976562 2.402344.976562.433593 0 .582031-.699219.582031-.699219-.730469.339844-.949219.148438-1.976563-.191406-1.035156-.339844-1.507812-.808594-1.507812-.808594zm-10.5.832032s.171875.335937.460937.507812c.285157.167969.628907-.085937.628907-.085937-.515626 0-1.089844-.421875-1.089844-.421875zm8.890625.507812c-.0625.425782.152343.570313.75.851563.390625.1875.796875.464843 1.378906 0 0 0-.386719-.023438-1.097656-.257813-.710938-.234375-1.03125-.59375-1.03125-.59375zm-6.988281 1.207032s.125.453124.230468.550781c.101563.097656.277344.148437.371094.109375.152344 0 .429688-.40625.429688-.40625s-.183594.230468-.554688.121094c-.371094-.113282-.476562-.375-.476562-.375zm2.046874 1.601562c-.011718.113281-.015624.789062-.277343.738281-.261719-.046875-.667969-.566406-.667969-.566406s.292969.734375.75.871094c.5.089843.207031-1.148438.195312-1.042969zm1.214844 2.511719c.015625.113281.039063.582031-.230468.597656-.265626.015625-.972657-.464844-.972657-.464844s.648438.714844 1.128907.742188c.503906-.027344.0625-.984375.074218-.875zm0 0"/><path d="m44.464844 29.015625s-1.65625.03125-2.4375.375c-.605469.269531-1.738282 1.015625-1.679688 1.246094.058594.222656.441406.253906 1.179688.289062.742187.035157 1.785156-.359375 1.785156-.359375s-1.308594.027344-1.324219-.210937c-.019531-.246094.332031-.539063.804688-.785157.476562-.242187 1.671875-.554687 1.671875-.554687zm2.960937.726563s-1.390625.609374-2.257812.800781c-.863281.191406-1.710938.140625-1.710938.140625s.296875.226562.296875.484375c0 .265625-.421875 1.085937-.421875 1.085937s1.289063-.453125 2.238281-.925781c.851563-.402344 1.894532-.996094 1.855469-1.585937zm.03125 1.941406c-.160156-.019532-.496093.070312-.605469.152344-.523437.296874-1.148437.773437-1.773437.988281-.625.21875-2.792969.46875-2.792969.46875 1.171875.089843 2.441406.691406 2.441406.691406s-.464843.554687-1.109374 1.136719c0 0 1.398437-.546875 2.148437-1.105469.644531-.453125 1.671875-2.035156 1.78125-2.269531 0-.035156-.035156-.054688-.089844-.0625zm0 0"/><g fill="#fff"><path d="m21.253906 35.375c-.085937 2.582031 1.089844 2.949219 1.089844 2.949219-.71875-2.125-.488281-5.074219.199219-7 0 0-1.203125 1.472656-1.289063 4.050781"/><path d="m25.410156 33.617188c.535156-.824219.945313-2.265626.949219-4.554688.007813-2.285156-.835937-4.851562-2.351563-5.898438 1.371094 2.09375 2.230469 6.0625 1.027344 9.007813-.136718.355469-1.832031 3.347656-1.085937 4.675781.339843-1.359375.800781-2.238281 1.460937-3.230468"/><path d="m11.355469 32.332031c1.421875-.242187 2.535156.042969 4.039062 1.160157 0 0-.988281-1.667969-2.328125-1.769532-1.011718-.039062-1.710937.609375-1.710937.609375"/><path d="m12.160156 38.902344c1.523438-.351563 3.710938-.492188 4.96875.1875 0 0-.621094-1.046875-1.835937-1.066406-1.21875-.019532-3.132813.878906-3.132813.878906"/></g></svg>