<svg height="56pt" viewBox="0 0 70 56" width="70pt" xmlns="http://www.w3.org/2000/svg"><path d="m23.9762 1.928543c-9.384741 3.733593-15.668213 10.897857-15.451161 18.952636.22441 8.328503 7.339302 15.332182 17.43406 18.408838-8.744621-3.580307-14.733785-10.467198-14.950837-18.529277-.209695-7.751858 4.973802-14.711741 12.967938-18.832197zm-17.967493 36.839574c-.562863 0-.974894.025547-1.221377.09854-.412031.10949-.70266.357666-.842456.729931l-1.092618 2.868625c-.206016.536499.272235.799273 1.445787.799273h2.10798l-1.092618 2.868626h-2.814319l-1.460502.828471h4.208602c1.158837 0 1.843103-.277374 2.052797-.828471l1.092618-2.868626c.206015-.536498-.275914-.799273-1.434751-.799273h-2.122695l1.096296-2.868625h2.90629l1.291276-.828471zm5.179818 2.142345c-.41571 0-.710018.021898-.882923.069343-.32006.094891-.529755.266425-.632762.540148l-1.843103 4.832138c-.154512.408761.194979.613141 1.05215.613141h1.740095c.389958 0 .67323-.021898.857172-.072993.349491-.091241.570221-.262775.673229-.540148l1.839424-4.832138c.103008-.262774.047825-.437958-.172906-.529199-.132438-.051095-.426746-.080292-.886602-.080292zm3.579519 0-2.07487 5.441629c-.044146.113139.014715.226278.15819.357666.1913.171533.496645.255475.901318.255475h1.743774c.857171 0 1.361174-.20438 1.515685-.613141l2.07487-5.441629h-1.46786l-2.07487 5.441629h-1.383247l2.071191-5.441629zm4.749393 0-.235447.609491 1.030078-.003649-2.082228 5.448928h1.464181l2.100622-5.448928.982253.003649.235446-.609491zm4.05409 0-2.306638 6.05477h1.467861l1.041114-2.733588h1.383246l-1.041114 2.733588h1.47154l2.306637-6.05477h-1.46786l-1.041114 2.733588h-1.383247l1.037435-2.733588zm-12.427148.587594 1.379568.021897-1.843103 4.832138h-1.383247zm32.782213 6.390538c-.504002 0-.952821.120438-1.346458.364965-.389958.240877-.695302.580294-.908675 1.018252-.217052.437959-.323739.916063-.323739 1.441612 0 .62774.169227 1.113144.507681 1.459861s.794631.51825 1.37221.51825c.64012 0 1.287597-.178833 1.938753-.536499l.419389-2.182491h-1.953469l-.1913.967158h.790953l-.091972.500002c-.202336.153285-.437782.226278-.702659.226278h-.011037c-.235446 0-.430425-.083942-.581258-.259125s-.22441-.390513-.22441-.649638c0-.445257.099329-.861317.305345-1.25548.202336-.390512.47825-.583944.82774-.583944.356849 0 .592295.182483.710018.551098l1.272881-.160585c-.213373-.94526-.816704-1.419714-1.806314-1.419714zm18.133041 0c-.356848 0-.662192.062044-.919712.182482-.257519.120439-.452498.291972-.584936.510951-.136118.222629-.202337.463506-.202337.729931 0 .291972.080935.540148.242804.748178.165548.20803.555506.430659 1.169874.678835.264877.10584.434104.200731.504002.281023.066219.080292.103008.167884.103008.262775 0 .127738-.055183.240877-.16187.339417-.106686.098541-.264877.149636-.470892.149636-.202337 0-.360527-.058394-.478251-.178833-.114044-.120438-.172905-.324819-.172905-.613141l-1.217699.091241v.10949c0 .441607.143475.806573.419389 1.087596.279592.284672.750485.423359 1.412677.423359.470893 0 .835099-.072993 1.092618-.222629.257519-.153285.452498-.346716.588616-.580294.136117-.229928.206015-.485404.206015-.755478 0-.288322-.066219-.525549-.1913-.718981-.125081-.189782-.28695-.346717-.485608-.467155-.198658-.120439-.456177-.248176-.768879-.383214-.250162-.10219-.408352-.189781-.474571-.255475-.06622-.065694-.099329-.138687-.099329-.21168 0-.10219.040467-.189782.125081-.262775.080934-.072993.202336-.109489.353169-.109489.378921 0 .581258.20438.60701.605842l1.21402-.072993c-.073577-.912413-.676908-1.368619-1.809994-1.368619zm-26.31112.076643-.551827 2.835778c-.036788.193432-.073577.343067-.106686.448907-.03311.10584-.080935.189782-.150833.259125-.066219.069344-.165548.102191-.28695.102191-.253841 0-.378922-.127738-.378922-.383214v-.09854c0-.058395.003679-.120439.011037-.178833v-.054745l-1.221377.153285c-.018395.131388-.029431.240877-.029431.328469 0 .302921.055182.547447.165548.72993.114044.182483.25384.31387.426746.397812.172906.080292.345812.131387.515039.153285.169227.018249.353169.029197.559185.029197.507681 0 .89396-.109489 1.158837-.332118.268556-.222628.463535-.656937.584937-1.295626.007357-.047445.011036-.083942.022073-.10219l.581258-2.992713zm3.204277 0-2.36182 4.646005h1.394283l.323739-.759128h1.364852l.058862.759128h1.265523l-.662192-4.646005zm7.894807 0-.430425 2.248184c-.051504.262775-.080934.540149-.080934.832121 0 .226278.033109.441607.099329.638689.066219.20073.176584.379563.320059.536498.147154.153286.327418.273724.540791.350367.217052.076642.504002.116788.86085.116788.643799 0 1.133085-.156935 1.460503-.470804.327417-.31387.555506-.795624.680587-1.452561l.544469-2.799282h-1.305991l-.47825 2.532857c-.073577.401462-.183942.671536-.331096.810223-.147154.142336-.32006.211679-.529754.211679-.389958 0-.588616-.186132-.588616-.551097 0-.138687.011037-.270074.03311-.390513l.504002-2.613149zm5.801544 0-2.3655 4.646005h1.394284l.323738-.759128h1.368532l.055182.759128h1.269203l-.665871-4.646005zm3.406613 0-.890281 4.642355h1.302312l.356848-1.886869h.066219c.110366 0 .206016.032847.283271.09854.080935.062044.194979.291972.349491.689784.15819.397812.290629.762777.404673 1.098545h1.368532c-.364206-1.062048-.680587-1.715336-.941785-1.948913.44514-.076643.7652-.251826.967537-.5219.202336-.273724.305344-.587594.305344-.952559 0-.335768-.09565-.620441-.28695-.861318s-.489287-.357665-.901318-.357665zm1.114691.941609h.658513c.235447 0 .389958.032847.459856.098541.069898.069343.106687.164234.106687.281023 0 .094891-.029431.189782-.088292.288322-.058862.102191-.150833.171534-.272235.21533-.117723.040146-.386279.062044-.79831.062044h-.246483zm-17.717332.262775h.011037l.128759 1.693438h-.86085zm13.692672 0h.011037l.128759 1.693438h-.86085zm0 0" fill="#bf0d3e" stroke="#bf0d3e" stroke-width=".1" transform="matrix(1.061813 0 0 1.070308 -.700438 -.716479)"/><path d="m35.303373 1.089123c-1.637087-.025547-5.584491.124088-9.726874 1.667891-1.843103-.580295-1.990257.463505-1.990257.83212-4.230675 2.069352-8.317875 5.824842-10.021181 12.613193 0 0-3.741389 16.700801 14.49466 22.226372 0 0-.890281-1.729934-.824062-3.76279.069899-2.036505 1.504649-4.197098 1.824709-4.062061 1.453145.624091 2.792246 1.459861 3.667811 1.963512.875566.507302 4.543377 3.13505 8.957995 3.86863 1.938753.324819 1.133085.266425 3.093911.434308 1.611335.138687 3.80025.171534 5.532987-1.175187.794631-.620441 2.093265-3.277386 2.534726-4.313887 0 0-.217052-5.529221 3.454439-10.86866 0 0 3.494905-1.638693 3.22267-4.332135 0 0 .974895-1.324823 1.401641-2.40512 0 0-2.501616-2.218988-5.238679-4.124105 0 0 .088292-.354016.1913-.824821 0 0-1.879891-1.868621-6.426947-4.291989 0 0-5.775791-3.354029-13.350539-3.412424 0 0-.28695-.021898-.79831-.032847zm-3.884863 37.678994c-1.173553 0-1.846782.248176-2.034403.744529l-2.840071 7.448937h1.986578l1.40532-3.697097h1.876212l-1.408999 3.697097h1.986578l2.840071-7.448937c.187621-.496353-.297987-.744529-1.46786-.744529zm-.058862.759127h1.876212l-1.103654 2.897823h-1.872534zm12.967939 1.372269-2.310317 6.065719h3.005619c.879245 0 1.394283-.20438 1.548795-.613141l.732091-1.916067c.051503-.131387.044146-.255475-.018395-.354016-.055182-.094891-.15819-.145986-.290629-.145986.132439 0 .25752-.040146.386279-.113139.132439-.069343.217052-.160585.264877-.284673l.772559-2.025556c.154511-.408761-.198658-.613141-1.052151-.613141zm-3.881185.007299c-.868208 0-1.361174.182483-1.504649.547448l-2.096943 5.507323h1.46786l1.041114-2.733589h1.386926l-1.041114 2.733589h1.46786l2.096944-5.507323c.139796-.364965-.217052-.547448-1.08526-.547448zm-5.051058.00365-2.306638 6.05477h3.35511l.231767-.613141h-1.876212l2.07487-5.441629zm18.887205 0-2.306638 6.051121h1.464182l1.644445-4.069361-.28695 4.069361h1.541437l2.589909-3.737243-1.24713 3.737243h1.467861l2.310316-6.051121h-2.354462l-2.707632 3.751841.106686-3.751841zm-3.837038.003649c-.868208 0-1.364853.182483-1.504649.551098l-2.096943 5.503673h1.46786l1.037435-2.733588h1.390605l-1.041114 2.733588h1.464181l2.100622-5.503673c.139796-.368615-.217052-.551098-1.08526-.551098zm12.857573 0c-.864529 0-1.361174.182483-1.50097.551098l-2.100622 5.503673h1.46786l1.041114-2.733588h1.386926l-1.041114 2.733588h1.46786l2.096944-5.503673c.139796-.368615-.217053-.551098-1.085261-.551098zm-22.897149.551098h1.386926l-.816705 2.142345h-1.386925zm9.999108.010949h1.386926l-.816704 2.138695h-1.386926zm12.857574 0h1.386925l-.816704 2.138695h-1.386926zm-17.698937.036496h1.386925l-.809346 2.116798h-1.386926zm-1.004326 2.638698h1.383247l-.835099 2.200739h-1.386925zm-43.127134 4.146003 1.817351 1.076647h30.284276l.007358-1.076647zm0 0" fill="#00205b" stroke="#00205b" stroke-width=".2" transform="matrix(1.061813 0 0 1.070308 -.700438 -.716479)"/><path d="m36.292969 1.335938s-4.097657.019531-7.5625 1.121093c0 0 5.890625.835938 6.121093.875 0 0-5.15625-.175781-5.714843-.234375 0 0-3.445313-.464844-3.753907-.484375 0 0-.789062-.152343-.539062.738281 0 0 .734375 2.152344 2.832031 4.828126 0 0 1.113281 1.726562 1.308594 2.171874 0 0-.210937.214844-.441406-.078124 0 0-3.351563-4.265626-4.042969-6.070313 0 0-7.984375 3.589844-9.917969 13.800781 0 0-1.957031 13.496094 10.117188 19.679688 0 0-10.273438-7.273438-.511719-16.617188 0 0-3.222656 5.484375 1.566406 7.828125 0 0 4.421875 1.222657 7.441406 3.238281 0 0 5.675782 3.78125 9.023438 4.808594 0 0 3.117188 1.105469 4.925781 1.242188 0 0 2.597657.503906 4.621094-.699219 0 0 2.125-1.46875 2.792969-4.960937 0 0-5.988282 2.925781-13.953125.171874 0 0-3.761719-1.121093-3.515625-4.515624 0 0 .875-5.820313 10.304687-7.140626 0 0 1.0625-.171874 2.714844.058594 0 0 5.230469.542969 7.15625-.039062 0 0 .558594-.058594 1.019531-.386719 0 0 2.175782-1.957031 2.636719-4.808594l-2.09375-1.804687 3.617187.269531-1.316406 1.496094s.097656 2.78125-1.929687 4.582031c0 0 2.585937-.957031 2.816406-4.003906 0 0 1.265625-1.800782 1.394531-2.179688 0 0-5.417968-4.269531-5.636718-4.390625 0 0 .183593-.996093.339843-1.042969 0 0-6.617187-4.183593-7.753906-4.65625 0 0-6.101563-2.816406-14.066406-2.796874zm-9.089844 2.5625c.558594.039062 5.921875 1.644531 5.921875 1.644531-4.839844-1.71875-.136719 7.96875-3.089844 4.179687-2.957031-3.792968-3.183594-5.847656-2.832031-5.824218zm17.574219 3.066406 3.140625 1.722656-.410157 1.015625 1.929688-.203125 3.269531 1.785156-8.921875-1.699218zm-26.289063 8.269531c.167969 0 .253907.152344.371094.589844.152344.582031-.179687 1-.179687 1-.035157.429687-.628907.789062-.875.515625-.242188-.273438-.378907-.6875-.289063-.996094.09375-.308594.4375-.941406.765625-1.0625.082031-.03125.148438-.046875.207031-.046875zm31.003907 1.066406c4.777343.066407 8.101562.691407 8.101562.691407-.355469.390624-.996094 1.097656-.996094 1.097656-14.535156-3.546875-28.757812 3.214844-28.757812 3.214844 6.960937-4.261719 15.507812-5.09375 21.652344-5.003907zm-1.140626 1.921875c4.050782-.074218 6.9375.484375 6.9375.484375l-.851562.667969c-9.21875-2.308594-20.003906 2.152344-20.003906 2.152344 4.652344-2.523438 9.867187-3.230469 13.917968-3.304688zm-28.679687.535156c.09375.03125.203125.140626.371094.351563.335937.421875.214843.902344.214843.902344.125.367187-.222656.898437-.519531.765625-.296875-.128906-.554687-.421875-.59375-.710938-.035156-.289062.019531-.949218.238281-1.175781.109376-.113281.191407-.164063.289063-.132813zm-3.042969.425782c.105469.03125.226563.140625.414063.339844.378906.398437.273437.832031.273437.832031.152344.34375-.203125.8125-.527344.679687-.324218-.132812-.613281-.410156-.664062-.675781-.054688-.269531-.023438-.867187.203125-1.066406.113281-.097657.199219-.140625.300781-.109375zm30.929688 2.164062 4.460937 1.636719.042969 3.382813 2.289062-3.765626.296876.902344.589843-.980468.300781.847656.640626-.925782-.136719 2.277344 2.171875-3.300781c-3.5 1.183594-10.65625-.074219-10.65625-.074219zm-28.382813.773438c.121094 0 .203125.097656.355469.382812.203125.378906.035156.652344.035156.652344.046875.28125-.320312.519531-.539062.339844-.21875-.179688-.378906-.449219-.363282-.648438.015626-.203125.160157-.621094.375-.695312.050782-.019532.09375-.03125.136719-.03125zm-2.277343.792968c.109374.035157.234374.15625.425781.390626.382812.460937.253906.984374.253906.984374.148437.40625-.242187.980469-.582031.832032-.335938-.144532-.628906-.464844-.675782-.78125-.046874-.320313.007813-1.039063.257813-1.285156.121094-.121094.214844-.175782.320313-.140626zm23.929687 4.347657c-.210937-.011719-.382813.050781-.382813.050781-1.621093.472656-.261718 1.742188-.261718 1.742188-1.808594-.628907-2.351563-1.253907-2.351563-1.253907.152344 5.386719 7.734375 4 7.734375 4-3.792968-1.167969-4.101562-4.140625-4.101562-4.140625-.164063-.296875-.421875-.382812-.632813-.394531zm10.585937 1.445312-1.226562 3.410157s-.59375.402343-1.515625.53125c-.9375.128906-2.207031-.011719-2.207031-.011719l-5.140625-.117188s8.476562 2.191407 13.019531-.589843l.320312-2.832032-1.34375 2.074219-.152343-.394531-.460938.480468-.421875-.570312-.414062.765625zm-26.59375.859375c-.589843-.042968-1.308593.175782-1.792968 1.214844 0 0-1.136719 2.386719.511718 4.316406 0 0 2.019532 2.265625 3.460938 3.007813 0 0-2.828125-3.765625 2.136719-6.734375l-3.25-1.46875s-.472657-.296875-1.066407-.335938zm0 0" fill="#fff"/></svg>