<svg height="106pt" viewBox="0 0 70 106" width="70pt" xmlns="http://www.w3.org/2000/svg"><path d="m15.460938.480469-14.894532 14.460937v38.855469l12.949219 13.105469h5.9375c-.144531.394531-.335937 1.003906.078125 1.597656.449219.660156 1.222656.660156 1.519531.660156.347657 0 .832031-.042968 1.574219-.144531h.007812s.3125.273437-.632812.582031c-.78125.273438-1.464844.722656-1.6875 1.496094-.015625.058594-.019531.117188-.035156.167969h-19.703125l-.007813 19.859375 14.894532 14.511718h39.175781l14.894531-14.492187v-37.214844l-12.949219-13.089843h-10.980469c-.007812 0-.019531-.003907-.019531-.003907-.484375-.289062-.980469-.589843-1.4375-.882812l-.167969-.105469-.027343-.019531c-.246094-.148438-.503907-.335938-.789063-.578125-.246094-.195313-.449218-.386719-.601562-.558594l-.042969-.042969c-.289063-.300781-.542969-.589843-.734375-.839843 1.710938.484374 3.578125.609374 4.476562.636718h.105469c.058594 0 .117188.011719.167969.011719l.078125.003906c.21875.015625.382813.050781.492187.085938.113282.042969.21875.09375.3125.136719l.460938.171874c.109375.03125.226562.035157.347656.035157.671875 0 1.300782-.402344 1.589844-1.03125.09375-.214844.238281-.644531.132812-1.210938l19.585938.015625v-21.695312l-14.894531-14.484375zm0 0" fill="#8c1515"/><path d="m67.753906 15.730469-13.835937-13.457031h-37.738281l-13.839844 13.433593v37.351563l11.910156 12.042968 7.679688.007813c-.859376.769531-1.128907 1.5625-1.265626 1.949219-.296874.855468-.609374 1.097656 2.089844.726562.851563-.121094 2.40625-.667968 3.136719-1.15625.714844-.488281 2.132813-.09375 2.011719.960938-.667969 1.613281-2.371094 2.625-4 2.824218-3.746094.46875-2.125 1.851563-2.125 1.851563.410156.28125.707031.550781.917968.796875h-1.820312v-.007812h-18.527344l-.007812 17.300781 13.832031 13.480469h37.746094l13.832031-13.460938v-35.703125l-11.910156-12.03125h-9.621094c-.769531-.511719-1.800781-1.078125-2.742188-1.6875 0-.003906 0-.003906-.007812-.003906-.359375-.210938-.714844-.46875-1.054688-.761719-.28125-.222656-.535156-.457031-.753906-.695312-.832031-.859376-1.453125-1.757813-1.617187-2.171876-.3125-.761718-.238281-1.722656.460937-1.328124 1.78125 1.019531 4.699219 1.210937 5.785156 1.25.121094 0 .996094.097656 1.207032.164062.21875.085938.550781.242188.550781.242188.441406.1875 1.234375-.414063.316406-1.527344-.238281-.378906-.597656-.816406-1.027343-1.261719h20.414062v-19.128906" fill="#fff"/><path d="m16.890625 4.066406-12.773437 12.410156v35.832032l10.875 11h10.207031c1.742187-.757813 2.113281-.695313 2.597656-1.664063.070313-.152343.144531-.597656.152344-1.03125.019531-.121093.238281-1.429687-.398438-1.109375-1.09375.542969-3.296875-.894531-4.945312-.039062-1.648438.84375-.441407-1.117188-.210938-1.457032 0 0 .882813-1.152343 2.210938-1.914062.050781-.027344.097656-.054688.132812-.085938.128907-.070312.257813-.132812.398438-.199218 1.011719-.46875 3.894531-2.371094 4.417969-2.96875.308593-.34375.859374-1.132813.878906-1.570313.09375-.378906.167968-.980469-.199219-1.21875-.550781-.359375-.992187.34375-1.851563.726563-.863281.378906-1.511718.535156-2.277343.5625-.738281.023437-1.449219-.253906-1.886719-.191406-.441406.074218-.703125-.257813.105469-1.070313.371093-.367187.53125-.53125.703125-.652344 1.921875-1.222656 3.652344-1.238281 4.621094-3.414062 0 0 .75-1.949219-.703126-1.117188-.792968.457031-1.226562 1.117188-3.507812 1.117188-2.269531 0-3.160156 1.070312-3.542969 1.535156 0 0-1.546875 2.144531-1.164062-.859375.390625-2.996094.976562-4.523438 2.402343-5.695312 1.230469-1 4.28125-2.347657 5.378907-3.832032.5625-.554687 1.980469-2.160156 1.15625-3.519531-.347657-.574219-1.191407.910156-2.066407 1.101563-1 .261718-2.261718.582031-3.234374.386718-1.199219-.234375-1.964844.214844-2.414063.417969s-1.292969-.4375-.261719-1.605469c1.390625-1.570312 4.746094-3.621094 7-4.847656.3125-.128906 1.070313-.460938 1.765625-.898438.015625-.003906.027344-.011718.035157-.011718.175781-.082032.425781-.230469.570312-.425782.492188-.40625.832031-.867187.71875-1.332031-.101562-.421875-.3125-.566406-.976562-.636719-.527344-.050781-1.402344.558594-2.140626.5-1.128906-.09375-2.785156.164063-2.234374-.628906.511718-.738281 1.34375-1.214844 1.582031-1.34375.464843-.207031 1.085937-.480468 2.003906-.886718 1.4375-.644532 1.234375-2.265626.679687-2.324219-.867187-.09375-3.210937.652343-1.5625-1.210938 0 0 .78125-.78125 1.570313-1.292969.621094-.355468 1.132813-.492187 1.75-.714843.382813-.136719 1.386719-1.019531-1-1.113281 0 0-1.328125.039062-1.074219-.570313.207032-.402344 1.378906-1.132813 1.378906-1.132813s.941407-.640624 1.324219-1.019531c.367188-.351562.628907-.632812.605469-.945312-.011719-.359375-.953125-.804688-1.351562-1.304688-.28125-.359375-.042969-.488281.117187-.53125.085937-.015625.1875-.03125.308594-.03125.96875.007813 1.246093-.953125 1.8125-3.445312.164062-.746094.175781-.90625.421875-.914063.023437 0 .039062.007813.050781.007813 0 0 .238281 1.261719.585937 2.675781.296876.78125.621094 1.109375 1.195313 1.105469.113281 0 .21875.011719.304687.027343.15625.042969.402344.171876.113282.53125-.21875.277344-.867188.730469-.917969 1.003907-.1875.773437.558594 1.054687 1.316406 1.109375 1.078125.074218.628907.738281-.535156 1.59375-1.121094.824218 1.75 2.585937 1.75 2.585937 1.632813 1.257813.46875 1.578125.136719 1.757813-.332032.171875-1.25.730468-.332032 1.089844.925782.351562 2.199219 1.621093 2.199219 1.621093 1.640625 1.863281-.699219 1.125-1.5625 1.210938-.558593.058593-.757812 1.683593.679688 2.324219 2.1875.980468 2.675781 1.144531 3.449219 1.71875 1.441406 1.0625.675781 1.964843-1.128907 1.648437 0 0-1.15625-.285156-1.964843-.128906-.507813.09375-.855469.210937-1.09375.332031-.125.1875-.410157.925781 2.101562 1.691406 1.203125.371094 2.691406 1.269532 4.015625 2.292969l20.625-.019531-.003906-16.570313-12.777344-12.425781h-36.308594zm31.144531 40.363282c.59375.976562.9375 2.25 1.191406 4.125.007813 1.125-1.488281.578124-1.976562.285156-.335938-.230469-.785156-.441406-1.363281-.578125-1.09375-.261719-3.695313-1.394531-4.402344-1.644531-.726563-.265626-1.253906.265624-1.339844.46875h.007813c-.1875.339843.195312 1.03125.195312 1.03125 1.023438 2.292968 2.902344 2.171874 4.964844 3.640624 2.84375 2.007813 1.324219 2.433594.738281 2.132813-.574219-.308594-1.53125-.117187-1.53125-.117187-2.292969.625-2.976562-.320313-4.324219-.675782-1.335937-.359375-.238281 1.292969.246094 1.84375.515625.59375 3.40625 2.503906 4.410156 2.96875 2.195313 1.011719 3.335938 2.652344 4.015626 4.738282.644531 1.972656-.058594 1.542968-.582032 1.300781-.519531-.246094-.671875-.777344-1.964844-.746094-1.300781.027344-2.03125-.066406-2.957031-.789063-.246093-.1875-.441406-.402343-.609375-.582031-.011718-.007812-.019531-.011719-.027344-.019531-.886718-.675781-.714843 1.5625-.535156 1.925781.644532 1.285157 1.078125.761719 4.78125 2.71875 1.753906.929688 2.167969 2.179688 2.355469 2.703125.296875.847656.601563 1.089844-2.089844.71875-.859375-.117187-2.40625-.660156-3.144531-1.15625-.707031-.484375-2.132812-.09375-2.003906.960938.664062 1.613281 2.371094 2.625 4 2.824218 1.425781.179688 2.070312.488282 2.328125.804688.777343.878906-.667969 2.171875-.667969 2.171875-.722656.832031.0625 1.808594.59375 2.09375.871094.4375 2.554688 1.441406 3.113281 2.875 2.917969 7.457031.089844 5.316406-1.292969 4.464844-1.382812-.851563-4.027343-3.042969-6.433593-2.851563-2.40625.1875-3.210938.316406-4.640625-.8125-1.425782-1.125-1.285156.699219-1.285156.699219v8.988281c.085937 2.015625.460937 3.933594 2.074218 5.5625 1.320313 1.34375 2.328125 1.089844 4.195313 3.351563.855469 1.039062 3.664062 2.15625 5.535156 2.179687l3.59375.003906 12.777344-12.425781v-34.207031l-10.867188-10.976562zm-43.910156 30.421874-.007812 14.734376 12.777343 12.433593h4.105469c3.859375-.1875 5.308594-3.15625 6.476562-4.980469.882813-1.386718 2.445313-2.5625 3.4375-3.566406 1.046876-1.054687 1.234376-3.464844 1.265626-6.074218v-5.445313l.007812.054687v-1.304687h.003906v-.867187h.003906v-2.550782c0-.546875-.636718-.589844-2.027343.902344-1.394531 1.484375-3.730469 1.359375-5.082031 1.484375-1.351563.117187-5.242188 2.128906-6.355469 3.570313-.6875.894531-1.664063.15625-1.265625-1.609376h-.015625c.191406-.792968.535156-1.863281 1.09375-3.273437.765625-1.972656 3.644531-3.125 3.644531-3.125s.296875-.132813.554688-.382813zm0 0" fill="#8c1515"/></svg>