<svg height="94pt" viewBox="0 0 70 94" width="70pt" xmlns="http://www.w3.org/2000/svg"><path d="m69.648438 32.480469v-18.832031l-13.949219-13.300782h-41.847657l-13.511718 13.3125v31.210938l13 13.070312h30.214844v13.46875h-16.933594v-9.808594l-26.28125.003907v18.820312l13.511718 13.3125h41.847657l13.949219-13.300781v-31.222656l-13-13.074219h-30.023438v-13.464844h16.929688v9.808594zm0 0" fill="#0c233f"/><path d="m45.4375 30.617188h22.332031v-16.171876c-.367187-.351562-12.472656-11.894531-12.820312-12.230468h-40.316407c-.355468.347656-12.054687 11.871094-12.410156 12.226562v29.664063c.34375.347656 11.550782 11.621093 11.902344 11.972656h31.308594v17.199219h-20.691406v-9.804688c-1.15625 0-21.367188 0-22.519532 0v16.175782c.351563.351562 12.054688 11.878906 12.40625 12.226562h40.316406c.347657-.332031 12.453126-11.878906 12.820313-12.234375v-29.65625c-.34375-.347656-11.554687-11.621094-11.90625-11.972656h-31.117187v-17.199219h20.691406v9.804688zm0 0" fill="#d44500"/></svg>