<svg height="34pt" viewBox="0 0 69 34" width="69pt" xmlns="http://www.w3.org/2000/svg"><path d="m33.714844.3125c-2.113282 0-3.742188.132812-4.082032.15625l-.109374.011719-.347657.019531-.242187.253906-5 5.1875-.253906.265625v15.058594l.246093.257813 4.714844 5.03125.292969.324218.4375-.039062.148437-.015625c.183594-.015625 1.890625-.152344 4.105469-.152344 1.472656 0 2.820312.0625 4.007812.183594l.136719.019531.449219.058594 5.476562-5.664063v-5.257812l-6.757812-.765625v3.035156c-.367188.371094-1.011719 1.023438-1.386719 1.394531-.589843-.023437-1.203125-.03125-1.832031-.03125-.828125 0-1.5625.019531-2.117188.039063-.308593-.328125-.777343-.828125-1.070312-1.132813v-9.507812c.160156-.164063.367188-.378907.59375-.613281.382812-.402344.808594-.84375 1.074219-1.121094.515625-.015625 1.03125-.023438 1.535156-.023438.492187 0 .984375.007813 1.460937.023438.433594.433594 1.296876 1.304687 1.742188 1.742187v2.574219l.8125.082031 4.953125.5.992187.097657v-6.09375l-.253906-.265626-4.894531-5.152343-.246094-.257813-.347656-.023437-.09375-.003907c-1.261719-.128906-2.648437-.195312-4.144531-.195312zm-11.414063.550781-1.019531.132813-.355469.050781c-10.875 1.464844-19.601562 5.335937-19.964843 5.496094l-.191407.085937-.527343.242188v11.578125l1.28125-.605469.445312-.210938c.558594-.265624 2.085938-.972656 4.34375-1.84375l.195312-.070312.59375-.214844v-3.824218c.339844-.121094.664063-.238282.980469-.351563v13.183594c-.769531.316406-2.855469 1.238281-2.855469 1.238281v7.886719l1.292969-.640625.445313-.21875c3.222656-1.554688 6.5625-2.902344 9.914062-4l.207032-.0625.648437-.191406v-7.308594s-2.449219.730468-2.898437.871094v-12.789063c.359374-.089844.695312-.175781 1.019531-.253906v3.722656l1.101562-.25.386719-.09375c1.390625-.320313 2.71875-.585937 3.945312-.789063l.261719-.042968.75-.128906zm22.609375.09375v7.109375l.78125.109375.273438.035157.011718.003906h.007813c.160156.019531.457031.058594.875.128906v14.03125l.128906.214844 3.722657 6.226562.183593.304688.347657.101562.117187.03125c.601563.167969 3.792969 1.113282 7.085937 2.78125l.191407.097656.53125.269532.453125-.398438 6.289062-5.480468.316406-.269532v-11.976562c.230469.117187 2.464844 1.246094 2.464844 1.246094v-7.738282l-.507812-.253906-.179688-.082031c-2.472656-1.242188-5.425781-2.382813-8.765625-3.394531l-.410156-.125-1.152344-.335938v7.308594l.617188.203125c.351562.121093.804687.265625 1.160156.386719v11.597656c-.351563.304687-.914063.796875-1.300781 1.140625-.785156-.296875-2.226563-.84375-2.847656-1.078125-.347657-.578125-1.136719-1.914063-1.449219-2.429688v-10.894531c.539062.136719 1.074219.269531 1.113281.277344l1.117188.285156v-7.242187l-.703126-.160157-.21875-.054687c-4.132812-1.03125-7.574218-1.574219-8.863281-1.761719l-.351562-.050781zm0 0" fill="#4d1979"/><path d="m33.714844.984375c-2.109375 0-3.730469.128906-4.03125.15625l-.210938.011719-5.128906 5.324218v14.523438l4.855469 5.179688.261719-.023438c.1875-.015625 1.914062-.15625 4.164062-.15625 1.503906 0 2.875.066406 4.082031.1875l.265625.035156 5.054688-5.222656v-4.390625l-5.421875-.613281v2.566406c-.316407.316406-1.46875 1.46875-1.796875 1.796875-.664063-.027344-1.363282-.046875-2.085938-.046875-.980468 0-1.828125.027344-2.390625.058594l-.265625-.28125c-.386718-.414063-.984375-1.042969-1.195312-1.273438v-10.042968c.125-.132813.390625-.410157.695312-.726563.511719-.535156 1.128906-1.175781 1.34375-1.398437 1.226563-.042969 2.4375-.042969 3.566406 0 .339844.339843 1.773438 1.773437 2.128907 2.128906v2.242187l5.421875.542969v-5.085938l-5.027344-5.289062-.195312-.011719c-1.234376-.128906-2.609376-.191406-4.089844-.191406zm0 .472656c1.460937 0 2.820312.066407 4.050781.191407h.023437l4.769532 5.019531v4.375l-4.484375-.453125v-2.011719l-.070313-.070313c-.160156-.164062-2.109375-2.117187-2.261718-2.265624l-.0625-.0625h-.09375c-1.191407-.050782-2.480469-.050782-3.789063 0h-.097656l-.066407.070312c-.089843.097656-.816406.851562-1.402343 1.46875-.382813.394531-.707031.726562-.765625.792969l-.066406.066406v10.429687l.066406.070313c.105468.113281.820312.867187 1.261718 1.339844l.410157.4375.109375-.003907c.5625-.03125 1.441406-.0625 2.476562-.0625.75 0 1.484375.015626 2.171875.046876l.101563.011718.074218-.074218c.175782-.171876 1.785157-1.792969 1.933594-1.949219l.070313-.066407v-2.230468l4.484375.503906v3.773438l-4.757813 4.921874-.035156-.011718c-1.234375-.125-2.625-.1875-4.140625-.1875-2.265625 0-4.007812.144531-4.203125.160156h-.03125l-4.570313-4.878906v-14.140625l4.863282-5.050781.03125-.003907c.300781-.023437 1.90625-.15625 4-.15625zm-12.078125.167969-.625.082031c-10.78125 1.457031-19.421875 5.289063-19.785157 5.449219l-.324218.148438v10.089843l.78125-.371093c.566406-.265626 2.113281-.980469 4.394531-1.863282l.359375-.128906v-3.824219c.84375-.308593 1.601562-.574219 2.308594-.8125v14.574219c-.917969.371094-1.75.722656-2.53125 1.066406l-.324219.148438v6.378906l.78125-.382812c3.261719-1.574219 6.628906-2.933594 10.007813-4.039063l.386718-.117187v-5.910157l-.699218.210938c-.714844.207031-1.457032.433593-2.195313.675781v-14.222656c.890625-.234375 1.648437-.417969 2.347656-.574219v3.722656l.675781-.15625c1.410157-.324219 2.75-.589843 3.984376-.796875l.457031-.078125zm23.941406.117188v5.738281l.480469.070312c.234375.027344.734375.101563 1.464844.226563v14.414062l3.804687 6.363282.207031.054687c.617188.171875 3.855469 1.128906 7.210938 2.828125l.320312.160156 6.492188-5.652344v-12.730468c.574218.265625 1.125.535156 1.671875.824218l.792969.402344v-6.238281l-.304688-.148437c-2.449219-1.234376-5.367188-2.359376-8.675781-3.359376l-.703125-.207031v5.925781l.160156.054688s1.179688.394531 1.613281.542969v12.382812c-.332031.292969-1.4375 1.261719-1.824219 1.601563-.628906-.242188-2.960937-1.121094-3.433593-1.296875-.25-.421875-1.445313-2.425781-1.660157-2.792969v-11.9375c.625.15625 1.9375.492188 1.9375.492188l.292969.074218v-5.855468l-.414062-.09375c-4.117188-1.027344-7.527344-1.5625-8.800781-1.75zm-24.414063.425781v8.328125l-.058593.007812c-1.25.207032-2.59375.476563-4.011719.804688l-.101562.019531v-3.714844l-.285157.0625c-.828125.179688-1.726562.402344-2.832031.6875l-.175781.046875v15.238282l.3125-.097657c.832031-.273437 1.671875-.535156 2.492187-.769531l.09375-.035156v4.925781l-.054687.015625c-3.40625 1.109375-6.796875 2.480469-10.074219 4.0625l-.109375.050781v-5.308593l.046875-.019532c.820312-.367187 1.6875-.734375 2.660156-1.128906l.148438-.058594v-15.546875l-.308594.097657c-.839844.285156-1.75.605468-2.785156.984374l-.160156.054688v3.824219l-.046876.019531c-2.296874.882812-3.859374 1.609375-4.425781 1.878906l-.113281.050782v-9.035157l.046875-.027343c.359375-.160157 8.9375-3.964844 19.652344-5.40625zm24.886719.125.09375.011719c1.265625.1875 4.660157.722656 8.753907 1.742187l.054687.011719v4.867187c-.554687-.144531-1.726563-.445312-1.933594-.496093l-.292969-.078126v12.679688l.027344.058594c.082032.140625 1.628906 2.738281 1.742188 2.929687l.042968.066407.074219.03125c.175781.0625 3.324219 1.25 3.640625 1.371093l.128906.050781.109376-.089843c.230468-.207031 1.835937-1.609375 2.015624-1.769531l.078126-.070313v-12.941406l-.160157-.050781c-.035156-.019532-1.183593-.402344-1.613281-.542969v-4.953125l.101562.023437c3.277344.996094 6.167969 2.117188 8.59375 3.335938l.046876.019531v5.171875l-.113282-.058594c-.660156-.339843-1.320312-.664062-2.015625-.980469l-.335937-.15625v13.25l-6.089844 5.3125-.042969-.027343c-3.386719-1.71875-6.671875-2.6875-7.296875-2.859375l-.023437-.007813-3.648438-6.085937v-14.683594l-.1875-.03125c-.847656-.15625-1.421875-.234375-1.679687-.265625l-.070313-.011719zm0 0" fill="#fff"/></svg>