<svg height="36pt" viewBox="0 0 70 36" width="70pt" xmlns="http://www.w3.org/2000/svg"><path d="m69.035156.585938c-2.5-.6875-5.527344-.179688-7.960937.574218-4.648438 1.507813-8.617188 4.699219-12.9375 6.980469-2.28125.972656-5.417969 1.171875-7.523438-.15625-.503906-.363281-1.417969-.101563-1.417969-.101563-.289062-.222656-.617187-.308593-1.015624-.164062-1.050782.773438-2.148438-.421875-3.265626.199219-1.117187-.621094-2.214843.574219-3.265624-.199219-.398438-.144531-.726563-.058594-1.019532.164062 0 0-.914062-.261718-1.417968.101563-2.105469 1.328125-5.238282 1.128906-7.519532.15625-4.320312-2.28125-8.289062-5.472656-12.9375-6.980469-2.4375-.753906-5.460937-1.261718-7.960937-.574218-.332031.21875-.7031252.617187-.617188 1.105468.175781.289063.351563.6875.726563.753906 8.945312-1.351562 13.769531 7.621094 21.269531 9.992188.015625.097656-.421875.464844-.898437.722656-1.058594.59375-2.632813.363282-2.742188 1.824219.285156.910156 1.382812 1.242187 2.171875 1.597656 1.863281 1.0625 4.101563.175781 5.789063-.6875.199218-.199219.527343-.089843.679687.109375-.132813 4.101563 2.960937 6.824219 3.53125 10.636719.328125 1.773437-.765625 3.078125-.898437 4.742187-.015626.613282.460937.207032.714843 2.238282.109375.367187 1.023438 1.402344 1.851563 1.835937.761718.304688 1.644531.394531 2.542968.371094.898438.023437 1.78125-.066406 2.542969-.371094.824219-.433593 1.738281-1.46875 1.847657-1.835937.257812-2.03125.734374-1.625.71875-2.238282-.132813-1.664062-1.230469-2.96875-.898438-4.742187.570312-3.8125 3.660156-6.535156 3.527344-10.636719.15625-.199218.484375-.308594.683594-.109375 1.6875.863281 3.921874 1.75 5.789062.6875.789062-.355469 1.882812-.6875 2.167969-1.597656-.109375-1.460937-1.679688-1.230469-2.738281-1.824219-.476563-.257812-.914063-.625-.902344-.722656 7.5-2.371094 12.328125-11.34375 21.273437-9.992188.371094-.066406.546875-.464843.722657-.753906.085937-.484375-.285157-.886718-.617188-1.105468" fill="#bf5700"/></svg>