<svg height="81pt" viewBox="0 0 70 81" width="70pt" xmlns="http://www.w3.org/2000/svg"><path d="m14.488281.484375c-.769531 8.980469 1.742188 13.480469 1.832031 13.636719 0 0-2.070312-1.214844-3.746093-3.597656.957031 6.03125 5.523437 8.539062 5.523437 8.539062 2.164063 6.6875 5.234375 9.816406 5.234375 9.816406-19.632812 6.644532-21.777343 30.246094-21.777343 30.246094s6.253906-8.421875 16.863281-10.105469c-16.421875 5.5-17.972657 22.960938-17.972657 22.960938s7.757813-9.683594 24.671876-8.019531c-.113282-.101563 3.832031-5.847657 8.515624-7.546876 0 0-4.394531 4.058594-6.632812 7.996094 0 0 3.933594.6875 5.515625 1.152344 1.585937.46875 5.699219 1.738281 5.484375 4.085938-.34375 3.699218-7.808594 4.984374-7.832031 4.890624 5.0625 3.445313 10.359375 1.910157 10.417969 1.832032-.785157 1.753906-6.050782 2.953125-6.050782 2.953125s15.480469 5.847656 16.640625-7.578125c4.121094-2.96875 3.636719-7.421875 3.636719-7.421875s-1.949219 2.707031-5.742188 2.191406c-1.21875-.164063-6.769531-3.964844-5.042968-7.417969.570312-1.148437 4.824218-3.816406 10.664062-3.015625 2.636719.464844 3.808594 4.4375 3.785156 4.589844-.390624 2.402344-3.011718 6.453125-3.011718 6.453125s3.066406.363281 6.785156-2.625c1.421875.5625 1.695312.964844 2.652344.328125 1.808594-1.199219 2.265625-4.019531 2.417968-4.339844.886719-.476562 2.464844-1.960937 2.152344-6.003906-.253906-3.261719-2.027344-6.996094-4.609375-9.769531-1.859375-8.667969-4.761719-12.707032-19.550781-19.238282-18.042969-7.746093-23.507812-9.636718-30.824219-24.988281zm0 0" fill="#8c734a"/><path d="m17.902344 9.664062s.207031 11.453126 7.625 20.316407c-.171875.039062-.335938.078125-.496094.125-.039062-.03125-11.917969 1.742187-18.371094 22.304687 0 0 5.652344-7.234375 26.230469-5.28125-7.390625-.699218-22.859375 4.191406-27.628906 19.078125 0 0 5.109375-5.316406 18.378906-4.253906 1.648437-2.433594 6.730469-7.269531 15.535156-8.839844 0 0-4.996093 2.882813-8.457031 9.925781-.144531-.015624 1.578125.300782 3.84375 1.117188 0 0 10.957031 3.753906 1.546875 10.875 0 0 5.769531.699219 7.140625-2.367188 1.746094 2.601563-1.707031 5.164063-2.546875 5.699219 11.140625.757813 9.164063-7.355469 9.164063-7.355469 2.246093-1.003906 3.496093-4.386718 3.496093-4.386718-2.621093 1.972656-4.832031 1.234375-5.75.914062-.808593-.480468-8.023437-6.460937-5.984375-10.078125 1.839844-2.609375 8.046875-4.4375 12.015625-3.785156 3.90625.605469 5.945313 6.1875 5.976563 6.28125.527344 1.492187-1.9375 5.691406-2.199219 5.988281 0 0 2.785156-.191406 4.585937-2.910156 2.097657 1.753906 3.421876.332031 4.195313-3.179688 1.074219-5.257812-1.355469-5.578124-1.355469-5.578124s-.136718 1.324218-.703125 1.683593c-.5625.359375.46875-2.351562-.558593-4.023437 0 0 3.828124.339844 3.910156 4.910156.007812.40625-.152344 1.152344-.34375 1.847656 1.191406-.734375 1.105468-3.414062 1.105468-3.414062-.550781-6.609375-4.714843-9.808594-4.714843-9.808594-1.570313-7.527344-3.296875-11.613281-18.6875-18.542969-11.449219-5.152343-23.15625-9.027343-26.953125-17.265625zm0 0" fill="#501214"/><path d="m24.398438 21.445312c0 .039063-.398438 2.816407 3.371093 8.054688 4.484375-.722656 10.25-.503906 16.324219 2.136719-6.585938-5.628907-12.65625-5.617188-19.691406-10.191407zm28.894531 18.390626c0 2.578124.621093 4.816406 2.265625 5.980468 1.078125.757813 2.785156.570313 3.414062-.785156.363282-.777344-.210937-1.824219-.210937-1.875-.628907 1.769531-2.488281 2.417969-2.488281 2.417969s1.097656-1.980469 1.175781-3.722657c-1.851563-1.546874-4.15625-2.015624-4.15625-2.015624zm0 0" fill="#8c734a"/></svg>