<svg height="58pt" viewBox="0 0 70 58" width="70pt" xmlns="http://www.w3.org/2000/svg"><g fill="#500000"><path d="m61.753906 18.972656-5.160156 10.855469-5.15625-10.855469h-7.792969v4.914063h1.785157v15h-1.871094v4.914062h8.785156v-4.914062h-1.898438v-10.628907l6.191407 12.855469 6.191406-12.855469v10.628907h-1.867187v4.914062h8.785156v-4.914062h-1.871094v-15h1.871094v-4.945313zm0 0"/><path d="m7.765625 18.855469h10.457031v4.886719h-1.273437l6.515625 15.144531h2.664062v4.882812h-9.492187v-4.855469h1.414062l-1.046875-2.515624h-7.820312l-1.050782 2.515624h1.417969v4.886719h-9.4921872v-4.886719h2.6601562l6.519531-15.144531h-1.417969v-4.882812zm5.328125 8.429687-1.84375 4.230469h3.683594zm0 0"/><path d="m7.765625 0h54.128906v15.628906h-10.65625v-5.914062h-11.195312v37.34375h5.953125v10.65625h-22.445313v-10.65625h5.953125v-37.34375h-11.195312v5.914062h-10.65625v-15.628906zm0 0"/></g><g fill="#fff"><path d="m9.777344 2.199219h48.859375l-2.949219 2.285156h-43.585938zm0 0"/><path d="m35.625 5.285156 2.238281 2.230469v41.882813l-2.238281 2.230468zm0 0"/><path d="m59.769531 3.371094v10.257812l-2.238281-2.171875v-5.769531zm0 0"/><path d="m43.828125 49.199219v6.371093l-2.265625-2.140624v-1.859376zm0 0"/></g></svg>