<svg height="41pt" viewBox="0 0 69 41" width="69pt" xmlns="http://www.w3.org/2000/svg"><path d="m53.652344 3.121094s-.632813.640625-2.816406 1.78125c-2.183594 1.136718-4.648438 2.84375-4.648438 2.84375l-3.3125 1.636718-3.378906.925782-.917969 2.84375s1.199219-.070313 4.789063-1.492188c3.59375-1.425781 7.046874-3.699218 7.960937-4.339844.917969-.640624 2.464844-2.0625 2.464844-2.0625zm-24.285156 2.183594c-.574219.015624-1.390626.449218-1.882813.449218-.566406 0-2.609375.890625-2.960937.890625-.351563 0-2.675782.996094-3.0625 1.136719-.386719.144531-2.042969 1.066406-2.042969 1.066406s1.371093.605469 1.9375.605469c.5625 0 1.40625.355469 1.40625.355469l.882812-.746094 1.300781-1.210938s1.902344-.996093 2.328126-1.136718c.421874-.140625 2.394531-.855469 2.394531-.855469s.492187-.390625-.070313-.53125c-.070312-.019531-.148437-.023437-.230468-.023437zm0 0" fill="#ffda00"/><path d="m53.089844.328125c-1.835938.011719-3.667969.210937-5.964844.605469-3.792969.644531-5.929688 1.320312-9.421875 2.949218-4.445313.214844-6.984375.628907-11.265625 1.855469-3.664062 1.050781-5.695312 1.855469-9.085938 3.601563 1.234376.027344 1.9375.121094 3.136719.410156 1.140625.269531 1.773438.492188 2.835938.988281.28125-1.449219 3.433593-3.40625 5.367187-4.078125 2.609375-.90625 3.804688-1.167968 6.722656-1.703125-1.625.863281-2.511718 1.425781-4 2.515625-1.617187 1.183594-2.488281 1.917969-3.902343 3.339844l.511719.714844c3.753906-3.066406 6.203124-4.511719 10.703124-6.277344 5.253907-2.058594 8.558594-2.699219 14.191407-2.746094-2.140625 1.671875-3.417969 2.539063-5.769531 3.894532-2.230469 1.285156-3.488282 1.921874-5.871094 2.894531.355468-.65625.757812-1.222657 1.082031-2.039063l-7.445313 3.042969c-2.726562 1.113281-4.289062 1.679687-7.03125 2.753906 0 0-1.828124 3.332031-3.175781 5.175781 2.222657-1.003906 3.464844-1.605468 5.636719-2.722656 2.183594-1.117187 3.398438-1.785156 5.523438-3.015625-1.960938 2.183594-2.894532 3.210938-5.441407 5.195313-2.425781 1.882812-4.449219 2.964844-6.773437 4.164062-1.085938.625-1.117188.976563-1.117188.976563 1.746094-.738281 3.089844-1.386719 4.828125-2.300781 4.164063-2.191407 6.132813-3.617188 9.578125-6.3125 5.363282-1.191407 8.378906-2.449219 13.015625-5.414063 3.96875-2.535156 6.046875-4.351563 9.101563-7.949219-2.300782-.355468-4.136719-.53125-5.96875-.519531zm-.320313 4.054687-.246093.933594c-2.152344 1.597656-3.429688 2.421875-5.769532 3.71875-2.796875 1.550782-4.449218 2.3125-7.453125 3.398438.410157-.496094.714844-.886719 1-1.300782 2.851563-1.082031 3.964844-1.628906 6.644531-3.09375 2.351563-1.285156 3.636719-2.101562 5.824219-3.65625zm-23.613281 1.230469c-1.6875.496094-2.972656 1.019531-4.320312 1.859375-1.175782.734375-1.46875 1.085938-2.257813 1.941406-.398437-.183593-.636719-.265624-1.058594-.382812-.527343-.140625-.839843-.1875-1.386719-.21875 1.246094-.667969 1.972657-1.011719 3.285157-1.53125 2.167969-.859375 3.683593-1.335938 5.738281-1.667969zm-3.839844 6.039063-25.152344 11.210937 22.460938-7.753906zm0 0" fill="#15397f"/><path d="m154.864729 54.657913-28.393723 1.703012-8.639176 64.496464 29.466742-1.771132 1.554502-11.580481-14.692102.885566 2.159794-16.130928 12.642361-.749325 1.471961-11.049141-12.628604.76295 1.458205-10.708539-5.626469-3.106294 6.094195-.36785 13.59157-.803822zm-101.0701.912814-42.879475 12.220813.440212 14.005569 12.491038-3.569512 1.980957 63.992373 17.883644-5.109036-1.870904-60.436484-6.341815-1.771132 6.231762-1.771133 12.491037-3.569513-.440213-14.005569zm109.048957.681205-13.522786 63.243048 18.874122.06812c13.536543.054497 18.43391-2.806563 22.877308-23.596932l3.384135-15.817574c4.443398-20.790369.797886-23.774045-12.752413-23.828542zm-56.209668 1.389657-15.008504 2.602203-3.329109 64.591833 28.063564-3.719378.619049-11.784842-13.027547 1.566771-6.218005.885566 6.410598-4.427831zm112.047906 1.539523c-8.487852-.040872-13.935485 2.779316-16.549249 11.185382l-12.078337 38.76055c-3.219056 10.340688 2.600006 13.882952 14.788397 15.395227 12.188391 1.49865 19.699522-.395099 22.918578-10.735787l12.064581-38.746926c3.219056-10.340687-2.600007-13.882952-14.788398-15.395227-2.283604-.286106-4.402128-.449595-6.355572-.463219zm-141.858565 4.318838c-2.723816-.013624-6.039169.53134-9.904787 1.498651-12.367228 3.051797-19.121742 7.479628-19.121742 17.970181v39.305513c0 10.490553 6.754514 11.580481 19.121742 8.515059 12.353471-3.051797 19.121742-7.479628 19.121742-17.983805v-39.291889c0-7.22077-3.191542-9.986462-9.216955-10.01371zm92.183306 3.610385 6.039168.027249 3.824349.013624c3.150273.013624 3.549215 1.416905 2.531223 6.130842l-6.162978 28.828585c-1.004236 4.713937-1.994715 6.117218-5.144987 6.103594l-3.838105-.013624 8.006369-37.656998zm42.975771 2.207104 9.684681 1.19892c2.71006.340602 3.576729 1.076304 2.847626 3.446896l-11.583098 37.166531c-.742859 2.370592-1.980958 2.847435-4.691017 2.520457-2.723817-.340602-3.590486-1.089928-2.847627-3.446896l11.445532-36.771432zm-143.303013 6.403324c1.458205-.06812 2.063497.572212 2.063497 2.370593v37.711494c0 2.397841-1.073018 3.283407-3.824348 3.964612-2.765087.681204-3.824348.326978-3.824348-2.070863v-37.289147l-5.997899-1.948246 9.822247-2.438713c.687832-.163489 1.265612-.272482 1.760851-.29973zm0 0" fill="#ffda00" stroke="#15397f" transform="matrix(.283954 0 0 .286716 .162322 -.245533)"/></svg>