<svg height="79pt" viewBox="0 0 70 79" width="70pt" xmlns="http://www.w3.org/2000/svg"><path d="m68.070312.375c-.144531 0-14.675781.15625-33.167968.15625-18.492188 0-32.96875-.15625-33.113282-.15625l-1.507812-.015625.199219 1.492187c1.40625 10.640626 7.492187 15.617188 12.382812 19.613282.898438.734375 4.6875 4.070312 4.6875 4.070312v-10.191406c2.71875-.824219 5.53125-1.457031 8.394531-1.878906v50.089844c0 5.078124 4.171876 9.832031 6.667969 12.675781.292969.332031 1.375 1.519531 2.367188 2.617187 1.035156-1.1875 2.179687-2.488281 2.511719-2.875 2.410156-2.792968 6.4375-7.460937 6.4375-12.417968v-47.398438h3.757812v-2.003906c1.566406.335937 3.109375.734375 4.621094 1.195312 0 0 0 10.042969.007812 10.039063l3.902344-3.242188c5.8125-4.796875 11.820312-9.757812 13.160156-20.296875l.191406-1.488281z" fill="#fff"/><path d="m34.902344 1.835938c-18.714844 0-33.125-.15625-33.125-.15625 1.59375 12.066406 9.59375 16.542968 14.464844 20.921874v-8.226562c3.539062-1.136719 7.234374-1.945312 11.011718-2.40625v51.582031c0 5.78125 6.386719 11.554688 7.707032 13.449219 1.539062-2.226562 7.660156-7.734375 7.660156-13.449219v-51.578125c3.769531.460938 7.460937 1.269532 10.996094 2.40625v8.222656c6.347656-5.34375 13.058593-9.871093 14.464843-20.917968 0 0-14.464843.15625-33.179687.15625"/><path d="m34.902344 3.902344c-17.722656 0-30.632813.121094-30.632813.121094 1.21875 6.039062 4.792969 10.105468 9.992188 14.378906v-5.449219c4.894531-1.710937 9.9375-2.742187 14.9375-3.179687-.003907.003906-.015625 53.777343-.015625 53.777343 0 3.933594 3.996094 8.261719 5.738281 10.433594 2.707031-3.339844 5.769531-6.699219 5.769531-10.511719l-.003906-53.683594c5.261719.46875 10.3125 1.558594 14.910156 3.164063v5.453125c5.195313-4.277344 8.773438-8.34375 9.992188-14.382812 0 0-12.960938-.121094-30.6875-.121094" fill="#fff"/><path d="m4.269531 4.023438c1.21875 6.039062 4.792969 10.105468 9.988281 14.378906-4.09375-4.988282-3.363281-8.546875-3.363281-8.546875-3.878906-2.054688-6.625-5.832031-6.625-5.832031zm6.625 5.832031s.445313 2.070312 3.367188 3.09375c4.894531-1.707031 9.9375-2.738281 14.9375-3.175781 2.535156-1.726563 5.71875-3.054688 5.722656-3.058594-12.03125.003906-24.027344 3.140625-24.027344 3.140625zm24.027344-3.140625v67.269531c2.707031-3.335937 5.769531-6.699219 5.769531-10.511719l-.003906-53.683594c5.261719.46875 10.3125 1.558594 14.910156 3.164063 2.917969-1.023437 3.367188-3.097656 3.367188-3.097656s-12.003906-3.136719-24.035156-3.136719h-.007813zm24.039063 3.140625s.730468 3.558593-3.363282 8.546875c5.195313-4.273438 8.773438-8.339844 9.992188-14.378906 0 0-2.746094 3.777343-6.628906 5.832031zm0 0" fill="#b2b3b5"/></svg>