<svg height="50pt" viewBox="0 0 69 50" width="69pt" xmlns="http://www.w3.org/2000/svg"><path d="m48.757812.285156c-4.25 0-8.527343 1.007813-12.050781 2.839844-6.6875 3.476562-10.457031 10.484375-11.769531 13.335938l-1.304688 2.839843-1.453124 1.511719c-1.269532 1.320312-2.121094 2.816406-2.53125 4.394531l-2.441407 3.921875s-4.253906-4.257812-4.351562-4.355468c-.0625-.503907-.195313-1.003907-.425781-1.433594-.375-.675782-.953126-1.109375-1.679688-1.253906-.308594-.0625-.621094-.089844-.929688-.089844-2.066406 0-4.085937 1.300781-6.546874 4.226562-.871094 1.035156-1.679688 2.355469-2.21875 3.613282-.675782 1.59375-.921876 3.070312-.707032 4.277343.207032 1.167969.738282 1.820313 1.9375 2.421875.4375.21875 1.480469.171875 2.601563.570313.78125.277343 1.378906.644531 1.378906.644531-.703125.332031-1.304687.957031-1.582031 1.78125-.445313 1.308594-.410156 3.375-.410156 3.375-.070313 1.671875.839843 5.03125 4.796874 5.761719.410157.074219.828126.113281 1.242188.113281 2.867188 0 5.265625-1.808594 7.191406-3.257812.5625-.421876 1.09375-.820313 1.582032-1.140626l.578124-.371093 7.542969 3.523437.402344.1875c.09375.621094.386719 1.152344.847656 1.507813.378907.296875.851563.453125 1.363281.453125 1.042969 0 2.144532-.628906 2.945313-1.679688 1.230469-1.609375 1.261719-3.589844.070313-4.507812-.378907-.296875-.851563-.453125-1.363282-.453125-.136718 0-.277344.011719-.414062.03125l-.363282-.363281c-.3125-.316407-.765624-.773438-1.324218-1.335938.433594-.058594 1.175781-.136719 2.1875-.136719 2.019531 0 5.285156.308594 9.363281 1.761719 2.785156.996094 4.992187 1.453125 6.804687 2.214844 1.816407.761718 3.898438 1.566406 3.898438 1.566406.867188.332031 1.816406.503906 2.824219.503906 2.402343 0 4.652343-.953125 5.738281-2.421875.710938-.96875 1.019531-2.210937.835938-3.410156-.164063-1.101563-.726563-2.054687-1.585938-2.6875-.757812-.558594-1.679688-.851563-2.660156-.851563-1.292969 0-2.589844.53125-3.308594 1.355469-.097656.113281-.1875.230469-.269531.347657-.457031-.574219-1.046875-1.242188-1.785157-1.941407 2.753907.375 7.347657-1.25 7.347657-1.25 1.652343-.597656 4.46875-2.601562 3.320312-5.914062-.445312-1.285157-1.316406-2.164063-2.46875-2.539063l-.285156-.632812c-.226563-.511719-.9375-1.378906-2.132813-1.378906-.378906 0-1.140624.011718-1.664062.777343-.34375.5-.378906 1.339844.160156 2.003907-.539062.492187-.957031 1.148437-1.144531 1.910156-.589844-.3125-1.230469-.933594-1.453125-2.167969-.402344-2.269531.894531-3.851563 2.066406-4.980469.183594-.171875.390625-.335937.609375-.507812.972657-.761719 2.183594-1.707032 2.8125-4.625.117188-.542969.398438-1.257813 1.496094-1.257813h.023437c1.136719.011719 1.839844 1.289063 1.28125 2.289063-.207031.371094-.464843.734375-.910156 1.132812 0 0 .375.4375.914063.78125.675781.425782 1.738281.59375 2.386719.519532.914062-.109376 2.082031-.40625 3.050781-1.320313 1.035156-.972656 1.808593-2.535156 1.988281-4.265625.21875-2.121094-.40625-5.476562-3.835938-9.335938-3.796874-4.273437-9.558593-6.628906-16.21875-6.628906zm-38.921874 38.84375 1.832031.898438c-.105469.140625-.246094.320312-.398438.5-.527343.640625-1.445312.84375-2.164062.433594-.085938-.046876-.152344-.097657-.1875-.148438-.121094-.164062-.097657-.308594-.050781-.429688.199218-.484374 1.238281-.082031 1.238281-.082031s-.09375-.703125-.269531-1.171875zm0 0" fill="#231f20"/><path d="m48.445312 1.378906c-4.003906.050782-7.972656 1.015625-11.242187 2.71875-6.429687 3.34375-10.074219 10.199219-11.28125 12.824219 1.269531-1.722656 4.539063-5.421875 10.160156-6.929687 1.34375-.359376 2.722657-.542969 4.097657-.542969 6.257812 0 10.585937 3.703125 10.765624 3.859375l.5625.492187-.25.703125c-.746093 2.113282.875 2.871094 1.203126 3.003906.253906.101563.496093.148438.734374.148438 1.023438 0 1.886719-.960938 2.425782-1.769531.65625-.976563 1.871094-2.796875 3.9375-2.796875.425781 0 .863281.082031 1.296875.246094 1.566406.582031 1.976562 1.894531 2.121093 2.894531.363282 2.507812-1.109374 4.171875-1.109374 4.171875 1.113281.675781 3.046874.574218 4.246093-.683594 1.1875-1.242188 3.65625-5.769531-1.945312-12.074219-3.949219-4.441406-9.871094-6.335937-15.722657-6.265625zm-38.636718 21.710938c-1.710938.003906-3.496094 1.210937-5.707032 3.839844-1.492187 1.773437-3.074218 4.804687-2.683593 6.992187.171875.964844.734375 1.398437 1.25 1.589844-.039063-.0625-.078125-.121094-.113281-.191407-.5-.996093-.484376-2.261718.042968-3.761718 1.152344-3.269532 4.027344-6.585938 6.539063-7.542969.492187-.1875.941406-.28125 1.375-.289063.363281-.007812.683593.050782.96875.148438-.191407-.351562-.488281-.625-.941407-.714844-.242187-.046875-.484374-.070312-.730468-.070312zm.832031 1.730468c-.316406-.011718-.679687.050782-1.121094.21875-2.023437.769532-4.777343 3.707032-5.898437 6.886719-1.121094 3.183594.855468 3.789063.855468 3.789063l23.1875 10.828125c.136719-.625.433594-1.257813.859376-1.820313.40625-.527344.890624-.953125 1.402343-1.238281-2.175781-2.195313-16.65625-16.789063-17.21875-17.316406-.636719-.605469-1.125-1.3125-2.066406-1.347657zm46.5 2.234376c-.195313.007812-.417969.058593-.671875.167968 0 0-.28125.496094.128906.898438 0 0 .683594-.257813 1.742188-.332032 0 0-.34375-.765624-1.199219-.734374zm1.027344 1.8125c-.160157.003906-.316407.019531-.46875.042968-1.1875.183594-2.339844 1.441406-2.148438 2.949219.058594.449219.148438.6875.332031.988281.445313.707032 1.363282.550782 1.777344.085938.554688-.644532 1.363282-.921875 1.421875.484375.039063.90625-.6875 1.980469-.6875 1.980469s3.761719-1.359376 2.664063-4.523438c-.550782-1.585938-1.78125-2.042969-2.890625-2.007812zm-33.4375 1.269531c-.058594 0-.113281 0-.171875.003906-.273438.019531-.515625.09375-.710938.171875.160156.101562.320313.210938.476563.332031.824219.636719 1.359375 1.429688 1.597656 2.28125.15625-.226562.910156-1.398437.109375-2.203125-.429688-.433594-.886719-.578125-1.300781-.585937zm-4.683594.699219h-.003906c-.179688.066406-.292969.128906-.3125.136718-.144531.085938-.226563.230469-.246094.386719l-.007813.054687.367188.367188.144531.144531c.082031 0 .164063-.019531.242188-.058593.011719-.007813.085937-.046876.210937-.089844l.039063-.011719c-.160157-.292969-.300781-.609375-.433594-.929687zm3.535156.617187c.023438.117187.042969.230469.0625.328125.003907.042969.007813.085938.015625.125.019532.066406.035156.132812.050782.199219.015624.054687.027343.109375.039062.15625.15625.671875.199219 1.179687.199219 1.539062.011719.191407-.007813.375-.046875.546875-.007813.039063-.015625.078125-.019532.097656h-.003906c-.09375.335938-.261718.613282-.386718.796876-.03125.042968-.054688.089843-.070313.144531.214844.210937.425781.425781.636719.636719.101562-.03125.191406-.09375.257812-.1875 1.066406-1.496094.808594-3.191407-.652344-4.324219-.027343-.019531-.054687-.039063-.082031-.058594zm-16.203125 7.136719c-.070312 0-.140625.007812-.21875.019531-1.402344.203125-2.136718 2.25-1.167968 3.382813.855468.996093 2.171874 1.246093 3.464843.332031 0 0-1.378906-.339844-1.660156-1.292969-.199219-.675781-.046875-1.550781.949219-1.671875 0 0-.332032-.816406-1.367188-.769531zm49.523438.421875c-1.078125-.039063-2.105469.394531-2.613282.980469-.816406.933593-.75 2.152343-.75 2.152343 1.3125-.558593 1.910157-.386719 2.328126-.109375.476562.316406.90625 1.410156.019531 2.390625-.890625.996094-3.875 1.335938-3.875 1.335938 2.660156 1.023437 6.078125.113281 7.304687-1.546875 1.027344-1.398438.902344-3.519532-.519531-4.566406-.582031-.425782-1.246094-.617188-1.894531-.636719zm-25.511719 5.125c-.652344.039062-1.421875.492187-2.003906 1.25-.84375 1.109375-.964844 2.441406-.265625 2.980469.695312.539062 1.941406.078124 2.785156-1.027344.847656-1.105469.964844-2.4375.269531-2.976563-.214843-.167969-.488281-.238281-.785156-.226562zm0 0" fill="#fff"/><path d="m39.933594 10.539062c-1.125.023438-2.3125.175782-3.542969.503907-6.941406 1.863281-10.113281 7.332031-10.113281 7.332031s5.257812-1.832031 7.902344 1.078125c0 0-6.867188-2.386719-11.195313 2.117187l-.023437.027344-.003907-.027344c-4.824219 5.019532-1.417969 10.75-.175781 11.253907l-.003906-.019531.03125.019531s-1.167969-3.410157.695312-6.085938c1.902344-2.726562 5.558594-2.375 6.738282-1.148437 0 0-5.710938-1.367188-6.589844 3.542968.378906-.054687.742187-.09375 1.035156-.09375.789062 0 1.519531.316407 2.109375.90625 1.074219 1.078126.726563 2.664063-.046875 3.683594l-.753906 1c-.113282.625-.375 1.25-.796875 1.839844-.058594.085938-.128907.160156-.203125.230469.585937.648437 2.796875 3.0625 3.703125 3.679687 0 0 4.945312-1.136718 12.582031 1.589844 4.355469 1.550781 7.257812 2.359375 9.371094 2.644531 2.050781.238281 3.941406-.410156 4.386718-.882812.128907-.132813.285157-.421875.175782-.621094-.113282-.203125-.335938-.242187-.4375-.230469-.121094.007813-.292969.046875-.820313.265625l-1.199219.511719c-.101562-.410156-.425781-1.613281-.0625-2.90625-1.410156-1.910156-4.351562-5.003906-9.445312-6.65625 0 0 1.515625-.777344 4.570312 1.226562 2.457032 1.613282 6.582032 1.882813 8.964844.253907.578125-.390625.933594-.902344 1.164063-1.480469 0 0-.574219.308594-1.195313.328125-.742187.019531-1.394531-.363281-1.789062-.996094-.28125-.453125-.421875-.851562-.492188-1.429687-.007812-.0625-.011718-.125-.015625-.1875-.8125-.3125-2.074219-1.113282-2.433593-3.132813-.539063-3.050781 1.449218-5.0625 2.386718-5.964843 1.054688-1.007813 2.417969-1.371094 3.109375-4.574219.660157-3.039063 4.109375-2.09375 4.355469-1.480469 0 0 .363281-1.65625-1.367188-2.300781-2.023437-.75-3.257812 1.09375-3.957031 2.140625-.703125 1.046875-2.265625 2.890625-4.457031 2.027344-2.324219-.917969-2.257812-3.179688-1.832031-4.390626 0 0-4.257813-3.707031-10.328125-3.589843zm-20.558594 17.144532c-.460938.730468-.914062 1.46875-1.378906 2.242187.207031.207031.421875.421875.636718.636719.136719-.21875.328126-.410156.566407-.542969.058593-.035156.234375-.128906.496093-.222656-.046874-.167969-.089843-.332031-.128906-.503906-.113281-.539063-.175781-1.074219-.191406-1.609375zm-6.839844 12.992187c-.3125.441407-.664062.882813-1.046875 1.300781-1.691406 1.84375-3.976562 2.945313-6.128906.972657 0 0-.164063 3.890625 3.90625 4.640625 3.75.691406 6.773437-2.527344 9.234375-4.125zm0 0" fill="#005d41"/><path d="m39.261719 12.25s1.921875 1.015625 2.46875 2.605469c0 0-2.195313.652343-2.714844 2.65625-.476563 1.851562.714844 3.457031 1.535156 4.070312.726563.539063 1.5625.890625 2.617188.796875 0 0 .199219.011719.492187.335938.105469.117187.34375.3125.636719.289062 0 0 .128906-3.824218-.699219-6.703125-1.164062-4.0625-4.335937-4.050781-4.335937-4.050781zm12.933593 7.621094c-.972656.011718-1.9375.3125-2.726562.65625-1.667969.726562-4.234375 3.199218-4.234375 3.199218.070313.003907.191406.019532.476563.085938.285156.066406.539062 0 .539062 0s.410156.507812 1.546875.863281c1.152344.355469 2.382813.125 3.230469-.347656 1.226562-.683594 1.480468-1.824219 1.6875-2.523437.207031-.699219.414062-1.078126.414062-1.078126.320313.035157.382813.140626 1.070313.316407.585937.148437.773437-.105469.773437-.105469-.820312-.804688-1.800781-1.082031-2.777344-1.066406zm-13.640624 3.535156c-2.195313-.03125-3.863282.65625-4.71875 1.726562-1.527344 1.921876 0 4.058594 2.378906 3.945313 1.816406-.089844 3.070312-1.210937 4.558594-1.464844 1.535156-.261719 2.78125-.140625 4.171874.675781 1.390626.8125 1.820313 1.167969 2.035157 1.613282.214843.445312.316406.828125.808593.96875 0 0 .175782-1.757813-1.757812-3.308594 0 0-.378906-2.542969-4.183594-3.636719-1.1875-.339843-2.292968-.503906-3.292968-.519531zm-28.785157 3.761719-1.066406 1.386719.796875.679687-2.714844 3.824219 1.296875.902344 2.753907-3.613282.746093.589844 1.027344-1.128906zm32.324219 1.816406c-.039062 0-.074219.003906-.113281 0 .039062.003906.074219 0 .113281 0 .277344.007813.550781.035156.8125.085937.273438.054688.523438.109376.75.167969-.226562-.058593-.476562-.113281-.75-.167969-.261719-.050781-.535156-.078124-.8125-.085937zm1.5625.253906c.339844.085938.636719.183594.898438.285157-.261719-.101563-.558594-.199219-.898438-.285157zm-1.675781-.253906c-.09375 0-.183594 0-.277344.003906.09375-.003906.183594-.003906.277344-.003906zm-.277344.003906c-.054687.003907-.109375.003907-.160156.007813.050781-.003906.105469-.007813.160156-.007813zm-.160156.007813c-.078125.003906-.15625.007812-.230469.015625.074219-.007813.152344-.011719.230469-.015625zm-.230469.015625c-.0625.007812-.128906.011719-.191406.019531.0625-.007812.128906-.011719.191406-.019531zm-.191406.019531c-.066406.007812-.132813.015625-.203125.023438.070312-.007813.136719-.015626.203125-.023438zm-.203125.023438c-.054688.007812-.113281.015624-.171875.023437.058594-.007813.117187-.015625.171875-.023437zm-.171875.023437c-.054688.011719-.113282.019531-.171875.03125.058593-.011719.117187-.019531.171875-.03125zm-.171875.03125c-.121094.019531-.230469.042969-.347657.066406.113282-.023437.230469-.046875.347657-.066406zm-.347657.066406c-.152343.03125-.296874.0625-.4375.097657.140626-.035157.289063-.066407.4375-.097657zm-.4375.097657c-.09375.023437-.183593.042968-.273437.070312.089844-.023438.179687-.046875.273437-.070312zm-.273437.070312c-.132813.035156-.253906.066406-.375.101562.117187-.035156.242187-.066406.375-.101562zm-.375.101562c-.082031.027344-.15625.046876-.230469.070313.074219-.023437.152344-.046875.230469-.070313zm-.230469.070313c-.121094.039063-.226562.074219-.328125.109375.097657-.035156.210938-.070312.328125-.109375zm-.328125.109375c-.046875.015625-.078125.027344-.117187.042969.035156-.015625.078125-.027344.117187-.042969zm-.117187.042969c-.269532.09375-.433594.164062-.433594.164062s.175781-.074219.433594-.164062zm2.585937.105469c-.25.015624-.488281.050781-.730469.082031-.488281.0625-.851562.085937-1.195312.078125.34375.007812.707031-.011719 1.195312-.078125.242188-.03125.480469-.066407.730469-.082031zm1.242188.132812c.078125.023438.160156.046875.246093.078125-.085937-.03125-.167968-.054687-.246093-.078125zm-29.214844.3125s-1.988281 2.445312-2.382813 2.976562c-.394531.527344-1.089843 1.78125.230469 2.726563 1.304688.9375 2.464844-.195313 2.613281-.378906.148438-.183594 2.335938-2.828125 2.335938-2.828125l-.988281-.902344s-2.011719 2.546875-2.636719 2.855469c-.503906.25-.5625-.398438-.332031-.707031.179687-.242188 2.136719-2.867188 2.136719-2.867188zm33.355469.625c.132812.132812.269531.277344.417968.429688-.148437-.152344-.285156-.296876-.417968-.429688zm-29.777344 2.449219-3.015625 4.082031 2.136719 1.261719.625-.972657-.777344-.632812 2.203125-2.867188zm3.121094 2.613281-3.746094 2.851562 1.015625.75.746094-.460937.714843.546875-.152343.613281 1.066406.632813 1.730469-3.738282zm.054687 1.535156-.492187 1.28125-.679688-.5625zm2.355469.53125-2.457031 3.089844 1.015625.578125.761718-.835937.070313 1.433593.761719.429688 2.171875-2.664063-.8125-.71875-.613281.375-.117188-1.089844zm2.933594 2.578125-1.984375 2.542969 1.527343.972656.476563-.578125-.679687-.515625.203124-.238281.425782.273437.507812-.578124-.425781-.308594.222656-.273438.78125.527344.492188-.664062zm6.964844 4.386719c-.328126-.003906-.78125.167969-1.117188.410156-.246094.152344-.511719.378906-.746094.6875-.546875.71875-.578125 1.339844-.519531 1.542969.058594.335937.226563.574219.300781.628906 0 0-.027344-.328125.050782-.597656.320312-.105469.746093-.390625 1.097656-.855469.472656-.617187.558594-1.164062.539062-1.433594.199219-.242187.394532-.382812.394532-.382812zm0 0" fill="#231f20"/><path d="m42.113281 16.503906c-.417969-.011718-1.0625.125-1.515625.914063-.730468 1.28125-.066406 2.554687-.066406 2.554687 1.164062-.886718 2.539062-.46875 2.539062-.46875-.195312-2.035156-.53125-2.933594-.53125-2.933594s-.171874-.058593-.425781-.066406zm9.246094 4.539063c-3.410156.890625-4.085937 2.582031-4.085937 2.582031.054687-.003906.140624.027344.316406.085938.175781.058593.402344.015624.402344.015624 1.011718-2.054687 3.207031-1.003906 3.207031-1.003906.59375-.882812.160156-1.679687.160156-1.679687zm-13.085937 3.589843c-.171876 0-.359376.015626-.558594.054688-.933594.191406-.699219 1.015625-.699219 1.015625.089844-.011719.433594-.039063.617187-.039063.1875 0 1.21875-.082031 1.21875-.082031.195313-.292969.304688-.824219.304688-.824219s-.367188-.128906-.882812-.125zm2.332031.097657c-.085938 0-.175781.003906-.265625.015625-.71875.101562-.671875.816406-.671875.816406.207031-.015625.5.054688.625.070312.125.015626.761719.171876 1.117187.035157.355469-.132813.308594-.496094.308594-.496094-.054688-.070313-.519531-.421875-1.113281-.441406zm-4.125.445312c-1.433594.136719-1.332031 1.144531-1.332031 1.144531.320312-.109374.507812-.105468.878906-.269531.589844-.257812.453125-.875.453125-.875zm6.121093.238281c-.292968.003907-.359374.277344-.359374.277344s.175781.097656.460937.246094.660156.164062.660156.164062c-.078125-.359374-.46875-.691406-.761719-.6875zm-2.222656.65625c-.335937-.019531-.675781.035157-.953125.191407-.558593.308593-.375.980469-.375.980469s.207031-.074219.78125-.132813c.578125-.058594.910157-.1875 1.160157-.335937.25-.148438.324218-.457032.324218-.457032-.269531-.136718-.601562-.230468-.9375-.246094zm-2.132812.117188c-.703125-.011719-1.453125.226562-1.453125.226562-.214844.414063-.511719 1.449219-.511719 1.449219.550781.1875 1.285156.144531 1.851562-.398437.5625-.542969.40625-1.257813.40625-1.257813-.09375-.011719-.195312-.019531-.292968-.019531zm4.195312.207031c-.035156-.003906-.070312-.003906-.109375 0-.300781.03125-.300781.230469-.300781.230469.152344.117188.332031.105469.40625.109375.058594.003906.3125-.007813.3125-.007813.0625-.160156-.070312-.320312-.308594-.332031zm-6.484375.257813c-.0625 0-.535156.0625-.820312.21875-.257813.140625-.292969.371094-.292969.371094.210938.484374.820312.414062.820312.414062.179688-.367188.292969-1.003906.292969-1.003906zm0 0" fill="#fff"/></svg>