<svg height="53pt" viewBox="0 0 70 53" width="70pt" xmlns="http://www.w3.org/2000/svg"><path d="m34.464844 5.304688c-1.707032-.023438-3.730469.765624-5.527344 1.089843-.125.023438-.253906.042969-.375.0625-1.683594.238281-4.136719-.265625-4.140625-.269531 0 .003906.472656.855469 1.675781 1.839844.578125.472656 1.324219.976562 2.273438 1.429687l-.234375.367188c-.042969.074219-.09375.152343-.152344.242187-1.34375-.550781-2.777344-1.832031-2.777344-1.832031s2.417969 4.632813 5.027344 8.699219c1.195313-.054688 2.222656-.234375 3.117187-.550782.214844-.074218.417969-.109374.613282-.109374.425781 0 .808594.1875 1.042968.515624.144532.199219.355469.632813.144532 1.261719-.601563 1.828125-2.113282 3.089844-4.4375 3.75-.085938.460938-.1875 1.210938-.199219 2.089844.066406.011719.128906.027344.191406.042969.25-.375.757813-1.066406 1.496094-1.761719.457031-.429687 1-.859375 1.625-1.214844l.351563.476563s-1.753907 1.039062-2.882813 2.832031c.066406.054687.125.117187.175781.183594.4375-.222657 1.214844-.578125 2.34375-.9375.78125-1.09375 1.671875-2.175781 2.707032-3.292969 3.359374-3.625 5.832031-4.671875 7.421874-4.847656-1.433593-5.15625-.9375-7.78125-.9375-7.78125s-2.183593-.335938-3.863281 2.117187c0 0 .050781.253907.152344.589844.046875.15625.105469.332031.175781.511719-.363281-.195313-.632812-.554688-1.046875-1.921875-.472656-1.574219-1.167969-3.152344-3.25-3.515625-.230469-.042969-.464843-.0625-.710937-.066406zm12.09375 17.054687c-.234375.394531-.503906.796875-.804688 1.210937.675782.164063 1.289063.335938 1.609375.476563-.289062-.578125-.554687-1.140625-.804687-1.6875zm-4.824219 6.949219c-.839844.257812-1.695313.496094-2.484375.707031-1.007812.804687-2.101562 1.617187-3.269531 2.433594-.082031.054687-.261719.191406-.316407.234375-.109374.089844-.019531.136718.046876.121094 1.328124-.300782 3.550781-1.695313 6.023437-3.496094zm5.21875 1.851562c-.460937.367188-.882813.707032-1.226563.988282.382813.277343.851563.460937 1.300782.507812-.082032-.621094-.085938-1.164062-.074219-1.496094zm-5.113281 3.765625c-2.460938 1.574219-4.660156 2.417969-6.539063 2.519531.128907 2.164063 1.175781 3.058594 1.175781 3.058594l.078126.808594c-1.097657-.632812-1.402344-1.957031-1.402344-1.957031.484375 5.621093-.273438 7.613281-.273438 7.613281s1.132813-.972656 1.882813-2.03125c.152343 1.035156-1.921875 2.527344-1.921875 3.476562.257812-.070312.519531-.125.78125-.171874l.003906-.003907h.019531c1.484375-.257812 2.988281-.132812 4.417969.066407h.003906l.007813.003906c.925781.128906 1.824219.289062 2.667969.394531 1.96875.25 3.664062.136719 4.4375-.894531 1.003906-1.339844-1.128907-4.0625-1.128907-4.0625.546875.148437 1.558594-.207032 2.660157-.609375.789062-.289063 1.691406-.546875 2.335937-.691407-1.003906-1.59375-2.15625-3.917968-2.679687-5.003906-2.835938-.046875-5.082032-.910156-6.527344-2.515625zm0 0" fill="#f5002e"/><path d="m19.808594.476562c-.917969 0-1.664063.746094-1.664063 1.667969 0 .730469.46875 1.34375 1.113281 1.570313l1.667969 12.148437c.066407.011719.132813.023438.199219.035157.484375.089843.988281.183593 1.496094.277343l-2.085938-12.53125c.550782-.273437.933594-.839843.933594-1.5 0-.921875-.742188-1.667969-1.660156-1.667969zm1.816406 2.875c-.148438-.015624-.292969.058594-.363281.195313-.097657.179687-.03125.410156.148437.507813.640625.347656 1.378906 1.1875 1.386719 1.195312.074219.085938.175781.128906.28125.128906.085937 0 .175781-.03125.246094-.09375.152343-.136718.167969-.375.035156-.527344-.035156-.039062-.835937-.953124-1.59375-1.363281-.046875-.027343-.09375-.039062-.140625-.042969zm12.558594 1.335938c-1.535156-.015625-3.074219.488281-4.175782.761719-1.910156.476562-3.042968.519531-5.761718.03125-.46875-.082031-.6875 0-.8125.136719-.140625.152343-.121094.390624-.007813.695312.5 1.351562 4.5 8.300781 5.886719 10.640625.03125 0 .0625.003906.09375.003906.285156 0 .558594-.007812.828125-.023437-2.609375-4.066406-5.027344-8.699219-5.027344-8.699219s1.433594 1.28125 2.777344 1.832031c.058594-.089844.109375-.167968.152344-.238281l.234375-.371094c-.949219-.453125-1.695313-.957031-2.273438-1.429687-1.203125-.984375-1.675781-1.835938-1.675781-1.839844 0 0 2.453125.507812 4.140625.269531.121094-.019531.25-.039062.375-.0625 2.054688-.367187 4.398438-1.347656 6.238281-1.027343 2.082031.367187 2.777344 1.945312 3.25 3.519531.410157 1.371093.683594 1.726562 1.046875 1.921875-.070312-.179688-.128906-.355469-.175781-.511719-.101563-.335937-.152344-.589844-.152344-.589844 1.679688-2.453125 3.859375-2.117187 3.859375-2.117187s-.492187 2.625.941406 7.785156c.179688-.019531.34375-.03125.5-.03125.046876 0 .089844.003906.132813.007812-.777344-2.699218-1.316406-5.636718-.949219-8.027343.015625-.117188-.0625-.226563-.175781-.246094-.65625-.117187-2.730469-.253906-4.453125 2.144531-.40625-1.332031-.746094-2.871094-2.140625-3.785156-.828125-.542969-1.75-.742188-2.675781-.75zm1.472656 4.972656c-.515625.003906-1.105469.066406-1.769531.207032 0 0 2.203125 4.582031 2.203125 8.230468 0 0 .605468-.230468 1.34375-.15625.566406-.511718 1.824218-1.566406 3.550781-2.546875-.167969-1.101562-.375-2.578125-.417969-3.367187l-1.046875.523437s-.242187-2.910156-3.863281-2.890625zm-1.828125 11.296875c-.625.355469-1.167969.785157-1.625 1.214844-.738281.695313-1.246094 1.386719-1.5 1.761719.226563.070312.429687.179687.59375.332031 1.128906-1.792969 2.878906-2.832031 2.882813-2.832031zm-3.113281.84375c-.277344.078125-.5625.148438-.859375.207031l-.019531.15625-.113282 1.695313h.472656c.109376 0 .21875.011719.320313.03125.007813-.878906.113281-1.628906.199219-2.089844zm16.117187.082031c-.085937.160157-.179687.316407-.273437.476563.25.546875.515625 1.109375.804687 1.6875-.320312-.140625-.933593-.3125-1.609375-.476563-.128906.175782-.265625.355469-.40625.535157.859375.175781 1.851563.476562 2.300782.617187.117187-.089844.234374-.171875.347656-.253906zm-25.070312.039063.265625 1.941406c.046875 0 .09375-.003906.140625-.003906h1.484375c.085937 0 .171875.007813.25.015625l-.277344-1.683594c-.683594-.074218-1.316406-.167968-1.863281-.269531zm12.054687 1.589844c-1.132812.355469-1.90625.714843-2.34375.941406.054688.066406.105469.140625.144532.222656.074218.144531.117187.300781.132812.457031.277344-.125.796875-.351562 1.367188-.589843.222656-.34375.457031-.691407.699218-1.03125zm-9.410156 3.371093c-.460938.648438-1.058594 1.496094-1.644531 2.324219l.132812.984375.152344-.203125.015625-.023437c.515625-.707032 1.035156-1.417969 1.511719-2.074219zm18.425781 1.609376c-.730469.25-1.636719.539062-2.71875.824218-.277343.230469-.566406.464844-.863281.699219.789062-.210937 1.644531-.449219 2.484375-.710937.359375-.261719.726563-.535157 1.097656-.8125zm4.476563 2.378906c-.121094.097656-.238282.191406-.355469.289062-.011719.332032-.007813.875.074219 1.496094.082031.011719.164062.015625.242187.015625.066407 0 .132813-.003906.191407-.007813-.09375-.578124-.140626-1.160156-.152344-1.792968zm-5.640625 5.238281c-.671875.4375-1.382813.765625-1.382813.765625s1.300782 3.316406 1.089844 6.484375c3.285156.800781 3.839844-.390625 5.371094-.386719-.097656-.84375-1.199219-1.328125-1.167969-2.191406.019531-.613281.644531-.917969 1.128906-.953125l-.71875-1.710937s-2.175781-.261719-4.320312-2.007813zm-17.808594 1.097656 2.089844 15.210938h1l-1.800781-14.070313-.113282-.882812c-.441406-.042969-.832031-.136719-1.175781-.257813zm10.441406.214844c.179688 2.371094.578125 6.550781-.082031 9.171875-.4375 1.730469-.351562 2.261719-.039062 2.445312.292968.171876.808593-.109374 1.980468-.222656 2.035156-.191406 3.976563.109375 6.488282.453125 2.398437.328125 3.8125.085938 4.765624-.804687.199219-.1875.351563-.390625.457032-.609375.476562-.960938.109375-2.203125-.671875-3.472657 0 0 1.992187-1.089843 4.566406-1.542968.132813-.023438.199219-.171875.125-.285156-.476563-.75-1.941406-3.097657-2.867187-5.117188-.140626.003906-.28125.003906-.425782.003906-.078125 0-.152344 0-.230468-.003906.523437 1.085938 1.675781 3.414062 2.679687 5.007812-.644531.144532-1.546875.398438-2.335937.691407-1.101563.402343-2.109376.757812-2.65625.609375 0 0 2.128906 2.722656 1.125 4.0625-.769532 1.03125-2.464844 1.144531-4.4375.894531-.839844-.105469-1.738282-.265625-2.667969-.398437-.003907 0-.007813 0-.011719 0-1.429688-.199219-2.933594-.324219-4.417969-.066407-.007812 0-.015625.003907-.023437.003907-.261719.046874-.519532.101562-.777344.171874 0-.949218 2.070312-2.441406 1.921875-3.476562-.753906 1.054688-1.886719 2.027344-1.886719 2.027344s.757813-1.992188.273438-7.609375c0 0 .308594 1.320312 1.402344 1.957031l-.078126-.808594s-1.046874-.894531-1.175781-3.058594c-.128906.007813-.253906.007813-.378906.007813-.214844 0-.421875-.011719-.621094-.03125zm-8.132812.042969c-.195313.019531-.386719.027344-.574219.027344-.011719 0-.019531-.003907-.03125-.003907l.136719.792969 2.402343 14.136719h.558594zm7.726562 12.234375c-.097656.011719-.1875.054687-.253906.132812-.617187.738281-.902344 1.925781-.914063 1.976563-.046874.199218.078126.402344.277344.449218.03125.007813.058594.007813.085938.007813.167968 0 .324218-.113281.363281-.289063.003906-.007812.25-1.058593.757813-1.660156.132812-.15625.113281-.394531-.042969-.527344-.082031-.066406-.179688-.097656-.273438-.089843zm0 0"/><path d="m14.773438 15.035156c-2.816407 0-6.328126.398438-8.53125 3.496094-.304688.425781-.347657.964844-.121094 1.410156.21875.421875.652344.6875 1.132812.6875.0625 0 .125-.003906.191406-.015625 1.398438-.199219 2.757813-.300781 4.042969-.300781 1.160157 0 2.246094.082031 3.238281.242188-1.929687 2.78125-4.289062 6.550781-5.207031 8.019531l-.207031.328125c-.035156.054687-.078125.128906-.132812.210937-1.921876 3.117188-3.070313 4.089844-3.691407 4.355469-.457031.199219-.898437.292969-1.347656.292969-.546875 0-1.105469-.136719-1.714844-.421875-.21875-.101563-.445312-.15625-.664062-.15625-.476563 0-.898438.246094-1.125.660156-.238281.4375-.207031.992188.082031 1.449219 1.105469 1.746093 3.933594 3.226562 6.179688 3.226562.300781 0 .585937-.027343.851562-.078125 1.480469-.292968 2.464844-.855468 4.375-3.410156 1.273438-1.703125 2.726562-3.933594 3.898438-5.765625.277343.171875.601562.308594.914062.402344-.132812.195312-.246094.355469-.324219.46875-1.59375 2.300781-1.578125 3.941406-1.289062 4.910156.292969.964844.976562 1.707031 1.925781 2.082031.507812.199219 1.074219.296875 1.691406.296875 1.511719 0 2.917969-.582031 3.625-.933593.175782.140624.386719.28125.628906.414062.199219.109375.417969.210938.664063.296875.34375.121094.734375.214844 1.175781.257813.167969.015624.34375.023437.527344.023437.011719 0 .019531.003906.03125.003906.1875 0 .382812-.011719.574219-.027343.203125-.019532.40625-.046876.617187-.082032 1.265625-.226562 2.65625-.792968 4.148438-1.703125.480468.605469 1.335937 1.359375 2.742187 1.648438.195313.042969.40625.074219.625.097656.199219.015625.40625.03125.625.03125.121094 0 .246094-.003906.375-.011719 1.878907-.101562 4.078125-.945312 6.539063-2.519531 1.445312 1.605469 3.691406 2.46875 6.527344 2.511719.078124 0 .152343.003906.230468.003906.144532 0 .285156 0 .425782-.003906.226562-.007813.449218-.019532.667968-.035156 2.050782-.140626 3.742188-.636719 4.585938-.929688.507812.472656 1.121094.789062 1.75.902344.289062.046875.582031.074218.886718.074218 1.234376 0 2.371094-.410156 3.179688-.800781.449219.496094 1.074219.769531 1.796875.769531.808594 0 1.726563-.347656 2.730469-1.035156.703125-.480468 1.261718-1.035156 1.707031-1.703125.5-.742187.332031-1.3125.1875-1.585937-.222656-.414063-.648437-.664063-1.148437-.664063-.226563 0-.464844.050781-.722657.152344.074219-.097656.15625-.207031.246094-.324219l.011719-.011718c.003906-.003907.007812-.007813.011718-.011719l4.316407-6.058594c.34375-.457031.40625-1.023437.167969-1.5-.25-.503906-.796876-.816406-1.425782-.816406h-1.371094c-.410156 0-.773437.078125-1.09375.238281-.582031-.390625-1.359374-.597656-2.261718-.597656-1.207032 0-2.554688.359375-3.710938.988281-1.851562 1.011719-3.722656 3.035156-5.40625 5.851563-.246094.410156-.5.761718-.757812 1.054687.132812-1.769531-.160156-3.621094-.460938-4.953125l-.003906-.019531c-.003906-.03125-.011719-.054688-.015625-.070313-.015625-.078125.007813-.109375.03125-.132812.191406-.195313.335937-.296875.535156-.441406.113281-.078126.238281-.167969.382813-.28125.574218-.449219.617187-1.074219.480468-1.472657-.371093-1.089843-1.9375-1.171875-2.40625-1.171875-.980468 0-2.085937.40625-3.394531 1.261719-.171875.113281-.34375.230469-.523437.355469-.113282.082031-.230469.164062-.347656.253906-.195313.144531-.398438.300781-.601563.464844-.035156.027344-.070313.054687-.105469.082031-.761718.617187-1.542968 1.238281-2.320312 1.847656-.601563.46875-1.199219.929688-1.789063 1.375-.371093.277344-.738281.550781-1.097656.8125-2.472656 1.804688-4.695313 3.199219-6.023437 3.5-.066407.015625-.15625-.03125-.042969-.125.050781-.042969.230469-.175781.3125-.234375 1.167969-.816406 2.261719-1.628906 3.273437-2.429687.292969-.234375.578125-.46875.859375-.703125.394531-.320313.769531-.644532 1.132813-.964844 1.449218-1.273438 2.675781-2.511719 3.660156-3.695312.152344-.183594.300781-.367188.441406-.546876.140625-.179687.277344-.359374.40625-.535156.300782-.414062.570313-.816406.804688-1.210937.097656-.160157.1875-.320313.273437-.476563.132813-.242187.25-.480468.355469-.71875.339844-.765625.542969-1.484375.597656-2.15625.089844-1.117187-.230468-2.070312-.929687-2.75-.4375-.425781-.984375-.703125-1.609375-.832031-.214844-.042969-.4375-.070313-.667969-.078125-.042969 0-.085937-.003906-.132813-.003906-.152343 0-.320312.007812-.5.027344-1.589843.175781-4.058593 1.222656-7.421874 4.847656-1.035157 1.117187-1.925782 2.199218-2.707032 3.292968-.242187.34375-.476562.683594-.699218 1.03125-.195313.304688-.386719.609376-.566407.917969-.851562 1.449219-1.554687 2.976563-2.179687 4.699219-1.292969 1.324219-2.546875 2.027344-3.429688 2.351562.078125-.117187.152344-.222656.207032-.304687 1.058593-1.535156 3.878906-5.457031 4.300781-6.027344.074219-.101562.132812-.203125.179687-.308593.105469-.242188.148438-.492188.121094-.738282-.015625-.15625-.058594-.3125-.132812-.457031-.039063-.082031-.089844-.15625-.144532-.226563-.050781-.066406-.109375-.128906-.171875-.1875-.167969-.148437-.371093-.257812-.59375-.328124-.0625-.015626-.125-.03125-.1875-.042969-.105469-.019531-.214843-.03125-.324219-.03125h-1.511718c-1.230469 0-1.746094.71875-2.019532 1.105469l-.082031.113281c-.003906.003906-.007812.011719-.007812.015625l-.011719.019531c-.195312.292969-.757812 1.078125-1.476562 2.074219-.164063.226562-.335938.460937-.511719.703125-.476563.65625-.996094 1.367187-1.511719 2.074219l-.015625.023437-.148437.203125-.109376.148438c-.136718.1875-.28125.363281-.425781.53125-.589843.6875-1.203125 1.171874-1.648437 1.402343-.148438.074219-.089844-.03125-.046875-.09375.25-.355469.867187-1.234375 1.570312-2.230469.171875-.242187.347657-.492187.523438-.742187.585937-.828125 1.183593-1.671875 1.644531-2.324219.199219-.28125.371094-.523437.507812-.714844 0-.003906.003907-.003906.003907-.003906.339843-.472656.398437-1.039062.15625-1.507812-.113281-.226563-.289063-.410156-.5-.542969-.195313-.121094-.421875-.203125-.667969-.238281-.082031-.007813-.167969-.015625-.253906-.015625h-1.484375c-.046875 0-.09375.003906-.140625.003906-.214844.007813-.421875.03125-.617188.070313-.515625.105468-.964844.324218-1.355468.667968-.082032.070313-.164063.144532-.25.21875-.519532.457032-1.121094.992188-1.886719 1.46875.015625-.027344.03125-.054687.046875-.078125 1.578125-2.457031 2.472656-3.820312 2.992187-4.457031.050781.011719.105469.023438.160157.035156.199218.046875.414062.089844.644531.132813.546875.101562 1.179687.195312 1.863281.269531.207031.023438.421875.042969.636719.058594.652343.054687 1.339843.085937 2.042969.085937 1.058593 0 2.03125-.074219 2.914062-.210937.21875-.035156.429688-.074219.636719-.117188.296875-.058594.582031-.128906.859375-.207031 2.324218-.660156 3.835937-1.925781 4.441406-3.75.207031-.632813-.003906-1.0625-.148438-1.265625-.234374-.328125-.617187-.511719-1.042968-.511719-.195313 0-.398438.035157-.613282.109375-.894531.3125-1.921874.496094-3.117187.550782-.269531.011718-.542969.023437-.828125.023437-.03125 0-.0625-.003906-.09375-.003906-.242188 0-.484375-.007813-.730469-.015625-1.722656-.070313-3.550781-.335938-5.3125-.644532-.21875-.039062-.433593-.078124-.648437-.117187-.507813-.09375-1.007813-.1875-1.496094-.277344-.066406-.011719-.132812-.023437-.199219-.035156-.214843-.042969-.425781-.082031-.640625-.121094-2.039062-.378906-3.945312-.703125-5.511718-.703125zm0 .371094c1.523437 0 3.402343.320312 5.414062.691406.050781.007813.101562.019532.152344.027344.210937.039062.425781.082031.640625.121094.023437.003906.050781.007812.074219.011718.53125.101563 1.078124.203126 1.632812.304688.214844.039062.429688.074219.644531.113281 1.808594.3125 3.679688.578125 5.441407.632813.210937.003906.421874.015625.628906.015625h.015625c.363281 0 .710937-.011719 1.046875-.03125 1.140625-.070313 2.136718-.253907 3.011718-.5625.070313-.023438.140626-.042969.207032-.058594.03125-.003906.054687-.007813.082031-.015625.066406-.007812.136719-.015625.199219-.015625.304687 0 .578125.128906.742187.359375.046875.066406.09375.148438.125.253906.019531.066406.035157.144532.039063.230469s-.003906.179687-.023438.28125c-.011718.054687-.027344.105469-.046875.164063-.296875.90625-.847656 1.660156-1.621093 2.269531-.640626.5-1.433594.902343-2.382813 1.1875-.28125.085937-.582031.160156-.886719.226562-.210937.046875-.421875.085938-.644531.121094-.890625.148437-1.878906.226563-2.964844.226563-.722656 0-1.433593-.035157-2.101562-.09375-.214844-.015626-.429688-.039063-.640625-.0625-.683594-.074219-1.3125-.171876-1.851563-.277344-.183593-.035156-.359375-.070313-.519531-.105469-.128906-.03125-.25-.058594-.363281-.085937-.515625.566406-1.402344 1.90625-3.171875 4.667968-.234375.367188-.5.789063-.789063 1.242188 1.425781-.597656 2.390625-1.449219 3.183594-2.148438.023437-.019531.042969-.039062.0625-.054687.0625-.054688.125-.113281.1875-.164063.335937-.292968.71875-.480468 1.164063-.578125.195312-.042969.398437-.066406.617187-.070312.03125 0 .058594-.003907.089844-.003907h1.484375c.109375 0 .214844.011719.316406.035157.296875.0625.542969.214843.703125.433593.027344.039063.050781.082032.074219.125.023437.042969.039062.085938.054687.132813.03125.089844.046875.183594.050781.277344.003907.097656-.007812.191406-.03125.289062-.039062.144531-.105468.285157-.203124.421875-.128907.179688-.277344.386719-.441407.621094-.425781.597656-.953125 1.347656-1.488281 2.105469-.175781.246093-.351562.496093-.523438.738281-.125.175781-.246093.351562-.363281.519531-.597656.84375-1.121093 1.59375-1.410156 2.003907-.03125.046874-.054687.085937-.082031.128906-.058594.089844-.109375.167968-.152344.242187-.046875.085938-.089844.164063-.117188.230469-.015624.03125-.019531.058594-.015624.085938.007812.082031.074218.152343.160156.152343.015625 0 .027344-.003906.042968-.007812.082032-.019531.171876-.046875.265626-.082031.332031-.121094.746093-.332032 1.195312-.671876.242188-.179687.492188-.402343.742188-.664062.179687-.1875.359374-.398438.539062-.632812.039062-.050782.078125-.101563.121094-.15625l.253906-.351563c.195312-.265625.390625-.53125.582031-.796875.679688-.929688 1.335938-1.835938 1.863281-2.566406.527344-.730469.925782-1.285156 1.082032-1.53125l.011718-.015625s.007813-.011719.015626-.023438c.019531-.027343.050781-.070312.066406-.089843.09375-.132813.203125-.285157.347656-.429688.277344-.277344.6875-.523438 1.371094-.523438h1.511718c.152344 0 .296876.023438.429688.066407.292969.097656.535156.285156.660156.542969.066406.132812.101563.273437.101563.417968.007812.175782-.039063.355469-.128907.527344-.03125.058594-.066406.117188-.105468.171875-.144532.195313-.574219.789063-1.121094 1.546875-1.035156 1.445312-2.492188 3.480469-3.1875 4.488281-.019531.03125-.042969.070313-.070312.105469-.1875.273438-.46875.683594-.664063 1.007812.832031-.089843 2.335937-.691406 3.90625-2.09375.226563-.199218.453125-.414062.675781-.648437.476563-1.320313 1-2.527344 1.601563-3.667969 1.144531-2.183594 2.570312-4.140625 4.5-6.222656 3.644531-3.929688 6.175781-4.757812 7.652343-4.757812.539063 0 1.035157.109374 1.460938.320312.253906.128906.488281.292969.691406.492188.410156.398437.667969.910156.777344 1.503906.03125.183594.050781.375.054688.578125 0 .121093-.003907.242187-.015626.367187-.039062.53125-.179687 1.09375-.414062 1.6875-.101562.257813-.222656.523438-.359375.796875-.082031.164063-.171875.328125-.265625.492188-.28125.492187-.617188 1-1.003906 1.523437-.136719.183594-.277344.367188-.425782.554688-.148437.1875-.304687.375-.46875.566406-.574218.675781-1.230468 1.371094-1.960937 2.082031-1.804687 1.753907-4.074219 3.59375-6.746094 5.460938-.042969.03125-.085937.0625-.128906.09375-.167969.121093-.324219.25-.445313.375-.089843.089843-.15625.179687-.1875.257812-.019531.050781-.027343.097657-.023437.140625 0 .027344.007813.050782.015625.074219.027344.0625.082031.105469.164062.121094.019532.003906.042969.007812.066407.007812.007812 0 .011719-.003906.015625-.003906 1.523437.011719 4.375-1.8125 7.636718-4.277344.386719-.289062.777344-.585937 1.171876-.894531.507812-.390625 1.019531-.792969 1.535156-1.203125.523437-.417969 1.054687-.84375 1.582031-1.269531.105469-.085938.207031-.164063.304687-.242188.140626-.109375.277344-.21875.414063-.316406 1.628906-1.210938 2.917969-1.78125 4.023437-1.78125.179688 0 .820313.019531 1.351563.246094.316406.132812.59375.34375.703125.671875.027344.074219.042969.160156.046875.246093.007813.15625-.03125.320313-.121094.484376-.0625.113281-.152343.226562-.285156.332031-.066406.050781-.132813.101562-.195313.144531-.058593.046875-.117187.085938-.171874.125-.171876.125-.320313.230469-.488282.390625-.03125.03125-.0625.058594-.097656.09375-.0625.0625-.128906.164063-.140625.3125 0 .046875 0 .101563.015625.160156 0 .007813.003906.019531.003906.03125.003906.003907.003906.007813.003906.015625.003907.015625.007813.027344.011719.046875.257813 1.136719.484375 2.539063.484375 3.9375.003906.632813-.042968 1.269531-.152344 1.878907.074219-.050782.148438-.113282.230469-.175782.1875-.15625.390625-.351562.601563-.601562.234375-.273438.480468-.609375.730468-1.03125.621094-1.035156 1.261719-1.960938 1.917969-2.765625 1.097657-1.335938 2.226563-2.339844 3.347657-2.953125.34375-.1875.707031-.34375 1.078124-.480469.816407-.296875 1.667969-.460937 2.457032-.460937.9375 0 1.710937.234374 2.238281.671874.261719-.179687.617187-.3125 1.117187-.3125h1.371094c.152344 0 .296875.023438.433594.066407.292969.097656.53125.285156.660156.542969.066406.132812.101563.273437.101563.414062.003906.238281-.074219.484375-.238281.703125l-3.046876 4.277344-1.273437 1.78125-.007813.011719c-.136718.171874-.253906.332031-.359374.488281-.199219.28125-.355469.53125-.460938.730469.332031-.066407.691406-.175782.863281-.253907.269531-.128906.503907-.191406.722657-.191406.359374 0 .664062.175781.820312.46875.054688.101563.109375.257813.101562.457031-.003906.203125-.074218.453125-.269531.746094-.261719.390625-.570312.738281-.921875 1.058594-.214844.191406-.4375.375-.683594.542968-.941406.644532-1.789062.972657-2.523437.972657-.792969 0-1.359375-.375-1.695313-.867188-.289062.152344-.636718.3125-1.03125.460938-.65625.242187-1.429687.433593-2.25.433593-.28125 0-.558593-.019531-.820312-.066406-.238281-.042968-.472656-.117187-.695312-.21875-.152344-.070312-.296876-.152344-.4375-.246094-.210938-.140624-.410157-.308593-.589844-.5-.539063.199219-1.171875.390626-1.875.558594-1.167969.273438-2.519532.46875-3.898438.46875-1.125 0-2.148437-.128906-3.066406-.378906-1.523438-.417969-2.746094-1.175781-3.617188-2.253906-.839843.550781-1.644531 1.011718-2.414062 1.390625-1.695312.832031-3.230469 1.253906-4.578125 1.253906-1.214844 0-2.167969-.34375-2.875-.851563-.070313-.050781-.140625-.105468-.207031-.15625-.328125-.269531-.597656-.574218-.808594-.890624-1.566406.988281-3.007812 1.601562-4.308594 1.832031-.210937.035156-.414062.0625-.613281.078125-.175781.015625-.347656.023437-.515625.023437-.03125 0-.0625-.003906-.09375-.003906-.179688-.003906-.351562-.011719-.511719-.03125-.457031-.050781-.847656-.160156-1.1875-.296875-.253906-.101562-.476562-.222656-.671875-.34375-.121094-.082031-.234375-.160156-.332031-.242188-.0625-.050781-.125-.101562-.175781-.148437-.878906.464844-2.273438 1.007813-3.679688 1.007813-.226562 0-.445312-.019532-.65625-.046876-.226562-.03125-.441406-.078124-.644531-.140624-.085937-.027344-.171875-.054688-.253906-.085938-.5625-.222656-1.015625-.589844-1.332031-1.0625-.160157-.234375-.285157-.496094-.375-.78125-.082032-.277344-.140626-.617188-.136719-1.019531.015625-.886719.335937-2.070313 1.375-3.570313.054687-.078125.132812-.1875.214843-.3125.035157-.050781.070313-.101562.105469-.15625.09375-.140625.199219-.292968.3125-.460937-.335937-.039063-.742187-.164063-1.089843-.335938-.207032-.105469-.394532-.226562-.535157-.355469-.132812.207032-.269531.421876-.40625.636719-1.179687 1.839844-2.515625 3.867188-3.691406 5.445313-.949219 1.265625-1.65625 2.09375-2.476563 2.617187-.496093.316407-1.027343.519531-1.671874.648438-.242188.046875-.507813.070312-.78125.070312-2.097657 0-4.839844-1.425781-5.867188-3.054687-.027344-.042969-.050781-.085938-.074219-.128906-.0625-.132813-.097656-.273438-.105469-.414063-.003906-.046875-.003906-.089844 0-.136719.007813-.136718.046876-.269531.109376-.390625.054687-.09375.125-.179687.203124-.246093.164063-.136719.371094-.214844.597657-.214844.105469 0 .207031.015625.316406.046875.0625.019531.128906.042969.191406.074219.660157.304687 1.269531.453124 1.867188.453124.503906 0 .992187-.105468 1.496093-.320312.367188-.15625.777344-.46875 1.234376-.929688.074218-.078124.152343-.160156.230468-.246093.546875-.597657 1.15625-1.40625 1.816406-2.414063.191407-.289062.382813-.589844.582032-.914062.050781-.082032.09375-.152344.132812-.210938l.203125-.324218c.40625-.648438 1.066407-1.707032 1.84375-2.925782.835938-1.308594 1.804688-2.804687 2.726563-4.164062.066406-.097656.132812-.195313.195312-.289063.261719-.382812.519532-.753906.765625-1.105469-.148437-.03125-.3125-.058593-.484375-.085937-.40625-.070313-.878906-.128906-1.410156-.175781-.585938-.050782-1.246094-.085938-1.980469-.085938-1.304687 0-2.683593.101563-4.097656.304688-.011719 0-.023437 0-.039063.003906-.03125.003906-.066406.003906-.101562.003906-.304688 0-.582031-.148437-.746094-.394531-.019531-.03125-.039062-.058594-.054687-.089844-.019531-.039062-.039063-.082031-.050781-.125-.03125-.082031-.046876-.167969-.050782-.257812-.007812-.175781.035156-.355469.121094-.519531.019531-.042969.046875-.082032.074219-.121094.230469-.324219.476562-.613282.734375-.878906 2.105468-2.15625 5.066406-2.460938 7.496094-2.460938zm0 .710938c-1.378907 0-2.679688.113281-3.855469.445312-1.515625.425781-2.816407 1.214844-3.800781 2.597656-.109376.15625-.066407.332032.070312.375.03125.007813.066406.011719.105469.007813 3.167969-.453125 5.570312-.339844 7.140625-.128907.714844.097657 1.261718.210938 1.628906.300782.203125.050781.46875.164062.253906.457031-.160156.222656-.328125.460937-.496094.703125-1.691406 2.410156-3.785156 5.714844-4.929687 7.539062-.289063.464844-.519531.832032-.664063 1.0625-.390624.621094-1.726562 2.886719-3.160156 4.195313-.382812.347656-.773437.632813-1.15625.796875-.585937.25-1.199218.386719-1.847656.375h-.003906c-.003906 0-.007813 0-.011719 0-.195313-.003906-.394531-.023438-.597656-.054688-.46875-.074218-.960938-.222656-1.472657-.464843-.3125-.144531-.445312.015625-.410156.21875.007813.054687.027344.109375.0625.167969 1.019532 1.609374 4.039063 3.035156 5.914063 2.664062.183593-.035156.355469-.078125.519531-.128906.863281-.269532 1.503906-.769532 2.320312-1.746094.066407-.078125.136719-.164062.207032-.25.074218-.089844.144531-.183594.222656-.28125.144531-.183594.292969-.378906.449219-.589844.417969-.558594.859375-1.179687 1.304687-1.828125.6875-1 1.386719-2.066406 2.050782-3.097656.941406-1.457031 1.804687-2.835937 2.441406-3.832031.605468-.949219 1.101562-1.710938 1.507812-2.335938.902344-1.375 1.390625-2.054687 1.753906-2.453125.027344-.027343.050782-.050781.078126-.070312.007812-.003907.015624-.007813.019531-.011719.023437-.015625.042969-.03125.0625-.042969l.011719-.003906c.15625-.082031.332031-.09375.46875-.066406.007812.003906.019531.003906.027343.007812.1875.046875.390625.09375.617188.136719.523437.109375 1.148437.210938 1.832031.292969.210938.023437.421875.046875.640625.070312 1.648437.152344 3.5625.164063 5.289063-.152343.21875-.039063.433593-.085938.640624-.136719.289063-.070313.570313-.148438.84375-.242188 1.550782-.527343 2.792969-1.433593 3.28125-2.910156.058594-.171875.03125-.265625-.027343-.3125-.09375-.070313-.273438-.03125-.394531.011719-1.488282.519531-3.1875.671875-4.964844.617187-1.722656-.050781-3.523438-.300781-5.289063-.601562-.214843-.035157-.429687-.074219-.644531-.113281-.585938-.101563-1.160156-.210938-1.730469-.316407-.214843-.039062-.429687-.082031-.640625-.121093-2.136718-.398438-4.109375-.75-5.667968-.75zm29.824218.3125c-.109375-.007813-.222656-.003907-.335937 0-.472657.027343-1.003907.148437-1.601563.386718-.074218.03125-.152344.066406-.230468.097656-.03125.015626-.0625.027344-.097657.042969-1.378906.636719-3.0625 1.886719-5.019531 3.996094-.476562.515625-.921875 1.023437-1.34375 1.527344-.183594.222656-.363281.445312-.535156.664062-.199219.253907-.386719.503907-.574219.757813-.203125.277344-.398437.558594-.589844.839844-1.199219 1.789062-2.140625 3.691406-2.960937 6-1.8125 1.921874-3.84375 2.929687-5.121094 3.0625-.238281.027343-.449219.019531-.628906-.015626-.054688-.011718-.109375-.019531-.160156-.035156-.28125-.097656-.277344-.332031.011718-.855468.054688-.101563.125-.214844.203125-.34375.167969-.265626.382813-.585938.648438-.96875.257812-.371094.621093-.890626 1.03125-1.472657 1.03125-1.453125 2.355469-3.296875 2.984375-4.164062.140625-.191407.246094-.339844.308594-.421875.027343-.039063.046874-.078125.0625-.113282l.007812-.007812c.007812-.023438.007812-.042969.011719-.0625.003906-.019531.011719-.035156.011719-.050781.003906-.003907 0-.011719 0-.019531 0-.0625-.019532-.121094-.054688-.167969-.082031-.105469-.242188-.167969-.429688-.167969h-1.511718c-.570313 0-.816406.222656-1.027344.496094-.066406.085937-.125.175781-.191406.265625-.15625.238281-.535156.773437-1.035156 1.464843-.582032.8125-1.332032 1.839844-2.101563 2.890626l-.023437.035156c-.058594.082031-.125.167968-.183594.253906-.15625.210938-.308594.421875-.460938.628906-.1875.253906-.375.484375-.5625.691406-.183594.203126-.367187.386719-.546875.550782-.039062.03125-.074219.070312-.113281.101562-1.207031 1.042969-2.320312 1.265625-2.738281 1.214844-.257813-.03125-.460938-.199219-.488281-.519531-.027344-.324219.128906-.8125.601562-1.488281.21875-.316407.585938-.839844 1.023438-1.460938.148437-.207031.300781-.425781.460937-.652344.234375-.335937.480469-.683594.726563-1.03125.175781-.25.351562-.5.523437-.742187.585937-.832031 1.132813-1.601563 1.496094-2.109375.0625-.089844.089843-.167969.097656-.238282 0-.007812 0-.015624 0-.023437.003906-.207031-.214844-.328125-.488281-.328125h-1.484375c-.464844 0-.964844.089844-1.40625.476562-.714844.625-1.640625 1.5-2.984375 2.1875-.363282.1875-.753906.363282-1.179688.511719-.035156.011719-.0625.03125-.082031.054688-.046875.0625-.042969.160156.078125.242187.027344.015625.054688.03125.089844.046875.136718.058594.328125.121094.546875.171875.515625.125 1.1875.191406 1.710937-.007812-.617187.917968-1.1875 1.769531-1.441406 2.136718-.707031 1.019532-1.078125 1.90625-1.199219 2.65625-.023437.132813-.039062.265626-.042969.390626-.003906.066406-.007812.128906-.007812.1875.003906.46875.117188.863281.300781 1.191406.253907.441406.640625.757812 1.09375.933594 1.019531.402343 2.28125.210937 3.34375-.144532.730469-.246094 1.367188-.566406 1.769531-.832031 0 0 .132813.214844.429688.464844.132812.113281.300781.230469.5.339843.3125.171876.710938.328126 1.207031.40625.152344.023438.3125.035157.484375.042969.191406.011719.394532.007813.613282-.007812.191406-.015625.398437-.042969.613281-.078125 1.210937-.214844 2.753906-.828125 4.691406-2.15625.378906 1.027344 1.554687 2.328125 3.933594 2.207031.019531-.003906.039062-.003906.0625-.003906 1.648437-.101563 3.871093-.882813 6.792969-2.894531.546874.863281 1.277343 1.496093 2.125 1.945312 1.152343.613281 2.515624.886719 3.898437.9375.027344.003906.054687.003906.085937.003906.492188.015625.992188 0 1.480469-.035156 1.90625-.140625 3.714844-.617188 4.917969-1.125.402344.582031.988281 1.003906 1.621094 1.113281.945312.167969 1.914062-.039062 2.730468-.34375.019532-.007812.039063-.015625.058594-.019531 0 0 0-.003906.003906-.003906.640626-.246094 1.183594-.554688 1.53125-.792969.058594.460937.371094 1.039063 1.066407 1.164063.503906.089843 1.210937-.054688 2.171875-.664063.003906-.003906.007812-.007813.011718-.007813.019532-.011718.039063-.027343.058594-.039062.054688-.035156.109375-.070312.167969-.109375.496094-.34375.847656-.6875 1.089844-.980469.144531-.167968.25-.316406.328125-.433594.152344-.230468.183594-.402343.109375-.492187-.046875-.058594-.140625-.078125-.273438-.054687-.09375.015624-.199219.046874-.324219.105468-.460937.21875-1.761718.539063-1.984374.289063-.394532-.449219.953124-2.164063 1.085937-2.335938l2.496094-3.5 1.820312-2.554687c.117188-.152344.117188-.289063.054688-.390625-.074219-.121094-.242188-.199219-.445313-.199219h-1.371094c-.699218 0-.914062.332031-1.164062.683594-.183594-.441406-.582031-.734375-1.097656-.894532-.003906 0-.003906 0-.003906-.003906-1.140626-.347656-2.875-.058594-4.285157.714844-.195312.105469-.390625.222656-.585937.355469-.714844.480469-1.453125 1.140625-2.195313 1.992187-.105469.121094-.210937.246094-.316406.375-.136719.167969-.277344.347656-.417969.53125-.4375.574219-.878906 1.21875-1.316406 1.929688-.054688.09375-.109375.179687-.164062.273437-.066407.105469-.128907.207031-.195313.308594-1.550781 2.386719-3.019531 2.230469-3.019531 2.230469.289062-.710938.421875-1.515625.46875-2.320313 0-.039062.003906-.074219.003906-.113281.007812-.164062.011719-.332031.011719-.496094v-.011718c0-.480469-.027344-.953126-.070313-1.394532-.007812-.113281-.019531-.222656-.03125-.332031-.007812-.058594-.015625-.117187-.019531-.171875-.015625-.09375-.027344-.183594-.039063-.273438-.019531-.140624-.042968-.277343-.0625-.40625-.113281-.710937-.238281-1.214843-.265624-1.34375-.117188-.566406.15625-.953124.316406-1.117187.386718-.390625.636718-.515625 1.023437-.816406.472657-.371094-.394531-.707031-1.265625-.707031-.660156 0-1.78125.25-3.839844 1.824218-.144531.113282-.296874.230469-.453124.359375-.355469.285157-.707032.566407-1.050782.84375-3.738281 2.988281-7.035156 5.4375-9.378906 6.453125-1.167969.507813-2.101562.660156-2.734375.339844-1.015625-.511719-.070313-1.511719.910156-2.195312.429688-.296876.835938-.59375 1.234375-.886719.363282-.265625.71875-.527344 1.058594-.785157.390625-.300781.773438-.59375 1.136719-.886718 2.046875-1.640625 3.648437-3.15625 4.859375-4.535156.164062-.1875.324218-.375.476562-.554688.167969-.207031.332032-.410156.484375-.605469.597657-.785156 1.058594-1.507812 1.394531-2.175781.105469-.207031.203126-.410156.28125-.609375.140626-.339844.246094-.660156.316407-.964844.261719-1.113281.0625-1.96875-.5-2.515625-.132813-.132812-.292969-.246094-.46875-.339844-.210938-.109374-.453125-.191406-.722657-.234374-.101562-.015626-.207031-.027344-.316406-.03125zm-.746094 2.699218c.03125.003906.050782.011719.066407.023438.027343.023437.039062.058594.050781.101562.050781.230469-.136719.746094-.695312 1.574219-.378907.566406-.929688 1.277344-1.6875 2.136719-.007813.011718-.015626.019531-.027344.03125-.171875.199218-.355469.398437-.542969.601562-.183594.199219-.375.402344-.570313.605469-1.144531 1.183594-2.492187 2.414063-4.074218 3.519531-.558594.386719-1.046875.605469-1.117188.550782-.105468-.082032.210938-.742188.664063-1.425782 1.121093-1.6875 2.097656-2.953125 3.605469-4.488281 2.0625-2.097656 3.90625-3.269531 4.328124-3.230469zm-1.316406 1.523438c-.605468.449218-1.367187 1.085937-2.210937 1.914062-.097657.09375-.199219.191406-.296875.292969-.054688.054687-.101563.105469-.148438.15625-.183594.1875-.359375.371094-.523437.550781-.199219.214844-.386719.425782-.566407.628906-.128906.152344-.253906.300782-.378906.445313-.429687.519531-.8125 1.03125-1.1875 1.554687h.003906c.75-.601562 1.496094-1.269531 2.234376-2.007812.195312-.191406.386718-.386719.578124-.585938.332032-.347656.660157-.703124.992188-1.078124.234375-.265626.441406-.507813.632812-.738282.359376-.4375.648438-.8125.871094-1.132812zm20.601563 6.265625c.234375 0 .429687.035156.582031.101562.144531.058594.230469.136719.277344.214844.09375.160156.027344.34375-.058594.492187-.003906.003907-.003906.003907-.003906.007813-.003906.003906-.003906.007813-.007813.011719-.042969.070312-.089843.132812-.125.179687-.027343.039063-.113281.160157-.238281.335938-.292969.40625-.808594 1.117187-1.355469 1.847656-.363281.484375-.742187.976563-1.078125 1.390625-.410156.5-.949218.960938-1.488281 1.320312-.878906.582032-1.761719.898438-2.125.6875-.136719-.078124-.246094-.222656-.300781-.433593-.011719-.050781-.019532-.101563-.027344-.15625 0-.003907 0-.011719 0-.015625-.007812-.042969-.007812-.09375-.007812-.144532 0-.019531 0-.03125 0-.050781 0-.039062.003906-.082031.007812-.121093.003906-.035157.003906-.0625.007812-.097657.003907-.023437.007813-.050781.011719-.074219.046875-.269531.144531-.582031.3125-.945312.261719-.566406.6875-1.246094 1.347657-2.035156.242187-.285156.484374-.542969.726562-.773438.007812-.011718.019531-.019531.027344-.027344.964844-.90625 1.929687-1.402343 2.714844-1.605468.296874-.074219.566406-.109375.800781-.109375zm-.25.707031c-.003907 0-.007813 0-.007813 0-.007812 0-.011718 0-.019531 0-.347656.066406-.945313.300781-1.605469.699219-.613281.375-1.28125.894531-1.84375 1.566406-.316406.378906-.566406.714844-.765625 1.023437-.214843.324219-.371093.605469-.484375.851563-.179687.398437-.253906.695313-.273437.890625-.003907.046875.015625.089844.042969.117188.027343.03125.066406.046874.113281.046874.011719 0 .027343 0 .039062-.003906.117188-.035156.253907-.089844.398438-.15625.484375-.222656 1.09375-.613281 1.617187-1.105468.171875-.160157.335938-.328126.480469-.503907.429687-.527343 1.007813-1.292969 1.503906-1.964843.386719-.523438.722657-.988282.910157-1.246094.007812-.011719.003906-.019532.007812-.027344.023438-.050781.015625-.101562-.019531-.136719-.023438-.03125-.054688-.050781-.09375-.050781zm-13.347657.105469s.820313 3.027343-.066406 4.75c-.054687.109375-.121094.214843-.191406.3125-1.125 1.550781-3.65625 1.070312-4.847656-.394531-.019532-.023438-.039063-.042969-.058594-.066407-.019531-.023437-.035156-.054687-.054688-.082031-.054687-.078125-.109374-.152344-.160156-.234375.003906 0 1.246094-1.011719 2.703125-2.175781.351563-.28125.714844-.570313 1.078125-.855469.554688-.441406 1.105469-.875 1.597656-1.253906zm12.71875.488281c-.570312.78125-1.398437 1.898438-1.964843 2.59375-.511719.628906-1.21875 1.144531-1.773438 1.417969-.175781.085937-.140625-.023438-.117187-.085938.167968-.433593.527344-1.101562 1.289062-2.015625.820313-.976562 1.851563-1.601562 2.566406-1.910156zm-13.183593.777344c-.554688.433594-1.140625.898437-1.699219 1.34375-.023438.015625-.042969.035156-.066406.054687-.050782.039063-.101563.078125-.152344.117188-.078125.0625-.15625.125-.234375.1875-.714844.574219-1.355469 1.089843-1.777344 1.433593.054688.054688.113281.109376.175781.160157.25.214843.546876.390625.859376.519531.351562.144531.726562.226562 1.089843.226562.304688 0 .691407-.058593 1.03125-.277343.148438-.097657.289063-.222657.410157-.386719.574218-.789062.523437-2.277344.363281-3.378906zm-.292969.699218c.09375 1.121094-.035156 2-.371094 2.460938-.09375.132812-.214844.238281-.351562.320312-.167969.097657-.367188.160157-.597656.183594-.0625.003906-.125.007813-.191407.007813-.078125 0-.160156-.007813-.242187-.015625-.449219-.050782-.917969-.234375-1.304688-.511719.347656-.277344.769532-.621094 1.230469-.988281.117187-.09375.234375-.1875.355469-.285156.203125-.164063.410156-.324219.617187-.492188.285157-.226562.570313-.453125.855469-.679688zm0 0" fill="#036"/></svg>