<svg height="64pt" viewBox="0 0 75 64" width="75pt" xmlns="http://www.w3.org/2000/svg"><path d="m33.152344 39.691406c-4.160156-2.640625-11.242188-7.519531-12.335938-10.867187 1.917969-.054688 5.121094.851562 6.824219 1.632812 1.398437.644531 4.269531 2.488281 5.792969 5.566407 0 0 .875.332031 1.789062.171874-.011718.515626-.128906 1.03125-.664062 1.332032.574218.289062 1.910156.09375 2.515625-.152344.210937.230469.070312 1.480469-.175781 1.792969.667968.074219 2.003906-.320313 2.863281-.847657.199219.683594.085937 1.59375-.207031 2.25.894531-.246093 1.710937-.6875 2.375-1.40625.394531.078126 1.492187.15625 1.957031-.058593.464843-.214844 1.992187-1.792969 3.074219-1.867188.09375-.484375-.0625-1.058593-.183594-1.554687.464844-.289063.777344-.753906 1.203125-1.164063 2.714843-5.140625 3.710937-12.792969 3.734375-14.761719.113281-.023437.75-.371093.828125-.5.101562-.484374.136719-.960937.203125-1.492187-.40625-.398437-.730469-1.019531-.863282-1.636719.027344-.867187.085938-1.878906.214844-2.707031-.179687-.921875-.375-1.847656-.628906-2.71875-.144531-.335937-.664062-.550781-1.171875-.5-1.054687.273437-2.195313.441406-3.191406.90625-.382813-.523437-.742188-2.066406-2.976563-3.183594-2.71875.023438-4.519531 1.871094-4.96875 2.179688-.472656-.3125-1.214844-1.96875-1.605468-2.441407-.785157-.269531-1.203126-.355468-1.585938-.121093-.414062.332031-.828125.535156-1.265625.8125-.632813-1.144531-2.210937-2.96875-2.832031-3.417969-.707032-.515625-1.925782-1.066406-2.550782-1.207031-.242187-.078125-.515624.1875-.535156.429687-.527344-.082031-1.363281-.050781-1.898437-.011718-.984375-.582032-1.945313-1.574219-3.628907-1.640626-.601562 1.175782.050782 2.980469.46875 3.828126-.289062.273437-.808593.875-1.078124 1.261718 0 0 .359374-1.582031-.507813-2.679687-.867187-1.101563-4.9375-4.222657-7.230469-4.128907-.773437.03125-1.222656 2.371094-.941406 3.933594.277344 1.507813 1.507812 3.964844 1.507812 3.964844v.003906c-1.394531-.511718-2.84375-.761718-3.867187-.492187.488281.34375.921875.90625 1.046875 1.433593-1.585938-.421874-5.375-.429687-6.925781.394532.539062.511718 1.15625.839844 1.550781 1.472656-1.09375-.273438-3.414062.234375-4.363281 1.214844.753906.164062 1.496093.558594 1.894531 1.148437-1.378906.476563-2.328125 1.503907-3.246094 2.484375.609375.074219 1.238282.273438 1.660156.597656-.945312.492188-2.03125 1.785157-2.4375 2.792969.5625-.0625 1.15625-.023437 1.570313.164063-.59375.820312-1.097656 1.6875-1.480469 2.667968.472656-.046874.777344.054688 1.046875.164063-.335937 3.75.894531 7.945313 2.597657 10.59375 2.851562 4.441406 5.855468 7.902344 11.78125 11.53125 12.738281 7.789063 25.339843 9.015625 30.101562 18.167969.136719-7.75-3.359375-17.042969-13.253906-23.335938"/><path d="m43.945312 19.660156c-.339843.285156-1.1875 1.945313-1.191406 2.609375-1.605468-.960937-2.058594-2.441406-2.457031-3.667969-.875.730469-2.792969 1.769532-3.3125 1.667969.277344-.324219.394531-1.648437.144531-2.082031-.695312.765625-1.910156 2.089844-3.164062 2.140625.207031-.304687.371094-1.707031.019531-2.148437-.433594.714843-1.617187 1.617187-2.730469 1.730468.058594-.339844.117188-.851562-.238281-1.207031-.671875 1.085937-1.90625 2.011719-3.027344 2.019531.132813-.804687-.058593-1.511718-.617187-1.972656-.558594.835938-1.222656 1.8125-2.992188 1.902344-.011718-.640625-.59375-2.011719-1.199218-2.226563-.511719.511719-1.039063 2.582031-1.09375 3.117188-.078126.761719.234374 1.867187 1.144531 1.773437.785156-.078125 1.574219-1.046875 1.875-1.675781.820312.257813 1.410156 1.589844 1.609375 2.308594.453125-.308594 1.292968-1.09375 1.488281-1.878907.996094.660157 1.398437 1.890626 1.398437 2.824219.578126-.480469 1.257813-1.378906 1.449219-2.035156.820313.523437 1.5625 2.132813 1.425781 3.386719.492188-.171875 1.101563-.542969 1.519532-1.066406.738281.628906 1.179687 1.945312.992187 2.9375.402344-.070313 1.554688-.859376 1.835938-1.410157.371093.578125.660156 2.578125.519531 3.355469.792969-.488281 2.023438-1.882812 2.488281-2.765625.242188.433594.535157 1.355469.558594 2.015625 1.488281.394531 3.375 1.164062 4.570313 1.742188 1.605468.777343 4.488281 2.421874 5.878906 3.777343.855468.839844 1.089844 1.929688 1.285156 2.742188.789062-.773438.695312-2.910157.476562-3.371094.746094.503906 1.339844 1.09375 2.046876 1.300781 1.195312.476563 3 .699219 4.277343.628906 1.722657-.394531 4.46875-1.40625 5.867188-1.800781.609375-.257812 1.652343-.617187 2.351562-.628906 1.203125-.125 2.304688-.261719 3.484375.132813.808594.125 1.988282.488281 2.6875.890624 0 0-.445312-1.441406-1.199218-2.410156-.136719-.199218-1.054688-1.898437-4.269532-1.457031.679688-.285156 1.742188-1.691406 1.871094-2.355469.132812-.957031-.097656-2.011718-.59375-2.613281-.550781 3.175781-3.304688 4.804687-5.042969 4.785156-1.484375-.015625-2.476562-.277343-3.910156-1.058593-1.769531-.972657-1.898437-2.515626-3.957031-3.425782.277344.566406.332031 1.695313-.128906 2.230469-.691407-1.007813-3.757813-4.066406-4.988282-4.878906-1.304687-.871094-4.550781-3.269531-7.152344-3.882813" fill="#d73647"/><path d="m14.953125 2c.609375.601562 1.367187 1.441406 1.292969 2.089844-.15625.144531-.503906.25-.90625.246094.589844.453124 1.296875 1.453124 1.40625 1.839843s-.214844.429688-.625.671875c.121094.105469 2.140625.316406 2.355468 1.296875.359376.105469.648438.171875 1.007813.308594.046875-.257813-.003906-.601563-.003906-.90625-.199219-.492187-1.71875-.84375-2.183594-.898437.410156-.308594.804687-.542969 1.304687-.546876-.339843-.390624-.949218-.789062-1.742187-1.058593.167969-.175781 1.167969-.183594 1.765625.070312-.261719-.589843-1.414062-1.617187-2.359375-2.410156 1.734375.554687 3.878906 2.402344 4.691406 3.335937-.628906.753907-.546875 2.324219-.179687 2.886719 0-.976562.152344-2.265625.609375-2.910156-.980469-1.492187-3.960938-3.730469-6.433594-4.015625zm14.195313 3.734375c-1.25-.050781-3.125.269531-3.679688.40625-1.359375.972656-.8125 3.167969-1.957031 4.269531.640625-.011718.953125.488282 1.339843.355469-.039062-.769531.933594-2.449219 1.707032-2.972656.582031-.273438 1.386718-.292969 2.253906-.195313-.003906-.335937-.34375-.765625-.34375-.765625 1.285156.0625 3.617188 1.933594 4.269531 2.433594.648438.496094 1.203125.785156 1.203125.785156-.246094-.421875-.304687-1.402343-.703125-1.753906-.710937-.546875-2.265625-2.042969-3.125-2.371094-.199219-.121093-.550781-.175781-.964843-.191406zm-15.246094 3.367187c.148437.382813.429687.761719.464844 1.175782.289062-.476563.472656-.835938.472656-.835938-.117188-.09375-.617188-.308594-.9375-.339844zm22.414062.378907c-.257812.035156-.585937.261719-.777344.515625.449219.121094.917969.125 1.410157.179687l.019531-.039062zm7.335938.019531c-.644532-.019531-1.390625.175781-1.390625.175781-.550781.070313-1.242188.9375-1.746094 1.113281.007813.253907.554687.871094.597656 1.003907-.035156.082031-.101562.191406-.167969.234375-.703124-.277344-2.152343-.589844-2.824218-.671875-1.351563-.164063-4.667969.085937-5.703125.117187-1.96875-.222656-4.628907.164063-5.882813.457032-1.144531.265624-2.59375.839843-3.378906 1.238281.234375-.394531.316406-.816407.300781-1.167969-.980469-.917969-3.835937-2.125-5.957031-1.75-.390625.230469-.855469.679688-1.097656 1.074219-.398438.660156-.660156 1.339843-.816406 2.097656-.230469 2.195313 1.390624 3.960937 2.414062 4.757813-.160156.070312-.421875.203124-.859375.109374-.214844.597657-.296875 1.488282-.132813 2.234376-.210937.261718-.683593.46875-1.03125.558593 0 0 3.292969 4.230469 4.300782 5.488281 1.542968.007813 3.496094.320313 4.710937.613282 1.222657.292968 4.398438 1.527344 6.828125 3.0625-2.792968-2.71875-6.746094-4.25-7.609375-4.496094-.859375-.246094-2.34375-.472656-2.992187-.535156v-.003906s-1.621094-2.21875-1.828125-3.105469c-.207031-.890625.84375-4.578125 1.140625-5.832031 1.519531.539062 3.675781.375 5.742187.042968 2.128907-.34375 11.515625-2.585937 14.800781-2.621094-.289062-.019531-.574218-.042968-.871093-.042968-1.394531 0-2.824219.320312-4.203125.574218-.992188.050782-3.5625.53125-3.871094.652344-2.171875.347656-4.144531 1.03125-6.289062 1.449219-1.578126.449219-3.828126-.074219-5.429688-.445313-.707031 1.292969-1.371094 4.730469-1.175781 6.480469.394531 1.09375 1.3125 1.902344 1.976562 2.839844l-1.011719-.945313s-1.03125-1.210937-1.414062-1.8125c-.351562-.546874.15625-3.984374.90625-5.9375-.835938.367188-1.847656.21875-2.949219-.390624 2.804688-.054688 4.738281-2.554688 4.667969-4.714844.910156.789062.546875 2.792968-.113281 3.679687 1.699219.941407 7.121093.601563 9.953125-.414062 3.085937-1.109375 9.441406-1.40625 10.703125-.902344-.195313-.058594-.507813-.074219-.878907-.070313 1.4375.09375 2.8125.4375 3.984376 1.292969 1.09375.785157 3.714843 1.871094 5.832031 2.023438-.21875-.21875-.332031-.714844-.253907-1.03125.117188-.476563.066407-1.265625.039063-1.480469-.03125-.222656-.109375-.574219-.183594-.722656-.132812.039062-.257812.085937-.351562.21875.183593.324218.371093.625.359375 1.023437-.015625.058594-.070313.089844-.117188.109375-.417968-.570312-1.476562-1.601562-1.96875-1.964844.226563-.324218.582032-.5.875-.851562.390625-.261719.828125-.003906 1.238282-.207031.074218-.382813-.476563-.320313-.65625-.308594-.6875.050781-2.886719 1.21875-2.804688 2.070313-.011719.121093-.144531.105468-.199219.105468-.226562-.398437-.175781-1.460937-.476562-1.808594-.703125-.898437-1.359375-1.683593-2.160157-2.554687-.15625-.070313-.359374-.105469-.578124-.109375zm-33.957032.820312c-.605468-.003906-1.222656.0625-1.761718.144532.542968.179687.816406.75.992187 1.121094.847657-.308594 1.660157-.765626 2.527344-1.003907-.535156-.1875-1.144531-.261719-1.757813-.261719zm2.46875 1.488282c-.324218.011718-.585937.042968-.585937.042968s-1.714844.972657-2.507813 1.445313c-.253906.507813-.414062 1.027344-.527343 1.589844h1.03125c.742187-.617188 1.875-1.183594 2.738281-1.652344 0 0 .625-.835937.835938-1.363281-.265626-.066406-.660157-.074219-.984376-.0625zm-4.914062.648437c-.773438-.015625-1.371094.023438-2.074219.128907l1.152344.78125c.292969-.269532.671875-.65625.921875-.910157zm.613281 1.472657c-.375.339843-1.601562 1.578124-1.964843 2.082031.339843-.109375.710937-.265625.710937-.265625l1.042969-.921875s.132812-.632813.210937-.894531zm5.265625.179687c-.8125.382813-1.839844.910156-2.597656 1.453125-.089844.652344-.101562 1.238281-.089844 1.867188.378906.128906.6875.421874 1.082032.472656l2.472656-1.523438c.125-.46875.433594-1 .554687-1.523437-.457031-.402344-.875-.558594-1.421875-.746094zm-8.222656.875c-.488281.105469-.902344.453125-1.335938.703125l.742188.257812zm4.238281.925781c-.488281-.046875-1.175781.101563-1.175781.101563s-1.75 1.761719-2.320312 2.578125l-.039063 1.453125.8125-.089844c.757813-.777344 1.605469-1.632813 2.558594-2.230469.054687-.125.085937-1.367187.164062-1.8125zm-5.527343 1.984375c-.148438.164063-.894532.808594-1.003907.988281l.472657.179688c.054687-.222656.457031-.949219.53125-1.167969zm5.945312.59375c-.386719.1875-1.671875 1.394531-1.671875 1.394531s-.078125.421876-.054687.738282c.550781-.578125 1.945312-1.816406 2.59375-2.109375zm-4.996094.898438c-.652344.890625-.851562 1.984375-1.175781 3 .253906-.835938 1.199219-2.109375 1.199219-2.109375s.042968-.597656-.023438-.890625zm1.675782 1.734375c-.273438 0-.554688.027344-.785157.082031-.5625.925781-1.261719 2.003906-1.640625 3.023437-.054687.597657.117188 1.324219.339844 1.886719.640625-1.671875 1.324219-3.226562 2.84375-4.910156-.214844-.054687-.488281-.082031-.757812-.082031zm7.042968.4375c-.351562.570312-.652344 2.128906-.738281 2.710937 1.09375-.03125 2.78125-.167969 3.347656.019531-.59375-.582031-1.800781-1.480468-2.609375-2.730468zm1.195313 3.9375c-.871094.054687-1.636719.230468-1.945313.511718.015625.785157.039063 1.605469.335938 2.300782 1.640625-.683594 3.363281-1.289063 5.207031-.757813-.210937-.5-.429687-1.203125-.996094-1.835937-.75-.207032-1.726562-.273438-2.601562-.21875zm2.804687 3.117187c-1.28125-.003906-3.046875.332031-4.03125 1.046875.210938 1.472656 1.324219 3.363282 1.324219 3.363282s3.042969-1.453126 5.742187-1.480469c-.738281-.875-1.339843-1.863281-1.957031-2.804688-.273437-.078125-.648437-.121093-1.078125-.125zm4.070313 4.074219c-2.101563.113281-4.222657.679688-5.96875 1.878906.546875 1.320313 1.625 2.53125 2.550781 3.679688 1.757812-1.457032 4.070312-1.953125 6.078125-2.832032-.949219-.800781-1.789063-1.789062-2.660156-2.726562zm14.058593 1.324219c.320313.746093.949219 1.296875 1.734376 1.605469 1.253906.355468 2.667968.992187 3.683593 1.179687 1.019531.1875 2.097657.316406 2.617188.3125.519531-.007813 1.519531-.195313 2.453125-.773437-.617188.0625-1.464844-.15625-2-.484376-.503906.472657-1.851563.566407-2.238282.015626-1.148437.292968-2.15625-.109376-2.738281-.519532-.832031.039063-2.328125-.339844-3.511719-1.335937zm-10.425781 2.675781c-2.335937.347656-4.113281 1.335938-5.941406 3.039062.554687 1.042969 1.800781 2.003907 2.726563 2.878907 2.53125-1.695313 5.367187-2.382813 8.328124-2.472657-1.242187-1.09375-3.75-2.640624-5.113281-3.445312zm5.691407 4.742188c-2.375.027343-5.269532.996093-7.722657 2.367187 0 0 1.542969 1.832031 4.273438 2.75 2.984375-1.691406 6.566406-1.917969 8.605469-1.691406-.980469-1.269531-2.867188-2.816407-4.175782-3.378907-.3125-.035156-.640625-.050781-.980468-.046874zm5.539062 4.964843c-2.167969-.023437-5.449219.683594-7.101562 1.488281 0 0 4.339843 1.832032 6.71875 3.242188 1.304687-.101562 3.671874-.304688 4.6875-.257812 0 0-.929688-2.820313-3.453126-4.417969-.253906-.03125-.539062-.050781-.851562-.054688zm4.367188 6.292969c-.808594-.003906-1.871094.125-2.613282.164062 2.179688.921876 4.046875 2.097657 4.886719 2.941407-.097656-.9375-.742187-2.402344-1.566406-3.050781-.195313-.039063-.433594-.054688-.707031-.054688zm0 0" fill="#1e6b52"/><path d="m28.253906 8.652344c-.171875.023437-.316406.0625-.433594.136718-.5.285157-1.976562 1.550782-1.308593 2.578126 0 0 .40625-.171876 1.085937-.367188 1.167969-.332031 2.65625-.261719 4.351563-.445312-.503907-.363282-1.003907-1.011719-1.515625-1.289063-.898438-.492187-1.65625-.667969-2.175782-.613281zm8.347656 13.042968c-1.402343-.03125-3.078124.089844-3.648437.28125-.269531.058594-.367187.089844-.425781.125-.441406.125-1.0625.296876-1.152344.371094.164062.023438.414062.046875.609375.074219.078125.105469.347656.058594.433594.160156.121093.023438 1.46875.289063 1.964843.402344 2.355469.363281 4.851563.753906 6.957032 1.945313.957031.5625 2.242187 1.550781 2.730468 2.234374.488282.6875.921876 1.449219.714844 2.585938 1.519532.074219 2.671875-1.109375 3.039063-2.078125.730469.28125 1.023437.570313 1.527343.886719 1.652344 1.039062 3.121094 2.84375 4.734376 3.816406 2.25 1.351562 5.628906-.285156 6.222656-1.015625-1.90625-.1875-4.6875-1.269531-6.003906-2.128906.429687-.144531.734374-.402344.84375-.753907-.882813-.078124-3.511719-2.234374-3.976563-2.519531-2.378906-1.480469-6.25-3.097656-6.25-3.097656.085937-.242187.046875-.832031-.09375-1-.457031.453125-2.066406.558594-3.15625.347656-1.097656-.203125-3.011719-.445312-3.816406-.554687-.351563-.042969-.789063-.070313-1.257813-.082032zm32.523438 4.203126c.214844 1.050781.347656 3.046874-1.28125 4.964843h.007812c4.035157-.324219 4.621094 3.003907 4.621094 3.003907-1.949218-1.125-3.722656-1.042969-5.976562-.546876-1.792969.386719-2.554688.402344-3.949219-.847656.304687 1.011719 1.023437 1.671875 1.816406 1.941406-2.875-.785156-5.007812 2.351563-8.601562 1.445313 2.195312 1.050781 4.332031.230469 6.015625-.398437 2.289062-.851563 6.4375 1.003906 8.070312-.5625-1.199218.011718-3.179687-.417969-4.277344-.746094 0 0 .523438-.261719 2.996094-.324219 2.464844-.066406 4.523438 1.632813 5.335938 2.683594.054687-3.15625-2.167969-6.453125-5.453125-5.804688 1.046875-.566406 2.261719-2.714843.675781-4.808593zm0 0" fill="#f4c300"/><path d="m29.667969 9.175781c1.109375.359375.722656 1.242188.722656 1.242188 1.015625-.855469-.722656-1.242188-.722656-1.242188zm9.710937 5.734375c-.265625-.042968-.585937-.015625-.792968.007813-.894532.089843-7.074219 1.40625-8.203126 1.59375-1.128906.1875-4.597656.988281-6.777343 1.128906.835937.371094 1.382812 1.242187 1.433593 1.964844.445313-.226563 1.339844-.828125 1.992188-2.207031 1.074219.484374 1.734375 1.273437 1.835938 2.050781.65625-.25 1.410156-1.089844 2.035156-2.6875.492187.363281 1.179687 1.414062 1.105468 1.816406.773438-.261719 1.65625-1.277344 2.023438-2.253906.804688.703125 1.042969 1.320312 1.078125 2.503906.644531-.46875 1.691406-1.65625 2.199219-2.890625.695312.820312.929687 2.050781.835937 3.050781.777344-.527343 1.589844-2.632812 1.679688-3.652343.027343-.269532-.183594-.386719-.445313-.425782zm3.84375.464844c-.171875-.015625-.339844-.007812-.484375.035156-.59375.148438-.914062.597656-1.050781.902344-.378906 1.445312-.308594 3.167969.605469 4.265625.386719-.988281 1.695312-3.59375 2.621093-4.117187.070313.636718.558594 1.578124.890626 1.953124.355468-.207031.679687-.53125.867187-.789062.152344.378906.351563.875.578125 1.179688.28125-.113282.691406-.542969.875-.816407.320312.320313.550781.957031.699219 1.382813.269531-.300782.734375-.691406 1.121093-.863282-.226562.828126.199219 2.296876.726563 2.980469.417969-.914062.613281-2.628906.101563-3.125-1.109376-.300781-2.695313-.8125-3.34375-1.058593-.65625-.242188-1.9375-.90625-2.804688-1.445313-.320312-.195313-.886719-.441406-1.402344-.484375zm-17.984375 7.652344c-.324219.582031-1.535156 1.308594-2.136719 1.425781.796876.167969 1.660157.347656 2.453126.597656.492187-.5625.101562-1.503906-.316407-2.023437zm3.097657.605468c-.285157.671876-1.296876 1.421876-2.144532 1.582032 0 0 1.894532.601562 3.113282 1.226562 2.59375 1.269532 5.617187 4.070313 6.511718 5.167969.902344 1.09375.945313 1.515625 1.8125 1.726563.304688.0625.636719.09375.878906-.085938.871094-.976562 1.285157-2.503906.914063-3.835938-.871094 1.09375-2.222656 2.238282-3.164063 2.023438 0 0-.308593-.097656-.316406-.261719.5-.738281.597656-1.796875.375-2.632812-.445312.414062-1.710937.855469-2.527344.570312.199219-.355469.457032-1.902343.054688-2.472656-.363281.34375-1.640625.941406-2.558594.519531.347656-.652344.308594-2.105468-.148437-2.664062 0 0-.617188 1.125-1.140625 1.359375-.460938.207031-.886719.339843-1.460938.078125.085938-.449219.222656-1.675782-.199218-2.300782zm13.214843 9.203126c-.335937.214843-1.757812 1.125-2.007812 1.6875.277343.253906 1.570312.566406 2.148437.164062.414063.320312 1.292969.433594 2.074219-.117188.40625.246094.992187.59375 1.464844.609376.710937.019531 1.519531-.625 2.003906-1.191407-.238281-.261719-.851563-.699219-1.46875-.777343-.230469.347656-1.105469.859374-1.605469.742187-.015625-.289063-.1875-.597656-.359375-.835937-.441406.453124-1.292969 1.085937-1.753906 1.011718-.183594-.085937-.46875-.738281-.496094-1.292968zm0 0" fill="#fff"/><path d="m28.898438 9c-.519532.492188-1.003907 1.355469-1.300782 2.179688.429688-.011719 1.46875-.175782 1.46875-.175782-.25-.644531-.308594-1.332031-.167968-2.003906zm14.589843 1.804688c-.636719.152343-1.078125.847656-1.570312 1.292968.445312.105469 1.054687.28125 1.527343.503906.480469.214844.757813.53125 1.160157.753907.132812-.167969-.320313-.578125-.238281-.808594.1875.023437.320312.207031.398437.328125.410156.386719.722656.820312 1.195313 1.027344.222656-.25-.101563-.722656-.238282-.890625-.214844-.253907-1.308594-1.707031-2.234375-2.207031zm0 0"/></svg>