<svg height="61pt" viewBox="0 0 74 61" width="74pt" xmlns="http://www.w3.org/2000/svg"><path d="m56.09375 24.363281 1.492188-6.5-8.867188-6.664062h-9.140625l2.488281-10.914063-41.851562-.003906 9.925781 8.433594-4.761719 20.929687 8.652344 6.609375h9.054688l-1.019532 4.445313 8.484375 6.761719h8.625l-2.996093 13.164062h16.722656l2.207031-9.707031s1.089844.585937 2.09375-.273438c.84375-.730469.667969-1.835937.667969-1.835937h6.910156l2.363281-10.371094h3.488281l3.203126-14.074219h-17.746094zm0 0" fill="#fff"/><path d="m4.90625 2.035156 7.066406 6.003906-4.75 20.867188 7.332032 5.59375h10.609374l-1.257812 5.484375 7.179688 5.722656h10.164062l-3 13.164063h13.378906l2.6875-11.816406h9.191406l2.363282-10.371094h3.488281l2.40625-10.566406h-17.746094l1.722657-7.503907-7.535157-5.660156h-10.363281l-.382812.214844 2.527343-11.128907zm51.09375 45.574219c-.785156 0-1.40625.640625-1.40625 1.460937 0 .820313.621094 1.464844 1.398438 1.464844.773437 0 1.390624-.644531 1.390624-1.464844 0-.820312-.613281-1.460937-1.382812-1.460937zm-.015625.292969c.601563 0 1.050781.527344 1.050781 1.175781 0 .640625-.449218 1.167969-1.035156 1.160156-.601562 0-1.058594-.519531-1.058594-1.167969 0-.640624.457032-1.167968 1.042969-1.167968zm0 .421875c-.222656 0-.398437.027343-.519531.042969v1.464843h.308594v-.585937h.152343c.171875 0 .257813.074218.28125.222656.042969.183594.066407.304688.109375.363281h.328125c-.023437-.058593-.058593-.140625-.101562-.363281-.039063-.191406-.105469-.304688-.234375-.351562v-.019532c.15625-.054687.277344-.167968.277344-.347656 0-.140625-.054688-.25-.140626-.3125-.089843-.070312-.203124-.113281-.460937-.113281zm-.023437.246093c.195312 0 .289062.089844.289062.222657 0 .152343-.140625.214843-.316406.214843h-.152344v-.414062c.035156-.015625.09375-.023438.179688-.023438zm0 0"/><path d="m47.1875 31.269531h-5.027344l-1.515625 6.613281h-5.582031l3.386719-14.765624-2.773438-2.347657h8.894531l-1.203124 5.25h8.015624l1.429688-6.226562-5.414062-4.070313h-8.925782l-4.710937 2.632813 3.117187-13.691407h-11.378906l2.773438 2.355469-4.515626 19.832031h-5.480468l5.050781-22.191406h-11.386719l2.777344 2.355469-4.726562 20.773437 5.339843 4.078126h9.429688l4.234375-2.515626-2.179688 9.496094 5.117188 4.082032h9.523437l3.550781-2.074219-3.472656 15.238281h8.070313l2.695312-11.816406h9.191407l1.140624-5.015625h-9.195312l.6875-3-2.777344-2.359375h15.992188l1.140625-5.011719h-24.0625zm0 0" fill="#b7a369"/><path d="m15.078125 5.832031.863281.734375-4.71875 20.734375.984375.75 4.792969-21 4.664062.003907.277344-1.214844zm20.421875.007813h-6.867188c.0625.050781.863282.730468.863282.730468l-4.886719 21.457032h-6.566406l-.273438 1.21875h7.714844l5.054687-22.191406h4.679688zm3.238281 11.058594-6.617187 3.699218-4.070313 17.777344.972657.78125 4.085937-17.726562 5.910156-3.316407h9.660157l-1.621094-1.214843zm6.941407 3.921874-.925782 4.027344h1.15625l.929688-4.027344zm1.871093 9.246094.863281.730469-5.492187 24.132813h1.152344l5.390625-23.652344h17.351562l.28125-1.210938zm-4.535156 2.378906-1.523437 6.613282h-6.660157l-.28125 1.21875h7.824219l1.519531-6.617188h2.308594l.277344-1.214844zm10.191406 7.988282-.277343 1.21875h8.042968c.078125-.367188.167969-.761719.273438-1.21875zm0 0" fill="#fff"/></svg>