<svg height="38pt" viewBox="0 0 76 38" width="76pt" xmlns="http://www.w3.org/2000/svg"><path d="m181.844429 2.710697c-8.955771.281439-15.57971 6.332365-19.615572 12.357705-6.354882 9.786382-19.948692 44.671953-26.828876 79.915719-3.869303 3.543566-9.263265 5.910207-12.696951 7.713972-18.1806 9.49215-22.357397-11.116818-10.224185-30.472106 4.58679-7.304606 14.093488-6.946412 13.452875.370987-3.702744-5.040306-10.698239-2.69925-11.543848 4.72049-.422805 9.108371 19.282454 11.014476 19.846193-6.447498.79436-25.943506-48.084418-17.884133-48.89159 23.743168 0 0-3.22869 8.686213-11.04417 10.195747-5.61177 1.087375-5.637395-9.185127-2.165272-23.743169 2.908383-13.317154 2.844322-11.12961 5.66302-23.103536 2.114023-8.86531 11.889778-43.904393 12.376644-46.833911.474054-2.916726-1.268414-5.743903-4.843035-6.575425-2.908383-.678011-6.611127-.95945-10.634177.997827-4.368981 2.123581-5.765517 6.690559-6.29082 9.389809-5.470836 21.913819-7.712982 27.708892-11.595097 44.60799-2.024337 8.647835-9.468261 45.797706-21.524599 44.454477-6.303633-.703596-6.764875-7.368569-3.856491-20.3787 4.689288-18.280704 9.647633-32.90271 13.03007-47.793361 5.124905-19.457629-6.290821-38.403552-29.929443-28.386902-14.131925 6.012548-15.361902 28.604377-6.508629 28.489244 5.009594-.051171 4.151173-6.268402 4.522728-10.246918.999357-5.692731 4.125548-8.23847 7.956415-7.995409 5.663019 1.483948 6.034575 5.424086 4.279295 16.297843-3.715556 12.651936-8.866085 29.448693-13.70912 51.132244-8.071725 36.574202 15.477212 37.981394 26.239512 33.376038 6.226759-2.673665 8.930146-5.193818 13.14538-13.573007 4.778974 22.220842 25.252968 17.398011 37.437429 1.535118 2.101211 7.355777 8.955771 12.204194 14.78535 13.010131 15.131281 2.929518 28.699466-8.494323 33.158133-12.741485 3.279939 22.310391 32.696892 12.95896 41.63985.115134 9.327327 21.350942 26.892937 12.869411 31.787221-.166305-.128122 13.393911 10.019189 16.630453 20.473994 10.988892 6.098637-3.044653 7.302989-4.068065 15.015971-11.398257 5.317089-5.3985 2.793073-16.297843-10.121687-5.040306-4.202422 3.671492-13.14538 7.432533-7.777043-6.306779 1.140292-3.402846 10.621365-26.698272 11.210729-28.796267 5.880828-15.99082-15.759081-12.600766-18.693089-.665219-14.042239-25.930712-45.265721 3.773834-44.906977 29.525449 0 0-10.775112 11.743658-17.860293 9.645663-7.110805-2.110789-.166559-22.822098-.166559-22.822098 17.475924-18.293497 28.673841-38.748953 33.196569-48.612091 7.4183-15.926856 9.186392-30.101118-5.970514-30.44652-.602176-.038378-1.229977-.038378-1.819341-.025585zm4.215234 13.202021c1.819342.294231 2.254958 3.479602.076874 9.031614-7.033932 17.973681-16.245948 27.440246-22.754577 36.99636.115311-.716389 5.855204-23.397767 16.502193-41.205143 2.498391-3.543566 4.753349-5.065892 6.17551-4.822831zm23.79237 50.914769c3.561809.127926 5.342713 4.861209 4.061487 10.630696-.422804 1.854935-8.033288 20.250774-8.033288 20.250774-3.241502 5.986963-6.559878 7.470911-9.673257 6.844071-4.535541-1.407192-3.779618-7.982617-2.383081-14.430116 3.100567-14.622005 10.467618-20.979955 11.902591-21.773099 1.550284-1.100169 2.934008-1.560704 4.125548-1.522326zm0 0" fill="#2d68c4" stroke="#f2a900" stroke-width="3.0306" transform="matrix(.304884 0 0 .305351 0 .000411)"/></svg>