<svg height="87pt" viewBox="0 0 70 87" width="70pt" xmlns="http://www.w3.org/2000/svg"><path d="m69.320312 41.054688c-1.984374-3.351563-4.441406-6.296876-5.773437-7.796876l1.078125-.574218-.40625-.921875c-.96875-2.199219-2.539062-4.476563-3.046875-5.1875-2.863281-19.546875-11.761719-25.285157-12.144531-25.523438l-.703125-.4375-.609375.566407c-4.496094 4.128906-6.390625 9.777343-6.996094 12.015624-2.316406-.203124-5.507812-.347656-5.660156-.351562l-.042969-.003906-.050781.003906c-.152344.003906-3.34375.148438-5.660156.351562-.605469-2.238281-2.496094-7.886718-6.996094-12.015624l-.605469-.566407-.710937.4375c-.375.238281-9.28125 5.976563-12.136719 25.523438-.507813.710937-2.082031 2.988281-3.050781 5.1875l-.40625.921875 1.074218.574218c-1.328125 1.5-3.785156 4.445313-5.769531 7.796876l-.226563.386718.113282.445313c.152344.5625 3.722656 13.988281 9.046875 23.25l1.226562 2.125.898438-2.753907c1.988281 3.199219 6.242187 9.203126 12.085937 12.785157.714844 1.671875 4.015625 8.429687 11.011719 9.402343l.15625.023438.144531-.023438c7-.972656 10.296875-7.730468 11.011719-9.402343 5.84375-3.582031 10.097656-9.585938 12.085937-12.785157l.898438 2.753907 1.222656-2.125c5.324219-9.261719 8.902344-22.6875 9.050782-23.25l.113281-.445313-.226563-.386718zm0 0" fill="#a2aaad"/><path d="m21.566406 1.964844s-8.898437 5.535156-11.675781 25.023437c0 0-1.980469 2.6875-3.09375 5.207031l1.425781.753907s-3.800781 3.945312-6.582031 8.652343c0 0 3.628906 13.75 8.941406 22.984376l.894531-2.742188s5.152344 9.914062 13.242188 14.699219c0 0 3.015625 8.066406 10.292969 9.070312 7.269531-1.003906 10.289062-9.070312 10.289062-9.070312 8.085938-4.785157 13.234375-14.699219 13.234375-14.699219l.902344 2.742188c5.3125-9.234376 8.9375-22.984376 8.9375-22.984376-2.78125-4.707031-6.585938-8.652343-6.585938-8.652343l1.425782-.753907c-1.109375-2.519531-3.089844-5.207031-3.089844-5.207031-2.777344-19.488281-11.679688-25.023437-11.679688-25.023437-5.40625 4.980468-6.894531 12.402344-6.894531 12.402344-2.261719-.253907-6.539062-.441407-6.539062-.441407s-4.285157.1875-6.546875.441407c0 0-1.488282-7.421876-6.898438-12.402344zm0 0" fill="#000e2f"/><path d="m21.324219 5.949219s-6.84375 4.722656-8.683594 19.214843c0 0 1.320313-3.351562 3.394531-8.007812 2.070313-4.660156 5.109375-8.625 5.109375-8.625 1.542969 2.394531 1.722657 5.734375 1.722657 5.734375-2.199219 3.089844-3.09375 5.984375-3.09375 5.984375l1.429687-.1875c-1.007813 1.890625-1.484375 5.101562-1.484375 5.101562 4.160156-4.285156 8.683594-6.554687 8.683594-6.554687s-1.84375-.246094-2.675782-.246094l1.425782-.886719s-1.3125-7.496093-5.828125-11.527343zm27.476562 0c-4.519531 4.03125-5.828125 11.527343-5.828125 11.527343l1.425782.886719c-.832032 0-2.675782.246094-2.675782.246094s4.523438 2.269531 8.683594 6.554687c0 0-.476562-3.210937-1.484375-5.101562l1.421875.1875s-.886719-2.898438-3.089844-5.984375c0 0 .179688-3.339844 1.726563-5.734375 0 0 3.035156 3.960938 5.105469 8.625 2.074218 4.65625 3.394531 8.007812 3.394531 8.007812-1.839844-14.496093-8.679688-19.21875-8.679688-19.21875zm-13.78125 18.722656c-1.78125 8.25-2.277343 18.9375-2.277343 18.9375-3.628907 2.582031-5.828126 6.085937-5.828126 6.085937-.597656-2.707031-.476562-5.707031-.476562-5.707031-4.996094-1.449219-5.171875-5.417969-5.171875-5.417969s1.898437-.25 3.859375.0625l-.472656-1.511718s2.5 1.132812 4.644531 6.046875c0 0 2.015625-1.449219 1.484375-9.261719 0 0-1.789062-2.457031-4.402344-3.464844-1.191406 1.449219-2.199218 3.214844-2.199218 3.214844l.890624.4375c-2.4375 3.21875-5.828124 3.84375-5.828124 3.84375-.179688 3.910156.867187 8.8125.867187 8.8125-2.441406-2.710938-3.246094-7.113281-3.246094-7.113281-3.03125-1.070313-5.175781-1.316407-5.175781-1.316407l-2.914062 2.453126 2.914062 1.890624-4.816406.625c1.601562 6.804688 4.640625 13.925782 4.640625 13.925782l.890625-2.203125c3.867187 7.554687 7.492187 9.886719 7.492187 9.886719-1.070312-3.777344-2.792969-7.9375-2.792969-7.9375 5.410157 3.90625 8.652344 12.316406 10.050782 16.757812 2.144531 6.804688 7.910156 6.632812 7.910156 6.632812s5.769531.171876 7.910156-6.632812c1.394532-4.441406 4.640625-12.851562 10.050782-16.757812 0 0-1.726563 4.160156-2.796876 7.9375 0 0 3.628907-2.332032 7.492188-9.886719l.894531 2.203125s3.03125-7.121094 4.640625-13.921875l-4.820312-.625 2.917968-1.894531-2.917968-2.453126s-2.140625.246094-5.171875 1.316407c0 0-.8125 4.402343-3.25 7.113281 0 0 1.050781-4.902344.871093-8.8125 0 0-3.390624-.625-5.828124-3.839844l.890624-.441406s-1.011718-1.765625-2.203124-3.210938c-2.613282 1.003907-4.398438 3.464844-4.398438 3.464844-.535156 7.808594 1.488281 9.261719 1.488281 9.261719 2.140625-4.917969 4.640625-6.050781 4.640625-6.050781l-.476562 1.515625c1.960937-.316407 3.859375-.066407 3.859375-.066407s-.175781 3.96875-5.167969 5.417969c0 0 .117188 3-.472656 5.710938 0 0-2.207032-3.503907-5.832032-6.089844 0 0-.578124-10.6875-2.363281-18.9375zm0 0" fill="#fff"/><path d="m35.0625 55.199219c2.910156 0 4.632812 2.015625 4.632812 2.015625-.058593 5.800781-3.921874 6.675781-3.921874 6.675781s-.355469 1.644531 2.796874 1.515625c3.152344-.125 4.164063-1.828125 6.660157-6.617188.972656-1.871093 1.761719-2.445312 2.355469-2.445312-2.070313 3.601562-3.472657 8.042969-3.910157 9.542969-.492187 1.417969-.941406 2.9375-1.300781 4.496093-1.605469 6.867188-7.3125 7.367188-7.3125 7.367188s-5.710938-.5-7.3125-7.367188c-.34375-1.457031-.753906-2.875-1.207031-4.210937-.316407-1.121094-1.761719-5.960937-3.996094-9.828125.597656.007812 1.371094.589844 2.34375 2.445312 2.496094 4.789063 3.511719 6.488282 6.660156 6.617188 3.152344.128906 2.796875-1.515625 2.796875-1.515625s-3.863281-.875-3.921875-6.675781c0 0 1.71875-2.015625 4.636719-2.015625zm0 0" fill="#000e2f"/><path d="m23.800781 40.03125s-.40625 1.710938 1.15625 2.179688 1.96875-1.015626 1.96875-1.015626c-.539062-.402343-1.085937-.664062-1.558593-.835937.097656.300781.246093.652344.460937.972656-.15625.0625-.359375.082031-.609375.007813-.816406-.242188-.695312-1.066406-.671875-1.210938-.453125-.09375-.746094-.097656-.746094-.097656zm22.519531 0s-.292968.003906-.75.097656c.027344.144532.148438.96875-.667968 1.210938-.253906.078125-.453125.054687-.605469-.007813.210937-.320312.359375-.671875.460937-.972656-.480468.171875-1.023437.433594-1.566406.835937 0 0 .402344 1.484376 1.972656 1.015626 1.5625-.46875 1.15625-2.179688 1.15625-2.179688zm0 0" fill="#a4c8e1"/><path d="m41.053696 83.585109c1.69894-.055121 3.599371-1.759268 3.663482-4.386686-3.25134 0-2.683501 2.452869-3.663482 2.452869-.984561 0-.398404-2.452869-3.668061-2.452869.054952 2.627418 1.959962 4.331565 3.668061 4.386686" fill="#e4002b" stroke="#e4002b" stroke-width=".1" transform="matrix(.853014 0 0 .850407 -.007643 .23895)"/><path d="m35.007812 56.554688c-1.257812 0-2.574218.558593-3.035156 1.355468.683594-.566406 1.925782-.921875 3.035156-.921875 1.117188 0 2.351563.355469 3.035157.921875-.464844-.796875-1.777344-1.355468-3.035157-1.355468zm-4.726562 11.371093c-1.523438 1.167969-1.273438 4.949219.925781 5.820313 2.257813.664062 1.984375 1.023437 3.800781 1.113281 1.8125-.089844 1.535157-.449219 3.792969-1.113281 2.199219-.871094 2.453125-4.652344.929688-5.820313.660156 2.507813-1.679688 4.847657-1.699219 4.785157-.078125-.496094-.566406-.667969-.566406-.671876-.003906-.03125-.417969 1.433594-2.457032 1.480469-2.050781-.046875-2.460937-1.511719-2.460937-1.480469 0 .003907-.492187.175782-.570313.671876-.019531.0625-2.359374-2.277344-1.695312-4.785157zm0 0" fill="#fff"/></svg>