<svg height="53pt" viewBox="0 0 70 53" width="70pt" xmlns="http://www.w3.org/2000/svg"><path d="m69.285156 47.660156-1.367187-2.332031-1.199219-1.910156.449219-8.441407c-.023438-.457031-.242188-1.019531-.355469-1.292968-.117188-.285156-.300781-.660156-.367188-.789063l-1.769531-1.824219c-.914062-.941406-1.957031-1.191406-3-1.191406h-18.496093l.6875 2.585938-2.332032 2.023437-.140625-.511719c-.113281-.425781-.332031-.785156-.589843-1.066406l-1.761719-1.894531c-.164063-.210937-.359375-.394531-.566407-.539063 3.335938-2.355468 7.804688-4.445312 13.566407-6.246093.796875-.25 2.527343-.753907 3.890625-1.144531l.6875-.199219 1.316406 2.652343 1.375-.757812c.511719-.285156 1.054688-.574219 1.613281-.902344.597657-.351562 1.210938-.746094 1.820313-1.21875 1.257812-.96875 2.507812-2.265625 3.597656-4.160156 2.632812-4.585938 1.25-9.691406-5.421875-11.289062-2.582031-.621094-5.09375-.972657-6.636719-1.140626l-.46875-.054687-.210937-.425781c-.117188-.242188-.261719-.496094-.433594-.757813-.839844-1.277343-2.335937-2.636719-4.910156-3.417969-6.261719-1.890624-21.941407-1.15625-32.078125 4.613282-12.417969 7.0625-15.800782 14.472656-15.707032 24.011718.097657 9.300782 4.558594 13.785157 11.796876 17.347657 9.132812 4.492187 18.777343 5.398437 21.148437 4.792969 0 0-1.292969-1.90625-2.132813-4.519532zm0 0" fill="#be955b"/><path d="m40.027344 2c-7.070313 0-16.382813 1.519531-23.105469 5.34375-.925781.527344-1.800781 1.054688-2.621094 1.589844-.328125.214844-.648437.425781-.960937.640625-.046875.035156-.09375.066406-.140625.097656-.1875.128906-.371094.257813-.550781.386719-.113282.078125-.222657.160156-.335938.242187-.21875.160157-.433594.324219-.644531.484375-.320313.246094-.628907.488282-.925781.734375-.59375.488281-1.152344.980469-1.675782 1.476563-.175781.167968-.347656.335937-.515625.503906-.449219.445312-.863281.894531-1.253906 1.34375-.183594.214844-.363281.429688-.535156.644531-.558594.691407-1.054688 1.390625-1.496094 2.101563-.144531.234375-.28125.46875-.417969.699218-.066406.121094-.132812.238282-.195312.355469-.25.464844-.480469.929688-.6875 1.398438-.066406.152343-.132813.304687-.195313.460937-.046875.113282-.09375.226563-.140625.34375-.089844.230469-.175781.464844-.257812.695313-.039063.117187-.078125.234375-.117188.351562-.003906.007813-.007812.015625-.007812.019531-.035156.113282-.074219.226563-.109375.34375-.035157.117188-.070313.230469-.101563.34375-.011718.035157-.019531.066407-.027344.101563-.050781.179687-.101562.363281-.144531.546875-.09375.34375-.171875.695312-.246093 1.046875-.015626.078125-.03125.160156-.046876.238281-.105468.554688-.195312 1.121094-.265624 1.691406-.035157.296876-.066407.59375-.09375.894532-.097657 1.050781-.136719 2.121094-.128907 3.222656.015625 2.703125.691407 5.058594 1.824219 7.109375.167969.304687.347656.605469.539062.898437.0625.097657.125.195313.191407.292969.132812.191407.265625.382813.402343.570313.207032.277344.425782.554687.648438.820312.152344.179688.304688.355469.460938.527344.078124.082031.15625.171875.238281.253906.078125.085938.160156.171875.242187.253906.082032.085938.164063.167969.246094.25 1.117188 1.101563 2.371094 2.078126 3.707031 2.941407l-.195312-.210938c-.816407-.875-1.273438-1.625-1.273438-2.792969 0-.714843.289063-1.648437.492188-2.199218l.222656-.597656c-.574219-.714844-1.109375-1.523438-1.574219-2.433594.273438-.992188.699219-2.042969 1.351563-3.09375.367187-.589844.757812-1.15625 1.171875-1.691406l-.546875-1.363282h1.683593c1.953126-2.164062 4.164063-3.8125 6.0625-4.996094.164063-.101562.324219-.199218.484376-.292968.160156-.097656.316406-.1875.46875-.277344.191406-.109375.378906-.214844.558593-.3125.183594-.101562.355469-.195312.527344-.285156.097656-.050782.199219-.101563.296875-.152344.382812-.199219.730469-.367188 1.03125-.503906.222656-.105469.417969-.191406.582031-.261719.152344-.066406.28125-.117187.375-.160156.089844-.035157.148438-.058594.175781-.070313-.03125.007813-.113281.019532-.230468.035156-.019532.003907-.039063.007813-.058594.011719-.023438.003907-.042969.007813-.066406.011719-.046875.011719-.09375.019531-.144532.027344-.027343.003906-.050781.007812-.078124.015625-.15625.027343-.339844.066406-.550782.109375-.035156.007812-.066406.015625-.105468.023437-.027344.007813-.058594.015625-.089844.019531-.058594.011719-.117188.027344-.179688.039063-.0625.015625-.128906.027344-.195312.042969-.097656.023437-.203125.050781-.308594.074218-.070312.015626-.140625.03125-.214844.050782-.292968.074218-.609375.152344-.941406.246094-.042969.011718-.085938.023437-.128906.035156-.125.035156-.253906.070312-.386719.109375-.042969.011719-.085937.027343-.132813.039062-.085937.027344-.175781.054688-.269531.082031-.226562.066407-.457031.140626-.695312.21875-.285157.09375-.574219.191407-.867188.300782-.25.085937-.496093.179687-.75.277344-.101562.039062-.203125.078124-.304687.121093-.125.050781-.253906.101563-.382813.15625-.382812.15625-.769531.328125-1.15625.511719-.828125.390625-1.65625.832031-2.453125 1.332031-.195312.125-.390625.257813-.585937.386719-.777344.53125-1.507813 1.125-2.171875 1.785156-.039063.039063-.082032.082032-.121094.121094-.042969.042969-.082031.082031-.121094.125-.402344.421875-.773437.871094-1.105468 1.347656-.039063.054688-.082032.109375-.117188.167969-.039062.054687-.078125.117187-.117188.171875-.152343.230469-.300781.460938-.441406.691406-.074218.117188-.144531.234375-.210937.351563-.015625-.09375-.03125-.1875-.046875-.277344-.257813-1.640625-.304688-3.195313-.167969-4.664063 1.128906-12.277343 15.089844-18.621093 25.011719-20.648437 5.886718-1.203125 13.699218-.90625 16.136718.480469.175782.101562.324219.207031.441407.320312.03125.027344.058593.058594.085937.085938.074219.089844.132813.175781.167969.269531.226563.542969.089844 1.101563-.363281 1.5625-.054688.054687-.117188.109375-.183594.164063-.066406.054687-.136719.105468-.214844.15625-.074218.050781-.152344.097656-.238281.144531-.085937.042969-.175781.089843-.269531.128906-.625.273437-1.453125.441406-2.457032.429687-3.242187-.023437-3.199218-1.664062-12.910156-.195312-9.628906 1.453125-11.957031 4.816406-12.027344 4.921875.097657-.042969 3.230469-1.414063 5.378907-1.671875 3.417969-.410156 6.648437-.886719 8.703125 1.476562 1.386718 1.597657 3.226562 1.378907 3.226562 1.378907l-7.910156 5.042969c.21875-.109376 1.589844-.664063 6.773438-.492188.066406.003906.132812.003906.203124.007812.472657.019532.980469.039063 1.519532.070313.144531.007813.289062.019531.441406.03125.222656.019531.453125.046875.683594.078125 2.085937.273438 4.355468.90625 4.355468.90625s-10.289062.601562-18.636718 8.566406h11.605468c.125 0 .253907 0 .394532.007813 3.609375-2.710938 8.585937-5.070313 15.09375-7.109375 1.433594-.445313 5.824218-1.691406 5.824218-1.691406l1.171876 2.363281c1.511718-.835938 3.28125-1.710938 4.902343-3.535157.128907-.152343.265625-.3125.398438-.476562.394531-.496094.785156-1.058594 1.152343-1.699219 2.148438-3.734375 1.191407-7.699219-4.460937-9.054687-.261719-.0625-.511719-.121094-.765625-.171875-.375-.082031-.746094-.164063-1.109375-.234375-.246094-.046875-.488281-.089844-.726563-.136719-.351562-.0625-.707031-.121094-1.039062-.175781-.222656-.035156-.441406-.066406-.65625-.097656-.316406-.046876-.621094-.089844-.910156-.125-.140625-.019532-.285156-.035157-.421875-.054688-.132813-.015625-.261719-.03125-.390625-.046875-.039063-.003906-.082032-.011719-.121094-.015625-.082031-.007812-.160156-.015625-.238281-.023438-.269531-.03125-.507813-.054687-.71875-.074218-.058594-.007813-.113281-.011719-.167969-.015625-.027344-.003907-.046875-.007813-.074219-.007813-.050781-.003906-.097656-.007812-.140625-.011718-.289062-.023438-.449218-.035157-.449218-.035157s-.101563-.96875-.929688-2.066406c-.046875-.066406-.097656-.128906-.148438-.191406-.050781-.0625-.105468-.125-.164062-.191407-.058594-.0625-.117188-.125-.179688-.191406-.714843-.734375-1.792968-1.464844-3.398437-1.953125-1.835937-.550781-4.585937-.863281-7.800781-.863281zm-11.960938 21.648438c-.199218.03125-6.546875 1.066406-12.183594 6.226562h3.730469c3.941407-4.113281 8.289063-6.152344 8.453125-6.226562zm-16.410156 7.195312 1.039062 2.585938.003907.011718-2.195313 5.960938c-.199218.53125-.429687 1.328125-.429687 1.855468 0 .894532.355469 1.578126.972656 2.089844.0625.070313 2.070313 2.21875 2.070313 2.21875.175781.132813.371093.25.578124.359375 1.472657.75 3.75.953125 6.183594.953125.765625 0 1.464844-.015625 2.113282-.050781.160156-.011719.320312-.019531.472656-.03125.078125-.003906.15625-.011719.230468-.019531.152344-.011719.304688-.023438.449219-.039063.242188-.027343.484375-.054687.710938-.089843.230469-.035157.453125-.070313.664062-.109376.144531-.027343.285157-.054687.417969-.085937.242188-.054687.476562-.113281.699219-.179687.113281-.035157.222656-.070313.328125-.105469.214844-.074219.421875-.148438.621094-.234375.125-.050782.242187-.105469.351562-.15625.039062-.019532.078125-.039063.113281-.054688.144531-.074218.285157-.148437.414063-.230468.128906-.082032.253906-.164063.367187-.253907.117188-.089843.226563-.183593.332031-.28125l.503907.617188.585937.710937.042969-.050781c.066406.050781.132813.09375.199219.136719.035156.019531.070312.035156.105468.050781.035157.019531.070313.035156.109376.050781.050781.023438.105468.042969.160156.0625h.003906c.109375.035156.222656.0625.34375.085938.253906.046875.523438.066406.785156.066406.042969.003906.085938.003906.128906.003906h8.371094c.496094 0 .945313-.015625 1.339844-.101562.089844-.019532.171875-.039063.253906-.066406.25-.074219.476563-.1875.675782-.347657.019531-.015625.042968-.03125.0625-.050781.03125.035156.066406.070312.101562.101562.039062.03125.074219.058594.113281.089844.125.089844.261719.160156.390625.210938.375.140625.820313.164062 1.222656.164062l23.980469-.097656-1.90625-2.921875.46875-8.660156c-.011719-.261719-.15625-.652344-.277343-.957031-.132813-.316407-.273438-.59375-.273438-.59375l-1.667969-1.714844c-.679687-.703125-1.445312-.902344-2.3125-.902344h-7.097656l.265625 1.824219-1.265625-1.214844c0-.003906-.007813-.007813-.011719-.011719 0-.003906-.007812-.007812-.011718-.011718-.003907-.003907-.011719-.007813-.015626-.011719-.011718-.011719-.019531-.023438-.035156-.035157-.011718-.011718-.027344-.023437-.046875-.035156-.238281-.175781-.832031-.480468-2.140625-.503906h-6.886718l.640624 2.425781-.855468 1.433594-.632813-.542969-3.808593 2.894532.582031-1.605469c.011719-.03125.023437-.0625.035156-.097657.023437-.0625.042969-.132812.0625-.199218v-.003906c.015625-.066407.03125-.136719.042969-.203126.015625-.105468.027344-.203124.027344-.300781 0-.289062-.070313-.535156-.183594-.742187-.015625-.03125-.03125-.0625-.050782-.09375-.058593-.089844-.121093-.167969-.1875-.242188l-.898437-.960937-.898437-.96875c-.050782-.066407-.105469-.128907-.160157-.1875-.152343-.152344-.332031-.269531-.511719-.355469-.023437-.011719-.050781-.023438-.078124-.035156-.433594-.175782-.953126-.214844-1.453126-.214844h-15.183593l.429687 1.214844s-.917968-.886719-1.214844-1.003906c-.414062-.164063-.914062-.207032-1.402343-.210938zm16.355469 15.449219-.21875.125c-.261719.152343-.539063.28125-.835938.40625-1.773437.75-3.988281 1.023437-7.078125 1.023437-.679687 0-1.402344-.019531-2.128906-.070312 6.078125 2.257812 11.605469 2.863281 11.605469 2.863281s-.527344-1.171875-.65625-3.640625v-.003906zm1.550781 3.320312.058594.242188.234375.007812v.003907l.21875.851562.28125.011719-.21875-.855469.234375.011719-.039063-.144531-.023437-.097657zm.925781.039063.09375 1.085937.28125.011719-.070312-.625h.003906l.160156.246094v.003906l.25.390625h.113281l.097657-.617187h.003906l.238281.632812.28125.011719-.042968-.109375-.253907-.628906-.148437-.363282-.277344-.007812-.082031.574218-.371094-.59375zm0 0"/><path d="m39.8125 5.265625c-2.703125-.015625-5.648438.226563-8.222656.753906-9.921875 2.023438-23.882813 8.367188-25.015625 20.644531 1.507812-3.320312 4.355469-8.664062 8.097656-11.390624 5.667969-4.136719 13.105469-9.257813 28.558594-8.371094 2.441406.140625 3.777343-.082032 4.496093-.40625-1.371093-.78125-4.441406-1.214844-7.914062-1.230469zm2.65625 6.183594-1.378906.007812-1.148438 1.070313-1.191406-1.0625-2.800781.007812 3.253906 2.699219zm-29.136719 20.53125.164063.414062.414062 1.03125-2.347656 6.371094c-.195312.515625-.359375 1.152344-.359375 1.460937 0 1.507813 1.921875 2.285157 5.996094 2.367188.242187.003906.488281.003906.746093.003906 3.011719 0 4.886719-.273437 6.269532-.859375.871094-.363281 1.382812-.757812 1.808594-1.492187.0625-.101563.117187-.210938.175781-.324219.09375-.1875.183593-.402344.277343-.636719.039063-.09375.074219-.191406.113282-.292968l2.597656-7.011719c.011719-.027344.019531-.050781.027344-.074219.027344-.074219.046875-.144531.058594-.207031.015624-.082031.023437-.15625.023437-.214844 0-.363281-.414063-.535156-1.351563-.535156h-5.359374l.578124 1.445312-2.144531 5.820313c-.355469.941406-.882812 1.25-2.152343 1.25-.566407 0-.964844-.082032-1.183594-.261719-.019532-.015625-.042969-.039063-.0625-.058594-.042969-.046875-.078125-.101562-.101563-.164062-.023437-.058594-.035156-.125-.035156-.199219 0-.019531 0-.039062.003906-.058594v-.015625c0-.019531.003907-.042969.007813-.070312.003906-.019531.007812-.042969.011718-.066407.015626-.070312.046876-.160156.089844-.296874.007813-.015626.011719-.03125.019532-.050782.019531-.054687.039062-.113281.0625-.179687l.675781-1.828125 1.605469-4.335938c.054687-.121094.082031-.308594.082031-.394531 0-.363281-.414063-.535156-1.355469-.535156zm17.410157 0 .582031 1.445312-1.789063 4.863281-.449218 1.226563-1.105469 2.996094c-.011719.035156-.027344.074219-.035157.105469-.03125.105468-.046874.214843-.046874.292968 0 .296875.269531.46875.886718.515625.125.007813.261719.015625.410156.015625h8.371094c1.378906 0 1.683594-.140625 1.960938-.914062l1.988281-5.394532-4.195313 3.25h-2.664062l2.714844-7.472656c.007812-.019531.015625-.035156.023437-.054687.027344-.085938.046875-.175781.054688-.25.003906-.027344.003906-.050781.003906-.074219 0-.316406-.289063-.488281-.933594-.535156-.125-.007813-.265625-.015625-.417969-.015625zm15.15625 0 .386718 1.460937-5.46875 9.15625c-.082031.15625-.167968.328125-.167968.449219 0 .066406.019531.125.0625.179687.019531.019532.046874.042969.078124.066407.03125.019531.066407.035156.109376.050781.171874.066406.441406.097656.828124.097656h4.792969l-.414062-1.394531 2.511719-4.792969.515624 6.1875h4.585938l4.335938-6.734375-.753907 5.804688c-.03125.738281.222657.929687 1.242188.929687h5.113281l-.996094-1.582031.472656-9.121094c-.023437-.601562-.296874-.757812-1.457031-.757812h-5.71875l.304688 1.460937-2.921875 3.972656-.453125-4.523437c-.050781-.789063-.246094-.910156-1.570313-.910156zm0 0" fill="#fff"/><path d="m60.128906 19.066406s2.789063-2.675781 2.515625-4.851562c-.03125-.265625-.121093-.515625-.257812-.75-.027344-.050782-.058594-.101563-.09375-.152344-.035157-.046875-.070313-.097656-.109375-.144531-.058594-.074219-.121094-.144531-.191406-.210938-.523438-.539062-1.324219-.964843-2.269532-1.304687-.070312-.023438-.140625-.046875-.207031-.070313-.183594-.0625-.367187-.121093-.558594-.175781-.058593-.015625-.117187-.035156-.175781-.050781-1.511719-.421875-3.257812-.675781-4.828125-.828125-.136719-.011719-.273437-.023438-.40625-.035156-.003906 0-.007813 0-.011719 0-.128906-.011719-.257812-.023438-.386718-.03125 0 0-.003907-.003907-.007813-.003907-.394531-.027343-.773437-.050781-1.125-.070312-.191406-.011719-.378906-.019531-.558594-.027344-.003906 0-.007812-.003906-.011719 0-.132812-.007813-.257812-.011719-.378906-.019531-.007812 0-.011718 0-.019531 0-.984375-.035156-1.609375-.027344-1.609375-.027344s-.273438.378906-.785156.9375c1.210937.054688 3.066406.144531 4.304687.230469.191407.015625.375.027343.554688.042969.269531.027343.53125.050781.785156.082031.25.027343.496094.058593.730469.09375.351562.046875.683594.105469.996094.164062.105468.019531.207031.039063.308593.058594.136719.027344.265625.054687.390625.082031.257813.054688.496094.113282.71875.175782.226563.058593.4375.117187.640625.179687.097657.03125.195313.0625.285157.09375.09375.03125.183593.0625.269531.09375 1.515625.542969 2.082031 1.074219 2.117187 1.109375-.113281-.027344-4.078125-.996094-12.007812-.558594-.121094.007813-.238282.015625-.359375.027344-.238281.019531-.46875.042969-.691407.070312-.171874.023438-.335937.046876-.496093.070313-.105469.019531-.214844.035156-.316407.054687-.152343.027344-.304687.054688-.445312.082032-.09375.019531-.1875.039062-.277344.058594l-.121094.085937c-2.074218 1.441406-7.265624 4.113281-7.585937 4.277344l-.003906.003906c.238281-.097656 4.214843-1.683594 12.066406-1.777344 8.921875-.105469 9.613281 3.015625 9.613281 3.015625" fill="#be955b"/><path d="m47.726562 6.496094c-.71875.328125-2.054687.546875-4.496093.40625-15.457031-.886719-22.890625 4.234375-28.558594 8.371094-3.742187 2.726562-6.589844 8.070312-8.097656 11.390624-.132813 1.46875-.085938 3.023438.171875 4.664063.015625.09375.03125.183594.046875.277344.066406-.117188.136719-.234375.210937-.351563.140625-.230468.289063-.460937.441406-.691406.039063-.058594.078126-.113281.117188-.171875.035156-.058594.074219-.113281.113281-.167969.335938-.476562.703125-.925781 1.109375-1.347656.039063-.039062.078125-.082031.121094-.125l.121094-.121094c.660156-.660156 1.394531-1.253906 2.171875-1.785156.195312-.128906.390625-.261719.585937-.386719.796875-.5 1.625-.941406 2.453125-1.332031.386719-.183594.769531-.355469 1.15625-.511719.128907-.054687.257813-.105469.382813-.15625.101562-.042969.203125-.082031.304687-.121093.253907-.097657.5-.191407.75-.277344.292969-.109375.582031-.207032.867188-.300782.238281-.078124.46875-.148437.695312-.21875.089844-.027343.183594-.054687.269531-.082031.046876-.011719.089844-.023437.132813-.035156.132813-.039063.261719-.078125.386719-.113281.042968-.011719.085937-.023438.128906-.035156.332031-.09375.648438-.171876.941406-.246094.074219-.019532.144532-.035156.214844-.050782.105469-.023437.210938-.050781.308594-.074218.066406-.015625.128906-.027344.195312-.042969.0625-.011719.121094-.027344.179688-.039063.03125-.003906.0625-.011718.089844-.019531.039062-.007812.070312-.015625.105468-.023437.210938-.046875.394532-.082032.550782-.109375.027343-.007813.050781-.011719.078124-.015625.050782-.011719.097657-.019532.144532-.027344.023437-.003906.042968-.007812.066406-.011719.019531-.003906.039062-.007812.058594-.011719.132812-.023437.21875-.035156.242187-.039062 0 .003906-.003906.003906-.007812.003906-.027344.011719-.089844.035156-.179688.074219-.097656.035156-.222656.089844-.375.15625-.164062.070313-.359375.15625-.582031.261719-.300781.136718-.648438.308594-1.03125.503906-.097656.050781-.199219.101562-.296875.152344-.171875.089844-.34375.1875-.527344.285156-.179687.101562-.367187.203125-.558593.3125-.152344.089844-.308594.183594-.46875.277344-.160157.09375-.320313.191406-.484376.292968-1.898437 1.183594-4.113281 2.832032-6.0625 4.996094h3.96875c5.636719-5.164062 11.984376-6.203125 12.183594-6.230468-.164062.074218-4.511718 2.117187-8.453125 6.230468h4.882813c8.347656-7.964844 18.636718-8.566406 18.636718-8.566406s-2.269531-.632812-4.355468-.90625c-.230469-.027344-.460938-.054688-.683594-.074219-.152344-.011719-.296875-.027343-.441406-.03125-.539063-.03125-1.046875-.054687-1.519532-.074219-.070312 0-.136718-.003906-.203124-.007812-5.183594-.171875-6.554688.386719-6.773438.496094l7.910156-5.046875s-1.839844.21875-3.226562-1.378907c-2.054688-2.363281-5.285156-1.886718-8.703125-1.476562-2.148438.257812-5.28125 1.628906-5.378907 1.671875.070313-.105469 2.398438-3.46875 12.027344-4.921875 9.710938-1.46875 9.667969.171875 12.910156.195312 1.003907.011719 1.832032-.15625 2.457032-.425781.09375-.042969.183594-.085937.269531-.132812s.164063-.09375.238281-.144531c.078125-.050782.148438-.101563.214844-.15625.0625-.054688.125-.109376.183594-.164063.453125-.460937.589844-1.019531.367187-1.5625-.039062-.089844-.097656-.179687-.171875-.269531-.027344-.027344-.054687-.054688-.085937-.082032-.117188-.117187-.265625-.222656-.441407-.324218zm-36.949218 24.746094c-.414063.535156-.804688 1.097656-1.171875 1.6875-.652344 1.054687-1.078125 2.105468-1.351563 3.097656.464844.910156 1 1.71875 1.574219 2.433594l1.84375-5.003907zm6.734375 8.359374c-.007813.023438-.011719.046876-.015625.066407.003906-.019531.007812-.042969.015625-.066407zm-.023438.15625c-.003906.015626-.003906.035157-.003906.054688 0 .074219.011719.140625.035156.199219-.023437-.058594-.03125-.125-.03125-.199219 0-.019531-.003906-.039062 0-.054688zm0 0" fill="#800029"/></svg>