<svg height="62pt" viewBox="0 0 75 62" width="75pt" xmlns="http://www.w3.org/2000/svg"><path d="m74.292969 22.402344h-7.019531l4.363281-21.753906h-53.433594l-3.425781 16.472656h-8.425782l-2.242187 10.957031h1.429687l-1.242187 5.875-1.359375.003906-2.375 10.921875h11.722656l-.183594.84375v.011719c-.890624 4.289063.011719 8.515625 2.480469 11.582031 2.269531 2.824219 5.589844 4.386719 9.347657 4.386719h19.199218c3.511719 0 7.097656-1.621094 10.09375-4.558594 2.710938-2.65625 4.691406-6.152343 5.433594-9.589843l.566406-2.683594h5.75c2.898438 0 5.582032-2.214844 6.246094-5.152344l.894531-4.292969c.175781-.863281.171875-1.734375 0-2.546875zm0 0" fill="#fff"/><path d="m70.769531 32.144531 1.71875-8.261719h-10.027343c-.097657 0-.199219.003907-.304688.011719l.613281-2.90625h3.289063l3.785156-18.859375h-50.457031l-3.425781 16.46875h-8.417969l-1.640625 8h1.441406l-1.863281 8.835938-1.367188.003906-1.734375 7.960938h10.617188l1.503906-7.082032c.25.570313.496094 1.132813.734375 1.679688l-1.699219 8.019531-.003906.019531c-.800781 3.855469-.003906 7.625 2.183594 10.347656 1.984375 2.476563 4.898437 3.835938 8.210937 3.835938h19.203125c6.753906 0 12.738282-6.707031 14.09375-12.976562l.8125-3.847657h6.9375c2.191406 0 4.308594-1.761719 4.816406-4.007812l.886719-4.257813c.214844-1.070312.082031-2.121094-.363281-2.984375zm0 0" fill="#27251f"/><path d="m22.871094 6.46875-2.117188 10.171875h3.402344l-1.011719 4.773437 2.152344-2.820312h9.769531l-1.632812 7.996094-1.367188.003906-1.835937 8.835938h.304687l4.460938-11.546876h1.402344l3.628906-17.414062zm24.714844 0-3.628907 17.414062h1.207031l-.078124 4.933594.210937-1.019531c.535156-2.546875 3.074219-3.914063 5.1875-3.914063h7.289063l1.527343-7.242187h3.253907l2.039062-10.171875zm-26.886719 30.992188-1.324219 1.726562-1.644531 7.734375c-.976563 4.742187 1.511719 8.953125 6.199219 8.953125h19.199218c4.6875 0 8.992188-5.351562 9.898438-9.5625l.632812-2.980469c-.21875.035157-.441406.058594-.660156.058594h-13.109375l-.46875 2.234375h-7.554687l.464843-2.234375h-2.386719l-.003906.003906h-10.488281zm0 0" fill="#971b2f"/><path d="m40.027344 6.46875-7.886719 5.03125-1.511719 7.09375h4.4375l-1.632812 7.996094-1.375.003906-1.828125 8.835938h.304687l4.460938-11.546876h1.402344zm24.5625 0-11.183594 5.03125-2.625 12.382812h6.988281l1.53125-7.242187h3.25zm-10.929688 36.863281c-.222656.035157-.441406.058594-.667968.058594h-6.347657l-.539062 2.550781c-.457031 2.105469-2.613281 4.78125-4.953125 4.78125h-13.304688c-1.242187 0-2.171875-.597656-2.703125-1.507812l-6.699219 3.535156c1.050782 1.886719 2.945313 3.125 5.480469 3.125h19.203125c4.683594 0 8.992188-5.351562 9.898438-9.5625zm-21.328125.058594-6.972656.003906-.605469 2.851563c-.230468 1.113281-.078125 2.160156.390625 2.96875l6.800781-3.585938h-.082031zm0 0" fill="#572932"/><path d="m71.398438 24.777344h-8.933594c-1.164063 0-2.449219.503906-3.332032 1.394531l.292969-1.394531h-8.941406c-1.792969 0-3.898437 1.199218-4.324219 3.203125l-.777344 3.765625c-.25 1.152344-.027343 2.273437.605469 3.074218.398438.496094.929688.828126 1.539063.980469h-2.703125l-.324219 1.554688h-.429688l.195313-12.578125h-8.667969l-4.875 12.625h-.390625l.230469-1.078125h-1.421875l2.203125-10.617188 1.367188-.007812 1.269531-6.203125h-8.246094l-6.25 8.171875-2.992187-8.171875h-8.226563l-1.273437 6.207031h1.449218l-2.246094 10.621094-1.371093.003906-1.339844 6.175781h8.800781l1.929688-9.09375c.84375 1.972656 3.074218 7.042969 3.074218 7.042969l5.074219-6.613281-1.816406 8.664062 14.796875-.007812 1.339844-3.894532h1.148437l-.390625 3.894532h15.558594c.945312 0 1.894531-.429688 2.632812-1.105469l-.234374 1.105469h9.574218c1.769532 0 3.546875-1.484375 3.960938-3.324219l.875-4.222656c.222656-1.085938.003906-2.132813-.589844-2.871094-.3125-.386719-.707031-.667969-1.164062-.828125h2zm0 0" fill="#971b2f"/><path d="m21.128906 4.296875-3.019531 14.515625h3.394531l-1.394531 6.578125 3.035156-3.976563 1.011719-4.773437h-3.402344l2.117188-10.171875h17.15625l-3.628906 17.414062h2.195312l4.082031-19.585937zm24.71875 0-4.082031 19.585937h2.191406l3.628907-17.414062h17.007812l-2.042969 10.171875h-3.246093l-1.53125 7.242187h2.191406l1.074218-5.070312h3.269532l2.90625-14.515625zm-36.867187 16.089844-.902344 4.421875h1.457031l-2.625 12.40625-1.375.003906-.953125 4.386719h6.988281l2.363282-11.132813c1.132812 2.71875 2.363281 5.53125 3.558594 8.25l6.539062-8.511718-2.394531 11.394531h6.882812l.945313-4.390625h-1.410156l2.574218-12.402344 1.363282-.003906.902343-4.421875h-6.726562l-6.957031 9.101562-3.335938-9.101562zm27.21875 5.28125-4.871094 12.628906h-1.195313l-.683593 3.304687h5.265625l1.339844-3.894531h2.753906l-.390625 3.894531h5.144531l.707031-3.355468h-1.097656l.195313-12.578125zm14.285156 0c-1.484375 0-3.140625.988281-3.460937 2.496093l-.777344 3.769532c-.34375 1.582031.4375 3.058594 2.019531 3.058594h4.269531l-.707031 3.253906h-2.414063l.339844-1.550782h-4.214844l-1.023437 4.902344h8.484375c1.359375 0 2.773438-1.207031 3.089844-2.613281l.878906-4.21875c.292969-1.453125-.414062-2.78125-1.855469-2.78125h-4.457031l.632812-3.03125h2.511719l-.292969 1.402344h3.851563l.976563-4.6875zm11.988281 0c-1.484375 0-3.140625.988281-3.460937 2.496093l-.78125 3.769532c-.339844 1.582031.441406 3.058594 2.023437 3.058594h4.265625l-.707031 3.253906h-2.414062l.34375-1.550782h-4.21875l-1.019532 4.902344h8.476563c1.367187 0 2.78125-1.207031 3.097656-2.613281l.875-4.21875c.292969-1.453125-.410156-2.78125-1.851563-2.78125h-4.457031l.632813-3.03125h2.507812l-.292968 1.402344h3.855468l.972656-4.6875zm-23.273437 2.761719h.144531l-.316406 6.441406h-2.074219zm-19.824219 10.757812-2.300781 2.992188-.355469-.820313-1.085938 5.121094c-.664062 3.210937-.03125 6.320312 1.746094 8.53125 1.570313 1.953125 3.894532 3.03125 6.546875 3.03125h19.203125c5.636719 0 10.84375-5.933594 12-11.273438l.710938-3.378906h-1.53125l.046875-.222656c-.230469.070312-.460938.132812-.695313.164062l-.632812 2.980469c-.90625 4.210938-5.214844 9.5625-9.898438 9.5625h-19.203125c-4.683593 0-7.179687-4.207031-6.195312-8.953125zm12.957031 4.203125-.46875 2.238281h7.558594l.464844-2.238281zm0 0" fill="#fff"/><path d="m15.875 20.386719-2.183594 2.234375h-.902344l-3.570312 16.8125h-2.113281l-2.523438 2.167968h6.988281l2.363282-11.132812-.234375-7.789062 4.605469 11.589843-.8125 4.453125 6.539062-8.511718 4.261719-7.53125-3.464844 16.632812-3.191406 2.289062h6.867187l.949219-4.386718h-1.398437l2.601562-12.402344 1.335938-.003906.902343-4.421875-2.542969 2.230469h-3.152343l-8.816407 11.507812.828126-4.636719zm42.460938 5.28125-2.378907 1.609375h-5.054687c-.746094 0-1.574219.492187-1.730469 1.242187l-.292969 1.394531s-.289062 1.425782-.410156 2.007813c-.125.585937.042969.925781.140625 1.082031l-2.09375 1.015625c.347656.585938.945313.96875 1.75.96875h4.269531l2.046875-1c.101563.210938.179688.523438.078125.984375l-.726562 3.398438c-.1875.878906-.652344 1.539062-1.746094 1.539062h-5.246094l-2.425781 1.6875h8.484375c1.359375 0 2.773438-1.207031 3.09375-2.613281l.878906-4.21875c.136719-.6875.050782-1.351563-.226562-1.851563l-2.167969 1.066407c-.160156-.363281-.488281-.511719-.949219-.511719 0 0-3.449218-.007812-4.042968-.007812-.589844 0-.753907-.15625-.976563-.46875l2.050781-1.011719.628906-3.03125h2.515626l-.296876 1.40625h3.851563zm11.984374 0-2.375 1.609375h-5.058593c-.742188 0-1.570313.492187-1.730469 1.242187l-.289062 1.394531s-.289063 1.425782-.414063 2.007813c-.121094.585937.042969.925781.140625 1.082031l-2.089844 1.015625c.34375.585938.945313.96875 1.75.96875h4.265625l2.050781-1c.101563.210938.171876.523438.070313.984375l-.71875 3.398438c-.191406.878906-.660156 1.539062-1.75 1.539062h-5.246094l-2.421875 1.6875h8.480469c1.363281 0 2.777344-1.207031 3.09375-2.613281l.875-4.21875c.140625-.683594.054687-1.351563-.226563-1.851563l-2.160156 1.066407c-.164062-.363281-.492187-.511719-.949218-.511719 0 0-3.453126-.007812-4.046876-.007812s-.75-.15625-.980468-.46875l2.054687-1.011719.632813-3.03125h2.507812l-.289062 1.40625h3.851562zm-26.957031 0-1.980469 1.644531h-3.816406l-4.605468 12.628906h-1.570313l-1.945313 1.660156h5.269532l1.339844-3.894531h2.75l2.207031-1.375-.175781 3.628907-2.417969 1.640624h5.140625l.707031-3.355468h-1.09375l.195313-12.578125zm-2.003906 1.703125-.359375 8.914062h-6.65625l2.609375-1.414062 2.246094-6.441406h.144531zm0 0" fill="#b1b3b3"/></svg>