<svg height="40pt" viewBox="0 0 69 40" width="69pt" xmlns="http://www.w3.org/2000/svg"><path d="m68.675781 9.648438-2.179687-1.199219c-1.0625-.488281-3.183594-1.613281-3.695313-1.890625-.828125-.285156-1.503906-.851563-2.394531-1.070313-.800781-.425781-1.675781-.679687-2.523438-1.011719-.671874-.328124-1.46875-.394531-2.144531-.753906-2.300781-.632812-4.585937-1.324218-6.90625-1.894531-.140625.019531-.1875-.21875-.3125-.046875-.09375 2.003906-.09375 4.507812-.140625 6.621094 0 0 1.230469.40625 1.644532.535156.5.160156.546874.773438.609374 1.167969.128907.566406.1875 1.132812.378907 1.667969.21875 1.8125.609375 3.832031.828125 5.628906.0625.316406.1875.691406.03125.992187-.546875-.09375-.988282-.410156-1.503906-.566406-.515626-.175781-1.078126-.410156-1.535157-.539063-.171875 2.210938.0625 4.683594-.375 6.8125-.1875.4375-.09375.976563-.375 1.371094-.832031.078125-1.457031-.410156-2.257812-.617187-.1875-.0625-.417969-.015625-.5625-.1875-.042969-5.832031.203125-10.90625.21875-16.535157l.078125-.328124c.832031.0625 1.644531.3125 2.445312.375.125-2.0625.0625-4.332032.1875-6.398438l-.109375-.21875c-.515625-.015625-1.003906-.09375-1.472656-.222656-1.1875-.027344-1.941406-.421875-3.164063-.375-1.363281-.300782-2.769531-.300782-4.132812-.507813l-2.128906-.109375c-2.773438-.109375-5.5625.0625-8.316406 0l-.109376.078125-.03125 1.59375c.015626.691407-.015624 1.355469-.109374 2-.0625.019531-.078126-.046875-.125-.078125-.15625-1.007812-.703126-1.90625-.972657-2.914062-.078125-.160156-.09375-.363282-.1875-.519532-4.054687.375-7.78125.820313-11.617187 1.730469-.222656.144531-.550782.050781-.753906.238281-2.773438.613282-5.355469 1.6875-7.953126 2.710938-.332031.078125-.582031.316406-.910156.378906-1.644531.628906-3.164062 1.605469-4.808594 2.238282-.265624.234374-.65625.234374-.859374.488281-.0625 2.457031-.1875 5.371093-.1875 7.941406.65625-.378906 1.332031-.707031 1.988281-1.136719h.21875c0 1.65625 0 3.515625-.109375 5.21875 0 2.082032-.125 4.585938-.1875 6.589844-.125 2.710938-.265625 5.65625.109375 8.210938.21875 1.699218.894531 3.574218 2.554687 4.300781.78125.503906 1.878906.332031 2.753906.15625 2.660157-.976563 4.886719-3.101563 6.6875-5.375 1.046876-1.542969 2.050782-3.101563 2.472657-4.914063.1875-.332031.21875-.835937.421875-1.214844.144531 1.527344-.109375 3.546876-.078125 5.074219 1.191406-.441406 2.351562-.945312 3.574219-1.324219 2.394531-.929687 4.929687-1.511718 7.46875-2.078124 0-1.972657.15625-3.640626.15625-5.722657l.078124-.109375.078126.078125c.515624 1.65625 1.1875 3.230469 1.722656 4.886719.140625.21875-.015625.691406.40625.675781 1.847656-.25 3.757812 0 5.683594-.078125.46875.015625.925781.09375 1.347656.222656 1.363281.171876 2.632812.566407 3.945312.832032.316406.175781.722656.109375 1.019532.347656 1.425781.269531 2.664062.960938 4.054687 1.277344 2.113281.914062 4.226563 1.8125 6.28125 2.882812.296875 0 .484375.285156.78125.300782-.015625-.726563.015625-1.464844.109375-2.238282.15625.628906.1875 1.277344.265625 1.96875.207031 1.417969.328125 3.042969.644531 4.507813 2.128906.015625 3.992188.109375 6.089844.078125.0625-.25.171875-.488282.1875-.753906.109375-.410157 1.550781-6.070313 1.613281-6.558594.265625-1.054688 3.492188-15.757813 3.757813-15.949219.785156.347656 1.457031.945313 2.253906 1.246094.128906-2.519531.097656-5.453125.082031-7.992188m-56.828125 12.648438c-.046875.882812-.09375 1.8125-.140625 2.804687-.109375.691406-.21875 1.683594-.503906 2.457032-.3125 1.074218-1.046875 2.113281-1.988281 2.789062-.25.035156-.453125 0-.515625-.265625.046875-2.191406.03125-4.113281.140625-6.429687.03125-3.894532.234375-7.488282.265625-11.347657.09375-.316406-.015625-.820312.410156-.898437.8125-.425782 1.671875-.664063 2.519531-.992188l.078125.3125c-.03125 3.972656-.234375 7.457032-.265625 11.570313m8.046875.597656s-.078125 1.59375-.15625 2.347656c-.171875.285157-.546875.238281-.78125.457031-.484375.125-.941406.347657-1.394531.535157.15625-.738281.234375-7.671875.40625-10.9375.03125-2.09375.09375-4.363281.1875-6.648438.1875-.285156.660156-.238281.988281-.347656.3125-.109375.640625-.15625.96875-.21875l.082031.109375c-.15625 4.742188-.144531 9.6875-.300781 14.703125m5.828125.726563c.109375-2.273438.0625-4.242188.1875-6.464844.203125.191406 1.707032 4.652344 2.175782 6.164062-.5.21875-2.238282.488282-2.363282.300782m5.339844-15.433594c.015625.898437-.0625 1.734375-.078125 2.601562-.109375-.234375-.265625-.519531-.296875-.820312-.394531-1.039063-.785156-2.046875-1.097656-3.105469.421875-.140625.953125-.046875 1.425781-.078125.1875.535156-.03125.867188.046875 1.402344m7.734375 5.40625c-.125 3.277344-.046875 6.148437-.234375 9.488281v.128906c-.578125-.050781-1.269531-.082031-1.910156-.128906-.140625-.519531-.046875-1.292969-.078125-1.734375.078125-5.027344.15625-9.488281.296875-14.484375l.046875-.046875c.609375.144531 1.316406.046875 1.910156.238281.1875 2.253907-.0625 4.304688-.03125 6.539063m20.1875 6.398437c-.144531-.707031-1.097656-7.167969-1.285156-8.070312l.03125-.1875c.671875.140625 1.28125.457031 1.878906.757812.234375.203125.578125.222657.71875.535157.046875 1.054687-1.1875 6.304687-1.34375 6.964843"/><path d="m32.773438 1.675781c-.882813-.003906-1.75.019531-2.585938.109375.027344 1.007813-.050781 1.96875 0 2.992188.828125.078125 1.859375-.25 2.328125.570312.160156 4.117188-.015625 14.136719-.183594 14.640625 0 0-3.839843-10.859375-5.53125-15.507812-.15625-.867188-.578125-1.625-.78125-2.460938-1.707031.238281-3.304687.425781-4.996093.710938-.53125.109375-1.097657.09375-1.582032.316406l-.078125 3.054687.078125.191407c.671875-.082031 1.488282-.503907 2.097656-.082031.109376.160156.140626.332031.234376.492187.0625 4.441406-.109376 8.128906-.15625 12.75-.171876 2.238281.234374 4.410156-.328126 6.617187-.546874.835938-1.582031.835938-2.332031 1.324219-.03125.664063-.109375 1.261719-.078125 1.859375 0 .441406-.171875 1.023438 0 1.355469 2.160156-.867187 4.476563-1.589844 6.796875-2.191406.234375-.109375.546875-.046875.75-.234375-.03125-.882813.046875-1.90625.078125-2.867188l-.078125-.160156c-.738281.078125-1.347656.472656-2.066406.238281-.644531-.898437-.296875-5.707031-.332031-6.667969.191406-1.324218-.058594-2.617187.113281-4.082031.140625-2.347656.03125-4.507812.1875-6.996093.390625.882812.734375 1.84375 1.015625 2.804687l.078125.078125c1.929687 5.722656 4.042969 11.363281 6.046875 17.054688.96875.0625 2.222656-.113282 3.117188 0l.109374-.082032c.042969-4.960937.203126-10.921875.3125-15.539062.125-2.472656-.15625-4.554688.328126-6.730469.453124-.613281 1.347656-.425781 2.035156-.457031l.03125-2.914063-.078125-.109375c-1.546875.007813-3.074219-.074218-4.550781-.078125zm5.570312.15625c-.144531 1.023438-.046875 2.03125-.078125 3.058594.59375.046875 1.203125.03125 1.691406.296875.386719.207031.53125.648438.5625 1.054688.03125 3.421874-.015625 6.636718-.140625 10.074218-.109375 2.820313.078125 5.5625-.3125 8.164063-.472656.707031-1.566406.234375-2.175781.265625v3.058594c4.210937.835937 8.234375 2.128906 12.070313 3.859374.109374-.011718 1.472656.710938 2.066406.871094.140625-1.988281.019531-4.132812.113281-6.242187.027344-1.957031.074219-3.878907.109375-5.894531-.488281-.441407-1.207031-.507813-1.769531-.835938 0 1.246094-.128907 2.472656-.191407 3.640625-.3125 1.324219-.125 2.992187-1.453124 3.78125-1.945313.269531-3.570313-.867187-5.386719-1.210937-.066407-3.515626.109375-6.746094.15625-10.261719.171875-3.324219-.0625-6.242188.34375-9.332031.46875-.878907 1.566406-.265626 2.363281-.234376.0625-1.023437.03125-2.160156.03125-3.167968-1.21875-.1875-2.613281-.378906-3.789062-.566406-1.46875-.078126-2.785157-.316407-4.210938-.378907zm-19.8125 1.355469c-2.394531.691406-4.726562 1.179688-7.0625 2.050781-.109375 1.132813 0 2.328125-.105469 3.464844.65625-.125 1.3125-.613281 1.988281-.378906.25.09375.234376.363281.34375.535156.125 3.734375-.140624 7.296875-.15625 10.972656-.03125 4.679688.484376 10.511719-4.511718 12.636719-.28125-.03125-.46875.191406-.78125.113281-1.082032-.394531-1.175782-1.738281-1.207032-2.726562-.125-3.328125.078126-6.859375.109376-10.058594.046874-3.023437.03125-5.8125.296874-8.558594.296876-1.179687 1.566407-1.417969 2.445313-1.886719.03125-1.152343.109375-2.210937.078125-3.484374l-.078125-.109376c-2.664063 1.132813-5.371094 2.28125-7.925781 3.636719-.03125 1.421875-.109375 2.664063-.078125 3.972657.597656-.25 1.066406-.757813 1.769531-.722657.359375.15625.390625.628907.40625.945313-.0625 6.523437-.140625 12.558594-.21875 18.992187.1875 1.921875.09375 4 1.660156 5.324219.753906.425781 1.472656.175781 2.289063-.078125 3.613281-2.050781 6.480469-5.597656 7.484375-9.644531.25-.644532.234375-1.480469.4375-2.113282.1875-1.433593.25-2.976562.265625-4.570312 0 0-.046875-1.496094.046875-2.394531.015625-3.847657.078125-7.078125.296875-11.03125.03125-.632813.582031-1.074219 1.128906-1.261719.328125-.109375.6875-.207031 1.050781-.300781l.027344-2.457031c.066406-.316407.066406-.554688 0-.867188zm31.679688.457031c-.015626 1.007813-.09375 2.191407-.058594 3.324219.621094.15625 1.28125.332031 1.6875.945312.910156 2.160157.988281 4.664063 1.378906 7.03125 1.25 7.234376 1.976562 14.65625 2.710938 21.9375.046874.269532.046874.710938.15625.945313 1.03125.15625 2.207031.03125 3.269531.125.203125-.234375.222656-.695313.332031-1.023437 1.644531-6.085938 2.941406-12.164063 4.398438-18.3125.457031-1.464844.390624-3.199219 1.347656-4.429688.597656-.125 1.09375.171875 1.550781.503906.078125-1.355468.15625-2.710937.078125-4.128906-1.113281-.644531-2.253906-1.246094-3.382812-1.859375-1.0625-.425781-2.035157-1.085937-3.132813-1.464844-.234375-.113281-.484375-.347656-.75-.300781-.066406 1.136719-.015625 2.539062-.03125 3.625.625.394531 1.328125.582031 1.878906 1.136719.703125.597656.46875 1.558593.40625 2.378906-.988281 4.804687-2.144531 9.550781-3.257812 14.292969-.109375.347656-.09375.742187-.3125 1.023437-.21875-1.433593-.4375-2.867187-.671875-4.300781-.441406-3.230469-.941406-6.570312-1.429688-9.914062-.089844-.15625.035156-.394532-.105468-.535157-.15625-1.261719-.296876-2.410156-.457032-3.625-.011718-.550781-.1875-1.339843.300782-1.78125.765624-.109375 1.410156.457031 2.066406.601563.03125-1.152344.109375-2.238282.078125-3.46875l-.078125-.15625c-2.613282-.929688-5.308594-1.832032-7.972656-2.570313zm0 0" fill="#cf0a2c"/></svg>