<svg height="104pt" viewBox="0 0 70 104" width="70pt" xmlns="http://www.w3.org/2000/svg"><path d="m10.964844.578125-10.234375 10.191406v21.402344l10.234375 10.195313h16.03125l-8.605469 8.570312v3.195312h-1.628906v-9.125h-16.03125v13.945313l10.234375 10.195313h7.425781v24.089843l10.234375 10.195313h30.886719l10.234375-10.195313v-13.945312h-16.035156v9.128906h-19.289063v-19.273437h7.425781l10.234375-10.195313v-3.195313h1.628907v9.128907h16.035156v-13.945313l-10.234375-10.195312h-7.429688v-3.195313l-10.234375-10.195312h-25.085937v-11.765625h19.289062v9.125h16.03125v-13.945313l-10.234375-10.191406zm0 0" fill="#ffc72c"/><path d="m11.640625 2.199219-9.28125 9.242187v20.058594l9.28125 9.246094h26.039063v15.007812h-3.257813v11.769532h6.75l9.28125-9.246094v-20.054688l-9.277344-9.246094h-26.042969v-15.011718h22.546876v9.128906h12.773437v-11.652344l-9.277344-9.242187zm17.660156 40.167969-9.28125 9.242187v40.957031l9.277344 9.242188h29.535156l9.285157-9.242188v-11.652344h-12.777344v9.128907h-22.546875v-35.910157h3.257812v-11.765624zm22.78125 0v11.765624h3.257813v9.128907h12.777344v-11.652344l-9.285157-9.242187zm-49.722656 4.261718v11.648438l9.28125 9.246094h6.75v-11.769532h-3.257813v-9.125zm0 0" fill="#9d2235"/></svg>