<svg height="64pt" viewBox="0 0 70 64" width="70pt" xmlns="http://www.w3.org/2000/svg"><path d="m43.382812.636719c-8.710937 0-16.429687 4.265625-21.109374 10.785156h-1.8125v-5.832031h-.878907l-2.089843 3.285156-1.152344-1.226562-.238282.808593.785157 2.964844h-1.625v2.765625h.8125c-4.203125 3.792969-15.464844 16.148438-15.46875 39.640625l-.023438 2.359375s.410157.4375.578125.613281c-.011718.328125-.058594 1.507813-.058594 1.507813l1.792969 2.949218s.789063.429688 1.078125.585938c.066406.320312.300782 1.460938.300782 1.460938h1.5s.597656-.585938.710937-.699219c.164063-.070313 1.378906-.59375 1.378906-.59375s.710938-2.011719.855469-2.417969c.269531-.085938.90625-.292969.90625-.292969l.90625-2.074219c.015625-.046874 1.023438-3.226562 1.320312-4.167968.050782-.011719.050782-.011719.105469-.027344.304688.371094 1.042969 1.257812 1.042969 1.257812 0 .003907.710938 1.015626.863281 1.230469.039063.167969.308594 1.34375.308594 1.34375l1.726563.128907s1.425781-1.855469 1.429687-1.859376c.007813.003907.992187-.910156.992187-.910156l.171876-.164062v-1.308594s-.324219-.484375-.53125-.789062c.039062-.035157.042968-.039063.078124-.070313.300782.105469 1.125.390625 1.125.390625l1.320313-1.851562s-.167969-.382813-.207031-.476563c.25-.21875.679687-.589844.679687-.589844s.480469-1.820312.535157-2.019531c.128906-.160156 1.71875-2.117188 1.71875-2.117188l-1.921876-2.320312c-.242187-.871094-1.019531-3.707031-1.082031-3.929688.023438-.09375.15625-.570312.3125-1.140624 4.328125 8.082031 12.949219 13.605468 22.859375 13.605468 14.238282 0 25.820313-11.398437 25.820313-25.402344 0-14.003906-11.582031-25.398437-25.820313-25.398437h.003906zm0 0"/><path d="m43.382812 3.625c-12.589843 0-22.792968 10.035156-22.792968 22.410156 0 12.378906 10.203125 22.417969 22.792968 22.417969 12.585938 0 22.789063-10.039063 22.789063-22.417969 0-12.375-10.203125-22.410156-22.789063-22.410156zm-23.679687 3.851562-1.613281 3.945313h1.613281zm-1.976563 6.714844c-.058593.042969-.117187.09375-.183593.148438l-.9375 3.320312-.039063.066406s-1.523437 2.449219-1.53125 2.445313c-.003906.007813-1.769531 4.683594-1.820312 4.824219-.011719.144531-.25 3.40625-.25 3.40625s-2.664063 3.175781-2.894532 3.449218v2.28125c.09375.1875.644532 1.296876.644532 1.296876l-.066406 1.363281-1.089844-.054688s.042968-.871093.054687-1.085937c-.101562-.203125-.632812-1.269532-.632812-1.269532v-2.917968s2.71875-3.234375 2.925781-3.480469c.019531-.308594.234375-3.21875.234375-3.21875l.027344-.074219s1.84375-4.894531 1.890625-4.988281c0 0 1.460937-2.351563 1.535156-2.476563.015625-.054687.207031-.726562.425781-1.507812-4.496093 4.347656-14.203125 16.226562-14.308593 37.757812.476562.191407 2.023437.824219 2.023437.824219s.027344 1.210938.03125 1.542969c.066406.054688.085937.070312.167969.140625.398437-.3125 1.222656-.960937 1.222656-.960937h.84375s.816406.988281 1.023438 1.238281c.15625.019531.253906.027343.460937.050781.234375-.375.761719-1.214844.761719-1.214844s2.40625-2.46875 2.644531-2.714844c.027344-.28125.207031-2.191406.257813-2.738281l-2.941407-5.84375.09375-1.828125s1.09375-1.75 1.253907-2c-.007813-.097656-.007813-.136718-.015626-.242187-.167968-.183594-.699218-.773438-.699218-.773438v-1.039062h1.089844v.628906c.175781.195313.671874.742187.671874.742187l.066407.953126s-1.160157 1.855468-1.292969 2.058593c-.007812.210938-.054688 1.066407-.066406 1.277344.121094.238281 2.738281 5.433594 2.835937 5.625l1.566407 1.300781c.125-.632812.398437-2.078125.398437-2.078125s1.578125.140625 2.078125.191407c.226562-.492188 1.019531-2.1875 1.019531-2.1875s1.042969.023437 1.511719.03125c.121094-.566407.476562-2.210938.476562-2.210938s.566407-.027344.699219-.035156c.117188-.378906.273438-.890625.328125-1.070313-.074218-.277343-1.144531-4.171875-1.144531-4.171875l.035156-.140625.679688-2.46875c-1.4375-3.15625-2.234375-6.652343-2.234375-10.332031 0-4.273438 1.082031-8.304688 2.988281-11.84375h-2.820313zm0 0" fill="#fff"/><path d="m27.433594 11.917969v8.117187h2.542968v18.246094l.015626.011719 5.527343 6.019531h15.722657l5.527343-6.019531.015625-.011719v-18.246094h2.542969v-8.117187h-15.15625v8.117187h1.609375v15.339844h-4.804688v-15.339844h1.613282v-8.117187zm-6.414063 32.359375-.300781.980468s-.515625.023438-.632812.027344c-.117188.542969-.488282 2.265625-.488282 2.265625s-1.265625-.023437-1.699218-.03125c-.21875.46875-1.042969 2.238281-1.042969 2.238281s-1.304688-.121093-1.859375-.167968c-.113282.585937-.414063 2.164062-.414063 2.164062h-1.082031l-.152344-.132812-1.195312-1.007813-.117188 1.269531.308594-.085937 1.53125 1.84375 1.003906 1.433594s.105469.464843.179688.773437c.15625.011719.195312.015625.332031.027344.34375-.449219 1.085937-1.414062 1.132813-1.460938 0 0 .636718-.601562.878906-.820312v-.523438c-.136719-.203124-.882813-1.316406-.882813-1.316406l1.289063-1.085937s.636718.21875.9375.324219c.191406-.269532.34375-.476563.496094-.691407-.058594-.144531-.277344-.644531-.277344-.644531s.835937-.722656 1.019531-.882812c.070313-.265626.511719-1.925782.511719-1.925782s.945312-1.164062 1.3125-1.617187c-.179688-.21875-.496094-.601563-.789063-.953125zm-19.332031 10.355468c-.003906.449219-.011719.949219-.011719 1.132813l.589844.625s-.050781 1.378906-.0625 1.632813c.140625.238281 1.347656 2.214843 1.476563 2.425781.203124.113281 1.261718.6875 1.261718.6875s.148438.710937.226563 1.089843h.15625c.175781-.175781.539062-.53125.539062-.53125s.828125-.355468 1.128907-.484374c.128906-.367188.875-2.476563.875-2.476563s.691406-.222656.953124-.308594c.199219-.460937.6875-1.578125.691407-1.578125 0 0 .34375-1.089844.699219-2.214844-.566407.582032-1.066407 1.09375-1.101563 1.125-.054687.09375-1.054687 1.707032-1.054687 1.707032l-1.597657-.1875s-.707031-.855469-.953125-1.148438c-.277344.214844-1.589844 1.25-1.589844 1.25l-1.226562-1.027344s-.019531-.925781-.027344-1.324218c-.195312-.078125-.582031-.234375-.972656-.394532zm0 0" fill="#c00"/><path d="m14.769531 26.632812-.183593 2.480469-.003907.050781.339844 2.566407 1.082031-.140625s-.3125-2.351563-.328125-2.457032c.011719-.101562.179688-2.421874.179688-2.421874zm-.820312 7.265626v1.421874c-.074219.175782-1.121094 2.796876-1.121094 2.796876l.945313 3.019531c.011718.113281.386718 4.191406.386718 4.191406l1.089844-.101563-.402344-4.296874s-.765625-2.453126-.867187-2.769532c.121093-.304687 1.058593-2.636718 1.058593-2.636718v-1.625zm-8.964844 11.453124-.089844 4.210938-.007812.21875s.261719.28125.371093.390625v1.554687h1.089844v-1.972656s-.257812-.273437-.363281-.386718c.011719-.386719.089844-3.992188.089844-3.992188zm0 0"/></svg>