<svg height="53pt" viewBox="0 0 70 53" width="70pt" xmlns="http://www.w3.org/2000/svg"><path d="m6.660156.214844v15.027344h21.351563v-15.027344zm36.644532 0v15.027344h21.355468v-15.027344zm-15.292969 32.207031c-7.167969.40625-14.3125 1.386719-21.351563 2.949219v5.015625c-.027344.597656-.015625 3.484375 2.425782 6.324219 3.128906 3.644531 8.78125 5.613281 16.796874 5.847656h19.59375c7.992188-.234375 13.625-2.203125 16.757813-5.847656 2.378906-2.773438 2.460937-5.519532 2.425781-6.324219v-5c-7.042968-1.566407-14.183594-2.550781-21.355468-2.960938v4.910157c0 1.9375 0 3.339843-.675782 4.144531-.710937.84375-2.347656 1.222656-5.3125 1.222656h-3.3125c-2.96875 0-4.605468-.378906-5.316406-1.222656-.675781-.804688-.675781-2.207031-.675781-4.144531zm0 0" fill="#002a42"/><path d="m7.941406 1.527344v13.722656h18.789063v-13.722656zm36.644532 0v13.722656h18.789062v-13.722656zm-17.851563 30.96875c-6.308594.421875-12.589844 1.289062-18.792969 2.601562v5.316406c-.015625.285157-.09375 2.867188 2.105469 5.433594 2.886719 3.359375 8.21875 5.175782 15.855469 5.398438h19.535156c7.621094-.222656 12.949219-2.039063 15.832031-5.398438 2.148438-2.503906 2.132813-4.964844 2.105469-5.425781v-5.3125c-6.203125-1.316406-12.480469-2.1875-18.789062-2.605469v4.828125c0 4.164063 0 6.675781-7.269532 6.675781h-3.3125c-7.269531 0-7.269531-2.511718-7.269531-6.675781zm0 0" fill="#9d968d"/><path d="m61.664062 28.847656c-.003906-.617187-.007812-1.230468-.011718-1.847656 2.441406.296875 4.875.632812 7.300781 1.007812 0-1.550781-.003906-3.101562-.003906-4.652343-2.433594-.222657-4.875-.421875-7.320313-.59375 0-.519531-.003906-1.042969-.007812-1.566407 2.601562.136719 5.195312.292969 7.789062.472657v-.21875c0-1.5625-.003906-3.121094-.003906-4.683594v-.046875c-21.558594.007812-44.378906.007812-65.941406.019531-1.722656-.011719-3.175782 1.441407-3.175782 3.171875v5.429688c0 .925781.78125 1.867187 1.714844 2.238281-.554687.082031-1.113281.164063-1.667968.25v4.027344c.003906 1.40625 1.410156 2.746093 3.066406 2.347656 2.871094-.667969 5.757812-1.242187 8.660156-1.71875 1.453125-.257813 3.699219-1.757813 3.707031-3.199219.011719-1.582031.023438-3.164062.035157-4.746094-.015626-1.085937-.996094-1.667968-2.171876-1.921874.652344-.035157 1.304688-.070313 1.960938-.105469.003906-.542969.007812-1.082031.011719-1.621094 1.445312-.054687 2.890625-.101563 4.339843-.144531-.023437 3.558594-.046874 7.117187-.070312 10.679687 2.070312-.226562 4.144531-.40625 6.21875-.539062 1.839844-.109375 3.679688-.183594 5.519531-.222657.382813-.863281.761719-1.722656 1.144531-2.582031 1.878907-.019531 3.761719-.003906 5.640626.039063.390624.867187.78125 1.738281 1.171874 2.613281 4.125.15625 8.246094.5 12.34375 1.027344-.023437-3.648438-.050781-7.292969-.074218-10.9375.8125.027343 2.882812.058593 3.695312.089843.023438 3.726563.050782 7.453126.074219 11.183594 4.746094.695313 9.464844 1.644532 14.136719 2.839844v-4.753906c-2.683594-.503906-5.378906-.949219-8.082032-1.335938m-52.5.011719c-.835937.113281-1.675781.230469-2.511718.355469.003906-.558594.003906-1.117188.007812-1.671875.835938-.046875 1.675782-.085938 2.511719-.121094-.003906.476563-.003906.957031-.007813 1.4375m.089844-6.457031c-1.042968-.023438-2.101562-.046875-2.769531-.058594.003906-.464844.003906-.925781.007813-1.390625.921874-.046875 1.847656-.09375 2.769531-.136719-.003907.527344-.003907 1.054688-.007813 1.585938m36.394532-1.757813c.015624 2.960938.03125 5.921875.046874 8.882813-1.503906-3.070313-3.003906-6.042969-4.496093-8.964844 1.480469.019531 2.964843.046875 4.449219.082031m-8.824219 3.707031c-.816407-.007812-1.632813-.011718-2.449219-.011718.421875-.933594.847656-1.863282 1.269531-2.796875.390625.933593.785157 1.871093 1.179688 2.808593m-6.257813-3.800781c-1.480468 2.867188-2.96875 5.769531-4.460937 8.746094.011719-2.898437.023437-5.796875.035156-8.695313 1.476563-.023437 2.949219-.039062 4.425781-.050781" fill="#9d968d"/><path d="m8.769531 2.382812v12.867188h17.132813v-12.867188zm36.644531 0v12.867188h17.132813v-12.867188zm-12.359374 14.914063c-2.199219 4.253906-4.421876 8.535156-6.652344 12.984375 1.554687-.089844 3.109375-.148438 4.660156-.183594.382812-.867187.765625-1.730468 1.144531-2.589844 2.246094-.027343 4.488281-.011718 6.730469.042969.390625.871094.78125 1.742188 1.175781 2.621094 1.753907.070313 3.507813.171875 5.261719.308594-2.234375-4.558594-4.460938-8.902344-6.671875-13.183594-1.882813 0-3.765625-.003906-5.648437 0zm6.507812.003906c.449219.886719.894531 1.777344 1.34375 2.671875 1.828125.023438 3.660156.050782 5.492188.085938.023437 3.503906.042968 7.007812.0625 10.511718 1.566406.128907 3.128906.289063 4.6875.472657-.023438-3.621094-.046876-7.246094-.070313-10.867188 1.3125.035157 3.890625.078125 5.203125.125.027344 3.753907.054688 7.507813.078125 11.261719 4.242187.621094 8.457031 1.433594 12.640625 2.4375-.003906-1.070312-.003906-2.136719-.003906-3.207031-2.683594-.523438-5.378906-.980469-8.085938-1.375-.003906-1.0625-.011718-2.121094-.015625-3.183594 2.441407.265625 4.878907.574219 7.304688.917969 0-1.042969 0-2.082032 0-3.125-2.4375-.242188-4.878907-.457032-7.320313-.644532-.007812-.964843-.011718-1.933593-.015625-2.902343 2.597657.113281 5.199219.242187 7.792969.390625v-.21875c0-1.046875-.003906-2.097656-.003906-3.144532v-.046874c-9.269532-.09375-19.808594-.148438-29.089844-.160157zm-7.347656.011719c-5.527344.003906-11.058594.023438-16.585938.054688-.007812.964843-.011718 1.925781-.019531 2.890624 1.695313-.054687 3.394531-.101562 5.09375-.140624-.023437 3.539062-.042969 7.082031-.066406 10.621093 1.5625-.152343 3.132812-.277343 4.699219-.375.015624-3.445312.03125-6.894531.046874-10.339843 1.832032-.027344 3.664063-.046876 5.496094-.058594.449219-.886719.890625-1.769532 1.335938-2.652344zm-19.695313.066406c-3.019531.019532-6.039062.042969-9.058593.074219-1.316407.003906-2.429688 1.132813-2.429688 2.425781-.003906 1.789063-.003906 3.582032-.003906 5.375-.003906.839844 1.148437 1.835938 2.046875 1.769532.121093-.023438 6.835937-.316407 6.839843-.300782-.003906.753906-.007812 1.511719-.011718 2.265625-.003906.246094-.316406.472657-.488282.5-.992187.140625-1.984374.292969-2.972656.457031-.289062.046876-.53125-.144531-.53125-.386718 0-.609375.003906-1.21875.007813-1.832032-1.617188.222657-3.234375.464844-4.84375.726563 0 1.082031 0 2.164063-.003907 3.246094 0 1.007812 1.105469 2.070312 2.332032 1.789062 2.871094-.640625 5.761718-1.1875 8.664062-1.648437 1.144532-.195313 2.949219-1.453125 2.957032-2.472656.011718-1.585938.023437-3.175782.03125-4.765626-.011719-1.222656-1.867188-1.464843-2.773438-1.476562-.507812-.03125-6.542969-.105469-6.542969-.101562.003907-.75.007813-1.5.007813-2.25.003906-.179688.199218-.484376.492187-.496094 1.050781-.046875 2.101563-.089844 3.15625-.132813.300781-.011719.613281.210938.609375.449219-.003906.53125-.003906 1.066406-.007812 1.597656 1.617187-.101562 3.234375-.1875 4.855468-.269531.003907-.859375.011719-1.71875.015626-2.582031.007812-.96875-.964844-1.96875-2.347657-1.960938zm23.109375 2.410156h.070313c.71875 1.710938 1.441406 3.425782 2.164062 5.152344-1.519531-.019531-3.039062-.027344-4.554687-.023437.773437-1.710938 1.546875-3.421875 2.320312-5.128907zm-9.726562 12.765626c-5.746094.414062-11.46875 1.199218-17.132813 2.355468v5.535156s-.777343 9.417969 17.132813 9.949219h19.511718c17.914063-.53125 17.132813-9.949219 17.132813-9.949219v-5.5c-5.660156-1.164062-11.386719-1.953124-17.132813-2.375v4.765626c0 4.199218 0 7.53125-8.097656 7.53125h-3.3125c-8.101562 0-8.101562-3.332032-8.101562-7.53125zm0 0" fill="#002a42"/></svg>