<svg height="70pt" viewBox="0 0 70 70" width="70pt" xmlns="http://www.w3.org/2000/svg"><path d="m44.667969.496094-.757813.78125c-5.078125-.164063-10.101562.71875-15.101562 1.449218l.445312 2.878907c4.425782-.316407 8.90625-.667969 13.316406 0l.199219.464843c-3.433593.132813-6.988281.394532-10.347656 1.113282 2.949219.363281 5.953125.480468 8.851563 1.15625-5.355469-.292969-9.503907-.34375-14.785157.675781 4.117188.527344 8.246094 1 12.332031 1.722656l-3.664062 2.363281-12.085938 2.460938-1.691406 2.988281-2.796875 1.464844.84375 3.722656.171875.058594c-3.113281 3.785156-5.089844 8.582031-5.25 14.019531l-9.71875 8.390625h63.511719l-6.207031-6c.039062-.558593.066406-1.121093.066406-1.6875 0-2.578125-.417969-5.058593-1.1875-7.378906-1.226562-3.574219-2.453125-5.21875-2.453125-5.21875l3.402344-3.246094-5.449219-2.390625.601562-4.632812-8.738281-3.003906-2.332031 2.578124-.5625-.050781.082031-.101562-1.003906-2.414063 3.359375-5.296875 1.867188.703125 1.105468-1.253906c3.707032 1.28125 7.277344 2.902344 10.859375 4.480469 1.261719.554687 2.535157 1.089843 3.785157 1.660156l-.0625-3.117187c-4.160157-2.746094-8.652344-4.964844-13.210938-6.976563l-.246094-.753906-7.140625-1.609375zm-40.589844 46.824218-1.363281 4.632813h1.828125c-.421875 1.4375-1.445313 4.917969-1.445313 4.917969-.167968.578125-.375 1.277344-.375 1.992187 0 .5625.128906 1.136719.496094 1.671875.917969 1.328125 3.070312 1.945313 6.773438 1.945313 6.71875 0 7.90625-2.269531 8.613281-4.796875l.101562-.351563s.808594-2.757812 1.578125-5.378906h3.941406c-.523437 1.726563-3.152343 10.476563-3.152343 10.476563h6.886719s2.78125-9.449219 3.082031-10.476563h5.226562c-.417969 1.425781-1.46875 4.988281-1.710937 5.820313h-1.714844l-1.371094 4.65625h16.121094l1.371094-4.65625h-7.464844c.160156-.523438.222656-.738282.335938-1.097657h3.761718l1.078125-3.808593h-3.742187c.128906-.445313.175781-.597657.269531-.914063h8.566406c-.460937 1.5625-3.082031 10.476563-3.082031 10.476563h6.851562s.984376-3.347657 1.234376-4.199219c4.703124-.066407 9.148437-1.09375 12.273437-9.796875l.402344-1.113282h-54.753907l-2.660156 9.53125c-.148437.503907-.28125.945313-1.8125.945313-.257812 0-.421875-.011719-.542968-.027344.015624-.058593.035156-.117187.050781-.167969l.082031-.269531 2.945312-10.011719zm54.570313 4.527344h2.496093c-.699219.949219-1.902343 1.421875-2.984375 1.65625.222656-.761718.351563-1.195312.488282-1.65625zm0 0" fill="#b1b3b3"/><path d="m50.628906 58.574219-.003906.003906 2.191406-7.449219zm0 0" fill="#041e42"/><path d="m65.488281 45.308594-6.351562-6.625-2.324219.035156-.832031-1.207031s-1.617188 1.914062-1.660157 1.980469l.246094.871093-2.824218 3.71875c-.28125.082031-2.042969.046875-2.042969.046875s-.136719.148438-.191407.203125c-.054687.054688-.214843.195313-.277343.242188-.066407.039062-.226563.136719-.257813.136719h-1.042968l1.554687-1.210938 1.902344-.171875 2.351562-3.015625-.167969-.808594c.976563-1.28125 1.75-2.476562 1.75-2.476562s.28125-.820313.691407-2.117188l-4.230469-4.476562-.085938-1.3125.65625.230468 1.320313-2.484374.722656.96875.160157-1.785157-.300782-.402343.128906-.3125.402344-.300782 3.234375.101563 2.332031-2.222657-4.921874-2.15625.597656-4.585937-7.660156-2.632813-2.25 2.496094-1.695313-.191406-.402344-.429688.40625-.480468-.984375-2.351563 3.917969-6.175781 1.957031.738281 1.097656-1.242187c3.90625 1.316406 7.664063 3.003906 11.421876 4.675781.886718.394531 1.789062.75 2.667968 1.152344l-.03125-1.480469c-3.9375-2.585938-8.753906-4.9375-13.078125-6.835938l-.222656-.664062-6.289063-1.417969-.695312.71875c-4.886719-.210937-9.726562.609375-14.539062 1.3125l.21875 1.410157c2.71875-.191407 8.738281-.644532 13.214843.128906l.195313.457031.972656.144531-.9375 1.445313c-2.03125-.117188-2.828125-.222657-5.828125.078125 2.785156.34375 3.84375.578125 5.128906.976562l-.886719 1.335938c-1.808593-.332032-6.765624-.796875-10.378906-.4375 3.441406.425781 6.296875.785156 9.695313 1.46875l-.769531 1.160156-.9375-.253906-3.648438 2.605468-11.988281 2.515626-1.582031 2.828124-2.324219 1.050782.738281 2.777344 2.429688.945312.582031 1.046875-.445313.671875.65625 2.054688 2.585938.578124 4.039062 5.875-4.378906-4.734374c-1.558594 5.21875.777344 11.207031.777344 11.207031l-3.015625-2.316407-1.265625.386719-2.535156-2.25-3.734376 2.570313-1.4375-.363282-7.957031 6.582032zm-33.996093-22.414063-1.296876 2.730469-1.636718.46875 1.265625-.730469 1.507812-4.460937 2.007813-.578125-1.425782 3.09375zm20.035156 18.480469-1.023438-1.980469.78125-3.261719-3.035156-3.953124 3.277344 2.878906.089844 4.09375 1.042968 1.042968zm3.535156-6.136719c-.164062.472657-.519531 1.5-.519531 1.5s-1.332031 1.582031-1.820313 2.113281c-.019531-.332031-.117187-.800781-.070312-1.121093.0625-.40625.734375-1.769531.9375-2.246094l-1.023438.8125-.109375-1.835937-3.441406-2.441407 1.382813-.054687.691406-.664063zm-5.753906-20.328125 5.699218 2.023438-.421874 3.375-.921876.160156-5.117187-3.121094 3.367187.417969zm-.859375 3.171875 5.246093 3.484375c.390626 0 .832032-.050781 1.210938 0 .632812.085938 3.222656 1.214844 4.023438 1.515625l-4.28125-.101562-6.382813-4.152344-5.566406-1.117187.625-.664063c.5625.113281 5.042969.980469 5.125 1.035156m-6.75-1.324219.25-.375-1.761719-1.375 2.09375.875.339844-.621093-2.261719-1.558594 2.460937.882813-.339843-1.054688-2.886719-1.339844 3.304688.960938.757812 1.875-2.089844 2.722656-.597656.019531.292969-.300781-1.308594-1.003906-2.46875.390625 1.339844-.664063.386719-.683594zm-14.144531 11.59375 1.109374.207032.6875 2.097656zm1.585937-.472656-4.332031-1.414062 4.152344.566406 1.710937-.777344zm5.132813 16.300782-2.921876-.050782c-.714843-.292968-3.40625-5.359375-3.503906-10.578125.519532 3.179688 3.863282 8.652344 6.425782 10.628907m-22.5625 3.964843-1.027344.808594h-5.542969l-.453125 1.539063-.917969.640624h1.828125l.949219-.582031-2.207031 7.34375c-.226563.773438-.492188 1.65625-.253906 2.4375.777343.78125 2.472656 1.328125 5.910156 1.328125 7.140625 0 7.40625-2.628906 7.976562-4.574218l2.628906-8.941407-1.113281.804688h-3.71875l-2.5 8.945312c-.285156.972657-.804687 1.535157-2.550781 1.535157-1.699219 0-1.839844-1.121094-1.851562-1.234376.003906.027344.011718.039063-.007813-.042968-.054687-.261719.089844-.621094.222656-1.066406zm23.570312 0-.847656.808594h-12.277344l-.449219 1.523437-.921875.65625h4.5l.925782-.683593-3.125 10.4375-.949219.722656h5.261719l3.078124-10.476563h3.925782zm15.433594 0-.96875.808594h-12.890625l-.449219 1.53125-.921875.648437h1.839844l.96875-.683593-2.671875 8.953125h-1.714844l-.4375 1.480468-.941406.726563h14.503906l.886719-3.015625-.882813.808594h-7.488281l.894531-.808594.835938-2.738281h3.753906l.609375-2.167969-.996094.808594h-3.785156l1.03125-.808594.746094-2.554688h7.199219zm17.617187 0-1.234375.808594h-14.824218l-.4375 1.492187-.933594.6875h1.917968l.972657-.785156-3.070313 10.402344-.980468.859375h5.234374l1.230469-4.191406c4.640625 0 8.988281-.550781 12.125-9.273438zm-4.875 2.15625c-1.246093 3.695313-3.238281 5.015625-7.273437 5.015625l.882812-.8125 1.019532-3.472656h4.296874zm0 0" fill="#041e42"/><path d="m91.816068 7.0114 5.886762 2.11006-.749224 1.440078 2.339414-1.586396zm.955643 4.274027-8.753691 13.730792 1.05503.354244 8.631369-13.153221c-.091742-.415851-.473999-.746992-.932708-.931815zm-13.241391 14.069634 5.642117 2.641426.665128 2.079256-4.808796-1.732714 4.418893 3.064978-.665127 1.232152-4.097798-1.732714 3.455606 2.710735-.496935.746992-4.869957-2.472005-.75687 1.347666-2.622284 1.316862 4.831731-.770095 2.561124 1.971443-.565741.600674 1.169707-.046205 4.082508-5.359861-1.483158-3.704156zm19.013476 5.367562 9.785786 4.635971-1.261449 6.314778 1.796609-.315739.825676-6.645919zm-28.149424.130916-20.366667 4.736084-3.019832 5.567786-3.692605 1.355367 1.131481 2.849351.496935.184823.902127-2.287182 9.342367-2.18707 4.648248-3.919783 8.715466-5.02872-.007645.007701 1.85777-1.278357zm16.437062 4.081503-1.230869 1.30146 10.901977 2.210173 12.484522 8.186109-12.132845-9.664692zm-8.700175 1.532489-.382258.092411-3.899024 6.553508.825676.808599 4.197185-6.599713zm14.609872 4.689878-.25229 2.487406 2.36235 2.633725-.191129 3.673353 2.484672-2.040752-.649837 3.611745.152903-.007701 1.926577-3.265202 3.975475.446655-.657482.954918 2.729316 1.332264c.275226-.639179.382258-1.686508.107032-2.341089l.535161-1.13974c-2.698737-1.6249-3.111575-1.339965-6.054955-2.017649l1.360835-.500562c-1.880705-.700786-2.828703-2.918659-4.877602-3.280604l-1.261449 2.579818-1.681932-3.118884zm-2.240028.184823-5.466278 3.480829 1.200287 1.986844 3.799637-3.00337-1.934221 4.951711c.588676.800898 1.85777 2.726135 2.874574 4.081503l1.551965-1.77892-.091742-5.005617-1.666642-1.416974zm-4.258346.107813-5.397472.677683.603967 2.086958 2.591704 4.828495 2.186511.993422-3.532057-7.261995 1.276739.608375zm-14.50284 1.70191-2.155931.924113-.152903 1.632602-.940352 1.13974.191128 1.717312 1.047385-.385048 1.146772 1.855929.428128.100112.091742-3.049575 13.379004 17.28863-1.850125-.146318 3.99841 5.521581-.290515 2.094658 9.808721 11.528321 4.074862-.515964-1.941866-3.688754c.313451-.831703 1.253803-5.221244 1.253803-5.221244l-.489289-3.688755-7.362275-7.824164c1.230869 1.617199 5.137538 7.131079 5.137538 7.131079l.206419 2.302584c-.596322-.947217-6.81947-8.571157-8.340854-9.81871-.03058-.030804-2.003028-.539067-2.247672-.608375l-5.359247-7.500725c-.879192-1.224451-2.025963-2.402696-2.683446-3.750362-.022935-.046206-.359322-3.126585-.405193-3.496231l-2.423511-2.618323-1.05503 1.948341zm7.706306 4.558961c1.284385 1.232152 5.902053 6.584312 5.902053 6.584312 3.363863 2.225574 2.171221 1.994546 6.123761 2.418098l-1.047385-1.709611c-1.628416-.708487-4.824087-1.809723-6.146697-2.695332-1.3379-.89331-3.547347-3.365315-4.831732-4.597467zm-13.21081 8.848391-2.240028 3.865876 1.207933 1.101236 1.903641-3.388417zm27.805393.177122-.175839 2.441201 2.996897.754693-.01529-.361945zm4.380668 2.67993.412838.716188 2.821058-.207925.229354-.277234zm0 0" fill="#fff" stroke="#fff" stroke-width=".3" transform="matrix(.510945 0 0 .507243 -1.041883 -.673669)"/><path d="m48.300781 21.371094-.011719 1.878906 1.082032-.652344zm0 0" fill="#041e42"/><path d="m49.308594 14.910156 2.601562 2.855469-3.367187-.417969 5.121093 3.117188.644532-3.203125zm-5.984375 2.136719 5.121093 1.03125c-.078124-.050781-4.5625-.917969-5.121093-1.03125zm5.121093 1.03125 6.199219 4.898437 4.28125.105469c-.800781-.304687-3.390625-1.433593-4.019531-1.519531-.382812-.050781-.824219.003906-1.214844.003906zm-15.109374 2.246094-2.003907.574219-1.507812 4.460937-1.269531.734375 1.640624-.472656 1.292969-2.730469.421875.523437zm-12.644532 3.855469c-2.902344 3.476562-4.765625 7.832031-5.132812 12.605468l-.125 1.125.867187.21875 3.769531-2.59375 2.664063 2.363282 1.097656-.335938.082031-.039062.015626.011718.035156-.011718 1.234375 1.039062c-.839844-3.449219-1.042969-6.007812 0-9.429688-.046875 0-2.1875-.628906-2.1875-.628906l-.792969-3.039062.097656-.722656zm34.710938 1.648437-.59375 3.710937-.980469-1.222656-.007813.011719-1.046874 1.972656-.003907-.003906 4.171875 4.414063-.609375 1.878906.933594 1.347656 2.210937-.035156h.046876l1.308593 1.25c.007813-.207032.011719-.417969.011719-.625 0-4.691406-1.445312-9.046875-3.917969-12.652344zm-24.734375.425781-1.710938.777344-4.148437-.570312 4.328125 1.414062zm-3.117188 2.09375 1.796875 2.308594-.6875-2.097656zm23.535157 2.949219-.691407.664063-1.378906.058593 3.4375 2.441407.113281 1.832031 1.019532-.8125c-.199219.480469-.875 1.84375-.933594 2.246093-.046875.324219.046875.789063.066406 1.125.488281-.535156 1.820312-2.113281 1.820312-2.113281s.359376-1.027343.523438-1.5zm-2.839844.878906 3.035156 3.953125-.78125 3.265625 1.027344 1.980469 1.128906-1.183594-1.042969-1.039062-.089843-4.09375zm-20.398438 1.375c.097656 5.214844 2.785156 10.28125 3.503906 10.578125l2.921876.046875c-2.5625-1.972656-5.90625-7.445312-6.425782-10.625zm-23.199218 14.589844-.878907 2.992187.917969-.640624.453125-1.542969h5.539063l1.03125-.808594zm10.625 0-2.496094 8.945313c-.285156.972656-.808594 1.519531-2.550782 1.53125-.105468.003906-.203124 0-.292968-.003907-.023438 0-.046875-.003906-.070313-.003906-.042969-.003906-.085937-.007813-.125-.007813-.425781-.042968-.644531-.140624-.753906-.230468-.09375-.078125-.113281-.152344-.117187-.175782.011718.113282.152343 1.230469 1.851562 1.230469 1.742188 0 2.265625-.5625 2.550781-1.53125l2.496094-8.945312h3.71875l1.117187-.808594zm6.390624 0-.878906 2.992187.921875-.65625.449219-1.527343h12.277344l.847656-.808594zm14.699219 0-.878906 2.992187.921875-.648437.449219-1.535156h12.890625l.96875-.808594zm15.417969 0-.878906 2.992187.929687-.691406.441407-1.492187h14.824218l1.234375-.808594zm11.675781 2.15625-1.074219.734375c-.789062 2.316406-2.972656 3.234375-5.320312 3.472656l-.878906.808594c4.035156 0 6.027344-1.316406 7.269531-5.015625zm-9.664062.050781-.972657.785156-2.191406 7.449219-.886718 3.027344.980468-.859375zm-27.582031.101563-.925782.683593-3.148437 10.476563.949219-.726563zm12.082031 0-.96875.683593-2.195313 7.460938h-1.714844l-.886718 3.015625.941406-.726563.433594-1.480468h1.722656zm-31.746094.097656-.949219.585937-1.75 5.953126c-.035156.113281-.066406.226562-.101562.347656 0 .007812-.003906.015625-.007813.027344-.011719.039062-.023437.085937-.035156.128906-.007813.023437-.011719.046875-.019531.070312l-.027344.117188c-.007812.027344-.015625.058594-.023438.085937-.007812.039063-.015624.074219-.023437.109375-.007813.03125-.015625.066406-.023437.097656-.003907.035157-.011719.070313-.019532.101563-.003906.035156-.011718.070313-.015625.105469-.007812.035156-.011719.066406-.015625.097656-.003906.039062-.007812.074219-.011718.113281-.003907.03125-.007813.0625-.011719.089844-.003907.042969-.003907.078125-.007813.117187 0 .03125-.003906.058594-.003906.085938v.128906c0 .023438 0 .050782.003906.074219 0 .046875.007813.097656.011719.148437 0 .015626.003906.035157.003906.050782.019531.136718.046875.269531.09375.398437 0 .003907.003907.007813.003907.015625.019531.058594.042968.117188.070312.175782.007812.011718.015625.027343.023438.042968.023437.046875.046874.09375.078124.140625.007813.015625.023438.035157.035157.054688.027343.042969.054687.082031.085937.125l.046875.058593c.035157.039063.070313.074219.105469.113282.007812.007812.015625.019531.023438.027344v-.003907c-.238282-.785156.027343-1.664062.253906-2.4375l2.207031-7.351562zm35.339844 3.136719-1.03125.804687h3.785156l1-.808593h-3.753906zm-1.445313 4.90625-.894531.808594h7.484375l.886719-.808594zm11.972656 5.210937c-2.75 0-4.433593.1875-4.890624 1.847657-.511719 1.871093 4.046874 1.414062 3.839843 2.167968-.117187.417969-.273437.539063-1.261719.539063l-.902343-.011719.082031-.296875h-2.519531l-.457031 1.5625s1.796874.015625 2.71875.015625c2.503906 0 4.539062-.015625 5.066406-1.929688.542968-1.984374-4.117188-1.335937-3.882813-2.199218.109375-.402344.683594-.457032 1.464844-.457032l.5.011719-.070313.257813h2.3125l.421876-1.507813zm-50.429687.011719-1.59375 5.796875h2.453125l.949219-3.449219.558593 3.449219h1.625l2.488282-3.449219-.589844 2.15625h-.417969l-.355469 1.292969h2.886719l1.589844-5.796875h-3.460937l-2.257813 3.167969-.574219-3.167969zm11.554687 0-.351562 1.28125h.699219l-.886719 3.222656h-.699219l-.351562 1.292969h3.425781l1.589844-5.796875zm5.894532 0-1.589844 5.796875h2.46875l.832031-3.03125 2.085938 3.03125h2.609375l1.589844-5.796875h-3.148438l-.347656 1.265625h.699218l-.492187 1.792969-2.03125-3.058594zm9.816406 0-.351562 1.28125h.648437l-.882813 3.222656h-.648437l-.355469 1.292969h7.703125l.355469-1.292969h-4.308594l.28125-1.039062h3.722656l.367188-1.335938h-3.722656l.234375-.847656h4.105469l.347656-1.28125zm9.160156 0-.351562 1.28125h.667968l-1.242187 4.515625h2.746094l.5625-2.046875h.714843c.832032 0 .78125.359375.878907 1.035156.097656.675782.144531 1.011719.144531 1.011719h2.914062c-.292968-1.257813-.652343-2.585937-1.011718-2.640625.96875-.296875 1.296875-.488281 1.5625-1.457031.46875-1.699219-1.339844-1.699219-3.878906-1.699219zm3.0625 1.265625h.578125c1.042969 0 1.320313 0 1.160157.582031-.1875.6875-.554688.6875-1.40625.6875h-.675782zm0 0" fill="#ff8200"/><path d="m45.109375 2.242188-1.21875 1.421874.167969.8125 1.097656.304688c.140625-.140625.542969-.382812.742188-.40625.503906-.058594 1.472656.398438 1.617187.917969l1.589844.511719 1.609375-1.859376-.226563-.464843zm-3.484375.570312c-2.125.011719-4.246094.25-6.347656.578125 2.613281-.167969 5.289062-.167969 7.894531.109375l.582031-.621094c-.707031-.050781-1.417968-.074218-2.128906-.066406zm9.859375 1.566406-.394531.464844c2.457031.8125 4.863281 1.78125 7.203125 2.878906-1.8125-1.125-4.816407-2.550781-6.808594-3.34375zm-5.550781.585938c-.265625-.003906-.417969.089844-.507813.222656l-4.28125 6.578125.714844.285156.023437-.039062 4.476563-6.960938v-.003906c-.007813 0-.015625-.003906-.027344-.007813-.023437-.007812-.136719-.070312-.398437-.074218zm-6.78125 7.519531-2.625 2.285156 2.492187-1.472656zm0 1.269531-2.515625 2.042969 2.414062-1.515625zm-5.171875 1.871094-4.449219 2.546875-2.375 1.992187-4.773438 1.105469-.460937 1.164063 2.363281.886718c.4375.164063.890625.277344 1.308594.492188.644531.332031 1.382812 1.0625 1.976562 1.523438l.996094-.199219-2.886718-2.328125 3.113281-.566406c.359375-.46875 1.308593-1.871094 1.664062-2.160157.367188-.300781 3.28125-1.605469 3.972657-1.941406l-4.332032 1.535156-1.863281 2.1875-5.066406-.449219 4.246093-.621093c.511719-.488281 2.347657-2.136719 2.347657-2.136719s3.601562-1.140625 4.558593-1.546875l-2.078124-.019531zm4.703125 2.246094-1.785156.410156-1.601563 2.425781.835937-.050781.558594.539062zm-3.386719 1.242187-1.53125.277344.644531.296875-.410156 1.375zm4.96875 1.582031-.5625.066407.519531 2.113281 1.003906.953125-.652343-2.074219zm-5.832031 1.816407-.792969.441406.117187 1.019531-.8125.519532.53125 1.136718.003907-.953125.847656-.304687.550781.980468 1.035156.503907-.125-1.441407 5.492188 7.015626-1.453125-.363282 2.71875 3.800782-.195313 1.207031 5.71875 6.847656 2.246094-1.566406-2.082031.261719-5.011719-5.847657.148438-1.0625-2.042969-2.800781.945313.074219-6.835938-8.769531-.050781 1.546874-.214844-.050781-.585937-.941406-.535157.195313-.097656-.871094zm5.117187 1.015625 2.582031 3.496094c.1875.253906 1.117188 1.652343 1.289063 1.742187.539063.285156 1.105469.535156 1.652344.796875l1.046875-.484375c-1.238282-.472656-1.691406-.558594-2.0625-.773437-.359375-.207032-.644532-.535157-1.492188-1.4375 0 0-2.359375-2.714844-3.015625-3.339844zm9.042969.101562-.9375 1.921875 3.050781 1.894531.792969-.535156.386719 1.226563.59375-1.027344-1.800781-.90625.59375-.234375 1.425781.585938.109375-.238282-1.992188-.980468-2.476562.121093-.078125.003907zm5.90625.65625-.785156.023438-.1875.53125.804687-.171875zm-4.894531.0625-.503907.796875.609376-.570312.804687.097656.132813-.210937zm-3.371094.878906-.792969.902344-.003906.003906.609375.84375 2.628906 1.449219-.136719-1.167969zm-13.546875 1.09375 1.09375 2.191407 2.339844.621093 3.257812 5.09375v2.171876l6.8125 8.359374 1.230469-.046874-7.117187-8.648438c-.015626-.214844-.050782-1.933594-.050782-1.933594s-1.082031-1.726562-1.4375-2.257812l-2.320312-3.453125-2.285156-.15625zm-.613281.394532-1.40625 2.371094.972656.917968.011719-.027344 1.148437-1.960937zm14.84375 2.628906-.792969.605469 2.359375.628906-.035156-.851563zm3.980469.378906-1.441407.105469.546875.972656zm-7.484376 2.429688 2.988282 4.203125.035156-1.503907zm-9.554687 4.0625c.761719 4.3125 2.835937 7.792968 3.398437 8.070312l2.535157.089844c-2.140625-1.726562-4.695313-5.273438-5.933594-8.160156zm-13.789063 2.125-3.152343 2.085937 4.554687 2.089844-.613281-1.738281 6.484375 3.648437zm35.652344 1.449218 2.929688 2.988282-3.792969 1.640625h7.980469l-4.226563-4.367188zm0 0" fill="#b1b3b3"/></svg>