<svg height="27pt" viewBox="0 0 75 27" width="75pt" xmlns="http://www.w3.org/2000/svg"><path d="m.5625.445312-.121094.484376 7.027344 3.851562-1.371094 6.160156c-.550781 2.472656-.074218 4.292969 1.109375 5.546875h-5.867187l3.246094 5.011719-3.246094 5.015625h72.996094l-3.25-5.015625 3.246093-5.011719h-2.332031l-2.382812-1.535156-3.523438-14.507813zm0 0" fill="#0c2340"/><path d="m60.242188 6.039062-2.695313 4.152344h3.640625l-.921875-4.152344zm-5.246094-3.5625h9.519531l3.21875 13.1875.96875.621094-.015625.066406h-9.011719l.011719-.066406 2.582031-1.167968-.628906-2.964844h-5.308594l-2.363281 3.527344.9375.605468-.011719.066406h-6.070312l.011719-.066406 2.460937-1.140625 7.382813-11.210937zm-47.542969 0h7.480469l-1.941406 8.730469c-.179688.816407-.414063 1.613281.078124 2.308594.308594.417969 1.074219.648437 1.746094.648437s1.539063-.230468 2.035156-.648437c.796876-.695313.921876-1.492187 1.105469-2.308594l1.664063-7.484375-2.339844-1.183594.011719-.0625h7.488281l-2.027344 9.085938c-.761718 3.429688-3.695312 5.148438-8.546875 5.148438-4.960937 0-6.933593-1.761719-6.140625-5.328126l1.703125-7.660156-2.328125-1.183594zm18.136719 0h14.210937l-.726562 3.269532h-.082031l-.609376-.886719h-3.714843l-2.398438 10.792969.980469.632812-.011719.066406h-9.679687l3.816406-1.253906 2.285156-10.238281h-3.714844l-1.003906.886719h-.082031zm21.734375-.335937c1.5 0 3.058593.210937 4.359375.632813l-.546875 2.464843c-1-.570312-2.21875-.992187-3.558594-.992187-1.046875 0-2.410156.359375-2.628906 1.351562-.226563 1.011719 1.238281 1.410156 2.15625 1.75 1.1875.441406 2.300781.84375 3.207031 1.582032 1.089844.882812 1.578125 1.832031 1.277344 3.183593-.308594 1.367188-1.300782 2.589844-2.90625 3.414063-1.78125.90625-3.542969 1.097656-5.441406 1.097656-1.769532 0-3.484376-.253906-5.03125-.761719l-.207032-3.035156c1.285156.96875 3.332032 1.644531 5.261719 1.644531 1.203125 0 2.90625-.316406 3.171875-1.496094.335938-1.507812-2.367188-1.949218-4.457031-3.007812l-5.59375-.597656 3.90625-.652344c-.515625-.632812-.761719-1.433594-.523438-2.511719.269531-1.199219 1.277344-2.359375 2.664063-3.054687 1.535156-.761719 3.253906-1.011719 4.890625-1.011719zm0 0" fill="#fff"/><path d="m5.054688 18.507812 1.933593 2.996094-1.933593 2.988282h65.566406l-1.9375-2.988282 1.9375-2.996094zm0 0" fill="#f15a22"/><path d="m48.136719 2.972656c-1.613281.027344-2.546875.730469-2.769531 1.023438.628906-.390625 1.453124-.609375 2.402343-.609375.957031 0 1.933594.203125 2.875.589843l.113281-.519531c-1.007812-.367187-1.882812-.496093-2.621093-.484375zm-21.96875.332032-.15625.691406h4.601562l-2.554687 11.492187h3.476562l.152344-.691406h-2.859375l2.558594-11.492187zm8.691406 0-.152344.691406h3.984375l.152344-.691406zm-24.234375.03125-1.792969 8.046874c-.425781 1.917969-.3125 4.464844 5.5625 4.464844 3.726563 0 5.585938-1.015625 6.542969-2.097656-1.089844.789062-2.867188 1.429688-5.777344 1.429688-5.523437 0-6.253906-1.363282-5.589844-4.347657l1.671876-7.496093zm49.363281 0-8.0625 12.152343h.726563l8.015625-12.152343zm-39.523437.003906-1.816406 8.207031c-.148438.65625-.351563 1.417969-.960938 2.140625.109375-.070312.214844-.148438.316406-.234375.972656-.847656 1.234375-1.800781 1.414063-2.597656l1.667969-7.515625zm21.414062 1.03125c-.703125.519531-1.195312 1.179687-1.34375 1.835937-.429687 1.941407 1.238282 2.761719 3.648438 3.710938 1.75.6875 3.402344 1.339843 3.019531 3.058593-.070313.320313-.203125.609376-.382813.871094.519532-.378906.855469-.789062.984376-1.375.382812-1.722656-1.273438-2.371094-3.019532-3.058594-2.410156-.949218-4.078125-1.769531-3.648437-3.710937.109375-.480469.386719-.929687.742187-1.332031zm18.835938.117187-.449219.691407h.667969l2.273437 10.308593h3.613281l-.164062-.691406h-2.914062l-2.269532-10.308594zm-10.671875 9.109375c-3.5 1.828125-6.71875 2.183594-11.140625.777344l.0625.761719c1.382812.410156 2.878906.625 4.464844.625 1.613281 0 3.339843-.121094 5.070312-1 .503906-.257813 1.082031-.636719 1.542969-1.164063zm-32.222657 5.964844c-1.121093 0-2.371093.800781-2.6875 1.9375-.335937 1.21875.328126 2.074219 1.578126 2.074219s2.390624-.855469 2.726562-2.074219c.316406-1.136719-.496094-1.9375-1.617188-1.9375zm46.683594.027344c-.78125 0-1.480468.496094-1.695312 1.261718-.195313.726563.179687.886719.765625 1.0625.199219.058594.570312.15625.492187.429688-.074218.265625-.355468.378906-.59375.378906-.34375 0-.597656-.175781-.789062-.390625l-.65625.789063c.324218.269531.761718.429687 1.25.429687.394531 0 .832031-.105469 1.207031-.355469.378906-.253906.578125-.636718.683594-1.011718.167969-.609375-.183594-.871094-.679688-1.027344l-.238281-.074219c-.160156-.054687-.410156-.140625-.351562-.359375.058593-.210937.335937-.316406.523437-.316406.246094 0 .457031.101562.601563.25l.613281-.757812c-.292969-.191407-.738281-.308594-1.132813-.308594zm-27.421875.097656-.582031 2.117188c-.136719.484374-.246094.960937.039062 1.328124.238282.308594.71875.417969 1.175782.417969.453125 0 .996094-.109375 1.40625-.417969.488281-.367187.640625-.84375.773437-1.328124l.585938-2.117188h-1.011719l-.546875 1.980469c-.136719.492187-.320313 1.023437-.96875 1.023437-.652344 0-.539063-.53125-.40625-1.023437l.546875-1.980469zm5.355469 0-1.039062 3.765625h1.011718l.636719-2.308594h.011719l1.214844 2.308594h1.011718l1.039063-3.765625h-1.011719l-.632812 2.300781h-.015626l-1.214843-2.300781zm5.867188 0-1.039063 3.765625h1.007813l.640624-2.308594h.007813l1.21875 2.308594h1.007813l1.042968-3.765625h-1.011718l-.636719 2.300781h-.007813l-1.21875-2.300781zm-37.300782 0-1.039062 3.765625h1.011718l.398438-1.449219h.007812l.558594 1.449219h1.257813l-.796875-1.542969c.578125-.097656 1.003906-.546875 1.148437-1.0625.21875-.804687-.265625-1.160156-1.035156-1.160156zm11.871094 0-2.539062 3.765625h1.074218l.449219-.65625h1.394531l.070313.65625h1.078125l-.425782-3.765625zm4.199219 0-1.039063 3.765625h1.4375c1.078125 0 2.203125-.824219 2.496094-1.882813.292969-1.058593-.375-1.882812-1.457031-1.882812zm5.203125 0-1.042969 3.765625h1.011719l.402344-1.449219h.007812l.558594 1.449219h1.257812l-.796875-1.542969c.578125-.097656 1.003907-.546875 1.144531-1.0625.222657-.804687-.261718-1.160156-1.03125-1.160156zm21.890625 0-1.035157 3.765625h2.214844l.226563-.828125h-1.203125l.179687-.652344h1.140625l.226563-.828125h-1.136719l.171875-.628906h1.203125l.226562-.828125zm4.160156 0-1.042969 3.765625h1.011719l.402344-1.449219h.007812l.554688 1.449219h1.261719l-.796876-1.542969c.578126-.097656 1-.546875 1.148438-1.0625.21875-.804687-.265625-1.160156-1.035156-1.160156zm-46.519531.75h.097656c.328125 0 .683594.058594.570312.46875-.109374.410156-.5.46875-.832031.46875h-.097656zm21.273437 0h.097657c.328124 0 .683593.058594.574218.46875-.117187.410156-.503906.46875-.835937.46875h-.09375zm26.046875 0h.097656c.332032 0 .6875.058594.574219.46875-.109375.410156-.503906.46875-.828125.46875h-.101562zm-41.570312.074219c.605468 0 .96875.472656.824218.992187-.179687.648438-.804687 1.125-1.410156 1.125-.601562 0-.96875-.476562-.789062-1.125.144531-.519531.773437-.992187 1.375-.992187zm10.300781.003906h.238281c.648438 0 1.003906.378906.816406 1.054687-.203124.734376-.808593 1.054688-1.410156 1.054688h-.226562zm-4.765625.335937h.011719l.082031 1.199219h-.84375zm0 0" fill="#0c2340"/></svg>