<svg height="68pt" viewBox="0 0 69 68" width="69pt" xmlns="http://www.w3.org/2000/svg"><path d="m34.511719.5625-8.6875 24.246094-20.796875-.007813h-4.414063l19.914063 15.300781-10.246094 27.34375 24.136719-14.6875 20.152343 12.234376 4.042969 2.453124-10.246093-27.34375 19.917968-15.300781h-4.414062l-20.800782.007813-7.054687-20.027344zm0 0" fill="#a8996e"/><path d="m34.511719 5.25-7.5625 21.101562-21.921875-.007812 17.316406 13.308594-8.910156 23.769531 20.988281-12.765625 21.039063 12.765625-8.910157-23.769531 17.316407-13.308594-21.921876.007812zm0 0"/><path d="m25.574219 27.824219v3.132812h1.570312l4.925781 18.339844h4.304688l5.28125-18.339844h1.515625v-3.132812h-6.527344v3.132812h1.707031l-3.871093 14.292969-3.574219-14.292969h1.734375v-3.132812zm0 0" fill="#fff"/></svg>