<svg height="33pt" viewBox="0 0 69 33" width="69pt" xmlns="http://www.w3.org/2000/svg"><path d="m23.046875.347656-5.535156 9.925782-5.3125-9.925782h-11.875l17.238281 32.390625 11.84375-22.007812h10.316406l-11.621094 21.695312h11.972657l11.53125-21.785156h11.617187l5.496094-10.292969zm0 0" fill="#cf4520"/><path d="m11.738281 1.117188 5.757813 10.761718 6-10.761718h43.933594l-4.667969 8.75h-11.621094l-11.53125 21.785156h-10.222656l11.617187-21.695313h-12.058594l-11.382812 21.148438-15.957031-29.988281zm0 0" fill="#fff"/><path d="m2.890625 1.890625h8.390625l6.199219 11.59375 6.46875-11.59375h42.199219l-3.84375 7.203125h-11.621094l-11.535156 21.785156h-8.472657l11.617188-21.695312h-13.800781l-10.921876 20.289062zm0 0" fill="#6a2c3e"/></svg>