<svg height="48pt" viewBox="0 0 69 48" width="69pt" xmlns="http://www.w3.org/2000/svg"><path d="m15.382812.378906c-.695312 0-.816406.101563-.265624.53125l.914062.722656c.546875.429688 1.445312 1.394532 1.992188 1.828126 0 0 .695312.554687 1.730468 2.28125.914063 1.519531 14.523438 27.871093 14.730469 27.871093s13.816406-26.351562 14.730469-27.871093c1.039062-1.726563 1.734375-2.28125 1.734375-2.28125.546875-.433594 1.445312-1.398438 1.992187-1.828126l.914063-.722656c.546875-.429687.425781-.53125-.269531-.53125h-14.769532c-.695312 0-.6875.226563-.136718.65625 0 0 .691406.476563 1.199218.820313.503906.339843 1.632813 1.257812 1.71875 1.769531.085938.511719-.101562 1.15625-.445312 1.859375-.816406 1.644531-6.472656 12.113281-6.667969 12.148437-.191406-.035156-5.851563-10.503906-6.664063-12.148437-.347656-.703125-.53125-1.347656-.445312-1.859375.082031-.511719 1.214844-1.429688 1.71875-1.769531.503906-.34375 1.195312-.820313 1.195312-.820313.550782-.429687.558594-.65625-.136718-.65625zm-15.125 19.773438s.003907.003906.003907.003906 0 0 0-.003906zm.003907.003906c.191406.691406.695312 1.242188 1.085937 1.828125 1.351563 1.78125 3.648438 3.75 5.382813 5.171875 1.804687 1.511719 8.90625 5.648438 12.320312 7.238281 3.4375 1.664063 10.894531 3.941407 10.957031 3.980469-.089843.113281-4.703124 1.039062-6.851562 1.355469-.667969.117187-1.378906.152343-2.019531.191406-.167969-.421875-.433594-1.007813-.9375-1.007813-.503907 0-.65625.996094-.632813 1.292969l-.097656.078125c-2.894531.394532-5.890625.664063-8.847656.832032-.566406-.460938-.851563-.625-1.640625-.527344-.804688.101562-1.082031.691406-1.039063 1.203125.0625.707031.644532 1.652343 1.214844 1.652343.757812 0 1.175781-.488281 1.363281-.0625.417969 1.226563 1.296875 2.449219 2.464844 3.25 1.890625 1.296876 3.777344 1.320313 5.675781.488282 1.894532-.832032 2.460938-2.753906 2.589844-3.714844.050781-.378906.074219-1.359375.074219-1.359375 2.691406-.34375 13.164062-2.585937 13.164062-2.585937s10.464844 2.242187 13.15625 2.585937c0 0 .027344.980469.078125 1.359375.125.960938.695313 2.882812 2.589844 3.714844 1.894531.832031 3.785156.808594 5.671875-.488282 1.171875-.800781 2.050781-2.019531 2.464844-3.25.191406-.425781.609375.0625 1.367187.0625.566406 0 1.148438-.945312 1.214844-1.652343.042969-.511719-.234375-1.101563-1.039062-1.203125-.789063-.097656-1.074219.066406-1.644532.527344-2.957031-.167969-5.953125-.4375-8.84375-.832032l-.101562-.078125c.027344-.296875-.125-1.292969-.632813-1.292969-.503906 0-.769531.585938-.933593 1.007813-.644532-.039063-1.351563-.074219-2.023438-.191406-2.144531-.316407-6.757812-1.242188-6.847656-1.355469.0625-.039062 7.519531-2.316406 10.957031-3.980469 3.410156-1.589843 10.511719-5.726562 12.320313-7.238281 1.730468-1.421875 4.03125-3.390625 5.378906-5.171875.394531-.589844.898437-1.140625 1.089844-1.832031 0 0-5.988282 4.855468-9.082032 6.925781-3.589844 2.28125-7.195312 4.34375-11.046875 5.996094-.304687.140625-3.90625 1.484375-5.410156 1.996093-3.625 1.269532-5.765625 1.589844-8.683594 2.304688-2.921875-.714844-5.066406-1.035156-8.691406-2.304688-1.503906-.511718-5.105469-1.855468-5.410156-1.996093-3.855469-1.652344-7.457031-3.714844-11.046875-5.992188-3.089844-2.074219-9.0625-6.910156-9.078125-6.925781zm18.585937 22.136719c-.125 1-1.023437 1.84375-1.84375 2.226562-.820312.386719-2.742187.832031-4.007812.066407-.824219-.503907-.910156-1.0625-1.097656-1.601563zm31.277344 0 6.953125.691406c-.191406.539063-.273437 1.097656-1.101563 1.601563-1.265624.765624-3.183593.320312-4.007812-.066407-.820312-.382812-1.71875-1.226562-1.84375-2.226562zm0 0" fill="#f84c1e"/><path d="m41.644531 1.664062s2.191407 1.707032 1.097657 3.925782c-1.097657 2.222656-8.257813 15.367187-8.257813 15.367187s-7.164063-13.144531-8.257813-15.367187c-1.097656-2.21875 1.09375-3.925782 1.09375-3.925782h-9.015624s1.855468 1.453126 3.035156 3.414063c1.179687 1.964844 13.144531 25.867187 13.144531 25.867187s11.964844-23.902343 13.144531-25.867187c1.179688-1.960937 3.03125-3.414063 3.03125-3.414063zm0 0" fill="#fff"/></svg>