<svg height="52pt" viewBox="0 0 75 52" width="75pt" xmlns="http://www.w3.org/2000/svg"><path d="m59.882812 21.332031-.464843 2.386719c-.558594 2.867188-2.652344 4.339844-4.160157 4.605469-.003906-1.78125-.027343-8.75-.027343-8.75 0-1.285157.3125-1.285157.878906-1.285157h2.878906c.933594 0 2.832031.589844 5.128907 2.242188.378906.269531.707031.535156 1.015624.800781zm-23.175781-12.601562c.003907-.023438-1.550781 5.566406-2.644531 9.488281-1.121094-4.066406-2.875-10.457031-2.875-10.457031s-.015625-.039063-.019531-.058594c0-.003906-.023438-.28125-.023438-.28125l-.007812-.101563c0-.011718 0-.023437 0-.03125 0-.21875.132812-.390624.265625-.421874.136718-.019532.761718-.050782 1.246094-.058594 0 0 .089843-.003906.109374-.003906.289063.027343 2.105469.1875 2.105469.1875.589844.0625 1.910157.617187 2.050781.96875-.011718.035156-.207031.769531-.207031.769531m-17.796875 10.375c-.265625-.859375-.578125-1.855469-.578125-1.855469-1.449219-4.652344-2.941406-9.441406-3.125-10.105469.226563-.054687.582031-.105469 1.246094-.125.558594-.019531 2.3125.398438 2.632813 1.273438.035156.144531 1.285156 5.171875 1.417968 5.699219-.070312.238281-.894531 2.875-1.59375 5.113281m25.242188-8.054688.757812-2.476562c.335938-1.070313.519532-1.191407.75-1.34375l.167969-.109375c.183594-.132813.910156-.453125 1.46875-.671875l.679687-.265625.046876-5.84375h-47.644532v6.742187h2.414063c.121093.183594.320312.546875.609375 1.308594 0 0 .015625.039063.027344.066406.027343.097657 9.6875 33.390625 9.6875 33.390625h5.855468s3.445313-11.25 4.847656-15.824218c1.332032 4.578124 4.597657 15.792968 4.597657 15.792968l.808593-.003906h5.125s6.734376-21.164062 7.371094-23.171875c.128906.238281.21875.640625.21875 1.339844v25.351562c-1.304687 0-5.28125.003907-5.28125.003907l-.054687 6.847656h24.386719v-6.851563h-5.691407c-.003906-.863281-.023437-8.5-.027343-10.28125 1.398437.398438 3.867187 2.265625 4.101562 4.925781l.242188 2.683594h6.019531v-20.859375c2.089843 2.039063 2.328125 3.917969 2.441406 4.910157 0 0 .316406 2.765624.316406 2.765624l5.863281-.007812v-18.417969zm0 0" fill="#fff"/><path d="m18.90625 22.738281c-1.917969-6.171875-4.539062-14.535156-4.757812-15.351562-.214844-.808594.21875-1.046875.21875-1.082031.332031-.171876.75-.332032 2.054687-.367188.695313-.019531 3.136719.421875 3.6875 2.015625.03125.136719 1.296875 5.222656 1.515625 6.074219-.179688.566406-1.4375 4.597656-2.71875 8.710937m23.78125-10.601562 1.1875-3.875c.511719-1.621094.898438-1.726563 1.328125-2.027344.421875-.296875 1.695313-.792969 1.695313-.792969l.035156-4.007812h-13.5v4.347656s.949218.074219 1.542968.136719c.589844.0625 3.324219.828125 2.984376 2.285156-.054688.230469-.121094.425781-.210938.792969-.03125.109375-2.613281 9.066406-3.824219 13.410156-1.234375-4.484375-3.785156-14.347656-3.785156-14.347656l-.007813-.035156c-.054687-.167969-.0625-.398438-.078124-.621094-.054688-.757813.441406-1.441406 1.109374-1.585938.285157-.0625 1.460938-.089844 1.460938-.089844v-4.292968h-31.167969v4.5625h1.730469c.199219 0 .621094.4375 1.21875 2.007812 0 0 .023438.054688.042969.109375.046875.15625 9.476562 32.652344 9.476562 32.652344h4.242188s3.664062-11.902344 5.671875-18.511719c1.914062 6.613282 5.382812 18.480469 5.382812 18.480469h4.339844l7.476562-23.523437h.023438c.53125 0 1.953125 0 1.953125 2.773437v25.683594c0 .367187-.039063.605469-.078125.753906-.753906 0-5.214844 0-5.214844 0l-.03125 4.679687h22.21875v-4.679687h-5.269531c-.257813 0-.351563-.039063-.371094-.054687-.023437-.039063-.050781-.144532-.050781-.265626 0-.003906-.023438-8.398437-.03125-12.21875h.585938c1.804687 0 5.359374 2.476563 5.671874 5.996094l.152344 1.699219h3.957032v-19.160156h-3.789063l-.289063 1.507812c-.746093 3.820313-3.78125 5.539063-5.703124 5.539063h-.597657c-.011719-2.632813-.027343-9.886719-.027343-9.886719 0-1.660156.585937-2.367187 1.957031-2.367187h2.878906c1.144531 0 3.257813.640624 5.761719 2.445312 3.933594 2.765625 4.265625 5.6875 4.402344 6.933594l.203124 1.804687 3.824219-.007812v-16.25zm0 0"/><path d="m3.019531 2.871094v1.636718h.175781c1.6875 0 2.460938 2.023438 2.789063 2.890626l.074219.179687c-.007813-.011719 9.097656 31.5 9.097656 31.5l.039062.121094h1.730469s6.640625-21.8125 6.960938-22.875c.308593 1.066406 6.609375 22.839843 6.609375 22.839843h1.839844l9.9375-31.414062c.914062-2.890625 2.355468-3.203125 2.929687-3.203125h.171875v-1.675781h-10.253906v1.589844l.144531.027343c1.078125.199219 2.554687.742188 3.414063 1.515625.867187.699219 1.101562 1.570313.789062 2.933594.003906-.007812-4.777344 16.109375-5.757812 19.402344-.292969-1.125-5.179688-19.792969-5.179688-19.792969-.097656-.316406-.152344-.730469-.152344-1.160156 0-.800781.195313-1.664063.679688-2.078125.453125-.296875.992187-.613282 1.875-.8125l.136718-.035156v-1.589844h-12.914062v1.734375l.144531.023437c1.816407.28125 2.941407 1.214844 3.429688 2.847656 0-.007812 1.523437 6.117188 1.644531 6.601563-.023438.089844-4.15625 13.351563-4.464844 14.332031-.3125-1.003906-6.597656-21.203125-6.597656-21.203125-.046875-.199219-.074219-.390625-.074219-.5625 0-.609375.269531-1.085937.597657-1.328125.429687-.324218 1.15625-.582031 1.984374-.71875l.144532-.023437v-1.703125zm38.953125 10.832031-.574218 1.824219.207031.023437c2.800781.320313 3.101562 3.203125 3.101562 4.433594v25.683594c0 1.117187-.269531 2.445312-1.554687 2.445312h-3.769532l-.003906.171875v1.25h18.847656v-1.421875h-3.582031c-1.902343 0-2.105469-1.402343-2.105469-2.011719 0 0-.035156-12.316406-.039062-13.910156h2.277344c2.6875 0 6.957031 3.164063 7.355468 7.539063l.011719.15625h.726563v-15.777344h-.710938l-.027344.140625c-.871093 4.488281-4.4375 6.910156-7.355468 6.910156h-2.277344c-.003906-.335937-.03125-11.574218-.03125-11.574218 0-3.667969 2.546875-4.070313 3.640625-4.070313h2.878906c.875 0 3.285157.273437 6.742188 2.765625 4.542969 3.191406 4.945312 6.773438 5.097656 8.121094l.035156.296875h.757813v-12.996094zm0 0" fill="#9e7e38"/></svg>