<svg height="48pt" viewBox="0 0 69 48" width="69pt" xmlns="http://www.w3.org/2000/svg"><path d="m47.777344.402344v11.28125h4.992187c-.65625 2.453125-2.320312 8.671875-3.871093 14.472656-1.988282-8.042969-6.371094-25.753906-6.371094-25.753906h-10.59375s-4.738282 17.710937-6.886719 25.742187c-1.433594-5.820312-2.964844-12.046875-3.5625-14.460937h5.265625v-11.28125h-26.410156v11.28125h5.472656c.597656 2.398437 8.90625 35.769531 8.90625 35.769531h14.984375s2.828125-10.789063 4.546875-17.351563c1.636719 6.566407 4.324219 17.351563 4.324219 17.351563h14.984375s8.75-33.40625 9.371094-35.769531h5.445312v-11.28125zm0 0" fill="#e8d4a3"/><path d="m49.46875 2.105469v7.871093h5.507812l-6.152343 22.988282s-7.527344-30.429688-7.632813-30.859375h-7.960937c-.113281.417969-8.257813 30.859375-8.257813 30.859375l-5.664062-22.988282h5.734375v-7.871093h-23.011719v7.871093h5.097656s8.800782 35.339844 8.90625 35.769532h12.355469c.105469-.417969 5.894531-22.507813 5.894531-22.507813s5.5 22.082031 5.605469 22.507813h12.351563c.109374-.421875 9.371093-35.769532 9.371093-35.769532h5.054688v-7.871093zm0 0" fill="#363c74"/></svg>