<svg height="67pt" viewBox="0 0 70 67" width="70pt" xmlns="http://www.w3.org/2000/svg"><path d="m43.007812.617188-.027343.082031s-3.292969 9.449219-3.335938 9.574219c-13.195312 2.945312-18.542969 9.082031-20.554687 11.390624l-.117188.136719c-2.988281 3.421875-4.96875 7.804688-6.105468 10.878907-5.011719 13.574218-6.140626 14.832031-11.5625 20.882812l-.710938.789062.347656-.0625c.074219-.015624 7.558594-1.398437 10.855469-2.285156-.335937 2.5625-1.070313 6.304688-3.429687 9.941406l-1.78125 2.742188.289062-.0625c3.378906-.746094 7.679688-.6875 7.722656-.6875 6.71875.171875 13.164063 1.15625 17.425782 1.804688 12.742187 1.703124 18.847656.6875 18.90625.675781l.085937-.011719.011719-.085938c.109375-.675781.167968-1.4375.167968-2.253906 0-2.632812-.636718-5.8125-2.488281-8.285156-.066406-1.542969-.230469-3.039062-.765625-5.582031.851563 1.917969 1.796875 2.964843 3.253906 4.183593 1.570313 1.316407 3.539063 1.855469 5.695313 1.554688 2.648437-.371094 5.148437-2.0625 6.070313-4.125 3.195312-7.113281-.460938-16.8125-3.316407-20.011719l-.285156-.320312.074219.421875c.292968 1.613281.398437 8.777344-1.296875 10.929687-.671875.855469-1.621094 1.339844-2.734375 1.398438-5.484375.289062-9.046875-9.328125-9.652344-12.671875-.253906-1.382813-.269531-5.433594 2.648438-7.53125 1.976562-1.421875 3.867187-1.542969 6.523437-.417969 1.066406.921875 3.417969 5.589844 3.90625 7.011719 1.6875-2.917969 1.671875-6.515625 1.019531-9.699219.195313-.65625.320313-1.339844.390625-2.035156.195313-.007813 9.035157-.335938 9.035157-.335938l-.054688-3.347656s-2.476562-.097656-3.804688-.148437c1.269532-.21875 3.515626-.609376 3.515626-.609376l-.433594-3.109374s-2.820313.308593-4.019532.441406c1.074219-.417969 3.378907-1.308594 3.378907-1.308594l-1.085938-3.015625-.105469.03125c-.078124.023437-7.355468 2.148437-8.890624 2.621094-.464844-.617188-1.144532-1.425781-1.832032-1.710938l-.027344-.011719-.035156.003907c-.050781.003906-5.535156.449219-7.820312.703125.066406-.3125 1.738281-8.445313 1.738281-8.445313l-3.238281-.011719-1.046875 3.257813.714843-3.257813-3.214843-.011718zm0 0" fill="#fff"/><path d="m43.964844 1.945312-3.160156 9.75c-.035157.007813-.070313.015626-.105469.023438-1.921875.636719-3.671875 1.960938-4.945313 3.773438-1.625 2.3125-3.269531 6.523437-1.894531 13.460937.230469 1.160156.621094 2.828125 1.027344 4.59375.820312 3.523437 1.746093 7.515625 2.066406 10.097656.734375 5.871094.0625 9.660157-2.113281 11.933594-1.769532 1.839844-4.488282 2.570313-8.324219 2.238281l-.957031-.082031.082031-.960937c.0625-.699219.089844-1.386719.089844-2.042969 0-1.3125-.105469-2.503907-.230469-3.480469-2.136719 3.523438-5.972656 8.496094-10.871094 11.367188 8.328125.207031 16.398438 1.675781 20 2.171874.351563.050782.707032.082032 1.066406.101563.089844.007813.183594.011719.273438.019531.03125 0 .058594 0 .085938.003906.847656.015626 1.644531-.023437 2.394531-.113281.023437-.007812.046875-.007812.074219-.011719.101562-.011718.199218-.03125.300781-.046874 4.636719-.792969 8.65625-4.246094 7.574219-12.226563-1.285157-9.480469-2.929688-15.519531-3.347657-20.078125-.507812-5.542969 4.269531-14.136719 12.789063-10.335938 0 0 1.1875 1.007813 2.738281 4.632813 0 0 .597656-2.066406-.273437-5.867187.359374-1.046876.507812-2.15625.5-3.253907l9.273437-.394531.007813-1.019531-9.417969-.300781c-.023438-.171876-.058594-.339844-.085938-.507813l9.050781-1.816406-.152343-1.007813-9.324219 1.164063c-.066406-.183594-.125-.367188-.195312-.542969l8.527343-3.324219-.328125-.96875-8.929687 2.765625c-.519531-.898437-1.109375-1.53125-1.667969-1.757812-3.398438.25-6.472656.53125-9.292969.902344l1.785157-8.375h-.988282l-2.730468 8.644531c-.511719.078125-1.011719.160156-1.503907.246093l2.128907-9.375zm-8.84375 11.261719c-5.425782 1.832031-9.972656 4.679688-14.667969 9.386719l3.304687 3.847656 1.347657-1.265625c1.273437 4.773438.359375 9.171875.359375 9.171875-1.738282-2.660156-3.792969-4.8125-3.792969-4.8125l.90625-1.515625-2.976563-3.46875-.347656-.386719c-3.65625 5.046876-4.84375 9.175782-4.84375 9.175782l2.597656 2.378906 1.515626 1.375.503906-1.460938c2.789062 5.246094.242187 10.148438.242187 10.148438-.460937-1.792969-2.300781-4.433594-2.300781-4.433594l.730469-2.402344-3.863281-3.507812c-4.015626 12.597656-9.386719 16.683594-9.386719 16.683594s5.808593-1.054688 9.042969-2.144532c0 0-.089844 6.636719-4.019532 12.691407h.015625c7.839844-1.789063 13.839844-10.980469 15.605469-14.667969l1.117188-2.332031.675781 2.5c.035156.136719.765625 2.890625.765625 6.53125 0 .40625-.011719.820312-.03125 1.238281 2.703125.101562 4.632812-.445312 5.832031-1.699219 1.71875-1.792969 2.242187-5.179687 1.597656-10.355469-.3125-2.476562-1.226562-6.421874-2.035156-9.898437-.410156-1.78125-.800781-3.460937-1.035156-4.652344-1.515625-7.609375.363281-12.328125 2.203125-14.949219.289062-.414062.605468-.804687.933594-1.175781zm25.414062 21.464844s1.964844 10.734375-4.980468 11.101563c-6.707032.351562-9.871094-9.773438-9.871094-9.773438s1.621094 19.789062 11.015625 18.488281c10.597656-1.46875 3.835937-19.816406 3.835937-19.816406zm-12.300781 23.832031c-1.757813 5.34375-4.980469 6.722656-4.980469 6.722656s4.703125.207032 6.128906-.113281c0 0 .40625-3.351562-1.148437-6.609375zm0 0" fill="#981e32"/><path d="m45.71875 18.027344c-2.039062.035156-4.136719.472656-5.171875 1.183594-2.949219 2.019531-2.453125 5.617187-2.378906 5.707031.585937-1.035157 1.585937-2.488281 3.039062-3.511719 1.871094-1.320312 5.050781-2.332031 8.035157-2.101562.757812.058593 1.398437-.140626.585937-.574219-.980469-.515625-2.527344-.730469-4.109375-.703125zm0 0" fill="#fff"/></svg>