<svg height="61pt" viewBox="0 0 75 61" width="75pt" xmlns="http://www.w3.org/2000/svg"><path d="m74.089844.386719h-73.757813v20.453125h4.753907l8.199218 40.015625h22.992188l.933594-3.570313.941406 3.570313h22.992187l8.195313-40.015625h4.753906v-20.453125zm0 0" fill="#a9a8a9"/><path d="m47.285156 9.242188-2.121094-7.128907h-15.914062l-2.121094 7.144531v-7.144531h-25.09375v17h4.4375l8.195313 40.007813h20.289062l2.25-8.5625 2.253907 8.5625h20.289062l8.199219-40.007813h4.4375v-17h-25.101563zm0 0" fill="#231f20"/><path d="m50.445312 5.308594v10.609375h3.425782l-3.132813 15.957031-7.839843-26.328125-.074219-.238281h-11.226563l-7.882812 26.558594-3.082032-15.949219h3.351563v-10.609375h-18.789063v10.609375h3.84375l8.199219 40.011719h15.300781l4.671876-17.785157 4.675781 17.785157h15.300781l8.199219-40.011719h3.847656v-10.609375zm0 0" fill="#6c4023"/><path d="m3.8125 3.90625v13.40625l1.382812-1.394531v-10.609375h18.78125v10.609375l1.382813 1.394531v-13.40625zm45.25 0v13.40625l1.382812-1.394531v-10.609375h18.789063v10.609375l1.378906 1.394531v-13.40625zm-18.492188 0-6.570312 22.144531-1.6875-8.734375-1.675781-1.398437 3.078125 15.949219 7.882812-26.558594h11.226563l.074219.238281 7.839843 26.324219 3.132813-15.953125-1.683594 1.398437-1.726562 8.785156-6.605469-22.195312zm-21.527343 12.011719-1.125 1.398437.019531.089844 8.175781 39.925781 1.125-1.398437-8.195312-40.011719zm56.34375 0-8.195313 40.007812 1.125 1.40625 8.191406-40.015625-1.121093-1.394531zm-28.175781 22.222656v.003906zm0 .003906-4.671876 17.785157 1.0625 1.394531 3.609376-13.746094 3.613281 13.746094 1.066406-1.394531zm0 0" fill="#b5a268"/></svg>