<svg height="72pt" viewBox="0 0 70 72" width="70pt" xmlns="http://www.w3.org/2000/svg"><path d="m53.953125 29.375 5.359375-9.242188s.566406-1.253906 2.113281-1.101562l7.882813-.023438v-16.027343h-15.035156c-.90625.148437-2.671876-.226563-4.621094 2.359375l-5.710938 9.59375-6.183594-10.921875s-2.25-2.625-4.875 0l-6.800781 10.382812-5.050781-9.195312s-1.230469-2.261719-4.160156-2.261719h-16.492188l-.011718 16.03125 7.535156.007812s1.726562-.398437 2.558594 1.523438c0 0 29.894531 47.574219 29.863281 47.574219 1.636719 1.726562 3.964843 1.660156 5.253906-.050781l13.113281-20.082032s1.011719-2.394531 2.691406-2.390625h7.945313l.007813-16.191406zm0 0" fill="#002855"/><path d="m3.300781 5.960938-.023437 9.890624h6.105468s1.980469-.152343 2.859376 1.300782l12.675781 20.683594s.789062 1.839843 2.21875 0l8.140625-11.1875 7.023437 11.1875s1.042969 1.9375 2.3125 0l12.855469-20.683594s.492188-1.453125 2.699219-1.300782h6.105469v-9.863281h-11.847657s-1.304687-.449219-3.039062 2.671875l-7.679688 11.4375-7.414062-11.988281s-1.003907-2.453125-2.125 0l-8.035157 11.988281-6.859374-11.4375s-1.207032-2.671875-3.132813-2.671875l-12.835937-.027343zm51.675781 26.417968c-2.488281 0-3.707031 2.035156-3.707031 2.035156l-7.847656 11.347657-8.355469-13.324219-6.910156 9.6875 13.691406 22.835938c1.304688 2.222656 2.398438 0 2.398438 0l13.222656-20.660157c1.257812-2.011719 2.882812-1.757812 2.882812-1.757812h5.925782v-10.160157h-11.300782zm0 0" fill="#eaaa00"/></svg>