<svg height="30pt" viewBox="0 0 70 30" width="70pt" xmlns="http://www.w3.org/2000/svg"><path d="m.757812.316406-.011718 1.414063-.003906.742187-.003907-.007812-.019531 4.386718-.070312 15.769532-.007813 1.425781h7.960937l.390626-.761719 3.121093-6.054687.074219 5.417969.019531 1.398437h7.945313l.390625-.78125 7.589843-15.242187-3.582031 14.253906-.445312 1.769531h8.769531l.265625-1.070313 1.113281-4.429687 2.171875 4.683594.378907.816406h3.945312l2.742188.003906h3.183593l-.003906-.003906h1.328125.121094 10.976562c1.351563 0 2.496094-.238281 3.40625-.707031 1.050782-.542969 1.75-1.390625 2.019532-2.457032l4.714843-18.785156.445313-1.769531h-8.789063l-.265625 1.070313-4.214844 16.753906h-3.3125l4.035157-16.054688.445312-1.769531h-6.988281l-2.222656-.003906h-6.851563l-.417969.457031-3.285156 3.59375.574219-2.28125.445313-1.769531h-16.027344l-.378906.8125-2.675782 5.699219.023438-5.085938.007812-1.425781h-7.167968l-.390626.78125-2.84375 5.722656.15625-5.039063.046876-1.460937-1.449219-.003906-5.984375-.007813zm46.941407 4.445313-3.605469 14.34375-3.496094-7.023438zm-17.597657 20.96875c-.433593 0-.769531.078125-1 .226562-.433593.277344-.8125.859375-1.132812 1.75s-.363281 1.472657-.128906 1.75c.125.148438.402344.226563.835937.226563h1.199219c.433594 0 .765625-.078125.996094-.226563.4375-.277343.8125-.859375 1.132812-1.75.320313-.890625.359375-1.472656.125-1.75-.121094-.148437-.398437-.226562-.832031-.226562zm16.621094 0-.019531.054687.363281.316406-1.289062 3.582032h3.542968l.332032-.914063h-2.214844l.242188-.667969h1.613281l.304687-.847656h-1.613281l.21875-.609375h2.210937l.332032-.914062zm9.09375 0-3.261718.003906-.019532.050781.375.324219-1.285156 3.574219h1.328125l.730469-2.03125 1.027344 2.03125h1.578124l-.863281-1.789063c.28125-.046875.5-.140625.65625-.28125.179688-.15625.328125-.40625.457031-.757812.15625-.441407.171876-.746094.042969-.917969-.097656-.136719-.351562-.207031-.765625-.207031zm-54.621094 0-.019531.054687.359375.3125-1.292968 3.585938h1.332031l.550781-1.53125h1.449219l-.550781 1.53125h1.335937l1.421875-3.953125h-1.335938l-.535156 1.488281h-1.449218l.539062-1.488281zm6.394532 0-.019532.054687.363282.316406-1.292969 3.582032h1.335937l1.421876-3.953125zm3.621094 0-.019532.054687.363282.316406-1.289063 3.582032h3.351563l.328124-.914063h-2.019531l1.097657-3.039062zm5.640624 0-.019531.054687.363281.316406-1.289062 3.582032h3.351562l.328126-.914063h-2.019532l1.097656-3.039062zm5.875 0-.332031.925781h1.269531l-1.085937 3.027344h1.328125l1.089844-3.027344h1.304687l.332031-.925781zm11.800782 0-.019532.054687.359376.316406-1.285157 3.582032h1.332031l.441407-1.230469h1.277343c.386719 0 .675782-.0625.867188-.175781.339844-.214844.617188-.609375.824219-1.183594.207031-.578125.214843-.972656.027343-1.1875-.105468-.117188-.351562-.175781-.738281-.175781zm6.097656 0-.019531.054687.359375.316406-1.285156 3.582032h1.332031l.441406-1.230469h1.277344c.390625 0 .675781-.0625.867187-.175781.34375-.214844.617188-.609375.824219-1.183594.207031-.578125.214844-.972656.027344-1.1875-.101563-.117188-.347657-.175781-.738281-.175781zm20.183594 0c-.304688 0-.550782.066406-.738282.195312-.292968.203125-.527343.535157-.691406.996094-.164062.457031-.183594.769531-.058594.9375.085938.117187.253907.1875.511719.214844l1.230469.136719c.179688.015624.277344.039062.300781.066406.023438.03125.015625.109375-.027343.222656-.050782.136719-.097657.222656-.148438.257812-.039062.023438-.148438.035157-.328125.035157h-.628906c-.160157 0-.25-.011719-.273438-.042969-.023437-.03125 0-.164062.078125-.398438h-1.222656c-.214844.601563-.265625.984376-.144531 1.144532.09375.125.324219.1875.699219.1875h1.789062c.316406 0 .566406-.066406.753906-.195313.296875-.203125.53125-.550781.710938-1.042969.164062-.453124.183594-.765624.058594-.929687-.082032-.113281-.25-.183594-.503907-.214844l-1.242187-.136719c-.183594-.019531-.285156-.039062-.300782-.058593-.027343-.035157-.019531-.113281.023438-.230469.042969-.121094.089844-.199219.132812-.226562.03125-.019532.113282-.03125.257813-.03125h.621094c.140625 0 .21875.015624.246093.046874.019532.03125.003907.148438-.058593.347657h1.21875c.195312-.558594.234375-.925781.105469-1.101563-.089844-.117187-.324219-.179687-.703126-.179687zm-6.753906.898437h.714843c.195313 0 .304688.015625.332031.046875.046876.050781.035157.175781-.035156.371094l-.046875.132813c-.070312.195312-.148437.316406-.230469.371093-.050781.03125-.171874.046875-.367187.046875h-.71875zm-18.042969 0h.65625c.191406 0 .304687.015625.328125.046875.050781.054688.035156.191407-.046875.410157-.082031.226562-.164063.367187-.253907.425781-.039062.027343-.160156.042969-.359374.042969h-.660157zm6.097656 0h.65625c.191406 0 .304687.015625.328125.046875.046875.054688.035156.191407-.046875.410157-.082031.226562-.164063.367187-.25.425781-.042969.027343-.164063.042969-.363281.042969h-.65625zm-11.910156.023438h.332031c.1875 0 .296875.015625.324219.042968.070312.066407-.003907.402344-.222657 1.011719-.214843.605469-.382812.941407-.503906 1.011719-.050781.03125-.171875.042969-.359375.042969h-.328125c-.191406 0-.296875-.011719-.324218-.042969-.070313-.070312.003906-.40625.222656-1.011719.214844-.609375.382812-.945312.503906-1.011719.046875-.027343.167969-.042968.355469-.042968zm0 0" fill="#231f20"/><path d="m61.988281 1.34375h-.3125l-.078125.304688-4.398437 17.519531h-5.390625l4.351562-17.320313.128906-.503906h-7.289062l-.628906-.003906h-6.414063l-.117187.128906-5.972656 6.535156 1.550781-6.160156.125-.503906h-14.097657l-.109374.230468-4.613282 9.828126.050782-9.652344.003906-.40625h-5.539063l-.113281.222656-4.886719 9.835938.296875-9.640626.011719-.417968h-.410156l-5.984375-.003906-.398438-.003907v.402344l-.023437 3.871094h-.003907l-.003906 1.25-.070312 15.773437-.003906.402344h6.34375l.109374-.214844 4.964844-9.625.125 9.441406.003906.398438h6.339844l.109375-.21875 10.027344-20.136719c.433594.339844.582031.820313.472656 1.476563l-4.621093 18.378906-.125.5h6.695312l.074219-.300781 1.804687-7.183594 3.363282 7.253906.109374.230469h5.265626l.78125.003906h1.488281l-.324219-.597656-.328125-.609375-4.949219-9.9375 8.949219-9.226563c.445313.34375.640625.761719.609375 1.304688l-4.136719 16.464844c-.210937.835937.023438 1.519531.679688 1.976562.582031.417969 1.449219.621094 2.640625.621094h10.976562c1.191406 0 2.179688-.199219 2.949219-.59375.796875-.414062 1.304687-1.019531 1.5-1.804688l4.71875-18.785156.128906-.503906zm0 0" fill="#fff"/><path d="m63.160156 20.53125c-.171875.671875-.601562 1.183594-1.296875 1.542969-.714843.371093-1.636719.554687-2.765625.554687h-10.976562c-1.097656 0-1.902344-.183594-2.414063-.554687-.515625-.359375-.6875-.871094-.519531-1.542969l4.144531-16.5c.054688-.746094-.242187-1.34375-.902343-1.789062-.058594-.039063-.117188-.074219-.179688-.109376l-.011719.046876-9.347656 9.632812 5.082031 10.203125.332032.617187h-.8125l.003906-.003906h-5.800782l-3.835937-8.277344-2.078125 8.277344h-5.867188l4.617188-18.390625c.175781-1-.167969-1.710937-1.023438-2.136719l-10.222656 20.527344h-5.695312l-.144532-11.046875-5.699218 11.046875h-5.695313l.070313-15.769531.03125-5.121094 5.984375.003907-.355469 11.472656 5.703125-11.472656h4.890625l-.0625 11.472656 5.382812-11.472656h13.332032l-1.933594 7.707031 7.039062-7.707031h6.238282v.003906h7.402344l-4.476563 17.828125h6.210937l4.480469-17.828125h5.890625zm0 0" fill="#b01e24"/></svg>