<svg height="121pt" viewBox="0 0 70 121" width="70pt" xmlns="http://www.w3.org/2000/svg"><path d="m198.76439 272.658231c-4.599245-2.522741-7.159415-10.170511-12.914135-12.215977-.260548-.295457-.260548-.295457-.24922-.568185.283205.011363.577738-.238638 1.144147-.204547 2.401576-.250001 3.806271-2.227285 4.93909-4.511389.317189-.386365.475784-.659094.872271-.352274.24922.43182.555081.034091.804301.465911 1.280085 1.897738 1.699228 3.852295 3.511738 4.11366.283205.022727.475784-.795459.475784-.795459.555081-1.897738-.192579-3.329564-1.336726-5.06821-2.934001-4.215933-6.298473-8.318229-10.875061-9.18187-2.775406-.465912-6.083237-1.375008-7.691839-2.454559l-2.242982-2.090921c-.079297-.82955-.589065-1.693191.271877-1.909101 1.721884-.579549 2.469545.852277 3.840256 1.363644 1.348054.784095 3.285174 3.261381 4.655885 1.693191 0 0 .022656-.272729.317189-.534094-2.446888-9.295506-9.277786-14.181897-16.142668-18.386466.022656-.272729-.101954-.556821-.101954-.556821l1.551962-2.102285 2.118371 1.795465 1.846495 1.784101c.849614-.079546 1.699228-.295457 2.016417-.829551.249221-1.500008-.271876-2.09092-.62305-3.22729-2.095715-4.147751-6.87621-3.920477-11.475454-6.579582-.237892-.579549-.849615-1.863647-.249221-2.511378.283205.022727.838286.056818.838286.056818l3.00197 3.386383 1.914464.681822c.033985-.409093.24922-1.500008.577738-2.170467-.498441-1.011369-.283205-2.102284-.883599-3.522747-.758989-3.238654-3.115252-5.750032-6.015268-6.500036.951568-7.681861-4.202758-14.250079-2.31095-21.454665.022656-.272729-.328518-1.272734-.747661-1.306825-.305861.261365-.860942.227274-1.132819.204546l-1.416023.045455-1.676572 12.204613-1.506649 1.409099c-.543753-.30682-.81563-.329547-1.495321-.647731-2.764078-4.750026-3.568379-11.454609-8.394187-14.6819 0 0-.283205-.022727-.679692-.318183-1.076177-.761368-.838286-2.136376-1.042193-3.250018.317189-.534094.883599-.636368 1.325398-.886369 1.393367.09091 3.307831-1.159097 4.112132-2.625015l.668364-3.556838c.192579-.806822.838285-2.011374 1.404695-2.113648 1.098834.352275 1.846495 1.647737 2.798062 2.125012.623051 1.147734 2.582827 1.147734 3.489082.375002-.079297-2.909107-.849614-6.011397-1.959776-8.295501-.758989-1.159097-1.789854-2.613651-2.435561-3.352291-2.764078-.590912-5.007059 1.329553-7.385978 1.306825-.532425-.590912.226563-1.375007.566409-2.170466-3.013298-17.363733.770317-37.727483-2.775406-53.466208-.838286-4.068204-3.205877-6.306853-2.866032-9.318233 1.166804-2.556833-.815629-4.488662-.555081-6.125034.543753.170455.906255 1.022733.894927 1.306825 3.183221.625004 6.932851-.784095 9.50435-1.579554.826958.340911 1.608603 1.079551 2.775406.602276 2.118371-.272729 2.696109-2.57956 3.489082-3.772748l1.427352-.454548c-.294533.250001-.011329.272728.577737-.102274.849614-.21591 1.348055-1.295462 3.25119-.477275.509769.863641 1.948449.272729 2.242981.022727 1.166804-2.556832 3.387129-4.204569 6.049253-6.238671.611722-2.727288-1.053522-5.056846-.872271-7.670497-2.820718-1.852283-1.982433-5.943215-4.87112-6.693219-.543754-.30682-.781645-.886369-1.348055-.92046l-.305861-1.681828c-.770317-1.022733-2.095715-2.079557-2.934001-2.27274-.271876-.011363-.815629-.329547-1.076178-.625003-3.647676-1.909102-9.379739-2.295467-14.851254-.30682-1.744541.852278-3.56838.727277-4.451978 1.488645l-.838286 1.886374c-.022657.272729-.169923.545457-.770317.92046-2.254309.261365-3.103924 2.420468-3.092595 4.215932l.215235 5.000028c-.294533.250001-1.268757.181819-2.118371.261365-1.948448-2.204558-1.676572-6.193216-4.508619-7.909135-.826958-.329547-2.503529-.443184-2.990642.625004-.067969.82955 0 2.079557-.045312 2.625014-1.427352.318184-2.299622.818187-3.387129.329548-3.228533-.079546-4.655885 4.386388-8.031685 4.579571-2.911344-2.693197-8.394187-10.670515-10.00279-13.829623-1.653916-4.397752 4.644557-6.181853 6.955507-9.215961 3.545723-2.522741 13.718436-5.568212 13.990313-7.488678 5.335576 2.022739 10.478574 4.715936 16.901657 3.215927 4.440649-1.363644 8.768017-3.000016 11.985223-6.94322-.31719-1.397735-.090626-2.761379.294533-4.261388-1.710557-5.647758-4.848465-9.045505-10.025447-11.329608-1.325398-1.056824-3.149236-1.181825-4.055491-2.215922-1.336727-3.000016.12461-5.943215-.19258-9.420507-.860942-1.715918-1.903135-3.034108-3.296502-3.125017-.589066.375002-1.393367-.238638-1.982433.284092-.464456.511367-1.823839.011364-2.084387-.284092s-.24922-.568185-.362502-.852278c-.770317-1.022733-2.820719-1.852283-4.780495-1.988647l-3.862912 3.204563-3.25119 2.261376c-5.913315-1.7841-11.962567-1.500008-18.204399 1.397736-2.039074 1.113642-1.789854 3.62502-2.378919 6.068215.883598 7.534133 6.434411 10.53415 10.172713 15.352359.339845 1.13637-.271877 1.920465-.758989 2.863652-5.516828 4.738663-9.900836 9.147778-15.768838 12.909163-2.141027 2.477286-5.56214 3.215927-5.573468 7.500042.033984 7.613678 2.752749 15.000083 6.796912 19.556927 1.06485 2.840925 2.832047 3.647747 4.780496 6.000033.883598 1.44319 1.789854 2.465923 2.548842 3.625021 3.024626 13.215982-7.510589 29.659256 1.495321 41.477504.87227 1.579554.237892 2.636378-.555081 3.977294-1.993761 2.488651-2.265638 6.477309-2.911345 9.625054-3.466425-.647731-6.547692-2.79547-10.00279-1.511372-1.223444-.500003-1.427351-1.613645-2.208996-2.500014-7.408636-10.602332-22.894269-8.045499-33.531437-10.431876l-1.6879-1.909102c2.911344-5.613667 4.882449-11.840975 4.633228-18.363739.249221-3.579565-.781644-7.113676-1.325398-11.295517-.577737-3.920476-3.364471-6.181853-5.516827-9.647781-1.325398-1.056824-3.00197-1.170461-4.497291-1.96592-4.916434-1.988648-10.931701-4.32957-16.573139-1.806828-4.587916 1.35228-5.403546 7.102312-9.187161 11.000061-3.489082 3.909113-7.00082 7.965953-4.236742 14.659173-1.653916 3.62502-2.854704 6.863674-4.769167 10.193238-.271877 1.920465-1.110163 3.93184-1.404696 6.125034-1.280085 4.340934-6.434411 11.88643-1.880479 13.0228.453128 3.62502-.883599 6.715947-1.506649 9.579599-.634379 3.136381-.566409 6.181853-1.166803 8.772776-1.914464-.681822 2.016417 1.386372 1.087506 2.568196 1.404695 4.102296-3.69299 8.886414-1.710557 12.613707.283205.022728.543753.318184.81563.329547 5.845345-3.204563 4.950418-12.670525 12.109833-14.818264 2.911344-3.534111 3.964866-8.579593 4.871121-13.63644 1.540634-3.909112 0-8.022772 2.707437-12.693252 3.092595-4.215933 5.0637-10.44324 6.717615-16.147818 1.155476-.477275 2.866032-.772731 3.998851-.82955l1.93712 4.42048.849614 1.852283c.351174 1.13637.872271 1.715918 1.461336 3.284109.498441 2.931834 1.325398 5.204574 1.370711 8.670503-.815629 1.602281-3.409784 2.670469-5.505499 4.465934-.917583 1.181824-2.571499 2.727288-3.919553 3.886385-2.390248 2.193194-4.417994 5.102301-6.728944 8.125045-2.175012 5.113665-4.338696 9.943238-6.411755 15.613724-.781645 3.272745-.804301 7.55686.611723 11.522791.509768 2.806834 2.424232 5.431849 2.662124 8.204591 1.359382 2.590924 2.458217 5.011392 3.273846 7.420496-.883599 2.704561-1.767197 3.340928-4.417993 5.102302-3.3758 2.113648-4.485963 3.988658-9.25513 7.954589-3.228534 2.125012-9.391068 7.943227-8.541454 13.94326 2.458217 5.011392 8.496141 5.011392 13.106714 7.397769 4.599244 2.522741 8.835987 4.193205 13.208667 5.875032l-3.455097 5.431849c-.600394.511366-.962896 1.738646-.645707 3.136381-4.893777 3.818203 15.338367 17.78419 20.232144 28.352431 1.370711 4.522752 3.092596 8.090954 6.298473 10.386421l-1.744541 2.931835c-1.06485 3.250018 2.152356 5.397757 3.262518 7.545496 1.461336 3.28411 2.798063 6.284126 6.559021 8.750049 1.223444.636367 2.242981.011364 3.160565-1.034096 3.760958-7.636407 1.076177-15.556905-.747661-23.704678-5.233623-7.693225-11.237563-16.261454-16.471185-23.806951-1.937121-2.340922-2.186341-4.8523-.430472-7.920499-.12461-.284092.158595-.261365.158595-.261365.94024.477276.396487.30682.906255 1.022733 1.619931.943187 3.704318 3.295473 6.275816 2.647742.543753.170456 1.076178.625004.894927 1.159098 0 0-.294533.261365-.328517.818186-1.382039 1.693191-.985553 2.011375-2.231653 3.852294-.271877 3.863658 5.097684 5.46594 6.570349 8.47732 1.234772.500003 1.18946 1.04546 2.582827 1.272734 1.076178.625004 2.832047 1.715919 3.647676.113637-.24922-.568184.623051-3.000016 1.268757-4.204568-1.540633-8.272774-.079297-11.079608-3.591035-19.193289-2.673453-1.988648-7.839107-6.340945-10.705138-7.511406 6.559021-7.715952 8.824658-14.06826 15.802822-23.693314 2.322279-1.090915 4.973075 1.159098 6.683631 2.806834.521097 2.659106 1.937121 4.556844 2.480874 6.806856-.022657.272729-.31719.534094-.31719.534094l-5.222294 2.409104-2.832047 4.375025 3.409784 5.625031c.679691.318184.645707.875005 1.178132 1.193189l.917583.886368c.736332-.363638 1.008209-.340911 1.291413-.329547.679692.329547 1.132819-.056819.657035.602276-.283204 4.272751 1.280086 7.977317 3.137908 11.556883 2.231654 2.227285 1.925792 4.556843 3.545723 5.50003 1.416024-.045454 2.832047-.363638 3.896897-1.397735.509769-3.420473.577738-6.465945.826958-10.04551-.226564-.70455.566409-2.170467 1.166803-2.693197-.022656.272729.521097.590912.781645.886368 2.016418 3.318201 3.081267 6.159126 6.366442 9.568236 1.416023 1.750009 3.035954 4.76139 5.675422 5.079573.521097.590913 1.348055.931824 1.699228 1.920466l-.657034 1.340916c-.838286-.056818-.781645 1.045461-2.242982 1.920466-3.545723 10.829605 4.995731 23.306948 5.75472 34.704739 1.891807 3.034107 2.073058 6.500036 1.574618 9.784145.713676 3.784112 1.053522 7.136403 2.75275 10.84097.158594 5.965942.951568 10.727332-.430471 16.579637-5.210967 6.284126 1.098834 14.46599.169922 21.875122 2.175013 3.045472 6.559021 2.511378 9.039895 5.306848 1.37071.511367 3.205877 2.431832 4.973074 1.170461-.305861-5.829578-3.545723-13.659167-2.967985-19.988748-1.461336-7.431859-2.299622-13.568257-3.103924-20.27284 1.325398-2.954562.283205-6.068216-.067969-9.136414-.430471-1.965921.679692-3.681839.113282-5.659123.101954-11.761429.328518-25.159231 3.62502-36.420658.623051-.795459.894927-.772731 1.767198-1.125006 4.429321-1.227279 7.827778-5.704577 12.143817-5.136392 0 0-.271876 18.113737-.067969 17.295551.487112 13.318256-.147266 32.647909-.147266 32.647909-.555081-.045455-.883599.625004-1.869151.70455-2.175012 3.034107-8.371531 3.306836-9.832868 8.181863.045313 1.386372-.770316 3.000017.600394 3.636384 2.741422.886369 5.018388-1.590918 7.351995-2.965925.181251-.534094 1.880479-.693186 2.843375-.488639.101953.556821.067969 1.102278.011328 1.931829-1.789854 3.477292-5.43753 3.511383-8.507469 5.238665-.589066.511367-.69102 1.886374-.623051 3.000017 1.631259 2.738651 4.406665 5.28412 7.793794 7.03413 11.203578-1.602282 21.9427-10.84097 35.083399-12.022794 6.547692-1.352281 8.394187-7.875044 14.715316-9.795509l16.323919-4.715936c.294533-.250001.294533-.250001.317189-.534094l-.011328-1.931829-9.153176-5.738668c-.792973-.750004.011328-2.215922.351174-3.022744 1.030865-.61364 1.982433-.272729 3.103924-.204547 2.231653.284093 3.760958 2.465923 4.519947 3.62502.294533-.113637.294533-.113637.566409-.102273l1.744541-.852277c.577738-.227274.532425-1.613646-.067969-3.045472-1.653916-4.534116-6.25316-7.068221-10.184041-11.068243-.4418-1.681828-2.356263-4.579571-1.393367-6.181853 4.565259-1.068188 8.099654 4.568207 11.350844 6.306853.69102.181819 2.344935.568185 2.265638-.261365.328517-.670458 1.064849-1.170461 1.076178-1.454553-.4418-1.693192-1.585947-3.431838-2.344935-4.590935zm-166.297803-57.59123c-2.80939-1.988648-5.210966-3.818203-7.884419-5.659123 6.241832-3.034108 10.240682-4.011386 14.805942-7.159131-2.401576 4.409116-4.644557 8.409138-6.921523 12.818254zm95.8478-54.682123c-.271876-.022728-.271876-.022728-.555081-.034092-4.134788-5.261393.135938-12.170522-1.56329-18.09101-2.242981-6.102306 1.767198-11.363699 2.684781-16.568274.849614-.079546 1.404695-.034091 1.31407-.73864l-.283205-1.954557.532425 2.386377c.860942 3.93184-1.325398 7.102313-.781645 11.431882 1.019537 5.46594-.079297 11.340973 2.854703 15.556905 0 2.068194 1.359383 2.715924 1.914464 4.829573-.883599 2.70456-4.06682 1.931829-6.117222 3.181836zm15.916105 131.693916c-1.653916 1.545463-3.579708 5.011391-5.38089 6.693219-1.12149-6.034125-.12461-16.477365-.079297-23.25013-.033984-5.545485-.237892-12.886435.589066-18.784195l.543753.318183c5.075028 5.875033 8.575438 14.136443 12.540304 21.738758-2.43556 4.818208-6.853554 7.840953-8.212936 13.284165zm0 0" fill="#492f24" stroke="#ffc425" stroke-width="3" transform="matrix(.344826 0 0 .343748 0 .000818)"/></svg>