<svg xmlns="http://www.w3.org/2000/svg" viewBox="0 0 239.962 185.811"><title>Arizona Diamondbacks primary dark logo</title><path d="M150.09 158.01l-20.216 27.8h86.928L175.25 0l-57.83.052L0 185.812h92.663L79.38 157.915l28.604-48.01 2.488 9.705C108.995 122.153 86.79 160.5 86.79 160.5s32.72-27.054 34.223-28.287c.555.643 24.23 29.367 24.23 29.367s-11.154-37.144-11.9-39.675c.56-.89 4.26-6.802 6.63-10.587l10.116 46.695zm-41.08-49.856l18.235-30.61h5.42l6.63 30.61H109.01z" fill="#E3D4AD"/><path d="M57.064 116.035l36.34-22.77-12.47-22.43 35.163-16.945-11.35-19.992 27.076-12.03-12.2-17.886L6.704 182.1l61.773-38.886"/><path d="M129.23 121.333c.955-1.493 5.885-9.374 5.885-9.374h-22.703s1.716 6.698 2.11 8.212c-1.047 1.783-13.906 24.005-13.906 24.005s18.312-15.15 20.9-17.286c1.804 2.18 14.73 17.837 14.73 17.837l-7.016-23.394z" fill="#A71930"/><path fill="#A71930" d="M207.262 178.49L169.122 7.32h-43.06l10.63 16.302-26.744 12.018 11.516 19.94L86.31 72.41l11.766 21.818-36.382 22.906 11.214 27.49-54.543 33.804h61.382l-9.872-20.334 53-87.198 16.42.032 19.85 88.866-13.826 18.696"/><path d="M212.057 182.182L172.342 3.556l-48.758-.02 2.48 3.784h43.058l38.14 171.17H145.32l13.826-18.696-19.852-88.866-16.42-.032-53 87.198 9.873 20.334H18.365l-6.015 3.734h74.023L74.676 158.01l50.257-83.816h10.94l18.975 84.667-17.057 23.322"/><g><path d="M229.696 179.288h-2.25v6.17h-1.535v-6.17h-2.275v-1.317h6.06v1.318zm10.266 6.17h-1.535v-5.96h-.03l-2.18 5.96h-1.48l-2.1-5.96h-.037v5.96h-1.534v-7.486h2.665l1.737 4.884h.04l1.81-4.884h2.645v7.487z"/></g></svg>