<svg xmlns="http://www.w3.org/2000/svg" viewBox="0 0 126.56 120"><title>Baltimore Orioles Primary logo</title><path d="M53.803 119.2c-14.1 0-27.3-5.1-36.2-14.1-8-8-12.2-18.8-12.3-31.2l-4 .7-.2-.7c-.1-.5-2.9-12.7 10.5-23.5-3.6-8.4-7-23.8 7-35.7 1.5-1.5 2.5-2.1 3.2-2.7.4-.3.7-.5 1-.7.8-2.2 2.4-4.2 3.2-5 4.4-4.6 10-5.3 10.2-5.4.8-.1 1.6-.2 2.4-.2 4.3 0 6.8 1.8 7.9 2.6.1.1.1.1.2.1.5.1 1.1.2 1.9.2.8 0 1.9.1 3.3.2 7.9 1 14.6 4.7 20 10.8 1.8-.2 9-1.2 12.6-2 1.8-.4 3.7-.8 5.5-1.2 8.8-1.9 17.1-3.7 23.1-3.7.9 0 1.7 0 2.4.1h.1c4.3.8 7.6 3.1 9 6.5 3 7.2 1.1 12.8-6.5 18.9-9.1 7.3-22.1 11.1-29.5 12.8.1.6.3 1.7.8 3.5 1.8-.2 3.7-.2 5.5-.2 14.8 0 24.3 5.4 24.9 10.7.1 1.8-1.2 3.9-4.3 4.8-13.3 3.5-16 10-19.5 25.2-2.1 9-7.4 16.5-15.6 21.7-7.3 4.9-16.8 7.5-26.6 7.5" fill="#DF4601"/><path d="M38.603 1.5c4.4 0 6.9 2.1 7.8 2.7 1.2.4 2.5.1 5.4.5 5 .7 12.9 2.8 19.8 10.9 0 0 8.9-1.2 13.1-2 10.6-2.2 21.3-4.8 28.4-4.8.8 0 1.6 0 2.3.1 4.5.8 7.3 3.3 8.4 6.1 3.1 7.4.6 12.5-6.2 18-8.5 6.8-20.9 10.8-29.8 12.9 0 0 .1 1.4 1.1 4.9 2.1-.2 4.1-.3 6-.3 14.4 0 23.6 5.2 24.1 10 .1 1.4-1 3.2-3.8 4-13.7 3.6-16.6 10.5-20.1 25.8-4.3 18.8-22.5 28.4-41.4 28.4-23.5 0-47.9-14.8-47.8-45.4l-4.2.7s-3-12.4 10.7-23.1c-2.5-5.6-8.7-22.4 6.5-35.3 2.4-2.3 3.3-2.6 4.4-3.5.7-2.1 2.2-4.1 3.1-4.9 4.3-4.4 9.7-5.1 9.7-5.1 1-.5 1.8-.6 2.5-.6m0-1.5c-.8 0-1.7.1-2.5.2-.5.1-6.1.9-10.6 5.6-.8.8-2.4 2.8-3.3 5.1-.2.2-.5.4-.8.6-.8.5-1.7 1.2-3.3 2.7-6.9 5.8-10.4 13-10.4 21.5 0 4.6 1 9.5 3 14.5-6.8 5.6-9.3 11.5-10.2 15.7-1 4.7-.2 8.1-.2 8.2l.3 1.4 1.4-.2 2.5-.4c.3 12.2 4.6 22.8 12.6 30.8 9.1 9.1 22.5 14.3 36.7 14.3 9.9 0 19.5-2.6 27-7.4 8.3-5.3 13.8-13 15.9-22.2 3.5-15.2 6-21.3 18.9-24.6 3.6-1 5.1-3.5 4.9-5.6-.3-3-3.2-5.9-7.8-8-3.3-1.5-9.2-3.3-17.9-3.3-1.6 0-3.2.1-4.9.2-.2-.9-.4-1.5-.5-2.1 7.6-1.8 20.1-5.7 29-12.8 7.9-6.3 9.9-12.2 6.7-19.8-1.5-3.6-5-6.2-9.6-7h-.2c-.8-.1-1.6-.1-2.5-.1-6.1 0-14.4 1.8-23.2 3.7-1.8.4-3.7.8-5.5 1.2-3.4.7-9.9 1.6-12.1 1.9-5.2-6.3-12-9.9-20-11-1.4-.2-2.5-.2-3.4-.2-.7 0-1.2 0-1.6-.1 0 0-.1 0-.1-.1-1.1-.8-3.8-2.7-8.3-2.7" fill="#FFF"/><path d="M101.303 60.3c-14.8 8.2-13.8 18.8-30.4 23.2-18.8 4.9-34-7.7-23-10.2 2.6-.5 2.9-2.1.1-1.6-6.6.4-15.1 3.8-7.1 17 0 0 1.1.5 1.6 0 0 0-3-6.7-.7-8.6 10.6 10.1 34.2 11.9 49-7.8 5-6.6 10.8-10.4 16.4-12.7-9-2.2-19.2-2.4-24.8-.7-.7-8.9-1.2-11.4-2.9-15.2-.8-1.7-.9-2.7 3-3.8 2.4-.7 12.4-3 21-6.9 6.1-2.8 10.3-5.9 11.4-7 .9-.8 4.1-4.4 2.9-7.3-1.2-2.9-4.1-3.1-7.6-2.8-3 .3-4.4.4-23.1 4.5-9.8 2-15.4 2.1-18.9 3.2 0 0-4.6-11.2-19.9-11.7-2 0-5.2-.4-6.8-2-1.7-1.3-4.7-1.1-7.2.3-1.9 1-3.5 2.6-3.8 4.1-.7 2.6-1.6 2.4-5.2 5.4-4.5 3.7-14.8 11.9-3.4 32.8-10.4 6-11.9 13-11.9 13l4.8-.3c-.7 1.3-1.3 5.6-1.3 7.5-.1 10.9 3.2 19.9 9.9 26.7 7.3 7.4 18.4 11.7 30.2 11.7 8.3 0 16.3-2.2 22.5-6.1 2.8-1.8 5.3-4 7.2-6.5-23.8 14.8-45.6 2.2-50-10.4-4.3-12.3 3.4-21.8 13.2-19.5 13.7 3.3 20.9 1.4 23-5.2 1.7.6 5.6.5 8-.7 3.6-1.6 11.9-4.6 23.8-2.4"/><path d="M33.203 16.3l7.5-2.8s-5.6-4.3-7.5 2.8M50.803 36.4s11.5-8.9 24.4-10.4c12-1.5 31.1-5.7 31.1-5.7s-9.3 5.6-18.6 12.1c-10.1 6-17.5 8.5-29.2 8.2-7.6-1-12.6-1-7.7-4.2M94.603 32.1s18.8-13.1 19.4-12.1c1.7 2.3-7.7 8.2-19.4 12.1" fill="#DF4601"/><path d="M20.403 49.7s7.8-.9 15.9-4.7l-14.5 7.6-1.4-2.9zM64.103 55.3c1.7 5.3.5 10.5-2.7 11.5-3.2 1.1-7.3-2.4-9-7.7-1.7-5.3-.5-10.5 2.7-11.5 3.3-1.1 7.3 2.4 9 7.7" fill="#FFF"/><path d="M58.403 57.7c1.4 2.4 1.1 5.2-.5 6.1s-4-.4-5.4-2.8-1.1-5.2.5-6.1c1.6-.9 4 .3 5.4 2.8"/><path d="M77.603 50.2c1.4 5.4-.1 10.5-3.4 11.4s-7.1-2.8-8.6-8.2c-1.3-5.4.2-10.5 3.5-11.4 3.3-.9 7.1 2.8 8.5 8.2" fill="#FFF"/><path d="M71.303 52.9c1.1 2.3.8 4.8-.8 5.6-1.5.7-3.7-.5-4.8-2.9-1.1-2.3-.8-4.8.8-5.6 1.5-.7 3.7.6 4.8 2.9"/><path d="M50.503 22c1.5.9 2.9.9 4.6 0 .3 1.1.6 2.6.6 3.8 0 1-.1 2.3-.6 3.1-.3.5-.6.7-1.1.8-1.6.3-3-2.1-3.5-3.9-.3-1.2-.3-2.6 0-3.8m4.4-.7c-.9.4-1.6.4-2.3.1-.8-.3-1.5-1-1.9-1.8-.3-.7-.3-1.5.1-2.1.2-.3.7-.5 1.2-.5 1.2 0 2.3 2.3 2.9 4.3m2.3-2c-.2.4-.4.8-.7 1.1-1.2-3.3-2.9-5-4.6-4.9-1 .1-1.9.5-2.4 1.3-.6.8-.8 2-.4 3-.9 2.2-.8 4.8-.2 6.8.7 2.1 1.7 3.6 3.1 4.3.8.5 1.8.5 2.5.3 1-.3 1.7-1 2.2-2.1 1.1-2.3.9-5.7.1-8 .4-.3.9-1 1.1-1.6l-.7-.2zM59.103 21c0-.2 0-.3.1-.6h-.1c-.1 0-.2.2-.3.4-.2.4-.3 1-.1 1.3 0 .1.2.1.5 0 .1 0 .2-.1.2-.2.2-.2.2-.6.1-.8-.1-.1-.2-.1-.4-.1M62.203 22.8l-.7-.6-.2-.2c-.2-.1-.3-.3-.3-.5v-.1h-.1l-.8.6c-.1.3-.2.9-.2 1.4l-.1 1.6c-.1 1-.3 1.8-.8 2.1l-.2.9h.1c.6-.3 1-.9 1.3-1.9l.1-.9.1-.8v-.2l.1-.8c0-.2.1-.4.1-.6v-.1l.1.1c.2.3.8.8 1.1 1l.1.1h-.1c-1 .4-1.2 1.1-1 1.4.1.2.3.4.4.5.2.1.5.1.8-.1.6-.3 1-1 .8-1.7v-.1l-.1-.3c-.1-.3-.2-.5-.5-.8m-.1 2c-.1.2-.2.3-.4.4-.2.1-.4 0-.5-.1-.2-.1-.2-.3-.1-.5s.4-.4.9-.6h.1s0 .1.1.1c0 .3 0 .6-.1.7" fill="#DF4601"/><path d="M89.003 113h-1.4v3.8h-.9V113h-1.4v-.8h3.7v.8zm6.4 3.8h-.9v-3.7l-1.4 3.7h-.9l-1.3-3.7v3.7h-.9v-4.7h1.6l1.1 3 1.1-3h1.6v4.7z" fill="#FFF"/></svg>