<svg xmlns="http://www.w3.org/2000/svg" viewBox="0 0 151.822 212.418"><title>Chicago White Sox primary dark logo</title><path d="M23.133 17.17C18 22.657 12.866 33.81 12.158 41.067c-.177 2.478-.354 4.78-.354 6.904 0 7.436 1.416 13.1 4.78 18.588C20.653 73.462 27.38 79.303 35.7 83.02c8.852 4.07 20.89 9.56 22.128 10.09 2.478 1.062 6.196 3.01 7.08 4.07-1.238.886-10.974 7.967-11.682 8.498-6.373-2.124-16.462-.885-19.472-.177-8.497 1.948-16.285 5.842-21.773 10.622-5.486 4.78-9.912 10.62-11.15 14.87-1.24 3.893-1.063 6.372.353 7.61 1.416 1.063 3.717.71 7.08-1.415 3.54-2.3 10.976-6.904 20.18-8.32 6.905-1.062 13.808-.177 18.942 1.062 0 0 3.894 1.238 7.08 3.362v11.86c-.53.53-3.362 3.01-3.362 3.01-.53.53-.708 1.06-.708 1.592 0 .354 0 .708.177.885.177.707.885 1.06.885 1.06l34.872 21.243s8.32-6.373 9.735-7.435c.53.885 1.24 2.124 1.593 2.832-.708.885-9.736 11.86-10.798 13.1-1.24-1.063-7.79-6.905-7.79-6.905-1.946-1.77-3.362-1.593-4.247-1.24-1.24.532-2.124 2.125-2.124 4.25v19.825l11.682 11.152c1.77 1.77 3.363 2.124 4.425 2.124s2.124-.708 3.01-1.593c0 0 13.452-17.17 16.992-21.773 1.238 2.124 12.92 19.826 12.92 19.826l.355.708c.53 1.24 1.416 3.186 3.186 3.54 1.063.354 2.302 0 3.718-1.062 3.717-2.832 12.568-9.56 13.63-10.798l.354-.354c.885-.885 1.593-1.593 1.593-2.478v-20.357c0-.885-.53-2.124-1.593-2.655-.708-.354-1.77-.354-3.363 1.062 0 0-7.082 5.31-9.383 7.08-.885-1.415-6.904-10.974-7.612-12.036.708-1.062 15.046-18.94 16.108-20.18 1.062.885 4.07 3.186 4.07 3.186 1.594 1.062 2.833 1.24 3.895.708 1.77-1.062 1.77-4.07 1.77-4.425V133.29l-9.913-10.266c-.708-.885-1.77-1.416-2.832-1.24-1.062.178-2.124.71-2.832 1.77-.53.886-8.142 10.445-13.452 16.994-1.416-1.062-3.363-1.947-4.425-2.3v-26.73l2.655-2.655c.354-.354 1.947-2.124 1.947-3.894 0-.355 0-.71-.177-1.063-.53-1.593-2.3-2.3-5.31-2.3 0 0-.885 0-1.77.176 2.124-4.78 2.832-10.09 2.832-13.807v-.708c0-6.727-1.593-12.39-4.425-16.64-3.54-5.31-6.196-6.903-10.444-9.558l-1.238-.885C94.116 57 67.74 43.192 66.678 42.66l-10.09-4.955c-7.966-4.07-9.205-7.435-9.205-10.444v-.353c0-2.478 3.54-7.08 9.56-7.08 4.07 0 7.257.176 12.92 2.123 7.26 2.478 10.976 6.02 10.976 10.975l-.178 1.77 12.214 8.32 20.71-26.552-14.69-9.736-.532.53c-3.186 3.187-3.363 3.187-6.727 2.48-.885-.178-2.832-.886-5.133-1.948C79.6 4.6 68.094 0 57.827 0 40.48 0 31.452 8.143 23.133 17.17zm30.977 90.1l13.1-9.558v-.53c-.178-2.302-6.374-5.134-8.675-6.02-1.24-.53-13.453-6.02-22.127-9.913-7.966-3.718-14.338-9.206-18.41-15.755-2.832-4.78-5.31-11.152-4.07-24.25.707-6.728 5.663-17.702 10.443-22.66 8.144-8.672 16.64-16.46 33.457-16.46 9.736 0 21.065 4.6 27.79 7.257 2.656 1.062 4.426 1.77 5.488 1.947 3.717.707 4.78.53 7.79-2.48 1.06.71 10.266 6.905 11.682 7.79-1.24 1.416-17.347 22.127-18.233 23.543-1.24-.885-9.028-6.196-9.736-6.727v-.708c0-5.84-4.07-10.09-12.214-12.745-5.84-1.947-9.382-2.124-13.63-2.124-7.258 0-11.33 5.84-11.506 8.85-.177 4.956 3.01 8.85 10.267 12.568l10.09 4.956c.177.177 27.437 14.338 32.217 17.524l1.062.708c4.248 2.655 6.55 4.07 9.913 9.028 2.832 4.248 4.248 9.56 4.07 16.285 0 3.893-.707 9.558-3.185 14.514l-.885 1.593 5.133-.53c1.77 0 3.01.353 3.363 1.06.354.886-.708 2.48-1.24 2.833l-3.362 3.363v28.854l.71.176c1.592.53 4.247 1.593 4.955 2.655l.708 1.062.708-1.062c1.417-1.77 13.454-16.816 14.34-18.056.353-.53.884-.708 1.415-.885.53 0 .885.177 1.24.53 0 0 7.965 8.32 9.38 9.737V148.867c0 .885-.176 2.124-.707 2.478-.354.177-.885 0-1.77-.53l-5.487-4.426-18.055 22.834 9.382 15.046 11.152-8.497c.707-.708 1.06-.708 1.238-.708.177.177.354.53.354.885v20.357c0 .177-.354.708-.885 1.24l-.354.353c-1.062 1.062-9.56 7.79-13.453 10.62-.885.532-1.593.886-2.124.71-.885-.178-1.416-1.594-1.947-2.48l-.532-1.06-14.338-22.128-18.587 23.897c-.354.353-.885.884-1.593.884-.885 0-1.947-.53-3.01-1.593 0 0-10.443-10.09-10.974-10.62v-18.94c0-1.594.53-2.302.885-2.48.532-.176 1.24.178 2.125.886l9.205 8.32 12.922-15.754-3.54-5.842s-9.382 7.258-10.444 7.966c-1.062-.708-33.633-20.534-33.81-20.534v-.354-.354l3.894-3.54V131.874l-.53-.354c-2.656-1.77-4.78-3.01-8.498-3.894-6.373-1.593-13.984-1.947-19.295-1.062-9.56 1.593-17.348 6.196-20.89 8.497-3.54 2.125-4.6 1.77-4.955 1.594-.53-.354-.708-2.124.354-5.487 1.238-3.894 5.31-9.382 10.62-13.984s12.745-8.32 20.888-10.267c3.186-.708 13.276-1.77 18.94.354l.532.177 1.24-.176z" fill="#C4CED4"/><path d="M145.273 208.524h-1.416v3.894h-1.062v-3.894h-1.416v-.885h3.893v.884zm6.55 3.894h-1.063v-3.894l-1.416 3.894h-.885l-1.417-3.894v3.894h-1.062v-4.78h1.77l1.063 3.187 1.24-3.186h1.77v4.778z"/><g><path d="M145.096 149.224V134.71l-9.028-8.144-25.136 31.155-3.54-5.663c3.01-2.3 7.08-5.31 7.435-5.487.708-.354 2.478-1.416 3.363-1.416.885 0-1.24-3.717-7.258-3.717v-31.863l3.363-3.894s-4.248.708-6.196 0c-.355-.177-1.063-.53-1.948-.885 1.062-1.77 2.124-3.894 2.832-6.196 4.07-12.923 1.416-24.96-8.32-32.395-6.904-5.133-35.05-19.472-35.05-19.472s-16.992-8.32-18.94-10.267c-1.24-1.24-4.07-3.363-4.07-9.736 0-3.894 4.247-8.143 6.195-9.028 3.008-1.416 3.893-2.124 9.912-2.124 3.363 0 6.55.708 6.904.885 3.717.354 12.568 3.363 16.993 9.382 1.77 1.77 2.123 6.904 2.123 6.904l7.08 4.6 15.4-20.18-7.965-5.663c-2.3 2.478-6.904 2.655-8.674 1.77s-17.347-6.55-19.65-7.258C66.68 4.6 57.65 3.716 52.872 4.424c-4.955.708-12.92 2.3-19.294 8.85-7.258 7.79-7.435 13.985-7.435 17.348 0 5.31 1.417 12.214 7.26 18.056 8.496 8.496 21.418 13.806 24.25 15.4 5.133 2.83 21.42 11.328 23.72 12.744 9.913 5.842 13.807 12.037 12.745 19.826 0 .354-.177.708-.177 1.062-4.425-2.655-10.444-6.373-12.922-8.85 0 0-1.416 1.592-2.478 2.477l-7.258 5.486c.885-3.54.885-9.56.885-10.09-.177-.708-.708-6.55-5.84-10.09-3.364-2.478-11.153-7.08-17.703-10.267-2.832-1.415-12.036-6.903-16.462-10.62 0 0-7.612-7.08-8.85-11.506-2.302-4.956-2.302-16.816-1.24-17.88 0 0-2.832 3.187-4.956 9.737-1.062 3.187-1.593 7.26-1.593 10.09 0 4.78.886 12.923 6.02 20.004 2.3 3.01 5.84 6.55 9.56 9.028 4.6 3.01 9.204 4.78 9.558 5.133 1.24.885 13.276 6.02 14.338 6.55 1.062.53 6.55 3.01 7.79 3.717 4.07 2.124 6.195 3.54 7.61 7.08l-12.39 9.206s.53 1.062.53 2.478v1.24c-1.77-.532-3.54-.886-5.132-1.24-8.143-1.416-13.1-1.24-19.65.354-7.08 1.77-14.69 4.602-21.772 11.683-7.966 7.966-7.966 13.276-7.966 13.276l7.966-4.78c6.727-3.717 15.4-6.02 21.596-6.02 14.87 0 22.48 4.25 24.605 6.728v14.338c0 2.832-.885 3.186-1.416 3.717-.177.177-.53.177-1.24.885 0 0 1.063.354 1.417.708.708.53 29.03 17.524 29.03 17.524l10.975-7.966 5.486 8.674-15.046 18.587-10.267-9.382v17.524l11.86 10.798 20.888-26.198 17.17 27.26 13.808-10.975v-17.347l-10.975 8.32-11.152-17.88 20.358-25.49 6.018 5.49zm-70.452-39.12l6.373-4.78c1.77 1.416 3.894 2.832 5.84 3.894l-.176.177s-7.434 6.373-12.036 7.08v-6.372zm11.33 41.244l-11.33-6.904V127.45c4.78-.884 16.285-6.372 22.304-12.213v20.357l-6.904-10.975-10.62 7.434v13.453l5.84-3.894 4.425 6.904-3.717 2.83z"/></g></svg>