<?xml version="1.0" encoding="utf-8"?>
<!-- Generator: Adobe Illustrator 19.1.0, SVG Export Plug-In . SVG Version: 6.00 Build 0)  -->
<svg version="1.1" id="STL" xmlns="http://www.w3.org/2000/svg" xmlns:xlink="http://www.w3.org/1999/xlink" x="0px" y="0px"
	 viewBox="-244 313 122.7 168" style="enable-background:new -244 313 122.7 168;" xml:space="preserve">
<style type="text/css">
	.st0{display:none;}
	.st1{display:inline;}
	.st2{clip-path:url(#SVGID_2_);fill:#FFFFFF;}
	.st3{clip-path:url(#SVGID_4_);fill:#BD3039;}
	.st4{clip-path:url(#SVGID_6_);fill:#BD3039;}
	.st5{clip-path:url(#SVGID_8_);fill:#FFFFFF;}
	.st6{clip-path:url(#SVGID_10_);fill:#FFFFFF;}
	.st7{fill:#C4CED4;}
</style>
<g class="st0">
	<g class="st1">
		<defs>
			<rect id="SVGID_1_" x="-244" y="337" width="122.7" height="120"/>
		</defs>
		<clipPath id="SVGID_2_">
			<use xlink:href="#SVGID_1_"  style="overflow:visible;"/>
		</clipPath>
		<path class="st2" d="M-133.5,408c-4.4-3.1-9.6-3.8-14.7-4.4c-9.7-1.3-17.3-2.3-18.5-18.1c-1.6-23.1-2.2-28.4-8-32.6
			c-0.1-1.7-1.3-10.9-1.3-10.9c-0.4-3.1-3.2-5.3-6.4-4.9l-17.7,2.2c-1.5,0.2-2.9,1-3.8,2.2c-0.6,0.8-1,1.7-1.1,2.7
			c-2.5-0.2-4.9,1.3-5.7,3.8c0,0-3.1,8.6-3.6,10.2c-3.5,1.6-6.4,6.6-9.5,16.7l-1.8,5.8c-3.5,11.5-6.2,20.5-11.4,26.1
			c-4.6,4.8-7,10-7,14.7c0,1.4,0.2,2.8,0.7,4.2c1.3,4,5.3,9.2,16.8,11.3c6.3,1.1,13.6,5.6,20.7,10c4.9,3,10.1,6.2,14.8,8.2
			c3,1.3,8.2,3.5,22.7-0.1c0.7-0.2,2.3-0.8,2.9-3.3c0.1-0.5,0.2-1.1,0.2-1.8c0-4.9-3.4-13.3-12.6-21.2c6.6,0.7,13.9,2.2,19.3,4.1
			c9,3.2,25.9,5.3,35.6-1.7c0.8-0.5,1.7-1.7,1.7-3.8C-121.3,422.9-125,414.1-133.5,408"/>
	</g>
	<g class="st1">
		<defs>
			<rect id="SVGID_3_" x="-244" y="337" width="122.7" height="120"/>
		</defs>
		<clipPath id="SVGID_4_">
			<use xlink:href="#SVGID_3_"  style="overflow:visible;"/>
		</clipPath>
		<path class="st3" d="M-134.7,409.8c-11.6-8.3-32.2,2.4-34-24.2c-1.7-24.2-2.3-27.9-7.9-31.5l-1.5-11.8c-0.2-1.9-2-3.3-4-3.1
			l-17.7,2.2c-1.7,0.2-3,1.6-3.1,3.3c0.6,0.2,1.7,0.6,3.1,1.1l-0.1-1.1c0-0.3,0.2-0.6,0.5-0.6c0.3,0,0.6,0.2,0.6,0.5l0.2,1.7
			c0.8,0.3,1.6,0.6,2.4,0.9l-0.3-2.6c-0.1-0.4,0.2-0.8,0.6-0.8s0.7,0.2,0.8,0.6l0.4,3.4c0.7,0.3,1.4,0.5,2.1,0.7l-0.5-4.2
			c-0.1-0.5,0.3-0.9,0.8-1s0.9,0.3,1,0.8l0.6,5.1c0.7,0.2,1.3,0.5,1.9,0.7l-0.7-5.9c-0.1-0.5,0.3-0.9,0.8-1c0.5-0.1,0.9,0.3,1,0.8
			l0.8,6.8c0.3,0.1,0.4,0.1,0.4,0.1c0.6,0.2,1.2,0.6,1.7,1l-1-8.3c0-0.4,0.2-0.8,0.6-0.8c0.4,0,0.8,0.2,0.8,0.6l1.3,10.8
			c0.2,0.6,0.3,1.2,0.3,1.8c0,0.6-0.1,1.3-0.3,1.9c0,0-3.1,8.7-3.7,10.3c0.7,1.4,1,2.8,1,4.2c0,4.4-2.6,9.1-4.9,13.4
			c-1,1.8-2,3.6-2.7,5.2c-3.6,8.9-5.4,14.4-5.4,18.1c0,2,0.5,3.5,1.5,4.7c0-2.4,0.5-4.2,0.7-5.1c2.3,0.7,9.3,2.9,12.7,3.7
			c0,0-0.3,7.1,0.6,12.2c0.4,0.3,0.7,0.6,1,0.8c0.5,0.3,0.9,0.6,1.3,1c7.8,0.4,17.1,2.4,23.1,4.5c9.3,3.3,25.1,4.8,33.6-1.5
			C-121.8,427.8-124.9,416.8-134.7,409.8 M-180.1,355.4c-0.3,0-0.6-0.2-0.6-0.5l-1.5-12.4c0-0.3,0.2-0.6,0.5-0.6s0.6,0.2,0.6,0.5
			l1.5,12.4C-179.6,355.1-179.8,355.3-180.1,355.4 M-126.6,427.1c-3,2-7,3-11.2,3.3c-0.9,0-1.5-0.3-1.7-1l-3.1-8.4
			c-0.3-0.7-0.3-1.3,0.6-1.8c0,0,6.3-2.7,7-3.1c0.7-0.4,1.6-1.1,2.4-0.2C-128.3,420.3-126.5,425.2-126.6,427.1
			C-126.5,427.1-126.6,427.1-126.6,427.1"/>
	</g>
	<g class="st1">
		<defs>
			<rect id="SVGID_5_" x="-244" y="337" width="122.7" height="120"/>
		</defs>
		<clipPath id="SVGID_6_">
			<use xlink:href="#SVGID_5_"  style="overflow:visible;"/>
		</clipPath>
		<path class="st4" d="M-183.4,427.3c-0.9-0.7-5.9-5-13-9.8c-7.1-4.8-5.5-12,0.9-27.5c3.1-7,10.2-15.8,6.2-21.7l4-11.2
			c0.7-1.8-0.3-3.9-2.1-4.5l-16.8-6c-1.8-0.7-3.9,0.3-4.5,2.1l-4,11.2c-3.1,0.7-5.9,5.2-9.1,15.6c-4.4,14.2-7.3,25.8-13.7,32.7
			c-9.2,9.8-10.2,23,9.4,26.6c11.2,1.9,24.5,13.6,35.8,18.3c2.7,1.1,7.1,3.4,21.5-0.2C-165.8,452.3-167,438.7-183.4,427.3
			 M-227.3,431.4c-6.1-1.4-9.9-3.9-11.1-7.4c-1.2-3.5,0.4-8.2,4.2-12.6c4.3,1.7,7.9,3.7,10.6,5.4
			C-225.5,420.8-226.8,425.8-227.3,431.4 M-188.3,355c0.3,0.1,0.4,0.4,0.3,0.7l-4.2,11.8c-0.1,0.3-0.4,0.4-0.7,0.3
			c-0.3-0.1-0.4-0.4-0.3-0.7l4.2-11.8C-188.9,355.1-188.6,354.9-188.3,355 M-191.6,353.8c0.4,0.1,0.6,0.5,0.4,0.9l-4.1,11.5
			c-0.1,0.4-0.5,0.6-0.9,0.4c-0.4-0.1-0.6-0.5-0.4-0.9l4.1-11.5C-192.4,353.9-192,353.7-191.6,353.8 M-195,352.6
			c0.5,0.2,0.7,0.7,0.5,1.1l-4,11.2c-0.2,0.5-0.7,0.7-1.1,0.5c-0.5-0.2-0.7-0.7-0.5-1.1l4-11.2C-195.9,352.7-195.4,352.4-195,352.6
			 M-209.6,361.8c-0.3-0.1-0.4-0.4-0.3-0.7l4.2-11.8c0.1-0.3,0.4-0.4,0.7-0.3c0.3,0.1,0.4,0.4,0.3,0.7l-4.2,11.8
			C-209,361.8-209.3,361.9-209.6,361.8 M-206.3,363c-0.4-0.1-0.6-0.5-0.4-0.9l4.1-11.5c0.1-0.4,0.5-0.6,0.9-0.4
			c0.4,0.1,0.6,0.5,0.4,0.9l-4.1,11.5C-205.5,363-205.9,363.2-206.3,363 M-202.9,364.2c-0.5-0.2-0.7-0.7-0.5-1.1l4-11.2
			c0.2-0.5,0.7-0.7,1.1-0.5c0.5,0.2,0.7,0.7,0.5,1.1l-4,11.2C-201.9,364.2-202.4,364.4-202.9,364.2 M-170.6,450.1
			c-5.3,1.3-9,1.7-11.7,1.6c-1,0.1-1.7-0.3-1.9-1.5l-1-8.8c0-0.9,0.3-1.6,1.4-1.7c2.6,0,5.7-0.2,6.7-0.6c1.4-0.5,1.8-0.3,2-0.1
			c3.5,4.7,4.6,8.8,4.6,10.7C-170.6,450-170.6,450-170.6,450.1"/>
	</g>
	<g class="st1">
		<defs>
			<rect id="SVGID_7_" x="-244" y="337" width="122.7" height="120"/>
		</defs>
		<clipPath id="SVGID_8_">
			<use xlink:href="#SVGID_7_"  style="overflow:visible;"/>
		</clipPath>
		<polygon class="st5" points="-138.8,436.7 -138.3,436.7 -138.3,438.2 -138,438.2 -138,436.7 -137.4,436.7 -137.4,436.4 
			-138.8,436.4 		"/>
	</g>
	<g class="st1">
		<defs>
			<rect id="SVGID_9_" x="-244" y="337" width="122.7" height="120"/>
		</defs>
		<clipPath id="SVGID_10_">
			<use xlink:href="#SVGID_9_"  style="overflow:visible;"/>
		</clipPath>
		<polygon class="st6" points="-136.1,437.7 -136.6,436.4 -137.1,436.4 -137.1,438.2 -136.7,438.2 -136.7,436.8 -136.2,438.2 
			-136,438.2 -135.5,436.8 -135.5,438.2 -135.1,438.2 -135.1,436.4 -135.6,436.4 		"/>
	</g>
</g>
<g>
	<path class="st7" d="M-214,344.2c0,0-19.8,7.8-19.9,33.1c0,25.9,19.1,30.8,19.1,30.8s-9.9-12.4-9.8-32.3
		C-224.5,354.4-214,344.2-214,344.2z"/>
	<path d="M-146.5,448.1c-4.1-4-11.6-25.2-17.8-26.6c2.3-1.1,16.5-4.5,16.6-19.9c-0.1-16.7-15.5-22.1-31-22.1
		c-3.3,0-9.3,0.2-15.4,0.6c-7.7,0.5-11.7,0.8-17.6,1.3v5.7c8.3,0,10,1.9,10,11v10.8c-11.4-2.4-18.9-15.1-18.9-33
		c0-18.9,8.9-32.3,21.9-32.3c4.9,0,9.2,2,12.6,5.5c3.4,3.5,5.9,8.7,6.9,14.9h4.6l-0.9-25.5h-3.6c-0.4,1.2-0.9,1.7-1.8,1.7
		c-2.4,0-8.2-3.7-18.7-3.7c-11.3,0-21,4.2-27.8,11.5c-6.8,7.5-10.8,17.6-10.8,29.8c0,8.4,2.4,18,8,25.5c5.6,7.6,14.6,13.1,27.7,13.1
		c0.2,0,0.4,0,0.7,0v23.8c0,8.8-1.9,10.6-10,10.6v5.7h36.6v-5.7c-7.5,0-10.3-1.1-10.3-10v-16.2h5.1c0,0,18.9,31.9,19.4,31.9
		c1.3,0,22.5,0,22.5,0v-5.6C-138.3,450.9-142.6,451.6-146.5,448.1z M-233.9,377.3c0-25.3,19.9-33.1,19.9-33.1s-10.5,10.2-10.6,31.6
		c0,19.9,9.8,32.3,9.8,32.3S-233.9,403.2-233.9,377.3z M-189.3,450.9h-8.3v-64.7l8.3-0.6V450.9z M-152.6,402
		c0,12.7-15.5,15.9-15.5,15.9s5.7-3.5,5.7-15.8c0-12.4-5.5-15.9-5.5-15.9S-152.7,387.5-152.6,402z M-185.3,418.8v-4
		c0.4,0,0.7,0,1.1,0c1.2,0,2.2,0,3.1,0.2c1,0.1,2,0.4,2.8,0.7l0.3-0.9c2.8-8.3,5.2-17.3,6-24.3h-4.6c-2.3,6.3-5.3,10.9-8.7,14.1
		v-19.3h4.7c9.4,0,14.3,6.3,14.3,15.8C-166.3,413.6-171.3,419-185.3,418.8z M-160.4,450.9c0,0-10.7-19.2-15.7-26.1
		c0,0,3.6-0.6,5.4-1.1c1.6-0.5,2.8-0.9,2.8-0.9c4.2,2.1,10.2,11.5,13.4,19.2c3.5,6.9,5.9,8.9,5.9,8.9L-160.4,450.9z"/>
	<polygon class="st7" points="-197.6,450.9 -189.3,450.9 -189.3,385.6 -197.6,386.2 	"/>
	<path class="st7" d="M-162.4,402.1c0,12.3-5.7,15.8-5.7,15.8s15.5-3.2,15.5-15.9c0-14.4-15.3-15.8-15.3-15.8
		S-162.4,389.7-162.4,402.1z"/>
	<path class="st7" d="M-154.4,442c-3.2-7.7-9.2-17.1-13.4-19.2c0,0-1.2,0.5-2.8,0.9c-1.8,0.5-5.4,1.1-5.4,1.1
		c4.9,6.9,15.7,26.1,15.7,26.1l11.9,0C-148.5,450.9-151,448.9-154.4,442z"/>
	<g>
		<polygon points="-128,452.2 -129,455.1 -129,455.1 -130,452.2 -131.6,452.2 -131.6,456.6 -130.7,456.6 -130.7,453.1 -130.7,453.1 
			-129.5,456.6 -128.6,456.6 -127.4,453.1 -127.3,453.1 -127.3,456.6 -126.4,456.6 -126.4,452.2 		"/>
		<polygon points="-135.9,453 -134.6,453 -134.6,456.6 -133.7,456.6 -133.7,453 -132.4,453 -132.4,452.2 -135.9,452.2 		"/>
	</g>
</g>
</svg>
