<svg xmlns="http://www.w3.org/2000/svg" viewBox="-40 0 680 600"><title>Miami Marlins primary logo</title><path d="M409.203 132.717L296.924 338.948l-82.619-153.244c41.216-26.254 82.396-47.062 103.865-57.392l15.043-7.229-38.022-17.848L492.719 0s-16.728 4.826-72.086 23.287c-42.345 14.126-125.642 45.742-133.999 48.291 0 0-30.045 11.13-66.833-4.855-38.201-16.59-79.023-36.386-79.023-36.386 6.852 37.855-14.637 71.071-34.645 96.607-19.346 24.688-87.397 94.643-86.54 158.918.999 74.562 68.071 88.724 68.071 88.724L0 594.12h142.122l59.831-152.927 94.902 173.974 95.003-173.969 59.677 152.923h142.207L409.203 132.717zM105.245 330.659c-1.547-2.793-2.561-5.029-3.134-6.397-.775-2.647-1.38-5.549-1.847-8.832-3.377-24.59 16.862-51.652 40.77-74.363l-35.789 89.592z" fill="#fff"/><path d="M200.094 176.088c27.427-17.645 61.56-36.861 105.845-59.048h.012l-13.318-6.239-6.312-2.971c-25.925 12.965-62.364 32.863-94.496 52.927l8.269 15.331m-60.091 196.709c-.755-.333-1.53-.71-1.53-.71-17.406-6.973-37.62-20.782-47.829-38.087-9.58-17.966-9.535-41.59 11.244-71.615.057-.102.138-.183.203-.28a170.121 170.121 0 0 1 5.427-7.367c.195-.251.438-.507.625-.759a184.84 184.84 0 0 1 5.91-7.148c.361-.414.796-.852 1.165-1.283a259.687 259.687 0 0 1 14.763-15.352c8.658-8.289 18.177-16.606 29.039-25.142a444.135 444.135 0 0 1 7.132-5.447l12.056-30.163c-4.266 2.785-8.455 5.553-12.417 8.285C44.273 261.321 53.584 317.638 87.957 346.465c6.016 5.147 12.908 9.9 19.837 13.261 9.567 4.619 18.643 8.922 28.304 11.93 1.12.333 2.22.625 3.312.97l.56.171h.033" fill="#0078c8"/><path d="M408.101 151.325L296.889 355.6l-93.051-172.594c43.704-28.434 88.631-51.133 110.895-61.837l-8.796-4.128c-44.285 22.187-78.414 41.403-105.841 59.048l-14.097-26.149-19.845 49.667a430.154 430.154 0 0 0-7.132 5.447c-10.862 8.528-20.385 16.854-29.039 25.138a258.598 258.598 0 0 0-14.767 15.356c-.369.43-.8.869-1.165 1.283a187.583 187.583 0 0 0-5.91 7.144c-.187.256-.43.507-.621.763a166.565 166.565 0 0 0-5.427 7.371c-.065.094-.146.179-.199.276-20.782 30.025-20.827 53.649-11.248 71.611 10.208 17.304 30.419 31.117 47.824 38.091-.211-.118-.463-.215-.674-.345-.637-.292-1.895-.946-1.895-.946-.341-.162-.666-.345-.978-.515a156.21 156.21 0 0 0-.99-.54c-9.547-5.204-16.784-11.552-17.864-12.896l69.918-178.487.012.008L297.047 383.88 408.1 178.367 562.477 572.71h-96.152l-71.168-182.177-98.109 181.552-98.097-181.552-.921 2.395v-.033L127.705 572.71h-96.14l78.885-201.547c1.218.203 2.5.365 3.759.56-4.863-.783-9.478-1.701-13.306-2.594-.049 0-.106-.008-.146-.008C13.401 324.04 36.286 212.402 280.36 99.17c91.058-43.156 152.915-75.081 152.915-75.081l-26.137 10.006c2.115-.816 3.479-1.336 3.479-1.336s-50.215 22.926-58.853 26.717c-49.842 21.887-116.712 51.477-144.492 65.656-5.529 2.817-14.499 7.712-24.464 13.541-94.696 59.49-164.143 126.133-128.857 202.74-40.421-46.936-4.977-115.819 37.774-163.432 28.523-31.864 42.04-45.024 56.584-68.656 11.447-18.53 18.778-37.981 18.14-57.546.637.292 1.311.601 1.961.901l-17.215-8.642c1.936 6.288-2.224 44.443-26.818 78.089C97.465 158.843 4.604 240.025 32.766 316.466c15.616 42.397 55.789 50.787 65.79 52.375 0 0-.036-.021-.044-.021L11.708 586.182h124.996l64.061-163.728 96.095 176.157 96.201-176.157 63.89 163.728h125.074L408.101 151.325M107.077 347.453c-.167-.171-.373-.422-.524-.605-7.245-9.153-10.838-17.259-11.925-19.934-.913-3.02-1.66-6.446-2.224-10.403-4.607-33.565 26.745-70.02 68.027-102.606l-53.354 133.548z" fill="#a7a9ac"/><path d="M123.085 372.797c1.051.097 2.07.171 3.117.24-1.046-.07-2.065-.155-3.117-.24m15.531.107c.166-.012.333-.033.471-.041-2.708.28-5.419.373-8.139.353 2.55.033 5.119-.073 7.668-.312" fill="#a7a9ac"/><path d="M148.311 109.328c-14.544 23.628-28.061 36.792-56.588 68.652-42.75 47.613-78.199 116.496-37.77 163.436-35.29-76.612 34.157-143.25 128.857-202.748 9.965-5.821 18.936-10.716 24.464-13.537 27.781-14.174 94.642-43.769 144.488-65.652 8.642-3.795 58.857-26.717 58.857-26.717s-1.364.515-3.483 1.331c-17.519 6.657-100.041 38.038-118.051 45.044-.272.126 0 0-.093.028-9.567 2.375-23.125 4.778-32.786 4.404-7.66-.211-20.702-1.835-35.497-8.045-4.432-1.891-30.476-12.632-52.297-22.841-.65-.304-1.323-.609-1.961-.905.637 19.569-6.694 39.012-18.14 57.55" fill="#f60"/><path fill="#ffd100" d="M189.696 238.931l103.519 189.962 4.031 7.53 4.071-7.53 102.854-189.577v.037l3.933-60.988-111.057 205.508-111.049-205.508 2.825 46.663.861 13.923z"/><path fill="#0078c8" d="M489.272 552.577l-90.1-228.329-102.127 188.87-101.827-188.343-89.873 227.493h-38.22l-.215.512-35.347 19.926h96.136l71.253-182.177 98.093 181.552 98.109-181.552 71.168 182.177h96.156l-35.395-20.129z"/><path d="M189.685 238.952l-.861-13.923-2.837-46.676-69.918 178.491c1.08 1.344 8.317 7.696 17.864 12.896.325.175.658.357.986.54.317.171.642.353.974.516l53.792-131.844" fill="#f60"/><path d="M31.562 572.707l35.351-19.926.207-.519h-.04l67.84-179.064c1.08-.057 2.578-.191 3.698-.296-2.553.24-5.119.345-7.672.317a87.565 87.565 0 0 1-4.741-.182c-1.047-.069-2.07-.142-3.117-.24-3.061-.28-6.012-.645-8.881-1.076-1.254-.191-2.541-.353-3.754-.556L31.562 572.707" fill="#f26531"/><path fill="#f60" d="M527.083 552.577l35.395 20.129-154.372-394.339-3.937 60.988z"/><path d="M134.919 373.194l-67.84 179.072h38.265l89.877-227.493 101.827 188.351 102.123-188.879 90.104 228.329h37.807l-122.91-313.221v-.037L301.318 428.894l-4.075 7.53-4.031-7.53-103.52-189.963-.008.02-53.787 131.844s1.258.657 1.895.95c.727.345 1.453.718 2.208 1.047h-.032c-.094 0-.43.028-.881.069-.138.008-.304.032-.471.045-1.12.106-2.618.232-3.697.288" fill="#fff"/><path d="M629.295 571.63v14.556h-2.959v-11.581h-.089l-4.234 11.581h-2.862l-4.059-11.581h-.089v11.581h-2.967V571.63h5.139l3.398 9.498h.061l3.527-9.498h5.134zm-31.681 2.602h4.396v11.954h2.979v-11.954h4.38v-2.602h-11.755v2.602z" fill="#a7a9ac"/></svg>
