<svg xmlns="http://www.w3.org/2000/svg" viewBox="0 0 707.362 766.041"><title>Milwaukee Brewers cap logo</title><path d="M642.905 547.685h-8.287v22.612h-5.6v-22.612h-8.287v-4.89h22.175v4.89zm37.646 22.612h-5.588v-21.892h-.146l-7.995 21.892h-5.43l-7.668-21.892h-.146v21.892h-5.645v-27.503h9.772l6.398 17.957h.135l6.668-17.956h9.648v27.503zM147.85 678.73a794.062 794.062 0 0 0-32.248 16.643l40.828 11.47c10.176-4.993 20.465-9.794 30.922-14.337l-39.5-13.775zm95.05-38.295l38.05 18.767a725.727 725.727 0 0 1 33.047-8.422l-36.32-20.757a780.643 780.643 0 0 0-34.777 10.412m89.597-23.203l35.442 23.298a726.15 726.15 0 0 1 33.81-4.33l-33.418-24.995a776.354 776.354 0 0 0-35.835 6.027m-1.706-7.042a798.343 798.343 0 0 1 36.363-6.172l24.186-32.293a806.837 806.837 0 0 0-38.66 5.127l-21.89 33.34zm-173.9 64.275l40.03 13.954a737.738 737.738 0 0 1 31.73-12.415l-38.534-16.158a791.11 791.11 0 0 0-33.226 14.618m42.4-18.361l39.14 16.405c10.716-3.733 21.544-7.185 32.485-10.412l-37.533-18.542a770.333 770.333 0 0 0-34.093 12.55m85.977-35.647a794.735 794.735 0 0 1 35.914-8.388l22.095-33.632a791.483 791.483 0 0 0-38.253 7.51l-19.756 34.51zm2.007 6.989l36.87 21.094a704.125 704.125 0 0 1 33.553-6.364L322.66 619.17a725.23 725.23 0 0 0-35.387 8.276m113.523-56.676l-23.86 31.88a753.303 753.303 0 0 1 36.667-3.937l26.132-30.775c-8.175.393-16.372.877-24.557 1.518-4.814.36-9.604.854-14.382 1.315M378.153 609.8l34.002 25.446c2.71-.247 5.408-.54 8.13-.742 8.636-.686 17.26-1.136 25.828-1.53l-31.832-27.052a737.706 737.706 0 0 0-36.127 3.878m-137.776 23.844c11.67-3.812 23.41-7.354 35.34-10.592l20.06-35.06a804.08 804.08 0 0 0-37.735 9.828l-17.665 35.824zm255.946-33.806l-6.005 3.553c59.447.99 118.164 6.736 174.116 20.072l.124-.776c-56.142-15.303-114.252-25.603-174.533-26.56l6.297 3.712zm-373.75 51.006l-10.772 38.354a732.266 732.266 0 0 1 32.8-16.945l13.256-38.073a798.986 798.986 0 0 0-35.284 16.664m73.824-1.404a738.59 738.59 0 0 1 34.643-12.74l17.834-36.138a797.482 797.482 0 0 0-37.06 12.155l-15.416 36.724zm6.48-33.528a776.184 776.184 0 0 0-36.24 14.427l-13.156 37.7a788.573 788.573 0 0 1 33.766-14.864l15.63-37.264zm245.202 9.678l8.388 6.973c55.77-1.642 111.003.843 163.918 10.513l.19-.652c-55.714-12.065-113.183-19.217-172.496-16.833m34.05-26.034l-42.245-21.206-19.936 23.456 24.31 20.43m-259.239-46.81C133.924 592.8 75.926 623.013 43.41 642.465l17.776 17.777c37.59-22.22 90.19-49.778 141.44-66.69l56.998-208.793-5.768-61.664-68.837 252.33zM76.045 260.285c0-47.057 37.387-87.446 85.04-91.932a93.514 93.514 0 0 1 43.706 6.32l-38.398 9.433 46.64-11.447c-19.125-16.373-44.1-24.48-69.702-22.074-47.687 4.498-85.03 44.864-85.03 91.933a55.763 55.763 0 0 0 12.64 35.328c3.26-1.44 6.678-2.45 10.13-3.306-.99.248-2 .382-2.968.664-1.315-4.823-2.057-9.827-2.057-14.92m81.582 50.432c2.856-10.355 6.994-25.457 11.087-40.366l-11.087 40.344v.022zm-62.465 81.029c-19.756 0-40.75-9.658-57.615-26.514 2.99 2.97 14.775 14.765 17.766 17.767 16.866 16.855 37.837 26.514 57.593 26.514 6.398 0 12.57-1.022 18.362-2.923l10.175-37.016c-10.896 13.528-27.594 22.175-46.282 22.175M575.74 564.935c-39.04 9.232-73.863.45-97.915-24.692 3.407 3.554 15.315 15.214 17.766 17.766 3.7 3.856 7.703 7.173 11.875 10.265-19.228-1.07-38.635-1.417-58.222-.71l-6.24 7.445c25.017-1.102 49.8-1.07 74.436-.315 21.43 11.795 47.573 14.73 76.077 7.995l5.802-1.383c10.838 1.473 21.69 2.878 32.382 4.835l.17-.596c-9.57-2.068-19.206-3.935-28.887-5.7l-1.192-18.396-17.732-17.754 1.204 18.946-9.524 2.293zM689.574 0l-5.105 18.587C678.576 39.85 667.32 47.9 659.056 53.77c-5.97 4.25-9.23 6.6-11.132 12.965L542.702 444.822c-6.904 23.792-5.273 61.28 9.344 83.027 4.205 6.25 9.187 10.456 14.83 12.818-11.84-22.13-12.795-55.997-6.408-78.08L665.703 84.5c1.855-6.375 5.15-8.714 11.143-12.964 8.242-5.87 19.554-13.92 25.412-35.194l5.105-18.564L689.573 0zM343.836 536.053c-22.488 2.79-51.173 8.152-68.848 12.875l18.092 17.743c15.258-4.114 49.924-10.467 68.51-12.84l99.49-174.466c1.316-3.755 10.67-38.455 26.323-95.047L343.836 536.053zm13.358-150.267L370.98 361.6c-4.487-47.226-9.323-98.533-9.323-98.533-4.07-43.122-20.307-79.744-47.293-107.112-3.193-3.216-16.057-16.113-19.565-19.566 28.053 27.56 44.942 64.845 49.08 108.91 0 0 8.434 89.032 13.314 140.486" fill="#BA9765"/><path d="M552.046 527.854c-14.617-21.758-16.248-59.235-9.344-83.028L647.925 66.728c1.9-6.365 5.16-8.703 11.132-12.954 8.265-5.87 19.52-13.92 25.412-35.194L689.573.005 558.86 32.017 357.195 385.783c-4.88-51.453-13.313-140.485-13.313-140.485-4.138-44.066-21.027-81.352-49.08-108.91a161.831 161.831 0 0 0-12.91-11.38c-33.788-26.626-78.158-38.86-124.934-34.453-42.582 4.015-82.25 24.13-111.644 56.626C16.102 179.475 0 220.538 0 262.817c0 41.817 13.347 78.193 37.544 102.413 16.877 16.854 37.87 26.513 57.615 26.513 18.687 0 35.385-8.647 46.29-22.173L93.868 542.774c-1.867 6.196-5.825 22.24-12.695 26.85-5.07 3.386-12.39 9.986-18.744 19.33-.225.315-.45.652-.675.99-1.417 2.17-2.777 4.273-4.037 6.746-1.956 3.89-3.79 8.03-5.093 12.74l-9.21 33.036c32.52-19.453 90.517-49.665 141.61-67.038l68.838-252.33 5.758 61.662 15.36 164.165c17.687-4.722 46.37-10.086 68.86-12.875l143.565-251.735c-15.652 56.592-33.474 120.83-35.296 127.352-.1.36-.17.64-.17.64-13.368 47.328-3.192 97.555 25.885 127.938 24.063 25.142 58.875 33.912 97.915 24.692l9.524-2.294-1.202-18.946-9.704-1.023c-2.45-.27-4.745-.877-6.97-1.754-.17-.09-.327-.203-.507-.248-5.644-2.36-10.626-6.567-14.83-12.818m21.07 26.086c-91.29 21.544-130.78-66.048-110.26-138.54l59.673-215.473-185.732 325.7c-20.374 2.755-42.548 7.455-51.7 9.355L259.29 260.286l-83.724 306.338c-40.75 14.752-81.51 34.002-113.904 52.026 12.57-46.203 30.393-27.84 40.513-64.575l90.09-326.667c6.105-22.432-23.985-7.736-16.744-33.89l59.235-14.527c-21.375-27.086-55.59-43.143-92.484-39.658-53.984 5.07-95.284 50.15-95.284 103.188 0 19.576 8.343 37.185 21.713 49.385 7.6-4.98 16.663-7.905 26.457-7.905 26.615 0 48.204 21.59 48.204 48.215 0 26.627-21.59 48.215-48.204 48.215-35.475 0-83.837-39.03-83.837-117.615 0-81.24 64.092-153.213 146.703-160.995 88.11-8.298 165.267 45.64 174.59 144.545l16.697 176.13L566.28 41.834l107.26-26.246c-8.737 31.83-29.92 25.613-36.454 47.978L531.762 441.8c-11.56 40.087-.73 107.665 41.356 112.14M179.874 222.618c.517.202 1.147.473 1.72.72-.08.315-6.342 23.197-12.886 47.012-4.093 14.91-8.23 30.01-11.076 40.366-2.136 7.792-3.553 12.954-3.553 12.954-1.834-12.65-7.647-24.344-16.834-33.553-11.244-11.233-26.2-17.44-42.087-17.44-3.712 0-7.366.484-10.975 1.17-1.046.2-2.08.45-3.115.696-3.452.854-6.87 1.867-10.13 3.306a55.765 55.765 0 0 1-12.64-35.33c0-47.07 37.342-87.436 85.018-91.933 25.614-2.407 50.588 5.7 69.714 22.072l-46.64 11.446-1.733 6.376c-6.5 23.298 9.277 29.718 15.214 32.136" fill="#FFF"/><path d="M531.764 441.797L637.088 63.564c6.533-22.353 27.706-16.135 36.454-47.98L566.282 41.83 349.316 422.49l-16.698-176.128c-9.32-98.893-86.48-152.83-174.59-144.544-82.62 7.78-146.702 79.766-146.702 161.006 0 78.575 48.36 117.615 83.837 117.615 26.615 0 48.204-21.6 48.204-48.216 0-26.637-21.59-48.215-48.204-48.215a48.045 48.045 0 0 0-26.458 7.892c-13.37-12.2-21.713-29.797-21.713-49.384 0-53.04 41.3-98.117 95.284-103.188 36.88-3.486 71.108 12.57 92.484 39.67l-59.235 14.516c-7.24 26.155 22.848 11.47 16.73 33.9l-90.076 326.668c-10.13 36.724-27.942 18.362-40.513 64.564 32.395-18.013 73.155-37.275 113.904-52.027l83.713-306.336L285.1 534.99c9.142-1.91 31.327-6.61 51.7-9.366l185.733-325.7-59.672 215.473c-20.52 72.492 18.97 160.084 110.26 138.54-42.085-4.477-52.913-72.043-41.354-112.14" fill="#001851"/><path d="M9.184 766.04c30.697-24.33 63.36-46.404 97.79-65.81l-3.833-6.185C68.5 713.6 35.654 735.83 4.755 760.32l4.43 5.72z" fill="#BA9765"/></svg>
