<svg xmlns="http://www.w3.org/2000/svg" viewBox="0 0 230.979 230.979"><title>Minnesota Twins primary dark logo</title><path d="M115.853 6.22C55.216 6.22 6.075 55.38 6.075 116.008c0 60.63 49.14 109.778 109.778 109.778 60.63 0 109.778-49.147 109.778-109.778 0-60.63-49.146-109.788-109.777-109.788zm0 216.188c-58.768 0-106.4-47.63-106.405-106.4C9.454 57.253 57.085 9.587 115.853 9.587c58.762 0 106.393 47.666 106.393 106.422 0 58.77-47.63 106.4-106.393 106.4z" fill="#002B5C"/><path d="M47.94 169.86c.287-.24.412-.55.418-.897.012-.477-.244-1.026-.62-1.468l-.68-.752-1.995 1.528.21.31.01-.01c.513.703 1.41 1.504 2.095 1.467.198 0 .372-.047.562-.178zM56.356 182.406l1.015-3.176-3.115 1.242M90.73 202.042l-1.027-.227-.913 3.164 1.284.477c.466.155.95.263 1.397.263.83-.024 1.47-.31 1.695-1.1.043-.142.066-.273.066-.405.026-.99-1.162-1.85-2.5-2.173zM156.578 42.952c.962.5 1.88.727 2.735.727 1.497 0 2.74-.728 3.48-2.053.35-.67.55-1.422.55-2.186-.007-1.562-.813-3.16-2.65-4.165-.986-.513-1.93-.776-2.79-.776-1.532.023-2.792.74-3.52 2.1-.33.597-.502 1.302-.502 2.018 0 1.6.842 3.307 2.698 4.334zM43.91 169.143l-2.612 1.994.746 1.134-.19.132.19-.12c.543.86 1.38 1.48 2.114 1.48.292 0 .578-.083.865-.298.394-.323.56-.716.56-1.205 0-.717-.4-1.613-.99-2.33l-.682-.787zM191.46 63.913l-3.372.585 1.677 2.388M104.74 204.693l2.83.31-1.088-3.15M91.8 198.21l-1.003-.19-.692 2.41.357.11c.443.105.962.225 1.45.225.736-.012 1.29-.203 1.452-.776.03-.096.042-.204.042-.31.022-.658-.736-1.28-1.607-1.47zM186.678 165.358h-.023c-.56 0-1.205.454-1.57 1.074l-.513.872 2.048 1.445.214-.276c.43-.61.848-1.456.842-2.09 0-.357-.108-.63-.394-.858-.203-.108-.4-.168-.604-.168zM190.773 166.994h-.023c-.818 0-1.785.764-2.395 1.708l-.572.895 2.68 1.91.872-1.038c.526-.622.872-1.374.865-2.018 0-.466-.174-.872-.615-1.182-.27-.216-.537-.276-.812-.276zM89.107 179.886c-12.653-5.54-22.788-14.396-29.88-25.092-.84.31-1.784.68-2.798 1.074 2.612 3.986 5.645 7.76 9.12 11.28l.148.132c.543.55 1.092 1.098 1.677 1.634.07.06.155.144.232.227.52.48 1.02.956 1.563 1.42.872.765 1.76 1.517 2.662 2.233 13.126 10.493 28.943 15.663 44.683 15.663h.018c19.858 0 39.638-8.226 53.79-24.293.018-.024.043-.06.054-.072 9.485-10.79 15.12-23.648 17.06-36.862-.1.012-.186.012-.275.035-.818.06-1.725.155-2.67.238-.888 5.636-2.5 11.258-4.887 16.76-15.166 34.815-55.677 50.763-90.498 35.626z" fill="#002B5C"/><path d="M188.965 42.88c-18.72-18.707-44.558-30.286-73.112-30.286-28.56 0-54.4 11.58-73.112 30.285-18.716 18.73-30.284 44.574-30.284 73.128 0 28.566 11.568 54.412 30.28 73.106C61.453 207.83 87.293 219.4 115.853 219.4c28.554 0 54.393-11.57 73.112-30.286 18.717-18.694 30.285-44.54 30.285-73.106 0-28.554-11.567-54.4-30.285-73.13zm8.278 38.76c.913-.06 1.826-.13 2.68-.154-.005 1.623 0 14.874 0 18.54-4.536-.717-7.365-2.747-9.067-5.146 1.612 1.134 3.69 2.006 6.387 2.4V81.64zm-2.548 12.415c-5.76-2.137-6.267-7.46-6.35-9.25-3.785-.096-6.482 1.587-6.255 6.588.1 2.1 1.044 4.596 5.115 7.378 9.628 6.567 9.91 9.42 10.207 12.714.4 4.536-2.764 9.574-7.425 10.075-5.432.417-9.837.835-15.19 1.432-.038-1.062.022-11.9 0-12.642 5.747 2.09 6.248 7.377 6.343 9.156 3.778.05 8.172-1.85 7.944-6.852-.1-2.1-1.36-4.37-9.323-9.717-4.66-3.104-5.86-7.282-5.997-10.505-.203-4.274 2.316-9.48 7.58-10.015 4.853-.395 8.422-.656 13.358-.944.036 1.23-.035 11.843-.005 12.582zm-7.378-.13c.006.13.012.274.03.394.142.44.262.894.394 1.36.102.167.198.383.335.586-2.936-2.173-3.396-3.785-3.443-4.967-.012-.156-.31-3.057 1.563-3.653.28 1.277.752 2.555 1.468 3.772-.495 1.06-.352 2.42-.346 2.505zm3.725-32.076c.286-.05.573-.11.727-.193.173-.083.166-.07.185-.203 0-.07-.018-.166-.06-.298l-.12-.263.25-.178.348-.24 2.238 3.2-4.864 8.858c-.454.787-.853 1.456-.853 2.255 0 .18.012.358.054.55l.066.238-.203.155-.358.24-2.89-4.095.31-.227.252-.18.22.156c.305.203.484.262.484.262.006-.01.018 0 .12-.143.108-.13.27-.43.484-.787l1.218-2.126-2.746-3.89-2.376.465c-.895.166-1.027.25-1.008.466 0 .096.024.215.078.395l.083.274-.22.154-.352.25-2.638-3.747.298-.215.25-.203.216.154c.49.298.92.394 1.38.394.477 0 .978-.106 1.533-.203l7.895-1.276zm-20.634-7.81l.22-.24.252.12c.12.05.232.084.346.084.466.012 1.05-.632 1.486-1.12l4.936-5.433-1.074-.978c-.627-.572-1.403-1.002-2.083-1.062l-.13-.012-.102-.095-.43-.394 2.627-1.397.203.166.084.07.035.072c.083.167.257.323.424.513l6.136 5.6c.257.24.495.417.68.5l.072.036.048.036.424.383-2.567 1.467-.203-.19-.22-.216.077-.214c.018-.048.024-.108.024-.168.013-.31-.357-.787-.78-1.17l-1.105-1.015-5.056 5.55c-.502.55-.77.85-.765 1.29 0 .18.042.382.155.67l.09.226-.156.18-.286.31-3.61-3.297.25-.272zm10.636 25.87h-.012c-.955.108-1.838.323-2.656.656-3.783-6.446-8.63-12.415-14.545-17.596-13.59-11.95-30.476-17.823-47.253-17.823-13.71 0-27.38 3.928-39.19 11.652-5.36 3.46-10.34 7.734-14.768 12.772-4.645 5.3-8.35 11.077-11.18 17.154-.96.108-1.946.19-2.948.31-.12.013-.257.036-.376.06 3.008-6.91 7.102-13.477 12.338-19.434 14.7-16.736 35.305-25.32 55.957-25.32 17.436 0 34.978 6.124 49.106 18.528 6.372 5.586 11.547 12.044 15.528 19.04zm-29.492-44.67c1.04-1.912 3.17-2.926 5.545-2.926 1.516 0 3.145.406 4.68 1.277 2.943 1.577 4.54 4.227 4.548 6.71 0 .86-.203 1.72-.627 2.507-1.104 2.04-3.253 3.033-5.592 3.033H160.088c-1.49 0-3.073-.394-4.54-1.207-2.813-1.504-4.657-4.13-4.663-6.768 0-.907.208-1.79.667-2.626zM132.38 32.73c.925 1.1 2.393 2.03 3.892 2.376.292.083.65.13 1.008.13.938 0 1.76-.322 1.87-.87.022-.084.028-.156.028-.24.066-.8-1.218-1.707-2.67-2.674-1.407-.98-2.958-2.077-2.983-3.82 0-.25.024-.477.083-.716.424-1.66 2.078-2.244 3.778-2.232.818 0 1.66.12 2.483.31 1.032.275 2.077.644 3.007 1.182l.257.12-.543 2.185-.19.787-.472-.67c-.543-.75-1.648-1.443-2.698-1.693-.364-.097-.77-.155-1.134-.155-.77.01-1.284.226-1.402.752-.018.06-.037.13-.037.178-.065.67 1.242 1.648 2.71 2.627 1.414 1.014 2.985 2.088 3.014 3.724 0 .178-.022.38-.07.572-.436 1.66-2.316 2.662-4.627 2.662-.67 0-1.39-.072-2.118-.263-1.265-.31-2.5-.8-3.6-1.468l-.18-.108-.1-3.51.695.812zm-18.42 1.23l.007-.334.28-.06c.722-.132.722-1.134.735-1.982l.197-6.507c.01-.252.023-.478.023-.717-.006-.667-.1-1.145-.633-1.336l-.25-.084.005-.286.012-.394 7.042.203c.18 0 .352.023.49.023.148 0 .273-.024.35-.05l.078-.034h.072l.43.012-.084 2.793-.38-.023-.21-.01-.108-.11c-.5-.512-1.236-.632-2.184-.644-.275-.023-.544-.023-.812-.023-.323 0-.64 0-.93.023l-.084 2.495 2.1.084h.31c.197.01.364-.012.478-.048l.06-.037h.077l.43.037-.078 2.566-.37-.012-.268-.023-.095-.155c-.114-.25-.878-.358-1.54-.358l-1.17-.048-.108 3.366 2.292.263c.215.023.412.035.62.035 1.105 0 2.204-.31 3.022-.872l.1-.072.12.012.62.037-1.342 2.948-9.317-.297.01-.38zM93.15 25.128l.06.31c.077.084.1.095.274.203l.346.276 8.356 5.694-1.17-5.503c-.25-.98-.22-1.325-1.23-1.6l-.238-.07-.048-.24-.083-.405 4.315-.907.09.346.053.287-.178.143c-.526.442-.603.68-.62 1.062 0 .263.06.573.148.92l2.118 9.968-.5-.037c-1.594-.095-2.47-.572-3.57-1.36l-7.794-5.325 1.2 5.634c.25.967.22 1.337 1.24 1.623l.222.06.06.226.083.42-4.343.93-.078-.38-.06-.264.185-.155c.53-.417.61-.692.62-1.086 0-.25-.06-.55-.13-.907l-1.44-6.745c-.238-.98-.238-1.348-1.236-1.623l-.227-.05-.054-.225-.09-.43 3.718-.787zm-23.576 9.43l.137.288c.088.06.124.07.322.13l.406.156 9.574 3.26-2.596-4.966c-.478-.872-.573-1.22-1.493-1.23h-.108l-.25.01-.115-.213-.203-.383 3.928-2.054.167.335.137.264-.144.203c-.275.358-.346.61-.346.847-.012.31.172.67.423 1.17l4.704 9.05-.49.082c-.506.12-.966.167-1.39.167-.853 0-1.563-.215-2.412-.513l-8.928-3.068 2.655 5.11c.478.86.567 1.205 1.54 1.253.03 0 .06-.024.114 0h.215l.11.18.196.382-3.952 2.054-.172-.322-.126-.263.138-.19c.28-.384.358-.634.37-.885 0-.32-.18-.68-.436-1.17l-3.188-6.112c-.465-.86-.584-1.205-1.522-1.24h-.077l-.243.034-.12-.227-.197-.394 3.372-1.74zm-11.55 7.748l.245.287.214.25-.154.252c-.112.155-.137.286-.137.418-.02.465.5 1.073.912 1.54l4.137 5.037c.417.55.984 1.242 1.467 1.194.095 0 .19-.012.317-.048l.244-.095.186.204.268.346-3.646 2.973-.233-.275-.22-.25.155-.252c.12-.155.143-.275.143-.418.03-.44-.506-1.074-.906-1.54l-4.137-5.038c-.436-.573-.98-1.265-1.462-1.23-.097 0-.203.024-.31.084l-.27.095-.18-.216-.267-.323 3.633-2.994zM38.765 62.493l.293.215.028.023c.078.073.33.12.633.168l7.683 1.36-3.38-6.517c-.19-.345-.35-.608-.56-.775l-.31-.226 2.64-3.475.297.238.268.192-.112.274c-.024.07-.037.12-.037.166-.012.155.137.37.286.49l7.586 4.034c.46.25.727.383 1.032.383.18 0 .395-.048.7-.155l.202-.095.16.12.347.274-2.89 3.796-.298-.238-.28-.215.114-.263c.064-.12.07-.25.07-.346.006-.214-.13-.417-.418-.63l-6.25-3.512 4.663 9.002-.4.143c-.675.25-1.182.358-1.69.358-.405 0-.8-.06-1.276-.142l-7.475-1.373 4.393 4.62c.544.572.925.918 1.207.883.106 0 .268-.024.465-.155l.22-.144.204.154.34.275-2.512 3.293-.293-.238-.204-.12v-.203-.06c0-.895-.46-1.384-1.104-2.077l-5.044-5.336c-.27-.3-.483-.538-.746-.538-.108 0-.257.048-.472.155l-.22.106-.192-.13-.34-.264 2.668-3.497zm-14.55 43.74c0-17.143 29.867-17.406 39.37-17.43 13.668-.01 23.206-3.342 24.81-9-2.082 16.687-29.276 18.012-34.88 18.085v47.296c0 3.546 2.662 4.584 3.688 4.62-5.748 2.078-10.868 4.095-15.25 5.98 2.943-1.933 3.374-6.935 3.374-6.935.006.083 0-49.756 0-49.756-4.83.454-16.928 2.33-16.952 9.263v.037c0 2.363 1.32 4.25 2.37 5.025-5.87-.037-6.53-5.325-6.53-7.188zm10.11 6.3c-1.045-.25-3.408-1.407-3.408-4.14v-.038c.01-3.402 5.91-5.456 11.86-6.374v2.782c-5.486.824-9.168 2.47-9.174 5.408v.036c0 .968.298 1.732.722 2.328zm2.943 4.538c-.634.252-2.502.73-3.856.717-2.77-.035-4.853-1.002-6.32-2.507 1.05.443 2.254.693 3.627.693 1.374.012 3.237-.478 3.875-.73v-2.386c.89 1.04 2.167 1.493 2.675 1.563v2.65zm7.77 58.77c-.705 0-1.434-.252-2.084-.61-1.224-.764-2.065-1.945-2.895-3.02l-1.933-2.554.174-.132.18-.13.125.094c.16.108.298.143.454.143.44.013.99-.428 1.413-.75l4.506-3.427c.495-.358 1.158-.823 1.14-1.348 0-.084-.018-.18-.06-.287l-.054-.166.132-.084.21-.166 2.745 3.593c.835 1.1 1.277 2.15 1.277 3.02.006.645-.263 1.23-.776 1.624-.346.262-.74.38-1.134.38-.394 0-.787-.095-1.17-.286.197.513.304 1.015.304 1.516.006.812-.292 1.576-.98 2.09-.46.345-1.007.5-1.575.5zm12.164 11.138c-.178.596-.363 1.122-.363 1.67 0 .287.055.61.204.932l.065.143-.102.108-.185.192-3.05-2.83.15-.154.142-.167.143.072c.257.12.412.155.49.155.1.024.19-.155.447-.955l.68-2.09-3.127-2.9-1.994.836c-.627.263-.872.44-.84.61-.007.082.028.25.16.465l.083.13-.12.12-.178.204-2.777-2.58.155-.154.137-.155.138.06c.286.108.55.155.793.155.597 0 1.158-.263 1.785-.524l6.47-2.52c.467-.167.82-.37.79-.55 0-.07-.032-.18-.14-.345l-.094-.132.12-.13.185-.204 2.36 2.207-2.526 8.33zm14.337 3.02l-.268.394-.137-.454c-.238-.824-.95-1.708-1.766-2.233-.48-.32-1.112-.597-1.6-.597-.347 0-.59.108-.783.383-.083.132-.125.275-.125.442-.072 1.35 2.948 3.797 2.996 5.92 0 .382-.095.74-.317 1.086-.506.753-1.455 1.134-2.554 1.134-1.08 0-2.32-.358-3.52-1.134-.932-.62-1.798-1.348-2.502-2.22l-.084-.095.83-2.567.227.573c.44 1.193 1.396 2.386 2.536 3.115.466.323 1.205.61 1.79.61.424-.025.734-.132.92-.42.112-.177.166-.345.166-.548.053-1.433-2.896-3.642-2.943-5.874 0-.418.126-.86.394-1.277.467-.716 1.225-1.002 2.025-1.002 1.133 0 2.404.537 3.516 1.265.776.512 1.492 1.12 2.113 1.802l.12.12-1.032 1.575zm11.026 5.754l-.203-.097-.132-.06-.034-.083c-.24-.62-.812-.967-1.56-1.313-.512-.228-1.02-.454-1.503-.61l-1.002 2.15 1.755.81c.25.11.5.227.67.227h.04l.043.024.25.12-.864 1.85-.197-.095-.16-.083-.018-.108c-.025-.335-.64-.656-1.16-.896l-1.003-.477-1.325 2.842 1.826 1.04c.753.416 1.636.655 2.472.655.275 0 .53-.037.782-.072l.077-.023.065.035.358.155-1.928 1.78-7.187-3.343.095-.193.09-.203.166.024c.053.023.094.023.136.023.61.013.96-.81 1.236-1.407l2.387-5.145c.19-.418.465-.93.465-1.36 0-.204-.078-.42-.28-.6l-.126-.105.076-.167.114-.25 5.45 2.554c.29.13.542.274.715.274h.042l.042.012.256.108-.93 2.008zm13.19 4.667c-.25.87-.955 1.276-1.79 1.467.996.633 1.7 1.528 1.7 2.59 0 .24-.023.478-.095.704-.363 1.23-1.652 1.947-3.013 2.08-.172.034-.358.034-.55.034-1.235 0-2.422-.394-3.55-.716l-3.087-.895.06-.227.066-.18.155-.01c.736.01.94-.885 1.142-1.613l1.57-5.443c.1-.37.274-.824.274-1.218-.01-.298-.095-.537-.388-.74l-.137-.072.05-.155.07-.274 4.34 1.242c2.035.597 3.253 1.636 3.265 2.89 0 .18-.025.346-.078.537zm16.778 10.17l-.03.25-4.136-.454.03-.226.023-.192.15-.035c.532-.155.532-.203.532-.286 0-.143-.108-.454-.275-.93l-.693-2.078-4.255-.467-1.082 1.886c-.238.393-.375.69-.364.823 0 .143.054.263.455.43l.153.07-.03.156-.028.273-3.755-.38.024-.24.018-.202.143-.036c1.002-.298 1.348-1.002 1.856-1.838l3.678-5.897c.174-.3.358-.598.34-.753-.005-.13-.023-.227-.352-.358l-.16-.05.01-.166.038-.286 3.21.346 2.96 8.226c.33.895.533 1.67 1.428 2.16l.138.083-.026.166zm12.6-.31l-7.788.453-.012-.214-.018-.204.167-.072c.472-.167.573-.597.58-1.134 0-.274-.032-.513-.044-.74l-.33-5.66c-.034-.728-.034-1.67-.757-1.825l-.16-.037-.007-.155-.023-.274 3.91-.228.005.227.006.225-.155.037c-.46.19-.562.597-.574 1.133 0 .263.035.526.048.764l.375 6.314 2.25-.01c1.175 0 2.172-.384 2.995-1.04l.066-.048h.067l.406-.023-1.008 2.506zm13.77-2.353l-7.657 1.577-.042-.203-.043-.203.144-.083c.358-.19.435-.466.44-.824 0-.37-.107-.787-.18-1.122l-1.144-5.54c-.15-.728-.28-1.635-1.02-1.682l-.175-.012-.035-.166-.048-.275 3.826-.787.035.214.048.203-.143.084c-.34.203-.424.466-.43.835-.005.358.114.776.186 1.11l1.29 6.21 2.226-.336c1.17-.178 2.1-.716 2.818-1.468l.06-.072.06-.01.41-.085-.626 2.637zm23.54-9.632l-.06.07c-.637.694-1.443 1.243-2.302 1.684-1.505.75-2.944 1.146-4.22 1.146h-.018c-2.018 0-3.67-.98-4.572-2.794-.376-.74-.556-1.528-.556-2.28 0-2.184 1.493-4.238 4.006-5.503 1.002-.502 2.095-.86 3.14-1.146l.19-.06.854 1.72.166.322h-.518c-1.05 0-2.137.226-3.116.716-1.56.787-2.4 2.065-2.4 3.39 0 .5.12 1.004.37 1.505.65 1.288 1.97 2.112 3.516 2.125.686 0 1.42-.167 2.172-.55 1.17-.572 2.172-1.527 2.93-2.518l.043-.048.04-.012.382-.19-.047 2.42zm5.028-2.783l-.138-.178-.12-.18.102-.13c.125-.168.172-.312.172-.48.018-.453-.418-.99-.722-1.407l-3.294-4.596c-.352-.512-.812-1.192-1.337-1.17-.09 0-.178.013-.268.05l-.167.047-.1-.13-.15-.228 3.17-2.28.13.177.12.18-.1.143c-.114.167-.16.298-.16.466-.013.418.417 1.002.732 1.397l3.683 5.156 1.91-1.206c.997-.633 1.624-1.504 1.976-2.495l.024-.06.06-.05.33-.237.494 2.65-6.346 4.56zm16.89-14.157l-.16-.167-.328-.334c-.16 1.11-.89 2.21-1.683 2.996-.877.896-2.034 1.588-3.222 1.66h-.143c-1.314 0-2.04-.8-2.764-1.517l-2.84-2.83c-.383-.417-.902-.99-1.373-.966-.12 0-.24.012-.37.083l-.15.095-.113-.12-.203-.19 2.76-2.747.154.144.155.166-.08.155c-.07.12-.094.25-.094.358-.017.467.538 1.005.938 1.386l2.84 2.84c.688.694 1.32.968 1.923.968.61 0 1.23-.298 1.87-.92.637-.63 1.067-1.49 1.067-2.267v-.18c-.043-.524-.246-.67-.633-1.085l-3.204-3.2c-.394-.417-.913-.967-1.385-.955-.118 0-.237.024-.363.095l-.143.084-.125-.132-.187-.178 2.692-2.71.15.06.268.13-.12.204c-.07.143-.096.263-.096.383-.017.477.532 1.002.95 1.396l4.005 4.01c.39.43.9.98 1.38.956.12 0 .243-.035.382-.108l.15-.083.118.12.192.202-2.21 2.198zm9.51-12.654c-.33 1.397-1.22 2.567-2.012 3.654l-1.863 2.615-.178-.12-.175-.12.048-.156c.03-.108.042-.19.042-.274.03-.513-.656-.98-1.18-1.314l-4.616-3.307c-.413-.312-.95-.728-1.39-.717-.162 0-.312.024-.48.18l-.125.083-.15-.083-.208-.167 2.61-3.677c1.026-1.432 2.13-2.233 3.17-2.256.393 0 .78.155 1.12.394.58.406.807 1.04.8 1.67 0 .156-.012.324-.035.502.686-.55 1.468-.883 2.232-.883.49 0 .973.13 1.42.453.758.537 1.1 1.468 1.1 2.447 0 .358-.05.727-.133 1.074zm-2.68-41.793c-.06 0-.448.048-1.063.095-1.924 13.967-7.827 27.552-17.813 38.93h-.006c-14.687 16.735-35.286 25.32-55.93 25.32h-.02c-17.434 0-34.982-6.125-49.098-18.505-1.08-.98-2.1-1.946-3.116-2.913-4.03-3.986-7.503-8.32-10.452-12.928-4.888 1.898-10.23 4-11.722 4.68v-3.033c5.353-2.327 13.363-5.348 18.037-7.043v-3.056c-.043 0-.484-.07-1.045-.238-1.164-.323-2.913-1.147-2.913-3.033v-44.837c8.876-.466 34.28-3.307 34.953-22.013.023-.406.048-.812.035-1.242l-3.886-1.264c-.143 6.888-9.514 10.42-23.57 10.445-1.957 0-5.08 0-8.75.204C70.92 53.67 110.147 39.01 143.99 53.742c13.883 6.04 24.752 16.14 31.855 28.244-2.996 2.34-4.638 6.244-4.638 9.98 0 .19.006.383.006.573.227 4.81 2.32 8.857 6.106 11.77.328.25.662.5 1.02.752 1.522 1.015 2.758 1.91 3.772 2.662 2.066 1.588 3.187 2.698 3.785 3.533.483.645.626 1.122.644 1.505.09 1.85-.817 2.818-1.753 3.342-.56.335-1.122.49-1.493.573-.34-1.552-1.008-3.164-2.077-4.608-1.768-2.424-4.644-4.37-8.965-4.86v18.6c.394-.048.8-.095 1.205-.132.484-.07.98-.12 1.48-.155 5.193-.56 10.82-1.086 15.077-1.42 6.04-.454 9.967-6.59 9.967-11.89 0-2.947-.482-5.442-2.87-8.368 4.58 4.214 5.188 7.294 5.188 11.114 0 5.3-4.6 11.34-11.107 11.947z" fill="#002B5C"/><path d="M115.853 9.586c-58.768 0-106.4 47.666-106.405 106.422.006 58.768 47.637 106.4 106.405 106.4 58.762 0 106.393-47.632 106.393-106.4 0-58.756-47.63-106.422-106.393-106.422zm73.112 179.528c-18.72 18.717-44.558 30.285-73.112 30.285-28.56 0-54.4-11.57-73.117-30.286-18.713-18.694-30.28-44.54-30.28-73.106 0-28.554 11.568-54.4 30.285-73.13 18.714-18.705 44.553-30.284 73.113-30.284 28.554 0 54.393 11.58 73.112 30.285 18.717 18.73 30.285 44.574 30.285 73.128 0 28.567-11.567 54.412-30.285 73.106z" fill="#FFF"/><path d="M36.63 66.384l.22-.106c.215-.108.364-.155.472-.155.263 0 .477.238.746.537l5.044 5.336c.644.693 1.104 1.182 1.104 2.078v.262l.203.12.292.238 2.512-3.294-.34-.275-.203-.155-.22.144c-.197.13-.358.155-.465.155-.28.034-.663-.312-1.207-.885l-4.393-4.62 7.474 1.374c.476.082.87.142 1.276.142.507 0 1.015-.108 1.688-.358l.4-.143-4.66-9 6.248 3.51c.287.214.424.417.418.632 0 .095-.006.227-.07.346l-.115.263.28.216.3.238 2.888-3.796-.346-.275-.16-.12-.204.096c-.304.107-.52.154-.7.154-.303 0-.57-.132-1.03-.383l-7.587-4.034c-.15-.12-.298-.334-.287-.49 0-.047.01-.094.036-.166l.112-.274-.268-.192-.298-.238-2.64 3.474.31.226c.21.167.37.43.562.776l3.38 6.518-7.683-1.36c-.303-.05-.554-.096-.632-.168l-.03-.023-.292-.216L36.1 65.99l.34.264.19.13zM54.835 45.84l.27-.095c.107-.06.213-.084.31-.084.482-.034 1.025.657 1.46 1.23l4.138 5.04c.4.465.936 1.098.907 1.54 0 .142-.024.262-.143.417l-.155.25.22.252.233.274 3.646-2.973-.267-.345-.186-.203-.244.095c-.126.035-.22.048-.317.048-.483.048-1.05-.644-1.468-1.194L59.1 45.054c-.41-.466-.93-1.074-.912-1.54 0-.13.024-.262.137-.417l.155-.25-.214-.252-.246-.287-3.634 2.996.268.323.18.214zM66.516 36.923l.244-.035h.077c.938.035 1.057.38 1.522 1.24l3.187 6.113c.257.49.435.85.435 1.17-.01.252-.09.502-.37.885l-.137.19.126.264.173.322 3.952-2.054-.197-.383-.108-.18h-.215c-.054-.023-.083 0-.114 0-.972-.047-1.06-.393-1.54-1.252l-2.654-5.11 8.928 3.068c.848.3 1.56.514 2.412.514.424 0 .884-.048 1.39-.167l.49-.083-4.704-9.05c-.25-.5-.435-.858-.423-1.17 0-.237.07-.488.345-.846l.143-.203-.137-.263-.166-.335-3.928 2.054.203.384.113.214.25-.01h.11c.918.01 1.014.357 1.492 1.23l2.596 4.964-9.573-3.26-.406-.154c-.197-.06-.232-.072-.322-.13l-.137-.288-3.372 1.743.197.394.12.226zM89.573 26.573l.226.048c.996.276.996.645 1.235 1.624l1.44 6.745c.07.357.13.655.13.906-.01.394-.09.67-.62 1.087l-.186.155.06.263.077.382 4.344-.93-.082-.42-.06-.225-.22-.06c-1.022-.286-.99-.656-1.242-1.623l-1.2-5.634 7.795 5.324c1.1.788 1.976 1.265 3.57 1.36l.5.038-2.117-9.97c-.09-.345-.15-.655-.15-.918.02-.38.096-.62.622-1.062l.178-.143-.054-.287-.09-.346-4.315.907.083.406.048.238.238.072c1.01.274.98.62 1.23 1.6l1.17 5.502-8.356-5.694-.346-.275c-.172-.108-.197-.12-.274-.203l-.06-.31-3.72.788.09.43.055.225zM124.61 31.694l-.622-.037-.12-.012-.1.072c-.818.56-1.917.872-3.02.872-.21 0-.407-.013-.622-.036l-2.292-.263.108-3.365 1.17.048c.663 0 1.427.108 1.54.358l.095.156.27.023.368.01.078-2.565-.43-.037h-.077l-.06.037c-.114.035-.28.06-.478.048h-.31l-2.1-.084.083-2.496c.293-.023.61-.023.932-.023.268 0 .537 0 .812.024.95.012 1.683.132 2.184.645l.108.107.21.01.38.025.084-2.793-.43-.013h-.072l-.077.035c-.077.024-.202.048-.35.048-.138 0-.31-.023-.49-.023l-7.043-.203-.012.394-.006.286.25.084c.532.19.627.67.633 1.336 0 .24-.012.466-.024.716l-.198 6.507c-.012.847-.012 1.85-.735 1.982l-.28.06-.006.333-.01.383 9.316.298 1.343-2.95zM131.97 35.538c1.097.67 2.333 1.158 3.598 1.468.73.19 1.45.263 2.118.263 2.31 0 4.19-1.003 4.626-2.663.05-.19.072-.394.072-.572-.03-1.636-1.6-2.71-3.014-3.725-1.468-.98-2.775-1.958-2.71-2.627 0-.048.018-.12.037-.178.12-.526.632-.74 1.402-.752.363 0 .77.06 1.133.155 1.05.25 2.155.942 2.698 1.694l.473.67.19-.788.544-2.186-.257-.12c-.93-.537-1.975-.906-3.008-1.18-.823-.192-1.665-.31-2.483-.31-1.7-.013-3.355.572-3.78 2.23-.058.24-.082.467-.082.717.024 1.743 1.576 2.84 2.984 3.82 1.45.967 2.735 1.874 2.67 2.675 0 .083-.007.155-.03.238-.108.55-.93.872-1.87.872-.357 0-.715-.048-1.007-.13-1.5-.348-2.967-1.278-3.892-2.377l-.692-.812.102 3.51.177.108zM155.546 44.634c1.468.813 3.05 1.207 4.54 1.207h.019c2.34 0 4.49-.99 5.592-3.032.424-.787.627-1.647.627-2.506-.006-2.484-1.605-5.134-4.55-6.71-1.533-.872-3.163-1.277-4.678-1.277-2.375 0-4.506 1.015-5.545 2.925-.46.836-.668 1.72-.668 2.626.008 2.638 1.852 5.264 4.664 6.768zm-1.164-8.034c.727-1.36 1.988-2.077 3.52-2.1.862 0 1.804.262 2.79.775 1.837 1.004 2.643 2.603 2.65 4.166 0 .765-.2 1.518-.55 2.187-.74 1.325-1.983 2.052-3.48 2.052-.854 0-1.772-.227-2.735-.728-1.856-1.027-2.698-2.734-2.698-4.333 0-.718.173-1.423.502-2.02zM174.054 57.3l.155-.18-.09-.226c-.114-.287-.155-.49-.155-.67-.006-.44.263-.74.764-1.29l5.055-5.55 1.104 1.015c.423.382.794.858.78 1.17 0 .06-.005.12-.023.167l-.077.215.22.215.203.19 2.567-1.467-.424-.383-.048-.035-.07-.035c-.187-.084-.425-.263-.682-.502l-6.135-5.6c-.166-.19-.34-.345-.423-.512l-.035-.07-.084-.073-.203-.166-2.626 1.396.428.394.1.095.133.01c.68.06 1.457.49 2.084 1.063l1.074.98-4.936 5.43c-.436.49-1.02 1.134-1.486 1.122-.114 0-.227-.035-.346-.083l-.25-.12-.222.24-.25.274 3.61 3.296.286-.312zM181.61 63.328c-.46 0-.89-.095-1.378-.394l-.215-.155-.25.202-.3.215 2.64 3.748.35-.25.222-.156-.084-.275c-.054-.18-.078-.298-.078-.394-.018-.214.114-.298 1.008-.465l2.376-.466 2.746 3.89-1.218 2.126c-.215.358-.377.656-.484.787-.1.143-.114.132-.114.143 0 0-.185-.06-.49-.262l-.22-.155-.25.178-.312.227 2.89 4.094.358-.24.203-.154-.065-.238c-.042-.192-.054-.37-.054-.55 0-.8.4-1.468.854-2.255l4.865-8.858-2.24-3.2-.346.24-.25.178.12.263c.04.132.06.227.06.298-.02.132-.013.12-.187.203-.154.084-.44.143-.727.192l-7.897 1.275c-.553.096-1.054.203-1.532.203zm9.85.585l-1.695 2.973-1.677-2.39 3.372-.583zM47.29 171.733c.383.19.776.286 1.17.286.394 0 .788-.12 1.134-.382.513-.394.782-.98.776-1.623 0-.872-.443-1.922-1.277-3.02l-2.746-3.594-.21.167-.13.084.053.167c.042.108.06.203.06.287.018.526-.644.99-1.14 1.348l-4.507 3.426c-.424.323-.973.764-1.414.752-.156 0-.294-.035-.455-.143l-.126-.095-.18.13-.173.133 1.934 2.555c.83 1.074 1.672 2.255 2.896 3.02.65.357 1.38.608 2.083.608.566 0 1.115-.154 1.575-.5.687-.514.985-1.278.98-2.09 0-.5-.108-1.002-.305-1.515zm-2.268 1.73c-.287.216-.573.3-.865.3-.735 0-1.57-.622-2.114-1.48l-.19.12.19-.132-.746-1.133 2.613-1.994.68.787c.59.716.992 1.612.992 2.33 0 .488-.166.88-.56 1.204zm.262-4.894l-.01.01-.21-.31 1.994-1.527.68.752c.377.443.633.99.62 1.468-.005.347-.13.658-.417.896-.19.13-.363.177-.56.177-.687.037-1.583-.764-2.096-1.468zM57.186 176.64l-.12.13.095.133c.11.166.14.274.14.346.028.177-.324.38-.79.548l-6.47 2.52c-.626.26-1.187.523-1.784.523-.244 0-.507-.047-.793-.154l-.138-.06-.137.155-.155.156 2.776 2.58.177-.204.12-.12-.084-.13c-.13-.216-.166-.384-.16-.467-.03-.167.214-.346.84-.61l1.995-.835 3.128 2.9-.68 2.09c-.258.8-.347.98-.448.955-.078 0-.233-.036-.49-.155l-.143-.07-.143.166-.15.155 3.05 2.83.186-.19.1-.11-.064-.142c-.15-.323-.203-.645-.203-.93 0-.55.186-1.076.364-1.672l2.525-8.333-2.36-2.208-.184.205zm-.83 5.766l-2.1-1.934 3.115-1.242-1.014 3.176zM70.342 186.5c-1.11-.73-2.382-1.265-3.516-1.265-.8 0-1.56.286-2.024 1.002-.268.418-.394.86-.394 1.277.048 2.232 2.996 4.44 2.942 5.874 0 .203-.054.37-.166.55-.186.286-.496.393-.92.417-.585 0-1.324-.286-1.79-.61-1.14-.728-2.095-1.92-2.536-3.115l-.227-.573-.83 2.567.085.095c.704.87 1.57 1.6 2.5 2.22 1.2.775 2.442 1.133 3.522 1.133 1.1 0 2.048-.38 2.555-1.134.22-.347.317-.705.317-1.086-.05-2.125-3.07-4.572-2.997-5.92 0-.168.042-.31.125-.442.192-.275.436-.383.782-.383.49 0 1.122.274 1.6.596.818.526 1.528 1.41 1.766 2.233l.137.453.27-.395 1.032-1.576-.12-.12c-.622-.68-1.338-1.29-2.113-1.802zM83.198 193.626h-.042c-.174 0-.424-.143-.716-.274l-5.45-2.555-.113.25-.077.168.125.106c.203.18.28.396.28.6 0 .428-.274.94-.465 1.36l-2.387 5.145c-.275.597-.627 1.42-1.236 1.408-.042 0-.083 0-.137-.023l-.167-.024-.09.203-.094.19 7.186 3.343 1.928-1.78-.358-.154-.066-.036-.077.023c-.252.035-.507.072-.782.072-.835 0-1.718-.24-2.47-.657l-1.827-1.04 1.325-2.84 1.004.477c.518.24 1.133.56 1.158.896l.017.108.16.083.198.095.865-1.85-.25-.12-.043-.023h-.042c-.167 0-.418-.12-.67-.227l-1.753-.812 1.002-2.148c.483.155.99.38 1.504.61.747.345 1.32.69 1.56 1.312l.034.084.132.06.203.096.93-2.006-.257-.108-.042-.014zM92.57 196.993l-4.34-1.24-.072.273-.048.155.137.073c.292.203.377.44.388.74 0 .394-.172.848-.274 1.218l-1.57 5.444c-.202.728-.405 1.623-1.14 1.612l-.155.01-.066.18-.06.228 3.086.895c1.128.322 2.315.715 3.55.715.192 0 .378 0 .55-.035 1.362-.132 2.65-.848 3.014-2.078.072-.226.095-.465.095-.704 0-1.062-.704-1.957-1.7-2.59.835-.19 1.54-.597 1.79-1.468.054-.19.078-.358.078-.538-.01-1.254-1.23-2.293-3.264-2.89zm.595 7.627c-.226.788-.865 1.074-1.694 1.1-.448 0-.93-.11-1.396-.264l-1.284-.478.913-3.164 1.027.227c1.337.324 2.525 1.183 2.5 2.173 0 .134-.022.264-.065.407zm.198-4.63c-.16.572-.716.763-1.45.775-.49 0-1.01-.12-1.452-.226l-.356-.11.692-2.41 1.002.19c.872.19 1.63.812 1.606 1.468 0 .108-.01.215-.04.31zM110.994 208.18l-2.96-8.227-3.21-.346-.038.286-.012.167.16.048c.33.13.348.227.353.358.018.155-.166.454-.34.752l-3.677 5.897c-.507.836-.853 1.54-1.856 1.838l-.143.037-.017.203-.024.238 3.754.382.03-.274.028-.155-.154-.072c-.4-.165-.455-.285-.455-.428-.01-.132.126-.43.364-.824l1.08-1.886 4.256.466.693 2.077c.167.478.275.788.275.93 0 .084 0 .132-.53.287l-.15.035-.024.192-.03.225 4.138.454.03-.252.023-.167-.138-.082c-.894-.488-1.097-1.264-1.426-2.16zm-6.255-3.487l1.742-2.84 1.087 3.15-2.83-.31zM125.672 207.796l-.066.048c-.823.656-1.82 1.04-2.996 1.04l-2.25.01-.375-6.315c-.012-.24-.048-.502-.048-.765.012-.537.114-.942.573-1.133l.155-.037-.006-.226-.007-.228-3.91.227.024.273.006.155.16.037c.723.155.723 1.098.76 1.826l.327 5.66c.012.226.043.466.043.74-.006.538-.108.967-.58 1.134l-.166.072.018.203.012.213 7.79-.454 1.007-2.507-.406.023h-.066zM139.06 205.384l-.06.072c-.716.752-1.648 1.29-2.818 1.468l-2.226.335-1.29-6.21c-.072-.334-.19-.752-.186-1.11.006-.37.09-.632.43-.835l.143-.084-.048-.202-.035-.214-3.826.787.048.276.035.166.174.012c.74.048.873.955 1.022 1.683l1.145 5.54c.072.334.18.752.18 1.12-.006.36-.083.634-.44.825l-.145.083.043.204.042.202 7.657-1.577.627-2.638-.41.084-.06.014zM162.07 196.073l-.043.048c-.758.992-1.76 1.947-2.93 2.52-.752.38-1.486.55-2.172.55-1.546-.013-2.865-.837-3.516-2.126-.252-.5-.37-1.004-.37-1.505 0-1.326.84-2.603 2.4-3.39.978-.49 2.064-.717 3.115-.717h.518l-.166-.323-.854-1.72-.19.06c-1.045.287-2.138.645-3.14 1.146-2.513 1.265-4.006 3.32-4.006 5.503 0 .75.18 1.54.556 2.28.9 1.814 2.554 2.793 4.572 2.793h.017c1.277 0 2.716-.395 4.22-1.147.86-.44 1.666-.99 2.304-1.683l.06-.07.048-2.425-.38.19-.044.015zM172.992 188.54l-.06.05-.023.06c-.353.99-.98 1.86-1.976 2.494l-1.91 1.205-3.684-5.157c-.315-.395-.746-.98-.733-1.397 0-.167.048-.298.16-.466l.102-.143-.12-.18-.132-.178-3.17 2.28.15.226.1.13.167-.047c.09-.036.178-.05.268-.05.526-.022.985.657 1.337 1.17l3.294 4.597c.304.418.74.955.722 1.408 0 .167-.048.31-.172.478l-.1.13.118.18.138.18 6.344-4.56-.495-2.65-.328.238zM186.26 178.836l-.148.083c-.138.07-.263.107-.383.107-.48.023-.99-.526-1.38-.955l-4.005-4.012c-.418-.394-.967-.92-.95-1.396 0-.12.024-.24.097-.383l.12-.202-.27-.13-.15-.06-2.69 2.71.185.177.125.132.143-.084c.126-.07.246-.095.364-.095.47-.012.99.538 1.384.956l3.205 3.2c.387.416.59.56.632 1.084v.18c0 .776-.43 1.636-1.068 2.268-.64.62-1.26.92-1.87.92-.602 0-1.234-.275-1.92-.968l-2.842-2.84c-.4-.382-.955-.92-.938-1.386 0-.108.024-.238.095-.358l.077-.155-.155-.167-.155-.144-2.758 2.745.202.192.114.12.15-.096c.13-.07.25-.082.37-.082.47-.024.99.55 1.372.967l2.84 2.83c.723.715 1.45 1.516 2.765 1.516h.143c1.188-.07 2.346-.763 3.223-1.66.792-.786 1.52-1.885 1.682-2.995l.328.334.16.166 2.21-2.197-.192-.204-.117-.12zM192.904 165.18c-.447-.323-.93-.453-1.42-.453-.764 0-1.546.334-2.232.883.023-.178.035-.346.035-.5.006-.633-.22-1.266-.8-1.672-.34-.238-.728-.394-1.12-.394-1.04.023-2.144.824-3.17 2.255l-2.61 3.676.21.167.148.083.126-.083c.168-.155.318-.18.48-.18.44-.01.977.406 1.39.716l4.614 3.306c.524.335 1.21.8 1.18 1.314 0 .083-.01.166-.04.274l-.05.155.175.12.177.12 1.863-2.616c.793-1.087 1.683-2.257 2.01-3.653.085-.346.133-.715.133-1.073 0-.98-.34-1.91-1.1-2.447zm-6.07 3.294l-.215.275-2.05-1.446.514-.872c.364-.62 1.008-1.074 1.57-1.074h.018c.208 0 .406.06.61.167.285.227.393.5.393.86.007.633-.41 1.48-.842 2.09zm4.5 1.994l-.872 1.04-2.68-1.912.572-.895c.61-.943 1.577-1.707 2.395-1.707h.016c.28 0 .55.06.818.275.44.31.615.716.615 1.182.006.645-.34 1.397-.866 2.018zM116.408 42.342c-20.65 0-41.256 8.584-55.957 25.32-5.235 5.957-9.328 12.524-12.337 19.435.12-.024.257-.048.376-.06 1-.12 1.987-.203 2.947-.31 2.83-6.077 6.535-11.855 11.18-17.155 4.428-5.038 9.405-9.31 14.766-12.773 11.812-7.725 25.48-11.653 39.19-11.653 16.778 0 33.665 5.874 47.255 17.823 5.915 5.182 10.762 11.15 14.545 17.596.818-.334 1.702-.55 2.656-.656h.01c-3.98-6.996-9.155-13.454-15.53-19.04-14.125-12.404-31.667-18.528-49.102-18.528zM187.742 95.655v.023c-.132-.466-.252-.92-.395-1.36l.006.01c.137.43.257.874.39 1.327z" fill="#FFF"/><path d="M58.738 102.794v3.282c4.053-1.313 12.636-3.998 16.24-5.085v2.854c.562-.167 1.088-.323 1.572-.478v-2.83c3.653-1.06 13.19-3.724 16.916-4.738v2.865c.572-.155 1.092-.298 1.576-.418V95.38c3.998-1.038 12.84-3.21 16.856-4.166v2.876c.567-.13 1.085-.25 1.576-.37v-2.864l1.975-.454c4.01-.896 8.05-1.755 12.026-2.567l3.044-.632v2.9l1.57-.31v-2.888c4.053-.764 10.458-1.934 14.402-2.59l7.372-1.17c4.178-.62 7.413.74 9.61 2.542.674.56 1.24 1.17 1.718 1.815.335.238.663.477.967.74 3.39 2.804 4.094 7.055 4.088 10.146v21.63c-.006.49-.012.967.114 1.47l.406.19v.692c.304.418.764.848 1.486 1.277V107.21c4.32.488 7.198 2.434 8.965 4.857.32.215.608.466.894.705 1.14.99 2.03 2.125 2.675 3.33.935-.524 1.842-1.49 1.753-3.342-.018-.383-.16-.86-.644-1.505-.6-.835-1.72-1.945-3.786-3.533-1.015-.752-2.25-1.648-3.772-2.662-.358-.25-.692-.5-1.02-.752-3.786-2.913-5.88-6.96-6.107-11.77 0-.192-.006-.384-.006-.574 0-3.736 1.64-7.64 4.637-9.98-7.102-12.104-17.972-22.204-31.855-28.244-33.843-14.73-73.07-.072-89.156 32.732 3.67-.203 6.793-.203 8.75-.203 14.056-.025 23.427-3.558 23.57-10.446l3.886 1.265c.012.43-.012.835-.035 1.24l2.09.693c-.29 19.45-25.287 23.34-34.36 23.77zM160.505 65.01c.084-.058.192-.047.275.013.61.55 1.193 1.087 1.772 1.636l.06.107c.06.19.114.406.143.62.244.037.478.084.735.12l.112.037c1.618 1.36 4.077 3.772 4.095 6.84 0 .465-.06.966-.19 1.492-.036.095-.127.167-.228.167h-.036c-.633-.108-1.277-.19-1.928-.275-.066-.023-.12-.035-.16-.095-.036-.048-.043-.108-.036-.178.09-.323.166-.764.166-1.29 0-1.456-.578-3.63-3.377-6.112-.324-.108-.646-.19-1.022-.275-.06-.023-.114-.06-.143-.108-.037-.06-.037-.13-.03-.178.053-.143.094-.358.094-.62 0-.395-.096-.943-.382-1.624-.047-.11-.006-.217.077-.277zm-5.526-2.947c0-.07.028-.13.076-.178.048-.024.12-.035.186-.024.61.133.775.085 1.414.264.083.024.143.072.16.18.21 1.062.467 2.733.467 4.37v.25s-.024.035-.03.048c.62.19 1.217.323 1.217.323l.108.07c.018.025 2.114 1.972 2.12 5.492 0 .658-.072 1.397-.27 2.186-.023.106-.12.19-.22.19-.017 0-.03-.023-.042-.023l-2.53-.358c-.066-.01-.126-.06-.16-.12-.036-.047-.05-.12-.036-.202.19-.705.423-1.636.423-2.675-.006-1.493-.447-3.164-2.13-4.81 0 0-.007-.012-.02-.012-.004-.037-.07 0-.1-.19v-.013c-.274-.072-.56-.132-.924-.215-.115-.024-.187-.143-.162-.263.146-.85.366-2.26.45-4.29zm-6.006-1.612c.006-.047.035-.107.083-.154.054-.036.126-.048.185-.036.604.13.944.083 1.594.263.078.01.137.083.16.154.03.192.05.383.05.573 0 1.182-.496 2.686-.514 4.07l-.006.025c.5.07.764.108 1.714.203.09.012.166.07.197.143.01.013 1.288 2.985 1.288 6.208 0 .716-.065 1.48-.232 2.21-.024.107-.12.19-.232.19h-.023l-2.13-.31c-.11-.024-.198-.11-.204-.192-.137-1.623.31-4.704-1.385-8.19-.035-.083-.035-.154.012-.24-.55-.118-1.045-.202-1.714-.38-.1 0-.178-.12-.16-.238.184-.965 1.24-2.315 1.318-4.297zm-3.205 3.917c.476 1.42.918 3.497.918 5.67 0 .8-.06 1.637-.21 2.448-.017.108-.12.19-.24.19h-.034c-.847-.13-1.557-.262-2.375-.382-.127 0-.21-.12-.204-.25 0 0 .035-.585.035-1.517 0-1.6-.113-4.214-.734-6.375-.023-.082-.005-.165.048-.214.054-.07.132-.106.215-.083.972.108 1.42.215 2.38.358.085.014.17.074.2.157zm-5.636-1.098c.61-1.1 1.39-3.177 2.536-4.3l.203-.07 1.737.286c.066.023.132.048.167.108.03.06.042.13.024.203-.543 1.802-.74 2.112-1.767 4.32-.042.084-.125.144-.214.144h-.032c-.996-.13-1.504-.226-2.477-.333-.077 0-.148-.06-.18-.12-.038-.083-.038-.155.004-.238zm-4.363-5.66l.15-.07c.698.082 1.38.18 2.077.274.084.023.155.083.186.19.023.073-.012.156-.084.204-.985.776-1.815 1.564-2.788 3.915-.012.024-.03.035-.035.048.663.11 1.313.264 1.982.36.088 0 .154.07.177.166.466 1.563 1.158 4.178 1.158 6.685 0 .598-.042 1.16-.13 1.732-.007.07-.043.13-.09.155-.035.01-.072.035-.126.035h-.03c-.746-.132-1.48-.25-2.203-.383-.1 0-.185-.084-.19-.192-.11-1.504-.437-4.965-1.285-8.38-.012-.048 0-.108.03-.167l-2.047-.25c-.072-.012-.132-.048-.155-.083-.042-.072-.042-.155-.012-.227.554-1.133 1.604-2.756 3.413-4.01zm-7.322-1.324l.13-.037c.544.047 1.1.083 1.637.13.1 0 .174.072.21.156.022.108-.02.203-.096.263-.968.655-2.317 1.908-2.872 3.914l-.023.023c.663.095 1.265.215 1.928.275.114.012.197.095.203.215l.71 7.748c.006.048-.024.12-.078.166-.03.038-.083.05-.155.05h-.01c-.587-.06-1.17-.167-1.756-.215-.09 0-.16-.072-.19-.155-.568-1.73-1.088-4.728-1.338-7.89 0 0 .01-.038.023-.06-.627-.06-1.26-.085-1.875-.133-.065 0-.12-.035-.166-.083-.042-.06-.06-.12-.042-.18.253-1.014 1.1-2.697 3.758-4.188zm-7.682-.406l.12-.037c.548.037 1.104.084 1.653.108.088.025.165.085.19.168.024.095-.012.178-.09.25-.93.622-2.183 1.815-2.787 3.678.538.048 1.074.07 1.612.13.1 0 .19.085.203.193l1.038 8.223c0 .083-.017.132-.07.18-.043.048-.096.06-.162.06h-.018c-.584-.072-1.164-.144-1.748-.227-.09 0-.167-.06-.197-.143-.537-1.648-1.492-4.942-1.767-8.046-.5-.024-1.027-.048-1.528-.084-.065 0-.12-.035-.166-.108-.044-.048-.055-.13-.038-.166.243-1.017 1.098-2.677 3.754-4.18zm2.328 16.365c1.845 0 3.51.776 4.692 2.018 2.387.98 4.077 3.307 4.077 6.04 0 3.57-2.907 6.458-6.47 6.422-1.815-.012-3.456-.752-4.644-1.98-2.413-.932-4.132-3.295-4.132-6.03 0-3.57 2.9-6.47 6.476-6.47zm-9.92-16.688l.095-.024h1.46c.09 0 .168.072.204.144.035.083.012.19-.066.263-.913.835-2.06 2.148-2.596 3.88.454.01.913.01 1.373.023.12 0 .21.108.21.215.03 1.516.22 4.607 1.092 7.76.023.06 0 .143-.048.202-.043.048-.096.084-.168.084h-.018c-.55-.06-1.11-.12-1.665-.155-.084 0-.156-.06-.18-.133-.895-1.897-1.85-4.655-1.933-7.688h-1.04c-.077 0-.136-.036-.18-.072-.034-.072-.058-.12-.034-.192.315-1.133 1.168-3.104 3.49-4.31zm-7.742.263l.106-.06c.496-.048.99-.083 1.493-.12.096-.01.192.048.228.144.03.095.006.19-.066.25-.884.788-2 2.066-2.28 3.81.4-.025.793-.06 1.182-.084.077 0 .137.023.19.07.036.05.06.144.043.192-.12.538-.244 1.254-.244 2.244 0 1.16.16 2.675.656 4.668.017.06.01.143-.043.19-.037.05-.095.096-.167.096-.555-.012-1.307-.178-1.82-.178-.09 0-.16-.12-.203-.192-.61-1.277-1.122-2.888-1.122-4.858 0-.49.06-1.004.166-1.505-.327.024-.65.048-.97.095h-.025c-.048 0-.108-.023-.15-.07-.047-.038-.07-.11-.065-.168.072-.98.614-2.758 3.092-4.524zm-7.903.907l.088-.072c.675-.12 1.33-.274 2.017-.406.095-.012.203.036.246.13.043.11.006.216-.07.275-1.057.764-2.024 2.078-2.162 3.654.37-.06.73-.144 1.1-.216.07 0 .154.023.202.083.054.072.066.167.03.24-.287.656-.622 1.706-.622 3.067 0 .86.203 1.838.556 2.9.023.073.005.156-.03.216-.043.048-.11.084-.173.084-.388.01-1.067-.024-1.444 0h-.018c-.077 0-.155-.037-.197-.097-.572-1.015-1.235-2.698-1.24-4.32 0-.382.06-.74.166-1.086-.27.024-.53.05-.704.096-.023.012-.042.012-.054.012-.06 0-.114-.024-.16-.06-.05-.037-.072-.12-.06-.203.138-.86.68-2.793 2.53-4.298zM61.16 81.103c.035.097.035.168-.018.227l-.853 1.205c-.04.048-.12.084-.18.084-.016 0-.053 0-.082-.013-.06-.012-.633-.298-.615-1.325 0-.418.083-.98.358-1.755l1.326-2.315c.066-.12.19-.155.292-.095.108.06.143.19.1.298 0 0-.56 1.29-.56 2.507 0 .43.078.847.234 1.18zm3.76-3.21c.035.083.018.178-.054.25-.31.263-.62.585-.93.87-.036.05-.096.073-.156.073h-.017c-.066 0-.126-.048-.16-.095-.42-.537-.8-1.29-.8-2.208 0-.023.07-.895.07-.895.055-.155.102-.323.204-.513l.023-.035c.143-.156.286-.3.43-.42.25-.823.805-1.92 1.718-3.52.09-.084.2-.192.27-.287.078-.072.203-.108.292-.024.097.06.126.18.078.274-.466.93-1.033 1.934-1.104 3.056l-.066.155c-.042.035-.09.083-.137.12-.066.334-.126.692-.126 1.12 0 .608.167 1.277.465 2.078zm4.422-3.356c.042.108.012.227-.07.3-.336.285-.903.57-1.25.894-.034.05-.107.084-.166.084h-.023c-.066 0-.132-.048-.167-.108-.478-.62-.907-1.288-.907-2.303 0-.048 0-.12.013-.215l.077-.8c.054-.18.126-.37.22-.56l.036-.048c.185-.192.377-.383.56-.573.305-.86.89-1.982 1.875-3.69.096-.118.21-.225.293-.32.078-.108.233-.12.33-.06.1.083.142.214.077.334-.52 1.016-1.128 2.042-1.2 3.295l-.083.167c-.054.072-.138.155-.21.227-.083.333-.136.715-.136 1.157 0 .67.407 1.373.734 2.22zm4.334-7.054c.083-.048.185-.06.275 0 .07.035.12.13.108.226-.042.322-.083.692-.083 1.073 0 .908-.03 1.78.573 2.842.023.048.035.106.018.178-.012.072-.054.12-.12.143-.44.263-.865.538-1.354.752-.043.012-.09.05-.132.05-.054 0-.125-.013-.167-.073-.56-.788-.96-1.493-1.044-2.675-.017-.155-.065-.334-.03-.512-.042.035-.214.143-.262.143-.048 0-.1-.01-.144-.036-.083-.07-.125-.19-.1-.274.322-1.11 1.116-3.093 3.044-5.36l.035-.024c.174-.13.334-.262.513-.406.1-.06.238-.06.328.024.078.108.084.227.012.334-.86 1.063-1.797 2.532-2.112 4.035.244-.166.406-.273.644-.44zm7.276-6.255c-.936.955-1.594 2.172-1.91 3.522.395-.18.49-.192.8-.335.083-.048.178-.023.25.06.067.06.073.155.03.25-.226.442-.37 1.183-.37 2.15 0 .716.15 1.564.61 2.578.023.06.023.12 0 .19-.03.05-.078.085-.138.12-.518.156-.936.336-1.45.502-.018.012-.048.012-.066.012-.065 0-.13-.023-.178-.083-.567-.753-1.16-1.863-1.16-3.32 0-.214.007-.44.038-.668-.037.035-.072.048-.114.06-.035.012-.066.012-.1.012-.05 0-.102-.012-.138-.037-.066-.047-.1-.154-.078-.225.25-.92.848-2.722 2.478-4.513l.065-.048c.406-.203.788-.394 1.182-.584.108-.06.215-.024.28.06.064.095.058.213-.03.298zm5.592-1.946c-.876.73-1.3 2.065-1.528 3.485.364-.07.722-.143.98-.238.077-.024.166 0 .226.07.054.06.077.144.054.216-.22.667-.573 1.634-.573 2.816 0 .716.137 1.302.543 2.16.03.072.03.144 0 .192-.035.072-.095.12-.16.13-.502.06-.985.228-1.47.324h-.034c-.078 0-.143-.023-.185-.083-.58-.776-1.243-1.826-1.243-3.296 0-.418.077-.848.203-1.314-.143.037-.263.06-.346.084-.03.023-.048.023-.078.023-.048 0-.1-.023-.137-.048-.055-.06-.084-.108-.08-.178.08-.86.444-2.662 1.965-4.167l.083-.06c.507-.18 1.04-.346 1.576-.5.1-.05.203 0 .25.096.054.095.03.213-.048.286zM91.12 61.3c.333-.072.745-.12 1.078-.18.078-.01.15.024.203.084.044.048.05.12.02.18-.27.62-.58 1.6-.58 2.84 0 .765.12 1.66.436 2.663.023.06.018.12-.018.166-.035.06-.095.108-.155.108-.346.013-1.068.11-1.42.133h-.012c-.07 0-.142-.048-.19-.095-.526-.93-.96-2.615-.967-4.107 0-.428.078-.858.244-1.24-.28.023-.55.06-.733.095-.024.01-.037.01-.037.01-.065 0-.112-.022-.155-.047-.048-.048-.07-.108-.065-.178.143-.8.626-2.567 2.327-3.963l.1-.048c.59-.133 1.206-.264 1.827-.36.102-.023.187.024.228.096.035.083.006.203-.078.25-1.007.752-2.015 2.065-2.05 3.593z" fill="#FFF"/><path d="M62.69 153.504c-.27.072-1.594.584-3.462 1.29 7.09 10.696 17.226 19.553 29.88 25.092 34.82 15.137 75.33-.812 90.497-35.622 2.387-5.503 4-11.125 4.888-16.76-3.748.323-7.974.716-9.556.896v-2.878c-.5.037-.996.084-1.48.155v2.878c-4.13.394-12.027 1.493-16.36 2.125v-2.89c-.985.132-1.9.287-2.687.407v-29.14c0-1.826-.257-3.294-.735-4.417-.53-.144-1.05-.215-1.54-.227 0 4.023-.017 37.018-.017 37.018l-13.143 2.198V130.8l-2.048.346v2.876l-4.524.884c-3.433.586-5.915.06-8.284-1.766-.61-.466-1.13-.99-1.572-1.564-.37-.227-.74-.455-1.11-.73-3.66-2.804-4.077-7.616-4.077-10.982V98.782c.02-1.133-.06-2.853-2.786-4.118v34.655c0 .99.066 1.742.232 2.374.257.072.538.108.848.18v1.253c.573.466 1.427.764 2.68 1.015v3.653c-12.385 2.805-25.82 6.352-38.05 9.97-3.737 1.11-8.01.57-11.05-1.613-.488-.346-.924-.752-1.34-1.193-.473-.228-.914-.502-1.338-.802-3.033-2.148-4.75-6.218-4.74-11.018l.007-19.733c0-1.062-.095-2.28-3.087-3.282v37.018c0 .418.09.752.227 1.074.56.167 1.002.238 1.044.238v.955c1.122.812 2.61 1.004 2.68 1.004v3.09zm12.63 17.393c-.037 0-.078 0-.114-.023-1.296-.8-1.97-1.588-1.97-1.588l-.07-.095s-.676-1.73-.598-1.79c.077-.035.178-.035.25 0l1.767 1.194.084.118c.01 0 .387 1.41.81 1.803.078.083.084.227.012.298-.048.06-.106.084-.172.084zm5.282 3.844v-.01l.006.01h-.006zm.465-.214c-.042 0-.083-.023-.126-.035-.124-.082-2.804-1.993-2.804-1.993-.274-.5-.566-1.433-.638-1.766-.018-.083.024-.19.09-.24.083-.022.16-.034.24 0 .076.038.154.085.22.156l.01.012c.92.573 1.07.526 2 1.1l.12.142c.114.644.43 1.66 1.045 2.244.077.083.095.203.018.298-.042.06-.107.084-.173.084zm5.527 2.495c-.042 0-.077-.022-.12-.034-.107-.06-1.742-.68-2.65-1.826l-.017-.012c-.274-.513-.71-1.588-.78-1.982 0-.072.034-.143.11-.18.06-.035.162-.035.222 0 .07.06.148.108.225.155h.006c.914.6 1.052.55 1.995 1.123l.108.12c.132.644.447 1.67 1.056 2.27.083.082.09.19.017.285-.035.048-.107.083-.173.083zm6.84 2.055h-.077c-.764-.31-1.522-.586-2.37-.967-.764-.644-1.516-1.54-1.946-2.722-.022-.108 0-.19.067-.238.054-.083.167-.083.244-.048.676.298 1.368.597 2.05.86.07.023.12.094.13.166.113.526.544 1.433 2.03 2.53.095.072.125.203.065.298-.035.073-.118.12-.19.12zm6.59.75h-.037c-.304-.047-.758-.094-1.187-.13-.006.023-.018.035-.018.07 0 .038.233.216.244.24.03.084.006.167-.054.24-.035.034-.1.06-.16.06-.018 0-.043 0-.066-.025-.335-.083-.92-.19-1.27-.298l-.09-.048c-.358-.323-.58-.787-.58-.787-.065-.072-.065-.18-.017-.263.06-.084.137-.12.226-.084h.035c-.72-.61-1.503-1.396-2.13-2.244-.06-.083-.066-.166-.018-.25.042-.084.138-.12.22-.12.723.143 1.415.238 2.102.32l.16.096c.46.716 1.39 1.923 2.753 2.805.095.06.137.18.095.287-.035.085-.112.132-.208.132zm8.732.24c-.12 0-.25-.023-.364-.023-.543 0-1.116 0-1.653-.012-.043.084-.08.167-.073.287 0 .12.538.31.645.477.048.072.06.18.006.263-.043.072-.108.108-.192.108h-.017c-.36-.072-1.29-.19-1.655-.263l-.083-.035c-.848-.55-1.337-1.122-1.343-1.134-.067-.06-.084-.155-.043-.238.035-.095.12-.143.21-.12l.697.035c-1.033-.5-2.172-1.265-3.294-2.4-.06-.035-.078-.154-.042-.226.035-.072.112-.13.21-.13.28 0 .565.022.852.022.483 0 .955-.023 1.456-.048l.174.083c.727.825 2.226 2.198 4.572 2.926.1.023.174.13.16.25-.023.084-.112.18-.226.18zm6.69 1.6c-.12 0-1.45-.023-1.98-.023l-.096-.012c-.884-.443-1.826-1.302-1.964-2.006 0 0-.006-.012.012-.083.024-.094.108-.154.203-.154.324-.012.634-.06.956-.072-1.42-.477-2.907-1.325-4.578-2.72-.066-.05-.095-.156-.066-.228.018-.083.09-.143.186-.167.752-.072 1.522-.132 2.28-.275l.197.048c.848.812 2.424 2.244 4.722 2.948.095.05.172.156.16.24-.017.107-.09.19-.185.214-.31.024-.925.12-.942.155-.066.107-.103.202-.103.357 0 .286.227.704 1.325 1.35.078.048.126.166.097.25-.026.106-.11.178-.223.178zm7.02-.98c-.125 0-.4.073-.52.073-.543 0-.86.143-1.408.13l-.083-.022c-.878-.418-2.155-1.207-2.18-2.21 0 0-.01-.01.006-.082.032-.084.115-.155.21-.155.406-.013.8-.073 1.194-.096-1.463-.443-3.307-1.385-5.085-2.878-.073-.06-.102-.143-.073-.215.024-.105.1-.165.185-.165.747-.108 1.517-.298 2.28-.443l.198.048c.853.812 2.638 2.472 4.948 3.176.09.035.16.132.16.227-.017.108-.1.19-.197.203-.285.048-.577.06-.864.095.018.06-.125.395-.125.538-.005.298.388.73 1.475 1.373.077.038.12.156.1.24-.022.095-.11.166-.22.166zm8.094-1.48c-.68.06-1.516.24-2.203.288l-.07-.012c-1.148-.37-2.682-1.074-3.272-2.53-.023-.06-.023-.143.018-.19.035-.06.09-.084.155-.107.214-.024.417-.084.615-.144-1.277-.407-2.985-1.278-5.122-2.962-.065-.06-.1-.143-.076-.226.023-.083.083-.167.172-.18.592-.12 1.486-.477 2.12-.644.077-.023.155 0 .214.048.985 1.05 3.003 2.793 5.844 3.343.114.035.19.13.19.237-.005.095-.076.19-.19.203-.364.083-.896.263-1.385.38.22.61 1.127 1.398 3.043 2.055.1.035.16.143.15.238-.017.107-.108.192-.203.203zm8.595-2.362c-.614.203-1.224.38-1.826.537h-.113c-1.517-.358-4.006-1.134-4.424-3.008-.023-.108.043-.214.144-.238.125-.035.238-.095.37-.13-1.672-.37-3.7-1.1-6.065-2.89-.054-.05-.09-.12-.083-.204.01-.083.06-.143.125-.166.674-.323 1.6-.586 2.195-.896.078-.048.174-.048.246.024 1.24 1.002 3.21 2.327 7.127 2.83.09.01.172.094.185.18.012.105-.035.202-.13.25-.413.166-1.016.477-1.572.704.09.656.675 1.754 3.81 2.59.1.012.16.12.165.215 0 .107-.054.178-.155.203zm8.04-3.558c-.59.178-1.617.74-2.256.907h-.102c-1.528-.37-4.99-1.265-5.43-3.15-.025-.12.04-.24.142-.276.114-.023.244-.083.358-.12-1.528-.37-3.188-1.05-5.528-2.83-.054-.047-.09-.12-.09-.202.013-.083.055-.143.132-.18.645-.298 1.636-.787 2.257-1.133.077-.047.173-.036.243.024 1.284 1.04 2.64 2.507 6.536 3.033.1 0 .177.083.196.178.012.095-.042.19-.13.24-.318.13-.897.406-1.326.62.238.68 1.963 1.695 4.984 2.46.1.023.167.13.167.202 0 .096-.065.192-.154.228zm6.303-4.06l-.132.013c-1.127-.323-4.31-1.182-5.305-3.104-.328.167-.655.334-.924.454l-.095.012c-2.06-.132-3.444-.907-6.057-2.77-.066-.048-.097-.12-.097-.18s.012-.083.043-.12c.07-.107 1.778-1 2.38-1.347.077-.037.174-.024.238.048 1.093.92 1.85 1.898 5.58 2.734.585-.286 1.045-.692 1.517-.907.066-.048.16-.037.215.012.065.058.108.118.1.202-.042.572 1.326 2.22 4.9 3.127.114.047.186.154.155.297-.04.108-1.962 1.278-2.517 1.53zm9.007-6.29c-.006.035-.012.035-.03.035 0 .024 0 .024-.01.024l-.007.01-.012.013h-.006c-.048.024-1.38.99-1.934 1.35l-.19.035c-1.285-.478-3.463-1.313-4.7-2.948-.22.143-.596.38-.78.49l-.138.023c-1.897-.132-2.793-.31-5.903-2.58-.07-.034-.095-.118-.095-.19 0-.06.035-.13.1-.168.622-.395 1.44-1.146 2.09-1.577.072-.048.155-.048.227-.01 1.766 1.025 1.94 2.028 5.765 2.625.09.012 1.128-.847 1.242-.872.108-.035.28 0 .286.12.084 1.038.353 2.09 3.958 3.32 0 0 .017 0 .023.01.102.05.156.155.127.275 0 .003 0 .015-.012.015zm6.267-6.064c-.412.442-1.402 1.362-1.772 1.72-.042.06-.095.072-.155.072-.035 0-.066 0-.09-.012-.512-.143-3.067.072-4.727-1.766-.232.19-.46.38-.698.55l-.172.034c-1.815-.323-2.544-.824-5.313-2.71-.066-.048-.095-.095-.1-.166 0-.072.028-.132.082-.203.73-.562 1.445-1.148 2.155-1.732.07-.048.16-.048.238-.024 1.755.944 1.84 2.077 5.122 2.793.077 0 .513-.466.513-.466.017-.022.023-.07.023-.07.024-.037.054-.06.078-.084.017 0 .035-.01.035-.01.11-.038.222 0 .275.094 1.016 1.72 4.364 1.61 4.38 1.6.08.01.15.07.175.167.024.06.018.142-.048.214zm5.438-5.455c-.388.394-1.23 1.42-1.636 1.814-.03.036-.095.07-.155.07-.024 0-.06-.023-.09-.034-.477 0-1.845-.167-3.384-1.528-.24.203-.687.454-.925.632l-.18.037c-1.844-.347-3.42-1.337-6.206-3.223-.054-.024-.083-.084-.083-.167 0-.06.018-.13.072-.168.735-.585 1.45-1.17 2.155-1.755.072-.048.167-.072.257-.024 1.695.932 2.686 1.983 5.67 3.034.24-.18.478-.37.705-.55.047-.048.107-.06.177-.048.06.012.095.06.15.108.937.74 3 1.23 3.515 1.277.06 0 .084.096.084.156 0 .047-.085.322-.126.37zm4.333-19.315c.447-.5.872-.99 1.284-1.49.054-.05.155-.073.238-.038 1.642.645.925.37 2.615.586h.06c.035.035.077.035.095.07.035.05.048.11.042.156 0 0 0 .048-.012.06-.19.596-.417 1.182-.644 1.79-.028.073-.107.132-.19.132H182c-1.69-.31-1.743-.19-3.39-.955-.067-.022-.096-.07-.102-.142-.02-.072 0-.108.035-.168zm-3.45 5.826c.55-.406.656-.967 1.284-1.468.07-.06.166-.072.25-.037 1.84.945 2.15 1.17 3.976 1.54.065.013.12.06.143.12.042.05.042.12.006.192-.27.644-.56 1.29-.878 1.958-.03.083-.108.13-.19.13h-.055c-1.923-.488-2.723-1.05-4.525-2.064-.054-.037-.095-.108-.108-.192-.005-.07.03-.142.096-.178zm.108 6.315c.275-.25.544-.525.842-.835.095-.07.197-.023.304 0 .776.275 1.87.633 2.077.944.05.082.072.19.018.262-.268.43-.685 1.193-.935 1.587-.043.06-.114.096-.186.096-.036 0-.055-.012-.096-.012-.656-.31-1.55-.56-2.15-.872-.387.298-.763.573-1.157.93-.035.024-.095.05-.15.05-.01 0-.4-.06-.41-.073-2.27-.574-3.308-.908-5.403-2.102-.077-.035-.108-.095-.114-.166-.006-.084.024-.167.084-.203.71-.527 1.38-1.04 2.023-1.566.077-.036.155-.048.238-.01 1.84.94 3.213 1.526 5.016 1.967zM67.287 154.497c13.357-5.312 64.11-19.758 103.48-23.54v2.457c.907-.095 1.802-.166 2.692-.25v7.067c-26.065 2.853-61.68 13.094-75.96 28.83l-2.482-1.864c-1.702-1.277-3.437-2.387-5.174-3.402-8.715-4.93-17.447-6.303-22.556-6.184v-3.114z" fill="#FFF"/><path fill="#D31145" d="M80.602 174.74h.006l-.006-.01"/><path d="M120.748 84.744c.733.286 1.516.43 2.346.43 3.57 0 6.47-2.89 6.47-6.46 0-1.73-.675-3.293-1.78-4.45-1.18-1.243-2.846-2.02-4.69-2.02-3.577 0-6.477 2.902-6.477 6.47 0 2.736 1.72 5.1 4.13 6.03zm2.346-9.956c2.172 0 3.928 1.743 3.928 3.928 0 2.173-1.755 3.915-3.928 3.915-2.167 0-3.934-1.74-3.934-3.914 0-2.185 1.766-3.928 3.934-3.928z" fill="#002B5C"/><path d="M78.28 136.207c.638.12 1.336.143 2.03.07V107.82c0-.992-.258-2.436-2.64-3.44v28.28c0 1.47.198 2.65.61 3.547zM133.49 127.946c.24.06.484.13.76.178v1.16c.482.51 1.144.846 2.04 1.072v-35.32c.017-1.148-.018-3.01-3.087-4.227v34.69c0 .99.096 1.8.288 2.446zM96.74 131.133c.64.12 1.32.132 2.007.06V102.9c0-1.026-.263-2.47-2.59-3.593v28.233c0 1.492.196 2.686.584 3.593z" fill="#FFF"/><path d="M113.472 93.722c-.49.12-1.008.238-1.576.37v32.97c0 3.034.572 4.012 2.912 4.633-.166-.632-.232-1.385-.232-2.375V94.664c-.33-.143-.692-.298-1.104-.44v-.502zM77.6 145.697c-3.212.967-6.83.73-9.706-.74.417.44.853.847 1.342 1.193 3.04 2.184 7.312 2.722 11.048 1.612 12.23-3.617 25.666-7.163 38.05-9.97v-3.652c-1.252-.25-2.105-.55-2.68-1.015v2.412c-12.39 2.866-25.818 6.483-38.055 10.16zM95.16 130.454c.442.358.996.55 1.58.68-.386-.907-.583-2.1-.583-3.593V99.31c-.335-.178-.71-.334-1.116-.478v-.584c-.483.12-1.003.263-1.575.418v26.728c0 2.507.572 4.226 1.694 5.062zM76.632 135.54c.46.345 1.04.548 1.648.668-.412-.896-.61-2.078-.61-3.546v-28.28c-.334-.155-.704-.274-1.12-.406v-.61c-.485.156-1.01.31-1.572.48v26.75c0 2.423.562 4.094 1.654 4.943zM133.49 127.946c-.19-.645-.286-1.457-.286-2.447V90.81c-.34-.12-.704-.252-1.116-.37v-.645l-1.57.31v33.044c0 2.993.8 4.223 2.973 4.796zM136.29 130.357c-.895-.226-1.558-.56-2.04-1.073v2.35l-4.518.932c-2.913.49-5.134.215-7.182-.99.443.572.962 1.098 1.57 1.564 2.37 1.826 4.853 2.352 8.285 1.766l4.524-.884v-2.876l-.64.108v-.897zM59.228 154.794c1.868-.705 3.193-1.218 3.462-1.29v-3.092c-.072 0-1.56-.192-2.68-1.004v2.1c-4.674 1.696-12.685 4.717-18.038 7.044v3.032c1.49-.68 6.833-2.78 11.722-4.68.93-.357 1.857-.715 2.735-1.037 1.013-.393 1.956-.762 2.798-1.073zM197.113 103.844c2.387 2.925 2.87 5.42 2.87 8.37 0 5.3-3.928 11.435-9.967 11.888-4.256.335-9.884.86-15.077 1.42v2.878c1.58-.18 5.807-.573 9.555-.896.944-.083 1.85-.178 2.67-.238 1.204-.108 2.243-.203 2.966-.263.616-.048 1.003-.095 1.063-.095 6.506-.61 11.108-6.65 11.108-11.95 0-3.82-.61-6.9-5.187-11.114zM190.856 94.88c1.702 2.4 4.53 4.428 9.067 5.144 0-3.665-.005-16.916 0-18.54-.853.024-1.766.096-2.68.156v15.638c-2.698-.393-4.774-1.264-6.387-2.4zM186.195 87.645c-1.874.596-1.576 3.497-1.563 3.652.048 1.182.507 2.793 3.443 4.967-.137-.203-.232-.418-.334-.586v-.023c-.13-.454-.25-.896-.388-1.325v-.012c-.023-.12-.03-.263-.035-.394-.006-.084-.15-1.445.346-2.507-.716-1.217-1.188-2.495-1.468-3.772z" fill="#B0B7BC"/><path d="M181.218 112.07c1.068 1.444 1.737 3.055 2.077 4.607.37-.083.93-.238 1.493-.573-.645-1.205-1.534-2.34-2.675-3.33-.287-.24-.574-.49-.895-.705zM58.738 110.124c-.21-.072-.435-.132-.68-.215v-3.606c.21-.072.435-.132.68-.227v-3.282c9.073-.43 34.07-4.322 34.357-23.768l-2.09-.692c-.674 18.706-26.077 21.547-34.952 22.013v44.837c0 1.886 1.75 2.71 2.913 3.033-.137-.323-.227-.656-.227-1.074-.002-.002-.002-24.235-.002-37.02zM42.778 104.764v-2.78c-5.95.917-11.85 2.97-11.86 6.373v.037c0 2.733 2.363 3.89 3.408 4.142-.424-.597-.722-1.36-.722-2.327v-.037c.006-2.94 3.688-4.586 9.174-5.41zM34.594 115.244c-.638.25-2.5.74-3.874.73-1.373 0-2.578-.252-3.628-.694 1.468 1.505 3.55 2.472 6.32 2.507 1.355.012 3.223-.466 3.856-.716v-2.65c-.507-.07-1.785-.523-2.675-1.562v2.386zM123.094 85.175c-.83 0-1.612-.144-2.346-.43 1.188 1.23 2.83 1.97 4.644 1.98 3.563.037 6.47-2.852 6.47-6.42 0-2.734-1.69-5.062-4.077-6.04 1.104 1.157 1.78 2.72 1.78 4.45 0 3.57-2.902 6.46-6.47 6.46zM95.016 167.197l2.483 1.863c14.277-15.735 49.893-25.976 75.958-28.83v-7.067c-.89.084-1.785.155-2.692.25v4.622c-26.054 3.007-61.472 13.368-75.75 29.162zM170.766 122.37v3.606c-3.373.335-9.257 1.17-13.67 1.815v2.89c4.334-.632 12.23-1.73 16.362-2.125v-2.878c-.406.037-.812.084-1.205.132v-2.162c-.723-.43-1.183-.86-1.487-1.277zM167.56 117.466c-.017 1.276-.036 2.613 2.525 3.903l.275.12c-.126-.503-.12-.98-.114-1.47V98.39c.006-3.09-.698-7.342-4.09-10.147-.303-.263-.63-.5-.966-.74 1.923 2.627 2.37 5.85 2.37 8.32v21.643zM149.45 91.954c0 4.035-.016 37.02-.016 37.02l-10.458 1.825v2.828l13.143-2.197s.017-32.994.017-37.017c.49.012 1.008.083 1.54.227-.33-.74-.76-1.337-1.296-1.755-.888-.704-1.98-.92-2.93-.93z" fill="#B0B7BC"/><path d="M111.896 127.063V91.216c-4.017.955-12.857 3.128-16.856 4.166v3.45c.406.144.78.3 1.116.478 2.327 1.122 2.59 2.567 2.59 3.593v28.294c-.687.072-1.367.06-2.006-.06-.584-.13-1.14-.32-1.582-.68-1.122-.836-1.694-2.555-1.694-5.062V95.8c-3.725 1.014-13.263 3.676-16.916 4.738v3.438c.417.132.787.25 1.122.406 2.38 1.004 2.638 2.447 2.638 3.44v28.458c-.693.072-1.39.048-2.03-.07-.608-.12-1.187-.324-1.647-.67-1.092-.848-1.653-2.52-1.653-4.942v-29.605c-3.605 1.087-12.187 3.772-16.24 5.085-.245.095-.472.155-.68.227v3.605c.243.083.47.143.68.215 2.99 1.002 3.086 2.22 3.086 3.282l-.006 19.733c-.012 4.8 1.706 8.87 4.74 11.018.423.3.864.573 1.336.8 2.876 1.47 6.493 1.707 9.705.74 12.236-3.676 25.666-7.293 38.057-10.157v-3.664c-.31-.072-.592-.108-.848-.18-2.34-.623-2.91-1.6-2.91-4.633zm-35.048 16.2c-3.14.858-6.387.572-8.81-1.16-2.358-1.718-3.695-4.966-3.67-8.964v-18.982c-.025-1.3.44-4.464-3.922-5.945 3.43-1.134 7.45-2.41 11.986-3.785v26.168c0 11.102 10.313 7.843 10.42 7.843v-29.857c-.017-1.313.448-4.464-3.92-6.1 3.742-1.087 7.748-2.22 11.99-3.38v26.288c0 11.27 10.25 7.975 10.363 7.964v-29.69c-.012-1.324.447-4.476-3.957-6.243 3.855-1 7.866-2.005 12.032-2.983v32.625c0 2.71.39 5.79 3.797 6.47-13.17 3.057-25.387 6.376-36.31 9.73zM129.73 132.566l4.52-.93V128.123c-.276-.047-.52-.118-.76-.177-2.172-.573-2.972-1.803-2.972-4.8V87.206l-3.044.63c-3.975.813-8.017 1.672-12.027 2.568l-1.975.454v3.365c.412.144.775.3 1.104.442 2.727 1.265 2.805 2.985 2.787 4.118v21.082c0 3.366.418 8.178 4.077 10.983.37.274.74.5 1.11.73 2.047 1.204 4.268 1.478 7.18.99zm-6.744-3.748c-2.244-1.708-3.08-4.656-3.08-8.954V99.188c-.017-1.313.436-4.404-3.89-6.303 3.885-.872 7.87-1.73 11.954-2.566v32.827c0 2.698.388 5.706 3.695 6.446-.8.144-1.588.31-2.376.455-2.693.476-4.472.166-6.304-1.23zM95.016 167.197c14.278-15.793 49.696-26.154 75.75-29.163v-7.08c-39.37 3.784-90.123 18.23-103.48 23.542v3.115c5.108-.118 13.84 1.255 22.556 6.185 1.737 1.014 3.473 2.124 5.174 3.402zm-23.247-11.76c10.33-3.902 58.372-17.643 96.46-21.654v2.018c-26.645 3.438-59.474 13.418-73.565 28.102-11.246-7.557-20.993-8.69-22.896-8.464zM170.766 122.37v-.69l-.406-.192-.275-.12c-2.56-1.29-2.543-2.627-2.524-3.903V95.822c0-2.47-.446-5.694-2.37-8.32-.476-.645-1.043-1.254-1.718-1.815-2.197-1.802-5.43-3.162-9.61-2.543l-7.37 1.17c-3.946.658-10.35 1.827-14.403 2.59V90.438c.41.12.775.25 1.115.37 3.068 1.218 3.104 3.08 3.087 4.226v36.219l.638-.108 2.048-.346 10.458-1.826s.017-32.984.017-37.02c.95.013 2.04.228 2.93.932.538.418.968 1.015 1.296 1.755.477 1.12.734 2.59.734 4.416v29.14c.787-.12 1.702-.275 2.686-.406 4.412-.645 10.296-1.48 13.67-1.815v-3.604zm-13.806 2.88V99.057c0-10.72-7.814-9.932-10.058-9.395v37.162c-2.71.454-5.402.92-8.063 1.408v-32.78c-.032-1.325.434-4.406-3.93-6.495 3.935-.727 7.927-1.456 11.992-2.125 2.382-.418 4.787-.788 7.193-1.147 2.92-.44 5.934.478 7.766 1.97 2.58 2.138 3.165 5.6 3.158 8.165-.012 3.13 0 21.24 0 21.24.017 1.312-.443 4.403 3.945 6.588-4.035.478-8.04 1.015-12.003 1.6z" fill="#002B5C"/><path d="M109.36 127.063V94.438c-4.167.978-8.178 1.98-12.033 2.984 4.404 1.766 3.945 4.92 3.957 6.243v29.69c-.114.01-10.362 3.307-10.362-7.963V99.105c-4.243 1.158-8.25 2.292-11.99 3.38 4.368 1.635 3.902 4.786 3.92 6.1v29.855c-.108 0-10.42 3.26-10.42-7.843V104.43c-4.537 1.373-8.555 2.65-11.987 3.784 4.363 1.48 3.897 4.644 3.92 5.945v18.98c-.023 3.998 1.314 7.246 3.672 8.965 2.423 1.73 5.67 2.017 8.81 1.158 10.922-3.354 23.14-6.673 36.308-9.73-3.408-.68-3.796-3.76-3.796-6.47zM131.665 129.593c-3.308-.74-3.695-3.748-3.695-6.446V90.32c-4.083.834-8.07 1.693-11.955 2.565 4.327 1.898 3.874 4.99 3.89 6.303v20.676c0 4.298.837 7.246 3.08 8.954 1.833 1.396 3.612 1.706 6.304 1.23.787-.144 1.574-.31 2.375-.455zM173.762 92.432c.137 3.223 1.337 7.402 5.998 10.505 7.963 5.348 9.222 7.616 9.323 9.717.227 5.002-4.166 6.9-7.944 6.852-.096-1.78-.598-7.067-6.345-9.156.023.74-.037 11.58 0 12.642 5.354-.597 9.758-1.015 15.19-1.433 4.662-.502 7.826-5.54 7.426-10.076-.297-3.294-.578-6.147-10.206-12.713-4.07-2.78-5.013-5.276-5.115-7.377-.228-5 2.47-6.684 6.254-6.59.083 1.792.59 7.115 6.35 9.252-.03-.74.042-11.352.006-12.582-4.936.287-8.505.55-13.358.944-5.263.536-7.783 5.74-7.58 10.015z" fill="#D31145"/><path d="M28.374 108.393v-.037c.024-6.935 12.123-8.81 16.952-9.263 0 0 .006 49.84 0 49.755 0 0-.43 5.002-3.373 6.936 4.38-1.886 9.502-3.903 15.25-5.98-1.027-.037-3.69-1.074-3.69-4.62V97.887c5.606-.072 32.8-1.397 34.882-18.085-1.605 5.66-11.143 8.99-24.812 9-9.502.025-39.37.288-39.37 17.43 0 1.863.663 7.15 6.53 7.187-1.048-.778-2.37-2.664-2.37-5.027zM123.094 82.63c2.172 0 3.928-1.74 3.928-3.914 0-2.184-1.755-3.928-3.928-3.928-2.167 0-3.934 1.743-3.934 3.928 0 2.173 1.766 3.915 3.934 3.915zM168.23 135.802v-2.018c-38.088 4.01-86.13 17.752-96.46 21.655 1.902-.228 11.65.906 22.895 8.463 14.09-14.684 46.92-24.664 73.565-28.1zM165.018 117.06s-.012-18.11 0-21.238c.006-2.566-.58-6.028-3.157-8.164-1.83-1.493-4.846-2.412-7.765-1.97-2.406.357-4.81.728-7.193 1.146-4.064.67-8.057 1.397-11.99 2.125 4.362 2.088 3.896 5.17 3.927 6.494v32.78c2.66-.49 5.353-.955 8.062-1.408V89.664c2.244-.537 10.058-1.325 10.058 9.395v26.19c3.963-.586 7.968-1.122 12.003-1.6-4.387-2.186-3.928-5.277-3.945-6.59zM61.388 77.117c-.1-.06-.226-.024-.292.095l-1.325 2.315c-.274.776-.357 1.337-.357 1.755-.018 1.027.555 1.313.615 1.325.03.012.066.012.083.012.06 0 .14-.038.18-.085l.854-1.205c.054-.06.054-.13.018-.227-.155-.334-.233-.752-.233-1.18 0-1.22.566-2.508.566-2.508.035-.108 0-.24-.108-.298zM64.72 74.574l.065-.155c.07-1.123.638-2.127 1.104-3.057.047-.095.017-.215-.08-.275-.088-.083-.213-.048-.29.024-.072.095-.18.203-.27.286-.913 1.6-1.468 2.698-1.72 3.522-.142.12-.285.263-.428.418l-.024.035c-.1.19-.15.358-.203.513 0 0-.07.872-.07.895 0 .92.38 1.672.798 2.21.035.048.095.095.16.095h.018c.06 0 .12-.023.156-.072.31-.286.62-.61.93-.87.073-.072.09-.167.055-.25-.297-.802-.465-1.47-.465-2.08 0-.428.06-.786.126-1.12.05-.036.097-.084.14-.12zM132.524 61.932l2.046.25c-.03.06-.042.12-.03.168.848 3.414 1.177 6.876 1.285 8.38.006.108.09.19.19.19.723.133 1.458.252 2.198.384h.035c.054 0 .09-.024.126-.035.048-.025.083-.085.09-.156.088-.573.13-1.134.13-1.73 0-2.508-.692-5.123-1.158-6.686-.023-.095-.09-.167-.178-.167-.67-.094-1.32-.25-1.982-.357.006-.012.023-.023.035-.048.974-2.352 1.804-3.14 2.788-3.915.072-.048.108-.13.084-.203-.03-.108-.1-.167-.186-.19-.698-.096-1.38-.193-2.077-.276l-.15.073c-1.81 1.253-2.86 2.876-3.414 4.01-.03.073-.03.156.012.228.024.034.084.07.156.082zM95.22 61.288c.01 0 .03 0 .053-.012.174-.048.435-.072.704-.095-.108.347-.167.705-.167 1.086.006 1.623.67 3.307 1.242 4.32.042.06.12.098.197.098h.017c.377-.024 1.056.01 1.445 0 .065 0 .13-.037.172-.084.035-.06.054-.143.03-.215-.352-1.062-.555-2.04-.555-2.9 0-1.362.334-2.412.62-3.068.037-.072.024-.168-.03-.24-.047-.06-.13-.083-.202-.083-.37.072-.73.155-1.1.215.14-1.577 1.106-2.89 2.162-3.655.077-.06.114-.166.072-.274-.043-.094-.15-.142-.246-.13-.686.13-1.342.286-2.017.405l-.09.072c-1.85 1.505-2.393 3.44-2.532 4.298-.01.083.012.166.06.203.047.035.1.06.16.06zM149.53 65.37c-.05.083-.05.154-.013.24 1.695 3.484 1.248 6.565 1.385 8.188.006.083.095.167.203.19l2.125.312h.03c.113 0 .21-.083.233-.19.167-.73.232-1.494.232-2.21 0-3.223-1.277-6.195-1.288-6.207-.03-.072-.108-.13-.197-.143-.95-.095-1.213-.132-1.714-.203l.006-.024c.018-1.385.513-2.888.513-4.07 0-.192-.018-.382-.048-.574-.024-.072-.083-.144-.16-.155-.65-.18-.99-.132-1.595-.263-.06-.012-.13 0-.185.036-.048.048-.077.108-.083.155-.078 1.982-1.134 3.33-1.32 4.298-.017.12.06.24.16.24.67.176 1.166.26 1.715.38zM160.714 67.53c-.006.048-.006.12.03.178.03.048.084.084.144.108.375.084.698.167 1.02.275 2.8 2.484 3.378 4.657 3.378 6.113 0 .526-.077.967-.166 1.29-.006.07 0 .13.035.178.042.06.095.073.16.096.65.084 1.296.167 1.93.275h.028c.108 0 .198-.07.233-.166.13-.526.19-1.027.19-1.493-.017-3.066-2.476-5.478-4.094-6.838l-.112-.037c-.257-.035-.49-.083-.735-.12-.03-.214-.083-.43-.143-.62l-.06-.108c-.58-.55-1.164-1.087-1.772-1.636-.083-.06-.19-.07-.275-.01-.083.06-.125.166-.077.274.286.68.38 1.23.38 1.623.002.265-.04.48-.094.623zM84.768 59.4l-.083.06c-1.522 1.505-1.886 3.307-1.964 4.167-.004.07.025.12.08.178.034.024.088.048.136.048.03 0 .048 0 .078-.023.083-.024.203-.048.346-.084-.126.466-.203.896-.203 1.313 0 1.468.663 2.518 1.242 3.295.04.06.105.083.177.083h.042c.483-.095.966-.263 1.467-.323.066-.01.126-.06.16-.13.032-.05.032-.12 0-.192-.405-.86-.542-1.445-.542-2.16 0-1.183.352-2.15.573-2.817.023-.072 0-.155-.054-.215-.06-.07-.15-.094-.227-.07-.257.094-.615.166-.98.237.228-1.42.653-2.756 1.53-3.485.077-.072.1-.19.047-.286-.048-.097-.15-.144-.25-.097-.537.154-1.07.322-1.576.5zM79.52 61.454l-.064.048c-1.63 1.79-2.227 3.594-2.478 4.513-.023.07.012.178.078.226.035.025.09.038.137.038.035 0 .066 0 .1-.012.043-.012.078-.024.115-.06-.03.227-.037.454-.037.67 0 1.455.593 2.565 1.16 3.318.048.06.114.083.178.083.018 0 .048 0 .066-.012.513-.166.93-.346 1.45-.5.06-.036.108-.072.138-.12.023-.072.023-.132 0-.192-.46-1.015-.61-1.862-.61-2.578 0-.967.144-1.708.37-2.15.043-.094.037-.19-.03-.25-.07-.083-.166-.108-.25-.06-.31.143-.406.155-.8.335.316-1.35.974-2.567 1.91-3.522.09-.084.095-.203.03-.298-.065-.084-.173-.12-.28-.06-.393.19-.775.38-1.18.584zM75.134 63.555c-.09-.083-.226-.083-.328-.024-.18.145-.34.276-.513.407l-.035.024c-1.928 2.27-2.722 4.25-3.045 5.36-.023.084.018.204.1.275.044.024.098.037.145.037.048 0 .22-.108.262-.143-.035.177.012.356.03.51.084 1.183.484 1.887 1.045 2.676.043.06.114.072.167.072.042 0 .09-.037.132-.05.49-.213.913-.488 1.354-.75.066-.024.108-.072.12-.144.017-.072.005-.13-.018-.178-.603-1.063-.573-1.934-.573-2.842 0-.38.042-.752.084-1.074.012-.095-.036-.19-.107-.226-.09-.06-.192-.048-.275 0-.238.167-.4.274-.644.44.315-1.503 1.253-2.97 2.112-4.034.072-.107.066-.227-.012-.335zM68.957 70.932l.083-.167c.072-1.253.68-2.28 1.2-3.294.065-.12.023-.25-.078-.333-.095-.06-.25-.048-.33.06-.082.095-.196.203-.29.32-.985 1.71-1.57 2.83-1.875 3.69-.185.19-.377.38-.56.573l-.036.048c-.094.19-.166.38-.22.56l-.077.8c-.012.095-.012.167-.012.215 0 1.015.43 1.683.908 2.303.035.06.1.108.167.108h.017c.066 0 .138-.035.174-.083.346-.322.913-.608 1.248-.894.083-.072.112-.192.07-.3-.327-.846-.732-1.55-.732-2.22 0-.44.053-.823.137-1.157.07-.072.153-.155.207-.228zM124.895 60.737c.615.048 1.248.072 1.875.132-.012.022-.03.047-.03.047.256 3.175.775 6.172 1.342 7.903.03.083.1.155.19.155.587.048 1.17.155 1.75.214h.017c.07 0 .125-.012.154-.05.054-.047.084-.118.078-.165l-.71-7.748c-.006-.12-.09-.203-.203-.215-.664-.06-1.266-.18-1.93-.263l.024-.036c.555-2.006 1.905-3.26 2.87-3.915.078-.06.12-.156.096-.264-.035-.084-.108-.155-.21-.155-.536-.047-1.092-.083-1.635-.13l-.13.036c-2.657 1.49-3.506 3.175-3.76 4.19-.02.06 0 .12.04.18.052.046.106.08.17.08zM117.214 60.332c.5.037 1.027.06 1.528.084.275 3.104 1.23 6.398 1.768 8.046.03.083.106.143.197.143.584.083 1.164.155 1.748.226h.012c.072 0 .126-.01.167-.058.054-.048.07-.097.07-.18l-1.037-8.224c-.012-.108-.1-.192-.203-.192-.538-.06-1.074-.083-1.612-.13.604-1.864 1.857-3.057 2.788-3.678.077-.072.114-.155.09-.25-.025-.084-.102-.144-.192-.168-.55-.023-1.105-.07-1.654-.108l-.12.037c-2.655 1.503-3.51 3.163-3.754 4.177-.017.035-.006.12.037.166.048.073.102.11.167.11zM142.975 63.937c-.053.05-.07.132-.048.215.62 2.16.735 4.776.735 6.375 0 .93-.035 1.516-.035 1.516-.006.132.077.25.203.25.818.12 1.528.253 2.375.384h.03c.125 0 .226-.083.245-.19.15-.813.21-1.65.21-2.448 0-2.174-.444-4.25-.92-5.672-.03-.083-.114-.143-.198-.155-.96-.143-1.408-.25-2.38-.358-.085-.025-.163.01-.217.082zM142.784 63.96h.037c.09 0 .173-.06.215-.142 1.027-2.21 1.224-2.52 1.768-4.32.017-.073.005-.145-.024-.204-.036-.06-.102-.084-.168-.108l-1.737-.287-.203.07c-1.145 1.123-1.928 3.2-2.536 4.3-.042.082-.042.154 0 .237.03.06.1.12.18.12.97.107 1.478.203 2.468.334zM155.61 66.826v.012c.032.19.098.154.102.19h.012c1.69 1.66 2.13 3.33 2.137 4.823 0 1.04-.23 1.97-.422 2.676-.012.083 0 .155.035.203.035.058.095.107.16.118l2.53.358c.013 0 .025.024.043.024.1 0 .197-.084.22-.19.198-.79.27-1.53.27-2.187-.006-3.52-2.1-5.467-2.12-5.49l-.108-.072s-.597-.13-1.218-.322c.006-.012.03-.035.03-.035v-.263c0-1.636-.256-3.307-.465-4.37-.018-.107-.078-.154-.16-.18-.64-.177-.807-.13-1.415-.262-.066-.01-.138 0-.186.024-.048.048-.077.108-.077.178-.084 2.03-.304 3.44-.454 4.286-.024.12.048.238.16.263.367.084.654.144.928.216zM109.896 60.13h1.04c.082 3.032 1.037 5.79 1.933 7.687.022.072.094.132.177.132.555.034 1.116.094 1.665.154h.018c.072 0 .126-.037.167-.084.048-.06.07-.143.048-.203-.872-3.15-1.062-6.243-1.093-7.76 0-.107-.09-.214-.21-.214-.46-.012-.918-.012-1.372-.024.538-1.732 1.683-3.045 2.596-3.88.078-.072.1-.18.066-.263-.035-.072-.114-.144-.203-.144h-1.463l-.095.024c-2.323 1.205-3.176 3.176-3.492 4.31-.023.07 0 .12.035.19.045.036.103.072.18.072zM102.555 60.582h.024c.32-.048.643-.07.97-.095-.105.5-.165 1.015-.165 1.505 0 1.97.513 3.58 1.122 4.858.042.072.114.192.203.192.513 0 1.265.166 1.82.178.072 0 .13-.048.167-.095.054-.048.06-.132.042-.19-.496-1.995-.657-3.51-.657-4.67 0-.99.125-1.705.244-2.243.018-.048-.006-.143-.042-.19-.054-.05-.114-.072-.19-.072-.39.023-.783.06-1.183.083.28-1.743 1.396-3.02 2.28-3.808.072-.06.095-.155.066-.25-.037-.098-.132-.156-.227-.145-.5.037-.995.072-1.492.12l-.106.06c-2.478 1.766-3.02 3.545-3.093 4.524-.007.06.017.13.065.167.042.05.102.072.15.072zM93.25 57.455c-.042-.072-.126-.12-.227-.095-.62.095-1.236.226-1.826.358l-.1.048c-1.703 1.396-2.185 3.164-2.328 3.963-.007.07.016.13.064.177.043.024.09.048.15.048 0 0 .017 0 .042-.01.185-.038.454-.073.733-.096-.167.38-.245.81-.245 1.24.006 1.493.44 3.176.967 4.107.048.048.12.095.186.095h.017c.352-.024 1.074-.12 1.42-.132.06 0 .12-.048.155-.108.037-.048.042-.108.018-.166-.317-1.004-.436-1.898-.436-2.662 0-1.242.31-2.22.58-2.84.028-.06.023-.133-.02-.18-.053-.06-.124-.096-.202-.084-.334.06-.746.108-1.08.178.036-1.528 1.045-2.84 2.053-3.593.083-.047.112-.166.077-.25zM91.53 176.126c-.01-.072-.06-.143-.13-.167-.682-.264-1.374-.562-2.05-.86-.076-.035-.19-.035-.243.048-.066.048-.09.13-.066.238.43 1.182 1.183 2.078 1.947 2.722.848.38 1.606.656 2.37.967h.077c.072 0 .155-.048.19-.12.06-.095.032-.226-.064-.298-1.486-1.098-1.916-2.005-2.03-2.53zM85.693 174.383l-.108-.12c-.942-.572-1.08-.524-1.994-1.122h-.005c-.077-.047-.154-.094-.226-.154-.06-.035-.162-.035-.222 0-.077.037-.112.108-.112.18.07.394.507 1.468.78 1.982l.02.012c.906 1.145 2.542 1.766 2.65 1.826.04.012.076.035.118.035.066 0 .138-.034.174-.082.072-.095.066-.203-.018-.286-.61-.598-.925-1.625-1.057-2.27zM80.177 171.9l-.12-.143c-.93-.573-1.08-.526-2-1.1l-.01-.01c-.066-.072-.144-.12-.22-.156-.08-.034-.156-.022-.24 0-.066.05-.11.156-.09.24.072.335.364 1.266.638 1.767 0 0 2.68 1.91 2.805 1.994.043.013.084.036.126.036.066 0 .13-.023.174-.083.077-.095.06-.215-.018-.298-.614-.586-.93-1.6-1.045-2.245zM155.86 167.4c-3.573-.907-4.94-2.555-4.898-3.127.006-.084-.037-.144-.1-.203-.055-.05-.15-.06-.216-.012-.472.215-.93.62-1.516.907-3.73-.836-4.49-1.814-5.58-2.733-.066-.072-.162-.084-.24-.048-.602.346-2.31 1.24-2.38 1.348-.03.035-.043.06-.043.12s.03.13.097.18c2.614 1.862 3.998 2.637 6.058 2.77l.095-.013c.27-.12.597-.287.925-.455.996 1.922 4.178 2.78 5.305 3.104l.132-.013c.554-.25 2.476-1.42 2.517-1.528.03-.145-.042-.253-.156-.3zM162.368 162.637c-3.605-1.23-3.874-2.28-3.958-3.32-.005-.12-.178-.154-.286-.12-.114.025-1.152.885-1.242.873-3.825-.596-3.998-1.6-5.765-2.626-.072-.037-.155-.037-.227.01-.65.43-1.468 1.183-2.09 1.577-.065.038-.1.11-.1.17 0 .07.024.154.095.19 3.11 2.27 4.006 2.447 5.903 2.58l.138-.025c.185-.108.56-.346.78-.49 1.237 1.637 3.415 2.47 4.7 2.95l.19-.036c.555-.36 1.886-1.326 1.934-1.35h.006l.012-.013.006-.01c.012 0 .012 0 .012-.025.017 0 .023 0 .03-.035.01 0 .01-.012.01-.012.03-.12-.023-.226-.125-.275-.005-.013-.01-.013-.022-.013zM104.25 176.71l-.174-.082c-.5.024-.973.048-1.456.048-.287 0-.573-.023-.853-.023-.097 0-.174.06-.21.13-.036.073-.017.192.043.227 1.122 1.134 2.26 1.898 3.294 2.4l-.698-.035c-.09-.023-.174.024-.21.12-.04.083-.023.178.043.238.005.012.494.586 1.342 1.134l.083.035c.364.072 1.296.19 1.654.263h.016c.084 0 .15-.035.192-.108.053-.083.042-.19-.006-.263-.108-.167-.645-.358-.645-.477-.006-.12.03-.203.072-.287.536.012 1.11.012 1.652.012.114 0 .246.023.364.023.114 0 .203-.095.227-.178.012-.12-.06-.227-.16-.25-2.347-.73-3.845-2.103-4.573-2.926zM142.2 170.396c.43-.214 1.008-.49 1.325-.62.09-.05.143-.144.13-.24-.017-.095-.094-.178-.196-.178-3.898-.526-5.254-1.994-6.537-3.033-.07-.06-.166-.07-.244-.023-.622.346-1.612.835-2.258 1.133-.077.037-.12.097-.13.18 0 .083.034.155.088.203 2.34 1.78 4 2.46 5.528 2.83-.114.036-.244.096-.358.12-.1.035-.167.154-.143.274.44 1.886 3.903 2.78 5.43 3.15h.102c.637-.166 1.664-.728 2.256-.906.09-.037.155-.132.155-.227 0-.073-.065-.18-.166-.204-3.02-.765-4.746-1.78-4.984-2.46zM135.335 173.834c.556-.227 1.16-.538 1.57-.704.096-.048.144-.144.132-.25-.012-.085-.095-.168-.185-.18-3.915-.502-5.886-1.827-7.127-2.83-.072-.072-.167-.072-.246-.024-.598.31-1.523.573-2.196.896-.066.023-.114.083-.126.166-.006.084.03.155.083.203 2.365 1.792 4.394 2.52 6.065 2.89-.13.036-.244.096-.37.132-.1.024-.166.13-.143.238.418 1.874 2.907 2.65 4.424 3.008h.112c.603-.155 1.213-.334 1.826-.537.1-.023.155-.094.155-.202-.006-.095-.066-.203-.167-.215-3.134-.835-3.718-1.932-3.808-2.59zM121.112 178.907c0-.143.143-.477.125-.537.287-.037.58-.048.865-.095.095-.012.18-.095.197-.203 0-.095-.072-.192-.16-.227-2.31-.704-4.096-2.364-4.95-3.176l-.196-.05c-.764.145-1.534.336-2.28.444-.084 0-.16.06-.186.166-.03.072 0 .155.072.215 1.78 1.493 3.622 2.435 5.085 2.878-.395.023-.788.083-1.194.095-.094 0-.177.07-.208.155-.017.07-.006.083-.006.083.024 1.002 1.302 1.79 2.18 2.21l.083.022c.548.012.864-.13 1.407-.13.12 0 .395-.073.52-.073.108 0 .197-.07.22-.166.018-.085-.023-.204-.1-.24-1.087-.644-1.48-1.074-1.475-1.373zM114.247 179.886c0-.155.037-.25.103-.358.017-.035.632-.13.942-.155.095-.023.167-.108.185-.215.012-.083-.065-.19-.16-.238-2.298-.704-3.874-2.137-4.722-2.948l-.197-.048c-.758.143-1.528.203-2.28.274-.095.024-.167.084-.186.167-.03.072 0 .18.066.227 1.67 1.396 3.157 2.244 4.578 2.72-.32.013-.632.06-.955.073-.094 0-.177.06-.202.155-.018.07-.006.083-.006.083.132.704 1.074 1.563 1.958 2.006l.095.01c.53 0 1.862.024 1.982.024.114 0 .197-.072.22-.18.03-.083-.017-.202-.096-.25-1.096-.644-1.323-1.062-1.323-1.348zM127.57 176.71c.49-.118 1.02-.297 1.385-.38.114-.012.185-.108.19-.203 0-.108-.076-.203-.19-.238-2.84-.55-4.86-2.293-5.844-3.344-.058-.048-.136-.07-.213-.048-.633.167-1.528.526-2.12.644-.09.012-.15.097-.172.18-.024.083.01.168.077.226 2.137 1.683 3.844 2.555 5.122 2.96-.198.06-.4.12-.615.145-.067.023-.12.048-.156.106-.042.047-.042.13-.018.19.59 1.457 2.125 2.16 3.27 2.53l.072.013c.687-.048 1.523-.227 2.203-.287.096-.01.187-.095.204-.203.012-.095-.048-.203-.15-.238-1.916-.657-2.823-1.446-3.044-2.054zM169.948 142.283c-.644.526-1.313 1.04-2.023 1.565-.06.035-.09.12-.084.203.007.072.038.132.115.167 2.095 1.194 3.134 1.528 5.402 2.1.012.013.4.073.412.073.053 0 .113-.024.148-.048.394-.358.77-.633 1.158-.93.598.31 1.493.56 2.15.87.04 0 .06.013.094.013.072 0 .143-.037.186-.097.25-.394.667-1.158.936-1.587.054-.07.03-.18-.018-.262-.208-.31-1.3-.67-2.077-.944-.108-.023-.21-.07-.304 0-.298.31-.567.586-.84.836-1.804-.44-3.177-1.027-5.015-1.97-.084-.035-.163-.023-.24.013zM170.735 149.612c-.054-.048-.09-.095-.15-.108-.07-.01-.13 0-.177.05-.227.177-.466.368-.704.548-2.985-1.05-3.975-2.1-5.67-3.033-.09-.05-.186-.024-.258.023-.704.584-1.42 1.17-2.155 1.754-.053.037-.07.108-.07.168 0 .083.03.143.083.167 2.787 1.886 4.363 2.876 6.207 3.223l.18-.037c.238-.178.686-.43.925-.632 1.54 1.36 2.907 1.528 3.384 1.528.03.01.065.035.088.035.06 0 .126-.036.155-.073.406-.394 1.248-1.42 1.636-1.814.04-.048.125-.323.125-.37 0-.06-.024-.155-.084-.155-.512-.046-2.577-.535-3.515-1.276zM164.265 154.89c-.053-.096-.166-.133-.268-.096 0 0-.024.01-.042.01-.024.025-.054.05-.078.085 0 0-.006.047-.018.07 0 0-.442.466-.52.466-3.282-.716-3.366-1.85-5.12-2.793-.078-.023-.168-.023-.24.024-.71.584-1.426 1.17-2.154 1.73-.054.072-.083.132-.083.204.006.072.035.12.1.167 2.77 1.886 3.498 2.387 5.314 2.71l.172-.035c.237-.167.465-.358.697-.55 1.66 1.84 4.215 1.624 4.728 1.767.023.01.054.01.09.01.06 0 .113-.01.154-.07.37-.36 1.36-1.278 1.77-1.72.067-.072.073-.155.05-.215-.024-.095-.096-.155-.175-.168-.016.014-3.364.12-4.38-1.598zM97.386 176.603l-.16-.095c-.688-.083-1.38-.178-2.102-.32-.083 0-.18.034-.22.118-.05.084-.043.167.017.25.628.85 1.41 1.637 2.132 2.245h-.035c-.09-.034-.167 0-.227.085-.048.083-.048.19.012.263 0 0 .227.465.586.787l.09.048c.35.108.935.215 1.27.298.023.025.048.025.066.025.06 0 .125-.024.16-.06.06-.072.084-.155.054-.238-.01-.024-.244-.203-.244-.24 0-.035.012-.048.018-.07.43.034.883.082 1.187.13h.036c.095 0 .172-.048.21-.13.04-.11 0-.228-.096-.288-1.364-.884-2.294-2.09-2.754-2.807zM74.67 168.712l-.085-.118-1.766-1.194c-.073-.035-.175-.035-.252 0-.078.06.597 1.79.597 1.79l.066.084s.68.8 1.976 1.6c.035.023.077.023.114.023.066 0 .125-.023.172-.083.072-.07.066-.215-.01-.298-.425-.394-.802-1.804-.813-1.804zM179.63 140.36h.054c.083 0 .16-.047.19-.13.318-.67.61-1.314.88-1.958.034-.072.034-.143-.007-.19-.024-.06-.078-.11-.143-.12-1.826-.37-2.137-.598-3.975-1.54-.085-.036-.18-.024-.252.036-.627.5-.735 1.062-1.284 1.468-.066.035-.1.108-.095.178.01.084.053.155.107.192 1.8 1.015 2.6 1.576 4.523 2.065zM181.993 133.365h.037c.083 0 .16-.06.19-.13.228-.61.455-1.195.645-1.792.012-.012.012-.048.012-.048.006-.06-.006-.12-.042-.167-.018-.035-.06-.035-.095-.07h-.06c-1.69-.216-.973.06-2.615-.587-.083-.035-.185-.01-.238.038-.412.5-.836.99-1.284 1.49-.035.06-.054.096-.035.168.006.072.035.12.1.143 1.65.765 1.7.645 3.385.955z" fill="#D31145"/><path d="M115.49 0C51.807 0 .004 51.82 0 115.495.005 179.158 51.808 230.98 115.49 230.98c63.668 0 115.483-51.822 115.49-115.485C230.972 51.82 179.157 0 115.49 0zm.363 225.786c-60.637 0-109.778-49.147-109.778-109.778 0-60.63 49.14-109.788 109.778-109.788 60.63 0 109.778 49.16 109.778 109.79 0 60.63-49.146 109.776-109.777 109.776z" fill="#FFF"/><path fill="#002B5C" d="M206.173 191.19h1.342v3.63h.902v-3.63h1.33v-.798h-3.574M213.16 193.28h-.022l-1.02-2.888h-1.558v4.428h.9v-3.533h.02l1.234 3.533h.872l1.277-3.533h.024v3.533h.9v-4.428h-1.55"/><path d="M172.317 165.93c9.986-11.376 15.89-24.96 17.812-38.928-.723.06-1.762.155-2.968.263.09-.023.174-.023.275-.035-1.94 13.214-7.575 26.07-17.06 36.863l-.053.072c-14.153 16.067-33.933 24.293-53.79 24.293h-.02c-15.74 0-31.555-5.17-44.682-15.663-.9-.716-1.79-1.468-2.662-2.232-.543-.466-1.044-.942-1.563-1.42-.077-.083-.16-.167-.232-.227-.586-.537-1.134-1.085-1.677-1.634-.054-.05-.095-.084-.15-.132-3.473-3.522-6.506-7.294-9.12-11.28-.877.32-1.802.68-2.734 1.038 2.948 4.608 6.423 8.942 10.452 12.928 1.015.967 2.035 1.934 3.116 2.913 14.116 12.378 31.664 18.503 49.093 18.503h.024c20.644 0 41.243-8.584 55.93-25.32h.007z" fill="#FFF"/></svg>