<svg xmlns="http://www.w3.org/2000/svg" viewBox="0 0 180 180"><title>Oakland Athletics primary logo</title><circle fill="#fff" cx="90" cy="90" r="90"/><path fill="#003831" d="M90 6.044C43.703 6.044 6.044 43.71 6.044 90c0 46.3 37.658 83.958 83.956 83.958 46.29 0 83.957-37.66 83.957-83.958 0-46.29-37.666-83.956-83.957-83.956zm0 135.36c-28.342 0-51.405-23.056-51.405-51.404 0-28.34 23.063-51.405 51.405-51.405 28.34 0 51.405 23.064 51.405 51.405 0 28.35-23.063 51.405-51.405 51.405z"/><path fill="#efb21e" d="M90 3.487C42.296 3.487 3.487 42.297 3.487 90S42.297 176.517 90 176.517c47.704 0 86.514-38.81 86.514-86.516S137.704 3.487 90 3.487zm0 170.472C43.703 173.96 6.044 136.3 6.044 90 6.044 43.71 43.704 6.045 90 6.045c46.29 0 83.957 37.665 83.957 83.956 0 46.3-37.666 83.96-83.957 83.96z"/><path fill="#fff" d="M90 40.997C62.978 40.997 40.997 62.98 40.997 90S62.977 139.003 90 139.003c27.02 0 49.004-21.982 49.004-49.003 0-27.02-21.983-49.003-49.004-49.003z"/><path fill="#efb21e" d="M90 38.595C61.658 38.595 38.595 61.66 38.595 90c0 28.348 23.063 51.405 51.405 51.405 28.34 0 51.405-23.057 51.405-51.405 0-28.34-23.063-51.405-51.405-51.405zm0 100.41c-27.022 0-49.003-21.983-49.003-49.004C40.997 62.98 62.977 41 90 41c27.02 0 49.004 21.982 49.004 49.003 0 27.02-21.983 49.004-49.004 49.004z"/><path fill="#003831" d="M117.394 109.493c-1.35.975-2.938 1.63-4.435 1.35-1.21-.217-2.84-1.104-3.75-4.122 0 0-9.933-41.134-9.952-41.23-.752-5-3.407-7.747-5.506-9.17-2.687-1.827-6.046-2.51-8.984-1.82-4.58 1.066-6.28 3.448-6.914 5.305 1.923-.957 3.953-.528 5.23.302.814.506 2.727 1.688 1.467 5.068l-1.767 4.64-.948-.274a7.404 7.404 0 0 0-3.302-.166c-1.94.324-3.3 1.086-4.04 2.257-.46.733-.606 1.524-.645 2.228 1.612-.9 3.243-.646 4.415.115.83.537 1.56 1.25 1.56 2.707 0 .47-.077 1.017-.253 1.67l-10.548 35.323-.527.176c-5.398 1.806-6.845 4.785-7.214 6.697 1.65-.946 4.297-2.156 8.016-2.52 1.543-.154 3.4.322 5.196.774 1.455.37 2.96.752 4.052.723 1.377-.03 2.424-.43 3.115-1.183.714-.78.9-1.787.928-2.645-.614-.34-1.7-.947-2.687-1.504-.24.35-.534.636-.894.84-.586.332-1.605.605-3.136.01l-.917-.36 4.167-14.512h15.355l.83-.02 2.762 10.79c1.846 7.52 7.306 9.317 11.418 8.575 3.915-.703 6.728-4.504 7.91-10.02zm-36.28-15.225l5.878-20.305 1.153-3.993 5.567 24.298H81.114z"/><path fill="#efb21e" d="M86.992 73.964L81.114 94.27h12.598l-5.567-24.3-1.153 3.994zm-3.016 18.154c.534-1.833 2.624-9.053 3.926-13.572a8596.418 8596.418 0 0 0 3.113 13.572h-7.04z"/><path fill="#efb21e" d="M117.756 106.23c-1.076 1.4-2.99 2.756-4.414 2.5-.898-.165-1.593-1.033-2.06-2.57.01.05-9.914-41.082-9.914-41.082-.655-4.413-2.94-8.184-6.405-10.538-3.176-2.158-7.17-2.96-10.683-2.14-9.805 2.287-8.93 10.1-8.926 10.177l.34 2.687 1.6-2.19c1.63-2.234 3.626-1.805 4.454-1.268.618.39 1.074.664 1.074 1.377 0 .313-.088.71-.283 1.23l-1.114 2.918c-1.066-.184-2.15-.27-3.26-.085-2.572.44-4.426 1.533-5.508 3.252-1.642 2.624-.79 5.673-.753 5.8l.575 1.99 1.3-1.608c1.415-1.74 2.685-1.312 3.312-.902.516.332.8.517.41 1.983l-10.236 34.27c-7.382 2.723-8.243 7.715-8.243 9.784 0 .56.06.91.06.928l.342 1.777 1.404-1.16c.03-.022 3.29-2.66 8.68-3.196 1.164-.116 2.833.31 4.447.72 1.6.404 3.25.824 4.638.784 1.954-.05 3.564-.696 4.647-1.877 1.096-1.19 1.62-2.85 1.505-4.783l-.03-.594-6.132-3.42-.263 1.487c-.03.193-.127.535-.37.672a.727.727 0 0 1-.343.07c.496-1.72 2.77-9.65 3.132-10.9h12.902l2.334 9.13c2.06 8.39 8.46 11.154 13.888 10.177 5.665-1.017 9.6-6.837 10.26-15.188l.09-1.16h-1.162c-.567 0-.822.335-1.298.948zm-19.69 4.708l-2.762-10.79-.83.02H79.12l-4.168 14.51.917.36c1.53.596 2.55.323 3.135-.01.36-.203.653-.488.895-.838.987.557 2.073 1.163 2.687 1.504-.027.858-.215 1.866-.93 2.645-.69.75-1.736 1.15-3.114 1.182-1.094.028-2.597-.353-4.052-.722-1.796-.45-3.652-.928-5.195-.774-3.72.364-6.367 1.574-8.015 2.52.37-1.912 1.815-4.89 7.214-6.698l.527-.176L79.57 78.35c.175-.653.253-1.2.253-1.67 0-1.456-.73-2.17-1.56-2.707-1.172-.76-2.803-1.016-4.415-.115.04-.703.184-1.495.645-2.227.742-1.17 2.1-1.932 4.04-2.256a7.375 7.375 0 0 1 3.302.167l.948.274 1.768-4.64c1.26-3.38-.653-4.56-1.465-5.067-1.28-.83-3.308-1.26-5.23-.302.633-1.858 2.332-4.24 6.913-5.305 2.938-.69 6.297-.008 8.984 1.82 2.1 1.423 4.754 4.17 5.506 9.17.02.095 9.95 41.23 9.95 41.23.91 3.02 2.542 3.906 3.75 4.122 1.497.28 3.087-.374 4.436-1.35-1.18 5.517-3.993 9.317-7.91 10.02-4.112.742-9.572-1.055-11.418-8.574z"/><path fill="#003831" d="M121.698 78.683s-1.268-.38-1.288-.382c-.966-.312-2.763-.896-2.763-2.606 0-1.506 1.495-2.414 2.948-2.414 1.016 0 2.014.383 2.95.947.37-.73.783-1.533 1.172-2.284-1.484-.692-3.27-1.17-4.833-1.17-3.447 0-5.76 2.244-5.76 5.576 0 3.005 1.318 3.68 4.726 4.647 1.21.34 3.448.977 3.448 2.92 0 1.62-1.32 2.745-3.224 2.745-1.376 0-2.725-.615-4.1-1.613-.42.78-.92 1.728-1.31 2.47 1.728 1.054 3.66 1.708 5.587 1.708 1.933 0 3.67-.574 4.885-1.602 1.12-.954 1.688-2.47 1.688-4.512-.003-2.254-1.233-3.574-4.125-4.43z"/><path fill="#efb21e" d="M122.17 77.11l-1.27-.38c-.596-.196-1.613-.52-1.613-1.036 0-.478.76-.77 1.308-.77.947 0 1.925.38 2.756 1.073l.792.655 2.803-5.46-.685-.39c-1.797-1.016-4.298-1.67-6.377-1.67-4.357 0-7.403 2.97-7.403 7.218 0 4.548 3.06 5.418 5.76 6.18.95.274 2.413.693 2.413 1.388 0 1.074-1.417 1.103-1.582 1.103-1.238 0-2.5-.576-3.865-1.768l-.774-.683-2.955 5.556.596.42c2.138 1.495 4.687 2.323 7.178 2.323 2.315 0 4.434-.705 5.948-1.993 1.504-1.28 2.266-3.22 2.266-5.763 0-3.982-3.02-5.332-5.293-6.004zm1.963 10.516c-1.213 1.028-2.952 1.602-4.884 1.602-1.926 0-3.86-.654-5.59-1.71.393-.74.892-1.687 1.31-2.47 1.377 1 2.726 1.614 4.102 1.614 1.904 0 3.224-1.125 3.224-2.745 0-1.943-2.238-2.58-3.448-2.92-3.407-.967-4.726-1.642-4.726-4.648 0-3.333 2.314-5.578 5.76-5.578 1.564 0 3.35.48 4.833 1.17-.39.752-.8 1.554-1.172 2.285-.936-.564-1.934-.947-2.95-.947-1.454 0-2.948.908-2.948 2.414 0 1.71 1.797 2.294 2.763 2.607.02.002 1.288.383 1.288.383 2.89.858 4.122 2.177 4.122 4.43.002 2.043-.565 3.56-1.685 4.513z"/><path fill="#003831" d="M107.55 71.65c.496-.03 1.24-.077 1.67.527.175.237.242.51.242.783 0 .4-.136.8-.263 1.112-.285.703-.548 1.084-.82 1.417.323-.196.664-.402.83-.548.79-.676 1.505-1.837 1.505-3.233a4.46 4.46 0 0 0-.353-1.71c-.333-.79-1.085-1.016-1.505-1.083-.73-.11-1.513.105-1.854.506-.52.617-.54 1.36-.324 1.788.155.315.412.462.87.44z"/><path fill="#efb21e" d="M107.55 73.3a.965.965 0 0 1 .174-.01c-.027.07-.05.158-.05.158-.467 1.16-.66 1.25-1.18 1.483l-.897.41.36.9 1.066 1.552.545-.126c.81-.178 2.237-1.074 2.715-1.476 1.633-1.415 2.755-4.07 1.593-6.827-.47-1.114-1.483-1.873-2.772-2.07-1.312-.204-2.628.215-3.35 1.064-.88 1.034-1.096 2.47-.548 3.584.45.903 1.327 1.41 2.343 1.36zm-.547-3.877c.34-.4 1.123-.615 1.854-.506.42.067 1.17.293 1.505 1.084a4.46 4.46 0 0 1 .353 1.71c0 1.395-.715 2.556-1.505 3.232-.166.146-.507.352-.83.547.272-.333.536-.715.82-1.418.126-.314.262-.713.262-1.112 0-.273-.067-.546-.242-.783-.43-.604-1.174-.557-1.67-.527-.46.02-.715-.125-.87-.44-.215-.428-.197-1.17.323-1.787z"/><path fill="#fff" d="M44.414 125.586l-12.11 14.725-2.5-3.473 2.08-2.424-2.373-3.292-2.947 1.223-2.325-3.232 17.713-6.954 2.464 3.43zm-7.148 2.96l1.994-2.002-.03-.04-2.51 1.28-4.493 2.168 1.65 2.295 3.39-3.702zm19.151 8.8L54.2 139.95l-2.42-2.06-9.74 11.418-3.054-2.6 9.746-11.415-2.393-2.048 2.224-2.6 7.853 6.7zm7.645 4.344l-2.996 6.554 3.7 1.69 2.988-6.563 3.644 1.67-7.646 16.767-3.644-1.66 3.233-7.1-3.692-1.687-3.24 7.108-3.644-1.67 7.647-16.776 3.652 1.667zm18.194 24.217c.06-.282.55-3.338.55-3.338h-.02c-.117-.03-4.124-.683-4.124-.683.003 0 2.404-14.806 2.404-14.806l.007-.01-3.965-.644-.007.01-.02.126c-.234 1.36-2.94 18.068-2.94 18.068.01.01 8.105 1.328 8.105 1.328v-.01l.01-.04zm.537-3.33l-.002.03.003-.03zm-4.13-.68h-.01.01zm18.253-14.447l.183 3.42-4.062.206.213 4.005 3.575-.186.17 3.418-3.568.186.215 4.16 4.11-.216.178 3.418-8.113.42-.957-18.418 8.056-.41zm14.489-3.708l.99 3.28-3.03.92 4.374 14.364-3.838 1.163-4.374-14.358-3.008.917-.997-3.28 9.882-3.008zm8.127-4.287l8.976 16.102-3.496 1.953-8.984-16.102 3.504-1.953z"/><path fill="#fff" d="M119.522 139.445l-3.496 1.953c0 .03 8.976 16.113 8.976 16.113.018.01 3.515-1.943 3.515-1.943 0-.028-8.975-16.114-8.975-16.114l-.01-.01-.01.002zm14.736-7.179c-.46.245-.877.516-1.258.85-2.638 2.335-1.857 5.536.026 7.655 1.81 2.052 5.196 3.565 7.813 1.25.38-.34.684-.77.968-1.22l2.284 2.58a5.208 5.208 0 0 1-1.18 1.473c-4.33 3.83-9.866 2.394-13.078-1.23-3.028-3.426-3.643-9.15.45-12.764.517-.468 1.104-.82 1.756-1.103l2.218 2.51zm8.505-10.34c-.985.31-1.99.83-2.615 1.738-.694 1.025-.57 2.052.36 2.686 2.502 1.708 6.085-3.233 10.205-.42 2.706 1.845 3.575 4.95 1.455 8.056-.643.936-1.69 1.912-2.706 2.322l-2.87-1.96c1.015-.442 1.855-.978 2.52-1.956.73-1.064.663-2.352-.352-3.037-1.17-.808-2.307-.086-3.554.432-2.472 1.113-4.405 1.514-6.632 0-2.4-1.642-3.436-4.592-1.493-7.44.724-1.058 1.642-1.838 2.753-2.415l2.93 1.994zM42.53 42.275c5.36 4.376 5.117 8.77 2.85 11.534-2.264 2.77-6.515 3.876-11.873-.5-5.353-4.383-5.118-8.77-2.852-11.54 2.265-2.767 6.522-3.878 11.875.505zm.243 9.396c1.68-2.06-1.815-5.157-2.95-6.085-1.268-1.036-4.87-3.74-6.553-1.68-1.688 2.063 1.68 5.058 2.942 6.095 1.14.928 4.872 3.74 6.56 1.67zm6.104-25.725l14.346 12.56-3.546 2.393-2.362-2.15-3.368 2.266 1.133 2.98-3.3 2.226-6.407-17.92 3.504-2.356zm2.736 7.237l-1.935-2.06-.048.03 1.202 2.55 2.04 4.56 2.342-1.574-3.6-3.507zm14.715-15.437l2.394 7.888.056-.018.792-8.856 3.908-1.184-1.103 9.228 6.93 8.27-4.04 1.224-6.26-7.91-.05.017 2.733 8.984-3.836 1.162-5.36-17.638 3.836-1.168zm21.894-3.694l.393 15.01 4.198-.115.09 3.426-8.204.216-.48-18.437 4.002-.1zm22.091 2.776l.233 19.07-4.15-1.045.028-3.193-3.943-.987-1.456 2.833-3.866-.975 9.06-16.73 4.095 1.028zM106.76 23.7l.232-2.813-.048-.017-1.1 2.598-2.033 4.56 2.743.69.206-5.017zm21.384.647l-1.65 12.088.07-.01c.262-.878.7-1.728 1.21-2.54l4.386-7.03 3.397 2.127-9.765 15.634-3.222-2.01 1.7-12.06-.07.018-.82 1.67-.38.663-4.484 7.17-3.4-2.12 9.767-15.635 3.26 2.035zm2.248 24.383l14.12-11.845 1.954 2.325c.448.537 6.553 6.374-1.33 12.986-4.024 3.38-8.38 4.12-12.442-.722l-2.302-2.743zm12.187.38c1.796-1.51 4.12-4.518 2-7.05l-9.099 7.64c1.963 2.567 5.342.89 7.1-.587z"/><path fill="#003831" d="M158.76 161.34h-1.758v4.792h-1.19v-4.792h-1.76v-1.037h4.71v1.037zm7.978 4.793h-1.192v-4.638h-.03l-1.687 4.638h-1.153l-1.632-4.638h-.03v4.638h-1.19v-5.83h2.062l1.357 3.81h.028l1.415-3.81h2.05v5.83z"/></svg>
