<?xml version="1.0" encoding="UTF-8" standalone="no"?>
<svg width="500px" height="500px" viewBox="0 0 500 500" version="1.1" xmlns="http://www.w3.org/2000/svg" xmlns:xlink="http://www.w3.org/1999/xlink">
    <!-- Generator: Sketch 39.1 (31720) - http://www.bohemiancoding.com/sketch -->
    <title>PIT</title>
    <desc>Created with Sketch.</desc>
    <defs/>
    <g id="MLB" stroke="none" stroke-width="1" fill="none" fill-rule="evenodd">
        <g id="PIT">
            <g id="Page-1" transform="translate(65.000000, 0.000000)">
                <g id="Group-3" transform="translate(0.000000, 0.044619)" fill="#FEFEFE">
                    <path d="M343.743532,264.91605 C309.244426,273.476335 283.632581,293.959876 275.274423,319.715098 L268.677182,340.099484 L253.316689,325.13551 C240.254483,312.37771 228.349687,307.849683 207.871785,307.849683 C207.871785,307.849683 141.849773,307.816631 121.876171,307.808369 L121.876171,393.188128 C121.876171,402.492068 127.249864,410.72184 135.541885,414.150912 L147.843507,419.232549 L117.494545,492.713842 L38.3111203,492.713842 L8.05309818,419.414331 L20.081902,414.225278 C28.7542149,410.498744 33.9294941,402.632536 33.9294941,393.188128 L33.9294941,142.841089 C33.9294941,133.396682 28.7542149,125.546999 20.1149709,121.820465 L8.1936409,116.689252 L38.2119136,41.6297594 C38.2119136,41.6297594 207.838716,41.8693813 207.871785,41.8693813 C231.011732,41.8693813 241.643375,38.3824696 253.316689,26.9880354 L269.065741,11.619183 L275.365362,32.6893839 C283.434168,59.617927 308.682255,91.0992861 341.346038,99.2133792 L358.58319,103.485259 L349.646326,118.812797 C338.898941,137.25542 334.128756,157.21014 334.128756,183.494183 C334.128756,204.969262 339.642991,224.023334 352.04382,245.308369 L360.972417,260.635907 L343.743532,264.91605 Z M357.400978,242.185021 C345.595389,221.924577 340.32917,203.82073 340.32917,183.494183 C340.32917,158.342147 344.859606,139.354178 355.003484,121.936145 L368.09876,99.4695267 L342.842405,93.1980434 C312.435573,85.6458223 288.865731,56.147541 281.309493,30.9128768 L272.066742,0.0181782126 L264.725451,7.18204654 L248.984666,22.550899 C238.56797,32.730698 229.341753,35.6722634 207.871785,35.6722634 C207.79738,35.6722634 34.0121663,35.4243786 34.0121663,35.4243786 L0.190972762,119.994381 L17.6596068,127.513551 C24.0584345,130.273334 27.7290798,135.859003 27.7290798,142.841089 L27.7290798,393.188128 C27.7290798,400.178477 24.0501672,405.772409 17.6348052,408.532192 L0.000826721916,416.142253 L34.1609763,498.91096 L121.644689,498.91096 L155.937114,415.877842 L137.922844,408.424775 C131.937377,405.954191 128.076586,399.980169 128.076586,393.188128 L128.076586,314.013749 C138.757833,314.013749 207.871785,314.046801 207.871785,314.046801 C226.737579,314.046801 237.112939,317.963379 248.984666,329.564384 C248.992933,329.572647 271.504571,351.510444 271.504571,351.510444 L281.177217,321.62381 C288.865731,297.934294 312.815865,278.979376 345.239899,270.931386 L370.487986,264.659902 L357.400978,242.185021 Z" id="Fill-1"/>
                </g>
                <path d="M128.3833,127.268145 L236.03076,127.268145 C240.96629,127.268145 249.250044,128.565409 249.250044,137.257899 L249.250044,212.928841 C249.250044,218.274888 249.250044,220.712421 236.03076,220.712421 L128.3833,220.712421 L128.3833,127.268145 Z M255.450458,212.928841 L255.450458,137.257899 C255.450458,127.268145 248.018228,121.071027 236.03076,121.071027 L122.182885,121.071027 L122.182885,226.909539 L236.03076,226.909539 C255.450458,226.909539 255.450458,219.48126 255.450458,212.928841 L255.450458,212.928841 Z" id="Fill-4" fill="#FEFEFE"/>
                <path d="M122.182885,121.071027 L236.03076,121.071027 C248.018228,121.071027 255.450458,127.268145 255.450458,137.257899 L255.450458,212.928841 C255.450458,219.48126 255.450458,226.909539 236.03076,226.909539 L122.182885,226.909539 L122.182885,121.071027 Z M268.752414,212.928841 L268.752414,137.257899 C268.752414,120.451315 256.144904,107.759618 236.03076,107.759618 L108.88093,107.759618 L108.88093,240.212685 L236.03076,240.212685 C258.790415,240.212685 268.752414,230.578232 268.752414,212.928841 L268.752414,212.928841 Z" id="Fill-6" fill="#221F20"/>
                <path d="M108.571736,294.54571 L108.571736,393.236879 C108.571736,408.043859 117.235781,421.033018 130.463332,426.486482 L108.571736,479.459446 L47.2207024,479.459446 L25.3621749,426.486482 C38.5814583,420.785134 47.2207024,408.275218 47.2207024,393.236879 L47.2207024,142.881577 C47.2207024,127.859763 38.5814583,115.333322 25.3621749,109.640237 L47.2207024,54.9899194 L207.877572,55.2212784 C231.926913,55.2212784 247.09726,51.6847898 262.623097,36.5555592 C271.948521,67.6816169 300.759779,102.897772 338.135877,112.168661 C323.965863,136.502677 320.807786,161.00195 320.807786,183.542934 C320.807786,206.108706 326.35509,227.707727 340.541638,252.041744 C303.16554,261.312632 272.725639,284.514642 262.623097,315.648962 C247.09726,300.527994 231.926913,294.595287 207.877572,294.595287 L108.571736,294.54571 Z M352.04134,245.348856 C339.640511,224.063822 334.126276,205.00975 334.126276,183.542934 C334.126276,157.258891 338.896461,137.304171 349.643846,118.861548 L358.58071,103.53401 L341.343558,99.253867 C308.679775,91.1480368 283.431688,59.6584149 275.371149,32.7298718 L269.063261,11.6596708 L253.322476,27.0285233 C241.649162,38.4312203 231.017519,41.9098691 207.877572,41.9098691 C207.844503,41.9098691 38.2094335,41.6702472 38.2094335,41.6702472 L8.19116074,116.72974 L20.1124908,121.860953 C28.760002,125.587487 33.9352812,133.445432 33.9352812,142.881577 L33.9352812,393.236879 C33.9352812,402.673024 28.760002,410.539232 20.0876891,414.274028 L8.05888523,419.463082 L38.3086401,492.75433 L117.492065,492.75433 L147.841027,419.2813 L135.547672,414.1914 C127.247384,410.770591 121.873691,402.532556 121.873691,393.236879 L121.873691,307.857119 C141.847293,307.865382 207.877572,307.898433 207.877572,307.898433 C228.347207,307.898433 240.26027,312.418198 253.322476,325.184261 L268.674702,340.148235 L275.271943,319.763848 C283.638368,294.000364 309.241946,273.525086 343.741052,264.956538 L360.969936,260.684658 L352.04134,245.348856 Z" id="Fill-8" fill="#221F20"/>
                <path d="M108.87845,107.76127 L236.02828,107.76127 C256.142424,107.76127 268.749933,120.452968 268.749933,137.251289 L268.749933,212.930493 C268.749933,230.579885 258.796202,240.214338 236.02828,240.214338 L108.87845,240.214338 L108.87845,107.76127 Z M262.623924,315.65392 C272.726466,284.519599 303.166367,261.309327 340.534197,252.038439 C326.355917,227.712685 320.808613,206.105401 320.808613,183.539629 C320.808613,160.998645 323.96669,136.499372 338.128437,112.173618 C300.760606,102.894467 271.949347,67.6865746 262.623924,36.5522541 C247.098087,51.6814847 231.927739,55.2262361 207.878399,55.2262361 L47.2215291,54.9866142 L25.3547344,109.636932 C38.5822851,115.330017 47.2215291,127.864721 47.2215291,142.886535 L47.2215291,393.233574 C47.2215291,408.280176 38.5822851,420.790091 25.3547344,426.49144 L47.2215291,479.456141 L108.572562,479.456141 L130.464159,426.49144 C117.236608,421.029713 108.572562,408.040554 108.572562,393.233574 L108.572562,294.542405 L207.878399,294.591982 C231.927739,294.591982 247.098087,300.532952 262.623924,315.65392 L262.623924,315.65392 Z" id="Fill-10" fill="#FDB927"/>
            </g>
        </g>
    </g>
</svg>