<svg xmlns="http://www.w3.org/2000/svg" viewBox="0 0 232.391 232.391"><title>Toronto Blue Jays primary dark logo</title><path d="M208.927 46.203c-17.84-23.636-43.736-39.442-72.9-44.49-15.503-2.672-31.102-2.216-46.36 1.347-15.794 3.7-30.413 10.56-43.458 20.41C21.44 42.174 5.42 69.382 1.14 100.123c-4.3 30.74 3.644 61.294 22.334 86.058 17.835 23.645 43.736 39.45 72.905 44.478h.008c15.485 2.693 31.07 2.237 46.33-1.326 15.782-3.692 30.405-10.56 43.465-20.428 24.778-18.687 40.768-45.904 45.068-76.646 4.296-30.72-3.636-61.284-22.323-86.057zm20.726 85.84c-4.23 30.306-20.012 57.147-44.435 75.587-12.876 9.72-27.287 16.5-42.866 20.13-15.034 3.515-30.415 3.95-45.69 1.318h-.01c-28.768-4.978-54.293-20.557-71.895-43.865-18.43-24.428-26.254-54.555-22.013-84.862 4.23-30.305 20.023-57.166 44.435-75.596 12.865-9.698 27.285-16.478 42.86-20.12 15.04-3.524 30.414-3.95 45.71-1.317 28.763 4.978 54.29 20.557 71.876 43.856 18.44 24.427 26.262 54.574 22.027 84.87z" fill="#FFF"/><path d="M150.695 43.47c2.594 1.922 6.404 1.367 8.324-1.226 1.925-2.583 1.365-6.403-1.228-8.324-2.598-1.92-6.403-1.365-8.328 1.227-1.92 2.594-1.35 6.394 1.23 8.324zM43.423 69.344c2.598 1.92 6.398 1.365 8.323-1.227 1.926-2.593 1.36-6.404-1.226-8.324-2.588-1.91-6.4-1.356-8.324 1.236-1.926 2.582-1.366 6.413 1.227 8.314zM82.557 39.948c2.593 1.93 6.398 1.375 8.32-1.227 1.93-2.572 1.35-6.403-1.228-8.313-2.595-1.92-6.4-1.356-8.32 1.227-1.93 2.593-1.356 6.404 1.227 8.314zM43.933 152.966c1.054-.495 1.207-1.702.613-2.96l-.802-1.68-3.266 1.553.793 1.672c.38.82 1.386 2.028 2.663 1.414zM155.734 191.082l.262 3.433 2.44-1.276" fill="#FFF"/><path d="M199.377 53.388c-1.708-2.256-3.5-4.443-5.37-6.542-.033-.03-.078-.08-.133-.148-15.618-17.5-36.576-29.168-59.895-33.206-28.708-4.958-57.32 1.97-80.576 19.528-22.23 16.756-36.58 41.182-40.44 68.757-3.846 27.565 3.27 54.99 20.04 77.21 16.01 21.21 39.234 35.373 65.4 39.906l.013.02c28.712 4.948 57.326-1.99 80.575-19.538 22.215-16.766 36.58-41.193 40.442-68.757 3.845-27.565-3.277-55-20.057-77.23zm-23.3-6.492s-.108 4.81-1.73 8.66c4.26-2.425 8.606-3.732 13.143-4.414-4.68 5.364-8.146 10.055-10.487 16.4 4.128-2.89 6.79-3.95 10.576-4.1-3.772 3.604-5.074 11.363-6.86 18.697l-5.176-8.453-2.182-3.553-2.183 3.553-6.4 10.48-4.265-1.72-3.9-1.575.39 4.197c.016.108 1.026 10.49 1.42 14.608-2.24-2.187-6.502-6.324-6.56-6.393l-2.747-2.683-1.42 3.583-1.273 3.246-8.664-1.483-3.255-.545.193 2.297c-5.85-.337-9.754-1.08-15.633-2.525-4.78-1.148-11.827-3.93-18.44-5.98 3.91-.504 8.512-.612 14.12-.097 0 0-23.81-7.73-34.914-.12-1.458.872-2.547 1.94-3.13 3.12-1.506 3.017-.337 6.006-.337 6.006-4.49 0-8.3-5.018-7.973-10.264 3.36-5.087 8.215-10.233 17.657-13.342 14.42-4.72 70.083-4.433 90.03-27.602zM67.95 75.163c-.47.356-.947.723-1.417 1.1-.093-.19-.203-.368-.32-.566-.075-.12-.154-.247-.253-.366-.534.654-1.054 1.327-1.56 2 .056.09.104.208.164.307.034.05.07.11.104.178-.327.277-.66.565-.96.85-.12.1-.243.22-.352.298-.01-.02-.036-.05-.045-.07-.01 0-.01-.02-.024-.03-2.89 4.08-5.24 8.414-7.066 12.917-1.46.247-2.88.505-4.266.752 3.083-8.363 7.833-16.27 14.32-23.19 22.424-23.91 58.01-28.148 85.04-11.965-1.534.554-3.113 1.078-4.717 1.574-3.32-1.76-6.76-3.226-10.278-4.374-.11-.03-.23-.08-.337-.098-.055-.03-.124-.04-.184-.05-12.922-4.108-26.847-4.008-39.7.168v.01c-.4 1.454-1.267 3.602-1.8 4.532.603.515 1.043 1.17 1.33 1.89.218.554.336 1.13.4 1.713.055.674.02 1.357-.088 1.98-.065.01-.144.01-.208.01-.723.04-1.435.08-2.143.13.08-.337.094-.823.02-1.377v-.01c0-.03 0-.07-.005-.098-.168-1.208-.707-2.742-1.88-4.008.084-.1.173-.2.262-.307.633-.82 1.252-2.306 1.712-3.612-.353.108-.708.267-1.065.405-1.104.426-2.172.87-3.256 1.356-.307.998-.66 1.988-.956 2.64-.015.06-.034.09-.05.13-.024.04-.045.1-.06.14 1.317 1.612 1.826 3.562 1.584 5.235-.802.158-1.598.316-2.376.495v-.04l.02-.08c.267-1.087.213-2.77-1.757-4.998.406-.445.802-1.326 1.153-2.335-1.282.653-2.563 1.336-3.81 2.088-.035.12-.07.218-.09.317-.098.366-.198.683-.277.91.15.15.278.297.41.455.555.664.976 1.416 1.268 2.158.257.733.426 1.495.446 2.218-.782.227-1.54.445-2.297.712.065-1.138-.297-2.87-2.27-4.662.093-.138.192-.336.276-.524-.474.315-.955.643-1.415.97-.446.315-.906.622-1.34.95 1.077.98 1.79 2.266 2.147 3.542.054.228.103.436.134.654-.016.03-.05.04-.08.06-.643.237-1.272.524-1.88.792-.03.01-.06.03-.095.04 0-.07-.02-.15-.034-.238-.06-.455-.202-.94-.464-1.484-.223-.436-.53-.91-.93-1.366-.183-.208-.37-.405-.59-.633h-.004c-.707.565-1.415 1.158-2.103 1.76.162.16.306.328.444.486.302.356.554.702.788 1.068.282.507.51.98.692 1.486-.608.327-1.202.633-1.786.96-.233-.792-.693-1.77-1.608-2.672-.16.12-.302.268-.46.395-.575.544-1.158 1.118-1.732 1.692.133.16.252.317.376.485.36.515.668 1.07.91 1.633-.09.05-.163.1-.252.16-.42.276-.836.552-1.242.83-.233-.554-.575-1.17-1.09-1.782v.02l-.014.01c-.34.346-.678.75-1.005 1.118-.266.297-.538.594-.8.9.308.385.57.81.79 1.257zm61.195-14.015c-.367.78-.946 1.612-1.485 2.335-1.124.228-2.257.406-3.375.614-.015-.03-.03-.06-.065-.09.252-.207.505-.445.772-.732.802-.812 1.633-1.88 2.187-2.79.658.217 1.32.435 1.965.663zm-7.7 3.425c-.724.108-1.426.227-2.138.326-.288-.97-.728-1.9-1.43-2.674.876-.83 2.132-2.415 2.865-3.692.687.178 1.356.386 2.03.585-.63 1.335-1.862 2.928-2.397 3.84.456.425.812.98 1.07 1.613zm-5.96.9c-.775.12-1.563.238-2.325.336-.11-1.486-.633-3.484-1.9-5.01.9-.742 2.252-2.562 3.103-3.928.687.148 1.38.336 2.058.505-.692 1.317-1.954 3.028-2.543 3.89 1.03 1.03 1.525 2.652 1.61 4.206zm-7.04.336c-.74-.15-1.47-.278-2.224-.406.294-1.06.2-3.078-.875-5.048-.158-.277-.326-.564-.52-.83.94-.674 2.44-2.545 3.41-3.97.718.15 1.44.297 2.153.426-.777 1.336-2.47 3.157-3.138 3.988 1.367 1.584 1.694 4.018 1.194 5.84zm-6.538-.97c-.782-.05-1.55-.098-2.312-.13.41-1.087.332-3.334-1.306-5.65.935-.653 2.177-2.91 2.953-4.533.703.07 1.42.14 2.15.228-.62 1.435-1.72 3.593-2.392 4.424 1.312 1.622 1.436 3.898.907 5.66zm44.36-32.067c3.296-4.434 9.546-5.395 13.956-2.128 4.395 3.276 5.29 9.54 1.995 13.965-3.282 4.444-9.537 5.395-13.936 2.118-4.41-3.257-5.306-9.52-2.015-13.955zM128.26 20.618l13.736 2.782-.08 4.602c-.528-.515-1.34-1.14-2.468-1.366l-3.118-.623-2.658 13.124c-.187.93.03 1.75.44 2.365l-5.784-1.17c.673-.404 1.044-1.038 1.247-2.047l2.658-13.104-2.827-.563c-1.054-.2-1.82-.218-2.82.208l1.673-4.207zm-13.828 1.326c-.084-.86-.208-1.435-.59-1.89l5.04-.307c-.392.594-.422 1.346-.392 2.04l1.02 17.408-12.1-9.52.456 7.837v.03c.084 1.068.124 1.672.633 2.197l-5.33.325c.603-.683.652-1.514.617-2.326l-1.004-17.153 12.124 9.49-.475-8.133zm-36.3 7.315c3.282-4.435 9.537-5.386 13.946-2.12 4.395 3.268 5.296 9.542 2.015 13.966-3.3 4.434-9.556 5.394-13.956 2.118-4.405-3.267-5.305-9.53-2.004-13.965zM58.378 39.67l.065-.05c.85-.623 1.945-1.128 2.177-1.197 1.133-.446 2.25-.624 3.24-.505.644.08 1.228.277 1.9.564l.12.07c.836.416 1.564 1.06 2.153 1.88.455.604.787 1.237.985 1.93.088.278.47 1.812-.347 3.88l-.128.347 6.78 2.296c.984.287 1.875.426 2.582.475L73.51 52.57l-10.29-3.653 3.97 5.464c.6.71 1.1 1.246 2 1.326l-4.687 3.414c.115-.664-.04-1.267-.26-1.752L55.09 44.63c-.528-.712-1.3-1-1.973-1.138l5.26-3.822zM38.98 58.654c3.3-4.434 9.56-5.395 13.964-2.128 4.4 3.266 5.3 9.53 2.005 13.985-3.292 4.425-9.547 5.376-13.952 2.12-4.405-3.286-5.3-9.533-2.02-13.976zm-8.91 14.52l4.504.93c-.59.416-1.36 1.118-1.79 2.158l-1.21 2.95 12.393 5.066c.88.366 1.737.307 2.415.02L44.12 89.8c-.247-.683-.742-1.247-1.75-1.643L29.99 83.08l-1.084 2.662c-.386 1-.544 1.772-.326 2.83l-3.81-2.444 5.3-12.954zm-11.158 34.334c2.44-2.692 11.738-7.028 38.892-11.53 2.484-3.95 4.187-5.604 7.517-6.998.6 5.354 3.554 11.69 11.042 12.213h.07c7.106 0 8.436-7.433 16.023-7.433 7.645 0 8.942 7.463 16.23 7.463H135l.342 4.345H108.38c-7.013.227-8.373 7.462-15.925 7.462-7.62 0-8.943-7.364-16.108-7.462H75.215c-3.856 0-5.88 1.317-6.99 2.79-1.75-.03-3.537-.088-5.358-.098-22.155-.752-34.794-.297-43.82.07-.338-.09-.496-.318-.135-.822zm7.65 50.862l-4.285-9.016c1.05 1.088 2.36 1.267 4 .515l17.497-8.306c1.455-.643 1.99-1.75 2.005-2.92l4.165 8.81c2.158 4.462.733 9.44-3.24 11.33v.02c-2.728 1.268-4.574.417-4.574.417-.494 2.356-1.934 3.93-3.894 4.84v.02c-2.538 1.2-8.22 1.546-11.673-5.71zm22.403 27.862l-2.088 1.316-10.902-12.233c1.44.495 2.603.485 3.924-.613 1.508-1.337 14.326-12.758 14.355-12.797.084-.07.14-.13.14-.13 1.25-1.147 1.458-2.275 1.137-3.355l2.82 3.167-17.49 15.578 8.093 9.067h.01zm.95-.604l-7.442-8.353L59.1 162.438l.015.01 2.82 3.167c-1.364-.84-3.473.742-3.473.742-.035.02-.064.06-.098.08h-.01c-1.54 1.355-10.753 9.59-12.42 11.074 1.23 1.367 3.285 3.683 3.285 3.683l.08.08c1.85 2.038 4.13 2.167 4.13 2.167l-3.514 2.188zm33.142 0l-8.012 12.64c-2.742 4.313-7.764 4.85-12.56 1.79-4.913-3.138-6.23-7.65-3.523-11.996l8.007-12.63c.914-1.463.855-2.334.162-3.552l3.588 2.277-9.432 14.865c-.268.417-.336.554-.336.554-1.06 1.673-.867 3.86.26 5.74.02.04.04.07.066.11.608.998 1.504 1.92 2.637 2.64 3.26 2.08 7.256 1.644 8.913-.97 0 0 .223-.325.352-.543l9.422-14.866 3.573 2.266c-1.173-.146-2.252.348-3.118 1.675zM65.77 195.1c1.54.99 3.5.77 4.35-.456 2.69-4.256 7.786-12.283 7.786-12.283.807-1.285.96-2.275.158-3.56l3.593 2.275-9.605 15.153c-1.52 2.365-4.855 2.662-7.596.92-2.747-1.742-3.836-4.968-2.36-7.284l9.585-15.104 3.58 2.276c-1.445-.08-2.4.496-3.143 1.653 0 0-.045.088-.14.227-.018.06-6.763 10.68-7.635 12.035-.743 1.317-.125 3.187 1.43 4.148zm36.552 16.162l-11.917-2.82 2.168-9.097 9.72 2.326-.833 3.436s-.435-1.524-2.5-2.09l-.073-.028-4.36-1.02-1.118 4.692s6.184 1.464 6.224 1.475c2.307.475 3.39-.14 4.35-.702l-1.662 3.83zm3.365-14.48s-.728-1.623-3.71-2.345l-5.494-1.296-.85 3.644 4.543 1.078c2.053.485 3.19-.772 3.19-.772l-.825 3.474-9.818-2.326 1.905-8.027 11.323 2.674-.263 3.9zm.332-5.027l-12.23-2.92-4.85 20.418 12.932 3.07-.98 2.246-17.073-4.05c1.84-.208 2.617-1.612 2.89-2.613.033-.12-.006.05 4.512-19.003.326-1.356-.228-2.593-1.133-3.425l16.077 3.81-.148 2.465zM69.407 166.12c-11.946-11.194-18.983-25.684-21.022-40.748 1.272.287 2.558.574 3.865.84.96 6.147 2.796 12.145 5.513 17.835.04-.06.084-.12.13-.188.033-.05.068-.1.107-.14.396.495.793 1 1.213 1.495-.173.247-.322.515-.49.792.193.347.375.683.564 1.03.153.297.307.584.48.9.034-.108.08-.198.113-.297.163-.426.352-.83.56-1.217.444.455.91.9 1.395 1.346-.213.385-.386.84-.55 1.305-.108.288-.208.614-.296.94.483.772.978 1.534 1.483 2.297.125-1.07.505-2.128 1-3.05.495.427.99.842 1.485 1.258-.084.19-.183.406-.273.633-.366.97-.663 2.168-.65 3.375.25.347.516.673.768 1.01.55.71 1.114 1.415 1.682 2.107.01 0 .01-.02.02-.03l.015-.01v-.018c-.204-.465-.327-.96-.396-1.455-.19-1.444.203-2.86.876-4.008.173.14.37.257.565.396.366.277.733.544 1.104.812-.095.198-.195.465-.284.723-.42 1.296-.648 3.147.025 4.948-.05-.02-.088-.03-.133-.03-.09.01-.19.07-.297.13-.05.03-.08.08-.12.14.406.444.808.89 1.243 1.345.42.455.85.9 1.287 1.336.084-.218.183-.416.272-.623.02-.04.04-.068.065-.118.09-.15.163-.317.262-.475-1.115-1.96-.887-4.226-.04-5.89.563.338 1.15.684 1.745 1.04-.114.258-.213.605-.297 1-.217 1.06-.277 2.504.144 3.92.103.385.247.77.44 1.147-.034-.02-.08-.02-.138-.02-.02.02-.055.03-.084.06-.02.01-.034.01-.045.01-.02.02-.03.04-.055.06-.034.02-.055.03-.08.07-.23.246-.46.732-.677 1.276 0 0 .01.03.02.04h.014c.13.13.263.247.396.356.65.604 1.317 1.188 1.99 1.752.207.178.404.366.612.534.173-.93.47-1.712 1.064-2.652-1.026-1.83-1.203-4.365-.614-6.137.46.228.934.446 1.405.644.145.07.288.15.432.208-.342 1.385-.43 4.226.87 6.226-.123-.04-.24.01-.365.12-.43.357-.78 1.544-1.06 2.99 8.33 6.433 17.82 10.54 27.635 12.37.653 1.367 1.267 2.723 1.875 4.08-13.322-1.983-26.188-7.883-36.77-17.79zm14.886.386c-.807-.11-1.178 1.564-1.416 4.305-.673-.188-1.34-.385-1.995-.603.094-2.09.342-3.286 1.06-4.374-1.713-1.356-1.826-4.336-1.287-6.334.697.236 1.4.473 2.108.68-.276 1.585-.217 5.07 1.53 6.326zm6.388 1.188c-.806-.02-.955 2.098-.89 4.443-.718-.06-1.426-.168-2.123-.277-.135-1.92-.046-3.425.5-4.503-.238-.16-.456-.337-.664-.535-1.376-1.406-1.673-3.97-1.376-5.77.738.168 1.48.316 2.247.455-.158 1.515.173 4.702 2.305 6.187zm6.69 4.94c-.722.04-1.43.048-2.127.048-.3-1.78-.316-3.335.035-4.73-2.06-.89-2.91-3.85-2.875-5.95.757.05 1.52.1 2.296.12.08 1.545.873 4.484 3.124 5.75-.782.07-.703 2.682-.45 4.76zm-22.292-41.7c-6.186-4.325-10.12-6.7-18.75-8.293-17.926-3.344-32.548-8.996-36.86-12.122-1-.793-.76-1.158.144-1.148.946.01 2.005.03 3.123.06 15.787.504 29.718 1.96 42.436 3.77-.906 5.82 6.022 9.81 13.35 12.808 25.3 10.382 39.31 29.296 45.287 43.974 5.983-10.47 14.886-19.923 19.493-25.634l-8.982.03c2.064-5.672 6.39-13.036 10.824-19.805l8.16 7.047-2.112 2.544-3.89 4.67 6.072-.494 12.624-1.03c-1.93 1.524-26.604 21.27-47.86 62.532-11.198-32.89-29.578-59.495-43.058-68.907zm95.262 17.52c-.326-.86-.54-1.773-.663-2.762.617-.04 1.236-.08 1.834-.1.07.862.223 1.96.748 3.08 1.202-2.06 2.28-4.178 3.236-6.335.757-1.742 1.425-3.504 2.034-5.275l3.796.297c-3.01 9.263-8.05 18.042-15.148 25.613-9.18 9.83-20.582 16.31-32.696 19.46 1.02-1.645 2.044-3.228 3.044-4.762 9.972-3.275 19.275-9.015 26.956-17.21 2.99-3.187 5.58-6.592 7.79-10.174-.383-.596-.69-1.2-.932-1.833zm-4.49 23.407s.382.605 1.323 1.08l6.037 2.474-2.28-6.147c-.48-1.326-.852-1.464-1.055-1.573-.272-.08-.886-.14-1.885.306l3.934-3.78 5.102 15.173-14.985-5.66.074-.08 3.87-3.732c-.173.555-.51 1.268-.134 1.94zm-33.046 19.508c-.37-1.475-1.564-2.415-2.445-2.563l4.11-1.02s4.35 17.558 4.358 17.597c.703 2.84-1.504 5.127-4.067 5.77-.663.16-2.75.624-4.7-.574 0 0-1.48-.96-2.16-1.742l1.738-2.93s.723 2.297 2.222 2.81c.03 0 1.08.417 2.425.05 1.34-.385 2.434-1.583 2.098-2.92l-3.577-14.478zm22.814-38.48c.41-.446.807-.872 1.192-1.287.46.357 1 .664 1.683.842-.565 1.06-1.222 3-1.752 4.75-.737.208-1.47.416-2.202.644.412-1.712 1.03-3.395 1.5-4.72-.143-.07-.272-.16-.42-.23zm3.944-4.178c.66-.644 1.267-1.257 1.842-1.81.218 1.177.78 3.027 2.776 4.294-.515 1.06-1.272 2.94-1.92 4.623-.753.158-1.524.326-2.297.534.386-1.196.915-2.612 1.37-3.7.16-.376.312-.712.446-.99-1.103-.9-1.78-1.79-2.216-2.95zm7.502 6.206c-.66.09-1.31.198-1.965.326.51-1.405 1.333-3.226 2.035-4.453-.915-1.575-1.633-2.763-1.93-4.633.618-.09 1.236-.16 1.835-.228.178 1.167.584 2.92 2.024 4.61-.627 1.2-1.39 2.862-1.998 4.376zm-26.535 56.86c-1.266 1.317-2.974 2.287-4.967 2.782 0 0-5.33 1.83-9.67-2.365l1.45-2.425c.786.752 1.142 1.07 1.87 1.564 1.668 1.11 3.89 1.306 5.745.86 1.99-.504 3.45-1.583 4.384-3.027 1.31-2.03.465-4.514.465-4.514l-4.246-17.14 4.104-1.02s-1.366 1.612-.95 3.404l3.616 14.57c.055.207.194.93.2.97.332 2.325-.327 4.58-2 6.343zm29.55-11.975l-4.266 2.258c1.054-1.466.03-2.514-.618-3.05l-2.563-1.978-5.89 3.098.2 3.087c.242 1.356 1.133 2.237 2.117 2.405l-4.216 2.218-.074.04-.575-8.78 9.052-4.76 6.913 5.423-.08.04zm-16.004-1.91l-.797-11.47 9.04 7.125-8.244 4.345zm17.18 1.298l-19.21-15.144 1.643 24.398-3.797 2c.66-.91 1.054-2.346 1.08-4.86l-1.436-26.298 20.923 16.073c1.49 1 2.915 1.88 4.395 1.93l-3.598 1.9zm9.89-8.017c.43-1.118.47-2.632-.817-3.92l-4.1-4.274-14.4-5.464c-1.416-.436-2.054-.544-3.76.03l3.072-2.94 16.43 6.166 6.923 7.186-3.35 3.217zm4.17-3.998h-.014l-6.923-7.186-5.56-16.647 3.16-3.03c-.778 2.455-.373 3.366-.253 3.88l4.894 14.55 4.485 4.623c1.02.85 2.098 1.108 3.538.613l-3.327 3.196zm8.557-20.794l-.93-3.246.045.03c.01.01 2.163.93 3.514.207.242-.12 1.054-.535 1.608-1.604.678-1.306.297-2.78-.496-3.207-1.276-.734-2.627.098-4.532 1.81l-.183.168c-2.332 2.09-5.232 4.69-9.815 2.108-.326-.168-.608-.366-.886-.554-1.95-1.425-3.04-3.414-3.188-5.76-.1-1.762.386-3.593 1.42-5.464 1.39-2.434 4.21-4.444 6.736-4.8l.618-.07.01.02.85 2.385h-.004c-3.667-.08-5.65 2.81-6.176 3.702-.975 1.672-1.267 3.454-.826 5.008.41 1.385 1.35 2.504 2.726 3.246 2.86 1.563 4.924.06 7.34-2.07.004-.02 1.48-1.277 2.672-2.058 1.4-.91 2.895-.89 4.602.07 2.158 1.226 2.72 4.057 1.33 6.59l-.04.08c-.028.05-.058.12-.097.178-.896 1.593-2.207 2.603-3.924 2.97-.01 0-1.486.347-2.342.257h-.035zm9.33-1.614s-.06.13-.18.356c-.622 1.11-3.053 4.77-8.05 5h-.02l-.767-2.674h.005c1.1-.04 1.565-.098 2.392-.287 1.93-.456 3.548-1.694 4.568-3.495.96-1.703 1.222-3.603.742-5.296-.357-1.287-1.188-2.317-2.45-3.09-1.257-.76-2.594-.84-2.752-.85-2-.06-3.365 1.11-4.805 2.356-.134.098-.262.218-.39.326l-.724.584-.068.07c-1.56 1.405-3.33 2.99-5.725 1.652-2.52-1.435-3.177-4.048-1.608-6.62 1.855-3.04 4.58-3.297 5.67-3.257h.035l1.142 3.168-.044-.04c-2.9-1.444-4.475.86-4.652 1.13-.786 1.216-.692 2.364.233 3.027.134.09.233.168.43.247.837.386 1.668-.03 3.445-1.693l.07-.07c1.826-1.722 5.597-5.285 10.98-2.257 2.312 1.317 3.723 3.574 3.876 6.245.107 1.824-.367 3.705-1.352 5.466zM189.84 131.32l3.732 4.464-11.466-.93-3.77-.297-3.33-.287-1.125 2.148-.518 1.01-1.64-3.158-17.26 1.416-1.3.098 3.726-4.463-22.76-19.625 1.773-.624 2.396-.83-.97-11.758 10.714 1.83 2.05-5.196s6.486 6.305 7.724 7.512c.03.04.064.07.098.11.257.226.525.415.798.583.232.12.474.22.712.248.103.03.203.04.31.04.457 0 .838-.198 1.09-.644.173-.267.253-.643.298-1.128.024-.287.034-.613 0-.99-.19-1.85-1.56-16.003-1.56-16.003l6.265 2.503 2.514-4.098 5.022-8.214 7.53 12.312 6.277-2.524s-.942 9.7-1.372 14.104c-.09.91-.153 1.593-.188 1.92-.154 1.703.33 2.535 1.058 2.722.115.04.213.04.327.04.56 0 1.217-.316 1.826-.87l.094-.11c1.248-1.188 7.735-7.492 7.735-7.512l2.028 5.196 10.72-1.83-.97 11.758 2.088.733 2.08.723-22.756 19.625z" fill="#FFF"/><path d="M35.654 152.145l-4.43 2.108.738 1.564c1.207 2.623 2.222 2.544 3.286 2.415.38-.05.876-.327 1.128-.585.688-.653 1.01-1.85.025-3.938l-.746-1.565zM63.643 46.53c1.667-1.217 1.494-2.613 1.46-2.772-.035-.227-.322-1.118-1.01-1.504-1.02-.554-1.98-.386-3.31.554l-1.322.98 2.762 3.78 1.42-1.038z" fill="#FFF"/><path d="M225.506 131.47c4.072-29.198-3.464-58.247-21.22-81.763-16.95-22.458-41.535-37.462-69.258-42.263-14.722-2.534-29.543-2.098-44.033 1.277-4.915 1.14-9.69 2.624-14.35 4.416-9.587 3.672-18.6 8.68-26.942 14.974-4.3 3.256-8.324 6.77-12.06 10.55C20.99 55.457 10.232 77.072 6.9 100.926c-.775 5.483-1.122 10.937-1.087 16.37.19 23.526 7.864 46.27 22.31 65.383 4.235 5.61 8.956 10.767 14.073 15.41 15.36 13.914 34.38 23.258 55.173 26.84h.004c12.882 2.247 25.832 2.187 38.576-.14 1.82-.325 3.636-.69 5.453-1.117 14.99-3.514 28.886-10.046 41.283-19.408 23.534-17.756 38.732-43.62 42.82-72.796zm-39.076 67.32c-1.593 1.357-3.236 2.663-4.924 3.93-16.934 12.808-37.294 20.24-58.217 21.636-1.193.08-2.367.148-3.55.178-4.57.148-9.154.02-13.73-.406-2.783-.257-5.544-.623-8.3-1.1h-.016c-12.13-2.097-23.63-6.184-34.15-12.024-3.515-1.94-6.91-4.087-10.17-6.403-8.947-6.373-16.95-14.123-23.724-23.09-5.87-7.78-10.59-16.172-14.143-24.98-3.697-9.176-6.102-18.796-7.146-28.664-.945-8.77-.785-17.727.45-26.674 2.708-19.31 10.354-37.125 22.102-52.02 5.716-7.246 12.406-13.818 19.968-19.528C65.54 18.58 82.765 11.534 100.704 8.92c.525-.07 1.07-.16 1.593-.228 1.297-.15 2.6-.317 3.905-.416 3.014-.288 6.058-.456 9.1-.485 5.538-.058 11.105.318 16.633 1.13.94.138 1.84.277 2.76.435 5.692.98 11.23 2.415 16.61 4.256 20.377 6.95 38.252 19.806 51.43 37.255 11.883 15.727 19.093 33.988 21.236 53.08.026.198.05.376.066.565v.03c.934 8.748.79 17.696-.465 26.653-1.212 8.78-3.478 17.242-6.666 25.268-6.482 16.292-16.864 30.77-30.474 42.33z" fill="#FFF"/><path d="M135.75 3.317C120.455.684 105.08 1.11 90.04 4.634c-15.575 3.642-29.995 10.422-42.86 20.12-24.413 18.43-40.204 45.292-44.436 75.597-4.24 30.308 3.583 60.435 22.012 84.862C42.358 208.52 67.883 224.1 96.65 229.077h.01c15.276 2.633 30.657 2.197 45.69-1.317 15.58-3.632 29.99-10.412 42.867-20.13 24.422-18.44 40.203-45.282 44.435-75.588 4.235-30.296-3.588-60.444-22.027-84.87-17.587-23.298-43.113-38.876-71.874-43.855zm89.756 128.152c-4.088 29.177-19.286 55.04-42.82 72.795-12.398 9.373-26.294 15.895-41.284 19.408-1.816.426-3.632.792-5.453 1.118-12.745 2.337-25.695 2.387-38.577.14h-.005c-20.794-3.583-39.812-12.926-55.173-26.84-5.117-4.643-9.838-9.8-14.074-15.41C13.677 163.565 6 140.822 5.813 117.295c-.034-5.433.312-10.887 1.088-16.37 3.33-23.854 14.09-45.47 30.74-62.265 3.738-3.78 7.76-7.293 12.062-10.55 8.343-6.294 17.355-11.302 26.94-14.973 4.663-1.792 9.438-3.277 14.352-4.415 14.49-3.375 29.31-3.81 44.033-1.277 27.723 4.8 52.31 19.805 69.257 42.263 17.758 23.515 25.294 52.564 21.222 81.76z" fill="#134A8E"/><path d="M216.904 156.46c3.187-8.026 5.454-16.49 6.667-25.267 1.258-8.957 1.4-17.904.466-26.654v-.02c-.015-.2-.04-.377-.065-.575-2.142-19.092-9.352-37.352-21.234-53.08-13.178-17.45-31.054-30.306-51.432-37.254-5.38-1.84-10.917-3.275-16.608-4.255-.92-.158-1.82-.297-2.76-.436-5.53-.812-11.097-1.188-16.634-1.13-3.043.03-6.086.2-9.1.486-1.306.098-2.608.267-3.905.416-.524.07-1.068.158-1.593.227-17.94 2.613-35.165 9.66-49.824 20.725-7.562 5.71-14.252 12.283-19.968 19.527-11.748 14.895-19.394 32.712-22.1 52.02-1.237 8.948-1.397 17.905-.45 26.675 1.043 9.867 3.448 19.488 7.145 28.663 3.553 8.808 8.274 17.202 14.143 24.98 6.774 8.968 14.777 16.72 23.724 23.092 3.26 2.316 6.656 4.463 10.17 6.403 10.52 5.84 22.035 9.927 34.15 12.025h.015c2.756.475 5.517.84 8.3 1.1 4.576.425 9.16.553 13.73.405 1.184-.03 2.357-.1 3.55-.178 20.923-1.396 41.282-8.83 58.216-21.636 1.687-1.266 3.33-2.572 4.924-3.928 13.61-11.56 23.992-26.04 30.474-42.33zm-37.912 42.915c-23.25 17.55-51.863 24.486-80.575 19.538l-.014-.02c-26.164-4.533-49.39-18.696-65.398-39.906-16.77-22.22-23.887-49.645-20.042-77.21 3.86-27.574 18.212-52 40.44-68.757 23.256-17.56 51.87-24.486 80.576-19.528 23.318 4.038 44.276 15.707 59.894 33.206.055.07.1.12.134.148 1.87 2.1 3.662 4.286 5.37 6.542 16.78 22.23 23.9 49.665 20.056 77.23-3.86 27.565-18.227 51.99-40.442 68.757z" fill="#134A8E"/><path d="M76.673 167.456c.278-1.445.628-2.632 1.06-2.99.123-.107.24-.157.365-.118-1.3-2-1.212-4.84-.87-6.226-.145-.06-.288-.14-.432-.208-.47-.198-.945-.416-1.405-.644-.588 1.772-.41 4.305.614 6.137-.594.94-.89 1.722-1.064 2.652-.208-.17-.405-.357-.613-.535-.673-.565-1.34-1.148-1.99-1.752-.133-.108-.267-.227-.395-.346 0 0 0-.01-.014-.01-.01-.01-.02-.03-.02-.03.218-.553.446-1.04.678-1.286.024-.04.045-.05.08-.068.024-.02.033-.04.054-.06.01 0 .024 0 .045-.01.03-.03.064-.04.084-.06.058 0 .102 0 .138.02-.194-.376-.337-.762-.44-1.148-.422-1.415-.362-2.86-.145-3.92.084-.394.183-.74.297-.998-.594-.357-1.183-.702-1.746-1.04-.846 1.663-1.074 3.93.04 5.89-.1.157-.173.325-.262.474-.024.05-.045.08-.065.12-.088.207-.188.404-.272.622-.436-.435-.867-.88-1.287-1.336-.435-.455-.836-.9-1.242-1.346.04-.06.07-.11.12-.14.107-.06.207-.118.296-.128.045 0 .084.01.134.03-.673-1.802-.446-3.653-.025-4.95.09-.256.19-.524.284-.722-.37-.268-.738-.535-1.104-.812-.194-.14-.39-.257-.565-.396-.673 1.148-1.064 2.564-.876 4.008.068.496.192.99.395 1.455v.02l-.015.01c-.01.01-.01.028-.02.028-.57-.692-1.133-1.396-1.682-2.108-.252-.336-.52-.663-.767-1.01-.013-1.206.284-2.404.65-3.374.09-.226.19-.444.273-.632-.496-.416-.99-.83-1.485-1.257-.496.92-.876 1.98-1 3.05-.505-.762-1-1.524-1.484-2.297.088-.326.187-.653.297-.94.164-.465.337-.92.55-1.306-.485-.445-.95-.89-1.396-1.346-.208.387-.396.793-.56 1.218-.033.1-.078.19-.112.297-.173-.316-.327-.603-.48-.9-.188-.347-.37-.683-.565-1.03.168-.277.317-.544.49-.792-.42-.495-.816-1-1.212-1.495-.04.04-.074.09-.108.14-.045.068-.09.128-.13.187-2.716-5.69-4.552-11.69-5.51-17.834-1.308-.267-2.595-.553-3.866-.84 2.04 15.064 9.077 29.554 21.023 40.748 10.58 9.907 23.447 15.806 36.774 17.786-.608-1.356-1.222-2.712-1.875-4.078-9.82-1.83-19.31-5.936-27.64-12.37zM68.968 71.886l.014-.01v-.02c.515.614.856 1.228 1.09 1.783.405-.28.82-.555 1.242-.832.09-.06.163-.11.252-.16-.242-.562-.55-1.117-.91-1.632-.124-.168-.243-.326-.376-.485.574-.573 1.157-1.146 1.732-1.692.158-.128.3-.277.46-.395.915.9 1.375 1.88 1.608 2.673.584-.327 1.178-.633 1.786-.96-.182-.506-.41-.98-.692-1.486-.233-.366-.486-.712-.788-1.068-.138-.158-.282-.326-.445-.485.69-.603 1.397-1.197 2.104-1.76h.005c.217.227.404.425.588.632.4.454.707.93.93 1.365.262.544.405 1.03.465 1.484.015.088.034.168.034.237.035-.01.065-.03.094-.04.61-.268 1.24-.554 1.88-.792.03-.02.066-.03.08-.06-.03-.218-.08-.426-.133-.654-.357-1.275-1.07-2.562-2.148-3.542.434-.326.894-.633 1.34-.95.46-.326.94-.654 1.415-.97-.084.187-.182.386-.277.524 1.974 1.792 2.336 3.524 2.27 4.662.758-.268 1.515-.485 2.298-.712-.02-.723-.19-1.485-.446-2.218-.292-.742-.712-1.494-1.267-2.158-.134-.158-.262-.306-.41-.455.08-.226.178-.543.277-.91.02-.098.055-.198.09-.316 1.247-.752 2.528-1.435 3.81-2.088-.352 1.01-.747 1.89-1.153 2.335 1.97 2.23 2.024 3.91 1.757 5l-.02.08v.04c.777-.18 1.574-.337 2.376-.496.242-1.672-.268-3.622-1.584-5.236.015-.04.035-.1.06-.14.015-.04.034-.068.05-.128.297-.653.65-1.643.955-2.642 1.085-.485 2.154-.93 3.257-1.356.357-.14.712-.297 1.064-.405-.46 1.306-1.077 2.79-1.71 3.612-.09.107-.18.207-.263.306 1.173 1.267 1.712 2.8 1.88 4.008.005.03.005.07.005.1v.008c.074.554.06 1.04-.02 1.376.708-.05 1.42-.09 2.144-.13.064 0 .143 0 .208-.01.11-.622.143-1.305.09-1.978-.066-.584-.184-1.158-.402-1.713-.287-.722-.727-1.375-1.33-1.89.533-.93 1.4-3.078 1.8-4.532v-.01c12.852-4.177 26.778-4.276 39.7-.168.06.01.128.02.183.05.108.02.227.07.336.098 3.52 1.148 6.96 2.613 10.28 4.375 1.602-.496 3.18-1.02 4.716-1.574-27.03-16.182-62.617-11.946-85.04 11.966-6.486 6.918-11.237 14.825-14.32 23.19 1.385-.248 2.805-.506 4.266-.753 1.825-4.504 4.177-8.84 7.066-12.917.015.01.015.03.025.03.01.02.035.05.045.07.108-.08.232-.2.35-.298.303-.287.634-.575.962-.85-.035-.07-.07-.13-.104-.18-.06-.098-.108-.217-.163-.306.505-.674 1.025-1.347 1.56-2 .098.12.177.247.25.366.12.198.23.376.322.565.47-.375.946-.742 1.416-1.098-.217-.446-.48-.872-.786-1.258.262-.306.535-.603.802-.9.324-.366.66-.77 1.002-1.118zM136.528 177.67c-1 1.534-2.024 3.118-3.044 4.76 12.114-3.147 23.516-9.63 32.696-19.458 7.096-7.57 12.14-16.35 15.148-25.614l-3.796-.297c-.61 1.773-1.277 3.534-2.034 5.276-.955 2.158-2.034 4.276-3.236 6.334-.525-1.118-.678-2.217-.748-3.078-.598.02-1.217.06-1.835.1.123.988.335 1.9.662 2.76.242.633.55 1.237.93 1.83-2.207 3.584-4.8 6.988-7.79 10.175-7.68 8.197-16.982 13.937-26.954 17.213z" fill="#E8291C"/><path d="M86.13 161.053c-.297 1.8 0 4.364 1.376 5.77.208.198.426.376.663.535-.545 1.078-.634 2.582-.5 4.503.696.11 1.405.22 2.122.278-.065-2.345.084-4.463.89-4.443-2.132-1.485-2.464-4.672-2.306-6.186-.766-.14-1.508-.29-2.246-.457zM80.657 159.5c-.54 1.998-.426 4.977 1.286 6.333-.718 1.088-.965 2.285-1.06 4.374.655.218 1.323.416 1.996.604.237-2.74.608-4.414 1.415-4.304-1.747-1.258-1.806-4.74-1.53-6.325-.707-.207-1.41-.444-2.108-.68zM156.743 157.192c.53-1.75 1.188-3.69 1.752-4.75-.683-.178-1.222-.485-1.683-.84l-1.192 1.285c.148.07.277.158.42.228-.47 1.326-1.088 3.01-1.5 4.72.733-.227 1.466-.435 2.203-.643zM159.965 156.35c.772-.207 1.544-.375 2.296-.533.65-1.682 1.407-3.563 1.922-4.623-1.995-1.267-2.558-3.118-2.776-4.295-.575.553-1.183 1.167-1.842 1.81.436 1.158 1.114 2.05 2.218 2.95-.134.277-.287.613-.446.99-.456 1.088-.985 2.504-1.37 3.7zM165.206 146.157c.297 1.87 1.015 3.058 1.93 4.632-.702 1.226-1.524 3.048-2.034 4.452.654-.13 1.306-.237 1.965-.326.608-1.514 1.37-3.177 2-4.374-1.44-1.693-1.847-3.445-2.025-4.612-.6.068-1.218.138-1.836.227zM120.742 58.535c-.733 1.277-1.99 2.86-2.865 3.692.702.772 1.142 1.703 1.43 2.673.712-.1 1.415-.218 2.137-.326-.257-.633-.613-1.188-1.07-1.613.536-.91 1.77-2.503 2.397-3.84-.672-.2-1.34-.407-2.028-.585zM124.22 64.01c.034.028.05.058.065.088 1.118-.208 2.25-.386 3.375-.614.54-.723 1.118-1.554 1.485-2.335-.644-.23-1.306-.447-1.965-.665-.554.91-1.385 1.98-2.187 2.79-.268.288-.52.526-.773.734zM114.363 56.872c-.85 1.366-2.202 3.186-3.103 3.93 1.267 1.523 1.792 3.522 1.9 5.007.762-.1 1.55-.22 2.326-.337-.084-1.554-.58-3.177-1.608-4.206.59-.86 1.85-2.573 2.544-3.89-.68-.168-1.372-.357-2.06-.505zM108.236 55.556c-.97 1.425-2.47 3.296-3.41 3.97.194.267.362.553.52.83 1.074 1.97 1.168 3.99.876 5.048.753.13 1.485.257 2.223.405.5-1.822.173-4.257-1.193-5.84.668-.832 2.36-2.653 3.138-3.99-.714-.127-1.436-.275-2.154-.424zM101.243 54.526c-.776 1.624-2.02 3.88-2.954 4.533 1.638 2.315 1.717 4.562 1.305 5.65.762.03 1.53.08 2.312.13.53-1.762.405-4.04-.906-5.662.674-.83 1.773-2.99 2.392-4.424-.728-.09-1.446-.158-2.15-.228zM97.823 167.872c-2.25-1.267-3.044-4.206-3.123-5.75-.776-.02-1.538-.07-2.296-.12-.034 2.1.816 5.058 2.875 5.948-.353 1.396-.337 2.95-.036 4.73.698 0 1.406-.008 2.128-.048-.25-2.078-.33-4.69.45-4.76z" fill="#E8291C"/><path fill="#134A8E" d="M211.476 195.813h-.02l-1.024-2.88h-1.56v4.413h.896v-3.494h.025l1.228 3.494h.887l1.26-3.494h.026v3.494h.9v-4.414h-1.54M204.508 193.734h1.327v3.612h.89v-3.612h1.34v-.802h-3.557M68.388 87.84c-.326 5.247 3.484 10.265 7.973 10.265 0 0-1.168-2.99.337-6.007.584-1.178 1.672-2.247 3.132-3.118 11.104-7.61 34.913.12 34.913.12-5.608-.516-10.21-.407-14.12.097 6.612 2.05 13.66 4.83 18.44 5.98 5.88 1.444 9.784 2.186 15.633 2.523l-.193-2.297 3.256.545 8.663 1.484 1.272-3.246 1.42-3.583 2.748 2.683c.06.07 4.32 4.206 6.56 6.393-.394-4.118-1.404-14.5-1.42-14.61l-.39-4.197 3.9 1.574 4.266 1.722 6.397-10.482 2.183-3.553 2.182 3.553 5.176 8.452c1.787-7.334 3.088-15.093 6.86-18.696-3.786.15-6.45 1.208-10.577 4.098 2.342-6.344 5.806-11.035 10.488-16.4-4.537.683-8.883 1.99-13.144 4.415 1.624-3.85 1.732-8.66 1.732-8.66-19.948 23.17-75.61 22.883-90.032 27.604-9.44 3.108-14.295 8.254-17.656 13.34z"/><path d="M165.997 137.31l-12.624 1.03-6.072.494 3.89-4.67 2.114-2.545-8.16-7.048c-4.435 6.77-8.76 14.133-10.824 19.805l8.982-.03c-4.606 5.71-13.51 15.163-19.493 25.634-5.98-14.676-19.99-33.59-45.287-43.973-7.33-3-14.257-6.988-13.35-12.808-12.72-1.812-26.65-3.267-42.437-3.772-1.118-.03-2.177-.05-3.123-.06-.905-.01-1.143.357-.143 1.15 4.31 3.126 18.933 8.778 36.858 12.122 8.63 1.594 12.564 3.97 18.75 8.294 13.48 9.412 31.86 36.017 43.06 68.906 21.255-41.262 45.93-61.007 47.86-62.53zM62.866 108.26c1.82.01 3.608.07 5.36.1 1.108-1.476 3.132-2.792 6.987-2.792h1.133c7.165.098 8.487 7.462 16.108 7.462 7.552 0 8.912-7.235 15.924-7.462h26.963l-.343-4.345h-26.312c-7.29 0-8.586-7.463-16.23-7.463-7.588 0-8.92 7.433-16.025 7.433h-.07c-7.487-.524-10.44-6.858-11.04-12.213-3.33 1.395-5.033 3.048-7.517 6.997-27.154 4.503-36.452 8.84-38.892 11.53-.36.506-.202.733.135.822 9.027-.367 21.666-.822 43.82-.07zm26.67-11.125c-.53 2.15-.23 4-.105 4.95H86.87c-.055-1.92 1.088-3.9 2.667-4.95z" fill="#1D2D5C"/><path d="M89.535 97.135c-1.58 1.05-2.722 3.03-2.668 4.95h2.563c-.123-.95-.425-2.802.105-4.95z" fill="#FFF"/><path d="M103.787 37.74c.034.813-.014 1.644-.618 2.327l5.33-.326c-.51-.524-.55-1.128-.634-2.196v-.03l-.456-7.838 12.1 9.52-1.02-17.408c-.03-.693 0-1.445.39-2.04l-5.037.308c.38.455.505 1.03.59 1.89l.474 8.135-12.124-9.49 1.004 17.15zM40.998 72.63c4.405 3.255 10.66 2.305 13.95-2.12 3.297-4.453 2.396-10.718-2.004-13.984C48.54 53.26 42.28 54.22 38.98 58.654c-3.282 4.443-2.387 10.69 2.018 13.975zm1.198-11.6c1.925-2.594 5.735-3.148 8.324-1.237 2.587 1.92 3.152 5.73 1.226 8.324-1.925 2.593-5.725 3.147-8.323 1.227-2.593-1.9-3.153-5.732-1.227-8.315zM129.406 24.617l2.827.564-2.658 13.105c-.203 1.01-.574 1.643-1.247 2.048l5.785 1.17c-.41-.615-.628-1.436-.44-2.366l2.657-13.124 3.118.623c1.128.227 1.94.85 2.47 1.366l.078-4.602-13.737-2.782-1.674 4.207c1-.426 1.766-.407 2.82-.208zM28.908 85.743l1.084-2.662 12.377 5.08c1.008.395 1.503.96 1.75 1.642l2.262-5.503c-.678.287-1.534.346-2.415-.02l-12.392-5.067 1.208-2.95c.43-1.04 1.202-1.74 1.79-2.157l-4.502-.93-5.3 12.956 3.81 2.445c-.216-1.063-.058-1.834.328-2.834zM55.09 44.63l9.152 12.737c.222.485.376 1.088.26 1.752l4.687-3.415c-.9-.08-1.4-.614-2-1.327l-3.97-5.464 10.29 3.653 4.394-3.207c-.707-.05-1.598-.19-2.583-.475l-6.778-2.297.13-.346c.815-2.07.434-3.603.346-3.88-.2-.693-.53-1.327-.985-1.93-.59-.822-1.317-1.466-2.153-1.88l-.12-.07c-.672-.288-1.257-.485-1.9-.565-.99-.12-2.107.06-3.24.505-.233.07-1.327.574-2.178 1.197l-.065.05-5.26 3.82c.673.14 1.445.427 1.974 1.14zm5.693-1.822c1.33-.94 2.29-1.11 3.31-.554.688.386.975 1.277 1.01 1.504.033.16.207 1.555-1.46 2.772l-1.42 1.04-2.762-3.78 1.323-.982zM80.137 43.224c4.4 3.276 10.655 2.316 13.956-2.118 3.28-4.424 2.38-10.698-2.015-13.965-4.41-3.265-10.664-2.315-13.945 2.12-3.3 4.433-2.4 10.697 2.004 13.964zm1.193-11.59c1.92-2.583 5.725-3.148 8.32-1.227 2.577 1.91 3.156 5.74 1.226 8.314-1.92 2.604-5.726 3.158-8.32 1.228-2.582-1.91-3.156-5.72-1.226-8.314zM148.28 46.727c4.4 3.277 10.655 2.326 13.937-2.118 3.295-4.425 2.4-10.69-1.995-13.966-4.41-3.266-10.66-2.306-13.956 2.128-3.29 4.435-2.394 10.7 2.015 13.955zm1.184-11.58c1.925-2.592 5.73-3.147 8.328-1.227 2.594 1.92 3.153 5.74 1.227 8.324-1.92 2.594-5.73 3.148-8.325 1.227-2.582-1.93-3.15-5.73-1.23-8.323zM71.976 178.918c.094-.14.14-.228.14-.228.742-1.157 1.697-1.732 3.142-1.653l-3.58-2.276-9.585 15.105c-1.475 2.316-.385 5.542 2.36 7.284 2.743 1.74 6.078 1.444 7.597-.92l9.605-15.154-3.593-2.276c.802 1.286.65 2.276-.158 3.562 0 0-5.097 8.027-7.785 12.283-.85 1.227-2.81 1.445-4.35.456-1.555-.96-2.173-2.83-1.43-4.146.872-1.357 7.617-11.978 7.636-12.036z" fill="#134A8E"/><path d="M82.602 181.688l-9.422 14.866c-.13.218-.352.544-.352.544-1.657 2.613-5.65 3.05-8.913.97-1.133-.723-2.03-1.643-2.637-2.642-.025-.04-.045-.07-.065-.11-1.128-1.88-1.32-4.066-.26-5.74 0 0 .068-.137.335-.553l9.432-14.865-3.588-2.277c.693 1.22.752 2.09-.163 3.554l-8.008 12.63c-2.707 4.344-1.39 8.857 3.523 11.995 4.796 3.058 9.82 2.523 12.56-1.792l8.012-12.64c.867-1.326 1.945-1.82 3.118-1.672l-3.573-2.268zM185.105 183.362l-4.484-4.623-4.893-14.55c-.12-.515-.525-1.426.252-3.88l-3.16 3.028 5.56 16.647 6.922 7.186h.014l3.326-3.196c-1.44.496-2.52.238-3.537-.612zM162.118 173.65l-.074.08 14.985 5.662-5.103-15.173-3.934 3.78c1-.446 1.613-.387 1.885-.307.203.108.575.247 1.054 1.573l2.28 6.147-6.036-2.475c-.94-.474-1.322-1.078-1.322-1.078-.376-.673-.04-1.385.134-1.94l-3.87 3.73zM161.143 174.602l-3.073 2.94c1.707-.575 2.345-.466 3.76-.03l14.402 5.464 4.098 4.275c1.286 1.288 1.247 2.802.816 3.92l3.35-3.216-6.922-7.186-16.43-6.166zM142.332 204.463l-3.617-14.57c-.416-1.79.95-3.404.95-3.404l-4.102 1.02 4.246 17.14s.845 2.486-.466 4.515c-.935 1.444-2.395 2.524-4.384 3.028-1.856.445-4.077.247-5.745-.86-.728-.496-1.083-.813-1.87-1.565l-1.45 2.425c4.34 4.196 9.67 2.365 9.67 2.365 1.994-.495 3.7-1.466 4.968-2.78 1.672-1.763 2.33-4.02 2-6.345-.007-.04-.146-.762-.2-.97z" fill="#134A8E"/><path d="M134.286 208.768c-1.346.366-2.395-.05-2.425-.05-1.498-.515-2.22-2.81-2.22-2.81l-1.738 2.93c.678.78 2.158 1.74 2.158 1.74 1.95 1.2 4.038.734 4.702.575 2.563-.643 4.77-2.93 4.067-5.77l-4.36-17.597-4.108 1.02c.88.148 2.074 1.088 2.445 2.563l3.578 14.48c.335 1.334-.758 2.532-2.1 2.918z" fill="#134A8E"/><path d="M40.36 155.688l-.035-.247.19.15c1.79 1.336 3.453 1.592 5.056.84 2.727-1.306 3.687-4.78 2.188-7.948l-2.34-4.948-18.944 8.987 2.276 4.81c2.005 4.217 5.112 5.83 8.33 4.316 2.383-1.138 3.606-3.405 3.28-5.958zm4.517-10.65l1.856 3.92c1.257 2.582.52 5.423-1.633 6.452-2.084.98-4.434-.227-5.72-2.96l-1.866-3.918 7.363-3.494zm-8.284 15.59c-3.588 1.68-5.82-1.644-6.814-3.772l-1.808-3.79 8.528-4.048 1.79 3.79c.837 1.76 2.332 5.91-1.697 7.82z" fill="#FFF"/><path d="M45.1 155.41c2.153-1.028 2.89-3.87 1.633-6.452l-1.856-3.92-7.363 3.495 1.865 3.92c1.286 2.73 3.637 3.938 5.72 2.958zm-1.356-7.086l.802 1.682c.594 1.258.44 2.465-.613 2.96-1.277.613-2.28-.595-2.662-1.416l-.792-1.673 3.266-1.553zM38.29 152.808l-1.79-3.79-8.528 4.048 1.807 3.79c.993 2.128 3.225 5.454 6.813 3.77 4.03-1.91 2.534-6.057 1.698-7.818zm-1.915 4.84c-.252.256-.747.534-1.128.584-1.064.13-2.08.208-3.286-2.415l-.737-1.564 4.43-2.108.747 1.564c.986 2.087.663 3.285-.025 3.937z" fill="#134A8E"/><path d="M38.236 164.062c1.96-.91 3.4-2.485 3.895-4.84 0 0 1.847.85 4.574-.416v-.02c3.974-1.89 5.4-6.868 3.24-11.332l-4.165-8.81c-.016 1.17-.55 2.278-2.006 2.92l-17.498 8.306c-1.64.752-2.95.574-4-.515l4.287 9.016c3.454 7.257 9.136 6.91 11.673 5.712v-.02zm-9.486-6.73l-2.276-4.81 18.943-8.988 2.34 4.948c1.5 3.167.54 6.64-2.186 7.948-1.602.752-3.265.496-5.056-.84l-.19-.15.035.248c.325 2.553-.897 4.82-3.282 5.958-3.216 1.515-6.324-.1-8.328-4.315zM40.864 177.165l17.49-15.578-2.82-3.167c.32 1.08.112 2.207-1.14 3.356 0 0-.054.06-.138.13-.03.04-12.847 11.46-14.356 12.796-1.322 1.1-2.484 1.108-3.924.613l10.902 12.233 2.088-1.316h-.01l-8.092-9.067z" fill="#134A8E"/><path d="M49.217 181.194s-2.053-2.316-3.286-3.682c1.67-1.485 10.883-9.72 12.422-11.065 0 0 0-.01.01-.01.034-.02.064-.06.098-.08 0 0 2.11-1.582 3.474-.74l-2.82-3.168-.016-.01-16.627 14.836 7.444 8.353 3.514-2.188s-2.28-.13-4.132-2.168l-.08-.08zM99.635 208.135l-6.225-1.475 1.118-4.692 4.36 1.02.074.03c2.064.564 2.5 2.088 2.5 2.088l.83-3.435-9.718-2.325-2.168 9.096 11.917 2.822 1.662-3.83c-.96.564-2.044 1.178-4.35.703zM92.722 198.237l9.82 2.326.825-3.474s-1.138 1.257-3.19.77l-4.545-1.077.85-3.643 5.494 1.296c2.984.723 3.71 2.346 3.71 2.346l.263-3.9-11.324-2.673-1.904 8.027z" fill="#134A8E"/><path d="M91.223 188.904c-4.518 19.053-4.48 18.884-4.513 19.003-.273 1-1.05 2.405-2.89 2.613l17.073 4.05.98-2.248-12.93-3.07 4.85-20.417 12.227 2.92.15-2.465-16.08-3.81c.905.83 1.46 2.068 1.133 3.424zM153.28 186.42l.796 11.47 8.245-4.344-9.04-7.126zm2.454 4.662l2.702 2.158-2.44 1.276-.262-3.434z" fill="#134A8E"/><path d="M149.538 179.283l1.435 26.297c-.025 2.514-.42 3.95-1.08 4.86l3.797-2-1.643-24.397 19.21 15.144 3.6-1.9c-1.48-.05-2.906-.93-4.396-1.93l-20.922-16.074z" fill="#134A8E"/><path d="M154.194 199.098l.575 8.78.073-.04 4.216-2.218c-.985-.168-1.876-1.05-2.12-2.405l-.197-3.087 5.89-3.098 2.562 1.98c.65.533 1.672 1.582.618 3.048l4.266-2.257.078-.04-6.913-5.422-9.05 4.76zM200.678 153.055c-5.385-3.028-9.155.535-10.98 2.257l-.07.07c-1.778 1.662-2.61 2.078-3.445 1.692-.198-.08-.297-.158-.43-.247-.926-.663-1.02-1.81-.233-3.028.177-.27 1.75-2.574 4.652-1.13l.044.04-1.142-3.167h-.035c-1.09-.04-3.816.218-5.672 3.256-1.57 2.572-.91 5.185 1.608 6.62 2.395 1.337 4.166-.247 5.725-1.652l.07-.07.723-.584c.13-.108.257-.228.39-.326 1.44-1.248 2.807-2.415 4.806-2.355.157.01 1.494.09 2.75.85 1.263.772 2.094 1.802 2.45 3.088.48 1.694.22 3.594-.74 5.297-1.02 1.8-2.64 3.038-4.57 3.494-.826.19-1.29.248-2.39.288h-.005l.767 2.673h.02c4.998-.226 7.428-3.89 8.05-4.998.12-.227.18-.356.18-.356.984-1.76 1.458-3.643 1.35-5.464-.152-2.673-1.563-4.93-3.874-6.247z" fill="#134A8E"/><path d="M196.25 166.12c1.716-.367 3.027-1.376 3.923-2.97.04-.06.07-.13.098-.178l.04-.08c1.392-2.533.828-5.363-1.33-6.59-1.708-.96-3.202-.98-4.602-.07-1.193.78-2.668 2.04-2.673 2.058-2.415 2.128-4.48 3.632-7.34 2.07-1.374-.743-2.315-1.862-2.725-3.247-.44-1.554-.15-3.335.826-5.008.525-.89 2.51-3.78 6.176-3.702h.005l-.85-2.385-.01-.02-.62.07c-2.524.356-5.344 2.365-6.735 4.8-1.034 1.87-1.52 3.7-1.42 5.464.148 2.345 1.236 4.335 3.187 5.76.277.188.558.386.885.554 4.583 2.583 7.483-.02 9.814-2.108l.182-.168c1.905-1.712 3.256-2.544 4.532-1.81.792.425 1.174 1.9.496 3.206-.554 1.07-1.366 1.485-1.608 1.603-1.35.722-3.504-.2-3.514-.21l-.045-.028.93 3.246h.034c.857.09 2.332-.258 2.342-.258z" fill="#134A8E"/><path d="M208.427 110.24l.97-11.76-10.72 1.83-2.028-5.195c0 .02-6.488 6.324-7.736 7.512l-.093.11c-.608.553-1.266.87-1.825.87-.115 0-.213 0-.327-.04-.727-.187-1.212-1.02-1.058-2.72.034-.328.098-1.01.188-1.922.43-4.405 1.37-14.083 1.37-14.083l-6.275 2.503-7.53-12.312-5.024 8.214-2.515 4.098-6.265-2.524s1.37 14.174 1.56 16.025c.034.376.024.702 0 .99-.045.484-.125.86-.297 1.127-.252.446-.633.644-1.09.644-.108 0-.208-.01-.31-.04-.24-.03-.48-.13-.713-.247-.273-.17-.54-.358-.798-.585-.034-.04-.07-.07-.098-.11-1.237-1.206-7.725-7.51-7.725-7.51l-2.05 5.195-10.714-1.83.97 11.758-2.395.83-1.77.625 22.758 19.626-3.727 4.462 1.302-.098 17.26-1.416 1.64 3.157.52-1.01 1.123-2.147 3.33.287 3.77.297 11.467.93-3.732-4.463 22.755-19.627-2.08-.723-2.088-.73z" fill="#E8291C"/></svg>